<svg width="599" height="611" viewBox="0 0 599 611" fill="none" xmlns="http://www.w3.org/2000/svg">
<g clip-path="url(#clip0_113_348)">
<path d="M462.704 562.569C603.261 473.172 646.157 284.474 558.516 141.101C470.875 -2.27137 285.883 -46.0272 145.326 43.37C4.76915 132.767 -38.1274 321.465 49.514 464.837C137.155 608.21 322.147 651.966 462.704 562.569Z" fill="#8D705C"/>
<path opacity="0.72" d="M598.304 285.707H595.171L598.043 281.358C594.037 231.124 577.926 182.677 551.143 140.324C497.281 113.165 423.146 111.833 373.722 108.816L65.7822 117.691L63.5198 118.135C23.3616 170.585 1.1089 234.985 0.150701 301.528C-0.807499 368.071 19.5813 433.11 58.212 486.741C113.726 505.291 166.979 520.646 227.627 525.261C286.796 529.699 347.966 525.261 407.31 525.261C426.178 526.547 445.129 525.593 463.781 522.421C489.885 516.03 506.679 496.77 529.215 482.658C535.978 478.288 543.221 474.743 550.795 472.096C585.837 416.78 602.495 351.428 598.304 285.707Z" fill="#5C2000"/>
<path opacity="0.89" d="M516.859 94.9694C494.625 90.3588 471.862 88.9843 449.25 90.8867C431.238 91.6855 410.529 88.1352 392.082 89.9104C387.384 90.4429 384.425 83.6087 378.943 84.4962C373.461 85.3838 371.46 95.147 365.108 96.3896C354.753 98.3422 344.051 95.502 333.609 97.8984C308.897 103.668 301.153 108.017 276.876 105.798C250.772 103.49 225.278 98.786 198.564 95.3245C181.162 93.1056 167.849 98.6973 150.707 97.721C133.565 96.7447 122.776 85.8276 106.678 85.6501C100.819 85.7942 94.9892 86.5376 89.2757 87.869C73.9252 103.305 60.217 120.352 48.3794 138.726L57.0807 137.928C89.3627 174.673 101.284 137.928 135.393 139.703C157.146 140.679 192.735 190.827 205.003 151.507C209.688 152.508 214.423 153.249 219.187 153.726C220.144 150.886 219.97 148.401 221.188 145.472C248.858 151.33 326.561 195.619 351.186 174.762C369.372 159.318 349.446 154.436 374.157 146.892C389.809 144.393 405.805 145.362 421.058 149.732C431.238 135.62 477.964 137.661 494.497 140.857C511.03 144.052 541.919 169.88 555.406 164.466C556.189 171.034 562.28 176.625 563.325 182.217C566.076 181.24 568.728 179.992 571.243 178.489C557.723 147.798 539.35 119.582 516.859 94.9694Z" fill="#96C4D1"/>
<path opacity="0.72" d="M589.603 229.879C587.34 221.004 584.73 212.128 581.684 203.252C574.303 204.746 566.685 204.503 559.409 202.542C547.488 198.105 539.222 180.975 526.431 175.915C491.104 162.691 450.642 174.14 415.402 175.915C404.96 176.448 394.693 170.501 383.642 172.986C372.591 175.472 369.981 183.371 361.976 186.566C339.465 195.641 315.054 198.697 291.06 195.442C280.27 193.578 269.654 185.412 258.604 187.187C245.552 189.318 240.244 204.939 223.798 203.874C210.311 203.164 208.484 192.957 197.694 189.584C184.816 185.59 174.984 190.738 162.889 189.584C150.794 188.43 142.006 179.821 132.434 179.022C119.469 178.046 109.376 185.324 97.629 185.324C68.4795 185.324 49.8586 173.164 31.0637 169.88C22.6542 187.279 15.9225 205.471 10.9636 224.199C26.626 217.276 44.0287 207.957 54.4703 209.998C51.5989 234.583 85.447 239.554 101.545 232.631C104.155 286.417 176.55 229.258 194.91 229.347C213.27 229.436 293.757 295.825 302.458 252.246C303.757 254.958 305.671 257.315 308.04 259.122C310.41 260.929 313.168 262.134 316.085 262.638C319.003 263.141 321.996 262.927 324.816 262.016C327.637 261.104 330.204 259.519 332.304 257.394C341.615 265.116 369.72 268.045 381.641 263.607C397.564 257.571 403.829 234.85 421.058 232.187C446.205 228.282 482.663 268.755 500.936 227.483C502.502 253.045 561.845 250.648 589.603 229.879Z" fill="#96C4D1"/>
<path opacity="0.83" d="M597.26 273.548C548.619 267.246 500.24 278.34 452.904 289.968C432.195 295.115 359.191 289.08 356.581 303.459C345.482 297.868 332.942 295.974 320.731 298.044C315.858 299.198 306.287 311.802 303.851 311.713C292.017 311.18 289.754 298.044 276.615 293.962C260.344 288.814 253.818 299.553 239.374 301.328C215.358 304.257 195.867 296.18 169.763 301.328C134.958 307.719 122.254 307.186 74.0483 304.257C52.817 306.387 23.4935 290.944 0.347972 292.63C-0.906519 321.901 2.02468 351.202 9.04931 379.612C37.0676 385.558 69.1755 382.984 96.0627 389.819C150.522 403.39 206.911 406.996 262.606 400.469C294.105 396.209 309.158 390.44 336.742 403.931C351.882 411.209 369.633 423.014 389.472 409.168C398.695 433.398 424.973 411.564 442.202 410.943C459.43 410.321 470.742 413.605 491.538 408.813C521.123 402.067 559.061 395.233 589.689 379.878C589.689 378.458 590.473 377.038 590.734 375.618C598.587 342.221 600.794 307.702 597.26 273.548Z" fill="#96C4D1"/>
<path opacity="0.72" d="M559.148 457.629C533.044 455.232 498.239 478.664 478.748 479.108C467.958 458.072 410.703 492.332 387.47 487.983C370.764 485.054 359.887 468.99 345.182 468.102C330.477 467.214 306.287 481.06 289.928 483.723C276.267 485.942 260.431 491.09 247.379 485.321C241.636 482.836 234.762 469.167 229.28 467.569C219.622 465.439 219.361 472.362 209.267 474.67C175.245 482.214 113.552 503.96 78.7471 473.427C70.4049 474.788 62.2345 477.08 54.3833 480.262C67.5423 499.513 82.8425 517.145 99.9783 532.806C115.025 530.7 129.4 525.114 142.006 516.474C145.921 534.758 163.498 534.226 178.725 535.912C187.427 536.8 196.128 533.249 202.567 534.226C213.736 537.074 224.745 540.54 235.545 544.61C267.305 553.486 292.713 549.936 325.691 544.078C340.657 541.504 371.982 528.811 385.382 531.563C397.129 534.048 405.83 547.983 421.406 552.598C436.914 556.442 452.893 557.937 468.828 557.036C505.848 531.212 536.713 497.241 559.148 457.629Z" fill="#96C4D1"/>
<path opacity="0.72" d="M160.105 479.197C130.955 496.06 41.5924 483.546 81.7926 433.132C104.59 404.552 180.292 400.647 203.611 428.96C229.715 459.848 193.431 465.173 168.284 473.339L160.105 479.197Z" fill="#F2902B"/>
<path opacity="0.72" d="M468.045 487.717C456.472 477.066 440.288 485.41 426.888 491.001C426.061 495.339 426.061 499.799 426.888 504.137C441.593 510.971 458.212 513.9 470.394 501.83L468.045 487.717Z" fill="#F2902B"/>
<path opacity="0.72" d="M576.203 408.458C585.426 386.002 552.796 387.688 542.789 401.801C547.662 364.434 497.629 365.144 479.183 384.582C460.562 374.197 439.157 382.363 423.668 396.032C408.876 373.399 383.207 381.032 363.281 391.239C351.012 349.346 252.078 371.091 229.367 394.345C190.646 433.931 309.246 435.262 332.304 423.635C330.564 466.238 390.429 433.309 404.786 422.925C422.189 436.15 442.115 437.658 456.298 420.085C464.999 435.44 490.32 428.162 497.804 414.316C511.465 440.676 575.594 454.345 576.203 408.458Z" fill="#F2902B"/>
<path opacity="0.72" d="M584.034 210.176C572.809 203.519 559.409 204.939 551.404 224.998C535.306 210.886 494.149 178.223 482.663 215.057C459.343 197.306 454.732 217.187 436.024 220.294C419.404 223.045 414.619 215.412 397.303 211.418C369.546 205.649 369.372 220.294 345.095 230.057C318.469 240.264 305.504 222.246 282.358 214.968C256.254 206.625 247.553 224.288 226.844 224.376C212.66 224.376 204.655 207.779 188.732 210.442C180.553 211.773 174.201 224.998 165.76 226.595C157.32 228.193 152.882 222.158 146.53 221.98C127.474 221.359 104.503 222.779 74.3092 221.359C88.3184 193.578 43.9416 183.105 29.1493 204.051C26.1696 201.573 22.8588 199.541 19.3168 198.016C14.8607 210.228 11.1412 222.707 8.17911 235.382C4.72207 250.356 2.39488 265.578 1.21802 280.914C12.1493 284.767 23.7431 286.275 35.2724 285.344C46.8018 284.412 58.0181 281.061 68.2183 275.5C84.0548 299.642 100.326 294.405 123.733 291.476C142.528 289.169 169.067 288.991 190.907 276.299C202.654 324.849 255.471 279.317 280.966 277.808C306.461 276.299 322.906 296.181 351.447 289.968C372.243 285.441 380.509 278.873 404.699 280.116C412.443 280.559 419.143 284.82 427.061 283.755C440.026 282.068 447.249 270.352 457.255 268.4C473.527 265.205 471.96 271.861 488.841 277.275C517.207 286.95 520.862 271.24 540.179 263.429C561.584 254.554 558.191 266.092 579.161 263.429C585.024 262.979 590.667 260.958 595.519 257.571C592.939 241.485 589.098 225.636 584.034 210.176Z" fill="#F2902B"/>
<g style="mix-blend-mode:overlay" opacity="0.83">
<path d="M598.13 327.689C591.307 324.429 584.858 320.41 578.9 315.707C576.185 326.059 575.069 336.779 575.593 347.482C542.963 350.943 524.255 309.316 487.275 312.778C485.044 319.898 484.714 327.496 486.317 334.79C475.177 335.68 463.976 334.198 453.426 330.44C453.949 334.079 452.034 338.784 452.469 342.423C430.455 345.618 347.357 300.885 348.053 337.364C326.822 332.038 272.526 295.204 264.781 337.364C252.6 326.091 235.371 326.89 237.285 344.287C218.055 336.742 197.694 332.659 188.645 352.63C172.199 345.352 111.812 298.932 107.896 342.423C98.412 334.346 70.9158 310.559 64.3898 334.79C56.2975 325.026 40.8092 323.872 34.2832 352.541C38.8949 336.653 15.3142 313.222 0.0869141 314.109C0.636512 330.739 2.46944 347.299 5.56873 363.635C17.5606 374.783 32.8902 381.475 49.0754 382.629C56.7326 356.002 82.6626 383.961 98.8471 389.375C129.911 399.937 135.045 388.754 117.033 367.807L123.472 362.482C139.732 374.809 158.396 383.435 178.203 387.777C184.294 368.162 189.08 369.05 209.702 372.156C218.403 373.487 224.668 384.404 236.676 382.629C246.248 381.209 252.774 368.251 260.431 363.902C269.435 357.831 279.802 354.191 290.562 353.322C301.321 352.453 312.12 354.383 321.949 358.931C334.653 364.345 354.753 391.239 360.931 367.807C366.909 365.61 373.451 365.615 379.426 367.819C385.4 370.024 390.431 374.289 393.648 379.878C391.386 358.31 430.02 351.476 443.768 368.961C443.36 366.198 443.127 363.411 443.072 360.618C463.172 367.718 500.849 375.174 496.498 347.215C511.725 364.967 526.083 378.458 545.052 354.405C553.753 369.671 569.763 372.156 587.601 374.552C588.606 370.185 590.536 366.095 593.257 362.57C595.52 351.045 597.147 339.4 598.13 327.689Z" fill="#205673"/>
</g>
<g style="mix-blend-mode:overlay" opacity="0.83">
<path d="M112.943 122.662C108.419 106.597 79.6173 102.248 84.9251 122.129C79.7253 121.012 74.3042 121.9 69.7084 124.621C65.1126 127.342 61.6679 131.703 60.0393 136.863C70.3939 153.726 96.4109 144.052 110.855 140.413C118.686 138.371 127.04 131.537 135.306 130.916C143.572 130.295 146.096 139.792 157.407 138.016C169.589 148.223 200.914 137.306 217.011 136.685C239.896 135.798 267.653 153.993 287.405 142.809C291.321 161.714 314.292 158.519 324.473 145.738C354.145 165.62 360.322 144.141 383.729 136.863C389.559 135.087 401.132 141.922 409.05 141.744C416.968 141.567 428.628 136.596 435.154 135.886C437.416 135.886 441.158 142.454 445.596 141.922C450.033 141.389 459.605 133.845 463.52 133.845C471.69 134.582 479.748 136.28 487.536 138.904C502.937 142.188 530.434 157.099 537.308 136.685C525.996 118.934 494.236 116.537 476.833 116.892C468.132 116.892 454.819 121.952 447.336 121.241C439.853 120.531 437.416 115.384 431.76 114.585C410.094 111.567 400.61 120.798 380.162 122.306C363.629 123.549 349.533 113.431 332.391 113.431C320.209 113.431 305.069 117.78 293.061 119.555C258.256 124.614 228.062 107.218 192.909 121.774C183.859 110.413 117.903 114.141 112.943 122.662Z" fill="#205673"/>
</g>
<path opacity="0.72" d="M401.393 566.888C368.241 568.131 343.442 549.758 312.726 549.936C285.491 549.936 257.734 555.527 229.454 555.616C201.175 555.705 167.675 536.001 144.007 541.947C142.515 545.331 140.292 548.326 137.504 550.709C134.717 553.091 131.437 554.799 127.91 555.705C135.045 560.853 142.354 565.645 150.011 570.083C156.681 567.96 163.574 566.649 170.546 566.178C182.526 567.707 194.348 570.32 205.874 573.989C270.438 588.722 324.386 585.527 388.602 581.089C400.233 581.223 411.85 581.963 423.407 583.308C436.665 577.144 449.462 569.995 461.693 561.918C441.767 563.16 422.015 566.178 401.393 566.888Z" fill="#C6AA89"/>
<path opacity="0.72" d="M327.17 73.5792C347.618 72.2479 361.193 68.2538 381.902 71.449C409.833 75.7981 429.411 68.0763 456.211 67.9875C472.483 67.9875 483.881 75.4431 498.065 78.9934V76.5969C487.851 67.3701 477.037 58.8596 465.696 51.1238C434.197 43.5795 388.776 47.2185 371.112 48.1948C316.033 51.3013 265.652 43.8458 238.069 42.5144C220.666 43.9345 203.263 51.3901 186.644 51.3901C174.027 51.3901 160.54 45.3545 146.444 43.4019C135.641 50.005 125.238 57.2666 115.293 65.1472C118.687 65.039 122.06 65.7269 125.153 67.158C128.245 68.589 130.975 70.7252 133.13 73.4016C180.553 90.4429 234.327 70.8277 285.056 70.9165C300.631 70.739 312.03 74.6443 327.17 73.5792Z" fill="#C6AA89"/>
<path opacity="0.72" d="M546.27 452.392C538.961 468.723 522.863 462.777 508.854 464.729C504.246 465.322 499.869 467.127 496.15 469.966C493.21 472.537 490.131 474.937 486.927 477.155C483.967 478.604 480.726 479.356 477.442 479.356C474.159 479.356 470.918 478.604 467.958 477.155C455.161 472.755 441.405 472.139 428.28 475.38C411.921 478.753 396.694 483.546 380.074 478.575C365.315 473.278 349.855 470.285 334.218 469.7C316.816 469.7 300.196 471.209 283.142 471.12C266.23 471.523 249.458 467.907 234.153 460.558C220.389 452.686 208.503 441.805 199.348 428.694C193.016 418.935 184.854 410.549 175.332 404.02C163.435 398.368 149.95 397.235 137.307 400.825C135.654 400.825 136.002 403.931 137.307 403.754C151.403 402.955 166.37 403.31 177.594 413.162C186.539 422.382 194.772 432.293 202.219 442.806C212.335 454.591 224.974 463.843 239.157 469.845C253.341 475.848 268.688 478.44 284.012 477.422C301.414 476.889 318.817 472.274 336.829 472.806C345.669 472.818 354.461 474.133 362.933 476.711C371.66 480.366 380.648 483.334 389.82 485.587C403.323 486.402 416.862 484.841 429.846 480.972C439.334 478.39 449.275 478.056 458.909 479.995C465.718 482.981 472.998 484.695 480.401 485.055C486.705 483.914 492.51 480.814 497.02 476.179C504.632 470.789 513.936 468.48 523.125 469.7C535.654 469.7 546.357 467.303 550.882 454.079C551.665 451.682 547.488 449.729 546.27 452.392Z" fill="#EDD8AB"/>
<path opacity="0.72" d="M179.16 433.309C164.368 418.487 135.132 417.333 115.989 419.197C96.8458 421.061 67.2613 430.824 73.9613 456.652C73.9613 456.652 74.3964 456.652 73.9613 456.652C70.5678 413.96 142.18 418.753 165.76 430.025C171.416 432.777 178.899 437.215 179.596 444.226C180.292 451.238 171.764 460.025 165.586 463.575C154.884 469.788 89.5367 490.202 92.0601 464.197C93.3653 450.084 118.164 446.445 128.519 445.646C133.74 445.646 145.051 445.114 148.967 449.729C151.664 452.924 150.098 450.706 148.184 453.812C145.363 457.165 141.643 459.602 137.481 460.824C131.256 462.89 124.666 463.556 118.164 462.776C115.554 462.776 115.641 466.682 118.164 466.948C125.129 468.202 132.298 467.445 138.863 464.764C145.428 462.082 151.128 457.582 155.319 451.771C155.588 451.381 155.733 450.916 155.733 450.439C155.733 449.962 155.588 449.497 155.319 449.108C145.834 439.256 129.215 440.232 117.207 442.717C107.026 444.848 91.103 450.084 88.3185 461.978C85.5341 473.871 97.0198 480.616 107.461 481.504C124.975 482.08 142.411 478.874 158.625 472.096C172.896 466.948 194.91 449.463 179.16 433.309Z" fill="#EDD8AB"/>
<path opacity="0.72" d="M528.258 467.836C518.774 471.652 510.159 476.711 501.023 481.327C497.716 483.679 493.904 485.188 489.907 485.729C485.911 486.269 481.845 485.825 478.051 484.433C474.484 482.481 471.873 477.51 468.306 475.558C456.847 469.952 443.829 468.602 431.499 471.741C407.484 475.291 386.426 488.338 361.889 480.084C343.355 473.871 335.262 464.108 314.814 467.57C296.628 470.765 269.306 492.066 250.946 486.208C239.548 482.658 231.455 470.41 217.707 471.83C213.855 472.562 210.204 474.137 207.005 476.445C195.413 482.058 182.675 484.767 169.85 484.345C147.872 485.023 126.284 490.437 106.504 500.232C104.329 501.297 105.721 503.96 107.548 504.226C119.059 504.879 130.572 503.002 141.31 498.723C155.1 496.012 169.12 494.704 183.163 494.818C201.262 493.309 214.749 478.575 231.804 487.983C241.549 493.309 246.335 499.699 257.908 498.901C281.923 497.303 303.503 476.179 327.518 479.108C336 481.456 344.094 485.076 351.534 489.847C360.884 494.141 370.959 496.552 381.206 496.948C399.739 497.392 417.142 488.516 435.067 484.877C448.728 482.126 459.953 479.907 471.351 488.694C474.484 491.09 475.615 493.575 479.182 494.995C496.585 501.741 517.991 482.392 530.607 473.694C533.131 471.564 531.565 466.504 528.258 467.836Z" fill="#EDD8AB"/>
<path opacity="0.72" d="M335.437 469.699C319.6 457.629 306.113 467.214 288.536 471.297C276.528 474.137 269.828 476.889 260.257 467.569C255.906 463.398 254.427 458.694 248.075 456.297C240.799 454.947 233.325 455.189 226.148 457.007C212.835 457.629 210.659 450.439 203.524 440.055C196.389 429.67 189.341 415.025 178.29 406.771C166.177 399.334 151.886 396.475 137.916 398.694C131.068 400.39 123.877 399.926 117.294 397.363C110.072 393.191 111.638 386.268 107.026 380.322C96.4977 366.742 84.6639 377.659 72.221 380.322C49.3365 385.115 31.3247 377.57 10.5285 370.203C10.2783 370.156 10.0205 370.171 9.77745 370.248C9.53435 370.325 9.31326 370.461 9.13331 370.644C8.95336 370.828 8.81997 371.053 8.74468 371.301C8.6694 371.549 8.65446 371.812 8.7012 372.067C12.5298 388.043 29.9325 394.7 44.5507 397.008C53.7112 398.384 62.9989 398.652 72.221 397.807C79.008 397.185 88.8405 391.86 93.8873 396.032C96.9328 398.517 98.586 405.883 102.589 409.345C106.88 413.159 111.969 415.922 117.468 417.422C134.871 421.416 154.797 409.789 169.676 423.812C181.945 435.173 188.036 453.102 198.825 465.705C207.527 476.445 219.883 476.001 232.5 473.871C239.461 472.717 241.201 471.12 247.118 476.356C248.162 477.244 249.032 479.64 250.076 480.794C254.458 484.989 259.976 487.742 265.913 488.693C292.713 492.51 303.503 453.191 333.609 471.652C335.611 472.096 336.568 470.587 335.437 469.699Z" fill="#EDD8AB"/>
<path opacity="0.72" d="M583.773 285.707C568.98 270.441 541.136 274.613 524.082 282.601C510.333 288.991 498.5 299.82 483.446 303.459C468.393 307.098 457.342 299.642 443.594 297.157C431.639 295.936 419.566 297.328 408.18 301.24C393.975 304.986 379.343 306.777 364.673 306.565C350.753 307.921 337.065 311.113 323.951 316.062C304.895 321.299 294.192 316.95 278.095 308.606C255.384 296.802 233.805 311.269 211.443 317.482C192.474 322.452 179.77 313.932 162.976 307.186C151.375 302.511 138.799 300.922 126.43 302.571C92.1472 305.944 57.6029 312.956 23.9287 301.683C47.7704 313.666 68.4796 321.387 95.4537 319.435C108.071 318.458 120.862 316.949 133.392 314.908C141.606 312.612 150.196 312.068 158.625 313.311C165.075 315.429 171.22 318.414 176.898 322.186C199.087 333.902 217.707 326.535 239.722 318.281C248.034 313.452 257.611 311.374 267.131 312.334C272.196 314.232 276.861 317.093 280.879 320.766C286.83 324.893 293.662 327.511 300.805 328.399C311.712 329.134 322.65 327.532 332.913 323.695C348.632 319.358 364.835 317.121 381.119 317.038C408.267 315.618 426.104 296.891 453.949 307.453C461.545 310.973 469.829 312.675 478.169 312.428C486.509 312.182 494.683 309.995 502.067 306.032C513.988 300.086 524.865 291.033 538.004 288.281C546.658 286.255 555.694 286.716 564.108 289.613C581.51 296.092 573.505 308.34 564.804 318.192C562.454 320.855 564.804 326.18 568.545 324.671C585.165 318.281 599.348 301.24 583.773 285.707Z" fill="#EDD8AB"/>
<path opacity="0.72" d="M545.922 131.005C544.53 129.496 543.05 128.076 541.571 126.656C540.092 125.236 539.309 123.105 537.655 122.218C537.564 122.155 537.456 122.123 537.346 122.127C537.236 122.131 537.13 122.17 537.043 122.239C536.957 122.308 536.893 122.403 536.863 122.511C536.832 122.619 536.835 122.733 536.872 122.839C536.872 124.792 539.396 126.656 540.701 128.076C542.11 129.536 543.798 130.684 545.661 131.448C545.661 131.448 546.009 131.182 545.922 131.005Z" fill="#EDD8AB"/>
<path opacity="0.72" d="M526.431 117.07C524.375 115.687 522.071 114.733 519.652 114.26C517.233 113.788 514.746 113.808 512.335 114.318C512.335 114.318 512.335 114.851 512.335 114.851C514.668 114.351 517.076 114.345 519.411 114.833C521.746 115.322 523.958 116.295 525.909 117.691C525.909 117.691 526.779 117.07 526.431 117.07Z" fill="#EDD8AB"/>
<path opacity="0.72" d="M434.893 108.194C410.355 85.8276 390.342 96.4784 362.063 105.265C338.83 112.455 318.556 103.845 294.975 104.644C277.425 106.399 259.991 109.215 242.767 113.076C220.84 116.449 198.565 112.1 176.289 113.608C157.156 115.526 137.867 112.186 120.427 103.934C104.59 96.8335 75.5276 87.514 70.8289 112.81C70.8289 115.561 73.3523 118.934 76.1367 116.892C81.7962 111.865 88.7003 108.52 96.096 107.221C103.492 105.922 111.095 106.719 118.077 109.526C127.51 113.487 137.19 116.808 147.053 119.466C161.581 120.676 176.201 119.989 190.559 117.425C208.745 115.472 225.365 119.466 243.463 119.2C259.648 119.2 275.136 112.721 291.234 111.39C307.331 110.058 322.82 114.762 338.917 114.762C352.262 114.078 365.378 110.951 377.638 105.532C386.733 101.58 396.598 99.8211 406.468 100.391C416.337 100.96 425.945 103.843 434.545 108.816C434.545 108.816 435.154 108.194 434.893 108.194Z" fill="#EDD8AB"/>
<path opacity="0.72" d="M468.219 57.3368C445.073 45.7984 427.497 56.1829 404.699 62.7509C385.556 68.165 372.591 59.6444 355.537 52.6327C342.848 47.6378 328.949 46.8001 315.771 50.2362C294.488 55.3929 272.459 56.536 250.772 53.609C235.838 50.7169 220.595 49.8513 205.438 51.035C197.513 52.661 189.762 55.0687 182.293 58.2242C170.976 62.2855 158.591 61.9698 147.488 57.3368C143.752 55.7231 139.625 55.3003 135.649 56.1241C131.673 56.9479 128.035 58.9795 125.212 61.952C120.6 66.0348 125.212 73.0466 130.781 71.804C145.486 68.2537 157.581 76.5968 172.112 75.7093C186.644 74.8217 199.435 66.3899 214.053 64.9698C247.031 61.6858 276.441 73.8455 309.767 64.9698C326.717 59.9123 344.899 61.3972 360.844 69.1414C369.393 73.3422 379.084 74.4684 388.341 72.3366C416.881 66.4787 437.503 47.4848 467.784 57.8693C468.306 58.0468 468.567 57.5143 468.219 57.3368Z" fill="#EDD8AB"/>
<path opacity="0.72" d="M537.395 144.762C514.51 144.318 501.371 126.212 479.966 122.573C456.211 118.667 437.068 136.508 412.443 130.028C405.135 127.435 397.339 126.59 389.66 127.559C381.98 128.529 374.622 131.287 368.154 135.62C356.929 142.099 349.272 136.33 337.525 137.573C330.474 138.971 323.834 142.008 318.121 146.448C302.894 156.212 292.713 158.164 275.832 149.644C266.892 144.261 257.448 139.801 247.64 136.33C232.221 132.773 216.115 133.946 201.349 139.703C178.638 146.892 162.715 136.33 140.44 132.514C120.093 129.802 99.4275 131.037 79.5303 136.152C79.5303 136.152 79.5303 136.863 79.5303 136.774C108.767 131.803 133.914 130.916 161.149 144.141C166.88 147.579 173.227 149.814 179.817 150.713C186.407 151.612 193.106 151.158 199.522 149.377C208.37 145.673 217.739 143.426 227.279 142.721C240.244 143.431 251.208 153.46 262.084 160.028C278.269 170.235 295.149 177.779 313.596 168.904C321.688 165.087 328.737 156.744 337.264 154.17C345.791 151.596 354.667 156.744 363.89 154.17C373.113 151.596 378.943 141.655 389.037 138.993C399.13 136.33 409.659 142.365 419.927 143.963C443.246 147.602 464.39 128.342 486.927 137.484C504.939 144.851 516.772 158.608 537.569 156.478C538.75 156.032 539.767 155.223 540.479 154.162C541.191 153.102 541.564 151.842 541.544 150.557C541.525 149.272 541.116 148.024 540.373 146.986C539.63 145.949 538.589 145.171 537.395 144.762Z" fill="#EDD8AB"/>
<path opacity="0.72" d="M229.193 259.08C220.492 240.086 190.298 234.583 181.336 255.885C179.769 259.613 183.25 264.761 187.253 262.009C192.792 257.618 199.642 255.299 206.657 255.441C212.399 256.329 223.189 262.897 220.84 270.352C217.185 281.624 192.473 279.228 184.12 276.92C174.094 272.769 165.58 265.542 159.756 256.24C153.178 245.327 143.827 236.433 132.695 230.501C124.729 227.99 116.402 226.879 108.07 227.217C91.9729 226.418 85.4469 220.471 73.2651 213.104C68.9994 210.458 63.9479 209.451 59.0192 210.264C54.0905 211.077 49.6079 213.657 46.3777 217.541C43.1475 221.424 41.3816 226.356 41.3976 231.448C41.4136 236.541 43.2104 241.461 46.465 245.323C57.2547 259.613 92.4951 272.838 104.242 253.666C105.634 251.447 103.024 249.583 101.022 250.471C85.795 257.216 50.7286 257.394 46.9871 234.495C44.2026 217.631 60.4741 214.968 69.6976 221.536C72.482 223.489 74.3963 226.862 77.1807 228.992C84.2329 234.084 92.4975 237.15 101.109 237.867C112.943 239.021 124.516 236.181 135.306 243.193C142.622 249.188 148.94 256.352 154.014 264.406C161.761 276.116 173.526 284.444 186.992 287.749C203.611 291.476 241.462 285.707 229.193 259.08Z" fill="#EDD8AB"/>
<path opacity="0.72" d="M463.955 233.43C461.693 236.625 464.738 240.53 468.045 240.708C476.746 240.708 493.366 242.305 481.445 255.441C477.642 258.006 473.346 259.713 468.844 260.448C464.342 261.182 459.738 260.928 455.341 259.702C453.775 258.814 451.338 252.335 449.598 250.826C441.599 244.981 432.299 241.259 422.537 239.998C410.703 237.069 389.472 236.004 403.133 220.382C404.028 219.466 404.605 218.277 404.778 216.996C404.951 215.715 404.709 214.411 404.09 213.282C384.86 187.365 349.707 197.039 328.562 215.767C328.081 216.271 327.717 216.879 327.496 217.545C327.276 218.212 327.205 218.92 327.288 219.619C327.372 220.317 327.608 220.987 327.979 221.58C328.35 222.173 328.847 222.674 329.433 223.045C336.742 226.773 353.187 236.536 345.443 247.453C337.699 258.37 311.856 253.4 302.806 248.074C287.927 239.199 278.53 224.021 263.302 215.501C263.128 215.427 262.935 215.413 262.753 215.461C262.57 215.509 262.408 215.616 262.29 215.766C262.172 215.917 262.105 216.102 262.1 216.294C262.094 216.486 262.15 216.675 262.258 216.832C283.751 241.773 305.765 278.962 344.486 260.057C366.935 249.14 354.84 228.992 339.787 218.519C354.927 207.601 380.596 198.637 391.995 215.678C384.773 225.175 381.815 236.004 393.996 243.726C403.481 249.761 441.767 250.648 443.42 263.873C443.468 265.233 443.929 266.545 444.74 267.626C445.55 268.707 446.67 269.505 447.945 269.909C466.827 274.968 498.499 273.992 497.629 246.388C497.107 228.104 475.267 217.098 463.955 233.43Z" fill="#EDD8AB"/>
<path opacity="0.72" d="M572.286 240.441C570.836 234.294 568.165 228.515 564.438 223.462C560.712 218.409 556.009 214.189 550.62 211.063C548.152 210.04 545.464 209.692 542.824 210.052C540.183 210.413 537.68 211.47 535.562 213.119C533.444 214.768 531.785 216.953 530.748 219.456C529.712 221.96 529.333 224.696 529.65 227.394C529.65 231.299 535.219 234.672 538.351 230.945C542.876 225.175 544.355 220.471 551.925 225.885C555.679 228.867 558.666 232.736 560.627 237.157C557.031 236.778 553.397 237.109 549.924 238.134C545.66 240.086 543.398 245.589 538.873 247.453C530.172 251.181 526.256 242.572 523.037 235.649C518.164 225.442 514.336 209.022 501.371 207.247C501.371 207.247 500.849 207.246 501.371 207.868C508.419 212.749 510.768 225.087 513.814 232.72C516.086 240.202 519.948 247.082 525.125 252.867C527.46 254.986 530.348 256.366 533.438 256.839C536.529 257.312 539.687 256.857 542.528 255.53C546.27 254.021 549.402 249.672 553.057 248.43C558.363 247.356 563.747 246.733 569.154 246.566C570.34 246.14 571.323 245.271 571.904 244.134C572.486 242.997 572.622 241.677 572.286 240.441Z" fill="#EDD8AB"/>
<path opacity="0.72" d="M80.4874 404.286C63.0847 399.493 44.8119 413.162 37.8509 428.96C35.8706 432.74 34.9829 437.015 35.291 441.289C35.599 445.562 37.0903 449.659 39.5912 453.102C40.8517 454.456 42.4442 455.441 44.2035 455.956C45.9629 456.471 47.8253 456.497 49.5977 456.031C54.0354 454.966 53.7743 452.126 55.6016 448.576C55.6919 448.416 55.7403 448.236 55.7418 448.052C55.7433 447.868 55.6981 447.686 55.6104 447.525C55.5228 447.364 55.3958 447.229 55.2417 447.133C55.0877 447.037 54.9119 446.984 54.7315 446.978C53.0834 447.085 51.4303 446.874 49.8587 446.357C48.4665 447.777 47.9444 447.511 48.1184 445.38C47.7532 444.198 47.5197 442.977 47.4224 441.741C47.0679 436.591 48.5513 431.484 51.599 427.363C53.931 423.876 56.8823 420.866 60.3003 418.487C62.1175 420.42 64.4511 421.765 67.0114 422.357C69.5717 422.948 72.246 422.759 74.7021 421.814C77.1582 420.868 79.288 419.208 80.827 417.039C82.366 414.869 83.2464 412.287 83.3589 409.611C83.541 408.523 83.3563 407.405 82.8348 406.437C82.3133 405.47 81.4858 404.712 80.4874 404.286ZM64.9991 416.446C67.7576 415.168 70.6923 414.329 73.7004 413.96C71.9601 416.801 68.7406 416.978 64.9991 416.446Z" fill="#EDD8AB"/>
<path opacity="0.72" d="M57.6028 440.321C57.6028 439.544 57.3002 438.799 56.7617 438.25C56.2232 437.701 55.4929 437.392 54.7313 437.392C53.9698 437.392 53.2394 437.701 52.7009 438.25C52.1624 438.799 51.8599 439.544 51.8599 440.321V442.451C51.8599 446.357 58.0378 446.357 57.7768 442.451L57.6028 440.321Z" fill="#EDD8AB"/>
<path opacity="0.72" d="M462.215 484.344C458.49 482.108 454.059 481.439 449.859 482.48C448.371 482.951 446.983 483.703 445.769 484.699H444.116C443.594 484.699 441.593 484.699 443.246 484.699H440.462C437.545 485.516 435.013 487.374 433.326 489.936L432.804 490.557C432.339 491.403 431.96 492.295 431.673 493.22C431.003 495.949 431.4 498.836 432.781 501.271C434.161 503.707 436.417 505.498 439.069 506.267C440.614 506.844 442.31 506.844 443.855 506.267C446.395 506.09 448.922 505.764 451.425 505.291L459.604 503.96C461.677 503.37 463.534 502.172 464.944 500.513C466.353 498.855 467.253 496.81 467.531 494.634C467.81 492.457 467.454 490.245 466.509 488.274C465.563 486.302 464.07 484.658 462.215 483.546V484.344Z" fill="#EDD8AB"/>
<path opacity="0.72" d="M433.152 490.912L434.197 489.492L433.152 490.912Z" fill="#EDD8AB"/>
<path opacity="0.72" d="M356.146 497.658C349.01 496.327 331.434 493.131 326.735 501.563C321.079 503.427 322.732 511.859 327.605 513.723C332.187 515.559 337.087 516.427 342.008 516.274C346.929 516.122 351.768 514.952 356.233 512.835C362.585 510.35 364.238 499.344 356.146 497.658Z" fill="#EDD8AB"/>
<path opacity="0.72" d="M448.641 527.747C447.279 527.747 445.973 528.298 445.011 529.28C444.048 530.262 443.507 531.594 443.507 532.983C443.507 534.372 444.048 535.704 445.011 536.686C445.973 537.668 447.279 538.22 448.641 538.22C450.002 538.22 451.308 537.668 452.271 536.686C453.234 535.704 453.775 534.372 453.775 532.983C453.775 531.594 453.234 530.262 452.271 529.28C451.308 528.298 450.002 527.747 448.641 527.747Z" fill="#EDD8AB"/>
<path opacity="0.72" d="M218.839 520.646C206.744 513.013 189.428 502.895 178.377 518.161C177.48 519.32 177.018 520.768 177.072 522.243C176.686 522.871 176.438 523.577 176.344 524.311C176.249 525.046 176.312 525.793 176.527 526.501C176.741 527.208 177.104 527.861 177.588 528.413C178.073 528.965 178.668 529.404 179.335 529.699C191.021 535.81 204.536 537.205 217.185 533.604C218.474 533.196 219.62 532.42 220.489 531.368C221.357 530.315 221.911 529.03 222.086 527.666C222.26 526.302 222.046 524.915 221.471 523.67C220.895 522.426 219.982 521.376 218.839 520.646Z" fill="#EDD8AB"/>
<path opacity="0.72" d="M297.151 385.558C294.843 385.558 292.63 386.494 290.998 388.158C289.366 389.823 288.449 392.08 288.449 394.434C288.449 396.788 289.366 399.046 290.998 400.71C292.63 402.375 294.843 403.31 297.151 403.31C299.459 403.31 301.672 402.375 303.304 400.71C304.935 399.046 305.852 396.788 305.852 394.434C305.852 392.08 304.935 389.823 303.304 388.158C301.672 386.494 299.459 385.558 297.151 385.558Z" fill="#EDD8AB"/>
<path opacity="0.72" d="M262.432 401.534C255.036 398.428 239.635 398.339 238.417 409.079L232.935 408.635C224.234 408.635 221.623 423.102 230.76 424.966C238.707 426.537 246.905 426.172 254.688 423.901H255.993C258.129 424.472 260.315 424.829 262.519 424.966C263.44 425 264.354 424.8 265.181 424.385C266.007 423.969 266.719 423.351 267.254 422.586C267.788 421.821 268.129 420.932 268.244 420C268.359 419.068 268.246 418.121 267.914 417.244C268.682 415.869 269.15 414.341 269.286 412.764C269.422 411.187 269.223 409.599 268.703 408.108C268.183 406.617 267.353 405.258 266.271 404.123C265.189 402.989 263.879 402.106 262.432 401.534Z" fill="#EDD8AB"/>
<path opacity="0.72" d="M300.718 383.339C296.932 383.021 293.135 383.79 289.755 385.558C287.109 385.806 284.581 386.788 282.445 388.399C281.236 389.178 280.298 390.327 279.767 391.682C279.236 393.036 279.138 394.528 279.487 395.943C279.658 396.572 279.922 397.171 280.27 397.718C281.488 401.89 286.622 402.6 289.929 402.333C294.344 401.729 298.708 400.779 302.981 399.493C304.349 399.079 305.596 398.328 306.613 397.307C307.629 396.285 308.384 395.024 308.81 393.635C309.008 392.407 308.949 391.151 308.64 389.947C308.33 388.743 307.776 387.62 307.012 386.649C306.249 385.678 305.295 384.882 304.21 384.312C303.126 383.741 301.936 383.41 300.718 383.339Z" fill="#EDD8AB"/>
<path opacity="0.72" d="M490.233 387.156C482.663 387.156 469.698 387.156 466.566 396.032L465.347 397.629C460.997 404.73 470.046 411.475 475.528 408.458C476.367 408.54 477.212 408.54 478.051 408.458H480.923C484.921 408.351 488.906 407.936 492.844 407.215C495.451 406.862 497.815 405.466 499.414 403.336C501.013 401.205 501.717 398.514 501.371 395.854C501.025 393.194 499.657 390.783 497.568 389.152C495.479 387.521 492.841 386.803 490.233 387.156Z" fill="#EDD8AB"/>
<path opacity="0.72" d="M416.098 405.617C416.077 404.404 415.713 403.222 415.049 402.214C414.385 401.206 413.45 400.416 412.356 399.937C410.334 397.922 407.613 396.806 404.786 396.831C401.819 396.834 398.962 397.975 396.781 400.026C395.32 401.523 394.499 403.549 394.499 405.662C394.499 407.774 395.32 409.801 396.781 411.298C398.971 413.324 401.83 414.433 404.786 414.404C406.186 414.421 407.576 414.156 408.876 413.623C410.175 413.089 411.358 412.299 412.356 411.298C413.478 410.859 414.439 410.078 415.108 409.062C415.778 408.045 416.124 406.842 416.098 405.617Z" fill="#EDD8AB"/>
<path opacity="0.72" d="M507.027 342.778C500.896 341.873 494.824 340.599 488.841 338.961C484.751 335.855 480.14 333.37 475.267 338.429C474.292 339.437 473.668 340.742 473.49 342.146C473.312 343.55 473.589 344.975 474.28 346.203C474.971 347.431 476.037 348.394 477.315 348.946C478.593 349.497 480.013 349.606 481.358 349.257C490.165 348.239 498.888 346.578 507.462 344.287C507.549 343.843 508.158 342.866 507.027 342.778Z" fill="#EDD8AB"/>
<path opacity="0.72" d="M487.188 339.494C486.911 339.494 486.645 339.606 486.449 339.806C486.254 340.006 486.144 340.276 486.144 340.559C486.144 340.841 486.254 341.112 486.449 341.312C486.645 341.512 486.911 341.624 487.188 341.624C498.368 343.03 509.692 342.701 520.775 340.648C509.701 338.535 498.376 338.146 487.188 339.494Z" fill="#EDD8AB"/>
<path opacity="0.72" d="M368.937 335.145C359.017 329.021 342.833 329.642 337.351 341.446C337.328 341.682 337.328 341.92 337.351 342.156H335.611C335.241 342.003 334.828 342.006 334.46 342.164C334.093 342.323 333.803 342.623 333.653 343C333.503 343.376 333.506 343.798 333.661 344.173C333.816 344.547 334.11 344.844 334.479 344.997C339.132 348.539 344.871 350.27 350.664 349.878C353.195 349.805 355.708 349.418 358.147 348.724C360.148 348.192 362.672 346.594 364.499 346.86C365.986 347.306 367.583 347.165 368.972 346.466C370.362 345.766 371.444 344.56 372.002 343.085C372.561 341.611 372.555 339.976 371.988 338.505C371.42 337.034 370.331 335.835 368.937 335.145Z" fill="#EDD8AB"/>
<path opacity="0.72" d="M255.819 344.553C254.674 344.618 253.581 345.06 252.702 345.812C251.824 346.564 251.208 347.586 250.947 348.725C250.947 349.612 251.469 350.5 252.426 350.233C253.432 349.781 254.37 349.183 255.21 348.458C255.21 348.458 255.993 348.458 255.732 348.458C255.471 348.458 256.428 349.612 256.602 349.967C256.739 350.199 256.945 350.379 257.191 350.48C257.437 350.581 257.708 350.597 257.963 350.527C258.219 350.457 258.445 350.304 258.608 350.091C258.771 349.877 258.861 349.616 258.865 349.346C258.343 346.949 257.734 344.642 255.819 344.553Z" fill="#EDD8AB"/>
<path opacity="0.72" d="M231.978 347.837C220.801 345.65 209.393 344.964 198.042 345.796C191.516 346.861 175.332 349.967 176.289 359.73C176.985 367.008 184.99 365.677 190.211 364.346L195.258 363.103C201.272 368.134 208.906 370.702 216.674 370.308C224.443 369.914 231.79 366.587 237.285 360.973C238.287 359.879 238.959 358.514 239.222 357.041C239.485 355.568 239.328 354.05 238.768 352.666C238.209 351.282 237.272 350.091 236.068 349.235C234.864 348.378 233.444 347.893 231.978 347.837Z" fill="#EDD8AB"/>
<path opacity="0.72" d="M113.813 339.405C110.945 338.447 107.822 338.669 105.112 340.026C104.364 340.303 103.66 340.692 103.024 341.18C102.73 341.344 102.488 341.59 102.328 341.89C101.967 341.77 101.585 341.731 101.209 341.776C100.832 341.822 100.47 341.95 100.147 342.153C99.8237 342.356 99.5479 342.628 99.3385 342.95C99.1291 343.273 98.9911 343.638 98.9341 344.02C98.8453 344.4 98.8453 344.795 98.9341 345.174C98.8964 345.35 98.8964 345.531 98.9341 345.707C98.5922 346.27 98.301 346.865 98.064 347.482C97.8387 348.32 97.8326 349.203 98.0463 350.044C98.2601 350.885 98.6862 351.654 99.2822 352.275C99.948 352.96 100.752 353.49 101.638 353.827C102.525 354.164 103.473 354.301 104.416 354.227H105.547C108.927 354.403 112.283 353.571 115.206 351.831C116.336 351.121 117.24 350.092 117.809 348.869C118.378 347.645 118.588 346.28 118.413 344.938C118.239 343.596 117.687 342.334 116.824 341.305C115.961 340.276 114.825 339.523 113.552 339.139L113.813 339.405Z" fill="#EDD8AB"/>
<path opacity="0.72" d="M556.015 344.198C554.081 341.959 551.582 340.304 548.79 339.412C545.998 338.52 543.02 338.426 540.179 339.139C536.978 339.955 534.128 341.822 532.068 344.452C530.009 347.082 528.853 350.33 528.78 353.695C528.788 354.709 529.022 355.707 529.465 356.614C529.908 357.522 530.549 358.314 531.338 358.93C532.127 359.547 533.043 359.971 534.018 360.171C534.992 360.372 535.998 360.342 536.96 360.085C538.651 359.667 540.266 358.978 541.745 358.044L544.878 355.559L546.531 354.937H547.575C554.275 358.754 561.758 349.523 556.015 344.198Z" fill="#EDD8AB"/>
<path opacity="0.72" d="M476.833 263.341C464.477 257.394 455.95 259.169 442.028 260.234C421.232 262.009 412.704 257.305 398.521 244.436C389.211 236.092 376.681 226.152 363.716 225.353C361.215 224.905 358.644 225.102 356.236 225.926C353.829 226.75 351.662 228.175 349.932 230.072C348.203 231.968 346.966 234.276 346.334 236.785C345.701 239.293 345.694 241.923 346.313 244.436C348.401 258.992 360.235 258.459 370.068 262.187C355.366 264.105 341.143 268.8 328.127 276.033C327.315 276.544 326.612 277.215 326.059 278.008C325.506 278.801 325.115 279.698 324.908 280.648C290.103 267.068 272.7 218.519 230.672 229.436C229.715 229.693 228.869 230.27 228.27 231.074C227.671 231.878 227.353 232.864 227.366 233.874C227.539 237.317 228.494 240.673 230.155 243.676C231.816 246.679 234.138 249.249 236.937 251.181C244.351 257.544 252.65 262.748 261.562 266.625C262.08 266.735 262.62 266.64 263.072 266.36C263.524 266.08 263.855 265.635 263.998 265.116C266.783 250.027 245.291 249.583 238.504 239.288C277.399 245.856 292.017 297.867 336.655 295.293C337.62 295.274 338.565 295.007 339.402 294.517C340.239 294.027 340.942 293.329 341.445 292.489C341.948 291.648 342.235 290.692 342.28 289.709C342.325 288.725 342.126 287.746 341.701 286.861C357.19 282.335 372.939 278.607 388.254 273.548C389.22 273.251 390.109 272.738 390.857 272.046C391.604 271.354 392.191 270.501 392.574 269.549C392.958 268.597 393.128 267.569 393.073 266.541C393.018 265.513 392.739 264.511 392.256 263.607C386.426 253.666 379.465 254.731 370.416 250.293C359.626 244.791 363.194 240.264 372.939 244.613C377.449 246.654 381.836 248.966 386.078 251.536C397.02 259.607 408.957 266.172 421.58 271.063C439.801 274.994 458.769 273.071 475.876 265.56C477.268 264.849 477.703 263.696 476.833 263.341Z" fill="#EDD8AB"/>
<path opacity="0.72" d="M79.5301 261.033C58.5599 269.909 25.9299 264.051 20.274 238.223C20.274 236.359 16.9675 236.802 16.9675 238.223C17.4896 268.844 59.256 277.897 79.9652 261.211L79.5301 261.033Z" fill="#EDD8AB"/>
<path opacity="0.72" d="M195.693 277.542C182.641 284.465 158.538 286.417 152.186 269.82C151.794 268.428 150.973 267.202 149.845 266.323C148.717 265.444 147.341 264.958 145.921 264.938C130.085 266.358 100.935 224.11 90.4067 249.85C90.4067 250.471 91.1899 250.915 91.4509 249.85C100.152 229.791 116.685 260.323 123.472 266.891C128.281 272.416 134.728 276.187 141.832 277.63C144.515 282.695 148.475 286.936 153.304 289.915C158.133 292.894 163.654 294.502 169.297 294.575C174.94 294.647 180.499 293.181 185.4 290.326C190.301 287.472 194.365 283.334 197.172 278.341C197.52 277.986 196.476 276.832 195.693 277.542Z" fill="#EDD8AB"/>
<path opacity="0.72" d="M112.769 190.383C109.493 193.652 105.615 196.228 101.359 197.965C97.1037 199.701 92.5537 200.563 87.9706 200.501C87.6924 200.539 87.4319 200.662 87.2234 200.854C87.0149 201.045 86.8682 201.297 86.8023 201.575C86.7364 201.854 86.7546 202.146 86.8544 202.413C86.9542 202.681 87.131 202.912 87.3615 203.075C89.9867 204.611 92.9276 205.499 95.9493 205.668C98.971 205.838 101.99 205.284 104.764 204.051C107.174 202.708 109.226 200.785 110.742 198.449C112.258 196.114 113.193 193.436 113.466 190.649C113.466 190.649 112.943 190.116 112.769 190.383Z" fill="#EDD8AB"/>
<path opacity="0.72" d="M534.262 195.442C518.774 196.329 506.592 197.394 500.588 178.933C500.408 178.314 500.043 177.767 499.543 177.37C499.044 176.972 498.436 176.743 497.803 176.714C493.572 175.847 489.205 175.955 485.02 177.029C480.835 178.104 476.938 180.119 473.614 182.927C468.045 186.921 463.52 195.087 454.906 187.454C451.251 184.17 451.86 177.957 448.206 175.028C426.191 157.277 417.751 199.258 408.441 205.205C396.259 213.104 388.428 196.329 380.248 191.093C376.582 189.256 372.529 188.369 368.447 188.508C364.365 188.647 360.379 189.809 356.842 191.892C339.439 199.17 328.998 217.453 312.117 195.619C309.434 190.827 305.457 186.923 300.658 184.373C295.86 181.823 290.443 180.736 285.056 181.241C283.254 181.263 281.532 181.997 280.25 183.288C278.968 184.579 278.227 186.327 278.182 188.164C280.531 228.37 234.675 187.365 215.706 188.164C214.497 188.167 213.321 188.565 212.35 189.3C211.379 190.035 210.665 191.067 210.311 192.247C200.914 227.039 162.454 199.613 142.267 189.85C133.905 186.185 125.14 183.563 116.163 182.04C112.564 181.548 109.013 180.746 105.547 179.643C100.587 177.602 91.1899 166.773 99.4562 161.892C104.677 158.963 118.86 177.424 120.861 181.862C120.861 181.862 121.384 181.862 120.861 181.862C117.033 174.495 104.59 155.235 94.7575 157.898C87.8834 159.762 88.0575 170.235 90.3198 175.649C96.6718 191.093 117.99 191.714 130.868 196.951C145.747 202.986 158.538 213.282 174.375 218.43C186.557 222.513 201.784 225.264 212.4 215.856C216.663 212.128 218.404 200.323 221.101 198.105C227.425 199.93 233.594 202.275 239.548 205.116C261.91 215.501 291.756 226.418 292.452 194.11C304.286 197.039 314.814 220.205 331.086 218.341C349.359 216.211 345.965 184.969 370.677 191.714C382.163 194.909 386.165 210.619 397.39 215.323C399.554 216.624 401.962 217.446 404.457 217.736C406.953 218.027 409.48 217.779 411.876 217.009C414.271 216.239 416.482 214.965 418.363 213.267C420.245 211.57 421.756 209.489 422.798 207.158C426.279 199.702 431.499 171.655 443.072 184.347C445.682 187.01 445.595 192.158 448.989 195.264C452.941 198.693 457.935 200.62 463.122 200.717C468.31 200.814 473.37 199.075 477.442 195.797C480.314 193.045 481.358 186.3 484.055 184.436C495.976 175.56 495.019 193.312 500.066 199.525C509.637 210.442 525.3 208.4 536.437 201.743C536.913 201.246 537.242 200.623 537.389 199.944C537.535 199.266 537.493 198.559 537.267 197.904C537.041 197.249 536.639 196.671 536.109 196.236C535.578 195.801 534.938 195.526 534.262 195.442Z" fill="#EDD8AB"/>
<path opacity="0.72" d="M407.048 574.61C395.19 575.44 383.299 573.56 372.243 569.107C366.769 566.662 360.807 565.567 354.84 565.912C345.443 567.243 318.034 587.835 317.425 567.332C317.381 566.098 316.882 564.927 316.026 564.054C315.17 563.182 314.022 562.672 312.813 562.628C303.934 563.957 295.195 566.126 286.709 569.107C270.35 573.012 262.432 564.225 248.075 562.273C228.671 559.61 209.876 574.965 194.649 554.817C193.796 553.948 192.685 553.39 191.49 553.229C190.294 553.069 189.08 553.315 188.036 553.93C176.321 558.016 163.531 557.478 152.186 552.421C152.186 552.421 151.316 552.421 152.186 553.042C156.558 556.947 161.487 560.15 166.805 562.539C172.982 564.758 179.77 562.539 185.686 564.403C191.603 566.267 195.693 572.302 201.61 574.61C207.195 576.577 213.141 577.245 219.013 576.563C225.016 576.119 230.759 574.344 236.415 573.367C245.619 572.238 254.951 573.712 263.389 577.628C280.357 583.219 292.017 574.344 307.94 572.391C309.855 587.835 322.471 588.722 337.09 583.486C348.278 578.281 361.017 577.739 372.591 581.977C385.556 585.971 397.042 589.965 408.789 581.355C411.399 579.491 410.877 574.255 407.048 574.61Z" fill="#EDD8AB"/>
<path opacity="0.72" d="M329.346 12.9584C326.864 12.8007 324.377 13.1513 322.031 13.9897C319.685 14.8281 317.527 16.1374 315.685 17.8401C314.938 18.6607 314.524 19.7385 314.524 20.8577C314.524 21.977 314.938 23.0548 315.685 23.8754C317.527 25.5781 319.685 26.8874 322.031 27.7258C324.377 28.5642 326.864 28.9148 329.346 28.7571C331.4 28.7571 333.369 27.9248 334.822 26.4434C336.274 24.9619 337.09 22.9528 337.09 20.8577C337.09 18.7627 336.274 16.7534 334.822 15.272C333.369 13.7906 331.4 12.9584 329.346 12.9584Z" fill="#EDD8AB"/>
<path opacity="0.72" d="M237.807 18.1951C236.506 18.3647 235.309 19.0127 234.442 20.0174C233.575 21.0222 233.096 22.315 233.096 23.6536C233.096 24.9923 233.575 26.2851 234.442 27.2899C235.309 28.2946 236.506 28.9424 237.807 29.1121C239.109 28.9424 240.306 28.2946 241.173 27.2899C242.04 26.2851 242.519 24.9923 242.519 23.6536C242.519 22.315 242.04 21.0222 241.173 20.0174C240.306 19.0127 239.109 18.3647 237.807 18.1951Z" fill="#EDD8AB"/>
<path opacity="0.72" d="M400.697 37.7214C398.956 31.331 391.995 30.1772 386.6 29.4671C384.227 29.2461 381.839 29.2461 379.465 29.4671C376.413 29.8897 373.463 30.8826 370.764 32.3961C369.691 33.0826 368.835 34.0687 368.296 35.2374C367.756 36.406 367.557 37.708 367.722 38.9885C367.887 40.2691 368.409 41.4744 369.226 42.4613C370.043 43.4482 371.12 44.1751 372.33 44.5557C374.593 44.5557 376.768 45.6208 379.117 45.7983C381.467 45.9758 383.381 45.7983 385.556 45.7983C389.82 46.4196 393.735 48.5498 397.825 45.7983C399.062 44.9186 400.002 43.6701 400.516 42.2241C401.03 40.7782 401.093 39.2054 400.697 37.7214Z" fill="#EDD8AB"/>
<path opacity="0.72" d="M276.616 74.378C275.203 74.555 273.903 75.2528 272.96 76.34C272.017 77.4272 271.497 78.8287 271.497 80.2802C271.497 81.7318 272.017 83.1333 272.96 84.2205C273.903 85.3077 275.203 86.0056 276.616 86.1826C278.028 86.0056 279.328 85.3077 280.271 84.2205C281.214 83.1333 281.735 81.7318 281.735 80.2802C281.735 78.8287 281.214 77.4272 280.271 76.34C279.328 75.2528 278.028 74.555 276.616 74.378Z" fill="#EDD8AB"/>
<path opacity="0.72" d="M136.959 72.6915C135.474 73.1707 134.154 74.0725 133.154 75.2909C132.154 76.5092 131.516 77.9936 131.315 79.5691C131.114 81.1447 131.358 82.7461 132.019 84.1849C132.68 85.6238 133.729 86.8403 135.045 87.6914C136.463 88.5262 137.947 89.2387 139.482 89.8215C137.067 88.7342 135.156 86.74 134.144 84.2529C133.133 81.7658 133.1 78.9769 134.051 76.4653C135.002 73.9537 136.866 71.9124 139.254 70.7651C141.642 69.6179 144.371 69.4529 146.875 70.3044C149.38 71.1559 151.466 72.9584 152.702 75.3377C153.937 77.7171 154.227 80.4904 153.511 83.082C152.795 85.6735 151.127 87.8841 148.855 89.2548C146.583 90.6255 143.881 91.0509 141.31 90.4428C142.497 90.5351 143.69 90.5351 144.877 90.4428C146.04 90.6988 147.243 90.7088 148.41 90.4721C149.577 90.2354 150.684 89.757 151.662 89.0666C152.641 88.3761 153.47 87.4883 154.099 86.4579C154.728 85.4275 155.143 84.2765 155.319 83.076C156.798 73.4903 144.181 71.0939 136.959 72.6915Z" fill="#EDD8AB"/>
<path opacity="0.72" d="M207.44 31.4199C205.53 31.2405 203.607 31.2405 201.697 31.4199C200.748 31.5638 199.881 32.0507 199.254 32.7919C198.628 33.5332 198.283 34.4794 198.283 35.4582C198.283 36.437 198.628 37.3833 199.254 38.1245C199.881 38.8658 200.748 39.3527 201.697 39.4966C203.623 39.4996 205.546 39.3213 207.44 38.9641C208.421 38.9641 209.361 38.5667 210.055 37.8592C210.748 37.1518 211.138 36.1923 211.138 35.1919C211.138 34.1915 210.748 33.232 210.055 32.5246C209.361 31.8172 208.421 31.4199 207.44 31.4199Z" fill="#EDD8AB"/>
<path opacity="0.72" d="M252.687 64.9698C247.477 59.2791 240.332 55.8338 232.713 55.3389C225.095 54.8439 217.58 57.3367 211.704 62.3071C208.8 63.441 206.204 65.2668 204.133 67.6324C203.175 68.5907 202.447 69.762 202.007 71.0548C201.566 72.3476 201.424 73.7268 201.593 75.0847C201.761 76.4426 202.235 77.7422 202.978 78.8822C203.721 80.0222 204.712 80.9715 205.874 81.656C212.561 84.789 219.833 86.411 227.192 86.411C234.551 86.411 241.823 84.789 248.51 81.656C250.175 81.2088 251.693 80.3157 252.906 79.0691C254.119 77.8225 254.984 76.2677 255.41 74.5659C255.836 72.864 255.808 71.0769 255.329 69.3897C254.85 67.7024 253.938 66.1766 252.687 64.9698Z" fill="#EDD8AB"/>
<path opacity="0.72" d="M431.934 71.7152C430.566 71.8893 429.307 72.5672 428.395 73.6214C427.482 74.6756 426.979 76.0337 426.979 77.4401C426.979 78.8464 427.482 80.2043 428.395 81.2586C429.307 82.3128 430.566 82.9907 431.934 83.1648C433.302 82.9907 434.561 82.3128 435.474 81.2586C436.386 80.2043 436.89 78.8464 436.89 77.4401C436.89 76.0337 436.386 74.6756 435.474 73.6214C434.561 72.5672 433.302 71.8893 431.934 71.7152Z" fill="#EDD8AB"/>
<path opacity="0.72" d="M306.809 18.8163C300.323 12.4436 291.668 8.8833 282.663 8.8833C273.657 8.8833 265.002 12.4436 258.517 18.8163C257.123 20.2065 256.121 21.9533 255.616 23.8738C255.11 25.7944 255.121 27.8182 255.645 29.7334C256.164 31.8863 257.368 33.803 259.068 35.184C260.768 36.565 262.869 37.3326 265.043 37.3665C265.448 38.35 266.065 39.2277 266.848 39.9346C267.631 40.6414 268.561 41.1591 269.567 41.4492C281.436 44.097 293.846 42.1349 304.373 35.9464C305.789 35.1154 307.003 33.9672 307.921 32.5881C308.839 31.209 309.438 29.6351 309.672 27.9854C309.907 26.3357 309.771 24.6531 309.275 23.0648C308.779 21.4764 307.936 20.0236 306.809 18.8163Z" fill="#EDD8AB"/>
<path opacity="0.72" d="M312.726 77.0406C311.895 77.0406 311.099 77.3773 310.511 77.9765C309.924 78.5757 309.594 79.3885 309.594 80.2359C309.594 81.0833 309.924 81.8959 310.511 82.4952C311.099 83.0944 311.895 83.4311 312.726 83.4311C313.557 83.4311 314.354 83.0944 314.941 82.4952C315.529 81.8959 315.859 81.0833 315.859 80.2359C315.859 79.3885 315.529 78.5757 314.941 77.9765C314.354 77.3773 313.557 77.0406 312.726 77.0406Z" fill="#EDD8AB"/>
<path opacity="0.72" d="M370.242 92.5731C369.901 89.7417 368.55 87.137 366.449 85.2549C364.347 83.3729 361.64 82.3447 358.843 82.366C354.734 82.7127 350.752 83.9859 347.183 86.0938C344.306 84.624 341.071 84.0382 337.873 84.4075C335.455 84.5293 333.156 85.5113 331.374 87.183C329.592 88.8546 328.441 91.1102 328.12 93.5577C327.8 96.0053 328.33 98.4901 329.619 100.58C330.908 102.67 332.874 104.234 335.176 104.999C336.824 105.713 338.508 106.335 340.222 106.863C340.847 107.329 341.557 107.661 342.311 107.839C344.828 108.367 347.404 108.546 349.968 108.372C354.071 107.994 358.108 107.069 361.976 105.62C364.658 104.818 366.968 103.058 368.486 100.664C370.003 98.2687 370.626 95.3975 370.242 92.5731Z" fill="#EDD8AB"/>
<path opacity="0.72" d="M221.014 174.762C220.258 173.833 219.344 173.051 218.316 172.454C217.358 171.935 216.479 171.277 215.706 170.501C211.964 166.241 205.7 172.631 209.615 176.803C211.965 179.288 216.228 181.951 219.709 179.821C221.884 178.667 223.537 176.004 221.014 174.762Z" fill="#EDD8AB"/>
<path opacity="0.72" d="M197.172 171.123C196.792 172.71 197.021 174.385 197.814 175.805C198.607 177.225 199.903 178.281 201.436 178.756C206.918 180.797 210.92 178.134 216.228 177.602C219.186 178.042 222.098 178.755 224.929 179.732H226.322C227.983 180.196 229.757 179.971 231.257 179.107C232.756 178.242 233.86 176.808 234.327 175.117C237.807 154.081 200.305 152.572 197.172 171.123Z" fill="#EDD8AB"/>
<path opacity="0.72" d="M144.79 167.927C143.549 166.174 141.724 164.943 139.656 164.466C138.703 164.206 137.703 164.174 136.735 164.371C135.767 164.569 134.857 164.99 134.074 165.603C133.291 166.217 132.657 167.005 132.221 167.909C131.785 168.812 131.558 169.805 131.558 170.812C131.558 171.819 131.785 172.812 132.221 173.715C132.657 174.618 133.291 175.407 134.074 176.02C134.857 176.634 135.767 177.055 136.735 177.253C137.703 177.45 138.703 177.418 139.656 177.158C140.702 176.949 141.696 176.527 142.578 175.917C143.46 175.307 144.213 174.521 144.79 173.608C145.306 172.754 145.579 171.771 145.579 170.768C145.579 169.765 145.306 168.781 144.79 167.927Z" fill="#EDD8AB"/>
<path opacity="0.72" d="M474.397 142.01C471.379 140.168 468.028 138.967 464.544 138.479C461.06 137.991 457.516 138.226 454.123 139.17C449.373 140.148 445.17 142.942 442.376 146.981C441.451 146.385 440.457 145.908 439.418 145.561C435.502 144.407 430.716 148.667 432.195 153.016C433.749 156.46 436.3 159.336 439.505 161.256C442.71 163.176 446.415 164.049 450.12 163.756C454.083 163.729 458.017 163.07 461.78 161.803C465.278 159.774 468.88 157.937 472.57 156.3C473.999 155.861 475.273 155.01 476.239 153.849C477.205 152.689 477.822 151.268 478.015 149.758C478.208 148.249 477.969 146.714 477.328 145.339C476.686 143.965 475.668 142.809 474.397 142.01Z" fill="#EDD8AB"/>
<path opacity="0.72" d="M56.5587 148.401L55.5146 147.424C54.2794 146.124 52.6837 145.24 50.9417 144.891C49.1998 144.542 47.3948 144.744 45.7691 145.472C44.1362 146.135 42.7385 147.287 41.76 148.776C40.7815 150.266 40.268 152.022 40.2873 153.815C40.1772 155.662 40.6361 157.499 41.5998 159.067C42.5635 160.635 43.9837 161.857 45.6618 162.561C47.3399 163.266 49.1919 163.417 50.9585 162.995C52.7252 162.572 54.3182 161.597 55.5146 160.205L56.5587 159.229C57.9306 157.774 58.6969 155.834 58.6969 153.815C58.6969 151.796 57.9306 149.856 56.5587 148.401Z" fill="#EDD8AB"/>
<path opacity="0.72" d="M526.779 148.845C525.15 146.706 523.085 144.955 520.725 143.714C518.366 142.472 515.77 141.77 513.118 141.656C508.8 140.876 504.358 141.274 500.24 142.809C497.84 143.678 495.688 145.137 493.973 147.057C492.258 148.976 491.033 151.298 490.407 153.815C489.926 155.663 490.176 157.629 491.104 159.29C492.032 160.951 493.563 162.172 495.367 162.691H496.585C496.801 165.352 497.982 167.836 499.896 169.658C501.811 171.479 504.322 172.508 506.94 172.543C511.464 172.543 515.641 171.833 520.427 171.211C522.201 170.728 523.819 169.777 525.118 168.452C526.416 167.127 527.349 165.477 527.823 163.667C528.665 161.258 529.007 158.696 528.828 156.144C528.648 153.592 527.95 151.107 526.779 148.845Z" fill="#EDD8AB"/>
<path opacity="0.72" d="M389.82 441.475C368.415 453.457 346.922 455.676 328.911 436.86C327.555 435.562 325.766 434.839 323.907 434.839C322.048 434.839 320.259 435.562 318.904 436.86C296.02 459.759 270.09 444.138 243.551 442.895C243.14 442.89 242.735 442.995 242.376 443.199C242.018 443.403 241.718 443.699 241.507 444.058C241.295 444.418 241.18 444.827 241.172 445.246C241.164 445.665 241.264 446.078 241.462 446.445C258.865 473.072 300.979 468.99 323.69 451.593C328.018 455.725 333.109 458.936 338.666 461.039C344.224 463.142 350.136 464.095 356.059 463.842C372.069 462.688 380.248 453.635 390.864 443.25C392.082 442.363 390.864 440.854 389.82 441.475Z" fill="#EDD8AB"/>
<path opacity="0.72" d="M565.152 433.043C556.451 433.576 548.793 438.99 539.831 440.055C527.296 440.987 514.75 438.409 503.546 432.599C502.716 432.134 501.761 431.951 500.822 432.079C499.882 432.207 499.007 432.638 498.326 433.309C487.362 443.871 466.914 462.599 453.427 442.185C452.558 440.719 451.162 439.657 449.536 439.226C447.911 438.795 446.184 439.028 444.725 439.877C432.805 447.865 402.437 460.735 395.911 439.877C384.773 473.072 427.497 463.931 446.64 453.99C462.824 470.676 484.316 455.942 500.936 442.718C517.817 458.605 570.547 467.658 568.806 437.037C568.856 436.523 568.798 436.003 568.635 435.514C568.473 435.024 568.21 434.575 567.864 434.198C567.518 433.82 567.098 433.521 566.63 433.322C566.162 433.123 565.658 433.028 565.152 433.043Z" fill="#EDD8AB"/>
<path opacity="0.72" d="M542.963 172.188C538.278 170.178 533.231 169.195 528.15 169.302C523.068 169.409 518.066 170.604 513.466 172.809C506.766 176.448 502.241 186.3 493.453 184.259C487.71 183.016 479.096 171.3 474.223 167.306C469.047 162.177 462.616 158.56 455.602 156.833C446.148 155.633 436.6 158.139 428.889 163.845C417.925 171.211 413.748 179.732 398.956 177.513C390.255 176.182 382.511 170.768 373.635 170.679C363.194 170.679 354.231 177.336 344.312 179.554C319.861 185.324 307.244 158.519 282.793 166.774C275.497 169.901 268.852 174.419 263.215 180.087C249.989 190.56 243.637 182.927 229.889 179.643C216.141 176.359 206.57 176.803 198.39 183.815C195.906 180.008 194.054 175.81 192.909 171.389C192.596 170.006 191.963 168.72 191.063 167.638C190.163 166.556 189.021 165.71 187.734 165.171C186.447 164.632 185.053 164.416 183.667 164.54C182.281 164.664 180.944 165.126 179.77 165.886C167.936 173.519 137.742 185.856 127.562 169.614C122.341 160.738 123.298 150.975 113.813 144.762C94.4964 132.07 79.008 147.336 72.7431 164.91C69.1755 164.2 65.521 163.401 61.9534 162.336C51.2508 158.963 47.6832 174.85 57.4287 178.933C63.7851 181.276 70.2629 183.261 76.8327 184.88C78.1684 185.211 79.5598 185.234 80.9051 184.946C82.2504 184.658 83.5157 184.067 84.6083 183.216C85.7009 182.366 86.5933 181.276 87.2202 180.029C87.8471 178.781 88.1926 177.406 88.2314 176.004C88.2314 166.064 94.0613 161.626 106.243 162.779C107.448 165.444 108.437 168.205 109.202 171.034C110.042 174.063 111.088 177.029 112.334 179.91C114.081 183.176 116.452 186.053 119.306 188.37C122.16 190.687 125.441 192.397 128.954 193.401C145.879 197.49 163.684 195.189 179.073 186.921C182.172 193.697 186.616 199.742 192.125 204.673C193.064 205.685 194.223 206.458 195.509 206.929C196.795 207.4 198.172 207.555 199.527 207.382C200.883 207.209 202.18 206.713 203.312 205.934C204.445 205.155 205.382 204.115 206.048 202.897C214.749 185.146 237.981 206.27 252.426 203.963C269.828 201.211 278.53 179.732 295.932 181.685C313.335 183.637 321.166 198.282 340.309 195.087C350.925 193.223 359.278 185.146 369.807 183.371C379.579 182.928 389.334 184.592 398.434 188.253C403.633 190.124 409.204 190.657 414.653 189.805C420.102 188.954 425.261 186.744 429.672 183.371C443.333 173.342 452.73 169.791 466.74 181.507C471.506 185.83 475.848 190.616 479.705 195.797C483.54 199.923 488.491 202.793 493.93 204.042C499.368 205.291 505.048 204.861 510.246 202.809C516.076 201.211 522.689 195.176 528.432 194.732C543.485 193.578 550.272 213.371 558.278 222.601C559.422 223.74 560.836 224.555 562.382 224.968C563.929 225.381 565.553 225.377 567.097 224.956C568.641 224.535 570.052 223.713 571.19 222.569C572.329 221.425 573.157 219.998 573.592 218.43C579.683 198.992 560.366 178.667 542.963 172.188Z" fill="#913E12"/>
<path opacity="0.72" d="M337.177 444.581C331.086 423.99 308.375 424.7 291.06 427.452C278.856 429.97 266.502 431.66 254.079 432.511C243.946 431.896 233.981 429.587 224.582 425.676C224.036 425.568 223.471 425.628 222.959 425.849C222.447 426.071 222.012 426.443 221.71 426.919C209.093 447.954 243.289 454.788 256.515 454.611C269.226 453.905 281.873 452.304 294.366 449.818C308.201 447.599 322.472 452.214 335.611 447.51C336.181 447.307 336.658 446.895 336.947 446.354C337.237 445.813 337.318 445.181 337.177 444.581Z" fill="#913E12"/>
<path opacity="0.72" d="M126.43 423.369C112.595 424.256 70.8288 435.706 79.0951 457.54C79.3763 458.42 79.9686 459.162 80.7568 459.622C81.5449 460.081 82.4724 460.225 83.3587 460.025C92.0601 458.694 98.3251 448.398 106.417 444.226C117.607 439.52 129.647 437.281 141.745 437.658C146.966 437.658 156.363 435.617 159.147 441.83C162.802 450.706 151.577 458.516 145.312 460.913C138.963 463.49 132.053 464.287 125.299 463.22C122.516 462.674 119.802 461.81 117.207 460.647H116.337H117.207C118.386 459.936 119.305 458.852 119.822 457.558C120.34 456.265 120.428 454.834 120.072 453.485C119.717 452.136 118.938 450.943 117.855 450.088C116.772 449.234 115.444 448.765 114.074 448.753C106.765 448.753 98.5861 452.303 99.1081 461.179C99.6302 470.055 108.68 474.226 115.38 476.623C133.826 483.279 162.802 475.469 168.371 453.901C173.94 432.333 143.311 422.215 126.43 423.369Z" fill="#913E12"/>
<path opacity="0.72" d="M366.065 491.09C360.757 479.285 336.481 478.486 333.174 492.066C332.907 493.078 332.965 494.15 333.341 495.125C333.717 496.1 334.391 496.926 335.262 497.48C340.57 500.409 345.008 498.19 350.577 497.48H355.363C357.331 497.389 359.301 497.628 361.192 498.19C360.496 497.658 361.192 498.989 361.192 499.611C361.381 500.916 361.168 502.25 360.583 503.427C357.897 507.455 353.776 510.257 349.098 511.238C344.266 512.782 339.163 513.233 334.144 512.558C329.124 511.884 324.309 510.1 320.035 507.332C317.251 505.646 313.683 502.362 313.857 498.457C313.857 492.954 322.558 491.267 326.213 489.581C319.339 489.581 308.81 492.599 310.986 501.652C312.642 505.973 315.375 509.777 318.916 512.688C322.457 515.599 326.682 517.516 331.173 518.249C336.733 519.474 342.495 519.382 348.015 517.982C353.536 516.582 358.669 513.91 363.02 510.173C365.595 507.83 367.302 504.655 367.857 501.182C368.411 497.708 367.779 494.145 366.065 491.09Z" fill="#913E12"/>
<path opacity="0.72" d="M486.492 490.558C485.943 489.659 485.151 488.941 484.212 488.49C483.273 488.039 482.226 487.874 481.198 488.015C480.169 488.155 479.202 488.596 478.412 489.283C477.623 489.97 477.044 490.875 476.746 491.889C475.702 496.859 477.79 500.764 476.746 505.912C476.71 507.316 476.282 508.68 475.511 509.844C474.74 511.008 473.659 511.922 472.396 512.48C469.257 513.204 466.039 513.502 462.824 513.368C459.464 513.274 456.13 512.737 452.905 511.77C445.969 510.699 439.33 508.159 433.414 504.315C431.215 502.717 429.376 500.66 428.019 498.279C426.888 496.415 426.627 495.528 427.323 493.841C427.323 494.285 428.28 492.421 428.541 492.244C429.973 491.239 431.562 490.489 433.24 490.025C439.592 488.072 446.379 487.362 452.644 485.321C453.986 484.902 455.138 484.01 455.895 482.805C456.652 481.599 456.965 480.159 456.776 478.74C456.588 477.321 455.912 476.017 454.868 475.06C453.824 474.103 452.48 473.556 451.077 473.516C445.017 473.109 438.949 474.186 433.379 476.656C427.809 479.126 422.898 482.919 419.056 487.717C417.25 491.18 416.671 495.173 417.416 499.022C418.161 502.87 420.185 506.338 423.146 508.841C426.381 511.875 429.942 514.525 433.762 516.741C437.736 519.722 442.139 522.057 446.814 523.664C451.37 525.332 456.247 525.888 461.052 525.287C465.857 524.686 470.458 522.945 474.484 520.202C482.054 512.835 491.19 501.652 486.492 490.558Z" fill="#913E12"/>
<path opacity="0.72" d="M281.923 591.651C276.685 593.446 271.083 593.843 265.652 592.805C264.086 592.805 253.296 588.101 256.95 587.125C257.883 586.741 258.644 586.021 259.089 585.101C259.533 584.182 259.631 583.127 259.362 582.139C259.093 581.151 258.476 580.299 257.63 579.745C256.784 579.191 255.768 578.974 254.775 579.136C247.901 581.622 231.107 585.261 224.843 579.58C218.578 573.9 212.226 582.775 217.446 587.213C224.929 593.515 237.372 592.627 247.64 590.053C248.513 592.414 250.021 594.475 251.991 596C254.158 597.888 256.68 599.305 259.402 600.165C262.124 601.025 264.99 601.31 267.824 601.002C270.657 600.695 273.4 599.802 275.884 598.377C278.368 596.952 280.541 595.026 282.271 592.716C282.33 592.626 282.369 592.523 282.383 592.416C282.397 592.309 282.387 592.199 282.353 592.097C282.32 591.994 282.264 591.9 282.189 591.823C282.114 591.746 282.024 591.687 281.923 591.651Z" fill="#913E12"/>
<path opacity="0.72" d="M360.235 588.811C353.97 588.367 351.534 592.361 345.53 594.048C341.353 595.206 336.965 595.335 332.729 594.425C328.493 593.514 324.53 591.59 321.166 588.811C320.166 588.202 318.992 587.958 317.838 588.119C316.683 588.28 315.617 588.837 314.814 589.698C312.885 592.121 310.437 594.06 307.658 595.367C304.88 596.673 301.844 597.313 298.785 597.235C295.727 597.158 292.726 596.367 290.014 594.922C287.302 593.477 284.951 591.416 283.141 588.9C283.141 588.9 281.575 588.9 281.662 589.521C283.838 607.272 305.591 607.272 318.121 599.994C331.434 609.314 364.412 613.485 363.716 592.361C363.694 591.427 363.32 590.537 362.672 589.876C362.024 589.215 361.151 588.833 360.235 588.811Z" fill="#913E12"/>
<path opacity="0.72" d="M473.353 65.7686C469.86 61.9418 465.197 59.4382 460.127 58.6681C454.82 57.5541 449.326 57.7805 444.124 59.3275C438.922 60.8744 434.17 63.695 430.281 67.5437C430.074 67.9265 429.965 68.3569 429.966 68.7943C429.967 69.2317 430.077 69.6617 430.286 70.0436C430.495 70.4256 430.796 70.747 431.161 70.9773C431.525 71.2077 431.941 71.3395 432.37 71.3603C439.736 69.3608 447.241 67.9365 454.819 67.0999C458.711 67.157 462.472 68.5433 465.5 71.0372C468.529 73.5311 470.65 76.9887 471.526 80.8572C472.309 83.0761 475.876 83.5199 476.485 80.8572C477.371 78.2911 477.547 75.526 476.995 72.8646C476.442 70.2032 475.182 67.7482 473.353 65.7686Z" fill="#913E12"/>
<path opacity="0.72" d="M426.452 65.9462C418.522 65.62 410.605 66.8554 403.133 69.5851C390.081 73.2241 382.424 69.5852 369.981 64.7036C364.393 62.3489 358.288 61.5678 352.303 62.4421C346.319 63.3165 340.674 65.814 335.959 69.6739C333.47 66.3381 330.327 63.5677 326.73 61.5395C323.133 59.5113 319.162 58.2698 315.068 57.8941C310.975 57.5183 306.85 58.0165 302.956 59.357C299.062 60.6975 295.485 62.851 292.452 65.6799C278.617 55.1179 249.554 60.3545 251.73 80.236C251.732 80.6258 251.82 81.01 251.989 81.3598C252.158 81.7096 252.402 82.0157 252.704 82.255C253.005 82.4943 253.357 82.6607 253.73 82.7415C254.104 82.8222 254.491 82.8153 254.862 82.7212C264.608 79.7922 279.574 61.2421 288.536 76.3307C288.998 77.0826 289.64 77.7025 290.401 78.1322C291.162 78.5619 292.017 78.7874 292.887 78.7874C293.757 78.7874 294.612 78.5619 295.373 78.1322C296.134 77.7025 296.776 77.0826 297.238 76.3307C304.286 62.3071 324.734 66.0349 330.303 78.8159C330.61 79.3654 331.02 79.8476 331.51 80.2346C332.001 80.6217 332.561 80.9059 333.16 81.0709C333.758 81.2359 334.383 81.2784 334.998 81.1961C335.613 81.1137 336.205 80.9081 336.742 80.591C358.495 65.5023 367.718 78.017 390.168 78.727C403.568 78.727 413.139 68.7863 426.104 66.3011C426.713 66.2124 426.626 65.9462 426.452 65.9462Z" fill="#913E12"/>
<path opacity="0.72" d="M251.643 97.7211C240.853 98.9637 228.845 102.159 225.017 85.9164C224.733 84.9516 224.095 84.1359 223.235 83.6397C222.376 83.1435 221.362 83.0052 220.405 83.2537C212.226 86.0939 202.132 91.153 196.302 76.952C196.069 76.2407 195.627 75.6202 195.035 75.1754C194.443 74.7305 193.731 74.483 192.996 74.4668C187.752 74.1111 182.49 74.1111 177.246 74.4668C177.05 74.4892 176.865 74.5678 176.711 74.6935C176.557 74.8192 176.441 74.9868 176.376 75.1768C171.851 90.443 152.447 98.2536 138.003 95.5022C125.386 93.1057 119.121 83.52 113.03 73.2242C111.029 69.7627 106.504 72.2479 107.026 75.8869C110.594 101.36 148.358 114.674 166.457 96.0347C172.199 90.088 176.202 69.4077 188.993 82.0111C191.168 84.0525 190.559 90.8867 194.127 93.7269C197.766 96.4727 202.174 97.9546 206.7 97.9546C211.227 97.9546 215.634 96.4727 219.274 93.7269C220.438 97.0665 222.401 100.057 224.984 102.427C227.567 104.798 230.69 106.473 234.069 107.302C237.447 108.13 240.975 108.086 244.332 107.172C247.69 106.259 250.771 104.505 253.296 102.07C253.732 101.764 254.054 101.318 254.211 100.802C254.367 100.286 254.348 99.7316 254.156 99.2283C253.965 98.725 253.613 98.3024 253.156 98.0288C252.7 97.7552 252.167 97.6468 251.643 97.7211Z" fill="#913E12"/>
<g style="mix-blend-mode:multiply" opacity="0.72">
<g style="mix-blend-mode:multiply" opacity="0.72">
<path d="M6.96094 370.47C16.3173 414.373 35.0544 455.629 61.8364 491.298C88.6183 526.966 122.785 556.168 161.901 576.822C201.018 597.475 244.119 609.071 288.133 610.783C332.147 612.495 375.989 604.28 416.533 586.725C457.077 569.17 493.325 542.706 522.692 509.221C552.059 475.736 573.821 436.055 586.428 393.006C599.034 349.957 602.174 304.602 595.624 260.173C589.073 215.745 572.994 173.337 548.532 135.975C549.663 176.093 538.961 214.88 526.953 253.577C481.358 400.558 302.98 500.232 156.711 462.155C99.6557 445.8 47.9434 414.139 6.96094 370.47Z" fill="#9F9CAD"/>
</g>
</g>
<g style="mix-blend-mode:multiply" opacity="0.46">
<g style="mix-blend-mode:multiply" opacity="0.46">
<path d="M490.755 70.5614C472.57 97.9872 457.168 127.099 444.116 146.981C348.401 293.252 162.715 295.471 7.22215 239.021C-5.17766 295.809 -1.42251 355.028 18.0459 409.714C37.5143 464.399 71.8864 512.277 117.12 547.717C192.125 585.882 276.093 590.675 358.321 569.107C455.95 543.545 521.21 478.309 580.379 395.677C583.251 391.594 586.122 387.511 589.08 383.517C589.777 380.766 590.56 378.014 591.169 375.174C603.849 319.898 601.169 262.11 583.432 208.301C565.694 154.492 533.6 106.794 490.755 70.5614Z" fill="#9F9CAD"/>
</g>
</g>
<g style="mix-blend-mode:overlay" opacity="0.3">
<g style="mix-blend-mode:overlay" opacity="0.3">
<path d="M279.4 23.6979C228.062 36.5676 174.288 47.041 129.563 80.7685C88.0576 112.1 20.8833 179.199 18.5339 234.495C11.2248 398.517 206.831 381.387 312.03 329.287C428.454 271.684 542.006 54.1415 332.13 37.8103L279.4 23.6979Z" fill="#FAECCF"/>
</g>
</g>
<g style="mix-blend-mode:overlay" opacity="0.44">
<g style="mix-blend-mode:overlay" opacity="0.44">
<path d="M262.78 94.437C239.287 63.7272 180.988 81.5673 155.232 100.827C142.29 110.431 131.446 122.672 123.385 136.774C109.724 158.786 102.589 156.3 84.49 172.898C40.9833 213.016 86.2303 257.039 122.602 276.21C174.81 303.636 240.94 293.962 290.538 264.228C329.433 240.974 405.656 155.324 316.642 139.969C348.837 132.425 316.729 98.1647 262.78 94.437Z" fill="#FAECCF"/>
</g>
</g>
<g style="mix-blend-mode:overlay" opacity="0.21">
<path d="M591.604 240.353C591.233 239.397 590.561 238.595 589.693 238.073C588.825 237.551 587.811 237.34 586.812 237.472C585.813 237.605 584.886 238.073 584.178 238.804C583.47 239.535 583.021 240.486 582.902 241.507C584.737 273.078 583.337 304.758 578.726 336.032C572.876 363.931 564.396 391.187 553.405 417.422C537.11 462.454 508.665 501.87 471.351 531.119C430.194 562.095 378.073 577.272 327.779 582.598C298.393 586.003 268.693 585.406 239.461 580.823C215.793 576.829 192.212 564.314 168.545 563.071C168.354 563.079 168.169 563.136 168.006 563.237C167.843 563.337 167.707 563.478 167.612 563.646C167.516 563.814 167.464 564.005 167.46 564.199C167.456 564.393 167.5 564.586 167.588 564.758C181.336 585.172 212.574 592.539 235.023 597.154C265.55 603.327 296.787 605.001 327.779 602.124C382.598 597.331 438.721 580.823 483.359 547.007C522.515 517.362 547.488 471.386 566.631 426.475C591.865 366.831 609.877 304.08 591.604 240.353Z" fill="#05AFEA"/>
</g>
</g>
<defs>
<clipPath id="clip0_113_348">
<rect width="599" height="611" fill="white"/>
</clipPath>
</defs>
</svg>
