<svg width="312" height="74" viewBox="0 0 312 74" fill="none" xmlns="http://www.w3.org/2000/svg">
<path d="M23.712 20.904C23.616 20.744 23.28 20.504 22.704 20.184C22.128 19.832 21.408 19.464 20.544 19.08C19.68 18.696 18.736 18.36 17.712 18.072C16.688 17.784 15.664 17.64 14.64 17.64C13.296 17.64 12.256 17.88 11.52 18.36C10.784 18.808 10.416 19.512 10.416 20.472C10.416 21.24 10.688 21.848 11.232 22.296C11.808 22.744 12.624 23.144 13.68 23.496C14.736 23.816 16.032 24.2 17.568 24.648C19.744 25.224 21.632 25.928 23.232 26.76C24.832 27.56 26.048 28.6 26.88 29.88C27.744 31.16 28.176 32.856 28.176 34.968C28.176 36.888 27.824 38.52 27.12 39.864C26.416 41.176 25.456 42.248 24.24 43.08C23.056 43.88 21.696 44.472 20.16 44.856C18.624 45.208 17.04 45.384 15.408 45.384C13.744 45.384 12.032 45.224 10.272 44.904C8.544 44.552 6.88 44.072 5.28 43.464C3.68 42.824 2.208 42.056 0.864 41.16L4.32 34.296C4.448 34.456 4.864 34.76 5.568 35.208C6.272 35.624 7.136 36.072 8.16 36.552C9.216 37 10.384 37.4 11.664 37.752C12.944 38.104 14.24 38.28 15.552 38.28C16.96 38.28 18 38.056 18.672 37.608C19.376 37.16 19.728 36.536 19.728 35.736C19.728 34.872 19.36 34.2 18.624 33.72C17.92 33.24 16.944 32.808 15.696 32.424C14.48 32.04 13.072 31.608 11.472 31.128C9.392 30.488 7.664 29.768 6.288 28.968C4.944 28.168 3.936 27.192 3.264 26.04C2.624 24.888 2.304 23.448 2.304 21.72C2.304 19.32 2.864 17.304 3.984 15.672C5.136 14.008 6.672 12.76 8.592 11.928C10.512 11.064 12.608 10.632 14.88 10.632C16.48 10.632 18.016 10.824 19.488 11.208C20.992 11.592 22.384 12.072 23.664 12.648C24.976 13.224 26.144 13.8 27.168 14.376L23.712 20.904ZM32.7953 45V10.92H47.3393C48.9713 10.92 50.4593 11.256 51.8033 11.928C53.1793 12.568 54.3633 13.448 55.3553 14.568C56.3473 15.656 57.1153 16.888 57.6593 18.264C58.2033 19.64 58.4753 21.048 58.4753 22.488C58.4753 24.44 58.0113 26.296 57.0833 28.056C56.1873 29.816 54.9233 31.256 53.2913 32.376C51.6913 33.464 49.7873 34.008 47.5793 34.008H40.6673V45H32.7953ZM40.6673 27.144H47.0993C47.7073 27.144 48.2673 26.968 48.7793 26.616C49.2913 26.264 49.7073 25.736 50.0273 25.032C50.3473 24.328 50.5073 23.464 50.5073 22.44C50.5073 21.384 50.3153 20.52 49.9313 19.848C49.5793 19.144 49.1153 18.632 48.5393 18.312C47.9953 17.992 47.4193 17.832 46.8113 17.832H40.6673V27.144ZM68.8091 10.92H77.3051L89.0171 45H80.9531L78.3131 37.368H67.7051L65.1131 45H57.0491L68.8091 10.92ZM77.0171 31.944L73.0331 18.84L68.9531 31.944H77.0171ZM89.046 27.672C89.046 25.592 89.43 23.56 90.198 21.576C90.966 19.56 92.086 17.736 93.558 16.104C95.03 14.472 96.822 13.176 98.934 12.216C101.046 11.224 103.446 10.728 106.134 10.728C109.334 10.728 112.102 11.416 114.438 12.792C116.806 14.168 118.566 15.96 119.718 18.168L113.67 22.392C113.158 21.176 112.47 20.232 111.606 19.56C110.774 18.888 109.846 18.424 108.822 18.168C107.83 17.88 106.87 17.736 105.942 17.736C104.438 17.736 103.126 18.04 102.006 18.648C100.886 19.224 99.958 20.008 99.222 21C98.486 21.992 97.942 23.096 97.59 24.312C97.238 25.528 97.062 26.744 97.062 27.96C97.062 29.304 97.27 30.6 97.686 31.848C98.102 33.096 98.694 34.2 99.462 35.16C100.262 36.12 101.222 36.888 102.342 37.464C103.462 38.008 104.694 38.28 106.038 38.28C106.998 38.28 107.974 38.12 108.966 37.8C109.958 37.48 110.87 36.984 111.702 36.312C112.566 35.608 113.222 34.696 113.67 33.576L120.102 37.368C119.43 39.032 118.326 40.456 116.79 41.64C115.254 42.824 113.51 43.736 111.558 44.376C109.638 44.984 107.734 45.288 105.846 45.288C103.382 45.288 101.11 44.792 99.03 43.8C96.982 42.776 95.206 41.432 93.702 39.768C92.23 38.072 91.078 36.184 90.246 34.104C89.446 31.992 89.046 29.848 89.046 27.672ZM148.013 38.088V45H124.061V10.92H147.581V17.832H131.933V24.456H145.373V30.84H131.933V38.088H148.013ZM163.998 45V10.92H178.542C180.174 10.92 181.662 11.256 183.006 11.928C184.382 12.568 185.566 13.448 186.558 14.568C187.55 15.656 188.318 16.888 188.862 18.264C189.406 19.64 189.678 21.048 189.678 22.488C189.678 24.44 189.214 26.296 188.286 28.056C187.39 29.816 186.126 31.256 184.494 32.376C182.894 33.464 180.99 34.008 178.782 34.008H171.87V45H163.998ZM171.87 27.144H178.302C178.91 27.144 179.47 26.968 179.982 26.616C180.494 26.264 180.91 25.736 181.23 25.032C181.55 24.328 181.71 23.464 181.71 22.44C181.71 21.384 181.518 20.52 181.134 19.848C180.782 19.144 180.318 18.632 179.742 18.312C179.198 17.992 178.622 17.832 178.014 17.832H171.87V27.144ZM193.905 45V10.92H201.777V38.088H218.289V45H193.905ZM230.575 10.92H239.071L250.783 45H242.719L240.079 37.368H229.471L226.879 45H218.815L230.575 10.92ZM238.783 31.944L234.799 18.84L230.719 31.944H238.783ZM250.812 27.672C250.812 25.592 251.196 23.56 251.964 21.576C252.732 19.56 253.852 17.736 255.324 16.104C256.796 14.472 258.588 13.176 260.7 12.216C262.812 11.224 265.212 10.728 267.9 10.728C271.1 10.728 273.868 11.416 276.204 12.792C278.572 14.168 280.332 15.96 281.484 18.168L275.436 22.392C274.924 21.176 274.236 20.232 273.372 19.56C272.54 18.888 271.612 18.424 270.588 18.168C269.596 17.88 268.636 17.736 267.708 17.736C266.204 17.736 264.892 18.04 263.772 18.648C262.652 19.224 261.724 20.008 260.988 21C260.252 21.992 259.708 23.096 259.356 24.312C259.004 25.528 258.828 26.744 258.828 27.96C258.828 29.304 259.036 30.6 259.452 31.848C259.868 33.096 260.46 34.2 261.228 35.16C262.028 36.12 262.988 36.888 264.108 37.464C265.228 38.008 266.46 38.28 267.804 38.28C268.764 38.28 269.74 38.12 270.732 37.8C271.724 37.48 272.636 36.984 273.468 36.312C274.332 35.608 274.988 34.696 275.436 33.576L281.868 37.368C281.196 39.032 280.092 40.456 278.556 41.64C277.02 42.824 275.276 43.736 273.324 44.376C271.404 44.984 269.5 45.288 267.612 45.288C265.148 45.288 262.876 44.792 260.796 43.8C258.748 42.776 256.972 41.432 255.468 39.768C253.996 38.072 252.844 36.184 252.012 34.104C251.212 31.992 250.812 29.848 250.812 27.672ZM309.779 38.088V45H285.827V10.92H309.347V17.832H293.699V24.456H307.139V30.84H293.699V38.088H309.779Z" fill="white"/>
<path d="M95.325 68V50.25H96.6V66.85H107.2V68H95.325ZM114.611 68.25C113.694 68.25 112.844 68.075 112.061 67.725C111.277 67.3583 110.594 66.8667 110.011 66.25C109.444 65.6167 108.994 64.8917 108.661 64.075C108.344 63.2417 108.186 62.3667 108.186 61.45C108.186 60.2167 108.461 59.1 109.011 58.1C109.561 57.1 110.319 56.3 111.286 55.7C112.252 55.0833 113.336 54.775 114.536 54.775C115.769 54.775 116.861 55.0833 117.811 55.7C118.761 56.3167 119.511 57.1333 120.061 58.15C120.627 59.15 120.911 60.25 120.911 61.45C120.911 61.55 120.911 61.65 120.911 61.75C120.911 61.85 120.902 61.9333 120.886 62H109.486C109.552 62.9833 109.827 63.875 110.311 64.675C110.794 65.475 111.411 66.1083 112.161 66.575C112.927 67.025 113.761 67.25 114.661 67.25C115.561 67.25 116.411 67.0167 117.211 66.55C118.011 66.0833 118.569 65.4833 118.886 64.75L119.986 65.05C119.736 65.6667 119.336 66.2167 118.786 66.7C118.252 67.1833 117.619 67.5667 116.886 67.85C116.169 68.1167 115.411 68.25 114.611 68.25ZM109.436 61.025H119.711C119.644 60.0083 119.377 59.1083 118.911 58.325C118.444 57.5417 117.827 56.925 117.061 56.475C116.311 56.025 115.477 55.8 114.561 55.8C113.644 55.8 112.811 56.025 112.061 56.475C111.311 56.925 110.702 57.5417 110.236 58.325C109.769 59.1083 109.502 60.0083 109.436 61.025ZM122.586 64.25C122.586 63.4667 122.819 62.7917 123.286 62.225C123.753 61.6417 124.394 61.1917 125.211 60.875C126.028 60.5417 126.969 60.375 128.036 60.375C128.703 60.375 129.394 60.4333 130.111 60.55C130.828 60.6667 131.469 60.825 132.036 61.025V59.8C132.036 58.6 131.686 57.6417 130.986 56.925C130.303 56.2083 129.353 55.85 128.136 55.85C127.486 55.85 126.811 55.9833 126.111 56.25C125.411 56.5167 124.694 56.9 123.961 57.4L123.436 56.5C124.286 55.9333 125.103 55.5083 125.886 55.225C126.686 54.925 127.478 54.775 128.261 54.775C129.811 54.775 131.036 55.2333 131.936 56.15C132.836 57.0667 133.286 58.3167 133.286 59.9V66.35C133.286 66.55 133.328 66.7 133.411 66.8C133.511 66.9 133.653 66.9583 133.836 66.975V68C133.686 68.0167 133.561 68.025 133.461 68.025C133.361 68.025 133.278 68.025 133.211 68.025C132.894 67.975 132.644 67.8417 132.461 67.625C132.294 67.4083 132.203 67.1667 132.186 66.9V65.875C131.586 66.625 130.811 67.2083 129.861 67.625C128.928 68.0417 127.944 68.25 126.911 68.25C126.094 68.25 125.353 68.075 124.686 67.725C124.036 67.375 123.519 66.9 123.136 66.3C122.769 65.6833 122.586 65 122.586 64.25ZM131.536 65.325C131.703 65.1083 131.828 64.9 131.911 64.7C131.994 64.5 132.036 64.3167 132.036 64.15V62C131.436 61.7667 130.811 61.5917 130.161 61.475C129.511 61.3583 128.844 61.3 128.161 61.3C126.861 61.3 125.803 61.5583 124.986 62.075C124.186 62.5917 123.786 63.2917 123.786 64.175C123.786 64.725 123.928 65.2333 124.211 65.7C124.494 66.1667 124.886 66.5417 125.386 66.825C125.903 67.1083 126.494 67.25 127.161 67.25C128.094 67.25 128.953 67.075 129.736 66.725C130.536 66.3583 131.136 65.8917 131.536 65.325ZM143.239 56.125C142.072 56.1583 141.047 56.5083 140.164 57.175C139.297 57.825 138.689 58.725 138.339 59.875V68H137.089V55H138.289V58.2C138.739 57.2833 139.339 56.5417 140.089 55.975C140.839 55.3917 141.63 55.0583 142.464 54.975C142.63 54.9583 142.78 54.95 142.914 54.95C143.047 54.95 143.155 54.95 143.239 54.95V56.125ZM156.234 68H154.984V60.75C154.984 59.0833 154.743 57.8667 154.259 57.1C153.793 56.3167 153.043 55.925 152.009 55.925C151.276 55.925 150.551 56.1 149.834 56.45C149.134 56.8 148.518 57.2833 147.984 57.9C147.468 58.5 147.093 59.1833 146.859 59.95V68H145.609V55H146.784V58.1C147.134 57.4333 147.601 56.8583 148.184 56.375C148.768 55.875 149.418 55.4833 150.134 55.2C150.851 54.9167 151.593 54.775 152.359 54.775C153.076 54.775 153.676 54.9083 154.159 55.175C154.659 55.425 155.059 55.7917 155.359 56.275C155.676 56.7583 155.901 57.3583 156.034 58.075C156.168 58.7917 156.234 59.6083 156.234 60.525V68ZM171.603 50.25H172.703L180.203 68H178.853L176.378 62.15H167.903L165.428 68H164.053L171.603 50.25ZM176.028 61.1L172.153 51.8L168.203 61.1H176.028ZM188.598 68.25C187.582 68.25 186.632 67.9833 185.748 67.45C184.865 66.9 184.173 66.2167 183.673 65.4V68H182.523V49.75H183.773V57.825C184.39 56.925 185.115 56.1917 185.948 55.625C186.798 55.0583 187.773 54.775 188.873 54.775C189.807 54.775 190.632 54.9667 191.348 55.35C192.082 55.7333 192.707 56.25 193.223 56.9C193.74 57.55 194.132 58.275 194.398 59.075C194.682 59.875 194.823 60.7 194.823 61.55C194.823 62.4333 194.665 63.2833 194.348 64.1C194.032 64.9 193.59 65.6167 193.023 66.25C192.457 66.8667 191.798 67.3583 191.048 67.725C190.298 68.075 189.482 68.25 188.598 68.25ZM188.348 67.125C189.115 67.125 189.815 66.975 190.448 66.675C191.082 66.3583 191.623 65.9333 192.073 65.4C192.54 64.8667 192.898 64.2667 193.148 63.6C193.415 62.9333 193.548 62.25 193.548 61.55C193.548 60.5667 193.34 59.65 192.923 58.8C192.507 57.9333 191.923 57.2333 191.173 56.7C190.423 56.1667 189.557 55.9 188.573 55.9C187.84 55.9 187.165 56.0667 186.548 56.4C185.932 56.7167 185.39 57.1333 184.923 57.65C184.473 58.1667 184.09 58.7333 183.773 59.35V63.65C183.84 64.1333 184.023 64.5917 184.323 65.025C184.623 65.4417 184.998 65.8083 185.448 66.125C185.915 66.425 186.398 66.6667 186.898 66.85C187.415 67.0333 187.898 67.125 188.348 67.125ZM203.281 68.25C202.364 68.25 201.514 68.075 200.731 67.725C199.964 67.375 199.298 66.8917 198.731 66.275C198.164 65.6417 197.723 64.9167 197.406 64.1C197.089 63.2833 196.931 62.425 196.931 61.525C196.931 60.6083 197.089 59.75 197.406 58.95C197.723 58.1333 198.164 57.4167 198.731 56.8C199.314 56.1667 199.989 55.675 200.756 55.325C201.539 54.9583 202.381 54.775 203.281 54.775C204.181 54.775 205.014 54.9583 205.781 55.325C206.548 55.675 207.223 56.1667 207.806 56.8C208.389 57.4167 208.839 58.1333 209.156 58.95C209.473 59.75 209.631 60.6083 209.631 61.525C209.631 62.425 209.473 63.2833 209.156 64.1C208.839 64.9167 208.389 65.6417 207.806 66.275C207.239 66.8917 206.564 67.375 205.781 67.725C205.014 68.075 204.181 68.25 203.281 68.25ZM198.181 61.575C198.181 62.5917 198.406 63.525 198.856 64.375C199.323 65.2083 199.939 65.875 200.706 66.375C201.473 66.875 202.323 67.125 203.256 67.125C204.189 67.125 205.039 66.875 205.806 66.375C206.589 65.8583 207.206 65.175 207.656 64.325C208.123 63.4583 208.356 62.5167 208.356 61.5C208.356 60.4833 208.123 59.55 207.656 58.7C207.206 57.85 206.589 57.175 205.806 56.675C205.039 56.1583 204.198 55.9 203.281 55.9C202.348 55.9 201.498 56.1583 200.731 56.675C199.964 57.1917 199.348 57.875 198.881 58.725C198.414 59.575 198.181 60.525 198.181 61.575ZM212.501 62.5V55H213.751V62.325C213.751 63.9417 214.017 65.15 214.551 65.95C215.101 66.7333 215.926 67.125 217.026 67.125C217.759 67.125 218.459 66.9667 219.126 66.65C219.809 66.3167 220.409 65.8583 220.926 65.275C221.442 64.675 221.826 63.9833 222.076 63.2V55H223.326V66.35C223.326 66.55 223.367 66.7 223.451 66.8C223.551 66.9 223.684 66.9583 223.851 66.975V68C223.684 68.0167 223.551 68.025 223.451 68.025C223.367 68.025 223.292 68.0167 223.226 68C222.942 67.9667 222.709 67.85 222.526 67.65C222.342 67.4333 222.242 67.175 222.226 66.875L222.201 64.925C221.634 65.9583 220.851 66.775 219.851 67.375C218.867 67.9583 217.801 68.25 216.651 68.25C215.284 68.25 214.251 67.7667 213.551 66.8C212.851 65.8333 212.501 64.4 212.501 62.5ZM233.099 67.375C233.015 67.4083 232.849 67.4917 232.599 67.625C232.349 67.7583 232.032 67.8833 231.649 68C231.265 68.1 230.84 68.15 230.374 68.15C229.924 68.15 229.499 68.0667 229.099 67.9C228.715 67.7167 228.407 67.45 228.174 67.1C227.94 66.75 227.824 66.325 227.824 65.825V56.025H225.999V55H227.824V50.55H229.074V55H232.099V56.025H229.074V65.525C229.107 66.0083 229.282 66.375 229.599 66.625C229.915 66.8583 230.282 66.975 230.699 66.975C231.215 66.975 231.665 66.8917 232.049 66.725C232.432 66.5417 232.657 66.425 232.724 66.375L233.099 67.375ZM252.427 53.2C252.144 52.8833 251.827 52.6083 251.477 52.375C251.127 52.125 250.752 51.925 250.352 51.775C249.952 51.6083 249.519 51.4833 249.052 51.4C248.586 51.3167 248.086 51.275 247.552 51.275C245.819 51.275 244.552 51.6083 243.752 52.275C242.969 52.925 242.577 53.8083 242.577 54.925C242.577 55.675 242.752 56.275 243.102 56.725C243.469 57.1583 244.036 57.5083 244.802 57.775C245.569 58.0417 246.561 58.3 247.777 58.55C249.061 58.8167 250.169 59.1333 251.102 59.5C252.036 59.85 252.752 60.3333 253.252 60.95C253.769 61.5667 254.027 62.4 254.027 63.45C254.027 64.2333 253.877 64.925 253.577 65.525C253.277 66.1083 252.844 66.5917 252.277 66.975C251.711 67.3583 251.036 67.65 250.252 67.85C249.486 68.05 248.627 68.15 247.677 68.15C246.761 68.15 245.886 68.05 245.052 67.85C244.219 67.65 243.436 67.3583 242.702 66.975C241.969 66.5917 241.286 66.1 240.652 65.5L241.327 64.475C241.694 64.875 242.102 65.2333 242.552 65.55C243.019 65.85 243.519 66.1083 244.052 66.325C244.602 66.5417 245.186 66.7167 245.802 66.85C246.419 66.9667 247.061 67.025 247.727 67.025C249.277 67.025 250.486 66.7417 251.352 66.175C252.236 65.5917 252.677 64.7333 252.677 63.6C252.677 62.8167 252.477 62.1833 252.077 61.7C251.677 61.2167 251.061 60.825 250.227 60.525C249.394 60.2083 248.352 59.9167 247.102 59.65C245.852 59.3833 244.786 59.0833 243.902 58.75C243.036 58.4167 242.377 57.9667 241.927 57.4C241.494 56.8333 241.277 56.0667 241.277 55.1C241.277 54.0333 241.536 53.1333 242.052 52.4C242.586 51.65 243.327 51.0833 244.277 50.7C245.227 50.3167 246.319 50.125 247.552 50.125C248.319 50.125 249.027 50.2 249.677 50.35C250.344 50.5 250.952 50.7333 251.502 51.05C252.069 51.35 252.594 51.7333 253.077 52.2L252.427 53.2ZM263.214 68.25C262.097 68.25 261.097 67.9583 260.214 67.375C259.347 66.775 258.647 66.05 258.114 65.2V73.325H256.864V55H258.014V57.6C258.547 56.7667 259.256 56.0917 260.139 55.575C261.022 55.0417 261.956 54.775 262.939 54.775C263.856 54.775 264.689 54.9667 265.439 55.35C266.189 55.7167 266.839 56.225 267.389 56.875C267.956 57.5083 268.389 58.225 268.689 59.025C269.006 59.825 269.164 60.6583 269.164 61.525C269.164 62.725 268.914 63.8417 268.414 64.875C267.914 65.8917 267.214 66.7083 266.314 67.325C265.431 67.9417 264.397 68.25 263.214 68.25ZM262.914 67.125C263.681 67.125 264.364 66.9667 264.964 66.65C265.581 66.3333 266.106 65.9083 266.539 65.375C266.972 64.8417 267.306 64.2417 267.539 63.575C267.772 62.9083 267.889 62.225 267.889 61.525C267.889 60.775 267.756 60.0667 267.489 59.4C267.222 58.7167 266.847 58.1167 266.364 57.6C265.897 57.0833 265.347 56.675 264.714 56.375C264.097 56.0583 263.422 55.9 262.689 55.9C262.239 55.9 261.756 55.9917 261.239 56.175C260.739 56.3583 260.256 56.6167 259.789 56.95C259.339 57.2833 258.964 57.6667 258.664 58.1C258.364 58.5167 258.181 58.95 258.114 59.4V63.675C258.414 64.3083 258.797 64.8917 259.264 65.425C259.747 65.9417 260.306 66.3583 260.939 66.675C261.572 66.975 262.231 67.125 262.914 67.125ZM271.097 64.25C271.097 63.4667 271.33 62.7917 271.797 62.225C272.263 61.6417 272.905 61.1917 273.722 60.875C274.538 60.5417 275.48 60.375 276.547 60.375C277.213 60.375 277.905 60.4333 278.622 60.55C279.338 60.6667 279.98 60.825 280.547 61.025V59.8C280.547 58.6 280.197 57.6417 279.497 56.925C278.813 56.2083 277.863 55.85 276.647 55.85C275.997 55.85 275.322 55.9833 274.622 56.25C273.922 56.5167 273.205 56.9 272.472 57.4L271.947 56.5C272.797 55.9333 273.613 55.5083 274.397 55.225C275.197 54.925 275.988 54.775 276.772 54.775C278.322 54.775 279.547 55.2333 280.447 56.15C281.347 57.0667 281.797 58.3167 281.797 59.9V66.35C281.797 66.55 281.838 66.7 281.922 66.8C282.022 66.9 282.163 66.9583 282.347 66.975V68C282.197 68.0167 282.072 68.025 281.972 68.025C281.872 68.025 281.788 68.025 281.722 68.025C281.405 67.975 281.155 67.8417 280.972 67.625C280.805 67.4083 280.713 67.1667 280.697 66.9V65.875C280.097 66.625 279.322 67.2083 278.372 67.625C277.438 68.0417 276.455 68.25 275.422 68.25C274.605 68.25 273.863 68.075 273.197 67.725C272.547 67.375 272.03 66.9 271.647 66.3C271.28 65.6833 271.097 65 271.097 64.25ZM280.047 65.325C280.213 65.1083 280.338 64.9 280.422 64.7C280.505 64.5 280.547 64.3167 280.547 64.15V62C279.947 61.7667 279.322 61.5917 278.672 61.475C278.022 61.3583 277.355 61.3 276.672 61.3C275.372 61.3 274.313 61.5583 273.497 62.075C272.697 62.5917 272.297 63.2917 272.297 64.175C272.297 64.725 272.438 65.2333 272.722 65.7C273.005 66.1667 273.397 66.5417 273.897 66.825C274.413 67.1083 275.005 67.25 275.672 67.25C276.605 67.25 277.463 67.075 278.247 66.725C279.047 66.3583 279.647 65.8917 280.047 65.325ZM291.124 68.25C290.224 68.25 289.383 68.075 288.599 67.725C287.816 67.3583 287.133 66.8667 286.549 66.25C285.966 65.6167 285.508 64.8917 285.174 64.075C284.858 63.2583 284.699 62.3833 284.699 61.45C284.699 60.2 284.974 59.075 285.524 58.075C286.074 57.075 286.833 56.275 287.799 55.675C288.766 55.075 289.866 54.775 291.099 54.775C292.283 54.775 293.324 55.05 294.224 55.6C295.124 56.1333 295.799 56.8667 296.249 57.8L295.024 58.2C294.641 57.4833 294.091 56.925 293.374 56.525C292.674 56.1083 291.899 55.9 291.049 55.9C290.099 55.9 289.241 56.1417 288.474 56.625C287.708 57.1083 287.091 57.775 286.624 58.625C286.174 59.4583 285.949 60.4 285.949 61.45C285.949 62.4833 286.183 63.4333 286.649 64.3C287.116 65.1667 287.733 65.8583 288.499 66.375C289.283 66.875 290.141 67.125 291.074 67.125C291.674 67.125 292.258 67.0167 292.824 66.8C293.408 66.5667 293.908 66.2667 294.324 65.9C294.758 65.5333 295.041 65.1417 295.174 64.725L296.399 65.075C296.183 65.6917 295.808 66.2417 295.274 66.725C294.741 67.1917 294.116 67.5667 293.399 67.85C292.699 68.1167 291.941 68.25 291.124 68.25ZM304.625 68.25C303.709 68.25 302.859 68.075 302.075 67.725C301.292 67.3583 300.609 66.8667 300.025 66.25C299.459 65.6167 299.009 64.8917 298.675 64.075C298.359 63.2417 298.2 62.3667 298.2 61.45C298.2 60.2167 298.475 59.1 299.025 58.1C299.575 57.1 300.334 56.3 301.3 55.7C302.267 55.0833 303.35 54.775 304.55 54.775C305.784 54.775 306.875 55.0833 307.825 55.7C308.775 56.3167 309.525 57.1333 310.075 58.15C310.642 59.15 310.925 60.25 310.925 61.45C310.925 61.55 310.925 61.65 310.925 61.75C310.925 61.85 310.917 61.9333 310.9 62H299.5C299.567 62.9833 299.842 63.875 300.325 64.675C300.809 65.475 301.425 66.1083 302.175 66.575C302.942 67.025 303.775 67.25 304.675 67.25C305.575 67.25 306.425 67.0167 307.225 66.55C308.025 66.0833 308.584 65.4833 308.9 64.75L310 65.05C309.75 65.6667 309.35 66.2167 308.8 66.7C308.267 67.1833 307.634 67.5667 306.9 67.85C306.184 68.1167 305.425 68.25 304.625 68.25ZM299.45 61.025H309.725C309.659 60.0083 309.392 59.1083 308.925 58.325C308.459 57.5417 307.842 56.925 307.075 56.475C306.325 56.025 305.492 55.8 304.575 55.8C303.659 55.8 302.825 56.025 302.075 56.475C301.325 56.925 300.717 57.5417 300.25 58.325C299.784 59.1083 299.517 60.0083 299.45 61.025Z" fill="white"/>
<rect x="1" y="52" width="88" height="16" fill="white"/>
</svg>
