<svg width="45" height="45" viewBox="0 0 45 45" fill="none" xmlns="http://www.w3.org/2000/svg">
<g clip-path="url(#clip0_1_11082)">
<path d="M44.9738 21.3984C45.6287 32.4086 32.2308 45.0001 21.3083 45.0001C10.3857 45.0001 -0.543445 33.8576 0.0197098 21.8815C0.60251 9.50828 11.8983 0.00012207 22.8209 0.00012207C33.7435 0.00012207 44.1684 7.70854 44.9738 21.3984Z" fill="#F17241"/>
<path d="M37.9147 16.0057C39.65 15.8535 39.8792 13.7891 39.1065 12.4393C43.0814 12.7767 38.9101 1.9254 33.6452 7.42386C32.2046 8.92584 32.5123 12.2871 30.5217 13.0811C27.8369 14.1464 26.9201 10.3087 28.7078 10.6528C27.9547 9.23021 30.8753 7.14596 30.227 5.09479C30.6068 5.09479 30.9866 5.00215 31.3599 4.99554C32.126 2.90467 29.3954 2.0048 27.8238 2.60692C27.9809 1.09832 27.1034 0.224918 25.5711 0.621918C25.6664 0.491902 25.7518 0.354763 25.8265 0.211684C24.83 0.0792779 23.826 0.0129698 22.8209 0.0131841C18.9762 0.0569457 15.2092 1.11285 11.8917 3.0767C12.946 3.36122 13.9283 3.69205 14.3146 4.45959C15.8076 7.37754 11.2696 6.90114 9.6915 7.42386C5.03565 8.95893 3.05151 18.4142 9.42302 16.6872C9.47168 17.1269 9.47168 17.5708 9.42302 18.0105C9.56053 18.0105 10.1368 18.0105 10.2154 18.0965C10.5428 20.6043 7.83832 20.3793 6.22744 21.2395C3.89624 22.4702 3.18247 23.6744 2.95328 26.4071C2.46216 31.7732 10.1957 37.9002 14.0003 32.2761C14.5241 34.2081 16.3577 34.4331 17.5953 33.1627C18.905 35.1874 21.282 34.6978 22.834 35.2867C25.545 36.299 26.2849 37.543 29.5853 36.8548C33.9923 35.9351 37.2402 30.8336 33.6911 26.9298C30.3383 23.2509 26.1998 26.1358 22.5589 27.3797C20.6992 28.0083 17.5953 29.1199 15.6112 28.3656C14.6617 28.0017 12.2453 26.1424 13.4764 24.9117C13.9348 24.4486 16.0106 25.9704 17.1042 25.1764C19.0687 23.7406 17.4185 20.7895 15.6374 20.108C17.484 20.0154 16.8095 17.5871 16.063 16.3431C16.2136 16.4358 16.5083 16.5813 16.4952 16.5747C17.1042 15.913 19.1145 6.90776 21.9696 12.1879C22.6244 13.4252 19.7759 18.6457 23.1221 17.2761C22.6965 19.4927 25.1913 23.1782 26.6778 19.9228C27.7321 22.8209 31.1765 22.0599 30.8295 18.9766C32.0409 19.9294 33.7041 20.108 34.5358 18.6722C34.2673 20.8689 36.1139 20.2139 36.6836 21.2329C37.1525 22.2339 37.3232 23.3512 37.1748 24.4486C37.0634 26.8901 35.7472 29.7419 39.1393 30.5293C44.9673 31.9055 42.8194 17.7459 37.9147 16.0057Z" fill="#FF4F24"/>
<path d="M0.713776 28.0282C0.931167 28.8162 1.19131 29.5915 1.49303 30.3507C1.23764 29.5434 0.982256 28.7296 0.713776 28.0282Z" fill="#FF4F24"/>
<path d="M27.2737 38.8862C24.6151 38.5289 24.2484 40.097 21.485 38.4561C20.2539 37.7283 20.4307 37.0203 18.7806 36.7556C17.6346 36.5703 16.7244 37.4173 16.1612 37.3511C14.8123 37.1592 14.5438 36.0278 13.2014 35.7697C11.859 35.5117 11.6036 36.2527 10.5166 36.3851C8.66997 36.6034 6.43043 36.749 4.68858 35.955C6.49584 38.3358 8.71431 40.3667 11.2369 41.9497C11.564 41.4458 12.0478 41.0664 12.612 40.8712C13.9937 40.5205 20.9022 41.8703 22.0089 42.565C22.2708 42.7305 22.7685 43.9545 23.2269 44.8743C25.568 44.5388 27.8382 43.8144 29.9455 42.7305C30.0442 42.2987 30.0518 41.8508 29.9679 41.4159C29.8839 40.9809 29.7103 40.5687 29.4583 40.2061C29.2063 39.8434 28.8815 39.5385 28.5051 39.3111C28.1287 39.0837 27.7092 38.9389 27.2737 38.8862Z" fill="#FF4F24"/>
<g style="mix-blend-mode:soft-light" opacity="0.59">
<path d="M31.8903 8.02602C32.5975 7.3048 33.0689 5.5183 31.6676 5.37935C30.1484 5.19409 30.5937 7.03352 30.2794 7.88045C30.0174 8.60167 28.0988 9.76621 29.6704 10.7984C31.0717 11.7181 32.3486 8.94574 32.1326 7.81429L31.8903 8.02602Z" fill="#7D0204"/>
</g>
<g style="mix-blend-mode:soft-light" opacity="0.59">
<path d="M21.4195 23.423C22.7292 21.4843 21.688 20.1147 20.601 18.5994C20.2081 18.0569 19.2913 18.6391 18.9115 17.8054C18.5906 17.0908 19.7235 16.0785 19.3699 15.4301C18.3942 13.6303 17.3399 14.2324 17.3399 16.4424C17.3399 17.5408 18.6496 19.3802 19.3372 20.1676C18.3615 20.9417 18.2174 21.4181 19.2455 22.2651C14.8254 27.1482 26.0361 27.168 21.4195 23.1517V23.423Z" fill="#7D0204"/>
</g>
<g style="mix-blend-mode:soft-light" opacity="0.59">
<path d="M30.7902 31.7136C30.7443 28.3325 25.2306 26.9629 25.4664 31.0983C24.4972 29.9205 21.0921 27.8429 20.7843 30.7807C19.1669 30.7807 15.8011 30.8403 14.3212 30.4763C11.1256 29.6889 12.2912 27.1217 10.4315 25.0242C8.71581 23.0921 4.53798 22.5694 4.38737 26.3872C4.30224 28.7692 7.85796 31.1512 9.94688 30.3572C9.90759 32.8782 15.657 31.1446 17.6084 31.4291C19.3175 31.6806 22.1464 34.2015 23.4692 33.0304C24.124 34.1353 25.1717 34.4596 26.0885 33.5994C26.5141 35.2139 29.1924 35.9351 30.561 35.0551C32.1981 33.9964 31.851 31.0586 30.7902 31.7136Z" fill="#7D0204"/>
</g>
<g style="mix-blend-mode:soft-light" opacity="0.59">
<path d="M24.0519 4.17516C25.0735 1.66083 18.4793 0.138993 18.7347 5.02872C16.9143 4.2281 14.5438 5.8558 15.4606 7.9996C12.2584 6.60348 5.13387 10.9506 9.18072 14.4641C13.2276 17.9775 17.628 10.3551 18.5906 7.1659C19.2334 7.34879 19.8907 7.47498 20.5551 7.54305C21.1576 8.77375 22.2119 8.6745 22.8994 9.65377C23.587 10.633 22.2446 12.446 24.3466 12.4923C27.4767 12.5651 26.9135 5.87565 24.0519 4.17516Z" fill="#7D0204"/>
</g>
<g style="mix-blend-mode:soft-light" opacity="0.59">
<path d="M34.896 14.2457C36.1663 13.2333 38.7005 10.8844 37.3712 9.05819C35.9371 7.07319 33.5797 8.85969 33.9726 10.9373C31.9492 11.2152 31.5432 13.2796 31.6283 15.0198C31.0944 14.8036 30.5156 14.7249 29.9441 14.7907C29.3726 14.8565 28.8262 15.0649 28.3542 15.397C26.6451 13.7296 21.891 13.445 23.8948 17.071C25.3944 19.7904 30.2467 18.8575 31.576 16.7004C32.4338 18.2818 35.0335 18.6855 34.8501 16.4093C35.505 20.1213 39.3292 14.8809 34.5686 14.5434L34.896 14.2457Z" fill="#7D0204"/>
</g>
<g style="mix-blend-mode:soft-light" opacity="0.59">
<path d="M31.6873 38.8068C33.5339 39.7926 35.7669 38.3767 37.0962 36.8813C38.1046 35.7565 40.1346 30.8601 36.9914 32.1636C37.4956 31.674 37.2141 31.6012 37.5022 31.1513C34.562 30.3176 34.1429 33.97 35.171 35.7829C33.9465 35.6043 32.7154 35.9484 32.591 37.2188C32.0998 37.0997 31.3599 37.2188 30.8556 37.0732C30.6003 37.9532 31.0848 37.8606 31.6873 38.2113V38.8068Z" fill="#7D0204"/>
</g>
<g style="mix-blend-mode:soft-light" opacity="0.59">
<path d="M2.37049 19.8699C2.43597 20.1478 2.37047 20.4257 2.41631 20.7102C4.79335 21.2594 5.75595 17.5805 3.27414 17.1372C4.30222 16.1844 5.23863 13.9148 3.27414 13.5906C3.77431 13.176 4.16988 12.6472 4.4283 12.0479C4.68673 11.4486 4.80063 10.7958 4.76062 10.1433C6.50902 10.0242 8.94498 8.26421 8.48005 6.29244C6.33875 6.11379 3.71943 10.9241 2.93363 12.618C2.30499 13.9612 -1.00844 21.266 2.37049 19.8699Z" fill="#7D0204"/>
</g>
<g style="mix-blend-mode:soft-light" opacity="0.59">
<path d="M35.1906 26.6784C36.6443 28.6634 37.751 21.385 34.5816 21.835C34.4048 20.0749 32.2897 20.0352 31.9623 21.835C29.4084 20.8888 28.0333 23.9192 30.5347 24.9117C31.6021 25.3286 32.4993 24.303 33.5404 24.8323C34.4441 25.2955 34.0316 26.685 34.9287 27.2805L35.1906 26.6784Z" fill="#7D0204"/>
</g>
<g style="mix-blend-mode:soft-light" opacity="0.59">
<path d="M43.3956 17.5011C43.71 16.5284 43.8016 13.412 41.9288 13.6171C39.1982 13.9215 41.6865 17.0578 41.8633 17.779C42.1514 18.9832 41.5948 21.3851 43.173 21.8813C45.5173 22.6224 43.173 18.9237 42.5182 18.3877L43.3956 17.5011Z" fill="#7D0204"/>
</g>
<g style="mix-blend-mode:soft-light" opacity="0.59">
<path d="M21.1249 39.7066C20.8367 37.7216 18.2174 36.5902 17.556 39.045C15.7487 38.8531 13.0704 36.9673 11.5119 38.0988C10.3725 35.3528 6.75787 38.1517 8.68962 40.0838C9.41648 40.8248 13.2734 40.3617 14.3866 40.5403C16.4625 40.8844 17.6608 40.6131 19.6842 40.5933C21.7077 40.5734 23.1156 42.4989 24.5955 41.7578C24.6348 42.254 24.9556 42.6709 24.9753 43.1605C26.9987 43.723 27.85 41.7379 26.704 40.2293C25.5581 38.7207 23.3382 39.7397 21.1249 39.7066Z" fill="#7D0204"/>
</g>
<g style="mix-blend-mode:soft-light" opacity="0.59">
<path d="M39.8792 24.0119C41.1168 22.0268 39.8792 18.0039 37.2599 19.7573C37.1682 19.4199 37.0241 19.0957 36.9194 18.7317C32.9904 18.1627 37.2009 21.3255 37.5742 21.9276C38.3036 23.1387 38.6059 24.5636 38.432 25.9704C38.3207 27.0555 37.7313 28.7891 38.7529 29.4309C41.824 31.363 40.4685 25.4014 39.6304 24.3096L39.8792 24.0119Z" fill="#7D0204"/>
</g>
<path opacity="0.6" d="M13.2145 11.5792C17.2024 8.56199 8.13954 6.24615 10.2481 10.6926C8.60447 11.255 6.39113 12.8496 9.40336 13.6701C11.5643 14.2589 12.1864 12.0093 13.5026 11.0234L13.2145 11.5792Z" fill="#750400"/>
<path opacity="0.66" d="M9.42303 27.5584C10.1368 22.9664 4.53799 23.82 6.39771 26.1027C1.37516 25.891 11.3024 34.2942 9.42303 27.2673V27.5584Z" fill="#750400"/>
<path opacity="0.6" d="M29.068 33.1959C29.893 32.2563 29.6115 29.7817 27.8958 29.8876C25.5319 30.053 27.0773 33.0106 28.7733 33.1959H29.068Z" fill="#750400"/>
<path opacity="0.6" d="M26.9856 15.7212C22.6572 11.5395 26.1278 22.0005 27.5684 17.2034L26.9856 15.7212Z" fill="#750400"/>
<path opacity="0.6" d="M23.4692 6.2527C22.8143 5.022 20.4831 1.02552 20.2408 4.92936C20.1491 6.45781 22.6899 9.73307 23.7573 7.14595L23.4692 6.2527Z" fill="#750400"/>
<path opacity="0.6" d="M26.1015 41.7777C26.1015 38.7473 24.2353 40.6 23.1745 40.3287C21.7142 39.9515 20.6992 38.8002 19.0949 38.8664C20.1229 40.5669 21.7142 39.9846 23.1745 40.9639C24.2942 41.7248 24.5889 43.4187 26.0492 43.5311C26.3562 42.8973 26.4767 42.1876 26.3962 41.4866L26.1015 41.7777Z" fill="#750400"/>
<path opacity="0.6" d="M42.2235 22.2055C41.4865 22.9055 40.7994 23.6573 40.1674 24.4552C40.5341 21.9806 40.7436 18.0966 38.1112 19.7243C35.9502 21.0476 37.9409 26.0961 39.5911 27.0026C39.7983 26.8136 39.9585 26.578 40.0586 26.3147C40.1588 26.0514 40.196 25.768 40.1674 25.4874C40.9728 24.4287 43.3367 22.9268 42.2235 22.2055Z" fill="#750400"/>
<path opacity="0.21" d="M43.304 17.0578C42.3545 14.9008 39.447 10.4411 38.7201 8.33702C38.3796 7.3776 38.1897 6.5439 37.9343 5.7499C33.791 2.01633 28.4248 -0.0323345 22.8732 1.10399e-05C21.6717 0.00371397 20.4729 0.116653 19.2913 0.337462C21.0856 2.44156 24.6282 4.3604 25.7807 5.3529C28.1315 7.37099 29.4739 10.0706 28.1512 13.0679C27.6077 14.3053 26.6713 14.689 26.4421 16.0851C26.2391 17.3489 27.2082 18.7318 27.0445 20.1809C26.6647 23.4892 22.6244 29.1398 18.8853 29.0737C16.9208 29.0406 16.5148 27.2938 15.2445 26.513C14.4587 26.0366 12.9984 25.8911 12.3828 25.4411C10.8047 24.2832 11.1125 22.8606 8.85987 22.5298C6.24054 22.146 6.73165 23.6679 5.05528 24.7795C3.09079 26.1028 1.41443 25.8315 0.150604 24.7795C0.838177 31.4888 4.96362 37.6621 10.3922 41.3873C14.3866 42.7106 17.5953 44.1068 21.2689 43.7031C33.069 42.3864 48.7129 29.3516 43.304 17.0578Z" fill="#000072"/>
<path opacity="0.27" d="M34.5227 3.22229C31.1438 4.79044 33.3702 9.24346 34.4376 11.4865C35.8324 14.4177 36.9456 18.1032 36.0223 21.3321C35.2823 23.9325 32.9576 24.0516 31.6676 26.0035C30.8032 27.3268 31.373 28.4384 31.0979 29.8743C30.5348 32.8451 28.1709 36.0145 24.877 35.6506C23.9996 35.5514 22.6703 34.7243 21.7928 34.5787C21.3606 34.5059 20.5814 35.0816 19.7628 34.9095C18.6823 34.6846 17.8704 33.3282 16.9798 32.8716C13.9021 31.3035 9.73079 31.6608 8.88606 35.6969C7.46508 42.4393 14.57 40.8447 18.1454 41.7512C20.8498 42.4128 21.0594 44.6096 24.5889 43.2002C26.2849 42.5386 28.9108 40.891 28.7929 38.8332C30.9866 40.666 35.1775 39.0648 36.8801 37.3577C39.7548 34.4795 40.1084 30.9859 39.637 27.2342C44.3321 27.2342 42.3872 22.3511 41.1758 19.7706C44.8428 19.3736 41.4901 11.8967 40.4817 10.3154L42.3349 11.5395C40.5414 8.09095 37.8373 5.21205 34.5227 3.22229Z" fill="#000072"/>
<g style="mix-blend-mode:color-dodge" opacity="0.37">
<path d="M22.5851 2.99074C20.1623 0.019851 12.9067 1.6277 12.874 5.90869C9.46885 5.80282 8.02167 7.05999 6.32566 9.95148C5.48093 11.3807 5.67084 11.6586 4.45285 13.0679C3.14319 14.5898 1.77459 16.0124 1.1787 18.09C0.314319 21.266 1.38169 25.2294 5.14042 25.4808C6.67927 25.5867 7.03943 24.0251 8.59793 25.1301C9.33134 25.6528 9.41646 27.5915 10.5624 28.3789C15.1069 31.5086 20.4242 29.4442 20.876 24.045C23.4953 25.5007 25.8331 24.5876 26.9922 21.6498C27.4815 20.271 27.6299 18.7923 27.4243 17.3423C27.1689 16.3101 25.7938 15.5029 25.7938 14.5368C25.7545 13.2135 33.953 8.05911 29.2841 7.72166C29.88 7.43714 30.6788 5.73666 29.7228 4.77062C32.735 1.89237 24.7395 2.69299 22.5851 2.99074Z" fill="#FBB901"/>
</g>
<g style="mix-blend-mode:overlay" opacity="0.4">
<path d="M18.7806 11.0168C20.9611 8.23118 16.1154 4.49937 14.9039 7.12619C13.7711 6.55054 12.4418 6.76227 11.9834 8.02606C5.05529 3.73184 0.700656 24.4023 10.5886 18.0768C12.265 20.1147 9.75043 22.6489 13.4175 23.4694C17.7918 24.4553 19.5336 19.1156 19.4092 15.7742C24.2811 18.0172 24.5824 6.78874 18.7806 11.0168Z" fill="#FFE4A1"/>
</g>
<path opacity="0.58" d="M12.6251 8.14507C12.5466 8.14507 12.5138 8.28402 12.6251 8.29725C12.9442 8.37177 13.2361 8.53533 13.4676 8.76929C13.6992 9.00326 13.8611 9.29821 13.9348 9.62058C14.0002 9.90573 14.0002 10.2022 13.9348 10.4874C13.9348 10.6131 13.3782 11.5527 13.28 11.2615C13.2709 11.2265 13.2529 11.1945 13.2276 11.1689C13.2024 11.1432 13.1709 11.1247 13.1363 11.1153C13.1018 11.1059 13.0653 11.1059 13.0308 11.1153C12.9962 11.1247 12.9647 11.1432 12.9395 11.1689C12.551 11.5664 12.2459 12.039 12.0423 12.5584C11.3875 13.7163 10.4446 13.9677 9.22002 13.6104C9.18073 13.6104 9.14799 13.6568 9.18073 13.6832C9.49555 13.9273 9.87614 14.0693 10.2724 14.0906C10.6686 14.1118 11.062 14.0113 11.4006 13.8023C12.265 13.3193 12.409 12.3202 13.018 11.6519C13.042 11.6912 13.078 11.7215 13.1205 11.7382C13.1631 11.7549 13.2099 11.7572 13.2538 11.7445C15.1004 11.1424 14.5765 8.03258 12.6251 8.14507Z" fill="#FFE4A1"/>
<path opacity="0.58" d="M9.81592 28.1076C9.68501 27.5083 9.68501 26.8874 9.81592 26.288C10.0517 24.753 7.81868 23.251 6.54176 24.0384C6.52625 24.0449 6.513 24.0559 6.50367 24.0701C6.49435 24.0842 6.48936 24.1008 6.48936 24.1178C6.48936 24.1347 6.49435 24.1514 6.50367 24.1655C6.513 24.1796 6.52625 24.1906 6.54176 24.1972C7.06492 24.2402 7.58525 24.3131 8.10026 24.4155C8.51076 24.5385 8.88291 24.7664 9.18073 25.0772C9.71769 25.7058 9.46886 26.1623 9.34444 26.8372C9.13489 27.9951 10.6999 29.4839 8.90569 30.2117C9.51469 30.2117 9.80281 29.7287 9.90758 29.1663C9.9589 28.811 9.92752 28.4485 9.81592 28.1076Z" fill="#FFE4A1"/>
<path opacity="0.58" d="M27.3326 16.5284C27.1858 16.0732 26.9225 15.6651 26.5695 15.3456C26.2165 15.0261 25.7863 14.8065 25.3223 14.7089C25.3223 14.7089 25.283 14.7552 25.3223 14.7684C26.048 15.0464 26.6377 15.5995 26.9659 16.3101C27.154 16.6452 27.2298 17.0328 27.182 17.4151C27.0707 17.9246 26.6385 17.9841 26.2718 18.2355C26.2622 18.2406 26.2541 18.2481 26.2485 18.2575C26.2429 18.2668 26.2399 18.2775 26.2399 18.2885C26.2399 18.2994 26.2429 18.3101 26.2485 18.3195C26.2541 18.3288 26.2622 18.3364 26.2718 18.3414C27.3195 18.4804 27.6077 17.2761 27.3326 16.5284Z" fill="#FFE4A1"/>
<path opacity="0.58" d="M10.3791 18.0437C9.22001 17.9908 9.4623 17.1769 9.21346 16.3962C9.20973 16.3835 9.20353 16.3717 9.19522 16.3614C9.18691 16.3512 9.17666 16.3427 9.16506 16.3366C9.15347 16.3304 9.14077 16.3267 9.12771 16.3255C9.11466 16.3244 9.10151 16.3259 9.08905 16.33C7.34065 16.7138 5.6119 16.0719 5.96551 13.8884C6.08265 13.1071 6.25554 12.3354 6.48283 11.5792C7.07873 9.69346 8.05441 8.01283 10.0909 7.60921C7.15729 6.67626 5.66429 12.7239 5.66429 14.6494C5.66429 16.3962 7.118 16.5219 8.49315 16.6344C9.50159 16.7071 8.82056 17.296 9.25275 17.8981C9.52778 18.2885 9.97963 18.2091 10.3922 18.143C10.4511 18.1363 10.4314 18.0437 10.3791 18.0437Z" fill="#FFE4A1"/>
<path opacity="0.58" d="M19.2455 10.9638L19.2848 11.0101C20.2867 10.3484 21.5767 10.097 22.3166 11.2814C22.5262 11.6266 22.6516 12.0172 22.6823 12.421C22.7131 12.8249 22.6483 13.2303 22.4934 13.6038C22.2516 14.309 21.8706 14.9573 21.3737 15.5094C21.1741 15.7672 20.8991 15.9547 20.5879 16.0454C20.136 16.1248 19.9331 15.7741 19.5925 15.569C19.5814 15.5619 19.5685 15.5584 19.5553 15.5588C19.5422 15.5593 19.5295 15.5638 19.5189 15.5716C19.5084 15.5795 19.5003 15.5903 19.4959 15.6029C19.4916 15.6154 19.491 15.6289 19.4943 15.6418C19.6384 16.5085 20.6403 16.5284 21.2296 16.1248C22.0423 15.4632 22.625 14.5569 22.8929 13.5377C23.6132 11.1689 21.21 9.09124 19.2455 10.9638Z" fill="#FFE4A1"/>
<path opacity="0.58" d="M19.658 20.2802C19.5492 20.241 19.433 20.2279 19.3183 20.2419C19.2037 20.2558 19.0938 20.2965 18.9973 20.3606C18.9009 20.4247 18.8204 20.5106 18.7624 20.6114C18.7043 20.7123 18.6702 20.8254 18.6627 20.9418C18.6234 21.3124 19.2717 22.4372 19.3175 22.2982C19.2782 22.3909 18.6627 22.7416 18.571 22.8673C18.3724 23.1207 18.2416 23.4215 18.1912 23.7407C18.1587 23.8842 18.155 24.0329 18.1805 24.1778C18.2059 24.3228 18.2599 24.4611 18.3394 24.5846C18.4188 24.708 18.5219 24.8141 18.6427 24.8965C18.7635 24.9788 18.8995 25.0358 19.0425 25.064C19.0572 25.0646 19.0717 25.0607 19.0841 25.0528C19.0965 25.0448 19.1062 25.0332 19.1119 25.0195C19.1176 25.0059 19.119 24.9907 19.116 24.9762C19.1129 24.9617 19.1056 24.9485 19.0949 24.9383C18.9593 24.8825 18.8361 24.8 18.7323 24.6958C18.6286 24.5915 18.5463 24.4675 18.4902 24.3309C18.4342 24.1943 18.4055 24.0478 18.4059 23.8999C18.4063 23.752 18.4357 23.6057 18.4924 23.4694C18.5722 23.2279 18.7095 23.0099 18.8922 22.8345C19.0749 22.6592 19.2974 22.5318 19.5402 22.4637C19.558 22.4541 19.5729 22.4398 19.5832 22.4223C19.5936 22.4048 19.5991 22.3848 19.5991 22.3644C19.5991 22.344 19.5936 22.324 19.5832 22.3065C19.5729 22.289 19.558 22.2747 19.5402 22.2652C18.7609 21.7821 18.4793 20.4456 19.658 20.2802Z" fill="#FFE4A1"/>
<path opacity="0.58" d="M29.3627 31.2968C29.1793 30.569 28.5245 29.5302 27.6404 29.9735C27.588 29.9735 27.6404 30.0794 27.6797 30.0661C28.5441 29.8941 28.9894 30.5293 29.2317 31.3167C29.3888 31.9056 29.4543 32.64 28.8257 32.951C28.8257 32.951 28.8257 32.9973 28.8257 33.0039C29.6049 33.2289 29.4478 31.6475 29.3627 31.2968Z" fill="#FFE4A1"/>
<path opacity="0.3" d="M42.4003 22.4239C41.8437 21.8417 40.8353 22.8408 40.2852 23.5157C40.4489 22.06 40.868 19.0362 38.9755 19.334C38.9297 19.334 38.9363 19.4067 38.9755 19.42C40.7632 20.0816 39.9185 22.5563 39.9316 24.0053C39.9302 24.0378 39.9396 24.0699 39.9584 24.0963C39.9771 24.1228 40.0041 24.1421 40.035 24.1513C40.066 24.1604 40.099 24.1588 40.1289 24.1468C40.1588 24.1347 40.1839 24.1129 40.2001 24.0847C40.422 23.7162 40.7005 23.3856 41.0252 23.1055C41.1365 23.0062 41.68 22.4438 41.8961 22.5166C42.3676 22.6621 41.8961 23.4098 41.7389 23.5686C41.2609 24.1443 40.1739 24.5744 40.0691 25.3948C40.07 25.4121 40.0756 25.4287 40.0853 25.4429C40.095 25.4571 40.1084 25.4682 40.1241 25.4751C40.1398 25.482 40.157 25.4843 40.1739 25.4818C40.1908 25.4793 40.2067 25.4721 40.2197 25.461C40.8091 24.6868 41.6866 24.184 42.2563 23.4098C42.4854 23.1187 42.7146 22.7482 42.4003 22.4239Z" fill="#FFE4A1"/>
<path opacity="0.3" d="M26.5862 41.4534C26.5771 41.4239 26.5569 41.399 26.53 41.3842C26.5031 41.3694 26.4716 41.3657 26.4421 41.374C25.7872 41.6188 25.9313 40.097 25.5515 39.7794C24.8967 39.2104 23.8097 40.1168 23.0762 40.0771C23.5608 40.2955 23.9799 40.0771 24.4579 39.9117C25.4009 39.6206 25.5777 40.1235 25.7021 40.891C25.7414 41.1358 25.7807 41.4799 26.0295 41.6056C26.1016 41.6453 26.226 41.6056 26.2849 41.6056C26.5207 41.7313 26.501 41.4336 26.4879 42.0952C26.4879 42.3401 26.4355 42.5518 26.4486 42.7569C26.4486 42.7709 26.4541 42.7844 26.464 42.7943C26.4738 42.8043 26.4871 42.8098 26.501 42.8098C26.5149 42.8098 26.5282 42.8043 26.5381 42.7943C26.5479 42.7844 26.5534 42.7709 26.5534 42.7569C26.7006 42.3369 26.7121 41.8805 26.5862 41.4534Z" fill="#FFE4A1"/>
<path opacity="0.3" d="M37.3843 9.54121C37.1289 8.13186 35.9306 7.73486 34.9811 8.80676C36.2907 7.72824 37.2271 8.80676 37.1616 10.0044C37.0592 10.742 36.7952 11.4473 36.3889 12.0688C35.835 12.9966 35.2317 13.8934 34.5816 14.7552C34.503 14.8676 34.6798 15.0066 34.765 14.9007C35.8323 13.5575 37.7183 11.427 37.3843 9.54121Z" fill="#FFE4A1"/>
<path opacity="0.3" d="M22.225 23.7141C21.8255 23.1649 22.0547 23.112 22.1726 22.4569C22.3756 21.2395 21.5767 20.0617 20.6796 19.3339C20.6272 19.2876 20.5421 19.3339 20.5813 19.4067C21.3737 20.8888 22.3625 21.6232 21.485 23.423C21.4653 23.4584 21.4597 23.5 21.4695 23.5394C21.4792 23.5788 21.5035 23.6129 21.5374 23.6347C23.5477 24.7794 21.1445 26.3211 19.6711 25.3749C19.6711 25.3749 19.6187 25.3749 19.6711 25.4146C20.4897 26.3542 22.8732 26.116 22.7226 24.5213C22.6572 24.164 22.4214 23.9854 22.225 23.7141Z" fill="#FFE4A1"/>
<path opacity="0.3" d="M36.0157 22.3445C35.5704 21.6829 34.9942 21.352 34.3132 21.6365C34.3695 21.353 34.317 21.0584 34.1662 20.8126C34.0153 20.5668 33.7776 20.3882 33.5012 20.3132C32.6302 20.1412 32.1129 21.1601 31.9361 21.8417C31.9361 21.8417 31.9754 21.8946 31.995 21.8417L32.3945 21.2329L32.7088 20.8425C33.8089 20.8028 34.2346 21.1403 33.9726 21.8483C33.9643 21.8777 33.965 21.9089 33.9745 21.9379C33.984 21.9669 34.002 21.9923 34.026 22.0109C34.05 22.0294 34.079 22.0403 34.1092 22.042C34.1394 22.0436 34.1694 22.0361 34.1953 22.0203L35.4329 22.0865C35.5911 22.2363 35.7278 22.4078 35.8389 22.596C36.0895 22.9818 36.2383 23.4259 36.2711 23.8862C36.2711 24.4552 36.127 25.0044 36.1139 25.5735C36.1139 25.6198 36.186 25.6396 36.2056 25.5735C36.4578 25.0659 36.573 24.5001 36.5397 23.9332C36.5063 23.3663 36.3256 22.8183 36.0157 22.3445Z" fill="#FFE4A1"/>
<path opacity="0.3" d="M38.5433 32.3489C38.5084 32.2068 38.4415 32.0746 38.3478 31.9628C38.2541 31.851 38.1362 31.7626 38.0031 31.7043C37.8701 31.6461 37.7256 31.6196 37.5808 31.627C37.436 31.6343 37.2948 31.6754 37.1682 31.7468C37.2806 31.5567 37.3666 31.3519 37.4236 31.1381C37.4297 31.1118 37.4257 31.0841 37.4123 31.0608C37.3989 31.0374 37.3772 31.0201 37.3516 31.0124C36.6967 30.8271 36.3628 31.1116 35.8651 31.5086C36.186 31.2837 36.461 31.0322 36.8146 31.33C37.1682 31.6277 37.0111 31.6079 36.7819 31.9321C36.7229 32.0115 36.8408 32.1174 36.9194 32.071C38.026 31.3631 38.6154 32.382 38.4451 33.4275C38.2867 34.0288 37.9906 34.5841 37.5808 35.0485C37.5808 35.0882 37.6135 35.1279 37.6462 35.1015C38.0578 34.7916 38.3648 34.3611 38.5254 33.8685C38.6859 33.3759 38.6922 32.8453 38.5433 32.3489Z" fill="#FFE4A1"/>
<path opacity="0.3" d="M22.022 29.4508C21.7578 29.5389 21.5178 29.6885 21.3213 29.8875C21.21 30.0066 21.0528 30.4764 20.9415 30.5492C20.767 30.5087 20.5897 30.4821 20.4111 30.4698C19.7563 30.5492 19.3503 30.9594 18.6037 30.6617C18.5252 30.6617 18.4597 30.7543 18.5252 30.8073C19.2258 31.3895 20.398 30.3838 20.9022 30.9197C20.9202 30.9365 20.9422 30.9483 20.966 30.9541C20.9898 30.9599 21.0147 30.9595 21.0383 30.9528C21.0619 30.9462 21.0834 30.9336 21.1009 30.9163C21.1183 30.8989 21.1311 30.8773 21.138 30.8536C22.0416 28.4319 24.53 30.3044 25.5974 31.4557H25.6432C25.139 30.2051 23.3644 29.034 22.022 29.4508Z" fill="#FFE4A1"/>
<path opacity="0.3" d="M12.6972 33.2554C11.2238 34.1288 9.86829 34.7309 8.14608 34.1222C6.52455 33.4646 5.14964 32.3069 4.21709 30.8139C2.73063 28.584 2.17402 25.2889 4.21709 23.2444C1.51919 25.0375 2.90744 29.4045 4.42664 31.4821C5.49402 32.8518 6.93465 34.1751 8.66996 34.5721C10.0516 34.8765 11.8917 34.5258 12.7627 33.315C12.7888 33.2753 12.7365 33.2356 12.6972 33.2554Z" fill="#FFE4A1"/>
</g>
<defs>
<clipPath id="clip0_1_11082">
<rect width="45" height="45" fill="white"/>
</clipPath>
</defs>
</svg>
