<svg width="599" height="611" viewBox="0 0 599 611" fill="none" xmlns="http://www.w3.org/2000/svg">
<path d="M598.65 290.543C607.367 440.036 429.027 611.001 283.635 611.001C138.243 611.001 -7.23551 459.711 0.260706 297.101C8.01842 129.101 158.378 0.00115967 303.77 0.00115967C449.162 0.00115967 587.929 104.664 598.65 290.543Z" fill="#F17241"/>
<path d="M504.687 217.322C527.786 215.256 530.837 187.226 520.551 168.899C573.461 173.481 517.936 26.1434 447.855 100.8C428.679 121.194 432.776 166.832 406.277 177.613C370.54 192.077 358.337 139.97 382.133 144.642C372.109 125.326 410.985 97.0269 402.355 69.1766C407.411 69.1766 412.466 67.9188 417.435 67.829C427.633 39.4396 391.285 27.2215 370.365 35.3969C372.457 14.9134 360.777 3.05457 340.38 8.44495C341.649 6.67962 342.785 4.81757 343.78 2.87488C330.515 1.0771 317.15 0.176784 303.771 0.179695C252.594 0.77388 202.452 15.1107 158.292 41.7755C172.326 45.6386 185.401 50.1306 190.544 60.552C210.417 100.171 150.012 93.7028 129.005 100.8C67.0303 121.643 40.6192 250.024 125.431 226.576C126.079 232.546 126.079 238.573 125.431 244.544C127.261 244.544 134.932 244.544 135.978 245.712C140.336 279.761 104.337 276.706 82.8943 288.386C51.8634 305.096 42.3624 321.447 39.3116 358.55C32.7742 431.41 135.716 514.602 186.359 438.238C193.333 464.471 217.739 467.526 234.213 450.277C251.646 477.768 283.287 471.12 303.946 479.115C340.032 492.861 349.881 509.751 393.813 500.407C452.475 487.92 495.709 418.653 448.466 365.648C403.837 315.697 348.749 354.867 300.285 371.757C275.53 380.292 234.213 395.385 207.802 385.143C195.163 380.202 162.999 354.957 179.386 338.247C185.488 331.958 213.119 352.621 227.676 341.84C253.826 322.345 231.86 282.276 208.151 273.023C232.731 271.765 223.754 238.794 213.817 221.904C215.822 223.162 219.744 225.138 219.569 225.049C227.676 216.065 254.436 93.7927 292.44 165.485C301.156 182.285 263.239 253.168 307.781 234.572C302.115 264.668 335.325 314.709 355.111 270.507C369.145 309.857 414.994 299.526 410.374 257.66C426.5 270.597 448.64 273.023 459.71 253.528C456.136 283.354 480.717 274.46 488.3 288.296C494.542 301.888 496.813 317.058 494.838 331.958C493.356 365.109 475.836 403.83 520.987 414.52C598.564 433.207 569.974 240.95 504.687 217.322Z" fill="#FF4F24"/>
<path d="M9.50098 380.561C12.3947 391.26 15.8575 401.788 19.8737 412.095C16.4742 401.134 13.0748 390.084 9.50098 380.561Z" fill="#FF4F24"/>
<path d="M363.043 527.988C327.654 523.137 322.773 544.429 285.989 522.148C269.602 512.266 271.956 502.653 249.99 499.06C234.736 496.544 222.62 508.044 215.124 507.145C197.168 504.54 193.594 489.177 175.725 485.674C157.856 482.17 154.457 492.232 139.987 494.029C115.407 496.993 85.5961 498.97 62.4102 488.189C86.4668 520.515 115.997 548.09 149.575 569.584C153.93 562.743 160.37 557.59 167.88 554.94C186.272 550.179 278.232 568.506 292.963 577.939C296.449 580.185 303.074 596.805 309.175 609.293C340.339 604.738 370.557 594.903 398.607 580.185C399.921 574.323 400.023 568.241 398.906 562.336C397.788 556.43 395.477 550.833 392.122 545.91C388.768 540.986 384.444 536.845 379.434 533.757C374.424 530.67 368.84 528.704 363.043 527.988Z" fill="#FF4F24"/>
<g style="mix-blend-mode:soft-light" opacity="0.59">
<path d="M424.495 108.976C433.909 99.183 440.184 74.9263 421.531 73.0397C401.309 70.5242 407.236 95.4996 403.052 106.999C399.565 116.792 374.026 132.603 394.946 146.618C413.599 159.106 430.596 121.463 427.72 106.101L424.495 108.976Z" fill="#7D0204"/>
</g>
<g style="mix-blend-mode:soft-light" opacity="0.59">
<path d="M285.118 318.033C302.551 291.71 288.692 273.113 274.222 252.539C268.992 245.173 256.789 253.078 251.733 241.759C247.462 232.056 262.542 218.311 257.835 209.506C244.847 185.07 230.814 193.245 230.814 223.252C230.814 238.165 248.247 263.141 257.399 273.832C244.412 284.343 242.494 290.811 256.179 302.311C197.342 368.612 346.569 368.882 285.118 314.349V318.033Z" fill="#7D0204"/>
</g>
<g style="mix-blend-mode:soft-light" opacity="0.59">
<path d="M409.851 430.602C409.241 384.694 335.848 366.097 338.986 422.247C326.085 406.255 280.759 378.046 276.663 417.934C255.133 417.934 210.33 418.743 190.63 413.802C148.094 403.111 163.609 368.253 138.854 339.774C116.017 313.541 60.4054 306.443 58.4006 358.281C57.2674 390.623 104.598 422.965 132.404 412.185C131.881 446.414 208.412 422.876 234.387 426.739C257.137 430.153 294.793 464.381 312.4 448.48C321.117 463.483 335.063 467.885 347.267 456.206C352.932 478.127 388.583 487.92 406.801 475.971C428.592 461.596 423.972 421.708 409.851 430.602Z" fill="#7D0204"/>
</g>
<g style="mix-blend-mode:soft-light" opacity="0.59">
<path d="M320.158 56.6888C333.756 22.5497 245.98 1.88661 249.38 68.2782C225.148 57.4076 193.594 79.5081 205.797 108.616C163.173 89.66 68.3375 148.685 122.206 196.39C176.074 244.095 234.649 140.599 247.462 97.2964C256.019 99.7797 264.768 101.493 273.612 102.417C281.631 119.127 295.664 117.78 304.817 131.076C313.969 144.372 296.1 168.989 324.081 169.617C365.746 170.606 358.249 79.7777 320.158 56.6888Z" fill="#7D0204"/>
</g>
<g style="mix-blend-mode:soft-light" opacity="0.59">
<path d="M464.504 193.425C481.414 179.68 515.147 147.786 497.452 122.991C478.363 96.0387 446.984 120.295 452.213 148.505C425.279 152.278 419.875 180.308 421.008 203.936C413.901 201 406.197 199.931 398.59 200.825C390.982 201.719 383.709 204.548 377.425 209.057C354.675 186.417 291.394 182.554 318.066 231.787C338.027 268.711 402.617 256.043 420.311 226.756C431.73 248.227 466.334 253.707 463.894 222.803C472.61 273.203 523.515 202.05 460.146 197.468L464.504 193.425Z" fill="#7D0204"/>
</g>
<g style="mix-blend-mode:soft-light" opacity="0.59">
<path d="M421.793 526.91C446.374 540.296 476.097 521.07 493.792 500.767C507.215 485.494 534.236 419.013 492.397 436.711C499.108 430.063 495.361 429.075 499.196 422.966C460.059 411.646 454.48 461.237 468.165 485.853C451.865 483.428 435.478 488.099 433.822 505.349C427.284 503.731 417.435 505.349 410.723 503.372C407.323 515.321 413.774 514.063 421.793 518.824V526.91Z" fill="#7D0204"/>
</g>
<g style="mix-blend-mode:soft-light" opacity="0.59">
<path d="M31.5539 269.789C32.4256 273.562 31.5537 277.335 32.1639 281.198C63.8049 288.655 76.6182 238.704 43.5825 232.685C57.2675 219.748 69.7321 188.933 43.5825 184.531C50.2403 178.901 55.5059 171.721 58.9458 163.584C62.3857 155.447 63.9019 146.584 63.3692 137.724C86.6424 136.107 119.068 112.21 112.879 85.4376C84.376 83.0119 49.5099 148.325 39.05 171.324C30.6822 189.562 -13.4234 288.745 31.5539 269.789Z" fill="#7D0204"/>
</g>
<g style="mix-blend-mode:soft-light" opacity="0.59">
<path d="M468.426 362.234C487.776 389.186 502.507 290.362 460.319 296.471C457.966 272.574 429.812 272.035 425.453 296.471C391.459 283.624 373.154 324.771 406.451 338.247C420.659 343.906 432.601 329.981 446.46 337.168C458.489 343.457 452.998 362.324 464.939 370.409L468.426 362.234Z" fill="#7D0204"/>
</g>
<g style="mix-blend-mode:soft-light" opacity="0.59">
<path d="M577.644 237.626C581.828 224.42 583.048 182.105 558.119 184.89C521.771 189.023 554.894 231.607 557.247 241.399C561.083 257.75 553.673 290.362 574.68 297.1C605.885 307.162 574.68 256.942 565.964 249.665L577.644 237.626Z" fill="#7D0204"/>
</g>
<g style="mix-blend-mode:soft-light" opacity="0.59">
<path d="M281.195 539.128C277.36 512.176 242.494 496.814 233.69 530.144C209.633 527.539 173.982 501.935 153.237 517.297C138.07 480.014 89.9546 518.016 115.668 544.249C125.344 554.311 176.684 548.022 191.502 550.448C219.133 555.12 235.085 551.436 262.019 551.167C288.953 550.897 307.694 577.041 327.393 566.979C327.916 573.717 332.187 579.376 332.448 586.025C359.383 593.661 370.714 566.709 355.46 546.226C340.206 525.742 310.657 539.577 281.195 539.128Z" fill="#7D0204"/>
</g>
<g style="mix-blend-mode:soft-light" opacity="0.59">
<path d="M530.836 326.028C547.311 299.076 530.836 244.454 495.97 268.261C494.75 263.68 492.832 259.277 491.438 254.336C439.138 246.61 495.186 289.553 500.154 297.729C509.864 314.173 513.888 333.52 511.573 352.621C510.091 367.355 502.246 390.893 515.844 399.607C556.724 425.84 538.681 344.895 527.524 330.071L530.836 326.028Z" fill="#7D0204"/>
</g>
<path opacity="0.6" d="M175.9 157.219C228.983 116.253 108.346 84.8087 136.414 145.181C114.535 152.817 85.0732 174.469 125.169 185.609C153.934 193.605 162.215 163.059 179.735 149.673L175.9 157.219Z" fill="#750400"/>
<path opacity="0.66" d="M125.431 374.182C134.932 311.834 60.4058 323.423 85.1607 354.418C18.3049 351.543 150.447 465.639 125.431 370.23V374.182Z" fill="#750400"/>
<path opacity="0.6" d="M386.927 450.726C397.91 437.969 394.162 404.369 371.324 405.806C339.858 408.052 360.428 448.21 383.004 450.726H386.927Z" fill="#750400"/>
<path opacity="0.6" d="M359.208 213.459C301.592 156.68 347.79 298.717 366.966 233.583L359.208 213.459Z" fill="#750400"/>
<path opacity="0.6" d="M312.4 84.8985C303.684 68.1884 272.653 13.9252 269.428 66.9306C268.207 87.6836 302.028 132.154 316.236 97.0269L312.4 84.8985Z" fill="#750400"/>
<path opacity="0.6" d="M347.441 567.248C347.441 526.101 322.599 551.257 308.478 547.573C289.04 542.452 275.529 526.82 254.174 527.719C267.859 550.807 289.04 542.902 308.478 556.198C323.383 566.529 327.306 589.528 346.744 591.056C350.831 582.449 352.434 572.814 351.363 563.295L347.441 567.248Z" fill="#750400"/>
<path opacity="0.6" d="M562.042 301.502C552.232 311.006 543.085 321.213 534.672 332.048C539.553 298.448 542.343 245.712 507.302 267.812C478.537 285.78 505.036 354.328 527.002 366.636C529.76 364.07 531.892 360.87 533.225 357.295C534.558 353.72 535.054 349.872 534.672 346.063C545.393 331.688 576.86 311.295 562.042 301.502Z" fill="#750400"/>
<path opacity="0.21" d="M576.424 231.607C563.785 202.319 525.084 141.767 515.408 113.198C510.876 100.171 508.348 88.8515 504.948 78.0707C449.795 27.3772 378.365 -0.439186 304.468 -4.72507e-06C288.474 0.0502728 272.517 1.58373 256.789 4.58182C280.672 33.1509 327.828 59.2044 343.169 72.6803C374.462 100.081 392.331 136.736 374.723 177.433C367.489 194.233 355.024 199.444 351.973 218.4C349.271 235.56 362.171 254.336 359.992 274.011C354.937 318.931 301.156 395.654 251.385 394.756C225.235 394.307 219.831 370.589 202.921 359.988C192.461 353.519 173.023 351.543 164.829 345.434C143.823 329.712 147.92 310.396 117.935 305.904C83.0685 300.694 89.6057 321.357 67.2914 336.45C41.1418 354.418 18.8275 350.734 2.00464 336.45C11.157 427.547 66.0713 511.368 138.331 561.948C191.502 579.915 234.213 598.872 283.113 593.391C440.185 575.513 648.422 398.529 576.424 231.607Z" fill="#000072"/>
<path opacity="0.27" d="M459.536 43.752C414.558 65.044 444.194 125.506 458.402 155.962C476.969 195.761 491.787 245.801 479.496 289.643C469.647 324.95 438.703 326.567 421.531 353.07C410.025 371.038 417.609 386.131 413.948 405.626C406.452 445.964 374.985 488.998 331.141 484.056C319.461 482.709 301.766 471.479 290.086 469.502C284.333 468.514 273.961 476.33 263.065 473.994C248.683 470.94 237.874 452.523 226.02 446.324C185.052 425.032 129.528 429.883 118.283 484.685C99.3683 576.232 193.943 554.581 241.535 566.889C277.534 575.873 280.324 605.699 327.306 586.564C349.882 577.58 384.835 555.21 383.266 527.269C412.466 552.155 468.252 530.414 490.915 507.235C529.18 468.155 533.888 420.719 527.612 369.78C590.109 369.78 564.221 303.479 548.095 268.441C596.908 263.051 552.279 161.532 538.856 140.06L563.524 156.681C539.651 109.858 503.656 70.7685 459.536 43.752Z" fill="#000072"/>
<g style="mix-blend-mode:color-dodge" opacity="0.37">
<path d="M300.633 40.6076C268.382 0.269524 171.803 22.1006 171.367 80.2269C126.041 78.7894 106.777 95.859 84.2016 135.119C72.9572 154.524 75.4852 158.298 59.2724 177.433C41.8393 198.097 23.6218 217.412 15.6897 245.622C4.18392 288.745 18.3918 342.559 68.4247 345.973C88.9085 347.41 93.7026 326.208 114.448 341.211C124.21 348.309 125.344 374.632 140.598 385.323C201.09 427.817 271.868 399.787 277.883 326.478C312.749 346.242 343.867 333.844 359.296 293.956C365.81 275.235 367.784 255.157 365.048 235.47C361.649 221.455 343.344 210.494 343.344 197.378C342.821 179.41 451.952 109.425 389.803 104.843C397.735 100.98 408.369 77.891 395.643 64.7744C435.739 25.6941 329.311 36.5648 300.633 40.6076Z" fill="#FBB901"/>
</g>
<g style="mix-blend-mode:overlay" opacity="0.4">
<path d="M249.99 149.583C279.016 111.761 214.514 61.091 198.388 96.7574C183.308 88.9413 165.614 91.8162 159.512 108.976C67.2915 50.6696 9.32655 331.329 140.946 245.442C163.26 273.113 129.789 307.521 178.602 318.662C236.828 332.048 260.014 259.547 258.358 214.178C323.209 244.634 327.218 92.1756 249.99 149.583Z" fill="#FFE4A1"/>
</g>
<path opacity="0.58" d="M168.055 110.593C167.009 110.593 166.573 112.479 168.055 112.659C172.302 113.671 176.187 115.892 179.269 119.068C182.351 122.245 184.506 126.25 185.488 130.627C186.359 134.499 186.359 138.524 185.488 142.396C185.488 144.103 178.079 156.86 176.771 152.907C176.651 152.432 176.41 151.998 176.075 151.649C175.739 151.3 175.32 151.049 174.859 150.922C174.399 150.794 173.914 150.794 173.454 150.922C172.994 151.05 172.574 151.301 172.239 151.649C167.068 157.047 163.007 163.464 160.297 170.516C151.58 186.238 139.029 189.652 122.729 184.8C122.206 184.8 121.77 185.429 122.206 185.789C126.396 189.102 131.462 191.031 136.737 191.319C142.011 191.608 147.247 190.244 151.755 187.406C163.26 180.847 165.178 167.282 173.284 158.208C173.603 158.741 174.082 159.153 174.649 159.38C175.215 159.607 175.838 159.637 176.423 159.466C201.003 151.29 194.03 109.065 168.055 110.593Z" fill="#FFE4A1"/>
<path opacity="0.58" d="M130.661 381.639C128.918 373.502 128.918 365.071 130.661 356.933C133.799 336.09 104.075 315.697 87.0781 326.388C86.8716 326.476 86.6952 326.626 86.5711 326.818C86.447 327.01 86.3806 327.235 86.3806 327.466C86.3806 327.696 86.447 327.922 86.5711 328.114C86.6952 328.305 86.8716 328.455 87.0781 328.544C94.0419 329.129 100.968 330.118 107.823 331.509C113.288 333.178 118.241 336.272 122.206 340.493C129.353 349.027 126.041 355.226 124.385 364.39C121.596 380.112 142.428 400.326 118.545 410.208C126.651 410.208 130.486 403.65 131.881 396.013C132.564 391.189 132.146 386.268 130.661 381.639Z" fill="#FFE4A1"/>
<path opacity="0.58" d="M363.828 224.42C361.873 218.238 358.369 212.698 353.67 208.36C348.971 204.021 343.244 201.039 337.068 199.714C337.068 199.714 336.545 200.343 337.068 200.522C346.728 204.297 354.577 211.807 358.946 221.455C361.45 226.005 362.459 231.268 361.823 236.458C360.341 243.376 354.588 244.184 349.707 247.598C349.579 247.666 349.472 247.769 349.397 247.896C349.322 248.023 349.282 248.169 349.282 248.317C349.282 248.465 349.322 248.611 349.397 248.738C349.472 248.865 349.579 248.968 349.707 249.036C363.653 250.922 367.489 234.572 363.828 224.42Z" fill="#FFE4A1"/>
<path opacity="0.58" d="M138.157 244.993C122.729 244.274 125.954 233.224 122.641 222.623C122.592 222.45 122.509 222.29 122.399 222.151C122.288 222.012 122.151 221.898 121.997 221.814C121.843 221.73 121.674 221.679 121.5 221.664C121.326 221.648 121.151 221.669 120.985 221.724C97.7121 226.935 74.7006 218.221 79.4075 188.574C80.9667 177.965 83.2682 167.486 86.2936 157.219C94.2257 131.615 107.213 108.796 134.322 103.316C95.2715 90.6482 75.3979 172.762 75.3979 198.905C75.3979 222.623 94.7484 224.33 113.053 225.857C126.477 226.845 117.411 234.841 123.164 243.016C126.825 248.317 132.84 247.239 138.331 246.34C139.116 246.251 138.854 244.993 138.157 244.993Z" fill="#FFE4A1"/>
<path opacity="0.58" d="M256.179 148.864L256.702 149.493C270.038 140.509 287.21 137.095 297.059 153.177C299.849 157.864 301.518 163.168 301.927 168.651C302.336 174.134 301.474 179.638 299.413 184.71C296.193 194.285 291.122 203.087 284.507 210.584C281.851 214.084 278.19 216.631 274.048 217.861C268.033 218.939 265.331 214.178 260.798 211.393C260.65 211.297 260.478 211.249 260.303 211.255C260.128 211.262 259.96 211.322 259.819 211.429C259.678 211.535 259.571 211.683 259.513 211.853C259.454 212.023 259.447 212.207 259.491 212.381C261.409 224.15 274.745 224.42 282.59 218.939C293.408 209.956 301.164 197.651 304.73 183.812C314.318 151.649 282.328 123.44 256.179 148.864Z" fill="#FFE4A1"/>
<path opacity="0.58" d="M261.67 275.359C260.222 274.827 258.674 274.649 257.148 274.839C255.622 275.028 254.16 275.58 252.876 276.451C251.591 277.322 250.521 278.488 249.748 279.857C248.975 281.226 248.521 282.762 248.421 284.343C247.898 289.374 256.527 304.647 257.138 302.76C256.615 304.018 248.421 308.779 247.201 310.486C244.557 313.927 242.816 318.011 242.145 322.345C241.712 324.294 241.663 326.312 242.002 328.281C242.341 330.249 243.06 332.127 244.117 333.803C245.174 335.48 246.548 336.92 248.155 338.038C249.763 339.156 251.573 339.93 253.477 340.313C253.672 340.321 253.865 340.268 254.03 340.16C254.195 340.052 254.325 339.895 254.401 339.709C254.476 339.523 254.495 339.318 254.455 339.121C254.414 338.924 254.316 338.744 254.174 338.606C252.37 337.848 250.73 336.729 249.348 335.313C247.967 333.898 246.871 332.214 246.126 330.359C245.38 328.504 244.998 326.515 245.003 324.507C245.008 322.499 245.4 320.512 246.155 318.662C247.217 315.382 249.044 312.422 251.476 310.041C253.908 307.66 256.87 305.931 260.101 305.006C260.338 304.876 260.536 304.681 260.675 304.444C260.813 304.207 260.886 303.935 260.886 303.658C260.886 303.381 260.813 303.11 260.675 302.873C260.536 302.635 260.338 302.441 260.101 302.311C249.729 295.752 245.981 277.605 261.67 275.359Z" fill="#FFE4A1"/>
<path opacity="0.58" d="M390.85 424.942C388.409 415.059 379.692 400.955 367.925 406.974C367.228 406.974 367.925 408.411 368.448 408.232C379.954 405.896 385.881 414.52 389.106 425.211C391.198 433.207 392.07 443.179 383.702 447.402C383.702 447.402 383.702 448.031 383.702 448.121C394.075 451.175 391.983 429.703 390.85 424.942Z" fill="#FFE4A1"/>
<path opacity="0.3" d="M564.395 304.467C556.986 296.561 543.563 310.127 536.241 319.29C538.42 299.526 543.999 258.469 518.808 262.512C518.198 262.512 518.285 263.5 518.808 263.68C542.604 272.664 531.36 306.264 531.534 325.939C531.516 326.38 531.641 326.815 531.891 327.174C532.14 327.533 532.5 327.796 532.911 327.92C533.323 328.044 533.763 328.023 534.161 327.859C534.559 327.695 534.892 327.399 535.108 327.017C538.062 322.012 541.769 317.524 546.091 313.72C547.572 312.373 554.807 304.736 557.684 305.725C563.96 307.701 557.683 317.853 555.591 320.009C549.228 327.825 534.759 333.665 533.364 344.805C533.376 345.039 533.45 345.265 533.58 345.457C533.709 345.65 533.888 345.801 534.096 345.895C534.305 345.988 534.534 346.02 534.759 345.986C534.984 345.952 535.196 345.854 535.37 345.703C543.214 335.192 554.894 328.364 562.478 317.853C565.529 313.9 568.579 308.869 564.395 304.467Z" fill="#FFE4A1"/>
<path opacity="0.3" d="M353.891 562.846C353.77 562.445 353.502 562.108 353.144 561.906C352.786 561.705 352.366 561.655 351.973 561.768C343.257 565.092 345.174 544.429 340.119 540.116C331.402 532.39 316.933 544.698 307.17 544.159C313.621 547.124 319.199 544.159 325.562 541.913C338.114 537.96 340.467 544.788 342.124 555.21C342.647 558.534 343.17 563.205 346.482 564.912C347.441 565.451 349.097 564.912 349.881 564.912C353.019 566.619 352.758 562.576 352.583 571.56C352.583 574.884 351.886 577.759 352.06 580.544C352.06 580.735 352.134 580.918 352.265 581.052C352.396 581.187 352.573 581.263 352.758 581.263C352.943 581.263 353.12 581.187 353.251 581.052C353.382 580.918 353.455 580.735 353.455 580.544C355.415 574.841 355.568 568.644 353.891 562.846Z" fill="#FFE4A1"/>
<path opacity="0.3" d="M497.627 129.549C494.227 110.413 478.276 105.023 465.637 119.577C483.07 104.933 495.534 119.577 494.663 135.838C493.299 145.853 489.785 155.429 484.377 163.868C477.004 176.466 468.973 188.642 460.32 200.343C459.274 201.87 461.627 203.756 462.761 202.319C476.968 184.082 502.072 155.153 497.627 129.549Z" fill="#FFE4A1"/>
<path opacity="0.3" d="M295.839 321.986C290.522 314.529 293.573 313.81 295.142 304.916C297.844 288.386 287.21 272.394 275.268 262.512C274.571 261.883 273.438 262.512 273.961 263.5C284.508 283.624 297.67 293.596 285.99 318.033C285.727 318.513 285.653 319.078 285.783 319.613C285.913 320.148 286.236 320.611 286.687 320.907C313.447 336.45 281.457 357.382 261.845 344.535C261.845 344.535 261.147 344.535 261.845 345.074C272.74 357.832 304.468 354.597 302.464 332.946C301.592 328.095 298.454 325.669 295.839 321.986Z" fill="#FFE4A1"/>
<path opacity="0.3" d="M479.409 303.389C473.482 294.405 465.811 289.913 456.746 293.776C457.497 289.926 456.797 285.926 454.79 282.589C452.782 279.251 449.617 276.827 445.938 275.808C434.345 273.472 427.459 287.307 425.105 296.561C425.105 296.561 425.628 297.28 425.889 296.561L431.207 288.296L435.391 282.995C450.034 282.456 455.7 287.038 452.213 296.651C452.103 297.05 452.112 297.474 452.239 297.868C452.365 298.261 452.604 298.607 452.924 298.859C453.243 299.111 453.629 299.258 454.031 299.281C454.433 299.303 454.833 299.201 455.177 298.987L471.651 299.885C473.757 301.92 475.576 304.248 477.056 306.803C480.391 312.041 482.372 318.072 482.809 324.321C482.809 332.048 480.891 339.504 480.717 347.231C480.717 347.859 481.676 348.129 481.937 347.231C485.294 340.339 486.828 332.657 486.384 324.96C485.94 317.263 483.534 309.822 479.409 303.389Z" fill="#FFE4A1"/>
<path opacity="0.3" d="M513.055 439.226C512.589 437.296 511.699 435.502 510.452 433.984C509.205 432.466 507.635 431.265 505.864 430.474C504.093 429.683 502.169 429.324 500.242 429.424C498.314 429.524 496.435 430.081 494.75 431.051C496.247 428.47 497.391 425.689 498.15 422.786C498.231 422.429 498.177 422.053 497.999 421.736C497.821 421.419 497.532 421.184 497.191 421.079C488.474 418.563 484.029 422.426 477.404 427.817C481.675 424.762 485.336 421.348 490.043 425.391C494.75 429.434 492.658 429.164 489.608 433.566C488.823 434.645 490.392 436.082 491.438 435.453C506.169 425.84 514.014 439.676 511.747 453.87C509.639 462.035 505.698 469.575 500.242 475.881C500.242 476.42 500.677 476.959 501.113 476.6C506.592 472.393 510.678 466.547 512.815 459.858C514.952 453.17 515.036 445.965 513.055 439.226Z" fill="#FFE4A1"/>
<path opacity="0.3" d="M293.137 399.877C289.62 401.072 286.425 403.103 283.81 405.806C282.329 407.423 280.237 413.802 278.755 414.79C276.432 414.24 274.072 413.879 271.694 413.712C262.978 414.79 257.573 420.36 247.637 416.317C246.591 416.317 245.719 417.575 246.591 418.294C255.917 426.2 271.52 412.544 278.232 419.821C278.472 420.048 278.764 420.209 279.081 420.288C279.398 420.366 279.729 420.36 280.043 420.27C280.357 420.181 280.644 420.01 280.876 419.774C281.108 419.538 281.278 419.245 281.37 418.923C293.399 386.041 326.521 411.466 340.729 427.098H341.34C334.628 410.118 311.006 394.217 293.137 399.877Z" fill="#FFE4A1"/>
<path opacity="0.3" d="M169.013 451.534C149.401 463.393 131.358 471.569 108.433 463.303C86.849 454.375 68.5475 438.655 56.1342 418.384C36.3477 388.108 28.9387 343.367 56.1342 315.607C20.2221 339.953 38.7012 399.248 58.9236 427.457C73.1315 446.054 92.308 464.022 115.407 469.413C133.799 473.545 158.292 468.784 169.885 452.343C170.234 451.804 169.536 451.265 169.013 451.534Z" fill="#FFE4A1"/>
</svg>
