<svg width="599" height="611" viewBox="0 0 599 611" fill="none" xmlns="http://www.w3.org/2000/svg">
<g clip-path="url(#clip0_113_507)">
<path d="M586.779 390.846C633.031 228.879 541.805 59.3335 383.019 12.1552C224.233 -35.0231 58.0174 58.0312 11.7657 219.998C-34.486 381.965 56.7408 551.51 215.526 598.688C374.312 645.867 540.528 552.812 586.779 390.846Z" fill="#3264AE"/>
<g style="mix-blend-mode:multiply">
<path d="M215.153 153.407C248.732 158.481 281.956 166.546 316.067 167.452C350.179 168.358 379.672 158.391 411.563 146.52C427.278 139.829 443.85 135.466 460.776 133.563C481.119 132.113 498.53 139.996 516.741 148.242C530.92 155.129 546.43 158.689 562.134 158.662L560.802 156.306C553.622 156.55 546.444 155.757 539.482 153.951C515.586 147.517 495.066 131.569 470.104 130.573C442.743 129.485 416.804 141.718 391.931 151.142C360.101 163.107 325.936 167.176 292.26 163.012C262.857 159.84 233.986 151.957 204.582 149.239C164.963 145.614 124.633 164.19 88.3887 176.422C66.5901 184.515 43.9762 190.107 20.9646 193.095L19.4546 196.81C83.1478 192.37 154.836 144.436 215.153 153.407Z" fill="#3264AE"/>
</g>
<g style="mix-blend-mode:multiply">
<path d="M80.6602 514.045C106.608 513.195 132.464 510.47 158.034 505.89C175.267 502.99 192.59 498.278 210.001 496.828C236.118 494.11 259.303 504.168 283.021 513.501C334.278 533.798 384.291 528.633 437.058 517.397C469.215 510.511 501.639 503.987 533.796 496.103L536.906 492.026C514.165 497.734 491.157 502.899 468.06 507.792C412.096 519.481 354.532 534.976 298.301 516.129C277.78 509.061 258.237 498.641 236.74 494.925C219.502 492.893 202.047 494.06 185.217 498.369C150.112 505.875 114.456 510.391 78.6172 511.87L80.6602 514.045Z" fill="#3264AE"/>
</g>
<g style="mix-blend-mode:screen" opacity="0.47">
<path d="M439.812 414.552C434.482 415.639 436.614 423.613 441.411 423.613C469.393 423.613 497.464 420.17 525.18 424.338C511.233 434.306 489.114 432.856 473.213 437.839C447.807 445.904 427.286 459.768 399.57 455.962C384.341 452.566 368.647 451.922 353.2 454.059C325.839 459.133 311.715 463.845 286.042 451.25C252.73 434.849 216.397 442.189 180.953 445.451C174.912 445.995 113.706 445.451 114.683 454.512V456.596C114.738 457.804 115.103 458.976 115.743 459.994C116.382 461.012 117.273 461.84 118.326 462.395C152.082 477.075 190.724 468.829 226.257 468.466C261.791 468.104 295.547 489.036 329.659 480.427C339.43 477.981 348.491 473.269 358.352 471.366C374.253 467.832 387.844 472.182 403.39 473.631C419.816 474.797 436.264 471.679 451.182 464.57C471.796 456.113 493.073 449.444 514.787 444.635C520.696 443.457 526.303 441.046 531.256 437.553C536.209 434.06 540.4 429.561 543.568 424.338C543.962 423.46 544.159 422.504 544.146 421.539C544.133 420.574 543.911 419.624 543.494 418.757C543.078 417.89 542.478 417.128 541.738 416.527C540.998 415.925 540.137 415.498 539.216 415.277C506.469 408.188 472.654 407.941 439.812 414.552Z" fill="#60BFEE"/>
</g>
<g style="mix-blend-mode:screen" opacity="0.47">
<path d="M413.339 185.937C382.425 194.092 352.223 186.662 321.22 191.374C294.037 195.451 274.05 223.632 246.245 220.823C225.458 218.739 204.938 211.761 184.062 210.221C160.822 207.787 137.379 208.213 114.239 211.49C85.0131 216.201 25.4064 230.337 21.9419 268.032C21.4089 272.925 25.3176 278.271 30.8252 276.187C45.838 270.297 58.2745 259.786 73.2873 253.896C92.1948 247.534 111.602 242.835 131.295 239.851C151.283 235.774 171.27 231.877 191.701 229.703C212.133 227.528 233.098 236.227 253.884 233.508C271.651 231.243 280.534 220.732 293.948 211.399C320.598 193.277 350.623 199.71 380.56 199.076C431.905 197.807 480.764 158.572 528.556 194.726C529.227 195.339 530.11 195.655 531.009 195.604C531.909 195.553 532.752 195.139 533.353 194.455C533.953 193.77 534.263 192.869 534.213 191.952C534.163 191.034 533.758 190.174 533.086 189.561C499.241 155.219 452.337 175.698 413.339 185.937Z" fill="#60BFEE"/>
</g>
<g style="mix-blend-mode:screen" opacity="0.47">
<path d="M447.984 295.034C425.953 299.565 410.585 314.697 386.956 316.872C363.326 319.046 339.608 314.878 315.89 315.15C267.742 315.15 222.882 328.198 176.422 339.253C124.945 350.245 72.8474 357.962 20.4315 362.359C10.4822 363.447 7.90609 379.394 18.8325 381.207C70.4444 390.268 123.567 378.398 172.691 362.269C228.389 344.146 278.491 326.024 338.187 327.02C361.194 327.02 385.179 330.464 407.476 322.943C433.238 313.882 450.56 298.749 480.053 303.733C515.586 309.713 550.497 323.215 579.723 293.856C582.211 291.41 578.479 286.788 575.637 289.054C532.642 324.483 493.644 285.429 447.984 295.034Z" fill="#60BFEE"/>
</g>
<g style="mix-blend-mode:screen" opacity="0.47">
<path d="M324.595 80.7358C307.451 83.4542 298.479 96.9554 284.798 106.379C249.976 130.301 214.265 112.088 176.867 108.916C149.693 106.84 122.404 110.86 96.917 120.696C96.917 120.696 96.917 121.33 96.917 121.24C137.425 107.195 173.402 109.732 214.887 117.253C237.273 121.33 259.303 123.958 279.379 111.544C288.973 105.654 295.903 96.4117 305.141 90.1594C321.575 79.1047 339.164 80.3733 357.286 86.1725C381.271 93.8745 398.238 100.58 419.469 83.6353C419.469 83.6353 419.469 82.8198 419.469 83.0917C387.667 111.272 357.908 75.3896 324.595 80.7358Z" fill="#60BFEE"/>
</g>
<g style="mix-blend-mode:screen" opacity="0.47">
<path d="M455.446 532.439C442.033 562.16 417.959 552.736 393.263 556.542C371.499 559.985 357.286 578.47 336.499 584.36C305.141 593.421 279.557 574.121 249.265 569.228C226.884 565.848 204.182 565.27 181.663 567.506C181.663 567.506 181.663 568.14 181.663 568.14C217.775 565.154 254.099 569.97 288.263 582.276C307.628 588.709 325.928 592.425 345.116 583.363C357.552 577.473 367.324 567.053 380.205 561.797C394.596 555.908 407.565 558.264 422.578 557.176C429.95 557.247 437.151 554.91 443.128 550.509C449.106 546.107 453.546 539.87 455.801 532.711C455.801 532.711 455.624 532.077 455.446 532.439Z" fill="#60BFEE"/>
</g>
<g style="mix-blend-mode:screen" opacity="0.3">
<path d="M81.8153 273.287C77.796 274.747 74.5003 277.759 72.639 281.675C70.7777 285.591 70.5 290.096 71.8661 294.219C72.0588 297.24 72.9177 300.179 74.3789 302.815C75.8401 305.45 77.8658 307.716 80.3051 309.442C91.5789 317.204 104.902 321.281 118.503 321.131C125.645 323.349 133.276 323.326 140.405 321.064C147.534 318.802 153.831 314.405 158.478 308.445C161.154 305.237 162.533 301.111 162.335 296.903C162.137 292.696 160.377 288.723 157.412 285.792C138.313 266.31 106.333 263.682 81.8153 273.287Z" fill="#60BFEE"/>
</g>
<g style="mix-blend-mode:screen" opacity="0.3">
<path d="M200.674 291.953C200.768 293.924 201.626 295.776 203.059 297.101C204.491 298.427 206.381 299.117 208.313 299.021C210.245 298.925 212.061 298.05 213.36 296.589C214.659 295.127 215.336 293.199 215.242 291.228C215.148 289.258 214.29 287.406 212.858 286.081C211.425 284.755 209.535 284.065 207.603 284.161C205.671 284.257 203.855 285.132 202.556 286.593C201.256 288.055 200.579 289.983 200.674 291.953Z" fill="#60BFEE"/>
</g>
<g style="mix-blend-mode:screen" opacity="0.3">
<path d="M442.743 219.645C420.357 210.583 385.002 213.302 390.243 243.023C395.307 271.203 431.195 270.206 455.802 262.957C483.695 285.701 537.883 281.08 529.711 235.774C522.071 192.461 462.819 188.112 442.743 219.645Z" fill="#60BFEE"/>
</g>
<g style="mix-blend-mode:screen" opacity="0.3">
<path d="M438.213 192.823C436.908 193.651 435.95 194.943 435.523 196.449C435.097 197.955 435.233 199.568 435.904 200.979C436.184 201.821 436.716 202.552 437.425 203.07C438.134 203.588 438.985 203.867 439.857 203.867C440.729 203.867 441.579 203.588 442.288 203.07C442.997 202.552 443.529 201.821 443.81 200.979L444.431 200.526C444.941 200.065 445.363 199.512 445.675 198.894C446.023 198.34 446.208 197.695 446.208 197.037C446.208 196.378 446.023 195.734 445.675 195.179C444.962 193.889 443.791 192.925 442.403 192.487C441.016 192.049 439.517 192.169 438.213 192.823Z" fill="#60BFEE"/>
</g>
<g style="mix-blend-mode:screen" opacity="0.3">
<path d="M336.233 367.343C334.471 368.526 332.911 369.996 331.614 371.692C325.227 374.632 319.487 378.854 314.735 384.106C313.2 385.834 312.103 387.918 311.537 390.177C310.368 390.705 309.264 391.375 308.25 392.171C307.805 392.484 307.443 392.904 307.195 393.394C306.947 393.884 306.821 394.428 306.829 394.98C309.316 413.102 331.081 426.875 348.225 429.413C358.038 430.515 367.895 427.78 375.809 421.759C383.722 415.739 389.103 406.881 390.865 396.973C392.731 379.938 377.718 369.79 362.882 367.524C361.314 367.438 359.743 367.438 358.175 367.524C354.843 365.567 351.072 364.522 347.227 364.49C343.383 364.458 339.595 365.441 336.233 367.343Z" fill="#60BFEE"/>
</g>
<g style="mix-blend-mode:screen" opacity="0.3">
<path d="M512.566 347.861C512.797 352.131 513.917 356.301 515.853 360.094C516.362 361.092 516.926 362.059 517.54 362.994C517.832 363.616 518.158 364.221 518.517 364.806C518.517 364.806 519.939 367.705 518.517 365.349C519.493 368.326 521.576 370.792 524.318 372.216C527.06 373.64 530.241 373.908 533.175 372.961C538.789 370.682 543.505 366.572 546.588 361.272C547.591 359.278 547.991 357.026 547.738 354.8C547.485 352.574 546.59 350.475 545.167 348.768C544.264 347.676 543.152 346.783 541.9 346.145C540.648 345.506 539.281 345.134 537.883 345.052C536.552 342.711 534.668 340.747 532.403 339.338C530.138 337.93 527.563 337.122 524.913 336.988C523.379 336.737 521.809 336.831 520.314 337.264C518.819 337.697 517.435 338.457 516.259 339.493C515.082 340.529 514.142 341.815 513.504 343.26C512.866 344.706 512.546 346.276 512.566 347.861Z" fill="#60BFEE"/>
</g>
<g style="mix-blend-mode:screen" opacity="0.3">
<path d="M55.8758 450.707C56.3033 455.284 57.2882 459.788 58.8075 464.117C59.8727 470.763 62.8203 476.946 67.2871 481.905C71.7539 486.864 77.5448 490.382 83.9471 492.026H84.8354C87.5314 493.035 90.3984 493.482 93.2668 493.342C96.1352 493.202 98.9468 492.477 101.536 491.21C108.021 487.948 106.777 479.068 102.868 474.628C101.029 472.729 98.8601 471.193 96.4725 470.098C95.3457 463.389 92.5944 457.074 88.4679 451.726C84.3414 446.377 78.9704 442.165 72.8429 439.471C71.0149 438.536 68.9792 438.106 66.9377 438.222C64.8961 438.338 62.9198 438.996 61.2048 440.132C59.4898 441.268 58.0956 442.841 57.1608 444.696C56.2261 446.551 55.7831 448.623 55.8758 450.707Z" fill="#60BFEE"/>
</g>
<g style="mix-blend-mode:screen" opacity="0.3">
<path d="M237.717 43.494C232.947 45.6701 228.493 48.5057 224.481 51.9209C223.116 52.8685 221.977 54.1172 221.149 55.5742C220.321 57.0312 219.825 58.6595 219.697 60.3386C219.569 62.0177 219.813 63.7046 220.41 65.2746C221.008 66.8447 221.944 68.2577 223.149 69.4091C227.063 73.2618 232.278 75.4349 237.717 75.4802C241.851 74.983 245.794 73.4241 249.176 70.9495C250.308 70.2007 251.284 69.2307 252.046 68.0954C252.808 66.96 253.343 65.682 253.618 64.3349C255.556 64.3275 257.446 63.7159 259.034 62.5822C260.621 61.4486 261.831 59.8468 262.501 57.9919C263.336 55.7164 263.327 53.2085 262.477 50.9392C261.626 48.6699 259.992 46.7955 257.882 45.6686C251.619 42.5506 244.48 41.7808 237.717 43.494Z" fill="#60BFEE"/>
</g>
<g style="mix-blend-mode:screen" opacity="0.3">
<path d="M317.489 249.003C317.737 250.639 318.57 252.123 319.827 253.17C321.084 254.217 322.677 254.753 324.298 254.674C325.919 254.595 327.454 253.908 328.607 252.744C329.761 251.58 330.452 250.021 330.547 248.369C330.299 246.733 329.465 245.249 328.208 244.202C326.951 243.155 325.36 242.619 323.739 242.698C322.118 242.777 320.582 243.464 319.428 244.628C318.275 245.792 317.584 247.351 317.489 249.003Z" fill="#60BFEE"/>
</g>
<g style="mix-blend-mode:screen" opacity="0.3">
<path d="M436.525 66.9626L437.236 68.7748C437.918 70.531 439.122 72.0257 440.679 73.0497C442.235 74.0737 444.066 74.5758 445.916 74.486C447.766 74.3961 449.543 73.7187 450.997 72.5485C452.451 71.3783 453.509 69.7737 454.025 67.9594L454.558 66.0564C454.929 64.6103 454.961 63.0955 454.651 61.6345C454.341 60.1735 453.698 58.8076 452.773 57.6475C451.849 56.4874 450.67 55.5658 449.332 54.9573C447.993 54.3488 446.532 54.0706 445.069 54.1453C443.605 54.2199 442.179 54.6453 440.907 55.3869C439.635 56.1285 438.552 57.1656 437.745 58.4139C436.939 59.6622 436.433 61.0868 436.267 62.5721C436.102 64.0573 436.281 65.5614 436.792 66.9626H436.525Z" fill="#60BFEE"/>
</g>
<g style="mix-blend-mode:screen" opacity="0.3">
<path d="M346.981 42.7692C345.642 43.5638 344.591 44.7778 343.983 46.2308C343.375 47.6837 343.242 49.2979 343.605 50.8337C344.149 52.3531 345.212 53.6209 346.6 54.4035C347.988 55.1861 349.605 55.4309 351.156 55.0925C352.08 54.9782 352.96 54.6229 353.71 54.061C354.461 53.4992 355.057 52.7497 355.44 51.8846C355.824 51.0196 355.983 50.0683 355.902 49.1224C355.82 48.1765 355.502 47.268 354.976 46.4843C354.913 45.5129 354.538 44.5895 353.91 43.8565C353.079 42.8513 351.919 42.1872 350.645 41.9873C349.371 41.7874 348.07 42.0652 346.981 42.7692Z" fill="#60BFEE"/>
</g>
<g style="mix-blend-mode:screen" opacity="0.3">
<path d="M237.717 526.368C270.496 544.491 324.417 562.613 361.105 549.112C362.299 548.705 363.331 547.912 364.042 546.852C364.753 545.793 365.105 544.525 365.045 543.243C364.985 541.96 364.515 540.733 363.708 539.748C362.9 538.762 361.799 538.073 360.572 537.785C341.207 532.349 319.887 535.611 299.811 531.895C279.735 528.18 260.725 521.747 241.27 516.491C240.06 516.277 238.815 516.502 237.752 517.128C236.688 517.754 235.874 518.741 235.451 519.916C235.028 521.092 235.023 522.382 235.437 523.561C235.851 524.74 236.658 525.734 237.717 526.368Z" fill="#60BFEE"/>
</g>
<g style="mix-blend-mode:screen" opacity="0.26">
<path d="M453.581 43.5845C400.817 11.3107 339.588 -3.60255 278.221 0.873092C216.854 5.34873 158.328 28.996 110.603 68.5988C62.877 108.202 28.2682 161.838 11.4828 222.213C-5.30259 282.588 -3.4499 346.772 16.7892 406.035C82.0814 441.373 165.762 443.458 237.983 421.892C414.672 369.518 509.634 183.762 453.581 43.5845Z" fill="#60BFEE"/>
</g>
<g style="mix-blend-mode:multiply" opacity="0.47">
<path d="M529.799 110.275C529.178 111.544 528.556 112.813 527.934 114.262C513.187 149.329 516.119 197.988 500.218 236.589C470.637 308.626 427.464 371.874 358.085 409.478C245.268 471.004 139.201 481.243 36.9546 453.153C57.0836 490.465 84.6372 523.073 117.848 548.884C151.058 574.695 189.191 593.139 229.801 603.033C270.411 612.927 312.6 614.052 353.66 606.335C394.721 598.619 433.747 582.232 468.234 558.227C502.721 534.221 531.907 503.126 553.92 466.937C575.932 430.749 590.285 390.266 596.057 348.087C601.829 305.907 598.892 262.963 587.436 222.009C575.98 181.055 556.257 142.997 529.533 110.275H529.799Z" fill="#329693"/>
</g>
<g style="mix-blend-mode:multiply" opacity="0.47">
<path d="M599 290.685C597.31 254.96 589.493 219.814 575.904 186.843C563.822 226.259 560.091 268.394 544.989 307.086C523.043 362.68 486.383 410.961 439.101 446.538C384.38 489.489 307.806 515.223 241.27 531.986C197.581 543.519 152.099 546.197 107.399 539.869C116.93 548.001 126.959 555.507 137.424 562.341C222.359 579.767 310.462 570.901 390.421 536.879C473.035 500.634 539.393 455.328 577.68 368.884C585.711 349.776 592.797 330.27 598.911 310.438C599 303.914 599 297.3 599 290.685Z" fill="#329693"/>
</g>
<g style="mix-blend-mode:screen" opacity="0.26">
<path d="M293.415 47.3903C253.085 16.2196 174.912 59.8042 140.267 83.6353C85.1905 122.417 22.4745 213.936 60.3173 285.52C93.7185 348.949 176.777 346.412 231.054 320.315C285.331 294.219 328.148 261.78 354.088 205.781C381.803 146.158 376.207 59.5324 293.415 47.3903Z" fill="#60BFEE"/>
</g>
<g style="mix-blend-mode:screen" opacity="0.26">
<path d="M160.344 76.0239C96.6504 95.0525 32.8685 245.197 143.821 235.683C254.773 226.169 242.514 38.3291 160.344 76.0239Z" fill="#60BFEE"/>
</g>
</g>
<defs>
<clipPath id="clip0_113_507">
<rect width="599" height="611" fill="white"/>
</clipPath>
</defs>
</svg>
