<svg width="45" height="45" viewBox="0 0 45 45" fill="none" xmlns="http://www.w3.org/2000/svg">
<g clip-path="url(#clip0_1_11286)">
<path d="M44.0819 28.7856C47.5566 16.8568 40.7032 4.36986 28.7744 0.895191C16.8456 -2.57948 4.35859 4.27395 0.883916 16.2027C-2.59076 28.1316 4.26268 40.6185 16.1915 44.0932C28.1203 47.5679 40.6073 40.7145 44.0819 28.7856Z" fill="#3264AE"/>
<g style="mix-blend-mode:multiply">
<path d="M16.1635 11.2984C18.6861 11.6721 21.182 12.2661 23.7446 12.3328C26.3073 12.3996 28.523 11.6655 30.9188 10.7912C32.0994 10.2984 33.3443 9.97709 34.6159 9.83691C36.1442 9.73013 37.4522 10.3107 38.8203 10.918C39.8855 11.4252 41.0507 11.6875 42.2305 11.6855L42.1304 11.512C41.591 11.5299 41.0518 11.4715 40.5287 11.3385C38.7335 10.8646 37.1919 9.69009 35.3166 9.61668C33.2612 9.5366 31.3125 10.4375 29.4439 11.1316C27.0527 12.0128 24.4861 12.3125 21.9561 12.0058C19.7472 11.7723 17.5783 11.1916 15.3693 10.9914C12.3929 10.7245 9.36306 12.0926 6.64024 12.9935C5.00261 13.5895 3.30374 14.0013 1.57499 14.2215L1.46155 14.4951C6.24651 14.1681 11.6321 10.6377 16.1635 11.2984Z" fill="#3264AE"/>
</g>
<g style="mix-blend-mode:multiply">
<path d="M6.05967 37.8592C8.009 37.7967 9.95143 37.596 11.8724 37.2586C13.167 37.0451 14.4684 36.698 15.7764 36.5912C17.7384 36.391 19.4803 37.1318 21.2621 37.8192C25.1128 39.3141 28.87 38.9337 32.8341 38.1062C35.25 37.599 37.6858 37.1185 40.1016 36.5379L40.3352 36.2375C38.6268 36.658 36.8983 37.0384 35.1632 37.3987C30.9588 38.2596 26.6343 39.4008 22.41 38.0127C20.8684 37.4922 19.4002 36.7247 17.7852 36.4511C16.4902 36.3014 15.1789 36.3874 13.9145 36.7047C11.2772 37.2575 8.59857 37.5901 5.90619 37.6991L6.05967 37.8592Z" fill="#3264AE"/>
</g>
<g style="mix-blend-mode:screen" opacity="0.47">
<path d="M33.0409 30.5316C32.6405 30.6117 32.8007 31.199 33.1611 31.199C35.2632 31.199 37.3721 30.9454 39.4543 31.2524C38.4065 31.9864 36.7448 31.8797 35.5502 32.2467C33.6416 32.8407 32.1 33.8617 30.0178 33.5814C28.8737 33.3313 27.6947 33.2839 26.5342 33.4413C24.4787 33.815 23.4176 34.162 21.4889 33.2344C18.9864 32.0265 16.2569 32.5671 13.5941 32.8073C13.1403 32.8473 8.54221 32.8073 8.61562 33.4747V33.6281C8.61972 33.7171 8.64716 33.8034 8.69519 33.8784C8.74322 33.9533 8.81015 34.0143 8.88924 34.0553C11.4252 35.1364 14.3282 34.5291 16.9976 34.5024C19.6671 34.4757 22.203 36.0173 24.7657 35.3833C25.4998 35.2031 26.1805 34.8561 26.9212 34.7159C28.1158 34.4557 29.1369 34.776 30.3048 34.8828C31.5388 34.9687 32.7744 34.739 33.8951 34.2154C35.4438 33.5925 37.0422 33.1014 38.6735 32.7472C39.1174 32.6604 39.5386 32.4829 39.9107 32.2256C40.2828 31.9684 40.5977 31.637 40.8357 31.2524C40.8652 31.1877 40.88 31.1173 40.8791 31.0462C40.8781 30.9751 40.8614 30.9051 40.8301 30.8413C40.7988 30.7775 40.7538 30.7213 40.6982 30.677C40.6426 30.6327 40.5779 30.6013 40.5087 30.585C38.0486 30.0629 35.5082 30.0447 33.0409 30.5316Z" fill="#60BFEE"/>
</g>
<g style="mix-blend-mode:screen" opacity="0.47">
<path d="M31.0522 13.6942C28.7298 14.2948 26.4608 13.7476 24.1317 14.0946C22.0896 14.3949 20.5881 16.4704 18.4992 16.2635C16.9376 16.11 15.396 15.5962 13.8277 15.4827C12.0818 15.3035 10.3207 15.3348 8.58227 15.5762C6.38666 15.9232 1.9087 16.9643 1.64843 19.7405C1.60839 20.1008 1.90202 20.4946 2.31579 20.3411C3.44362 19.9073 4.37792 19.1332 5.50576 18.6994C6.92619 18.2308 8.38413 17.8848 9.86361 17.665C11.3652 17.3647 12.8667 17.0777 14.4016 16.9175C15.9366 16.7574 17.5115 17.398 19.0732 17.1978C20.4079 17.031 21.0752 16.2569 22.083 15.5695C24.085 14.2348 26.3407 14.7086 28.5897 14.6619C32.447 14.5684 36.1175 11.6788 39.7079 14.3415C39.7583 14.3867 39.8246 14.4099 39.8922 14.4062C39.9598 14.4024 40.0231 14.372 40.0683 14.3215C40.1134 14.2711 40.1367 14.2048 40.1329 14.1372C40.1291 14.0696 40.0987 14.0063 40.0483 13.9611C37.5056 11.4319 33.9819 12.9401 31.0522 13.6942Z" fill="#60BFEE"/>
</g>
<g style="mix-blend-mode:screen" opacity="0.47">
<path d="M33.6549 21.7292C31.9998 22.0629 30.8453 23.1774 29.0701 23.3376C27.295 23.4977 25.5131 23.1907 23.7313 23.2108C20.1142 23.2108 16.744 24.1718 13.2537 24.9859C9.3865 25.7955 5.47268 26.3638 1.53491 26.6877C0.787473 26.7678 0.593944 27.9423 1.41479 28.0758C5.29215 28.7432 9.28296 27.8689 12.9735 26.681C17.1578 25.3463 20.9217 24.0116 25.4064 24.085C27.1348 24.085 28.9367 24.3386 30.6117 23.7847C32.5471 23.1173 33.8484 22.0029 36.0641 22.3699C38.7335 22.8104 41.3562 23.8047 43.5518 21.6425C43.7387 21.4623 43.4584 21.1219 43.2448 21.2888C40.0148 23.8981 37.0851 21.0218 33.6549 21.7292Z" fill="#60BFEE"/>
</g>
<g style="mix-blend-mode:screen" opacity="0.47">
<path d="M24.3853 5.94612C23.0973 6.14633 22.4233 7.14069 21.3956 7.83475C18.7795 9.59657 16.0968 8.25518 13.2872 8.0216C11.2458 7.86865 9.19563 8.16477 7.28094 8.88916C7.28094 8.88916 7.28094 8.93589 7.28094 8.92921C10.3241 7.89481 13.0269 8.08167 16.1435 8.63557C17.8252 8.93589 19.4802 9.12942 20.9885 8.21513C21.7092 7.78135 22.2298 7.10064 22.9238 6.64017C24.1584 5.82599 25.4798 5.91942 26.8412 6.34653C28.6431 6.91378 29.9177 7.40763 31.5127 6.15967C31.5127 6.15967 31.5127 6.09961 31.5127 6.11963C29.1236 8.19511 26.8879 5.55238 24.3853 5.94612Z" fill="#60BFEE"/>
</g>
<g style="mix-blend-mode:screen" opacity="0.47">
<path d="M34.2155 39.2139C33.2078 41.4029 31.3993 40.7088 29.544 40.9891C27.909 41.2427 26.8412 42.6041 25.2796 43.0379C22.9238 43.7053 21.0018 42.2838 18.7261 41.9234C17.0447 41.6745 15.3392 41.6319 13.6475 41.7966C13.6475 41.7966 13.6475 41.8433 13.6475 41.8433C16.3605 41.6233 19.0893 41.9781 21.6558 42.8844C23.1107 43.3582 24.4854 43.6318 25.9269 42.9645C26.8612 42.5307 27.5953 41.7632 28.563 41.3762C29.6441 40.9424 30.6185 41.1159 31.7463 41.0358C32.3001 41.041 32.8411 40.8689 33.2901 40.5447C33.7392 40.2206 34.0728 39.7613 34.2422 39.2339C34.2422 39.2339 34.2289 39.1872 34.2155 39.2139Z" fill="#60BFEE"/>
</g>
<g style="mix-blend-mode:screen" opacity="0.3">
<path d="M6.14639 20.1275C5.84444 20.235 5.59685 20.4568 5.45702 20.7452C5.31718 21.0336 5.29633 21.3654 5.39895 21.6691C5.41343 21.8916 5.47795 22.108 5.58773 22.3022C5.6975 22.4963 5.84968 22.6631 6.03293 22.7902C6.87988 23.3619 7.88081 23.6622 8.90259 23.6511C9.43912 23.8145 10.0124 23.8128 10.5479 23.6462C11.0835 23.4796 11.5566 23.1558 11.9057 22.7168C12.1067 22.4806 12.2103 22.1767 12.1955 21.8668C12.1806 21.5569 12.0484 21.2643 11.8256 21.0484C10.3908 19.6136 7.9883 19.4201 6.14639 20.1275Z" fill="#60BFEE"/>
</g>
<g style="mix-blend-mode:screen" opacity="0.3">
<path d="M15.0757 21.5023C15.0827 21.6475 15.1472 21.7838 15.2548 21.8815C15.3625 21.9791 15.5044 22.0299 15.6496 22.0229C15.7947 22.0158 15.9311 21.9513 16.0287 21.8437C16.1263 21.7361 16.1772 21.5941 16.1701 21.4489C16.163 21.3038 16.0986 21.1674 15.991 21.0698C15.8833 20.9722 15.7413 20.9213 15.5962 20.9284C15.4511 20.9355 15.3147 20.9999 15.2171 21.1075C15.1194 21.2152 15.0686 21.3572 15.0757 21.5023Z" fill="#60BFEE"/>
</g>
<g style="mix-blend-mode:screen" opacity="0.3">
<path d="M33.2612 16.1767C31.5794 15.5094 28.9234 15.7096 29.3171 17.8985C29.6975 19.974 32.3936 19.9006 34.2422 19.3667C36.3377 21.0418 40.4086 20.7014 39.7947 17.3646C39.2207 14.1747 34.7694 13.8543 33.2612 16.1767Z" fill="#60BFEE"/>
</g>
<g style="mix-blend-mode:screen" opacity="0.3">
<path d="M32.9209 14.2013C32.8228 14.2623 32.7508 14.3574 32.7188 14.4683C32.6867 14.5792 32.6969 14.6981 32.7473 14.8019C32.7684 14.864 32.8084 14.9179 32.8616 14.956C32.9149 14.9942 32.9788 15.0147 33.0443 15.0147C33.1098 15.0147 33.1737 14.9942 33.227 14.956C33.2802 14.9179 33.3202 14.864 33.3413 14.8019L33.388 14.7686C33.4263 14.7347 33.458 14.6939 33.4814 14.6485C33.5076 14.6076 33.5215 14.5601 33.5215 14.5116C33.5215 14.4631 33.5076 14.4157 33.4814 14.3748C33.4278 14.2798 33.3399 14.2088 33.2356 14.1766C33.1314 14.1443 33.0188 14.1532 32.9209 14.2013Z" fill="#60BFEE"/>
</g>
<g style="mix-blend-mode:screen" opacity="0.3">
<path d="M25.2596 27.0547C25.1272 27.1418 25.01 27.25 24.9126 27.375C24.4328 27.5915 24.0015 27.9024 23.6446 28.2893C23.5293 28.4165 23.4468 28.57 23.4043 28.7364C23.3165 28.7753 23.2335 28.8246 23.1574 28.8832C23.124 28.9063 23.0967 28.9372 23.0781 28.9733C23.0595 29.0094 23.05 29.0495 23.0506 29.0901C23.2375 30.4248 24.8725 31.4392 26.1605 31.6261C26.8977 31.7072 27.6383 31.5058 28.2328 31.0624C28.8273 30.619 29.2315 29.9667 29.3639 29.2369C29.504 27.9823 28.3761 27.2348 27.2617 27.068C27.1438 27.0616 27.0258 27.0616 26.908 27.068C26.6577 26.9239 26.3744 26.8469 26.0855 26.8445C25.7967 26.8422 25.5122 26.9146 25.2596 27.0547Z" fill="#60BFEE"/>
</g>
<g style="mix-blend-mode:screen" opacity="0.3">
<path d="M38.5067 25.6199C38.524 25.9344 38.6082 26.2415 38.7536 26.5208C38.7919 26.5943 38.8342 26.6656 38.8804 26.7344C38.9023 26.7802 38.9268 26.8248 38.9538 26.8679C38.9538 26.8679 39.0606 27.0814 38.9538 26.9079C39.0271 27.1271 39.1836 27.3088 39.3896 27.4136C39.5956 27.5185 39.8345 27.5382 40.0549 27.4685C40.4767 27.3007 40.831 26.998 41.0626 26.6076C41.1379 26.4607 41.168 26.2949 41.149 26.1309C41.13 25.967 41.0627 25.8124 40.9558 25.6866C40.888 25.6062 40.8045 25.5405 40.7104 25.4935C40.6163 25.4464 40.5136 25.4191 40.4086 25.413C40.3086 25.2406 40.1671 25.0959 39.9969 24.9922C39.8267 24.8884 39.6333 24.8289 39.4343 24.8191C39.319 24.8006 39.2011 24.8075 39.0888 24.8394C38.9764 24.8713 38.8725 24.9273 38.7841 25.0036C38.6957 25.0799 38.6251 25.1746 38.5772 25.281C38.5292 25.3875 38.5052 25.5032 38.5067 25.6199Z" fill="#60BFEE"/>
</g>
<g style="mix-blend-mode:screen" opacity="0.3">
<path d="M4.19768 33.1944C4.2298 33.5315 4.30379 33.8633 4.41792 34.1821C4.49795 34.6716 4.71939 35.127 5.05496 35.4922C5.39053 35.8574 5.82557 36.1165 6.30654 36.2376H6.37328C6.57582 36.3119 6.7912 36.3448 7.00669 36.3345C7.22218 36.3242 7.4334 36.2708 7.62792 36.1775C8.11509 35.9373 8.02166 35.2833 7.72802 34.9563C7.58979 34.8164 7.42689 34.7032 7.24752 34.6226C7.16287 34.1285 6.95617 33.6634 6.64617 33.2695C6.33616 32.8756 5.93267 32.5653 5.47234 32.3669C5.33501 32.2981 5.18208 32.2664 5.02871 32.2749C4.87533 32.2835 4.72686 32.332 4.59802 32.4156C4.46918 32.4993 4.36444 32.6151 4.29422 32.7518C4.224 32.8884 4.19072 33.041 4.19768 33.1944Z" fill="#60BFEE"/>
</g>
<g style="mix-blend-mode:screen" opacity="0.3">
<path d="M17.8585 3.20328C17.5002 3.36356 17.1656 3.57239 16.8642 3.82392C16.7617 3.89372 16.6761 3.98568 16.6139 4.09299C16.5517 4.2003 16.5144 4.32022 16.5048 4.44389C16.4952 4.56755 16.5135 4.69179 16.5584 4.80742C16.6033 4.92306 16.6736 5.02713 16.7641 5.11193C17.0582 5.39567 17.4499 5.55572 17.8585 5.55906C18.1691 5.52244 18.4653 5.40763 18.7194 5.22538C18.8045 5.17023 18.8777 5.09878 18.935 5.01517C18.9923 4.93155 19.0324 4.83742 19.0531 4.73821C19.1987 4.73766 19.3407 4.69262 19.46 4.60913C19.5792 4.52563 19.6701 4.40767 19.7205 4.27105C19.7832 4.10346 19.7825 3.91875 19.7186 3.75162C19.6547 3.58449 19.532 3.44644 19.3735 3.36344C18.903 3.1338 18.3667 3.0771 17.8585 3.20328Z" fill="#60BFEE"/>
</g>
<g style="mix-blend-mode:screen" opacity="0.3">
<path d="M23.8514 18.339C23.8701 18.4594 23.9327 18.5687 24.0271 18.6458C24.1216 18.723 24.2412 18.7624 24.363 18.7566C24.4847 18.7508 24.6001 18.7002 24.6867 18.6144C24.7734 18.5287 24.8253 18.4139 24.8325 18.2922C24.8138 18.1718 24.7512 18.0625 24.6568 17.9853C24.5623 17.9082 24.4427 17.8688 24.321 17.8746C24.1992 17.8804 24.0838 17.931 23.9972 18.0168C23.9105 18.1025 23.8586 18.2172 23.8514 18.339Z" fill="#60BFEE"/>
</g>
<g style="mix-blend-mode:screen" opacity="0.3">
<path d="M32.7941 4.93181L32.8474 5.06528C32.8987 5.19462 32.9892 5.3047 33.1061 5.38012C33.223 5.45553 33.3606 5.49252 33.4996 5.4859C33.6386 5.47928 33.772 5.42939 33.8812 5.3432C33.9905 5.25702 34.07 5.13884 34.1088 5.00522L34.1488 4.86507C34.1767 4.75856 34.1791 4.64699 34.1558 4.53939C34.1325 4.43179 34.0841 4.33119 34.0147 4.24575C33.9453 4.16031 33.8567 4.09243 33.7561 4.04762C33.6556 4.0028 33.5459 3.98231 33.4359 3.98781C33.326 3.99331 33.2188 4.02464 33.1232 4.07926C33.0277 4.13388 32.9463 4.21026 32.8857 4.3022C32.8252 4.39413 32.7871 4.49905 32.7747 4.60844C32.7623 4.71783 32.7757 4.82861 32.8141 4.93181H32.7941Z" fill="#60BFEE"/>
</g>
<g style="mix-blend-mode:screen" opacity="0.3">
<path d="M26.0671 3.14989C25.9665 3.20841 25.8875 3.29783 25.8418 3.40483C25.7961 3.51184 25.7862 3.63073 25.8135 3.74384C25.8543 3.85574 25.9342 3.94911 26.0384 4.00675C26.1427 4.06439 26.2642 4.08242 26.3807 4.0575C26.4501 4.04908 26.5162 4.02291 26.5726 3.98153C26.629 3.94015 26.6737 3.88495 26.7026 3.82124C26.7314 3.75753 26.7434 3.68746 26.7372 3.6178C26.7311 3.54814 26.7072 3.48122 26.6677 3.42351C26.663 3.35196 26.6348 3.28395 26.5876 3.22997C26.5252 3.15593 26.438 3.10703 26.3423 3.0923C26.2466 3.07758 26.1489 3.09804 26.0671 3.14989Z" fill="#60BFEE"/>
</g>
<g style="mix-blend-mode:screen" opacity="0.3">
<path d="M17.8585 38.7668C20.3211 40.1015 24.3719 41.4363 27.1281 40.4419C27.2178 40.412 27.2953 40.3535 27.3487 40.2755C27.4021 40.1974 27.4286 40.1041 27.4241 40.0096C27.4195 39.9152 27.3843 39.8248 27.3236 39.7522C27.263 39.6797 27.1802 39.6289 27.0881 39.6077C25.6332 39.2073 24.0316 39.4475 22.5234 39.1739C21.0151 38.9003 19.587 38.4265 18.1255 38.0394C18.0346 38.0236 17.941 38.0402 17.8611 38.0863C17.7812 38.1324 17.7201 38.2051 17.6883 38.2917C17.6565 38.3783 17.6561 38.4733 17.6873 38.5601C17.7184 38.6469 17.779 38.7201 17.8585 38.7668Z" fill="#60BFEE"/>
</g>
<g style="mix-blend-mode:screen" opacity="0.26">
<path d="M34.0754 3.20994C30.1115 0.832984 25.5116 -0.265372 20.9015 0.0642574C16.2913 0.393887 11.8945 2.1355 8.30909 5.05224C4.72369 7.96898 2.1237 11.9193 0.862693 16.3659C-0.398312 20.8125 -0.259129 25.5396 1.26134 29.9043C6.16643 32.507 12.4529 32.6605 17.8786 31.0722C31.1523 27.2148 38.2864 13.534 34.0754 3.20994Z" fill="#60BFEE"/>
</g>
<g style="mix-blend-mode:multiply" opacity="0.47">
<path d="M39.8013 8.1217C39.7546 8.21513 39.7079 8.30857 39.6612 8.41534C38.5533 10.998 38.7736 14.5817 37.579 17.4247C35.3567 22.7302 32.1133 27.3884 26.9013 30.1579C18.4258 34.6893 10.4575 35.4434 2.77625 33.3746C4.28844 36.1226 6.35842 38.5241 8.85335 40.4251C11.3483 42.3261 14.2131 43.6845 17.2639 44.4132C20.3147 45.1418 23.4841 45.2247 26.5688 44.6564C29.6536 44.0881 32.5854 42.8812 35.1762 41.1132C37.7671 39.3452 39.9597 37.055 41.6134 34.3898C43.2671 31.7245 44.3453 28.7429 44.7789 25.6364C45.2125 22.5299 44.9919 19.3671 44.1313 16.3508C43.2706 13.3346 41.7889 10.5316 39.7813 8.1217H39.8013Z" fill="#329693"/>
</g>
<g style="mix-blend-mode:multiply" opacity="0.47">
<path d="M45 21.4088C44.8731 18.7777 44.2858 16.1892 43.2649 13.7609C42.3573 16.6639 42.077 19.7671 40.9425 22.6167C39.2938 26.7112 36.5397 30.2671 32.9876 32.8874C28.8767 36.0506 23.124 37.946 18.1255 39.1806C14.8434 40.03 11.4265 40.2272 8.06842 39.7612C8.78447 40.3601 9.53789 40.9129 10.3241 41.4162C16.7048 42.6996 23.3236 42.0466 29.3305 39.5409C35.5369 36.8715 40.5221 33.5347 43.3984 27.1681C44.0017 25.7609 44.534 24.3242 44.9934 22.8636C45 22.3831 45 21.896 45 21.4088Z" fill="#329693"/>
</g>
<g style="mix-blend-mode:screen" opacity="0.26">
<path d="M22.0429 3.49022C19.013 1.1945 13.1403 4.4045 10.5376 6.15965C6.39995 9.01594 1.6884 15.7563 4.53135 21.0284C7.04062 25.6999 13.2804 25.5131 17.358 23.5911C21.4355 21.6691 24.6522 19.2799 26.6009 15.1557C28.6831 10.7644 28.2626 4.38448 22.0429 3.49022Z" fill="#60BFEE"/>
</g>
<g style="mix-blend-mode:screen" opacity="0.26">
<path d="M12.0459 5.59911C7.26092 7.00056 2.46929 18.0587 10.8046 17.358C19.1399 16.6572 18.219 2.8229 12.0459 5.59911Z" fill="#60BFEE"/>
</g>
</g>
<defs>
<clipPath id="clip0_1_11286">
<rect width="45" height="45" fill="white"/>
</clipPath>
</defs>
</svg>
