<svg width="599" height="611" viewBox="0 0 599 611" fill="none" xmlns="http://www.w3.org/2000/svg">
<path d="M346.678 58.8339C331.402 33.2873 309.809 8.16643 279.085 1.60947C235.388 -7.84277 227.878 27.1561 203.981 33.4576C138.692 51.3402 130.157 61.8142 67.4286 116.654C17.9284 159.828 -5.96839 234.68 15.4533 297.013C25.1826 325.54 -9.12616 327.754 2.39546 351.087C17.3309 381.232 0.3472 395.112 10.1619 426.62C14.1731 439.308 43.7026 440.926 50.9569 453.614C58.2113 466.302 47.7992 492.189 57.0165 508.709C71.6105 535.022 123.586 560.484 152.774 560.739C182.047 653.984 265.6 589.522 320.648 585.179C348.471 582.965 369.209 606.808 398.312 604.68C451.056 600.848 445.252 567.211 478.707 536.981C508.493 509.987 551.934 517.736 565.333 464.003C570.966 441.437 549.117 425.939 552.19 408.822C555.689 388.896 576.513 387.193 581.975 370.502C596.655 325.285 622.087 191.08 553.726 179.925C547.922 101.412 433.048 10.2102 346.678 58.8339Z" fill="#CCB672"/>
<path opacity="0.5" d="M82.7898 399.2C51.9802 444.502 73.3165 524.889 130.839 534.341C162.588 539.536 174.28 505.814 205.346 517.31C221.647 523.526 212.685 561.335 243.41 572.576C265.685 581.092 297.86 559.036 320.988 557.589C349.579 555.971 369.55 570.788 401.384 560.143C457.2 541.579 484.425 459.66 423.915 430.963C369.977 405.416 304.431 524.634 287.362 438.456C266.111 441.948 255.614 434.284 238.63 449.527C226.853 413.506 192.459 389.918 161.052 417.423C173.597 313.534 53.175 320.176 82.7898 399.2Z" fill="#655538"/>
<path opacity="0.5" d="M423.916 161.616C399.422 -7.07694 207.054 122.785 254.335 181.372C186.571 185.459 262.87 272.318 320.136 245.834C265.686 359.261 506.701 367.01 450.373 239.959C531.537 243.45 487.413 97.4938 411.114 174.389L423.916 161.616Z" fill="#655538"/>
<path opacity="0.5" d="M18.4407 264.314C25.8657 287.136 42.4227 301.101 63.759 286.88C90.9841 268.657 65.1245 238.768 71.3547 219.352C91.4962 156.422 142.447 194.402 175.647 138.965C222.843 60.1968 137.839 94.6847 101.738 115.292C47.9701 146.119 22.7932 171.154 24.9269 245.069L18.4407 264.314Z" fill="#655538"/>
<path opacity="0.5" d="M385.34 206.579C278.658 158.296 483.828 22.0471 463.516 199.17C514.723 189.548 543.74 241.748 516.344 284.326C563.967 309.872 529.488 390.599 507.81 428.494C470.599 493.893 396.861 520.546 323.635 505.9C252.713 491.679 179.231 429.941 192.032 349.81C200.567 293.778 258.346 251.881 308.017 297.525C322.525 288.158 336.607 279.131 352.567 270.105C329.012 238.427 344.203 212.625 385.34 206.579Z" fill="#655538"/>
<path opacity="0.5" d="M470.77 429.259C511.309 396.645 525.306 383.361 520.526 329.628C515.491 273.851 514.211 284.666 475.293 271.211C458.224 265.335 416.405 295.055 405.822 256.905C398.909 232.04 460.272 214.327 474.098 187.674C499.702 136.581 457.883 73.8212 398.397 71.6071C367.075 70.5001 357.858 88.6383 332.425 85.232C315.356 82.7625 304.603 51.7659 270.55 58.2377C266.283 -18.4021 159.601 94.7694 152.517 152.675C143.692 155.383 135.906 160.715 130.202 167.959C124.498 175.203 121.147 184.013 120.598 193.209C52.8341 187.163 41.2271 289.86 114.027 291.563C96.0188 344.7 149.274 375.867 182.303 319.579C197.153 294.459 173.342 269.508 179.06 245.154C182.644 229.996 203.383 208.026 211.491 194.061C197.75 232.891 279.767 164.001 305.371 142.967C302.128 152.931 305.371 166.3 302.725 174.304C328.329 166.3 361.187 167.918 390.801 169.451C394.269 185.761 394.269 202.616 390.801 218.926C366.819 221.821 317.916 252.988 326.28 283.303C332.596 306.891 365.454 290.456 372.708 304.848C406.846 372.205 311.174 340.953 284.888 402.947C254.676 474.307 334.303 502.834 391.313 507.602C421.696 510.157 467.185 516.884 488.778 488.613C510.37 460.341 503.543 428.067 470.77 429.259Z" fill="#E3DBB1"/>
<path opacity="0.27" d="M581.89 370.502C596.569 325.285 622.002 191.08 553.64 179.925C547.922 101.411 433.048 10.2101 346.678 58.8338C344.289 54.7463 341.643 50.3182 338.912 46.7417C353.676 81.3999 404.628 116.228 423.147 143.734C408.249 159.072 397.704 178.086 392.594 198.829C414.357 214.413 438.68 221.906 461.724 233.487C455.323 239.874 450.458 257.075 442.606 264.314C470.002 287.135 489.631 302.974 499.873 340.953C508.407 373.738 498.678 472.774 459.419 485.717C402.409 504.196 425.281 422.873 391.911 410.27C350.604 394.686 320.05 442.629 326.281 480.523C285.912 449.697 292.74 499.853 269.782 507.517C243.542 515.151 215.743 515.709 189.216 509.135C150.384 500.62 122.049 484.61 80.4009 479.842C70.7637 479.838 61.3127 482.49 53.0904 487.506C52.4099 494.818 53.7375 502.178 56.9309 508.794C71.525 535.107 123.5 560.569 152.688 560.824C181.962 654.069 265.515 589.607 320.562 585.264C348.385 583.05 369.124 606.893 398.227 604.765C450.97 600.933 445.167 567.296 478.622 537.066C508.407 510.072 551.848 517.821 565.247 464.088C570.88 441.522 549.032 426.023 552.104 408.907C555.603 388.896 576.513 387.193 581.89 370.502Z" fill="#21004C"/>
<path opacity="0.17" d="M189.047 463.321C126.744 538.599 311.688 627.245 369.296 552.649C400.276 575.641 436.633 567.977 465.821 546.944C507.811 516.799 486.645 492.359 503.97 456.594C530.769 401.413 607.75 359.262 550.313 285.347C602.203 245.239 548.179 145.777 506.104 121.252C445.082 85.6575 309.81 108.053 385.853 209.899C409.92 242.173 448.155 231.954 451.995 275.554C456.006 321.708 400.788 327.413 433.731 384.978C453.873 420.488 511.737 408.566 446.533 458.723C414.102 483.588 358.03 458.723 361.188 520.631C312.968 476.946 298.63 459.234 189.047 463.321Z" fill="#21004C"/>
<g style="mix-blend-mode:overlay" opacity="0.4">
<path d="M211.491 212.965C225.123 200.223 235.167 184.135 240.618 166.308C246.069 148.482 246.738 129.54 242.556 111.375C201.335 91.8742 160.71 146.033 159.089 186.822C125.804 158.551 105.663 197.978 100.969 231.614C55.309 209.729 34.8261 329.457 139.63 323.156C149.189 359.688 186.485 366.245 203.468 329.798C245.031 407.119 327.646 235.276 211.491 219.096V212.965Z" fill="#FFE4A1"/>
</g>
<path opacity="0.68" d="M99.4335 106.096C73.8299 119.124 48.9944 133.686 34.571 159.999C15.9658 194.061 9.82092 239.193 7.5166 277.173C7.5166 282.452 14.6856 282.878 16.0511 278.365C36.4487 220.204 27.658 161.957 88.936 127.044C108.238 115.17 129.127 106.082 150.982 100.049C166.088 96.4729 183.669 98.8573 180.512 119.38C178.378 133.005 165.917 142.968 154.908 150.376C131.182 167.407 90.5575 174.475 74.2565 199.596C65.0393 213.732 62.5643 233.147 58.9798 249.327C56.2487 261.845 54.0297 302.208 33.9736 292.415C33.5557 292.201 33.0807 292.125 32.6167 292.198C32.1528 292.271 31.724 292.488 31.392 292.82C31.0599 293.151 30.8417 293.579 30.7688 294.042C30.696 294.505 30.7722 294.979 30.9866 295.396C52.7496 336.526 73.2325 229.23 75.5368 222.162C92.6059 169.792 177.268 179.584 191.606 124.234C208.419 61.4741 124.696 93.4926 99.4335 106.096Z" fill="#E6D4A3"/>
<path opacity="0.68" d="M307.762 169.79C307.762 162.893 307.079 156.166 306.993 149.098C306.979 147.996 306.713 146.911 306.214 145.927C305.716 144.943 304.999 144.086 304.118 143.42C303.237 142.755 302.216 142.299 301.131 142.088C300.047 141.876 298.929 141.915 297.862 142.2C284.121 147.139 275.501 153.696 273.026 168.769C272.79 169.961 272.974 171.199 273.547 172.272C274.12 173.345 275.046 174.188 276.17 174.658C277.294 175.129 278.545 175.198 279.714 174.854C280.883 174.51 281.897 173.774 282.585 172.771C285.389 168.361 288.941 164.471 293.082 161.275C293.63 166.939 293.63 172.642 293.082 178.306C292.399 183.5 298.203 185.8 302.214 185.204C321.417 182.479 408.725 163.83 386.706 206.152C374.075 230.591 344.545 217.392 326.964 234.423C323.064 239.211 320.005 244.624 317.918 250.433C316.381 253.328 317.235 258.352 315.101 260.992C305.372 273.425 300.849 263.461 299.91 253.072C299.912 251.908 299.528 250.776 298.818 249.852C298.108 248.928 297.111 248.264 295.984 247.963C271.405 243.961 214.565 239.022 237.01 201.213C238.376 198.999 235.389 197.04 233.597 198.573C219.685 210.154 216.527 224.12 230.695 237.233C239.399 243.735 249.371 248.347 259.968 250.773C266.605 251.989 273.16 253.61 279.598 255.627C290.863 260.736 289.498 256.819 290.18 272.232C290.19 273.47 290.604 274.672 291.358 275.655C292.113 276.638 293.167 277.35 294.362 277.682C304.262 279.556 314.76 281.855 323.124 274.532C335.413 263.802 329.098 247.963 348.727 241.406C363.663 236.297 378.683 240.81 391.4 228.463C400.414 218.641 405.724 205.997 406.421 192.697C404.799 151.312 340.022 164 307.762 169.79Z" fill="#E6D4A3"/>
<path opacity="0.68" d="M207.907 403.713C207.377 402.031 206.338 400.554 204.931 399.486C203.525 398.418 201.821 397.813 200.055 397.752C187.936 399.115 175.987 401.755 163.954 403.798C168.818 368.203 153.883 332.183 110.101 339.251C87.3991 342.827 40.9712 381.828 75.28 403.117C75.6178 403.292 75.9951 403.378 76.3757 403.366C76.7563 403.354 77.1273 403.244 77.4531 403.047C77.7789 402.85 78.0484 402.573 78.2358 402.243C78.4232 401.912 78.5221 401.539 78.523 401.159C78.523 389.833 73.9145 380.466 80.7421 369.821C84.369 365.02 88.9593 361.026 94.22 358.093C99.4807 355.161 105.296 353.355 111.296 352.79C148.677 347.851 153.968 382.68 146.117 411.292C145.87 412.482 145.882 413.71 146.15 414.895C146.419 416.08 146.939 417.193 147.674 418.161C148.41 419.129 149.344 419.929 150.415 420.506C151.486 421.084 152.668 421.427 153.883 421.511C167.453 419.978 180.596 416.912 194.081 414.954C196.305 423.2 195.851 431.937 192.783 439.909C189.716 447.881 184.194 454.677 177.012 459.32C175.272 460.486 174.024 462.251 173.505 464.276C172.985 466.302 173.231 468.448 174.195 470.305C189.557 492.871 152.261 513.734 134.424 517.225C127.91 518.978 121.055 519.037 114.511 517.397C107.968 515.758 101.954 512.474 97.0431 507.858C81.937 492.275 86.9722 470.22 80.9127 451.4C80.5668 450.554 79.9763 449.83 79.2162 449.321C78.4562 448.811 77.5612 448.539 76.6454 448.539C75.7297 448.539 74.8348 448.811 74.0748 449.321C73.3147 449.83 72.724 450.554 72.3782 451.4C68.4578 461.291 67.2611 472.048 68.9121 482.555C70.563 493.063 75.0014 502.938 81.7671 511.157C88.5328 519.376 97.3793 525.639 107.389 529.296C117.398 532.954 128.206 533.873 138.691 531.957C165.234 526.337 204.919 498.661 191.691 468.261C200.952 460.643 207.524 450.265 210.442 438.649C213.36 427.033 212.472 414.789 207.907 403.713Z" fill="#E6D4A3"/>
<path opacity="0.68" d="M311.942 25.1972C302.554 12.8497 277.292 2.46067 266.709 18.8956C266.474 19.318 266.353 19.7937 266.356 20.2767C266.359 20.7598 266.486 21.2339 266.727 21.6533C266.967 22.0727 267.311 22.4232 267.727 22.6711C268.142 22.9189 268.615 23.0558 269.099 23.0683C276.084 22.472 283.108 22.472 290.094 23.0683C296.29 24.9631 301.536 29.1322 304.773 34.7345C313.308 48.6149 304.773 62.1546 290.777 67.2639C276.78 72.3732 250.152 73.3951 243.581 55.7679C237.521 39.5884 256.553 32.2651 269.184 30.6471C271.318 30.6471 272.257 27.1558 269.782 26.5597C254.761 23.0683 237.863 27.837 233.681 44.5275C232.361 51.8351 233.815 59.3711 237.76 65.6677C241.704 71.9642 247.856 76.5706 255.017 78.5896C272.854 84.9763 299.396 81.7402 312.284 66.7529C317.002 60.8335 319.543 53.478 319.481 45.9148C319.418 38.3516 316.758 31.0386 311.942 25.1972Z" fill="#E6D4A3"/>
<path opacity="0.68" d="M519.76 223.44C517.711 221.992 515.236 224.461 515.748 226.505C517.967 235.021 523.344 242.855 525.307 251.626C526.758 257.842 529.148 287.051 516.773 286.199C512.249 286.199 506.958 275.81 500.984 274.618C475.892 269.338 438.938 298.887 421.783 267.38C420.332 264.74 416.919 266.699 417.26 269.253C420.076 287.221 437.06 291.308 453.02 290.798C464.271 289.914 475.449 288.264 486.475 285.858C498.935 283.644 499.447 285.262 508.921 292.075C518.394 298.887 525.99 297.61 531.623 285.773C541.523 265.847 537.938 237.405 519.76 223.44Z" fill="#E6D4A3"/>
<path opacity="0.68" d="M580.782 264.569C581.976 236.553 589.316 205.812 554.239 194.572C547.838 192.528 544.339 201.725 549.801 205.131C555.74 208.791 560.659 213.885 564.104 219.942C567.55 225.999 569.411 232.825 569.516 239.789C569.516 248.305 563.713 255.969 563.542 263.888C564.261 271.31 565.602 278.66 567.553 285.858C571.394 313.534 557.482 339.932 563.456 367.692C563.456 369.906 567.041 369.651 567.724 367.692C574.64 346.099 579.414 323.881 581.976 301.356C583.513 288.498 580.269 276.491 580.782 264.569Z" fill="#E6D4A3"/>
<path opacity="0.68" d="M463.687 77.568C455.153 72.7141 445.936 75.0985 436.548 75.4391C428.508 76.4172 420.395 74.3175 413.846 69.5633C410.517 67.179 407.957 63.2619 404.116 61.4736C394.387 56.7901 385.852 62.8361 378.513 69.4782C378.013 70.0222 377.721 70.7237 377.687 71.4605C377.653 72.1974 377.879 72.9229 378.326 73.5106C378.772 74.0982 379.412 74.5109 380.132 74.6766C380.853 74.8423 381.608 74.7505 382.268 74.4173C399.337 64.6244 400.105 73.3102 411.2 81.0594C416.545 84.6137 422.787 86.5912 429.208 86.7648C436.462 87.2757 444.314 84.721 451.312 85.9132C462.492 87.8717 466.333 100.049 473.246 107.713C473.599 108.093 474.059 108.357 474.566 108.47C475.072 108.583 475.602 108.54 476.083 108.346C476.564 108.152 476.975 107.816 477.261 107.384C477.547 106.951 477.694 106.443 477.684 105.925C478.171 100.373 477.124 94.7944 474.657 89.795C472.189 84.7956 468.395 80.5666 463.687 77.568Z" fill="#E6D4A3"/>
<path opacity="0.68" d="M240.509 596.42C236.731 593.65 232.22 592.051 227.537 591.821C224.113 591.908 220.718 591.182 217.631 589.701C214.544 588.22 211.855 586.028 209.785 583.306C208.781 582.328 207.433 581.781 206.03 581.781C204.627 581.781 203.279 582.328 202.275 583.306C196.471 590.118 188.363 595.909 182.56 585.775C180.897 582.583 179.91 579.084 179.66 575.494C179.411 571.905 179.904 568.303 181.109 564.912C181.877 562.954 178.719 561.676 177.781 563.465C171.806 574.535 167.539 587.393 178.378 597.527C187.595 606.042 198.264 601.87 206.115 594.631C210.832 598.431 216.436 600.978 222.405 602.035C228.374 603.092 234.514 602.625 240.253 600.678C240.727 600.576 241.155 600.322 241.47 599.955C241.786 599.588 241.973 599.128 242.002 598.646C242.031 598.163 241.9 597.684 241.631 597.282C241.361 596.88 240.968 596.577 240.509 596.42Z" fill="#E6D4A3"/>
<path opacity="0.68" d="M27.3167 372.717C27.4197 362.863 26.7921 353.015 25.4391 343.253C25.4391 342.231 20.9158 333.12 20.9158 333.034C20.9158 332.949 20.9159 332.098 20.2332 332.524C12.9788 341.976 13.9176 349.555 14.3443 362.328C15.1978 383.617 13.0641 406.949 17.9288 427.812C18.1015 428.312 18.4118 428.752 18.824 429.083C19.2361 429.415 19.7334 429.624 20.2591 429.686C20.7847 429.748 21.3173 429.661 21.7957 429.435C22.2742 429.209 22.6791 428.853 22.9641 428.408C32.9495 413.506 28.3408 389.407 27.3167 372.717Z" fill="#E6D4A3"/>
<path opacity="0.68" d="M417.856 417.678C402.921 344.615 292.569 413.591 324.659 457.361C324.708 457.491 324.795 457.604 324.909 457.683C325.024 457.762 325.16 457.805 325.299 457.805C325.439 457.805 325.575 457.762 325.689 457.683C325.803 457.604 325.891 457.491 325.939 457.361C326.366 429.43 352.482 387.448 387.9 395.368C410.687 400.477 407.359 427.046 411.199 443.651C416.32 466.302 430.231 492.275 417.515 515.011C406.249 535.023 374.159 552.054 352.055 547.796C347.873 547.029 344.971 552.65 349.068 554.949C373.818 568.914 408.81 545.411 423.83 525.996C447.471 494.829 424.599 450.974 417.856 417.678Z" fill="#E6D4A3"/>
</svg>
