<svg width="44" height="46" viewBox="0 0 44 46" fill="none" xmlns="http://www.w3.org/2000/svg">
<path d="M25.4655 4.36424C24.3434 2.46922 22.7573 0.605779 20.5004 0.119389C17.2906 -0.58177 16.7389 2.01442 14.9836 2.48186C10.1877 3.80837 9.56081 4.58533 4.95302 8.65331C1.31694 11.8559 -0.438413 17.4083 1.13513 22.0322C1.84981 24.1483 -0.670369 24.3125 0.17596 26.0433C1.27305 28.2795 0.0255039 29.3091 0.746451 31.6463C1.0411 32.5875 3.21021 32.7075 3.74308 33.6487C4.27595 34.5899 3.51113 36.5102 4.18819 37.7356C5.26021 39.6875 9.07809 41.5762 11.2221 41.5952C13.3724 48.512 19.5099 43.7302 23.5534 43.4081C25.5972 43.2438 27.1206 45.0125 29.2583 44.8546C33.1326 44.5703 32.7063 42.0752 35.1638 39.8328C37.3517 37.8304 40.5427 38.4052 41.527 34.4193C41.9407 32.7454 40.3358 31.5957 40.5615 30.3261C40.8185 28.848 42.3482 28.7216 42.7494 27.4835C43.8277 24.1294 45.6959 14.1742 40.6744 13.3467C40.2481 7.52262 31.8099 0.757382 25.4655 4.36424Z" fill="#CCB672"/>
<path opacity="0.5" d="M6.08148 29.6123C3.81834 32.9728 5.38561 38.9358 9.61099 39.637C11.9431 40.0223 12.802 37.5209 15.0839 38.3736C16.2813 38.8348 15.6231 41.6394 17.8799 42.4732C19.5162 43.1049 21.8796 41.4688 23.5785 41.3615C25.6787 41.2414 27.1457 42.3405 29.484 41.551C33.584 40.1739 35.5839 34.0972 31.1391 31.9684C27.177 30.0734 22.3623 38.9169 21.1085 32.5243C19.5475 32.7833 18.7764 32.2148 17.5289 33.3455C16.6637 30.6735 14.1373 28.9238 11.8303 30.9641C12.7518 23.2577 3.9061 23.7504 6.08148 29.6123Z" fill="#655538"/>
<path opacity="0.5" d="M31.1391 11.9886C29.3399 -0.524898 15.2093 9.10814 18.6824 13.4541C13.7047 13.7573 19.3093 20.2004 23.5159 18.2358C19.5162 26.6497 37.2201 27.2246 33.0825 17.8C39.0444 18.059 35.8033 7.23207 30.1987 12.9361L31.1391 11.9886Z" fill="#655538"/>
<path opacity="0.5" d="M1.35455 19.6066C1.89997 21.2995 3.11617 22.3354 4.68344 21.2805C6.68329 19.9288 4.78375 17.7116 5.24139 16.2714C6.7209 11.6033 10.4636 14.4206 12.9022 10.3084C16.3691 4.46537 10.125 7.02365 7.47319 8.5523C3.52366 10.839 1.67427 12.6961 1.831 18.179L1.35455 19.6066Z" fill="#655538"/>
<path opacity="0.5" d="M28.3055 15.3238C20.4691 11.7422 35.54 1.63541 34.048 14.7742C37.8094 14.0604 39.9409 17.9326 37.9285 21.091C41.4267 22.986 38.894 28.9743 37.3016 31.7852C34.5683 36.6365 29.1518 38.6136 23.7729 37.5272C18.5633 36.4723 13.1656 31.8926 14.1059 25.9486C14.7329 21.7921 18.977 18.6843 22.6257 22.0701C23.6914 21.3752 24.7258 20.7057 25.8981 20.0361C24.1679 17.6863 25.2838 15.7723 28.3055 15.3238Z" fill="#655538"/>
<path opacity="0.5" d="M34.5808 31.8421C37.5586 29.4228 38.5868 28.4374 38.2357 24.4515C37.8658 20.314 37.7718 21.1163 34.9131 20.1182C33.6593 19.6824 30.5874 21.8869 29.81 19.057C29.3022 17.2125 33.8097 15.8986 34.8253 13.9215C36.706 10.1315 33.6342 5.47601 29.2646 5.31177C26.9639 5.22965 26.2868 6.57512 24.4186 6.32245C23.1648 6.13927 22.3749 3.83996 19.8735 4.32004C19.56 -1.36504 11.7237 7.02993 11.2033 11.3253C10.5551 11.5262 9.98315 11.9217 9.56413 12.4591C9.14511 12.9964 8.89898 13.6499 8.85868 14.3321C3.88102 13.8836 3.02842 21.5016 8.37596 21.6279C7.05318 25.5696 10.9651 27.8815 13.3912 23.7061C14.4821 21.8427 12.733 19.9919 13.153 18.1853C13.4163 17.0609 14.9397 15.4312 15.5353 14.3953C14.5259 17.2757 20.5506 12.1654 22.4313 10.6052C22.1931 11.3443 22.4313 12.336 22.2369 12.9298C24.1177 12.336 26.5313 12.456 28.7067 12.5697C28.9614 13.7796 28.9614 15.0299 28.7067 16.2397C26.945 16.4545 23.3528 18.7664 23.9672 21.0152C24.4311 22.7649 26.8447 21.5458 27.3776 22.6133C29.8853 27.6099 22.8576 25.2916 20.9267 29.8902C18.7074 35.1837 24.5565 37.2998 28.7443 37.6535C30.9761 37.843 34.3175 38.342 35.9036 36.2449C37.4897 34.1477 36.9881 31.7537 34.5808 31.8421Z" fill="#E3DBB1"/>
<path opacity="0.27" d="M42.7432 27.4835C43.8215 24.1293 45.6897 14.1741 40.6681 13.3466C40.2481 7.5226 31.8099 0.757363 25.4656 4.36423C25.29 4.06102 25.0957 3.73255 24.8951 3.46725C25.9796 6.03816 29.7223 8.62171 31.0827 10.662C29.9883 11.7998 29.2137 13.2103 28.8383 14.749C30.4369 15.9049 32.2236 16.4608 33.9163 17.3199C33.4461 17.7936 33.0888 19.0696 32.512 19.6065C34.5244 21.2994 35.9663 22.4743 36.7186 25.2916C37.3455 27.7236 36.6308 35.0699 33.747 36.0301C29.5593 37.4008 31.2394 31.3683 28.7882 30.4334C25.7539 29.2775 23.5096 32.8338 23.9672 35.6448C21.0019 33.3581 21.5035 37.0787 19.8171 37.6472C17.8896 38.2134 15.8476 38.2548 13.8991 37.7672C11.0466 37.1355 8.96527 35.948 5.90595 35.5942C5.19804 35.5939 4.50381 35.7907 3.89984 36.1627C3.84985 36.7052 3.94738 37.2511 4.18195 37.7419C5.25396 39.6938 9.07185 41.5825 11.2159 41.6014C13.3662 48.5183 19.5036 43.7365 23.5472 43.4144C25.5909 43.2501 27.1143 45.0188 29.2521 44.8609C33.1264 44.5766 32.7001 42.0815 35.1576 39.8391C37.3455 37.8367 40.5365 38.4115 41.5207 34.4256C41.9345 32.7517 40.3296 31.602 40.5553 30.3324C40.8123 28.8479 42.3482 28.7216 42.7432 27.4835Z" fill="#21004C"/>
<path opacity="0.17" d="M13.8865 34.3688C9.3101 39.9528 22.8952 46.5285 27.1269 40.9951C29.4026 42.7006 32.0732 42.1321 34.2172 40.5719C37.3016 38.3357 35.7469 36.5228 37.0195 33.8698C38.988 29.7765 44.6427 26.6497 40.4236 21.1668C44.2353 18.1916 40.2669 10.8137 37.1763 8.99444C32.6938 6.35404 22.7573 8.01534 28.3431 15.5702C30.111 17.9642 32.9195 17.2062 33.2016 20.4404C33.4963 23.8641 29.4402 24.2873 31.8601 28.5574C33.3396 31.1915 37.59 30.3071 32.8004 34.0277C30.4182 35.8722 26.2994 34.0277 26.5313 38.62C22.9893 35.3795 21.9361 34.0656 13.8865 34.3688Z" fill="#21004C"/>
<g style="mix-blend-mode:overlay" opacity="0.4">
<path d="M15.5352 15.7976C16.5366 14.8524 17.2743 13.659 17.6748 12.3366C18.0752 11.0142 18.1243 9.60916 17.8172 8.26168C14.7892 6.81515 11.8051 10.8326 11.686 13.8583C9.24105 11.7612 7.76154 14.6858 7.41674 17.1809C4.06277 15.5575 2.55818 24.4389 10.2566 23.9714C10.9588 26.6813 13.6984 27.1677 14.9459 24.4641C17.999 30.1997 24.0675 17.4526 15.5352 16.2524V15.7976Z" fill="#FFE4A1"/>
</g>
<path opacity="0.68" d="M7.30389 7.86999C5.42316 8.83645 3.59885 9.91662 2.53937 11.8685C1.1727 14.3952 0.721329 17.7431 0.552063 20.5603C0.552063 20.952 1.07867 20.9836 1.17897 20.6488C2.67729 16.3344 2.03157 12.0138 6.53278 9.4239C7.95063 8.54313 9.48506 7.86898 11.0904 7.4215C12.2001 7.15619 13.4915 7.33306 13.2595 8.8554C13.1028 9.86608 12.1875 10.6051 11.3788 11.1547C9.63599 12.418 6.65189 12.9423 5.4545 14.8058C4.77743 15.8544 4.59563 17.2946 4.33233 18.4948C4.13172 19.4233 3.96872 22.4174 2.49548 21.691C2.46478 21.6752 2.42989 21.6695 2.39581 21.6749C2.36173 21.6803 2.33024 21.6965 2.30584 21.721C2.28145 21.7456 2.26542 21.7774 2.26007 21.8117C2.25472 21.846 2.26032 21.8812 2.27607 21.9121C3.87469 24.9631 5.37927 17.004 5.54854 16.4797C6.80236 12.5949 13.0213 13.3213 14.0745 9.21545C15.3095 4.56001 9.15954 6.93511 7.30389 7.86999Z" fill="#E6D4A3"/>
<path opacity="0.68" d="M22.6068 12.595C22.6068 12.0833 22.5567 11.5843 22.5504 11.06C22.5493 10.9782 22.5298 10.8978 22.4932 10.8248C22.4566 10.7518 22.4039 10.6882 22.3392 10.6389C22.2745 10.5895 22.1995 10.5557 22.1198 10.54C22.0402 10.5243 21.958 10.5272 21.8796 10.5483C20.8703 10.9147 20.2371 11.4011 20.0553 12.5192C20.038 12.6076 20.0515 12.6994 20.0936 12.779C20.1357 12.8586 20.2037 12.9211 20.2862 12.956C20.3688 12.9909 20.4607 12.9961 20.5466 12.9706C20.6324 12.9451 20.7069 12.8905 20.7574 12.8161C20.9635 12.4889 21.2244 12.2003 21.5285 11.9633C21.5688 12.3834 21.5688 12.8065 21.5285 13.2266C21.4784 13.612 21.9047 13.7825 22.1993 13.7383C23.6099 13.5362 30.0232 12.1528 28.4057 15.2922C27.4779 17.1051 25.3088 16.126 24.0174 17.3894C23.7308 17.7445 23.5061 18.1461 23.3528 18.5769C23.24 18.7917 23.3027 19.1644 23.146 19.3602C22.4313 20.2824 22.099 19.5434 22.0301 18.7727C22.0302 18.6864 22.002 18.6024 21.9498 18.5338C21.8977 18.4653 21.8245 18.416 21.7417 18.3937C19.9362 18.0969 15.761 17.7305 17.4097 14.9258C17.51 14.7616 17.2906 14.6163 17.159 14.73C16.1371 15.5891 15.9052 16.625 16.9458 17.5978C17.5852 18.0801 18.3177 18.4222 19.0961 18.6022C19.5836 18.6924 20.0652 18.8126 20.538 18.9622C21.3655 19.3413 21.2652 19.0507 21.3154 20.194C21.3161 20.2859 21.3465 20.375 21.4019 20.4479C21.4573 20.5208 21.5348 20.5736 21.6226 20.5983C22.3498 20.7372 23.1209 20.9078 23.7353 20.3646C24.638 19.5687 24.1741 18.3937 25.616 17.9073C26.7131 17.5283 27.8164 17.8631 28.7505 16.9472C29.4127 16.2186 29.8027 15.2807 29.8539 14.2942C29.7348 11.2242 24.9765 12.1654 22.6068 12.595Z" fill="#E6D4A3"/>
<path opacity="0.68" d="M15.272 29.9471C15.2331 29.8223 15.1567 29.7127 15.0534 29.6335C14.9501 29.5543 14.825 29.5094 14.6952 29.5049C13.805 29.606 12.9273 29.8018 12.0434 29.9534C12.4007 27.313 11.3036 24.641 8.0876 25.1653C6.42002 25.4306 3.00962 28.3237 5.5298 29.9028C5.55462 29.9158 5.58233 29.9222 5.61029 29.9213C5.63825 29.9204 5.6655 29.9122 5.68943 29.8977C5.71336 29.8831 5.73315 29.8625 5.74692 29.838C5.76068 29.8134 5.76795 29.7857 5.76802 29.7576C5.76802 28.9174 5.4295 28.2226 5.93102 27.433C6.19744 27.0768 6.53463 26.7805 6.92106 26.563C7.30748 26.3455 7.73467 26.2115 8.17536 26.1696C10.9212 25.8033 11.3099 28.3868 10.7332 30.5093C10.7151 30.5975 10.7159 30.6886 10.7356 30.7765C10.7554 30.8644 10.7935 30.947 10.8476 31.0188C10.9016 31.0906 10.9703 31.1499 11.0489 31.1928C11.1276 31.2356 11.2144 31.261 11.3036 31.2673C12.3004 31.1536 13.2659 30.9262 14.2564 30.7809C14.4198 31.3925 14.3864 32.0407 14.1611 32.632C13.9358 33.2234 13.5302 33.7275 13.0026 34.0719C12.8748 34.1584 12.7831 34.2893 12.745 34.4396C12.7068 34.5899 12.7249 34.749 12.7957 34.8868C13.9241 36.5607 11.1845 38.1083 9.87428 38.3673C9.39579 38.4973 8.89223 38.5017 8.41157 38.3801C7.93092 38.2584 7.48918 38.0148 7.12842 37.6724C6.01879 36.5165 6.38866 34.8804 5.94356 33.4844C5.91815 33.4217 5.87477 33.368 5.81894 33.3302C5.76311 33.2924 5.69737 33.2722 5.6301 33.2722C5.56283 33.2722 5.4971 33.2924 5.44127 33.3302C5.38544 33.368 5.34205 33.4217 5.31665 33.4844C5.02867 34.2181 4.94077 35.016 5.06204 35.7955C5.18331 36.5749 5.50934 37.3075 6.00632 37.9171C6.5033 38.5268 7.15312 38.9914 7.88838 39.2627C8.62363 39.534 9.41753 39.6022 10.1877 39.4601C12.1374 39.0432 15.0526 36.9902 14.0809 34.7352C14.7612 34.1701 15.2439 33.4003 15.4582 32.5386C15.6726 31.6769 15.6073 30.7686 15.272 29.9471Z" fill="#E6D4A3"/>
<path opacity="0.68" d="M22.914 1.86912C22.2244 0.953195 20.3687 0.182549 19.5914 1.40168C19.5741 1.43301 19.5652 1.4683 19.5654 1.50413C19.5656 1.53996 19.575 1.57513 19.5927 1.60624C19.6103 1.63735 19.6356 1.66335 19.6661 1.68174C19.6966 1.70013 19.7314 1.71028 19.7669 1.71121C20.28 1.66697 20.796 1.66697 21.3091 1.71121C21.7643 1.85176 22.1496 2.16102 22.3874 2.5766C23.0143 3.60623 22.3874 4.61059 21.3593 4.9896C20.3311 5.3686 18.3752 5.4444 17.8924 4.13683C17.4473 2.93665 18.8454 2.39341 19.7732 2.2734C19.9299 2.2734 19.9989 2.01441 19.8171 1.97019C18.7137 1.71121 17.4724 2.06495 17.1652 3.30303C17.0683 3.8451 17.1751 4.40411 17.4649 4.87119C17.7546 5.33826 18.2065 5.67996 18.7325 5.82973C20.0427 6.30348 21.9924 6.06344 22.9391 4.95169C23.2857 4.5126 23.4723 3.96697 23.4677 3.40594C23.4632 2.84491 23.2677 2.30243 22.914 1.86912Z" fill="#E6D4A3"/>
<path opacity="0.68" d="M38.1793 16.5746C38.0288 16.4672 37.847 16.6504 37.8846 16.802C38.0476 17.4336 38.4426 18.0148 38.5868 18.6654C38.6933 19.1265 38.8689 21.2932 37.9598 21.23C37.6276 21.23 37.2389 20.4593 36.8001 20.3709C34.9569 19.9793 32.2424 22.1712 30.9823 19.834C30.8758 19.6382 30.625 19.7835 30.6501 19.973C30.8569 21.3058 32.1045 21.609 33.2768 21.5711C34.1033 21.5056 34.9244 21.3832 35.7343 21.2047C36.6496 21.0405 36.6872 21.1605 37.3831 21.6658C38.079 22.1712 38.6369 22.0764 39.0507 21.1984C39.7779 19.7203 39.5146 17.6105 38.1793 16.5746Z" fill="#E6D4A3"/>
<path opacity="0.68" d="M42.6617 19.6255C42.7495 17.5473 43.2886 15.2669 40.712 14.4331C40.2418 14.2815 39.9848 14.9637 40.386 15.2164C40.8222 15.4879 41.1836 15.8658 41.4367 16.3151C41.6898 16.7644 41.8264 17.2707 41.8342 17.7873C41.8342 18.419 41.4079 18.9875 41.3953 19.5749C41.4481 20.1255 41.5467 20.6707 41.69 21.2047C41.9721 23.2576 40.9502 25.2158 41.3891 27.2751C41.3891 27.4393 41.6524 27.4203 41.7025 27.2751C42.2106 25.6733 42.5612 24.0251 42.7495 22.3543C42.8623 21.4005 42.6241 20.5098 42.6617 19.6255Z" fill="#E6D4A3"/>
<path opacity="0.68" d="M34.0605 5.75397C33.4336 5.39392 32.7565 5.57078 32.0669 5.59605C31.4764 5.66861 30.8805 5.51286 30.3994 5.16019C30.1549 4.98333 29.9668 4.69276 29.6847 4.5601C28.97 4.21268 28.3431 4.66117 27.8039 5.15388C27.7673 5.19423 27.7458 5.24627 27.7433 5.30093C27.7408 5.35559 27.7574 5.4094 27.7902 5.453C27.823 5.49659 27.87 5.5272 27.9229 5.53949C27.9758 5.55178 28.0313 5.54497 28.0798 5.52025C29.3336 4.79383 29.39 5.43813 30.205 6.01296C30.5976 6.27662 31.0561 6.42331 31.5278 6.43618C32.0607 6.47408 32.6374 6.28457 33.1515 6.37301C33.9727 6.51829 34.2548 7.4216 34.7626 7.9901C34.7886 8.01829 34.8224 8.03787 34.8596 8.04625C34.8968 8.05463 34.9357 8.05141 34.971 8.03702C35.0064 8.02264 35.0366 7.99775 35.0576 7.96568C35.0786 7.93361 35.0894 7.89586 35.0886 7.85745C35.1244 7.44564 35.0475 7.03182 34.8663 6.66096C34.685 6.29011 34.4063 5.97641 34.0605 5.75397Z" fill="#E6D4A3"/>
<path opacity="0.68" d="M17.6668 44.2419C17.3892 44.0364 17.0578 43.9178 16.7139 43.9008C16.4624 43.9072 16.213 43.8533 15.9862 43.7435C15.7595 43.6336 15.5619 43.471 15.4099 43.2691C15.3361 43.1966 15.2371 43.156 15.134 43.156C15.031 43.156 14.932 43.1966 14.8582 43.2691C14.4319 43.7744 13.8363 44.204 13.41 43.4523C13.2879 43.2155 13.2154 42.9559 13.1971 42.6896C13.1787 42.4234 13.2149 42.1562 13.3035 41.9047C13.3599 41.7594 13.1279 41.6646 13.059 41.7973C12.6201 42.6185 12.3067 43.5723 13.1029 44.324C13.7799 44.9557 14.5636 44.6461 15.1403 44.1092C15.4868 44.3911 15.8984 44.58 16.3369 44.6584C16.7754 44.7368 17.2264 44.7022 17.648 44.5577C17.6828 44.5502 17.7142 44.5313 17.7373 44.5041C17.7605 44.4769 17.7742 44.4428 17.7764 44.407C17.7785 44.3712 17.7689 44.3357 17.7492 44.3058C17.7294 44.276 17.7004 44.2536 17.6668 44.2419Z" fill="#E6D4A3"/>
<path opacity="0.68" d="M2.00653 27.6478C2.0141 26.9168 1.968 26.1863 1.86861 25.4622C1.86861 25.3864 1.53635 24.7105 1.53635 24.7042C1.53635 24.6978 1.53636 24.6347 1.48621 24.6663C0.953333 25.3674 1.02229 25.9296 1.05364 26.8771C1.11633 28.4563 0.9596 30.1871 1.31694 31.7347C1.32963 31.7717 1.35242 31.8044 1.38269 31.829C1.41297 31.8536 1.4495 31.8691 1.48811 31.8737C1.52672 31.8783 1.56584 31.8719 1.60099 31.8551C1.63613 31.8383 1.66588 31.8119 1.68681 31.7789C2.4203 30.6735 2.08176 28.8859 2.00653 27.6478Z" fill="#E6D4A3"/>
<path opacity="0.68" d="M30.694 30.983C29.5969 25.5633 21.4909 30.6798 23.8481 33.9267C23.8517 33.9363 23.8581 33.9447 23.8665 33.9506C23.8749 33.9564 23.8849 33.9596 23.8951 33.9596C23.9054 33.9596 23.9153 33.9564 23.9237 33.9506C23.9322 33.9447 23.9386 33.9363 23.9421 33.9267C23.9735 31.8548 25.8918 28.7406 28.4935 29.3281C30.1673 29.7071 29.9229 31.6779 30.205 32.9097C30.5811 34.5899 31.603 36.5165 30.6689 38.2031C29.8414 39.6875 27.4842 40.9509 25.8605 40.635C25.5533 40.5782 25.3401 40.9951 25.6411 41.1656C27.4591 42.2016 30.0294 40.4582 31.1328 39.0179C32.8693 36.706 31.1892 33.4529 30.694 30.983Z" fill="#E6D4A3"/>
</svg>
