<svg width="70" height="37" viewBox="0 0 70 37" fill="none" xmlns="http://www.w3.org/2000/svg">
<g clip-path="url(#clip0_1_11220)">
<path d="M49.7527 28.6882C55.2545 20.1626 52.9582 8.6889 44.6237 3.06091C36.2893 -2.56708 25.0727 -0.218113 19.5709 8.30747C14.069 16.833 16.3653 28.3068 24.6998 33.9348C33.0343 39.5628 44.2508 37.2138 49.7527 28.6882Z" fill="#E5B883"/>
<path d="M49.7527 28.6882C55.2545 20.1626 52.9582 8.6889 44.6237 3.06091C36.2893 -2.56708 25.0727 -0.218113 19.5709 8.30747C14.069 16.833 16.3653 28.3068 24.6998 33.9348C33.0343 39.5628 44.2508 37.2138 49.7527 28.6882Z" fill="#E5B883"/>
<g style="mix-blend-mode:multiply" opacity="0.41">
<path d="M28.5387 25.0832C24.9529 25.4959 21.549 25.7808 18.1166 25.961C19.405 28.9456 21.4419 31.5286 24.021 33.4482C29.0559 34.7619 34.9261 35.1398 36.7844 32.7506C34.3408 32.6692 31.7665 32.4018 29.5105 31.3846C31.2949 32.0763 37.6197 31.8205 38.9097 30.2568C38.3926 30.2045 37.9323 30.0127 37.4208 29.9371C40.7964 29.3558 49.0023 29.1523 50.923 26.0482C48.9454 25.8331 46.9735 27.3387 45.1664 26.211C46.8712 25.1123 49.4285 25.0483 51.7357 24.5833C52.0047 23.8054 52.2193 23.009 52.3778 22.2C47.0588 23.3626 41.1033 27.5131 36.3241 25.3506C38.5403 24.2694 41.9045 24.874 43.5809 22.7464C41.2681 22.2755 38.3812 24.1066 36.1024 24.7519C32.4541 25.7808 28.1466 27.1294 24.3676 26.8446C25.7258 26.5946 27.584 25.9436 28.5387 25.0832Z" fill="#AC2024"/>
</g>
<g style="mix-blend-mode:multiply" opacity="0.41">
<path d="M17.6165 12.3353L17.4972 12.6783C19.9123 12.097 23.231 10.0973 25.7371 9.38226C29.2491 8.37661 32.6871 8.62076 36.2502 8.34754C34.3124 8.48124 32.7667 9.73686 31.1357 10.5449C33.2781 10.9053 35.591 9.74849 37.6141 9.11487C41.2567 7.95226 45.0016 6.71408 48.0874 6.11534C47.8146 5.81306 47.5191 5.53403 47.252 5.23176C41.7873 4.86216 36.301 5.01005 30.863 5.67355C25.3223 6.25486 22.1627 10.1554 17.6165 12.3353Z" fill="#AC2024"/>
</g>
<g style="mix-blend-mode:multiply" opacity="0.41">
<path d="M16.9346 22.107C19.1395 22.0198 22.6628 20.5956 23.9812 20.398C25.9337 20.0866 27.9042 19.908 29.8799 19.8632C30.5643 20.0984 31.2834 20.2105 32.0052 20.1945C32.3916 20.1945 32.778 20.1364 33.1417 20.0841L33.5225 20.1538L33.1815 20.0783C35.7331 19.7295 38.296 18.6715 40.5407 17.7531C44.0469 16.2882 48.5761 15.5034 52.0596 13.5851C51.9914 13.3235 51.9118 13.0619 51.8323 12.8062C47.3569 14.8209 42.7707 16.5677 38.0971 18.0379C36.523 18.5378 33.7839 19.9736 31.7722 19.8283L30.8686 19.6307C26.2827 17.7356 33.4373 14.2362 33.8805 17.2357C33.5566 16.323 30.863 16.9741 31.4937 18.7122C33.0395 18.5669 35.4205 18.1309 36.1479 16.6195C34.1703 15.6197 29.8685 13.9281 28.3 16.5149C27.584 17.6775 27.8738 18.6076 28.5955 19.2238C25.0381 19.2819 20.1339 19.2238 16.7016 20.8921C16.747 21.2176 16.7925 21.5432 16.8493 21.8687C16.8948 21.9094 16.8948 22.0082 16.9346 22.107Z" fill="#AC2024"/>
</g>
<path opacity="0.82" d="M22.8219 6.10949C22.3729 6.25482 21.6342 6.42921 20.7875 6.64429C19.9409 7.68369 19.2073 8.81419 18.5996 10.0159C19.8214 9.4985 20.9523 8.89975 21.2762 8.73117C23.7435 7.39323 26.3318 6.30303 29.0047 5.47586C32.8065 4.4237 36.7048 4.9527 40.4895 4.34814C39.2393 3.76684 37.2617 4.05167 36.165 3.35411C38.4722 1.78459 42.1489 3.24947 45.3199 3.56919C44.3004 2.80474 43.2052 2.15203 42.0523 1.62183C40.2622 1.62183 38.5233 1.78459 37.1935 1.89504C32.7212 2.27289 28.7319 3.78428 22.8219 6.10949Z" fill="#FFEACC"/>
<path opacity="0.82" d="M40.552 18.9214C41.7909 18.9505 43.0467 18.5726 44.314 18.7354C41.6545 21.0141 36.5968 21.2117 33.2554 21.4908C28.0727 21.9209 22.4582 22.6185 17.4005 23.9962V24.0369C23.2197 24.1473 29.6355 21.7465 35.4603 22.415C34.7954 23.8509 32.4427 24.0834 31.1471 25.0774C33.8009 26.333 38.9268 22.8045 41.4613 21.7756C44.8709 20.3921 49.2125 19.3109 52.696 17.4565C52.6619 16.9101 52.6108 16.352 52.5256 15.7998C48.5136 16.8229 43.8423 17.1077 40.552 18.9214Z" fill="#FFEACC"/>
<path opacity="0.82" d="M42.524 11.4109C41.8534 13.7361 39.1143 13.2304 37.4436 14.0849C38.995 14.5848 40.6032 13.242 42.1148 13.5443C41.6374 14.6604 40.2509 15.2882 39.3303 16.1892C42.0182 15.8463 44.4845 14.4163 46.8031 13.0793C47.9737 12.4049 49.6046 11.6434 51.0935 10.754C50.8154 10.1286 50.5004 9.52097 50.1502 8.93457C48.61 8.93789 47.0713 9.03105 45.5415 9.21359C43.2229 9.59725 40.9214 10.1553 38.654 10.7599C35.0171 11.7306 31.4653 11.9225 27.8966 12.7479C28.4648 12.8293 28.9763 13.1432 29.5048 13.2653C27.1692 16.2706 18.9463 14.7709 16.6107 17.4332C16.6107 17.6251 16.6107 17.8111 16.6107 18.0145C25.328 16.788 33.7782 12.062 42.524 11.4109Z" fill="#FFEACC"/>
<path opacity="0.82" d="M43.9048 32.1635C42.2398 32.0356 37.9948 34.0353 37.0287 35.2793C39.3416 36.3489 48.0248 31.8322 48.809 29.4662C46.7746 29.0303 41.5749 31.1346 39.8417 32.4658C40.302 32.646 40.6032 32.4658 41.1203 32.4193L43.9048 32.1635Z" fill="#FFEACC"/>
<g style="mix-blend-mode:screen" opacity="0.23">
<path d="M31.4312 0.302286C26.7128 1.18055 22.5286 3.93965 19.7984 7.97295C17.0682 12.0063 16.0156 16.9836 16.872 21.8105C16.9573 22.293 17.0709 22.7697 17.1903 23.2347C17.7166 23.7217 18.2875 24.1558 18.8951 24.531C25.1745 28.4258 31.9654 26.9202 37.4265 22.4732C41.5295 19.154 44.5356 14.1315 44.3879 8.644C44.2913 4.98179 42.882 2.59844 40.677 1.05798C37.7119 -0.0124668 34.5249 -0.272947 31.4312 0.302286Z" fill="#FFEACC"/>
</g>
<g style="mix-blend-mode:screen" opacity="0.28">
<path d="M28.7205 3.11C21.4523 2.95886 17.3551 15.2418 23.1799 19.5493C36.307 29.2047 43.0354 -1.68576 28.7205 3.11Z" fill="#FFEACC"/>
</g>
<g style="mix-blend-mode:multiply" opacity="0.21">
<path d="M52.4517 15.1952C51.8051 11.5692 50.1084 8.22557 47.5816 5.5979C47.6213 5.80136 47.6498 6.01062 47.6782 6.21408C48.084 9.60421 47.6744 13.0444 46.4848 16.2358C42.7001 26.4493 32.3462 31.8089 22.1059 29.5244C21.4182 29.3674 20.526 29.0535 19.5543 28.7164C21.8501 32.2733 25.2763 34.91 29.2535 36.1807C33.2307 37.4514 37.5149 37.2781 41.3816 35.69C45.2482 34.102 48.4602 31.1968 50.4742 27.4655C52.4882 23.7343 53.1807 19.406 52.4346 15.2127L52.4517 15.1952Z" fill="#AC2024"/>
</g>
<g style="mix-blend-mode:multiply" opacity="0.28">
<path d="M52.4517 15.1953C52.1442 13.457 51.593 11.7732 50.815 10.196C50.2468 12.5213 50.0933 15.0267 49.7524 17.3519C49.15 21.4501 47.4793 23.5021 44.3538 26.2458C40.3759 29.7337 35.1762 32.896 29.7946 32.8553C27.4476 32.8553 25.1802 32.2275 22.9298 32.5704C24.6903 34.1106 26.721 35.2942 28.9138 36.0583C30.6213 36.0817 32.3287 36.008 34.0282 35.8374C43.0411 34.8724 49.4 29.2454 52.5426 21.4268C52.8577 19.3594 52.827 17.2522 52.4517 15.1953Z" fill="#AC2024"/>
</g>
<g style="mix-blend-mode:screen" opacity="0.74">
<path d="M44.2458 2.83099C44.8888 3.23944 45.5039 3.69195 46.087 4.18543C54.793 2.87168 61.2713 3.88314 62.4647 7.30121C64.2889 12.5329 53.1336 21.3571 37.5572 27.0656C21.9808 32.774 7.8706 33.146 6.05213 27.9317C4.84738 24.4904 9.30265 19.4621 16.9516 14.8117C17.0934 14.112 17.2736 13.4211 17.4915 12.7422C5.77366 19.0436 -1.43205 26.3099 0.238673 31.0998C2.48336 37.4941 19.8669 37.0465 39.0632 30.0302C58.2595 23.0139 72.0231 12.1202 69.75 5.69682C68.0395 0.790609 57.5946 -0.104596 44.2458 2.83099Z" fill="#FFE4CC"/>
</g>
<g style="mix-blend-mode:screen" opacity="0.74">
<path d="M37.3526 26.6585C52.2414 21.1652 62.8625 12.7479 61.0724 7.85915C59.9756 4.85381 54.4349 3.88303 46.8655 4.85381C47.3934 5.34444 47.8925 5.86659 48.3601 6.41752C52.1334 6.4524 54.7475 7.35342 55.401 9.14965C56.8558 13.12 48.2351 19.9503 36.1536 24.4031C24.0721 28.8559 13.0987 29.2511 11.6496 25.2866C10.8938 23.223 12.8657 20.3804 16.6334 17.5088C16.66 16.913 16.7188 16.3192 16.8095 15.73C9.93341 20.0491 6.01232 24.6181 7.14887 27.7397C8.93893 32.6343 22.4411 32.146 37.3526 26.6585Z" fill="#EDCBAE"/>
</g>
</g>
<defs>
<clipPath id="clip0_1_11220">
<rect width="70" height="37" fill="white"/>
</clipPath>
</defs>
</svg>
