<svg width="1099" height="611" viewBox="0 0 1099 611" fill="none" xmlns="http://www.w3.org/2000/svg">
<path d="M781.117 473.743C867.496 332.955 831.444 143.484 700.593 50.5457C569.742 -42.3922 393.642 -3.6025 307.263 137.185C220.884 277.972 256.936 467.443 387.788 560.381C518.639 653.319 694.739 614.53 781.117 473.743Z" fill="#E5B883"/>
<path d="M781.117 473.743C867.496 332.955 831.444 143.484 700.593 50.5457C569.742 -42.3922 393.642 -3.6025 307.263 137.185C220.884 277.972 256.936 467.443 387.788 560.381C518.639 653.319 694.739 614.53 781.117 473.743Z" fill="#E5B883"/>
<g style="mix-blend-mode:multiply" opacity="0.41">
<path d="M448.058 414.213C391.761 421.028 338.318 425.732 284.43 428.708C304.658 477.994 336.638 520.649 377.129 552.348C456.177 574.042 548.34 580.282 577.515 540.829C539.151 539.485 498.734 535.069 463.314 518.27C491.329 529.693 590.63 525.47 610.883 499.647C602.764 498.783 595.537 495.615 587.507 494.368C640.503 484.768 769.336 481.408 799.492 430.148C768.443 426.596 737.484 451.458 709.113 432.836C735.879 414.693 776.027 413.637 812.25 405.957C816.474 393.112 819.843 379.96 822.332 366.6C738.823 385.799 645.321 454.338 570.288 418.629C605.083 400.774 657.901 410.757 684.221 375.623C647.908 367.848 602.585 398.086 566.808 408.741C509.53 425.732 441.902 448.003 382.571 443.299C403.894 439.171 433.069 428.42 448.058 414.213Z" fill="#AC2024"/>
</g>
<g style="mix-blend-mode:multiply" opacity="0.41">
<path d="M276.579 203.699L274.706 209.362C312.624 199.763 364.728 166.741 404.073 154.934C459.21 138.327 513.188 142.359 569.128 137.847C538.705 140.055 514.437 160.789 488.831 174.132C522.467 180.084 558.779 160.981 590.541 150.518C647.73 131.319 706.526 110.873 754.972 100.985C750.689 95.9937 746.05 91.3859 741.856 86.3943C656.062 80.2909 569.926 82.7332 484.549 93.6899C397.56 103.289 347.954 167.701 276.579 203.699Z" fill="#AC2024"/>
</g>
<g style="mix-blend-mode:multiply" opacity="0.41">
<path d="M265.873 365.064C300.49 363.624 355.806 340.106 376.504 336.842C407.159 331.701 438.097 328.75 469.114 328.01C479.859 331.894 491.149 333.745 502.482 333.482C508.549 333.482 514.615 332.522 520.325 331.658L526.303 332.81L520.95 331.562C561.009 325.803 601.247 308.332 636.489 293.165C691.537 268.974 762.644 256.015 817.336 224.337C816.265 220.018 815.016 215.698 813.767 211.474C743.503 244.744 671.501 273.591 598.124 297.868C573.411 306.124 530.407 329.834 498.824 327.435L484.638 324.171C412.638 292.877 524.965 235.089 531.924 284.621C526.839 269.55 484.549 280.302 494.452 309.004C518.72 306.604 556.102 299.404 567.522 274.446C536.474 257.935 468.935 230.001 444.311 272.718C433.069 291.917 437.619 307.276 448.95 317.451C393.099 318.411 316.103 317.451 262.215 345.001C262.929 350.377 263.642 355.753 264.535 361.128C265.248 361.8 265.248 363.432 265.873 365.064Z" fill="#AC2024"/>
</g>
<path opacity="0.82" d="M358.304 100.889C351.256 103.289 339.657 106.169 326.364 109.721C313.072 126.885 301.554 145.554 292.014 165.397C311.196 156.854 328.951 146.966 334.036 144.183C372.773 122.088 413.409 104.085 455.374 90.426C515.062 73.0512 576.266 81.7867 635.686 71.8034C616.058 62.204 585.009 66.9076 567.79 55.3884C604.013 29.4701 661.738 53.6604 711.522 58.9401C695.516 46.3163 678.321 35.5379 660.221 26.7823C632.117 26.7823 604.816 29.4701 583.939 31.294C513.723 37.5336 451.092 62.492 358.304 100.889Z" fill="#FFEACC"/>
<path opacity="0.82" d="M636.667 312.46C656.117 312.939 675.834 306.7 695.73 309.388C653.976 347.017 574.571 350.281 522.11 354.889C440.742 361.992 352.594 373.511 273.189 396.262V396.934C364.549 398.758 465.278 359.112 556.727 370.152C546.288 393.862 509.351 397.702 489.01 414.117C530.675 434.851 611.151 376.583 650.942 359.592C704.474 336.746 772.637 318.891 827.328 288.269C826.793 279.246 825.99 270.03 824.652 260.911C761.663 277.806 688.325 282.509 636.667 312.46Z" fill="#FFEACC"/>
<path opacity="0.82" d="M667.626 188.436C657.098 226.833 614.095 218.482 587.865 232.593C612.221 240.848 637.47 218.674 661.203 223.665C653.708 242.096 631.939 252.464 617.485 267.343C659.686 261.679 698.407 238.064 734.808 215.986C753.187 204.851 778.793 192.275 802.168 177.588C797.802 167.26 792.856 157.226 787.358 147.542C763.177 147.597 739.019 149.136 715.002 152.15C678.6 158.486 642.467 167.701 606.868 177.684C549.768 193.715 494.006 196.883 437.976 210.514C446.898 211.858 454.928 217.042 463.226 219.058C426.557 268.686 297.457 243.92 260.788 287.885C260.788 291.053 260.788 294.125 260.788 297.485C397.65 277.23 530.318 199.187 667.626 188.436Z" fill="#FFEACC"/>
<path opacity="0.82" d="M689.306 531.133C663.165 529.021 596.518 562.043 581.351 582.586C617.663 600.249 753.99 525.662 766.302 486.592C734.362 479.393 652.726 514.142 625.515 536.125C632.741 539.101 637.47 536.125 645.589 535.357L689.306 531.133Z" fill="#FFEACC"/>
<g style="mix-blend-mode:screen" opacity="0.23">
<path d="M493.47 4.99168C419.392 19.4949 353.699 65.0574 310.835 131.661C267.971 198.265 251.445 280.458 264.891 360.168C266.23 368.136 268.014 376.007 269.888 383.687C278.151 391.729 287.114 398.898 296.653 405.094C395.24 469.409 501.857 444.547 587.597 371.112C652.013 316.299 699.21 233.361 696.89 142.743C695.373 82.2667 673.247 42.9092 638.63 17.4709C592.077 -0.20599 542.042 -4.50743 493.47 4.99168Z" fill="#FFEACC"/>
</g>
<g style="mix-blend-mode:screen" opacity="0.28">
<path d="M450.913 51.3566C336.802 48.8608 272.475 251.695 363.925 322.827C570.021 482.272 675.656 -27.8382 450.913 51.3566Z" fill="#FFEACC"/>
</g>
<g style="mix-blend-mode:multiply" opacity="0.21">
<path d="M823.492 250.928C813.34 191.049 786.702 135.834 747.031 92.442C747.656 95.8017 748.102 99.2575 748.548 102.617C754.92 158.6 748.488 215.41 729.812 268.11C670.392 436.771 507.835 525.278 347.062 487.552C336.267 484.96 322.259 479.777 307.003 474.209C343.047 532.946 396.838 576.487 459.28 597.471C521.722 618.455 588.984 615.593 649.691 589.369C710.398 563.145 760.825 515.169 792.445 453.553C824.065 391.937 834.938 320.462 823.224 251.215L823.492 250.928Z" fill="#AC2024"/>
</g>
<g style="mix-blend-mode:multiply" opacity="0.28">
<path d="M823.492 250.928C818.664 222.222 810.01 194.417 797.797 168.373C788.875 206.771 786.466 248.144 781.113 286.541C771.656 354.217 745.425 388.103 696.355 433.412C633.902 491.008 552.266 543.228 467.776 542.556C430.928 542.556 395.33 532.189 359.999 537.853C387.638 563.286 419.52 582.832 453.947 595.449C480.755 595.837 507.562 594.619 534.244 591.801C675.745 575.866 775.581 482.944 824.92 353.833C829.867 319.692 829.384 284.894 823.492 250.928Z" fill="#AC2024"/>
</g>
<g style="mix-blend-mode:screen" opacity="0.74">
<path d="M694.66 46.749C704.753 53.4939 714.411 60.9665 723.566 69.1155C860.25 47.4209 961.96 64.1237 980.696 120.568C1009.34 206.962 834.198 352.681 589.649 446.947C345.099 541.212 123.569 547.356 95.0185 461.25C76.1041 404.421 146.052 321.387 266.141 244.592C268.367 233.038 271.196 221.629 274.616 210.418C90.6466 314.475 -22.483 434.467 3.74736 513.566C38.9889 619.159 311.91 611.768 613.292 495.904C914.674 380.039 1130.76 200.147 1095.07 94.0738C1068.22 13.0551 904.235 -1.72788 694.66 46.749Z" fill="#FFE4CC"/>
</g>
<g style="mix-blend-mode:screen" opacity="0.74">
<path d="M586.437 440.227C820.19 349.513 986.941 210.514 958.837 129.783C941.617 80.1547 854.629 64.1237 735.789 80.1547C744.077 88.2567 751.913 96.8792 759.254 105.977C818.495 106.553 859.536 121.432 869.796 151.094C892.636 216.658 757.291 329.45 567.612 402.982C377.932 476.513 205.65 483.04 182.899 417.572C171.033 383.495 201.992 336.554 261.144 289.133C261.562 279.294 262.485 269.488 263.91 259.759C155.955 331.082 94.3938 406.533 112.238 458.082C140.342 538.909 352.326 530.845 586.437 440.227Z" fill="#EDCBAE"/>
</g>
</svg>
