<svg width="120" height="121" viewBox="0 0 120 121" fill="none" xmlns="http://www.w3.org/2000/svg">
<g clip-path="url(#clip0_1_3763)">
<path d="M117.552 77.4015C126.818 45.3263 108.542 11.7502 76.7316 2.40715C44.9215 -6.93585 11.6228 11.4922 2.35703 43.5675C-6.90876 75.6427 11.3671 109.219 43.1772 118.562C74.9874 127.905 108.286 109.477 117.552 77.4015Z" fill="#3264AE"/>
<g style="mix-blend-mode:multiply">
<path d="M43.1025 30.3801C49.8295 31.385 56.4852 32.982 63.319 33.1615C70.1528 33.3409 76.0612 31.367 82.45 29.0163C85.5982 27.6913 88.9182 26.8272 92.3091 26.4502C96.3844 26.1631 99.8725 27.7243 103.521 29.3573C106.361 30.7211 109.468 31.4262 112.615 31.4209L112.348 30.9543C110.909 31.0025 109.471 30.8455 108.077 30.4878C103.289 29.2137 99.1784 26.0555 94.1777 25.8581C88.6964 25.6427 83.4999 28.0652 78.517 29.9315C72.1404 32.3011 65.2961 33.1069 58.5496 32.2822C52.6591 31.6542 46.8753 30.093 40.9847 29.5546C33.0476 28.8369 24.9681 32.5155 17.7072 34.938C13.3402 36.5405 8.8099 37.6479 4.19991 38.2398L3.8974 38.9755C16.6573 38.0962 31.0189 28.6036 43.1025 30.3801Z" fill="#3264AE"/>
</g>
<g style="mix-blend-mode:multiply">
<path d="M16.159 101.799C21.3572 101.631 26.537 101.092 31.6595 100.184C35.1119 99.6101 38.5822 98.677 42.0703 98.3899C47.3024 97.8516 51.9472 99.8434 56.6988 101.692C66.9672 105.711 76.9865 104.688 87.5575 102.463C93.9997 101.1 100.495 99.8075 106.938 98.2463L107.56 97.4388C103.005 98.5693 98.3954 99.5922 93.7684 100.561C82.5567 102.876 71.0248 105.945 59.7597 102.212C55.6488 100.812 51.7337 98.7488 47.427 98.0131C43.9737 97.6106 40.4768 97.8417 37.1052 98.695C30.0725 100.181 22.9294 101.076 15.7497 101.369L16.159 101.799Z" fill="#3264AE"/>
</g>
<g style="mix-blend-mode:screen" opacity="0.47">
<path d="M88.1091 82.0962C87.0414 82.3116 87.4685 83.8907 88.4295 83.8907C94.0353 83.8907 99.6589 83.2088 105.211 84.0343C102.417 86.0082 97.9861 85.721 94.8005 86.708C89.7108 88.305 85.5998 91.0506 80.0474 90.2969C76.9965 89.6243 73.8524 89.4968 70.7578 89.9201C65.2766 90.925 62.4469 91.8581 57.3038 89.3638C50.6302 86.1158 43.3516 87.5693 36.2509 88.2153C35.0407 88.323 22.7792 88.2153 22.9749 90.0098V90.4225C22.9859 90.6617 23.059 90.8937 23.1871 91.0953C23.3152 91.2969 23.4937 91.461 23.7046 91.571C30.4671 94.478 38.2085 92.845 45.327 92.7732C52.4455 92.7015 59.208 96.8467 66.0418 95.1419C67.9993 94.6574 69.8145 93.7243 71.7899 93.3475C74.9754 92.6476 77.6983 93.509 80.8126 93.7961C84.1034 94.027 87.3983 93.4095 90.387 92.0016C94.5167 90.3267 98.7792 89.0061 103.129 88.0538C104.313 87.8205 105.436 87.343 106.428 86.6513C107.421 85.9596 108.26 85.0686 108.895 84.0343C108.974 83.8604 109.013 83.6711 109.011 83.4799C109.008 83.2888 108.964 83.1006 108.88 82.929C108.797 82.7573 108.677 82.6064 108.528 82.4873C108.38 82.3681 108.208 82.2836 108.023 82.2398C101.463 80.8359 94.6886 80.787 88.1091 82.0962Z" fill="#60BFEE"/>
</g>
<g style="mix-blend-mode:screen" opacity="0.47">
<path d="M82.8058 36.8222C76.6127 38.4372 70.5621 36.9657 64.3512 37.8989C58.9055 38.7064 54.9014 44.2871 49.3312 43.7308C45.1668 43.3181 41.0559 41.9364 36.8738 41.6313C32.218 41.1493 27.5217 41.2337 22.8859 41.8825C17.031 42.8157 5.08972 45.615 4.39566 53.0799C4.28888 54.049 5.07192 55.1077 6.17529 54.6949C9.18285 53.5286 11.6743 51.447 14.6819 50.2806C18.4697 49.0207 22.3575 48.0902 26.3028 47.4992C30.307 46.6917 34.3111 45.9201 38.4042 45.4894C42.4974 45.0587 46.6973 46.7814 50.8616 46.2431C54.4209 45.7945 56.2005 43.7129 58.8877 41.8646C64.2266 38.2757 70.2417 39.5498 76.239 39.4242C86.5252 39.1729 96.3132 31.403 105.888 38.5628C106.022 38.6842 106.199 38.7467 106.379 38.7366C106.559 38.7265 106.728 38.6446 106.849 38.509C106.969 38.3734 107.031 38.1951 107.021 38.0133C107.011 37.8316 106.93 37.6613 106.795 37.54C100.015 30.739 90.6184 34.7945 82.8058 36.8222Z" fill="#60BFEE"/>
</g>
<g style="mix-blend-mode:screen" opacity="0.47">
<path d="M89.7464 58.4274C85.3329 59.3247 82.2542 62.3214 77.5204 62.7521C72.7866 63.1827 68.035 62.3573 63.2834 62.4111C53.6378 62.4111 44.6507 64.9951 35.3433 67.1844C25.0307 69.3611 14.5938 70.8893 4.09311 71.7602C2.09993 71.9756 1.58385 75.1338 3.77279 75.4927C14.1124 77.2871 24.7546 74.9364 34.5959 71.7423C45.7541 68.1534 55.7912 64.5644 67.7503 64.7618C72.3595 64.7618 77.1645 65.4437 81.6313 63.9543C86.7922 62.1599 90.2625 59.1632 96.1708 60.1501C103.289 61.3344 110.283 64.0082 116.138 58.1941C116.637 57.7096 115.889 56.7945 115.32 57.2431C106.706 64.2594 98.8937 56.5253 89.7464 58.4274Z" fill="#60BFEE"/>
</g>
<g style="mix-blend-mode:screen" opacity="0.47">
<path d="M65.0274 15.9886C61.5927 16.5269 59.7953 19.2007 57.0547 21.0669C50.0786 25.8043 42.9245 22.1974 35.4323 21.5693C29.9886 21.1581 24.5215 21.9543 19.4157 23.9021C19.4157 23.9021 19.4157 24.0277 19.4157 24.0098C27.5308 21.2284 34.7383 21.7308 43.0491 23.2202C47.5338 24.0277 51.9472 24.5481 55.9691 22.0897C57.8911 20.9233 59.2793 19.093 61.1301 17.8548C64.4224 15.6656 67.946 15.9168 71.5764 17.0652C76.3814 18.5905 79.7805 19.9184 84.0338 16.5628C84.0338 16.5628 84.0338 16.4013 84.0338 16.4551C77.6627 22.0359 71.701 14.9299 65.0274 15.9886Z" fill="#60BFEE"/>
</g>
<g style="mix-blend-mode:screen" opacity="0.47">
<path d="M91.2413 105.442C88.5541 111.328 83.7313 109.462 78.7839 110.215C74.4239 110.897 71.5764 114.558 67.4121 115.724C61.1301 117.519 56.0047 113.697 49.9362 112.728C45.4525 112.058 40.9045 111.944 36.3932 112.387C36.3932 112.387 36.3932 112.512 36.3932 112.512C43.6278 111.921 50.9047 112.875 57.7487 115.312C61.6283 116.586 65.2943 117.321 69.1383 115.527C71.6298 114.361 73.5874 112.297 76.1678 111.256C79.0508 110.09 81.6491 110.556 84.6567 110.341C86.1335 110.355 87.5761 109.892 88.7736 109.02C89.9711 108.149 90.8607 106.914 91.3125 105.496C91.3125 105.496 91.2769 105.37 91.2413 105.442Z" fill="#60BFEE"/>
</g>
<g style="mix-blend-mode:screen" opacity="0.3">
<path d="M16.3903 54.1207C15.5851 54.4097 14.9249 55.0063 14.552 55.7818C14.1791 56.5573 14.1235 57.4495 14.3972 58.2659C14.4358 58.8643 14.6078 59.4462 14.9006 59.9682C15.1933 60.4902 15.5991 60.9388 16.0878 61.2806C18.3463 62.8178 21.0155 63.6252 23.7402 63.5955C25.1709 64.0349 26.6997 64.0302 28.1278 63.5822C29.5559 63.1342 30.8175 62.2635 31.7485 61.0832C32.2846 60.4479 32.5609 59.6308 32.5212 58.7976C32.4815 57.9644 32.1289 57.1776 31.5349 56.5971C27.7088 52.739 21.3021 52.2186 16.3903 54.1207Z" fill="#60BFEE"/>
</g>
<g style="mix-blend-mode:screen" opacity="0.3">
<path d="M40.2017 57.8173C40.2206 58.2075 40.3924 58.5743 40.6795 58.8368C40.9665 59.0992 41.3451 59.236 41.7321 59.217C42.1192 59.1979 42.4829 59.0246 42.7432 58.7352C43.0035 58.4458 43.1391 58.064 43.1202 57.6737C43.1014 57.2835 42.9296 56.9168 42.6425 56.6543C42.3555 56.3918 41.9768 56.255 41.5898 56.2741C41.2028 56.2931 40.8391 56.4664 40.5788 56.7558C40.3184 57.0452 40.1828 57.427 40.2017 57.8173Z" fill="#60BFEE"/>
</g>
<g style="mix-blend-mode:screen" opacity="0.3">
<path d="M88.6964 43.4976C84.2118 41.7031 77.1289 42.2414 78.1789 48.1272C79.1933 53.708 86.383 53.5106 91.3125 52.0751C96.9006 56.5791 107.756 55.664 106.119 46.6917C104.589 38.1142 92.7184 37.2529 88.6964 43.4976Z" fill="#60BFEE"/>
</g>
<g style="mix-blend-mode:screen" opacity="0.3">
<path d="M87.7889 38.186C87.5275 38.3499 87.3355 38.6057 87.25 38.9039C87.1646 39.2022 87.1918 39.5217 87.3262 39.801C87.3824 39.9678 87.4889 40.1126 87.631 40.2152C87.773 40.3178 87.9434 40.373 88.1181 40.373C88.2928 40.373 88.4631 40.3178 88.6052 40.2152C88.7472 40.1126 88.8538 39.9678 88.9101 39.801L89.0345 39.7113C89.1367 39.6201 89.2212 39.5105 89.2837 39.3883C89.3535 39.2785 89.3906 39.1508 89.3906 39.0204C89.3906 38.89 89.3535 38.7623 89.2837 38.6525C89.1408 38.3969 88.9063 38.2062 88.6283 38.1194C88.3503 38.0326 88.05 38.0565 87.7889 38.186Z" fill="#60BFEE"/>
</g>
<g style="mix-blend-mode:screen" opacity="0.3">
<path d="M67.3587 72.7471C67.0058 72.9815 66.6933 73.2725 66.4334 73.6085C65.1539 74.1906 64.0039 75.0267 63.052 76.0669C62.7446 76.4091 62.5247 76.8218 62.4114 77.2692C62.177 77.3737 61.9559 77.5063 61.7529 77.664C61.6637 77.7259 61.5911 77.8091 61.5415 77.9061C61.4918 78.0032 61.4666 78.111 61.4681 78.2202C61.9664 81.8091 66.3266 84.5367 69.7613 85.0392C71.7271 85.2574 73.7018 84.7158 75.2872 83.5236C76.8725 82.3313 77.9504 80.5772 78.3034 78.615C78.6771 75.2414 75.6695 73.2316 72.6976 72.783C72.3834 72.7659 72.0686 72.7659 71.7544 72.783C71.087 72.3954 70.3315 72.1884 69.5613 72.1822C68.7911 72.1759 68.0323 72.3705 67.3587 72.7471Z" fill="#60BFEE"/>
</g>
<g style="mix-blend-mode:screen" opacity="0.3">
<path d="M102.684 68.8891C102.731 69.7346 102.955 70.5605 103.343 71.3116C103.445 71.5091 103.558 71.7008 103.681 71.8858C103.739 72.0091 103.805 72.1289 103.877 72.2447C103.877 72.2447 104.161 72.8189 103.877 72.3524C104.072 72.9418 104.489 73.4302 105.039 73.7122C105.588 73.9942 106.225 74.0472 106.813 73.8597C107.938 73.4085 108.882 72.5945 109.5 71.5449C109.701 71.15 109.781 70.704 109.73 70.2632C109.68 69.8224 109.501 69.4066 109.215 69.0685C109.035 68.8524 108.812 68.6756 108.561 68.5491C108.31 68.4226 108.036 68.349 107.756 68.3328C107.49 67.8692 107.112 67.4802 106.658 67.2012C106.205 66.9223 105.689 66.7623 105.158 66.7357C104.85 66.686 104.536 66.7047 104.237 66.7904C103.937 66.8761 103.66 67.0268 103.424 67.2319C103.188 67.4371 103 67.6917 102.872 67.9779C102.744 68.2642 102.68 68.5752 102.684 68.8891Z" fill="#60BFEE"/>
</g>
<g style="mix-blend-mode:screen" opacity="0.3">
<path d="M11.1938 89.2561C11.2794 90.1625 11.4767 91.0546 11.7811 91.9119C11.9945 93.228 12.585 94.4525 13.4798 95.4345C14.3747 96.4166 15.5348 97.1133 16.8174 97.4388H16.9954C17.5355 97.6386 18.1098 97.7272 18.6844 97.6995C19.2591 97.6717 19.8223 97.5282 20.3411 97.2773C21.6402 96.6313 21.391 94.8727 20.608 93.9935C20.2394 93.6173 19.805 93.3131 19.3267 93.0962C19.1009 91.7677 18.5497 90.5171 17.723 89.4579C16.8964 88.3987 15.8204 87.5645 14.5929 87.031C14.2266 86.8459 13.8188 86.7607 13.4098 86.7836C13.0008 86.8066 12.6049 86.937 12.2613 87.1619C11.9178 87.3868 11.6385 87.6984 11.4512 88.0658C11.2639 88.4331 11.1752 88.8435 11.1938 89.2561Z" fill="#60BFEE"/>
</g>
<g style="mix-blend-mode:screen" opacity="0.3">
<path d="M47.6227 8.61337C46.6671 9.04433 45.7748 9.60587 44.9711 10.2822C44.6977 10.4699 44.4696 10.7171 44.3037 11.0057C44.1378 11.2942 44.0384 11.6167 44.0127 11.9492C43.9871 12.2817 44.0359 12.6158 44.1556 12.9267C44.2753 13.2377 44.4628 13.5175 44.7042 13.7455C45.4884 14.5085 46.533 14.9388 47.6227 14.9478C48.4509 14.8493 49.2408 14.5406 49.9184 14.0506C50.1452 13.9023 50.3406 13.7102 50.4933 13.4853C50.646 13.2605 50.7531 13.0074 50.8082 12.7406C51.1965 12.7392 51.5751 12.618 51.8931 12.3935C52.2112 12.169 52.4536 11.8518 52.5879 11.4845C52.7551 11.0339 52.7533 10.5372 52.5829 10.0878C52.4125 9.63839 52.0852 9.2672 51.6625 9.04402C50.4079 8.42654 48.9777 8.27409 47.6227 8.61337Z" fill="#60BFEE"/>
</g>
<g style="mix-blend-mode:screen" opacity="0.3">
<path d="M63.6037 49.3116C63.6535 49.6355 63.8204 49.9295 64.0722 50.1368C64.324 50.3441 64.643 50.4502 64.9677 50.4346C65.2925 50.419 65.6 50.2828 65.8312 50.0523C66.0623 49.8218 66.2008 49.5132 66.2198 49.186C66.17 48.862 66.003 48.5681 65.7512 48.3608C65.4994 48.1534 65.1805 48.0473 64.8558 48.0629C64.531 48.0785 64.2234 48.2147 63.9923 48.4452C63.7611 48.6758 63.6227 48.9843 63.6037 49.3116Z" fill="#60BFEE"/>
</g>
<g style="mix-blend-mode:screen" opacity="0.3">
<path d="M87.4508 13.261L87.5931 13.6199C87.7298 13.9677 87.971 14.2637 88.2828 14.4665C88.5946 14.6693 88.9615 14.7687 89.3321 14.7509C89.7027 14.7331 90.0586 14.599 90.3498 14.3672C90.6411 14.1355 90.8532 13.8177 90.9566 13.4584L91.0634 13.0816C91.1377 12.7952 91.1441 12.4952 91.0819 12.2058C91.0198 11.9165 90.8909 11.646 90.7058 11.4163C90.5206 11.1865 90.2844 11.004 90.0163 10.8835C89.7481 10.763 89.4555 10.7079 89.1623 10.7227C88.8691 10.7375 88.5834 10.8217 88.3285 10.9686C88.0736 11.1155 87.8567 11.3208 87.6952 11.5681C87.5337 11.8153 87.4323 12.0974 87.3991 12.3915C87.3659 12.6857 87.4018 12.9835 87.5041 13.261H87.4508Z" fill="#60BFEE"/>
</g>
<g style="mix-blend-mode:screen" opacity="0.3">
<path d="M69.5121 8.46984C69.2439 8.6272 69.0333 8.86762 68.9114 9.15535C68.7896 9.44308 68.7631 9.76276 68.8358 10.0669C68.9447 10.3678 69.1578 10.6189 69.4357 10.7739C69.7137 10.9288 70.0379 10.9773 70.3485 10.9103C70.5336 10.8877 70.7099 10.8173 70.8602 10.706C71.0105 10.5948 71.1299 10.4463 71.2068 10.275C71.2837 10.1037 71.3155 9.91532 71.2992 9.728C71.2829 9.54069 71.2191 9.36076 71.1138 9.20557C71.1011 9.01319 71.026 8.83033 70.9002 8.68516C70.7337 8.4861 70.5014 8.35459 70.2462 8.315C69.9909 8.2754 69.7302 8.33042 69.5121 8.46984Z" fill="#60BFEE"/>
</g>
<g style="mix-blend-mode:screen" opacity="0.3">
<path d="M47.6226 104.24C54.1894 107.829 64.9917 111.418 72.3416 108.744C72.5808 108.663 72.7874 108.506 72.9299 108.296C73.0723 108.087 73.1429 107.836 73.1308 107.582C73.1187 107.328 73.0247 107.085 72.863 106.889C72.7012 106.694 72.4806 106.558 72.2348 106.501C68.3552 105.424 64.0842 106.07 60.0622 105.334C56.0403 104.599 52.2319 103.325 48.3345 102.284C48.0922 102.241 47.8427 102.286 47.6296 102.41C47.4166 102.534 47.2535 102.729 47.1687 102.962C47.084 103.195 47.083 103.45 47.1659 103.684C47.2489 103.917 47.4105 104.114 47.6226 104.24Z" fill="#60BFEE"/>
</g>
<g style="mix-blend-mode:screen" opacity="0.26">
<path d="M90.8675 8.63132C80.2971 2.23994 68.0309 -0.713421 55.7371 0.172916C43.4432 1.05925 31.7185 5.74226 22.1574 13.585C12.5964 21.4278 5.66303 32.0497 2.30035 44.0062C-1.06233 55.9626 -0.691173 68.6733 3.36341 80.4095C16.4436 87.4078 33.2077 87.8206 47.676 83.5498C83.0727 73.1778 102.097 36.3915 90.8675 8.63132Z" fill="#60BFEE"/>
</g>
<g style="mix-blend-mode:multiply" opacity="0.47">
<path d="M106.137 21.8385C106.012 22.0897 105.888 22.341 105.763 22.6281C102.809 29.5726 103.396 39.2088 100.211 46.8532C94.2845 61.1191 85.6355 73.6444 71.7366 81.0914C49.1354 93.2757 27.8867 95.3034 7.40326 89.7406C11.4358 97.1298 16.9557 103.587 23.6089 108.699C30.262 113.81 37.9014 117.463 46.0369 119.422C54.1724 121.382 62.6243 121.604 70.8502 120.076C79.0761 118.548 86.8943 115.303 93.8032 110.549C100.712 105.795 106.559 99.637 110.969 92.4704C115.379 85.3037 118.254 77.2867 119.41 68.9337C120.567 60.5806 119.978 52.0761 117.683 43.9658C115.388 35.8554 111.437 28.3185 106.083 21.8385H106.137Z" fill="#329693"/>
</g>
<g style="mix-blend-mode:multiply" opacity="0.47">
<path d="M120 57.5661C119.661 50.4913 118.095 43.5311 115.373 37.0016C112.953 44.8075 112.205 53.1517 109.18 60.814C104.783 71.8238 97.439 81.385 87.9668 88.4307C77.0043 96.9364 61.6639 102.033 48.3346 105.352C39.5822 107.636 30.4705 108.167 21.5156 106.914C23.4251 108.524 25.4342 110.01 27.5308 111.364C44.5461 114.815 62.1961 113.059 78.2145 106.321C94.7649 99.1436 108.059 90.1713 115.729 73.0522C117.338 69.2683 118.757 65.4054 119.982 61.478C120 60.186 120 58.876 120 57.5661Z" fill="#329693"/>
</g>
<g style="mix-blend-mode:screen" opacity="0.26">
<path d="M58.7809 9.38498C50.7014 3.21206 35.0407 11.8434 28.1002 16.5628C17.0665 24.2431 4.50235 42.367 12.0835 56.5432C18.7749 69.1044 35.4144 68.602 46.2879 63.4339C57.1614 58.2659 65.7392 51.8418 70.9357 40.752C76.4881 28.9445 75.367 11.7896 58.7809 9.38498Z" fill="#60BFEE"/>
</g>
<g style="mix-blend-mode:screen" opacity="0.26">
<path d="M32.1222 15.0555C19.3623 18.8238 6.58465 48.5579 28.8121 46.6737C51.0396 44.7896 48.5837 7.59055 32.1222 15.0555Z" fill="#60BFEE"/>
</g>
</g>
<defs>
<clipPath id="clip0_1_3763">
<rect width="120" height="121" fill="white"/>
</clipPath>
</defs>
</svg>
