<svg width="107" height="108" viewBox="0 0 107 108" fill="none" xmlns="http://www.w3.org/2000/svg">
<g clip-path="url(#clip0_1_292)">
<path d="M53.5 108C83.0472 108 107 83.8234 107 54C107 24.1766 83.0472 0 53.5 0C23.9528 0 0 24.1766 0 54C0 83.8234 23.9528 108 53.5 108Z" fill="#D4803A"/>
<path opacity="0.49" d="M4.24428 32.8542C5.83986 32.8542 7.78648 33.2407 9.03104 32.3066C7.19611 41.0516 14.6953 46.5917 22.4977 47.703C27.4121 48.4116 33.6669 45.0618 35.422 40.4557C36.2198 38.4104 37.6558 34.7545 36.6028 32.7253C37.4006 34.819 40.2566 35.2377 40.0333 32.3549C40.7034 33.7239 42.2192 34.3841 43.2244 33.289C44.4371 35.9785 43.9105 38.5553 44.9636 40.9067C45.6178 42.3883 48.1548 44.5786 49.1759 42.5172C49.4417 42.5017 49.708 42.5017 49.9737 42.5172C50.612 44.8524 55.0956 47.558 55.5902 43.7894C63.7915 44.6269 60.377 32.8058 58.0474 29.1983C60.4249 30.6317 65.8179 30.4384 64.0468 26.2511C68.4506 29.5849 67.6688 21.8062 66.0254 19.6159C71.3706 17.6833 76.253 15.7346 77.3061 9.29259C77.4978 8.08706 77.4978 6.85837 77.3061 5.65284C70.7744 2.38106 63.6494 0.490283 56.368 0.0963844C49.0866 -0.297514 41.8023 0.813782 34.9615 3.36215C28.1207 5.91053 21.8676 9.84228 16.5856 14.9164C11.3036 19.9904 7.10403 26.0999 4.24428 32.8703V32.8542Z" fill="#552805"/>
<path opacity="0.49" d="M50.0535 54.5315C49.6865 52.5345 49.1121 49.7 46.7506 49.2007C44.3892 48.7015 43.1446 50.7307 44.4211 52.9532C42.9372 52.5828 41.8362 51.0367 40.3045 50.4569C38.4302 49.7053 36.3663 49.5811 34.4168 50.1026C28.4333 52.6472 27.7632 63.3731 33.4275 66.3687C27.0452 68.1402 37.3846 83.2627 43.3361 77.2073C43.6712 82.9084 53.7074 81.3302 53.6915 75.0009C55.7338 79.4298 57.9198 74.4855 57.7283 71.7799C62.7384 72.0859 68.1156 72.5207 69.8548 66.3525C70.2679 64.7968 70.2733 63.1594 69.8705 61.6009C69.4677 60.0424 68.6705 58.6164 67.5571 57.4626C62.882 52.6794 57.4251 53.7423 50.0535 54.5315Z" fill="#552805"/>
<path opacity="0.56" d="M21.5723 35.3826C24.221 28.1193 13.4508 23.7549 14.9506 31.9362C11.3127 26.2834 5.77603 35.0606 10.1639 35.7531C6.71742 39.7954 2.18595 49.2491 6.81315 54.1933C12.7168 60.442 16.5941 48.2827 17.8227 44.6913C18.9396 46.1086 20.5511 46.3019 21.0139 44.3854C23.7423 45.0135 27.7791 45.9153 27.3962 41.1644C26.9813 36.7999 22.4339 37.1381 21.5723 35.3826Z" fill="#542B24"/>
<path opacity="0.56" d="M49.4472 68.4461C49.16 64.8386 43.735 64.6454 44.836 67.4476C40.9268 66.8356 41.0864 73.6964 43.4797 75.4035C46.1922 77.3522 50.5641 75.7578 49.4791 71.9571C53.1171 72.4241 53.4521 68.2529 49.4791 69.0581L49.4472 68.4461Z" fill="#542B24"/>
<path opacity="0.56" d="M83.7204 41.2449C87.9806 40.037 86.1297 32.2261 84.949 29.5204C84.1033 27.5556 82.2525 24.0286 79.6197 25.5103C77.8008 26.541 77.7689 29.7942 78.4709 31.3081C73.4927 28.9728 69.9824 32.2099 69.9345 38.056C69.9345 40.7939 74.7213 49.861 76.9072 44.6591C77.4019 46.5756 78.806 48.9913 81.1994 48.3793C84.1193 47.6385 83.4013 43.6123 83.7204 41.2449Z" fill="#542B24"/>
<path opacity="0.56" d="M53.7234 16.5237C53.4202 11.3379 61.6215 11.3379 58.7335 17.6511C61.7971 15.5897 62.5629 21.1137 61.9247 23.0302C61.0312 26.0257 57.2177 28.0066 54.2659 27.9744C52.7153 27.9418 51.2048 27.472 49.9049 26.6182C48.6051 25.7644 47.5677 24.5606 46.9102 23.1429C45.7933 20.7594 46.1763 15.5574 49.3993 19.1972C48.6175 15.8473 50.5641 13.2705 52.4309 17.7638L53.7234 16.5237Z" fill="#542B24"/>
<path opacity="0.56" d="M52.1916 6.31316C52.798 10.2589 50.596 8.22963 49.1281 10.0173C47.6601 11.8049 49.894 12.7551 51.8406 12.5458C51.9118 13.1335 51.9438 13.7253 51.9363 14.3173C53.0213 13.496 52.6544 12.4169 53.1011 11.193C53.3405 10.5327 54.218 9.16374 54.3297 8.60006C54.4955 7.36211 54.2927 6.10237 53.7472 4.98106C53.2017 3.85975 52.3381 2.92754 51.2662 2.30301L52.1916 6.31316Z" fill="#542B24"/>
<path opacity="0.56" d="M29.8374 9.11543C27.7951 9.11543 28.3695 10.7259 27.3324 11.5795C26.3732 12.3725 25.2412 12.9245 24.0295 13.19C20.3118 14.6072 22.035 16.7814 19.9767 18.5046C19.2108 19.1649 11.7594 20.9365 15.4453 22.7886C19.1311 24.6406 22.7371 17.4739 23.7742 15.3803C24.175 15.6703 24.6465 15.8445 25.1381 15.8843C25.6297 15.924 26.1227 15.8277 26.5641 15.6058C27.0055 15.3838 27.3787 15.0446 27.6433 14.6247C27.908 14.2047 28.0543 13.7198 28.0663 13.2222C31.098 14.4623 36.0443 11.6117 37.0495 8.53565C37.6877 6.69968 37.592 5.04085 35.4539 4.36444C32.4861 3.36593 30.9065 6.7641 29.8374 9.11543Z" fill="#542B24"/>
<path opacity="0.56" d="M71.1791 87.289C72.0675 86.7128 72.7663 85.8831 73.1867 84.9054C73.6072 83.9276 73.7303 82.8458 73.5406 81.7972C72.663 78.8178 69.4559 78.6728 68.9453 82.0066C66.0413 79.7036 63.4724 80.6699 61.6854 84.1163C58.1432 91.0093 66.2009 89.898 69.9505 86.677L71.1791 87.289Z" fill="#542B24"/>
<path opacity="0.49" d="M76.3807 89.447C71.594 84.9699 61.2227 90.6549 60.4249 96.5655C58.8772 108.531 79.2368 102.814 76.3807 89.447Z" fill="#552805"/>
<path opacity="0.49" d="M105.692 42.2112C103.971 34.4611 100.565 27.1941 95.7192 20.9365C90.9325 22.4503 89.7996 30.5995 91.2995 35.7531C93.1025 41.9696 94.7778 49.5872 88.7305 54.2255C85.9063 56.3997 81.5504 55.9487 79.157 58.606C77.3061 60.7319 77.4338 64.2106 78.1359 66.8196C74.7373 66.1754 72.296 68.6233 73.4767 72.102C72.9455 72.0764 72.4149 72.1636 71.9192 72.3581C71.4236 72.5527 70.9739 72.8501 70.5993 73.2312C70.2248 73.6122 69.9338 74.0685 69.745 74.5703C69.5563 75.0722 69.4741 75.6084 69.5037 76.1443C63.7277 70.9585 58.6857 79.8002 56.388 84.1968C53.1969 83.5043 51.5055 81.7328 48.8409 84.5834C46.1763 87.434 46.4794 93.6344 40.7672 91.5729C35.055 89.5115 37.6718 82.4414 34.4646 78.8822C30.9543 74.9848 28.194 77.626 24.5082 78.3346C23.0403 74.6788 25.8645 71.3612 25.7687 67.6732C25.7687 65.1125 22.5775 60.9735 20.5033 64.1623C21.7159 62.3102 20.5033 59.0248 18.2216 60.6514C18.2216 58.3806 16.1314 58.5416 14.3762 58.4772C10.7383 58.3323 9.23846 59.1536 8.37685 60.3776C9.7331 57.6559 8.74381 54.0967 6.20682 57.7203C5.64837 58.5255 5.98346 61.9076 4.22831 60.8285C2.85611 59.9911 4.1485 57.1888 4.1485 55.997C4.1485 52.0996 5.88596e-07 46.4951 0.0797799 53.082C0.0797799 58.5738 3.27095 68.2046 9.74903 68.2368C11.8392 71.7155 8.95126 74.9848 9.52567 78.7373C10.1958 83.0695 13.6423 84.4223 17.4238 84.0197C17.3121 87.4179 18.1897 86.9508 20.2959 88.5935C22.7531 90.5261 22.4658 93.264 24.8911 95.7119C27.3164 98.1599 27.125 97.3224 29.7577 97.0164C31.1458 96.8876 30.9544 95.2771 32.8372 97.3224C34.0498 98.643 32.6936 100.543 34.0498 101.687C34.4678 101.979 34.9506 102.163 35.4557 102.222C35.9608 102.281 36.4725 102.214 36.9457 102.026C37.4189 101.838 37.839 101.536 38.1687 101.145C38.4985 100.754 38.7279 100.288 38.8366 99.7865C40.4322 100.173 44.118 106.422 45.3306 101.848C47.74 104.054 50.6599 105.987 51.4098 101.59C53.5479 104.135 55.5105 102.879 56.4519 100.254C57.7124 96.7748 55.2392 93.4089 55.0796 90.0108C54.7286 82.9568 58.7176 88.062 62.3395 86.9186C62.0364 83.295 66.0413 85.5336 67.605 83.0051C71.3239 85.0735 75.6877 85.6212 79.7952 84.5351C82.1408 83.907 90.4857 79.1882 87.3105 76.1766C88.2499 76.9411 89.4518 77.2977 90.6517 77.1678C91.8517 77.0379 92.9513 76.4323 93.7088 75.4841C94.4662 74.5359 94.8195 73.3227 94.6909 72.1116C94.5622 70.9005 93.9621 69.7905 93.0227 69.026C96.9159 68.414 98.4477 67.7376 100.426 63.6952C102.301 59.9857 103.413 55.932 103.697 51.7775C103.777 48.7337 102.484 45.8992 102.5 42.8715C103.609 43.0646 104.748 42.8288 105.692 42.2112Z" fill="#552805"/>
<g style="mix-blend-mode:screen" opacity="0.57">
<path d="M62.5948 62.5679C63.7756 65.6922 67.1901 62.7128 66.4402 60.1038C65.8339 57.9618 59.9621 54.9985 60.6961 58.2195C60.5525 54.918 56.1486 55.8843 55.1594 58.2195C53.484 62.3263 56.5635 64.9997 60.4567 64.6615L62.5948 62.5679Z" fill="#C6BDBA"/>
</g>
<g style="mix-blend-mode:screen" opacity="0.76">
<path d="M103.123 72.7462C102.772 71.8282 103.761 69.9922 103.266 68.7199C102.979 67.9147 101.798 67.6731 101.399 66.9001C101.001 66.127 101.735 64.887 101.399 64.1461C100.729 62.4229 96.166 57.527 93.4216 57.4948C96.8042 55.6588 97.6339 50.7951 96.0383 47.2842C95.9426 45.1261 95.6554 42.8714 97.8733 43.0003C97.7616 42.0662 98.2562 41.3898 98.3519 40.6328C100.187 43.0164 102.724 40.037 101.543 37.9594C101.77 38.1722 102.054 38.3135 102.36 38.3662C102.665 38.4188 102.98 38.3804 103.264 38.2557C103.548 38.131 103.791 37.9253 103.961 37.6639C104.131 37.4025 104.223 37.0967 104.224 36.7838C103.379 34.2412 102.35 31.7651 101.144 29.3755C100.681 29.9714 100.57 31.0665 101.144 32.8863C99.5486 29.7942 97.7137 34.4163 97.8254 36.2201C97.6658 35.898 97.3627 35.5598 97.2191 35.3182C94.8257 37.2508 94.7618 40.7617 94.714 43.6767C94.2351 43.7224 93.7827 43.9196 93.4216 44.2403C93.0506 44.0225 92.6607 43.8392 92.2568 43.6928C93.6449 42.3722 95.0012 37.6212 92.0015 36.3167C92.5554 36.1105 93.0443 35.7582 93.4176 35.2965C93.7908 34.8349 94.0346 34.2807 94.1236 33.6916C94.8895 29.8747 89.9911 25.9934 88.2519 22.0316C88.4632 20.7635 88.3164 19.4609 87.8282 18.2732C87.34 17.0854 86.5302 16.0605 85.4915 15.3158C83.0024 13.818 80.8164 14.43 81.3589 17.5705C81.8536 20.3567 85.316 21.8222 86.0021 24.3346C86.6244 26.5571 84.5023 29.6976 88.4593 30.7766C86.1138 33.2085 87.3105 36.4938 89.4326 38.507C88.2997 41.0355 82.6673 50.0542 87.837 51.5842C86.3372 51.7453 85.9383 54.5636 87.1349 56.4157C86.1297 56.5284 85.1564 56.7539 84.4225 56.8183C82.6992 56.9633 80.8643 54.8213 80.0186 57.7041C79.5719 59.218 81.1355 60.9251 82.3003 61.5532C80.0825 62.294 81.7259 65.499 81.1675 67.4316C80.0665 66.7874 79.173 65.7405 77.9763 65.8211C77.3794 64.4531 76.3534 63.3213 75.0564 62.6001C80.0346 61.9075 77.0509 50.1187 72.0886 52.7438C73.5884 51.0366 71.8173 48.1861 69.6473 48.0895C70.86 46.6883 69.4399 44.0471 67.7805 43.419C65.1637 42.4366 65.2435 44.5303 63.4883 45.9314C58.0314 50.2797 61.8928 38.2332 61.3024 36.0268C60.712 33.8205 52.3831 27.2013 53.0532 30.7766C53.4202 32.7092 57.3932 33.8204 58.3187 35.6081C59.5792 38.0561 56.7231 42.2595 58.4463 43.419C55.8934 44.9168 55.9412 49.861 59.4196 49.9576C57.5687 53.0176 60.2813 53.6296 62.4353 53.7101C63.2171 53.7101 64.0309 52.5344 64.9723 52.9693C65.9137 53.4041 64.9723 55.0951 65.5945 55.4816C67.8443 57.0921 69.4718 55.4816 69.8707 58.7026C70.1419 60.909 68.4985 65.1446 73.4608 64.2106C72.1524 65.9177 71.8652 68.2851 73.748 69.2836C72.3758 69.187 71.3706 70.2982 71.9929 72.5046C70.7164 72.5046 66.0094 74.5338 65.3871 75.7256C62.1959 72.9233 59.1165 78.4473 56.9145 82.0871C57.473 79.4941 51.1864 75.4679 51.1385 80.4766C49.144 79.8968 45.8093 81.6844 46.8624 84.1163C43.9903 82.5058 40.9268 79.2848 37.2889 81.6361C34.5764 83.2466 35.2624 86.838 37.6718 88.4807C36.7779 88.9942 36.0852 89.8014 35.7092 90.7677C34.385 89.7191 32.7492 89.1517 31.0661 89.1572C31.3533 81.8294 9.66924 83.1661 12.637 75.2586C14.2326 70.8941 16.8653 76.1121 18.1418 76.7724C18.7248 77.0417 19.3725 77.1349 20.0068 77.0406C20.641 76.9463 21.2347 76.6685 21.7159 76.241C24.7794 73.02 19.3226 70.0567 18.796 72.4563C19.2268 69.5413 14.1847 64.1139 13.0359 67.7214C13.6582 65.6922 10.6107 64.2266 8.98317 65.5473C9.25442 63.4375 7.29181 63.3731 5.99938 64.3877C6.07159 63.7907 6.00823 63.185 5.81405 62.6164C5.61988 62.0479 5.30002 61.5314 4.8787 61.1061C4.45739 60.6809 3.94566 60.358 3.38235 60.162C2.81905 59.966 2.21893 59.9021 1.62749 59.9749C1.75514 57.9135 2.72844 56.0775 1.27646 54.2255C0.924207 53.7667 0.484831 53.3834 -0.0159607 53.0981C-0.0159607 53.4041 -0.0159607 53.694 -0.0159607 54C0.0142857 60.1895 1.09358 66.3282 3.17521 72.1503L3.78154 71.796C3.60841 72.1921 3.51613 72.6193 3.51027 73.0522C3.68579 73.5031 3.86129 73.9702 4.05276 74.4211C4.39665 74.7358 4.81814 74.9512 5.27297 75.0447C5.7278 75.1382 6.19922 75.1064 6.63766 74.9526C5.18567 79.4781 9.57349 83.9552 13.9773 83.6009C13.4189 88.0298 20.8064 91.734 24.0614 88.8995C24.1585 89.4814 24.3879 90.0326 24.7316 90.51C23.9976 91.6856 24.3008 93.5699 23.136 94.971C22.7993 95.3882 22.3728 95.7225 21.889 95.9486C21.4052 96.1746 20.8767 96.2864 20.3437 96.2755C21.1575 96.9358 21.9393 97.564 22.8488 98.176C23.8042 97.5574 24.9058 97.2071 26.0399 97.1613C27.3643 97.0647 29.2311 98.5786 29.2311 95.4542C29.2311 94.6812 27.9866 93.0707 27.0133 91.6857C27.9762 91.6798 28.9253 91.454 29.7896 91.0253C29.8775 91.448 30.0638 91.8434 30.333 92.1791C30.6022 92.5147 30.9467 92.7808 31.338 92.9555C31.7293 93.1301 32.1562 93.2083 32.5833 93.1835C33.0105 93.1587 33.4256 93.0317 33.7945 92.813C33.7031 93.2968 33.7228 93.7953 33.8522 94.2702C33.9816 94.7451 34.2172 95.1837 34.5408 95.5524C34.8644 95.921 35.2674 96.2098 35.7189 96.3966C36.1704 96.5834 36.6584 96.6632 37.1453 96.6299C37.864 97.7685 38.8439 98.7158 40.002 99.3914C41.1602 100.067 42.4625 100.451 43.7988 100.511C49.1121 100.173 43.6872 92.4587 38.5494 95.1321C38.5807 94.4688 38.4258 93.8101 38.1026 93.2317C39.1397 93.0546 40.2088 92.1366 40.6396 90.0107C42.5224 92.3621 45.6657 90.9609 46.4635 88.1587C50.3407 88.8512 49.7344 83.8103 53.0373 83.7942C50.0854 85.8556 47.8357 97.8216 54.2021 95.8407C58.223 94.6006 53.5319 81.9744 58.9888 85.904C59.4835 84.0358 59.5792 81.0724 61.1907 79.7679C61.8449 79.2365 62.6906 79.929 62.9618 79.7679C63.2331 79.6069 64.0947 79.0593 64.8765 78.5279C65.6584 77.9964 66.137 76.708 67.4773 76.3537C68.8176 75.9994 69.1846 76.7563 70.2537 76.708C71.7057 76.708 73.6682 75.6612 74.9287 77.3361C76.3648 79.2848 74.1948 82.683 78.1199 82.5702C84.1193 82.3931 79.4442 74.5177 82.2684 73.0683C82.5618 73.2527 82.8716 73.409 83.1938 73.5353C83.3374 69.8956 84.5022 71.9248 86.2733 70.4915C88.6667 68.5106 87.6296 65.4023 86.0181 63.0993C88.8901 65.1124 88.7465 60.9574 91.3792 61.4888C91.475 63.5503 92.6557 64.9997 94.7778 64.5971C94.4268 67.5604 95.8149 67.3188 96.9159 69.187C98.2083 71.3612 97.4744 73.1488 100.921 73.6319C101.021 74.7755 101.387 75.8791 101.99 76.8529C102.548 75.6451 103.075 74.405 103.585 73.1488C103.411 73.0405 103.255 72.9045 103.123 72.7462ZM75.0723 69.6218H75.5989H75.7584C75.884 69.9543 76.0618 70.2643 76.285 70.5398C75.9357 70.1661 75.5256 69.8556 75.0723 69.6218ZM91.6824 58.5094C91.6359 58.3831 91.5827 58.2594 91.5228 58.139C91.6957 58.1238 91.8668 58.0914 92.0334 58.0423C91.9001 58.1848 91.7824 58.3414 91.6824 58.5094Z" fill="#C6BDBA"/>
</g>
<g style="mix-blend-mode:screen" opacity="0.57">
<path d="M40.8629 40.4557C40.7404 40.3962 40.604 40.3723 40.4687 40.3865C40.3335 40.4007 40.2048 40.4525 40.0971 40.5362C39.906 40.6969 39.7297 40.8748 39.5705 41.0677C38.6444 42.011 38.0792 43.2548 37.9749 44.5786C37.8535 45.1089 37.7681 45.647 37.7196 46.1891C37.7196 46.6884 38.326 46.7367 38.5653 46.4146C38.7189 46.2079 38.8525 45.9868 38.9642 45.7542C39.1126 45.705 39.245 45.6159 39.3472 45.4966C39.7663 44.9299 40.1147 44.3133 40.3843 43.6606C40.863 42.8876 41.2937 42.0501 41.7086 41.261C41.7847 41.1439 41.8175 41.0036 41.8014 40.8646C41.7852 40.7255 41.7211 40.5967 41.6202 40.5006C41.5193 40.4045 41.3881 40.3474 41.2496 40.3392C41.1112 40.331 40.9743 40.3723 40.8629 40.4557Z" fill="#C6BDBA"/>
</g>
<g style="mix-blend-mode:screen" opacity="0.57">
<path d="M41.2459 56.0131C40.9108 55.1434 39.7779 54.4026 38.8525 55.0307C38.5029 55.2965 38.1772 55.5929 37.8792 55.9165C37.2763 56.2179 36.7628 56.6743 36.3902 57.2398C36.0177 57.8052 35.7993 58.4597 35.7571 59.1375C35.7276 59.4765 35.7873 59.8174 35.9302 60.1256C36.073 60.4339 36.2941 60.6986 36.5708 60.893C36.5984 60.9577 36.6362 61.0174 36.6825 61.0701C36.8328 61.2759 37.0556 61.4157 37.305 61.4606C37.5543 61.5056 37.8112 61.4522 38.0228 61.3117C38.4817 61.3138 38.9349 61.2091 39.3472 61.0057L39.5705 60.8607C40.0954 60.759 40.5705 60.4806 40.9183 60.0711C41.2661 59.6616 41.4659 59.1451 41.4853 58.606C41.5096 58.4243 41.5096 58.2402 41.4853 58.0585C41.584 57.3673 41.5014 56.662 41.2459 56.0131Z" fill="#C6BDBA"/>
</g>
<g style="mix-blend-mode:screen" opacity="0.57">
<path d="M36.2039 52.8082C36.1562 52.7335 36.0902 52.6725 36.0124 52.6311H35.8688H35.5177C35.5177 52.6311 35.438 52.6311 35.4061 52.6311C35.3282 52.6725 35.2622 52.7335 35.2146 52.8082C35.1684 52.889 35.1441 52.9807 35.1441 53.074C35.1441 53.1673 35.1684 53.2589 35.2146 53.3397V53.6135C35.2023 53.689 35.2085 53.7664 35.2328 53.8389C35.257 53.9114 35.2986 53.9767 35.3537 54.0292C35.4089 54.0817 35.476 54.1197 35.5491 54.1399C35.6222 54.16 35.6991 54.1618 35.773 54.145C35.847 54.1618 35.9239 54.16 35.997 54.1399C36.0701 54.1197 36.1372 54.0817 36.1924 54.0292C36.2475 53.9767 36.289 53.9114 36.3133 53.8389C36.3375 53.7664 36.3438 53.689 36.3315 53.6135V53.3397C36.3599 53.2478 36.3631 53.1497 36.3406 53.0561C36.3181 52.9625 36.2709 52.8768 36.2039 52.8082Z" fill="#C6BDBA"/>
</g>
<g style="mix-blend-mode:screen" opacity="0.57">
<path d="M57.6804 5.94274C57.5528 3.83299 54.936 2.72173 53.7393 1.36891C54.569 2.609 55.9891 3.39814 56.739 4.67044C57.9836 6.76409 55.8934 7.68207 54.9679 9.17984C54.6895 9.60621 54.5347 10.1027 54.5212 10.6132C54.3935 11.6922 53.8032 12.5297 53.5798 13.657C53.5586 13.704 53.5568 13.7576 53.5748 13.8059C53.5927 13.8542 53.629 13.8933 53.6755 13.9147C53.7221 13.9361 53.7751 13.9379 53.823 13.9198C53.8709 13.9016 53.9096 13.8651 53.9308 13.8181C54.4125 13.0572 54.9457 12.3308 55.5264 11.6439C55.5691 11.5856 55.5922 11.5151 55.5922 11.4426C55.5922 11.3701 55.5691 11.2995 55.5264 11.2413C54.4414 9.43752 57.7762 7.92366 57.6804 5.94274Z" fill="#C6BDBA"/>
</g>
<g style="mix-blend-mode:screen" opacity="0.57">
<path d="M42.0118 5.41128C41.6288 5.41128 41.7725 5.99106 42.0916 6.02327C44.118 6.28095 46.3358 7.81093 45.921 9.90458C45.4727 11.1893 44.7604 12.3637 43.8308 13.351C42.6117 14.8956 40.9105 15.9783 39.0042 16.4228C37.0978 16.8673 35.0985 16.6475 33.3318 15.799C33.1925 15.7679 33.0467 15.7903 32.9228 15.8617C32.7989 15.9332 32.7058 16.0486 32.6617 16.1855C31.9755 18.1986 32.2627 20.3889 28.8163 19.8896C28.7229 19.8653 28.6253 19.8626 28.5307 19.8818C28.4362 19.901 28.3472 19.9416 28.2704 20.0005C28.1937 20.0594 28.1311 20.1351 28.0874 20.2219C28.0438 20.3087 28.0202 20.4043 28.0185 20.5016C27.843 24.3346 24.8273 20.9848 23.6944 21.2586C22.3038 21.5977 21.0062 22.2471 19.897 23.159C19.1334 23.9062 18.2412 24.5065 17.2642 24.9305C16.7539 25.144 16.1927 25.2018 15.6502 25.0967C15.1077 24.9915 14.6076 24.7281 14.212 24.339C13.8163 23.9499 13.5423 23.4522 13.424 22.9076C13.3058 22.3629 13.3484 21.7952 13.5465 21.2747C14.2621 19.5015 15.47 17.9747 17.0249 16.878C17.0249 16.878 17.0249 16.7653 17.0249 16.7814C14.0092 18.1342 8.63208 25.6391 14.5198 26.6538C16.0426 26.8019 17.5683 26.4026 18.8279 25.5264C21.5883 23.9159 21.8116 22.9496 25.1145 23.1429C26.2409 23.4334 27.431 23.337 28.4971 22.8691C29.1992 22.4342 29.1832 21.6773 29.9332 21.2586C30.6831 20.8398 31.6405 21.4357 32.4861 20.5338C33.3318 19.632 32.885 17.8604 33.4594 17.4256C34.0339 16.9907 37.7835 17.8765 38.9163 17.6511C40.8688 17.1817 42.6398 16.1394 44.0062 14.6555C47.2932 11.3701 49.1281 4.10677 42.0118 5.41128Z" fill="#C6BDBA"/>
</g>
<g style="mix-blend-mode:screen" opacity="0.57">
<path d="M43.8786 21.0009C43.8384 20.9304 43.7721 20.8789 43.6943 20.8578C43.6165 20.8367 43.5336 20.8475 43.4637 20.8881C43.3939 20.9287 43.3429 20.9956 43.322 21.0741C43.301 21.1527 43.3118 21.2364 43.352 21.3069C44.0907 22.4895 44.7158 23.7407 45.2189 25.0432C45.6018 26.541 44.6126 29.2466 42.8255 28.5863C42.5702 28.4736 42.4107 28.0066 42.1235 27.926C41.696 27.7647 41.259 27.6302 40.8151 27.5234C40.0811 27.3463 39.8258 29.2627 39.4748 27.2979C39.4489 27.2027 39.3927 27.1187 39.3148 27.0588C39.237 26.9989 39.1419 26.9664 39.044 26.9664C38.9461 26.9664 38.8509 26.9989 38.7731 27.0588C38.6953 27.1187 38.6391 27.2027 38.6131 27.2979C37.5281 28.4414 36.8101 28.4897 36.4591 27.4751C36.1827 26.9715 35.9836 26.4285 35.8687 25.8646C35.757 25.4459 35.055 25.4137 34.9752 25.8646C34.6896 28.7994 33.8673 31.6553 32.5499 34.2875C29.3588 39.586 26.1676 30.5672 28.3695 27.4267C28.3695 27.4267 28.3695 27.2979 28.2738 27.3462C26.1197 29.4882 26.2953 36.2523 29.8694 36.8965C33.4435 37.5407 34.9433 31.3081 35.5496 27.7167C36.491 29.4882 38.0547 30.7122 38.9801 28.9245C39.1876 29.1017 39.4907 29.0372 40.0811 29.15C40.2407 29.15 40.7991 28.8923 41.2299 28.9567C42.1235 29.0856 41.9798 29.5365 42.6181 29.762C43.2563 29.9874 43.1766 30.1002 43.8786 30.0035C48.793 29.3432 45.3625 22.9496 43.8786 21.0009Z" fill="#C6BDBA"/>
</g>
<g style="mix-blend-mode:screen" opacity="0.57">
<path d="M31.0341 48.1861C30.998 48.1271 30.944 48.0815 30.8801 48.0561C30.8162 48.0306 30.7459 48.0266 30.6796 48.0447C30.6132 48.0627 30.5545 48.102 30.512 48.1565C30.4695 48.211 30.4456 48.2779 30.4438 48.3472C30.4438 49.4101 29.4705 54.4993 27.5558 52.3734C27.4843 52.3063 27.3971 52.2586 27.3023 52.235C27.2076 52.2114 27.1084 52.2125 27.0142 52.2383C26.9199 52.2641 26.8338 52.3137 26.7639 52.3824C26.6939 52.4511 26.6425 52.5367 26.6144 52.6311C26.5346 53.1304 26.2155 55.7716 24.7635 54.6764C24.3167 54.3221 24.4923 52.8405 24.5401 52.3734C24.588 51.9064 23.6944 51.697 23.5508 52.2445C23.136 53.9517 21.333 56.9633 19.1311 56.4641C15.7006 55.675 18.5407 50.7951 19.2268 49.3457C19.2335 49.3191 19.2315 49.2911 19.2213 49.2657C19.2111 49.2402 19.1931 49.2188 19.1699 49.2044C19.1468 49.19 19.1197 49.1835 19.0927 49.1857C19.0656 49.188 19.0399 49.1989 19.0194 49.2169C17.695 51.3105 14.9347 55.9326 18.796 57.2693C20.7426 57.9296 22.5456 56.3352 23.5828 54.5637C23.6199 54.9795 23.7842 55.3733 24.0529 55.6907C24.3216 56.0081 24.6815 56.2334 25.0826 56.3352C26.5027 56.5929 27.1569 55.0469 27.476 53.7907C29.9332 55.0469 32.2308 50.3603 31.0341 48.1861Z" fill="#C6BDBA"/>
</g>
<g style="mix-blend-mode:screen" opacity="0.57">
<path d="M20.3437 40.3269C20.2765 40.2608 20.1897 40.2187 20.0965 40.207C20.0034 40.1953 19.909 40.2146 19.8277 40.262C19.7465 40.3094 19.6827 40.3822 19.6463 40.4695C19.6098 40.5568 19.6026 40.6538 19.6257 40.7456C20.0565 41.9696 19.3066 43.4835 17.9184 42.1467C17.8526 42.0829 17.7732 42.0348 17.6864 42.0062C17.5996 41.9776 17.5074 41.9692 17.4169 41.9816C17.3264 41.994 17.2398 42.0269 17.1636 42.0778C17.0875 42.1287 17.0237 42.1963 16.977 42.2756C16.3707 43.5479 14.9985 44.8685 13.9454 43.1775C12.8923 41.4865 14.3762 40.1981 15.8442 39.6988C15.9589 39.6638 16.0594 39.5924 16.1309 39.4952C16.2023 39.3981 16.2409 39.2802 16.2409 39.1592C16.2409 39.0383 16.2023 38.9205 16.1309 38.8233C16.0594 38.7262 15.9589 38.6548 15.8442 38.6197C15.3802 38.4201 15.0011 38.0614 14.7739 37.6069C14.5466 37.1524 14.4859 36.6315 14.6024 36.1362C14.7188 35.6409 15.005 35.2031 15.4104 34.9001C15.8157 34.5972 16.3141 34.4486 16.8175 34.4808C18.6524 34.6418 20.2639 37.7018 18.4131 38.9257C18.376 38.9508 18.3497 38.9891 18.3396 39.0329C18.3295 39.0768 18.3364 39.1228 18.3587 39.1618C18.3811 39.2008 18.4172 39.2297 18.4599 39.2427C18.5026 39.2556 18.5486 39.2517 18.5886 39.2317C21.2373 37.7662 18.8758 33.6594 16.3707 33.7399C15.773 33.7706 15.1979 33.98 14.7185 34.3416C14.2391 34.7032 13.8771 35.2006 13.6786 35.7705C13.4802 36.3403 13.4542 36.9569 13.604 37.5418C13.7538 38.1266 14.0726 38.6532 14.5198 39.0546C12.7168 40.037 11.5999 41.9857 13.004 43.9988C14.4082 46.0119 16.5462 45.1745 17.6631 43.4674C18.0391 43.7638 18.5024 43.9248 18.9795 43.9248C19.4566 43.9248 19.92 43.7638 20.2959 43.4674C20.5292 43.2806 20.7184 43.0439 20.8501 42.7744C20.9817 42.5048 21.0523 42.2091 21.0569 41.9086C21.0615 41.6081 20.9999 41.3103 20.8766 41.0368C20.7532 40.7632 20.5712 40.5208 20.3437 40.3269Z" fill="#C6BDBA"/>
</g>
<g style="mix-blend-mode:screen" opacity="0.57">
<path d="M58.5899 21.2264C58.859 21.0749 59.0949 20.8699 59.2833 20.6238C59.4718 20.3778 59.6089 20.0957 59.6864 19.7947C59.7639 19.4938 59.7803 19.1801 59.7344 18.8725C59.6886 18.565 59.5815 18.27 59.4196 18.0054C58.3506 16.2661 56.2284 17.3129 55.6859 18.8428C55.4945 19.3421 56.1965 19.6481 56.5156 19.3421C56.8347 19.0361 57.9516 17.7316 58.3984 18.8267C58.8452 19.9219 57.2815 20.6305 56.5316 20.8398C55.7817 21.0492 56.0848 22.2088 56.8826 22.096C57.3833 22.0526 57.8832 22.1886 58.2944 22.4801C58.7057 22.7716 59.0021 23.2001 59.1315 23.6902C59.261 24.1803 59.2153 24.7007 59.0025 25.1602C58.7896 25.6197 58.4232 25.9888 57.9676 26.2028C56.755 26.6216 53.7553 26.38 53.8989 24.5923C53.8976 24.462 53.8551 24.3354 53.7776 24.2311C53.7002 24.1268 53.5917 24.0503 53.4681 24.0125C52.9772 24.0125 52.5064 23.8157 52.1593 23.4654C51.8122 23.115 51.6172 22.6398 51.6172 22.1443C51.6172 21.6489 51.8122 21.1737 52.1593 20.8234C52.5064 20.473 52.9772 20.2762 53.4681 20.2762C53.4681 20.2762 53.4681 20.1634 53.4681 20.1473C49.9418 19.6159 49.8621 24.1414 52.7501 24.9788C52.9894 27.6039 57.5368 28.1998 59.292 26.8792C59.7203 26.514 60.0515 26.0467 60.2554 25.5195C60.4594 24.9924 60.5297 24.4221 60.46 23.8606C60.3903 23.2991 60.1827 22.764 59.8561 22.304C59.5295 21.844 59.0943 21.4736 58.5899 21.2264Z" fill="#C6BDBA"/>
</g>
<g style="mix-blend-mode:screen" opacity="0.57">
<path d="M83.497 31.4852C83.0039 31.0406 82.3698 30.7882 81.7088 30.7734C81.0477 30.7587 80.4031 30.9825 79.891 31.4047C79.2266 31.8967 78.7662 32.6196 78.5986 33.4339C78.3182 33.4245 78.0411 33.4972 77.8008 33.6433C76.7264 34.4552 76.0058 35.656 75.7904 36.9931C75.6561 37.6455 75.6994 38.3225 75.9157 38.952C76.132 39.5815 76.5133 40.1401 77.0189 40.5684C78.2475 41.3737 78.7422 40.1497 78.9337 39.119C78.9337 38.9901 78.7901 38.8935 78.7262 39.0224C78.1678 40.2302 77.6253 39.8598 77.2583 38.9096C77.0209 38.3392 76.9706 37.7072 77.1147 37.1059C77.2517 36.6073 77.4672 36.1343 77.7529 35.7047C77.8646 35.5437 78.1039 35.1088 78.3114 35.0283C78.5188 34.9478 78.5188 35.0283 78.5667 35.0283C78.5831 35.1921 78.6152 35.3539 78.6624 35.5115C78.8698 36.4456 80.258 36.0429 80.0984 35.1089C79.6197 32.8381 82.3642 31.0987 83.0503 33.9332C83.5928 36.1074 82.0929 37.4441 81.1196 39.1351C81.0657 39.2286 81.0403 39.3362 81.0469 39.4442C81.0535 39.5522 81.0916 39.6558 81.1565 39.742C81.2213 39.8281 81.3101 39.893 81.4114 39.9283C81.5128 39.9636 81.6222 39.9678 81.7259 39.9404C85.0448 39.3767 85.6989 33.4984 83.497 31.4852Z" fill="#C6BDBA"/>
</g>
<g style="mix-blend-mode:screen" opacity="0.57">
<path d="M60.1696 58.3C59.6097 58.1187 59.0067 58.1259 58.4513 58.3206C57.8959 58.5152 57.4182 58.8867 57.0901 59.3791C56.8859 59.814 56.8512 60.3106 56.9931 60.7701C57.135 61.2296 57.443 61.6184 57.8559 61.8592C58.3203 62.1211 58.859 62.216 59.3838 62.1282C59.9086 62.0404 60.3882 61.7752 60.7439 61.3761C60.8173 61.2894 60.8765 61.1916 60.9195 61.0862C60.9774 61.1291 61.0439 61.1587 61.1143 61.173C61.1847 61.1874 61.2573 61.1861 61.3271 61.1692C61.397 61.1523 61.4624 61.1204 61.5187 61.0754C61.5751 61.0305 61.621 60.9737 61.6534 60.909C61.7376 60.6394 61.7654 60.3551 61.7352 60.0741C61.7051 59.793 61.6175 59.5214 61.4781 59.2762C61.3386 59.0311 61.1504 58.8178 60.9251 58.6498C60.6999 58.4817 60.4427 58.3626 60.1696 58.3Z" fill="#C6BDBA"/>
</g>
<g style="mix-blend-mode:screen" opacity="0.57">
<path d="M27.4919 80.5088C27.3058 80.2056 27.0252 79.9733 26.6941 79.8485C26.6199 79.8405 26.545 79.8405 26.4708 79.8485C26.4371 79.7929 26.3938 79.7438 26.3431 79.7035C26.3097 79.667 26.2659 79.6417 26.2177 79.6312C26.1696 79.6207 26.1193 79.6255 26.074 79.6449C26.0286 79.6643 25.9902 79.6973 25.9642 79.7395C25.9381 79.7817 25.9255 79.831 25.9283 79.8807C25.9283 79.9934 25.9283 80.1061 25.9283 80.2028C25.9045 80.3034 25.9045 80.4082 25.9283 80.5088C25.9085 80.6776 25.9286 80.8487 25.9868 81.0083C26.045 81.1678 26.1398 81.3112 26.2633 81.4268C26.4089 81.5551 26.5918 81.6323 26.7845 81.6468C26.9773 81.6613 27.1695 81.6124 27.3324 81.5073C27.3961 81.4625 27.4501 81.4052 27.4912 81.3387C27.5324 81.2723 27.5598 81.1982 27.5717 81.1208C27.6075 81.0197 27.6189 80.9115 27.605 80.805C27.5911 80.6986 27.5524 80.5971 27.4919 80.5088Z" fill="#C6BDBA"/>
</g>
<g style="mix-blend-mode:screen" opacity="0.57">
<path d="M31.6245 79.6874C31.6232 79.618 31.607 79.5496 31.5771 79.487C31.5472 79.4244 31.5044 79.369 31.4513 79.3247C31.3983 79.2804 31.3364 79.2481 31.27 79.2301C31.2035 79.2121 31.134 79.2088 31.0661 79.2204C30.9982 79.2088 30.9286 79.2121 30.8622 79.2301C30.7957 79.2481 30.7338 79.2804 30.6808 79.3247C30.6278 79.369 30.5849 79.4244 30.555 79.487C30.5251 79.5496 30.5089 79.618 30.5076 79.6874C30.4456 79.8916 30.4459 80.1098 30.5085 80.3138C30.5711 80.5177 30.6931 80.6979 30.8586 80.8309C30.9205 80.8711 30.9925 80.8925 31.0661 80.8925C31.1396 80.8925 31.2116 80.8711 31.2735 80.8309C31.4408 80.6993 31.5642 80.5193 31.6269 80.3148C31.6897 80.1104 31.6888 79.8914 31.6245 79.6874Z" fill="#C6BDBA"/>
</g>
<g style="mix-blend-mode:screen" opacity="0.57">
<path d="M32.1351 83.6171C31.9159 83.4581 31.6806 83.3231 31.433 83.2144C31.2867 83.056 31.1323 82.9055 30.9704 82.7635C30.8653 82.6637 30.7378 82.5911 30.5989 82.5518C30.4599 82.5126 30.3137 82.5078 30.1726 82.538C30.0353 82.5136 29.8949 82.5136 29.7577 82.538C29.6446 82.5714 29.5419 82.6336 29.4595 82.7187C29.3772 82.8038 29.3179 82.9088 29.2875 83.0237C29.257 83.1386 29.2563 83.2595 29.2856 83.3747C29.3149 83.4899 29.3731 83.5956 29.4545 83.6815V83.762C29.4828 83.8673 29.5317 83.9658 29.5981 84.0519C29.8474 84.3352 30.1589 84.5558 30.5076 84.6961H30.5874C30.6505 84.7483 30.7203 84.7916 30.7948 84.8249C30.9351 84.8893 31.0875 84.9222 31.2416 84.9216C31.4106 84.9888 31.5943 85.0094 31.7738 84.9811C31.9533 84.9528 32.1221 84.8766 32.2628 84.7605C32.7255 84.535 32.4702 83.9875 32.1351 83.6171Z" fill="#C6BDBA"/>
</g>
<g style="mix-blend-mode:screen" opacity="0.57">
<path d="M95.7192 82.8118C95.1767 79.7196 91.108 78.7211 88.7625 80.1706C88.6778 80.2197 88.616 80.3008 88.5905 80.3959C88.5651 80.491 88.5781 80.5924 88.6268 80.6779C88.6755 80.7633 88.7558 80.8257 88.85 80.8514C88.9443 80.8771 89.0448 80.8639 89.1294 80.8148C93.6503 79.1184 94.1821 81.1261 90.725 86.838C89.3864 86.7988 88.0974 86.318 87.0552 85.4691C86.6722 85.2114 86.3371 85.7107 86.4807 86.0489C85.4755 90.3489 84.0714 91.5246 82.2684 89.6081C82.2168 89.5541 82.1517 89.515 82.0799 89.4951C82.0082 89.4751 81.9324 89.4751 81.8607 89.4948C81.7889 89.5146 81.7237 89.5535 81.6719 89.6074C81.6201 89.6613 81.5837 89.7283 81.5664 89.8014C80.8643 92.5392 77.7689 89.3343 77.1306 88.6257C76.8115 88.2553 76.1892 88.7384 76.4605 89.141C80.0984 94.7617 73.5405 100.737 68.4825 102.025C60.6642 104.086 58.3984 96.6782 61.813 90.977C61.813 90.977 61.813 90.8643 61.7173 90.977C56.3401 97.9022 61.6375 105.794 70.0781 102.412C73.8118 100.914 78.2954 97.3224 78.5507 92.9257C78.6051 92.2664 78.5512 91.6025 78.3912 90.9609C79.0691 91.5467 79.9245 91.8819 80.8164 91.9111C81.7419 91.9111 81.8535 90.9126 82.6354 90.977C84.231 91.0898 84.5501 93.1512 86.5446 92.2332C88.1402 91.4602 87.8849 89.7369 88.1402 88.3358C88.1301 87.8878 88.0381 87.4456 87.8689 87.0313C88.539 87.289 89.7996 87.595 89.6241 87.5628C92.3525 88.062 96.3255 86.2744 95.7192 82.8118Z" fill="#C6BDBA"/>
</g>
<g style="mix-blend-mode:screen" opacity="0.57">
<path d="M78.822 11.5151C78.4071 11.5151 78.2954 12.1915 78.7262 12.2559C80.242 12.4975 80.2101 14.2851 79.5399 15.4769C79.0657 16.1258 78.408 16.6146 77.6533 16.8791C76.8986 17.1436 76.0822 17.1712 75.3116 16.9585C75.2214 16.9366 75.1271 16.9385 75.0377 16.964C74.9484 16.9894 74.867 17.0375 74.8013 17.1038C74.7357 17.1701 74.688 17.2522 74.6628 17.3424C74.6376 17.4325 74.6358 17.5277 74.6575 17.6188C74.7851 18.1986 75.7105 21.9511 73.6203 20.8398C73.3012 20.6627 72.7428 20.8399 72.7906 21.323C72.8864 22.0799 73.381 26.6537 71.0355 24.8178C70.9568 24.7333 70.8522 24.678 70.7386 24.661C70.6249 24.6439 70.5089 24.6661 70.4092 24.7238C70.3096 24.7815 70.2322 24.8715 70.1895 24.9792C70.1468 25.0868 70.1413 25.2058 70.1739 25.317C70.3038 27.8597 69.4967 30.361 67.9082 32.3388C67.0625 33.4984 64.0947 36.9931 62.9459 32.9347C63.3288 35.2699 64.7808 35.7208 66.7753 34.5452C69.3601 32.9347 70.9079 29.15 71.211 26.1062C73.5725 27.3946 74.1629 24.6406 74.0512 22.2088C75.0564 22.547 75.7265 22.2893 76.1733 20.9365C76.3647 20.3406 75.6946 18.714 75.9499 18.2469C76.6093 18.2178 77.2654 18.137 77.9125 18.0054C80.4973 17.0713 83.1779 11.6117 78.822 11.5151Z" fill="#C6BDBA"/>
</g>
<g style="mix-blend-mode:screen" opacity="0.57">
<path d="M65.9774 64.6454C65.8817 64.2589 65.3711 64.3877 65.3392 64.6454C65.0999 66.6585 63.2012 70.8458 61.2226 66.739C61.1762 66.6643 61.1098 66.6044 61.031 66.5662C60.9523 66.528 60.8644 66.5131 60.7776 66.5232C60.6908 66.5333 60.6086 66.568 60.5405 66.6233C60.4724 66.6786 60.4212 66.7522 60.3929 66.8356C59.7387 69.1548 56.1168 69.2514 56.8507 66.4169C56.8708 66.3477 56.8719 66.2742 56.8542 66.2043C56.8364 66.1344 56.8004 66.0705 56.7498 66.0195C56.6993 65.9684 56.636 65.9321 56.5668 65.9142C56.4975 65.8962 56.4247 65.8975 56.3561 65.9177C50.4045 67.5282 48.5377 59.3629 52.5107 56.0131C47.5325 59.3307 50.0057 67.6892 55.9891 66.8356C55.654 69.799 59.4515 70.3465 60.9035 67.963C63.0256 71.0552 66.871 68.2529 65.9774 64.6454Z" fill="#C6BDBA"/>
</g>
<g style="mix-blend-mode:screen" opacity="0.57">
<path d="M43.7031 75.017C42.7138 75.8383 38.7089 75.8867 40.5119 74.2762C40.5689 74.2208 40.6082 74.1496 40.625 74.0716C40.6418 73.9936 40.6352 73.9124 40.6061 73.8382C40.577 73.764 40.5268 73.7002 40.4617 73.6548C40.3967 73.6095 40.3198 73.5847 40.2407 73.5836C37.5761 73.3259 35.7092 71.49 36.5389 68.7521C37.1612 66.7068 39.2036 65.1446 40.7353 67.3671C40.9109 67.6248 41.3097 67.3671 41.1502 67.1256C39.5546 64.6454 37.0336 65.7888 36.0443 68.1724C34.7519 71.2645 36.6187 73.6642 39.4908 74.3084C38.0707 76.4342 42.8734 77.5293 44.2775 75.4518C44.4211 75.0814 43.9584 74.7915 43.7031 75.017Z" fill="#C6BDBA"/>
</g>
<g style="mix-blend-mode:screen" opacity="0.57">
<path d="M73.9394 92.4748C71.9609 90.6227 68.4506 93.7149 67.5571 95.4381C67.5258 95.4951 67.5076 95.5585 67.5038 95.6236C67.5 95.6887 67.5108 95.7537 67.5353 95.8141C67.5598 95.8744 67.5974 95.9283 67.6454 95.972C67.6933 96.0156 67.7504 96.0479 67.8124 96.0662C68.4992 96.3198 69.2549 96.307 69.9329 96.0303C70.6109 95.7535 71.163 95.2326 71.4822 94.5684C71.5095 94.5335 71.5297 94.4936 71.5416 94.4508C71.5535 94.4081 71.557 94.3634 71.5518 94.3193C71.5466 94.2751 71.5329 94.2325 71.5113 94.1937C71.4898 94.155 71.461 94.1209 71.4264 94.0934C71.3918 94.0659 71.3522 94.0455 71.3099 94.0335C71.2675 94.0214 71.2232 94.0179 71.1795 94.0231C71.1357 94.0284 71.0935 94.0423 71.0551 94.064C71.0167 94.0857 70.9829 94.1148 70.9557 94.1497C70.6759 94.504 70.3252 94.7946 69.9265 95.0028C69.5279 95.2109 69.0902 95.3318 68.6421 95.3576C69.6952 93.9404 72.3438 91.6857 73.5724 93.2962C75.3276 95.6153 71.0195 97.4351 69.5196 97.8056C66.9667 98.4336 63.616 97.1936 65.6424 94.1497C67.4933 91.3797 70.9397 90.4939 73.9554 89.8014C70.6525 89.4954 64.8605 91.9111 64.3818 95.7119C63.8872 99.2067 68.4985 99.1262 70.6685 98.3854C72.8385 97.6445 76.5722 94.8906 73.9394 92.4748Z" fill="#C6BDBA"/>
</g>
<g style="mix-blend-mode:screen" opacity="0.57">
<path d="M15.2857 62.6806C15.4531 62.3355 15.4927 61.9414 15.3974 61.5694C15.2379 61.1506 14.7592 60.893 14.4241 60.6353C14.3676 60.6037 14.3048 60.5853 14.2404 60.5815C14.1759 60.5777 14.1114 60.5885 14.0516 60.6132C13.9919 60.638 13.9384 60.676 13.8952 60.7244C13.8519 60.7728 13.82 60.8304 13.8018 60.893C13.6112 61.436 13.578 62.0226 13.7061 62.584C13.6819 62.6954 13.6819 62.8108 13.7061 62.9222C13.7618 63.0966 13.855 63.2563 13.9792 63.39C14.1033 63.5237 14.2553 63.6279 14.4241 63.6952C14.5486 63.7358 14.6826 63.7358 14.8071 63.6952C14.9522 63.7432 15.1087 63.7432 15.2538 63.6952C15.9399 63.6147 15.6048 63.0188 15.2857 62.6806Z" fill="#C6BDBA"/>
</g>
<g style="mix-blend-mode:screen" opacity="0.57">
<path d="M22.3222 67.3188C22.3222 67.3188 22.3222 67.3188 22.2265 67.3993C22.1308 67.4798 22.1148 67.3993 22.0988 67.4799C22.0096 67.7884 21.9666 68.1087 21.9712 68.43C21.9712 68.7199 22.3861 68.881 22.5297 68.5911C22.6042 68.4646 22.6632 68.3294 22.7052 68.1885C22.7765 68.157 22.8372 68.1052 22.8797 68.0394C22.9223 67.9735 22.9448 67.8966 22.9445 67.818C22.9445 67.818 22.9445 67.7214 22.9445 67.6892C22.9414 67.6168 22.9204 67.5464 22.8835 67.4843C22.8465 67.4222 22.7948 67.3703 22.733 67.3335C22.6711 67.2967 22.6012 67.2761 22.5295 67.2735C22.4578 67.271 22.3865 67.2865 22.3222 67.3188Z" fill="#C6BDBA"/>
</g>
<g style="mix-blend-mode:screen" opacity="0.57">
<path d="M8.91932 70.105C8.77449 69.7805 8.55347 69.4966 8.27545 69.2777C7.99743 69.0588 7.67079 68.9116 7.32374 68.8488C7.22933 68.8215 7.12997 68.8166 7.03338 68.8345C6.93679 68.8523 6.84557 68.8924 6.76683 68.9516C6.68809 69.0108 6.62396 69.0875 6.57941 69.1759C6.53486 69.2642 6.51109 69.3617 6.50997 69.4608C6.49626 69.7879 6.53949 70.115 6.63765 70.4271C6.79227 71.1011 7.13566 71.7161 7.6269 72.1986C7.69315 72.2634 7.77282 72.3126 7.86019 72.3424C7.94756 72.3723 8.04042 72.3822 8.13205 72.3714C8.22368 72.3607 8.31177 72.3295 8.38998 72.2801C8.46818 72.2307 8.53457 72.1643 8.58426 72.0859C8.95018 71.4959 9.07059 70.784 8.91932 70.105Z" fill="#C6BDBA"/>
</g>
<g style="mix-blend-mode:overlay" opacity="0.57">
<g style="mix-blend-mode:overlay" opacity="0.57">
<path d="M3.68581 34.2714C3.90432 36.6726 4.73871 38.975 6.10684 40.9518C7.47498 42.9286 9.32964 44.5115 11.4882 45.5449C14.5965 47.1016 18.1503 47.498 21.5203 46.6639C24.8903 45.8297 27.8592 43.8188 29.9013 40.9872C30.8267 42.9842 31.4968 44.7557 33.8743 44.9168C37.592 45.1584 36.9538 42.3078 38.3419 40.0853C43.2244 57.4304 67.9879 46.8977 63.5522 30.7766C66.855 32.0328 70.5887 26.6537 68.7538 23.6582C71.3227 24.85 71.8333 21.629 71.2908 19.6803C72.8864 19.5353 75.0085 17.8443 74.6415 16.1855C77.2902 16.7331 79.1889 14.575 79.7633 12.127C80.0546 10.1442 79.696 8.11961 78.7421 6.36146C72.082 2.77832 64.7465 0.657149 57.2169 0.137117C49.6873 -0.382916 42.1339 0.709956 35.0522 3.34401C27.9706 5.97806 21.5208 10.0938 16.1261 15.421C10.7313 20.7483 6.51357 27.1668 3.74959 34.2553L3.68581 34.2714Z" fill="#C6BDBA"/>
</g>
</g>
<g style="mix-blend-mode:overlay" opacity="0.57">
<g style="mix-blend-mode:overlay" opacity="0.57">
<path d="M37.7994 6.02328C34.6083 4.1712 26.407 10.8548 23.7264 12.8196C18.6205 16.6687 13.6263 23.3522 12.7328 29.9392C12.599 31.0976 12.7113 32.2714 13.0619 33.3826C13.4126 34.4938 13.9936 35.5169 14.7665 36.3838C15.5393 37.2507 16.4862 37.9416 17.5442 38.4104C18.6021 38.8793 19.7468 39.1153 20.9021 39.1029C26.7899 39.0062 34.1136 30.1002 34.1934 24.6084C36.5868 26.702 40.2566 29.5526 41.8363 24.6084C48.9685 30.3579 56.3242 13.6409 52.2076 12.7551C56.0689 14.7038 61.0152 8.03639 60.1855 4.47719C58.191 -3.47867 40.3524 3.09217 37.7994 6.02328Z" fill="#C6BDBA"/>
</g>
</g>
<g opacity="0.34">
<path opacity="0.34" d="M53.5 108C64.4503 107.999 75.1365 104.606 84.1158 98.2805C93.0951 91.9546 99.935 82.9999 103.712 72.6255C107.489 62.2512 108.021 50.9569 105.236 40.2677C102.452 29.5785 96.4843 20.0091 88.1402 12.8518C88.7944 14.8166 95.8628 26.0096 90.7729 46.8011C84.6458 71.8443 57.84 86.0489 28.0025 78.0125C9.63733 73.0683 1.89874 62.6484 0.382935 60.297C1.91121 73.4349 8.164 85.5497 17.9551 94.3427C27.7461 103.136 40.3944 107.996 53.5 108Z" fill="#542B24"/>
</g>
<g opacity="0.34">
<path opacity="0.34" d="M104.16 36.6871C103.264 38.987 102.518 41.3433 101.926 43.7411C100.506 48.2827 98.9103 52.7277 97.4424 57.2371C94.1555 67.2705 87.2466 77.6743 77.6093 82.216C72.2641 84.7444 67.3337 88.658 61.6534 90.4295C56.8667 91.9434 51.6013 92.3782 46.6709 93.5699C39.3472 95.3254 34.2891 97.8378 26.6463 96.4044C23.0884 95.7497 19.6434 94.5779 16.4185 92.9258C19.1593 95.5909 22.1764 97.9505 25.4177 99.9636C27.0133 100.543 28.6088 101.059 30.0768 101.574C38.1609 104.017 46.7542 104.173 54.92 102.025C67.1741 98.9168 82.045 91.8145 91.2196 82.844C97.9658 76.1977 103 67.9874 105.883 58.9282C106.186 57.978 106.585 56.5607 106.952 54.8697C106.952 54.5959 106.952 54.3221 106.952 54.0484C106.976 48.1455 106.033 42.2792 104.16 36.6871Z" fill="#542B24"/>
</g>
<g style="mix-blend-mode:screen" opacity="0.31">
<g style="mix-blend-mode:screen" opacity="0.31">
<path d="M44.8359 19.6159C48.426 18.8267 51.1226 14.5428 52.032 11.2091C53.4042 6.13601 51.1225 4.31613 46.3837 4.47718C44.4789 4.3562 42.576 4.73925 40.8629 5.58843C39.379 6.40979 38.294 8.39069 36.8261 9.05099C35.3582 9.7113 32.9169 9.05101 31.0661 10.0978C28.6727 11.3862 28.6727 12.4169 27.6515 14.9293C18.5247 10.4682 9.70116 28.1354 15.3495 34.98C19.0194 39.425 27.4441 36.9287 31.6564 34.4647C35.5656 32.1456 39.0919 25.623 39.6344 21.3069C41.2778 22.7724 46.256 25.2043 44.8359 19.6159Z" fill="#C6BDBA"/>
</g>
</g>
<g style="mix-blend-mode:screen" opacity="0.31">
<g style="mix-blend-mode:screen" opacity="0.31">
<path d="M38.4217 19.9219C42.0756 20.4211 46.8305 15.9761 42.6819 13.4799C38.5334 10.9836 33.3956 14.7039 31.082 17.8604C26.5346 14.9776 20.8862 19.4709 20.6628 24.705C20.5922 25.3155 20.6433 25.934 20.8131 26.5242C20.9829 27.1144 21.268 27.6643 21.6516 28.1416C22.0353 28.6188 22.5096 29.0137 23.0468 29.3031C23.584 29.5924 24.1731 29.7704 24.7795 29.8264C29.1035 30.4867 32.1192 26.074 35.3582 23.9964L38.4217 19.9219Z" fill="#C6BDBA"/>
</g>
</g>
<g style="mix-blend-mode:multiply" opacity="0.33">
<path d="M43.6074 53.8067C40.9108 49.3939 33.7945 48.7337 31.0661 53.3719C29.2152 56.5124 29.0556 64.2427 33.3478 65.5311C30.5236 63.3086 29.7577 58.7349 30.8905 55.385C32.8372 49.5711 39.411 50.7951 42.7457 54.4993C42.8367 54.6146 42.9694 54.6887 43.1145 54.7053C43.2596 54.7219 43.4054 54.6797 43.5196 54.5878C43.6339 54.496 43.7073 54.3621 43.7237 54.2156C43.7402 54.0691 43.6983 53.922 43.6074 53.8067Z" fill="#542B24"/>
</g>
<g style="mix-blend-mode:multiply" opacity="0.33">
<path d="M46.4475 49.6195C46.0534 49.5687 45.6531 49.6204 45.2844 49.7698C44.9158 49.9192 44.5911 50.1613 44.3413 50.4731C44.1442 50.8845 44.0953 51.3523 44.203 51.7962C44.3108 52.24 44.5685 52.6321 44.9317 52.9049C45.0115 52.9854 45.1231 52.9049 45.0912 52.7761C44.804 52.1963 44.3732 51.1655 44.8998 50.6824C45.1572 50.4832 45.4565 50.3462 45.7746 50.282C46.0927 50.2178 46.4211 50.2281 46.7347 50.312C47.4733 50.4464 48.1437 50.833 48.6334 51.4071C49.1014 52.1837 49.3498 53.0749 49.3515 53.9839C49.3735 54.0242 49.4059 54.0578 49.4452 54.0812C49.4845 54.1045 49.5292 54.1168 49.5748 54.1168C49.6204 54.1168 49.6652 54.1045 49.7045 54.0812C49.7438 54.0578 49.7762 54.0242 49.7982 53.9839C50.9311 51.842 48.442 49.7967 46.4475 49.6195Z" fill="#542B24"/>
</g>
<g style="mix-blend-mode:multiply" opacity="0.33">
<path d="M49.5748 55.691C49.495 55.691 49.495 55.8521 49.5748 55.8521C55.2072 55.8521 64.2064 53.388 67.3497 59.6367C67.5092 59.9588 67.9241 59.7656 67.956 59.4757C68.7538 52.2446 53.2287 54.306 49.5748 55.691Z" fill="#542B24"/>
</g>
<g style="mix-blend-mode:multiply" opacity="0.33">
<path d="M77.8167 32.0811C77.9125 32.0811 77.8965 31.9201 77.8167 31.8718C75.4393 30.2613 71.227 32.2422 70.2058 34.7063C68.7538 38.2171 70.9398 43.9989 74.3543 45.5932C74.6575 45.7382 75.1202 45.4161 74.8649 45.0779C72.8226 42.3078 69.6792 39.0224 71.2748 35.1733C72.5513 32.0812 75.4712 33.1924 77.8167 32.0811Z" fill="#542B24"/>
</g>
<g style="mix-blend-mode:multiply" opacity="0.33">
<path d="M56.6433 12.9323C53.8351 13.3027 54.1063 15.7506 52.782 17.4256C52.3991 16.4754 52.0002 15.3963 50.8035 15.6701C49.6068 15.9439 49.0324 17.3934 48.9207 18.6657C48.3463 18.0859 47.6283 17.6832 46.9102 18.2308C45.4742 19.3582 46.9102 21.9349 47.708 22.9012C47.708 22.9012 47.8357 22.9012 47.8038 22.9012C47.4734 22.2488 47.2114 21.5633 47.0219 20.8559C47.6921 18.8267 48.3463 18.5368 48.9686 19.9541C49.013 20.022 49.0776 20.0741 49.1531 20.1028C49.2286 20.1316 49.3111 20.1355 49.3889 20.114C49.4668 20.0926 49.5359 20.0469 49.5865 19.9835C49.6371 19.9201 49.6665 19.8421 49.6706 19.7608C49.6706 19.02 49.7823 15.9439 51.8246 17.5061C51.9977 17.8252 52.1419 18.1594 52.2555 18.5046C52.2915 18.5622 52.3396 18.6112 52.3964 18.648C52.4532 18.6849 52.5173 18.7088 52.5842 18.718C52.6511 18.7272 52.7192 18.7215 52.7836 18.7014C52.8481 18.6812 52.9075 18.647 52.9575 18.6012C53.501 18.0955 53.9074 17.458 54.1382 16.7492C54.4733 15.9439 54.7127 14.5428 55.7338 14.269L58.4144 14.9615C58.4144 15.3802 58.558 15.799 58.6218 16.2177C58.6857 16.6364 59.2282 16.4593 59.276 16.1211C59.4675 14.269 58.6059 12.6585 56.6433 12.9323Z" fill="#542B24"/>
</g>
<g style="mix-blend-mode:multiply" opacity="0.33">
<path d="M18.4609 27.2496C15.8122 26.3477 15.0304 28.8601 14.7432 31.0665C14.1073 30.479 13.286 30.1374 12.4247 30.102C11.5633 30.0666 10.7173 30.3398 10.0362 30.8732C9.53986 31.2076 9.16824 31.6995 8.9802 32.2712C8.79217 32.8428 8.79851 33.4614 8.99817 34.029C9.19783 34.5966 9.57941 35.0807 10.0825 35.4047C10.5855 35.7286 11.1813 35.8739 11.7754 35.8175C11.8289 35.8194 11.8814 35.8032 11.9246 35.7715C11.9679 35.7397 11.9994 35.6943 12.014 35.6424C12.0287 35.5905 12.0258 35.5351 12.0057 35.4851C11.9856 35.4351 11.9494 35.3934 11.9031 35.3665C6.71742 31.9362 13.4987 28.9245 14.6635 32.065C14.6795 32.1361 14.719 32.1997 14.7755 32.2452C14.8321 32.2907 14.9022 32.3155 14.9746 32.3155C15.0469 32.3155 15.117 32.2907 15.1736 32.2452C15.2301 32.1997 15.2696 32.1361 15.2857 32.065C15.3974 30.1807 15.5889 26.7182 18.4769 27.8133C19.6478 28.3602 20.5912 29.3047 21.1424 30.4822C21.6936 31.6596 21.8175 32.995 21.4926 34.2553C21.4926 34.2553 21.4925 34.368 21.5723 34.2553C23.1519 31.8717 20.7266 27.9904 18.4609 27.2496Z" fill="#542B24"/>
</g>
<g style="mix-blend-mode:multiply" opacity="0.33">
<path d="M8.77572 39.2639C8.77572 39.2639 8.77572 39.1512 8.67999 39.2639C6.2547 42.1306 2.29762 51.7131 7.61092 53.7584C7.77048 53.7584 7.8343 53.5974 7.75452 53.5007C4.67504 49.4745 5.9994 43.2419 8.77572 39.2639Z" fill="#542B24"/>
</g>
<g style="mix-blend-mode:multiply" opacity="0.33">
<path d="M35.8209 6.31316C34.9752 4.8476 33.9221 4.70265 32.4702 5.57232C31.4011 6.24873 31.0661 7.27944 30.3162 8.21353C29.5662 9.14762 29.4226 8.97048 28.7206 9.58247C27.3962 10.7259 26.7101 12.1915 24.9231 12.9162C23.9657 13.2866 23.2158 13.0934 22.4499 13.8825C20.2958 16.1372 22.6892 17.1035 18.5248 19.3421C17.253 19.7696 16.065 20.4182 15.0145 21.2586C14.7911 21.4841 15.0145 21.7739 15.2857 21.7417L16.2591 21.5968C16.2798 21.5884 16.2975 21.574 16.31 21.5553C16.3226 21.5367 16.3293 21.5146 16.3293 21.4921C16.3293 21.4695 16.3226 21.4475 16.31 21.4289C16.2975 21.4102 16.2798 21.3958 16.2591 21.3874C17.8027 20.7764 19.2965 20.044 20.7267 19.1971C21.6362 18.408 21.7 17.5866 22.1946 16.572C23.7902 13.0933 24.1093 14.6233 26.4229 13.351C27.6994 12.6102 28.545 10.1301 30.2523 10.2589C30.34 10.2553 30.4243 10.2238 30.4931 10.1688C30.5619 10.1138 30.6117 10.0382 30.6352 9.9529C30.8427 8.88997 33.2201 4.01014 35.1667 6.73188C35.2217 6.81944 35.309 6.88137 35.4092 6.90402C35.5094 6.92667 35.6145 6.90821 35.7013 6.85269C35.788 6.79716 35.8493 6.7091 35.8718 6.60793C35.8942 6.50675 35.8759 6.40072 35.8209 6.31316Z" fill="#542B24"/>
</g>
<g style="mix-blend-mode:multiply" opacity="0.33">
<path d="M51.6331 2.52847C51.5814 2.54155 51.5328 2.56497 51.4902 2.59733C51.4476 2.62969 51.4118 2.67034 51.385 2.71688C51.3583 2.76343 51.341 2.81492 51.3343 2.86831C51.3276 2.9217 51.3315 2.97592 51.3459 3.02775C51.6901 4.42345 51.9565 5.83753 52.1437 7.26334C52.3033 8.05249 52.4788 8.19744 51.8565 8.7289C51.2343 9.26037 51.2023 9.03489 50.58 9.14762C50.2584 9.19163 49.949 9.30123 49.6706 9.46974C48.6654 10.0978 48.2186 12.0949 49.9099 11.7728C49.6546 10.4844 50.0056 9.87237 50.9789 9.9529H51.7767C51.9622 9.93298 52.1444 9.88966 52.3192 9.82403C52.5277 9.74595 52.711 9.61152 52.8489 9.43541C52.9868 9.25931 53.074 9.04832 53.1011 8.82553C53.1122 7.94844 52.9939 7.07456 52.7501 6.23262C52.6345 5.28503 52.4694 4.34427 52.2554 3.41425C53.4202 3.5753 53.7074 6.31316 54.2818 6.97346C54.3169 7.01326 54.3622 7.04251 54.4127 7.05802C54.4632 7.07353 54.517 7.07468 54.5681 7.06137C54.6192 7.04805 54.6657 7.0208 54.7024 6.98256C54.7392 6.94432 54.7648 6.89659 54.7764 6.84462C55.1115 5.26633 53.4362 1.91648 51.6331 2.52847Z" fill="#542B24"/>
</g>
<g style="mix-blend-mode:multiply" opacity="0.33">
<path d="M71.8652 80.0901C70.0622 79.3331 69.3282 81.008 68.3708 82.1515C67.9859 81.698 67.4836 81.3614 66.9201 81.1794C66.3565 80.9974 65.754 80.9771 65.1797 81.1208C63.9385 81.7467 62.9515 82.7885 62.3874 84.068C61.8768 85.0021 60.2972 88.7546 62.8501 88.0137C62.8797 88.0137 62.9082 88.0018 62.9291 87.9807C62.9501 87.9596 62.9618 87.9309 62.9618 87.901C62.9618 87.8711 62.9501 87.8424 62.9291 87.8213C62.9082 87.8001 62.8797 87.7882 62.8501 87.7882C61.2545 87.3051 62.7384 84.9698 63.249 84.1485C63.4986 83.7349 63.7871 83.3466 64.1107 82.9889C65.419 81.5878 66.855 81.9422 68.1315 83.1822C68.2255 83.2682 68.3477 83.3159 68.4746 83.3159C68.6014 83.3159 68.7237 83.2682 68.8177 83.1822C69.1527 82.844 69.5676 81.9743 69.9505 81.7327L72.1365 81.6361L72.4077 82.3287C72.5008 82.8614 72.5008 83.4064 72.4077 83.9392C72.4077 84.3579 72.9343 84.4384 73.1417 84.1324C73.345 83.7879 73.4735 83.4037 73.5188 83.0053C73.5641 82.607 73.5251 82.2034 73.4045 81.8214C73.2838 81.4393 73.0842 81.0874 72.8189 80.789C72.5535 80.4906 72.2285 80.2523 71.8652 80.0901Z" fill="#542B24"/>
</g>
<g style="mix-blend-mode:multiply" opacity="0.33">
<path d="M47.0698 64.9675C46.759 64.8614 46.4274 64.8324 46.1031 64.883C45.7789 64.9335 45.4715 65.0622 45.2069 65.2582C44.9424 65.4541 44.7285 65.7114 44.5834 66.0085C44.4382 66.3055 44.3662 66.6334 44.3732 66.9645C43.1287 66.7552 42.299 67.7698 42.0277 69.2192C41.7565 70.6687 41.4374 73.326 42.7138 74.244C42.7508 74.2652 42.7919 74.2779 42.8343 74.2811C42.8767 74.2844 42.9193 74.2781 42.959 74.2626C42.9987 74.2472 43.0345 74.2231 43.0639 74.192C43.0932 74.1609 43.1154 74.1237 43.1287 74.0829C43.368 73.02 42.299 66.9968 44.7243 68.2852C44.8241 68.3369 44.9364 68.3588 45.0481 68.3484C45.1598 68.3379 45.2663 68.2956 45.3551 68.2263C45.4438 68.157 45.5111 68.0637 45.5492 67.9571C45.5872 67.8506 45.5944 67.7354 45.5699 67.6249C45.2987 66.5458 46.0007 65.6117 47.1655 66.0949C47.4819 66.2506 47.7595 66.4763 47.9777 66.7551C48.1959 67.0339 48.3491 67.3586 48.426 67.7054C48.6622 68.3158 48.8439 68.9465 48.9685 69.5897C48.9685 69.6863 49.1121 69.6702 49.144 69.5897C49.4124 68.6964 49.3499 67.735 48.9683 66.8847C48.5867 66.0344 47.912 65.3531 47.0698 64.9675Z" fill="#542B24"/>
</g>
<g style="mix-blend-mode:multiply" opacity="0.33">
<path d="M51.7768 69.799C51.4563 69.4512 51.0175 69.2383 50.5482 69.2031C50.1333 69.2031 49.4632 69.3964 49.3675 69.8634C49.3572 69.8888 49.3542 69.9167 49.359 69.9438C49.3638 69.9708 49.3761 69.9959 49.3945 70.0162C49.4129 70.0365 49.4366 70.051 49.4629 70.0582C49.4892 70.0653 49.5169 70.0648 49.5429 70.0567C49.8621 70.0567 50.0695 69.7829 50.4365 69.8151C50.7119 69.8525 50.9687 69.9765 51.1704 70.1694C51.2821 70.2821 51.4736 70.5076 51.4257 70.7009C51.3779 70.8942 50.9949 70.9586 50.8354 71.0069C50.7715 71.0215 50.7126 71.0531 50.6649 71.0984C50.6172 71.1437 50.5825 71.201 50.5641 71.2645C50.5561 71.3287 50.5561 71.3937 50.5641 71.4578C50.5902 71.5359 50.6394 71.6039 50.705 71.6529C50.7706 71.7019 50.8495 71.7293 50.9311 71.7316C51.1621 71.755 51.3946 71.7042 51.5953 71.5863C51.796 71.4683 51.9546 71.2893 52.0484 71.0749C52.1422 70.8605 52.1665 70.6216 52.1177 70.3924C52.0689 70.1633 51.9496 69.9556 51.7768 69.799Z" fill="#542B24"/>
</g>
<g style="mix-blend-mode:multiply" opacity="0.33">
<path d="M72.3758 89.1894C70.2696 89.7692 67.8922 89.7209 66.0732 91.0576C64.5526 92.1927 63.4923 93.8468 63.0894 95.7119C63.0702 95.774 63.0723 95.8407 63.0952 95.9014C63.1181 95.9622 63.1606 96.0134 63.2158 96.0468C63.2711 96.0803 63.3358 96.094 63.3997 96.0859C63.4636 96.0777 63.5229 96.0481 63.5681 96.0018C64.8765 94.7939 65.2914 92.958 66.7593 91.8145C68.2273 90.671 70.7323 90.6227 72.4556 89.3988C72.5513 89.3182 72.4875 89.1572 72.3758 89.1894Z" fill="#542B24"/>
</g>
<g style="mix-blend-mode:multiply" opacity="0.33">
<path d="M72.0886 91.4119C71.3642 91.3137 70.6276 91.3675 69.9248 91.5698C69.222 91.7721 68.568 92.1186 68.0039 92.5875C67.0944 93.3606 65.9615 95.1643 66.7434 96.34C66.7595 96.3632 66.7811 96.3822 66.8061 96.3953C66.8311 96.4084 66.8588 96.4153 66.8869 96.4153C66.9151 96.4153 66.9429 96.4084 66.9679 96.3953C66.9929 96.3822 67.0144 96.3632 67.0305 96.34C67.2647 95.8245 67.4413 95.2844 67.5571 94.7295C67.7714 94.1053 68.1457 93.5496 68.6421 93.119C69.668 92.337 70.8491 91.7877 72.1045 91.5085C72.1045 91.5085 72.1364 91.428 72.0886 91.4119Z" fill="#542B24"/>
</g>
<g style="mix-blend-mode:multiply" opacity="0.33">
<path d="M73.381 93.1351C73.9554 94.6007 72.5194 95.5508 71.3546 96.0984C70.7643 96.3722 70.1419 96.6299 69.5197 96.8553C69.1527 96.9842 68.6102 97.0808 68.3868 97.4512C68.347 97.526 68.3381 97.6137 68.362 97.6951C68.3859 97.7766 68.4407 97.8452 68.5145 97.886C69.0251 98.1276 69.6952 97.725 70.1101 97.5318C70.9479 97.1673 71.7448 96.7138 72.4875 96.1789C73.381 95.5025 74.5777 94.1658 73.381 93.1351Z" fill="#542B24"/>
</g>
<g style="mix-blend-mode:multiply" opacity="0.33">
<path d="M71.211 88.6096C68.6741 86.9991 64.5893 89.3826 62.7065 91.0737C60.8237 92.7647 58.7495 96.5816 61.3981 98.8685C61.5258 98.9812 61.7971 98.8685 61.7173 98.6752C59.4675 92.6681 66.2168 89.1088 71.1791 88.7545L71.211 88.6096Z" fill="#542B24"/>
</g>
<g style="mix-blend-mode:multiply" opacity="0.33">
<path d="M51.7768 84.9216C50.5801 85.6463 48.5856 89.8819 46.99 88.5452C46.931 88.4859 46.8577 88.4432 46.7774 88.4213C46.6971 88.3993 46.6125 88.3989 46.5319 88.4201C46.4514 88.4412 46.3777 88.4832 46.3181 88.5418C46.2586 88.6005 46.2151 88.6738 46.1922 88.7546C45.6497 90.5905 44.7402 92.1849 42.4585 91.3797C41.648 91.013 40.9038 90.5122 40.2566 89.898C41.1821 91.5085 42.1235 92.7325 44.1658 92.3621C44.8482 92.2101 45.4741 91.8664 45.9711 91.3705C46.468 90.8746 46.8158 90.2468 46.9741 89.5598C49.1281 90.4295 51.7608 87.0313 52.1438 85.1631C52.1513 85.1169 52.1454 85.0694 52.1267 85.0265C52.1079 84.9836 52.0772 84.9471 52.0383 84.9215C51.9994 84.8959 51.954 84.8823 51.9075 84.8823C51.8611 84.8823 51.8156 84.8959 51.7768 84.9216Z" fill="#542B24"/>
</g>
<g style="mix-blend-mode:multiply" opacity="0.33">
<path d="M62.9299 80.9758C62.4353 79.6874 61.5577 79.5586 60.4727 80.4605C59.6641 81.2699 59.1858 82.3561 59.1324 83.5043C59.1324 83.8264 58.8931 85.9683 58.3825 86.1133C58.191 86.1133 57.824 85.4047 57.5368 85.5335C56.4359 85.9845 55.9412 86.2099 56.1646 87.7399C56.4697 88.6402 56.6574 89.5768 56.7231 90.5261C56.7512 91.5171 56.4965 92.4955 55.9891 93.3445C54.8881 95.261 52.6543 97.5318 50.5641 95.261C50.5641 95.261 50.4045 95.261 50.4364 95.3576C52.5426 99.255 56.6752 94.9871 57.5847 92.2654C57.88 91.0051 57.88 89.6927 57.5847 88.4324C57.3134 85.0987 57.6804 87.7238 58.5261 87.3373C58.8771 87.1762 59.2441 87.1601 59.5632 86.7736C59.8195 86.3722 59.973 85.9129 60.01 85.4369C60.01 85.1792 60.0898 84.9215 60.1217 84.6638C60.005 83.9801 60.138 83.2768 60.496 82.6845C60.8539 82.0922 61.4126 81.6511 62.0683 81.4429C62.2119 81.8455 63.1214 81.5073 62.9299 80.9758Z" fill="#542B24"/>
</g>
<g style="mix-blend-mode:multiply" opacity="0.33">
<path d="M95.0172 21.4357C94.3205 21.643 93.6992 22.0517 93.2301 22.6114C92.6476 23.2221 92.1582 23.9168 91.7781 24.6728C91.5547 25.1237 91.108 25.8968 91.475 26.3799C91.4972 26.4099 91.5262 26.4343 91.5594 26.451C91.5926 26.4678 91.6293 26.4766 91.6664 26.4766C91.7036 26.4766 91.7402 26.4678 91.7734 26.451C91.8067 26.4343 91.8356 26.4099 91.8579 26.3799C92.0805 26.0212 92.2474 25.6301 92.3526 25.2204C92.628 24.5888 92.9876 23.9982 93.4216 23.4649C93.7831 22.9792 94.2194 22.5551 94.714 22.2087C95.0491 21.9833 95.5437 21.9994 95.8468 21.7739C95.8309 21.4196 95.2884 21.3874 95.0172 21.4357Z" fill="#542B24"/>
</g>
<g style="mix-blend-mode:multiply" opacity="0.33">
<path d="M24.2689 64.1783C23.9685 63.7789 23.5604 63.4754 23.0935 63.304C22.6265 63.1326 22.1206 63.1007 21.6362 63.212C21.6362 60.9412 20.3437 58.912 18.2535 60.0716C16.993 57.2854 11.8712 58.5416 9.17464 59.9105C9.42993 58.5738 9.65332 56.8184 8.58428 56.3352C6.98869 55.6427 6.58978 58.9281 6.27066 59.6367C6.62866 59.0782 7.01755 58.5406 7.43546 58.0262C8.74384 57.4625 8.08964 59.9427 7.93008 60.8768C7.93008 61.2795 8.29704 61.7787 8.69593 61.4727C10.2915 60.3454 16.8494 57.994 17.3759 61.1667C17.4557 61.6177 18.0461 61.666 18.3333 61.4083C20.4395 61.2955 21.1096 62.1813 20.3597 64.0978C20.3271 64.2207 20.3354 64.3509 20.3833 64.4686C20.4313 64.5862 20.5162 64.6846 20.6251 64.7487C20.7339 64.8127 20.8606 64.8389 20.9857 64.8232C21.1107 64.8074 21.2271 64.7506 21.317 64.6615C23.8912 65.499 24.7316 67.0128 23.8381 69.2031C23.6307 69.9117 23.4072 70.6042 23.1519 71.2968C22.8966 71.9893 23.6944 72.0376 23.9497 71.6349C25.2102 69.5574 26.1038 66.1754 24.2689 64.1783Z" fill="#542B24"/>
</g>
<g style="mix-blend-mode:screen" opacity="0.57">
<path d="M24.7156 36.9126C24.4125 36.7838 24.205 37.283 24.4922 37.4602C30.2044 40.7617 26.5665 49.8932 20.9341 45.0134C20.8997 44.9698 20.856 44.9346 20.8063 44.9104C20.7566 44.8862 20.7021 44.8736 20.6469 44.8736C20.5917 44.8736 20.5372 44.8862 20.4874 44.9104C20.4377 44.9346 20.394 44.9698 20.3597 45.0134L18.078 45.4805C18.0431 45.4213 17.9918 45.3736 17.9305 45.3434C17.8692 45.3131 17.8005 45.3015 17.7328 45.3101C17.6651 45.3186 17.6013 45.3469 17.5492 45.3915C17.4972 45.436 17.4591 45.4949 17.4398 45.561C16.9577 48.1273 15.9702 50.5698 14.5358 52.7438C10.4192 58.5738 4.59529 54.467 3.82941 49.0235C3.97301 53.082 7.22801 58.1229 11.8073 56.1903C14.1209 55.224 15.6048 52.6633 16.5941 50.5052C16.9451 49.7483 17.36 47.0749 17.9184 46.6884C17.9184 46.6884 19.0194 47.0748 18.8758 47.1554C19.5766 46.6798 20.3541 46.3311 21.1734 46.1247C22.9605 46.1247 24.1731 47.3164 26.2474 46.4629C31.449 44.4175 28.7046 38.6036 24.7156 36.9126Z" fill="#C6BDBA"/>
</g>
<g style="mix-blend-mode:screen" opacity="0.57">
<path d="M42.3468 77.9803C37.3048 81.3785 33.4914 74.9687 31.5447 71.2162C32.7414 75.7256 37.4484 82.4897 42.7138 78.6567C43.1606 78.383 42.7776 77.6904 42.3468 77.9803Z" fill="#C6BDBA"/>
</g>
<g style="mix-blend-mode:screen" opacity="0.57">
<path d="M58.3347 71.9409C58.3235 71.9049 58.3012 71.8734 58.2711 71.851C58.241 71.8287 58.2045 71.8166 58.1671 71.8166C58.1297 71.8166 58.0933 71.8287 58.0631 71.851C58.033 71.8734 58.0107 71.9049 57.9995 71.9409C57.8917 73.2747 57.6184 74.5895 57.1858 75.8544C56.4359 77.2395 54.9839 77.014 53.9946 75.9511H53.8829C53.6436 77.5616 55.9572 77.7549 56.9465 77.0946C58.4464 76.1605 58.6538 73.487 58.3347 71.9409Z" fill="#C6BDBA"/>
</g>
<g style="mix-blend-mode:screen" opacity="0.57">
<path d="M55.303 79.5908C53.7074 76.7724 50.9311 78.4151 50.596 80.9758C48.8568 80.8631 45.7135 81.926 47.1177 84.0519C47.1167 83.6156 47.2268 83.1864 47.4376 82.8055C47.6483 82.4246 47.9526 82.1047 48.3211 81.8767C48.6896 81.6487 49.1099 81.5202 49.5419 81.5034C49.9738 81.4867 50.4027 81.5823 50.7875 81.7811C50.8438 81.7957 50.9026 81.7973 50.9596 81.7856C51.0165 81.7739 51.0701 81.7493 51.1162 81.7136C51.1623 81.6779 51.1998 81.6321 51.2258 81.5796C51.2518 81.5271 51.2656 81.4694 51.2662 81.4107C51.2172 80.9499 51.2939 80.4843 51.4879 80.0642C51.682 79.6442 51.9859 79.2856 52.3671 79.0271C53.3723 78.4957 54.1701 79.156 54.8722 79.8968C54.9124 79.9545 54.9736 79.9936 55.0425 80.0057C55.1113 80.0178 55.1821 80.0018 55.2392 79.9612C55.2963 79.9207 55.3351 79.8588 55.3471 79.7894C55.3591 79.7199 55.3432 79.6485 55.303 79.5908Z" fill="#C6BDBA"/>
</g>
<g style="mix-blend-mode:screen" opacity="0.57">
<path d="M70.5249 62.3746C70.5249 62.2135 70.3015 62.278 70.2855 62.3746C69.9505 64.9031 69.8867 67.351 68.2113 69.4125C67.3564 70.4091 66.2768 71.1839 65.0634 71.6715C63.8499 72.1592 62.5382 72.3455 61.2386 72.2148C61.1588 72.2148 61.1269 72.3113 61.2386 72.3275C66.9987 73.9541 71.2748 67.6248 70.5249 62.3746Z" fill="#C6BDBA"/>
</g>
<g style="mix-blend-mode:screen" opacity="0.57">
<path d="M87.2148 35.4954C87.2057 35.4707 87.1893 35.4494 87.168 35.4344C87.1466 35.4194 87.1211 35.4114 87.0951 35.4114C87.069 35.4114 87.0436 35.4194 87.0222 35.4344C87.0008 35.4494 86.9844 35.4707 86.9754 35.4954C86.7041 37.1059 86.9754 39.4411 85.6192 40.6973C85.0288 41.261 84.0235 41.2449 83.5289 41.9052C82.7949 42.9359 83.0662 44.1599 82.9705 45.3355C82.9135 45.9234 82.8067 46.5053 82.6514 47.0749L79.875 48.8303C78.2795 48.9108 77.4338 46.6561 76.8913 45.6093H76.7636C77.0189 49.2007 82.077 51.5842 83.2737 47.2198C83.6247 45.9153 83.13 43.9988 83.6885 42.8392C84.2469 41.6797 85.2841 41.8085 86.0181 41.0838C86.6197 40.3024 87.0396 39.3944 87.2467 38.4271C87.4539 37.4598 87.4429 36.4578 87.2148 35.4954Z" fill="#C6BDBA"/>
</g>
<g style="mix-blend-mode:screen" opacity="0.57">
<path d="M37.8154 7.92365C37.0336 11.4345 32.8053 15.7668 28.928 13.5282C28.8959 13.5063 28.8589 13.4926 28.8204 13.4882C28.7819 13.4839 28.7429 13.4891 28.7068 13.5034C28.6707 13.5176 28.6386 13.5406 28.6132 13.5701C28.5878 13.5997 28.5699 13.635 28.561 13.6731L23.9179 16.3626C23.8896 16.3529 23.8595 16.3494 23.8298 16.3525C23.8001 16.3555 23.7713 16.365 23.7456 16.3803C23.7198 16.3956 23.6977 16.4163 23.6806 16.4411C23.6635 16.4658 23.6519 16.494 23.6466 16.5237C22.9286 18.5529 18.9875 25.4781 15.3336 22.5148C15.3336 22.5148 15.2219 22.5147 15.3336 22.5953C16.7537 24.2863 19.3385 22.9496 20.8064 21.8384C22.2744 20.7271 22.8647 18.3758 24.3008 17.5383C25.2262 16.9908 26.1676 17.3612 27.1569 16.7653C28.1462 16.1694 28.3695 14.8327 29.5503 14.4784C30.731 14.1241 31.8958 14.8488 33.3797 14.2046C34.6469 13.6959 35.7577 12.8569 36.5986 11.7732C37.4396 10.6895 37.9806 9.40008 38.1664 8.0364C38.1812 7.98941 38.1769 7.9384 38.1545 7.8946C38.1321 7.85081 38.0933 7.81782 38.0468 7.80287C38.0002 7.78792 37.9497 7.79223 37.9063 7.81489C37.8629 7.83754 37.8302 7.87667 37.8154 7.92365Z" fill="#C6BDBA"/>
</g>
<g style="mix-blend-mode:screen" opacity="0.57">
<path d="M42.4585 33.9976C41.3735 34.2392 40.863 34.7062 39.7301 33.4984C39.7001 33.4641 39.6633 33.4366 39.622 33.4178C39.5808 33.399 39.536 33.3893 39.4908 33.3893C39.4455 33.3893 39.4007 33.399 39.3594 33.4178C39.3182 33.4366 39.2813 33.4641 39.2514 33.4984C38.9642 34.2875 38.326 34.513 37.3367 34.1909C37.3047 34.1232 37.2503 34.069 37.1829 34.0374C37.1155 34.0059 37.0393 33.9991 36.9675 34.0182C36.8957 34.0372 36.8327 34.0811 36.7894 34.142C36.7461 34.2029 36.7253 34.2771 36.7304 34.3519C38.0547 40.2947 32.2947 46.4146 26.7739 47.2359C32.1032 48.0895 37.1931 41.4542 37.5282 36.6066C37.5601 36.2477 37.5601 35.8866 37.5282 35.5276C37.8095 35.6431 38.1244 35.6431 38.4057 35.5276C38.7248 35.4149 38.8525 34.98 39.1397 34.819C40.1769 34.2875 39.3312 34.7063 40.1928 34.7224C41.0114 34.765 41.832 34.6999 42.6341 34.5291C43.0649 34.513 42.8574 33.901 42.4585 33.9976Z" fill="#C6BDBA"/>
</g>
<g style="mix-blend-mode:screen" opacity="0.57">
<path d="M55.3668 44.0632C54.6009 45.1584 53.2766 46.3985 51.7927 45.6737C51.1864 45.3838 50.8832 44.6752 50.4843 44.176C50.1904 43.686 49.7404 43.3112 49.2079 43.1131C49.1394 43.095 49.067 43.0993 49.001 43.1253C48.9351 43.1513 48.879 43.1978 48.8409 43.258C48.075 44.8685 46.1443 42.7265 45.6497 41.9857C45.6497 41.9857 45.5061 41.9857 45.538 41.9857C45.7022 42.5136 45.9786 42.999 46.3479 43.4079C46.7172 43.8168 47.1705 44.1394 47.6761 44.3531C48.1548 44.4981 48.3782 44.3531 48.8249 44.3531C48.9366 44.3531 49.0962 43.9988 49.1759 43.9988C49.6706 43.9988 49.894 44.7718 50.1174 45.0939C50.8673 46.173 51.5534 46.9622 52.9575 46.8494C53.6628 46.826 54.3358 46.5455 54.852 46.06C55.3683 45.5744 55.6928 44.9166 55.7657 44.2082C55.8295 43.9344 55.4785 43.9022 55.3668 44.0632Z" fill="#C6BDBA"/>
</g>
<g style="mix-blend-mode:screen" opacity="0.57">
<path d="M76.4445 13.4477C75.0564 15.7507 69.8229 19.7769 66.871 19.2455C66.6157 19.2455 66.2806 19.4226 66.3923 19.7447C66.9382 21.165 67.1881 22.6836 67.1263 24.2058C67.1263 24.5923 66.2647 28.3931 65.3871 27.0403C65.3279 26.9668 65.2449 26.9168 65.1528 26.899C65.0606 26.8812 64.9652 26.8967 64.8833 26.9429C64.8014 26.989 64.7382 27.0628 64.7049 27.1513C64.6716 27.2399 64.6702 27.3373 64.701 27.4268C66.1689 30.2774 60.377 29.7137 59.1643 29.907C58.9569 29.907 58.9569 30.3096 59.1643 30.3257C61.1428 30.6156 62.6906 31.2437 64.4936 29.9392C64.7923 29.7685 65.0528 29.5374 65.2587 29.2602C65.4647 28.9831 65.6116 28.6659 65.6903 28.3287C67.2858 28.7635 67.956 23.6904 67.8283 22.4987C67.8283 21.8061 67.3497 20.5177 67.589 20.1312C67.589 20.1312 70.4132 19.0361 70.7004 18.875C73.1576 17.4578 75.8701 16.4754 76.9232 13.6248C77.0508 13.3672 76.5722 13.19 76.4445 13.4477Z" fill="#C6BDBA"/>
</g>
<g style="mix-blend-mode:screen" opacity="0.57">
<path d="M51.6651 35.5437C51.5323 35.3235 51.3203 35.1638 51.0735 35.0977C50.8267 35.0317 50.5641 35.0645 50.3407 35.1894C50.0693 35.3202 49.8307 35.5113 49.6428 35.7484C49.455 35.9855 49.3226 36.2623 49.2557 36.5583L49.1759 36.7355C49.1284 36.882 49.1284 37.04 49.1759 37.1864C49.128 37.4851 49.128 37.7896 49.1759 38.0883C49.2429 38.3245 49.3994 38.5245 49.6114 38.6451C49.8234 38.7657 50.074 38.7971 50.3088 38.7325C50.6157 38.6272 50.8973 38.458 51.1352 38.2358C51.3732 38.0136 51.5622 37.7434 51.6901 37.4428C51.8179 37.1421 51.8818 36.8177 51.8775 36.4906C51.8732 36.1634 51.8008 35.8408 51.6651 35.5437Z" fill="#C6BDBA"/>
</g>
<g style="mix-blend-mode:screen" opacity="0.57">
<path d="M54.4893 39.1029C54.4131 39.1029 54.34 39.1334 54.2862 39.1878C54.2323 39.2422 54.2021 39.3159 54.2021 39.3928C54.2021 39.4697 54.2323 39.5434 54.2862 39.5977C54.34 39.6521 54.4131 39.6827 54.4893 39.6827C54.5654 39.6827 54.6385 39.6521 54.6924 39.5977C54.7462 39.5434 54.7765 39.4697 54.7765 39.3928C54.7765 39.3159 54.7462 39.2422 54.6924 39.1878C54.6385 39.1334 54.5654 39.1029 54.4893 39.1029Z" fill="#C6BDBA"/>
</g>
</g>
<defs>
<clipPath id="clip0_1_292">
<rect width="107" height="108" fill="white"/>
</clipPath>
</defs>
</svg>
