<svg width="196" height="196" viewBox="0 0 196 196" fill="none" xmlns="http://www.w3.org/2000/svg">
<g clip-path="url(#clip0_1_3604)">
<path d="M151.402 180.464C197.394 151.787 211.43 91.2553 182.753 45.2633C154.076 -0.728606 93.5444 -14.7649 47.5525 13.9125C1.56054 42.5898 -12.4757 103.121 16.2016 149.113C44.8789 195.105 105.41 209.141 151.402 180.464Z" fill="#8D705C"/>
<path opacity="0.72" d="M195.772 91.6508H194.747L195.687 90.2556C194.376 74.1412 189.104 58.6002 180.34 45.0139C162.716 36.3015 138.458 35.8745 122.286 34.9065L21.5247 37.7536L20.7844 37.896C7.64419 54.7211 0.362843 75.3799 0.0493088 96.7259C-0.264226 118.072 6.40723 138.936 19.0477 156.139C37.2127 162.09 54.6374 167.016 74.4823 168.496C93.8431 169.92 113.859 168.496 133.277 168.496C139.451 168.909 145.651 168.603 151.755 167.585C160.296 165.535 165.791 159.357 173.166 154.83C175.378 153.428 177.748 152.291 180.227 151.442C191.693 133.697 197.143 112.733 195.772 91.6508Z" fill="#5C2000"/>
<path opacity="0.89" d="M169.123 30.4648C161.847 28.9858 154.399 28.5449 147 29.1551C141.106 29.4114 134.33 28.2725 128.294 28.842C126.757 29.0128 125.789 26.8205 123.995 27.1052C122.201 27.3899 121.546 30.5218 119.468 30.9204C116.08 31.5468 112.578 30.6357 109.161 31.4044C101.075 33.2551 98.541 34.6502 90.5973 33.9384C82.0558 33.1981 73.7135 31.6891 64.9727 30.5787C59.2783 29.8669 54.9221 31.6607 49.3132 31.3475C43.7042 31.0343 40.1737 27.5323 34.9065 27.4753C32.9893 27.5215 31.0816 27.76 29.2121 28.1871C24.1892 33.1386 19.7038 38.6071 15.8304 44.5015L18.6775 44.2452C29.2406 56.0326 33.1412 44.2452 44.3022 44.8146C51.4201 45.1278 63.0651 61.2144 67.0796 48.6014C68.6126 48.9224 70.1618 49.16 71.7205 49.3132C72.0337 48.4021 71.9768 47.6049 72.3754 46.6653C81.4294 48.5444 106.855 62.7519 114.912 56.061C120.863 51.1069 114.343 49.541 122.429 47.1209C127.55 46.3193 132.784 46.63 137.775 48.0319C141.106 43.5049 156.396 44.1598 161.805 45.1847C167.215 46.2097 177.322 54.495 181.736 52.7583C181.992 54.8652 183.985 56.6589 184.327 58.4526C185.227 58.1392 186.095 57.7387 186.918 57.2568C182.494 47.4116 176.482 38.3603 169.123 30.4648Z" fill="#96C4D1"/>
<path opacity="0.72" d="M192.925 73.742C192.185 70.8948 191.331 68.0477 190.334 65.2005C187.919 65.6795 185.426 65.6016 183.045 64.9727C179.145 63.5491 176.44 58.054 172.255 56.4312C160.695 52.1888 147.456 55.8617 135.924 56.4312C132.508 56.602 129.148 54.6944 125.532 55.4916C121.916 56.2888 121.062 58.8228 118.443 59.8478C111.077 62.7589 103.089 63.739 95.2383 62.6949C91.7078 62.097 88.2342 59.4776 84.6183 60.047C80.3475 60.7304 78.6107 65.7414 73.2295 65.3998C68.8164 65.172 68.2185 61.8977 64.688 60.8158C60.4742 59.5346 57.2568 61.1859 53.2993 60.8158C49.3417 60.4457 46.466 57.6839 43.3341 57.4276C39.0918 57.1144 35.7891 59.4492 31.9454 59.4492C22.4073 59.4492 16.3143 55.5485 10.1644 54.495C7.41274 60.0765 5.21006 65.9122 3.58745 71.9198C8.71238 69.699 14.4067 66.7095 17.8234 67.3643C16.8838 75.251 27.9593 76.8454 33.2266 74.6246C34.0808 91.8786 57.7693 73.5427 63.7769 73.5711C69.7844 73.5996 96.1209 94.8965 98.9681 80.9169C99.393 81.7868 100.019 82.5429 100.795 83.1227C101.57 83.7024 102.472 84.0889 103.427 84.2503C104.382 84.4118 105.361 84.3434 106.284 84.0508C107.207 83.7583 108.047 83.2501 108.734 82.5683C111.78 85.0453 120.977 85.9849 124.877 84.5613C130.088 82.6252 132.138 75.3364 137.775 74.4823C146.004 73.2295 157.933 86.2127 163.912 72.9733C164.425 81.1731 183.843 80.4044 192.925 73.742Z" fill="#96C4D1"/>
<path opacity="0.83" d="M195.431 87.7502C179.515 85.7287 163.684 89.2876 148.196 93.0174C141.42 94.6688 117.532 92.7327 116.678 97.3452C113.046 95.5517 108.943 94.9442 104.947 95.6084C103.353 95.9785 100.221 100.021 99.4236 99.993C95.5514 99.8222 94.8112 95.6084 90.5119 94.2986C85.1877 92.6473 83.0523 96.0924 78.326 96.6618C70.4678 97.6014 64.0901 95.0104 55.5485 96.6618C44.1598 98.7118 40.0029 98.541 24.2295 97.6014C17.2824 98.2847 7.68739 93.3306 0.113886 93.8716C-0.296598 103.261 0.662527 112.661 2.96107 121.774C12.129 123.682 22.6351 122.856 31.4329 125.048C49.2528 129.402 67.7038 130.558 85.9279 128.465C96.2347 127.098 101.16 125.248 110.186 129.575C115.14 131.91 120.948 135.697 127.44 131.255C130.458 139.028 139.056 132.024 144.694 131.825C150.331 131.625 154.033 132.679 160.837 131.141C170.518 128.977 182.931 126.785 192.953 121.859C192.953 121.404 193.21 120.948 193.295 120.493C195.865 109.78 196.587 98.7064 195.431 87.7502Z" fill="#96C4D1"/>
<path opacity="0.72" d="M182.96 146.801C174.418 146.032 163.03 153.549 156.652 153.691C153.121 146.943 134.387 157.933 126.785 156.538C121.318 155.598 117.759 150.445 112.948 150.16C108.136 149.876 100.221 154.317 94.8681 155.171C90.398 155.883 85.2161 157.535 80.9454 155.684C79.0662 154.887 76.817 150.502 75.0232 149.99C71.8629 149.306 71.7775 151.527 68.4747 152.267C57.3422 154.687 37.1557 161.663 25.767 151.869C23.0373 152.305 20.3639 153.04 17.7949 154.061C22.1007 160.237 27.1071 165.893 32.7141 170.916C37.6374 170.241 42.3412 168.449 46.466 165.678C47.7472 171.543 53.4985 171.372 58.4811 171.913C61.3283 172.198 64.1755 171.059 66.2824 171.372C69.9371 172.286 73.5394 173.398 77.0732 174.703C87.4654 177.55 95.7792 176.411 106.57 174.532C111.467 173.707 121.717 169.635 126.102 170.518C129.945 171.315 132.793 175.785 137.889 177.266C142.964 178.499 148.192 178.978 153.406 178.689C165.519 170.405 175.619 159.508 182.96 146.801Z" fill="#96C4D1"/>
<path opacity="0.72" d="M52.3881 153.719C42.8501 159.129 13.6095 155.115 26.7635 138.943C34.2231 129.775 58.9936 128.522 66.624 137.604C75.1656 147.513 63.2928 149.221 55.0645 151.84L52.3881 153.719Z" fill="#F2902B"/>
<path opacity="0.72" d="M153.15 156.453C149.363 153.036 144.067 155.712 139.683 157.506C139.412 158.898 139.412 160.328 139.683 161.72C144.495 163.912 149.933 164.852 153.919 160.98L153.15 156.453Z" fill="#F2902B"/>
<path opacity="0.72" d="M188.54 131.027C191.558 123.824 180.881 124.365 177.607 128.892C179.202 116.905 162.83 117.133 156.794 123.368C150.701 120.037 143.697 122.657 138.629 127.041C133.789 119.781 125.39 122.229 118.87 125.504C114.855 112.065 82.4828 119.041 75.0517 126.5C62.3817 139.199 101.189 139.626 108.734 135.896C108.164 149.562 127.753 138.999 132.451 135.668C138.145 139.911 144.665 140.395 149.306 134.757C152.153 139.683 160.439 137.348 162.887 132.906C167.357 141.363 188.341 145.747 188.54 131.027Z" fill="#F2902B"/>
<path opacity="0.72" d="M191.103 67.4213C187.43 65.2859 183.045 65.7414 180.426 72.1761C175.159 67.6491 161.691 57.1714 157.933 68.9872C150.303 63.2928 148.794 69.6706 142.672 70.6671C137.234 71.5497 135.668 69.1011 130.002 67.8199C120.92 65.9692 120.863 70.667 112.919 73.7989C104.207 77.0732 99.9645 71.2934 92.391 68.9587C83.8495 66.2824 81.0023 71.9483 74.226 71.9767C69.5851 71.9767 66.9657 66.6525 61.7554 67.5067C59.079 67.9338 57.0006 72.176 54.2388 72.6885C51.477 73.201 50.025 71.265 47.9465 71.208C41.7112 71.0087 34.1946 71.4643 24.3149 71.0087C28.8989 62.097 14.3782 58.7374 9.53804 65.4567C8.56303 64.6618 7.47971 64.0098 6.32073 63.5206C4.86266 67.4381 3.64559 71.4411 2.67634 75.5073C1.54516 80.3106 0.783672 85.1936 0.39859 90.1133C3.97544 91.3493 7.76905 91.8329 11.5416 91.5341C15.3141 91.2352 18.9843 90.1602 22.3219 88.3765C27.5038 96.1209 32.828 94.441 40.4869 93.5014C46.6368 92.7612 55.3207 92.7042 62.4672 88.6328C66.3109 104.207 83.5932 89.6008 91.9355 89.1168C100.278 88.6328 105.659 95.0104 114.998 93.0174C121.802 91.5653 124.507 89.4584 132.422 89.857C134.956 89.9994 137.149 91.3661 139.74 91.0244C143.982 90.4834 146.345 86.7252 149.619 86.0988C154.944 85.0738 154.431 87.2092 159.955 88.946C169.236 92.0494 170.432 87.0099 176.753 84.5044C183.757 81.6572 182.647 85.3585 189.508 84.5044C191.427 84.3599 193.273 83.7116 194.861 82.6252C194.017 77.4649 192.76 72.3806 191.103 67.4213Z" fill="#F2902B"/>
<g style="mix-blend-mode:overlay" opacity="0.83">
<path d="M195.715 105.118C193.483 104.072 191.373 102.783 189.423 101.274C188.535 104.595 188.17 108.034 188.341 111.467C177.664 112.578 171.543 99.2243 159.442 100.335C158.712 102.619 158.604 105.056 159.129 107.396C155.484 107.681 151.819 107.206 148.367 106.001C148.537 107.168 147.911 108.677 148.053 109.844C140.85 110.869 113.659 96.5195 113.887 108.221C106.94 106.513 89.1737 94.6973 86.6397 108.221C82.6537 104.605 77.0163 104.862 77.6426 110.442C71.3504 108.022 64.688 106.712 61.7269 113.118C56.3457 110.784 36.5863 95.8931 35.305 109.844C32.2016 107.253 23.2045 99.6229 21.0691 107.396C18.4213 104.264 13.3533 103.894 11.2179 113.09C12.7269 107.994 5.01104 100.477 0.0284729 100.762C0.208308 106.096 0.808063 111.409 1.82219 116.649C5.74607 120.225 10.7621 122.372 16.0581 122.742C18.5636 114.2 27.0482 123.169 32.344 124.906C42.5084 128.294 44.1883 124.707 38.2946 117.987L40.4015 116.279C45.7222 120.233 51.8291 123 58.3103 124.393C60.3033 118.101 61.8692 118.386 68.6171 119.382C71.4642 119.809 73.5142 123.311 77.4433 122.742C80.5752 122.286 82.7106 118.13 85.2161 116.734C88.1624 114.787 91.5547 113.619 95.0753 113.341C98.5959 113.062 102.13 113.681 105.346 115.14C109.503 116.877 116.08 125.504 118.101 117.987C120.057 117.283 122.198 117.284 124.153 117.991C126.108 118.698 127.754 120.067 128.806 121.859C128.066 114.941 140.708 112.748 145.206 118.357C145.073 117.471 144.997 116.577 144.978 115.681C151.555 117.959 163.884 120.35 162.46 111.382C167.443 117.076 172.141 121.404 178.347 113.688C181.195 118.585 186.433 119.382 192.27 120.151C192.599 118.75 193.231 117.438 194.121 116.307C194.861 112.61 195.394 108.875 195.715 105.118Z" fill="#205673"/>
</g>
<g style="mix-blend-mode:overlay" opacity="0.83">
<path d="M36.9564 39.3481C35.4759 34.1947 26.0517 32.7996 27.7885 39.1772C26.087 38.819 24.3132 39.1038 22.8094 39.9766C21.3056 40.8495 20.1785 42.2485 19.6456 43.9035C23.0337 49.3132 31.5468 46.2098 36.2731 45.0424C38.8356 44.3876 41.5689 42.1952 44.2737 41.9959C46.9785 41.7966 47.8042 44.8431 51.5055 44.2737C55.4916 47.5479 65.7414 44.0459 71.0087 43.8466C78.4968 43.5619 87.5793 49.3986 94.0424 45.8111C95.3237 51.8756 102.84 50.8507 106.171 46.7507C115.88 53.1284 117.902 46.2382 125.561 43.9035C127.468 43.3341 131.255 45.5264 133.846 45.4695C136.437 45.4126 140.252 43.8181 142.388 43.5903C143.128 43.5903 144.352 45.6973 145.804 45.5265C147.256 45.3556 150.388 42.9355 151.669 42.9355C154.343 43.1721 156.979 43.7167 159.528 44.5584C164.567 45.6119 173.564 50.3951 175.814 43.8466C172.112 38.1523 161.72 37.3835 156.026 37.4974C153.178 37.4974 148.822 39.1203 146.374 38.8925C143.925 38.6647 143.128 37.0134 141.277 36.7571C134.188 35.7891 131.084 38.7501 124.393 39.2342C118.984 39.6328 114.371 36.387 108.762 36.387C104.776 36.387 99.8222 37.7821 95.8931 38.3515C84.5044 39.9744 74.6246 34.394 63.122 39.0633C60.1609 35.4189 38.5793 36.6148 36.9564 39.3481Z" fill="#205673"/>
</g>
<path opacity="0.72" d="M131.341 181.85C120.493 182.248 112.378 176.354 102.328 176.411C93.416 176.411 84.3335 178.205 75.0802 178.234C65.8268 178.262 54.8652 171.941 47.1209 173.849C46.6327 174.934 45.9053 175.895 44.9931 176.659C44.0809 177.424 43.0076 177.972 41.8536 178.262C44.1883 179.913 46.5799 181.451 49.0854 182.874C51.2679 182.193 53.5234 181.773 55.8048 181.622C59.7247 182.112 63.5932 182.951 67.3643 184.127C88.4904 188.854 106.143 187.829 127.155 186.405C130.961 186.448 134.762 186.685 138.544 187.117C142.882 185.14 147.069 182.846 151.071 180.255C144.551 180.654 138.088 181.622 131.341 181.85Z" fill="#C6AA89"/>
<path opacity="0.72" d="M107.054 23.6031C113.745 23.1761 118.187 21.8948 124.963 22.9198C134.102 24.3149 140.508 21.8379 149.278 21.8094C154.602 21.8094 158.332 24.201 162.973 25.3399V24.5712C159.631 21.6113 156.092 18.8813 152.381 16.3998C142.074 13.9797 127.212 15.147 121.432 15.4602C103.41 16.4567 86.9245 14.0651 77.8989 13.638C72.2045 14.0935 66.5102 16.4852 61.0721 16.4852C56.9437 16.4852 52.5305 14.5491 47.9181 13.9227C44.3833 16.0409 40.9795 18.3703 37.7252 20.8983C38.8358 20.8636 39.9396 21.0842 40.9515 21.5433C41.9635 22.0024 42.8565 22.6876 43.5619 23.5462C59.079 29.0128 76.6746 22.7205 93.2737 22.749C98.3702 22.692 102.1 23.9448 107.054 23.6031Z" fill="#C6AA89"/>
<path opacity="0.72" d="M178.746 145.121C176.354 150.36 171.087 148.452 166.503 149.078C164.995 149.269 163.563 149.848 162.346 150.758C161.384 151.583 160.377 152.353 159.328 153.065C158.36 153.529 157.299 153.77 156.225 153.77C155.151 153.77 154.09 153.529 153.121 153.065C148.934 151.653 144.433 151.455 140.138 152.495C134.786 153.577 129.803 155.114 124.365 153.52C119.535 151.821 114.477 150.861 109.36 150.673C103.666 150.673 98.2278 151.157 92.6473 151.128C87.1136 151.258 81.6257 150.098 76.6177 147.74C72.1138 145.215 68.2246 141.725 65.229 137.519C63.157 134.388 60.4864 131.698 57.3707 129.604C53.4779 127.791 49.0656 127.427 44.9285 128.579C44.3876 128.579 44.5015 129.575 44.9285 129.518C49.541 129.262 54.4381 129.376 58.111 132.536C61.0378 135.494 63.7316 138.673 66.1685 142.046C69.4785 145.826 73.6141 148.794 78.2551 150.72C82.8962 152.645 87.9181 153.477 92.932 153.15C98.6264 152.979 104.321 151.499 110.214 151.669C113.107 151.673 115.984 152.095 118.756 152.922C121.612 154.095 124.553 155.046 127.554 155.769C131.972 156.031 136.402 155.53 140.651 154.289C143.755 153.461 147.008 153.354 150.16 153.976C152.388 154.933 154.77 155.483 157.193 155.599C159.256 155.233 161.155 154.238 162.631 152.751C165.122 151.022 168.166 150.282 171.173 150.673C175.273 150.673 178.775 149.904 180.255 145.662C180.511 144.893 179.145 144.267 178.746 145.121Z" fill="#EDD8AB"/>
<path opacity="0.72" d="M58.6235 138.999C53.7833 134.245 44.2167 133.874 37.9529 134.472C31.6891 135.07 22.0087 138.202 24.2011 146.487C24.2011 146.487 24.3434 146.487 24.2011 146.487C23.0907 132.793 46.523 134.33 54.2388 137.946C56.0895 138.829 58.5381 140.252 58.7658 142.501C58.9936 144.751 56.2034 147.569 54.1819 148.708C50.6798 150.701 29.2975 157.25 30.1232 148.908C30.5503 144.381 38.6648 143.213 42.0529 142.957C43.7612 142.957 47.4625 142.786 48.7438 144.267C49.6264 145.292 49.1139 144.58 48.4875 145.576C47.5647 146.652 46.3473 147.434 44.9855 147.826C42.9485 148.488 40.7922 148.702 38.6647 148.452C37.8106 148.452 37.8391 149.705 38.6647 149.79C40.9436 150.192 43.2895 149.95 45.4377 149.089C47.586 148.229 49.4509 146.786 50.8222 144.922C50.9104 144.797 50.9578 144.647 50.9578 144.494C50.9578 144.342 50.9104 144.192 50.8222 144.067C47.7188 140.907 42.2807 141.22 38.3516 142.017C35.0203 142.701 29.81 144.381 28.8989 148.196C27.9878 152.011 31.7461 154.175 35.1627 154.46C40.8935 154.644 46.5987 153.616 51.9041 151.442C56.5735 149.79 63.7769 144.181 58.6235 138.999Z" fill="#EDD8AB"/>
<path opacity="0.72" d="M172.852 150.075C169.749 151.299 166.93 152.922 163.941 154.403C162.859 155.157 161.611 155.641 160.304 155.815C158.996 155.988 157.666 155.846 156.424 155.399C155.257 154.773 154.403 153.178 153.235 152.552C149.486 150.754 145.226 150.321 141.192 151.328C133.334 152.467 126.443 156.652 118.414 154.004C112.35 152.011 109.702 148.879 103.011 149.99C97.0604 151.015 88.1203 157.848 82.1127 155.969C78.3829 154.83 75.735 150.901 71.2365 151.356C69.976 151.591 68.7813 152.096 67.7345 152.837C63.9415 154.637 59.7734 155.506 55.577 155.371C48.3857 155.588 41.3218 157.325 34.8495 160.467C34.1377 160.809 34.5933 161.663 35.1912 161.748C38.9574 161.958 42.7248 161.356 46.2382 159.983C50.7505 159.113 55.338 158.694 59.9332 158.73C65.8553 158.246 70.2684 153.52 75.8489 156.538C79.0378 158.246 80.6037 160.296 84.3905 160.04C92.2487 159.528 99.3097 152.751 107.168 153.691C109.943 154.444 112.592 155.605 115.026 157.136C118.086 158.513 121.382 159.287 124.735 159.414C130.8 159.556 136.494 156.709 142.359 155.542C146.829 154.659 150.502 153.947 154.232 156.766C155.257 157.535 155.627 158.332 156.794 158.787C162.489 160.951 169.493 154.744 173.621 151.954C174.447 151.271 173.934 149.648 172.852 150.075Z" fill="#EDD8AB"/>
<path opacity="0.72" d="M109.759 150.673C104.577 146.801 100.164 149.876 94.4126 151.185C90.4835 152.096 88.2912 152.979 85.1592 149.99C83.7357 148.651 83.2516 147.142 81.1732 146.374C78.7924 145.941 76.3468 146.018 73.9983 146.601C69.6421 146.801 68.9303 144.494 66.5956 141.163C64.2609 137.832 61.9547 133.134 58.3388 130.486C54.3751 128.101 49.6991 127.184 45.1278 127.895C42.8872 128.439 40.5342 128.29 38.38 127.468C36.0169 126.13 36.5294 123.909 35.0204 122.002C31.5753 117.646 27.7031 121.148 23.6316 122.002C16.1435 123.539 10.2499 121.119 3.44509 118.756C3.36324 118.741 3.27889 118.746 3.19935 118.77C3.1198 118.795 3.04746 118.838 2.98858 118.897C2.9297 118.956 2.88605 119.029 2.86142 119.108C2.83678 119.188 2.83189 119.272 2.84719 119.354C4.09995 124.479 9.79432 126.614 14.5776 127.354C17.575 127.796 20.614 127.882 23.6316 127.611C25.8524 127.411 29.0697 125.703 30.7211 127.041C31.7176 127.838 32.2586 130.202 33.5683 131.312C34.9724 132.536 36.6378 133.422 38.437 133.903C44.1313 135.184 50.6514 131.454 55.5201 135.953C59.5346 139.597 61.5276 145.349 65.0581 149.392C67.9053 152.837 71.9483 152.694 76.0767 152.011C78.3545 151.641 78.9239 151.128 80.86 152.808C81.2017 153.093 81.4864 153.862 81.828 154.232C83.2618 155.578 85.0674 156.46 87.0099 156.766C95.7792 157.99 99.3098 145.377 109.161 151.299C109.816 151.442 110.129 150.958 109.759 150.673Z" fill="#EDD8AB"/>
<path opacity="0.72" d="M191.017 91.6508C186.177 86.7536 177.066 88.0918 171.486 90.6542C166.987 92.7042 163.115 96.1778 158.189 97.3451C153.264 98.5125 149.648 96.1208 145.149 95.3236C141.237 94.9322 137.287 95.3787 133.561 96.6333C128.913 97.8353 124.126 98.4098 119.325 98.3417C114.771 98.7767 110.292 99.8007 106.001 101.388C99.7653 103.068 96.2632 101.673 90.9959 98.9965C83.5648 95.2098 76.5038 99.8507 69.1865 101.844C62.9797 103.438 58.8228 100.705 53.3277 98.541C49.5318 97.0411 45.4166 96.5316 41.3695 97.0604C30.1516 98.1423 18.8483 100.392 7.82974 96.7757C15.631 100.619 22.4073 103.096 31.2336 102.47C35.362 102.157 39.5474 101.673 43.6473 101.018C46.3351 100.281 49.1459 100.107 51.9041 100.506C54.0146 101.185 56.0253 102.143 57.8832 103.353C65.1435 107.111 71.2365 104.748 78.4399 102.1C81.1598 100.551 84.2936 99.8844 87.4085 100.192C89.0656 100.801 90.5921 101.719 91.907 102.897C93.8542 104.221 96.0897 105.061 98.4271 105.346C101.996 105.581 105.575 105.067 108.933 103.837C114.076 102.446 119.379 101.728 124.707 101.701C133.59 101.246 139.426 95.2382 148.537 98.6264C151.023 99.7555 153.734 100.302 156.463 100.223C159.192 100.144 161.866 99.4418 164.282 98.1708C168.183 96.2632 171.742 93.3591 176.041 92.4764C178.873 91.8265 181.83 91.9744 184.583 92.9035C190.277 94.982 187.658 98.9111 184.811 102.071C184.042 102.926 184.811 104.634 186.035 104.15C191.473 102.1 196.114 96.6334 191.017 91.6508Z" fill="#EDD8AB"/>
<path opacity="0.72" d="M178.632 42.0244C178.177 41.5404 177.693 41.0849 177.209 40.6293C176.725 40.1738 176.468 39.4904 175.927 39.2057C175.898 39.1856 175.862 39.1755 175.826 39.1767C175.79 39.1779 175.756 39.1905 175.727 39.2126C175.699 39.2347 175.678 39.2652 175.668 39.2997C175.658 39.3343 175.659 39.3711 175.671 39.405C175.671 40.0314 176.497 40.6293 176.924 41.0849C177.385 41.5531 177.937 41.9214 178.547 42.1668C178.547 42.1668 178.661 42.0814 178.632 42.0244Z" fill="#EDD8AB"/>
<path opacity="0.72" d="M172.255 37.5543C171.582 37.1108 170.828 36.8046 170.036 36.6531C169.245 36.5016 168.431 36.508 167.642 36.6717C167.642 36.6717 167.642 36.8425 167.642 36.8425C168.405 36.6821 169.193 36.6802 169.957 36.8369C170.722 36.9936 171.445 37.3057 172.084 37.7536C172.084 37.7536 172.368 37.5543 172.255 37.5543Z" fill="#EDD8AB"/>
<path opacity="0.72" d="M142.302 34.7072C134.273 27.5323 127.725 30.9489 118.471 33.7676C110.869 36.0738 104.235 33.3121 96.5195 33.5683C90.7766 34.1314 85.0723 35.0346 79.4364 36.2731C72.2615 37.3551 64.9727 35.9599 57.6839 36.4439C51.4232 37.0592 45.1119 35.9876 39.405 33.3405C34.2231 31.0628 24.7135 28.0732 23.1761 36.1877C23.1761 37.0703 24.0017 38.1522 24.9128 37.4974C26.7647 35.8848 29.0238 34.8116 31.4438 34.3949C33.8637 33.9782 36.3517 34.2339 38.6363 35.1342C41.7229 36.405 44.8902 37.4703 48.1174 38.3231C52.8712 38.711 57.6551 38.4909 62.3533 37.6682C68.3039 37.0418 73.742 38.3231 79.6642 38.2377C84.9599 38.2377 90.0279 36.1592 95.2952 35.7322C100.562 35.3051 105.63 36.8141 110.898 36.8141C115.264 36.5945 119.556 35.5915 123.568 33.853C126.544 32.5855 129.772 32.0212 133.001 32.2039C136.23 32.3866 139.374 33.3114 142.188 34.9065C142.188 34.9065 142.388 34.7072 142.302 34.7072Z" fill="#EDD8AB"/>
<path opacity="0.72" d="M153.207 18.3928C145.633 14.6915 139.882 18.0227 132.422 20.1296C126.159 21.8664 121.916 19.1331 116.336 16.8838C112.184 15.2815 107.636 15.0128 103.324 16.1151C96.36 17.7692 89.1519 18.1359 82.0558 17.197C77.1692 16.2692 72.1814 15.9916 67.222 16.3713C64.6287 16.8929 62.0923 17.6652 59.6485 18.6775C55.9454 19.9803 51.8931 19.879 48.2597 18.3928C47.0373 17.8752 45.6869 17.7396 44.386 18.0038C43.085 18.2681 41.8945 18.9198 40.9709 19.8733C39.4619 21.183 40.9709 23.4323 42.7931 23.0337C47.6049 21.8948 51.5625 24.5712 56.3173 24.2864C61.072 24.0017 65.2574 21.2969 70.0407 20.8414C80.8315 19.7879 90.455 23.6886 101.36 20.8414C106.906 19.219 112.855 19.6954 118.073 22.1796C120.87 23.5271 124.041 23.8884 127.07 23.2045C136.409 21.3254 143.156 15.2324 153.065 18.5636C153.235 18.6206 153.321 18.4498 153.207 18.3928Z" fill="#EDD8AB"/>
<path opacity="0.72" d="M175.842 46.4375C168.354 46.2952 164.055 40.4869 157.051 39.3196C149.278 38.0668 143.014 43.7897 134.956 41.7112C132.565 40.8792 130.014 40.6081 127.501 40.9192C124.988 41.2302 122.581 42.1149 120.464 43.5049C116.791 45.5834 114.286 43.7327 110.442 44.1313C108.135 44.5798 105.962 45.554 104.093 46.9785C99.1104 50.1104 95.7792 50.7368 90.2557 48.0035C87.3304 46.2767 84.2401 44.846 81.0308 43.7327C75.9856 42.5915 70.7156 42.968 65.8838 44.8147C58.4527 47.1209 53.2423 43.7327 45.9535 42.5084C39.2959 41.6388 32.5339 42.0348 26.0233 43.6758C26.0233 43.6758 26.0233 43.9036 26.0233 43.8751C35.5898 42.2807 43.8182 41.9959 52.7298 46.2382C54.605 47.3413 56.6818 48.0581 58.8382 48.3466C60.9945 48.6351 63.1867 48.4894 65.2859 47.9181C68.1812 46.7299 71.2469 46.0091 74.3684 45.7827C78.6107 46.0105 82.1982 49.2278 85.7571 51.3347C91.0529 54.6089 96.5764 57.029 102.612 54.1819C105.26 52.9576 107.567 50.2812 110.357 49.4555C113.147 48.6299 116.051 50.2812 119.069 49.4555C122.087 48.6299 123.995 45.441 127.298 44.5869C130.6 43.7327 134.045 45.6688 137.405 46.1813C145.035 47.3486 151.954 41.1703 159.328 44.1029C165.222 46.466 169.094 50.8792 175.899 50.1958C176.286 50.0527 176.618 49.7932 176.851 49.453C177.084 49.1129 177.206 48.7088 177.2 48.2965C177.194 47.8843 177.06 47.4841 176.816 47.1511C176.573 46.8182 176.233 46.5689 175.842 46.4375Z" fill="#EDD8AB"/>
<path opacity="0.72" d="M74.9948 83.1092C72.1476 77.0163 62.2679 75.251 59.3353 82.0842C58.8228 83.2801 59.9617 84.9314 61.2714 84.0488C63.084 82.64 65.3253 81.8963 67.6206 81.9419C69.4997 82.2266 73.0302 84.3335 72.2615 86.7252C71.0657 90.3411 62.9797 89.5723 60.2464 88.8321C56.9657 87.5003 54.1799 85.1821 52.2743 82.1981C50.1216 78.6974 47.0619 75.8444 43.4195 73.9413C40.8128 73.1358 38.0881 72.7796 35.362 72.8879C30.0947 72.6316 27.9593 70.724 23.9733 68.3609C22.5775 67.5119 20.9246 67.1887 19.3118 67.4496C17.6991 67.7105 16.2324 68.5382 15.1754 69.7839C14.1184 71.0296 13.5406 72.6116 13.5458 74.2453C13.5511 75.879 14.139 77.4572 15.204 78.6961C18.7345 83.2801 30.2655 87.5224 34.1092 81.3725C34.5648 80.6607 33.7106 80.0627 33.0558 80.3475C28.0732 82.5113 16.5991 82.5683 15.3748 75.2225C14.4637 69.8129 19.7879 68.9588 22.8059 71.0657C23.717 71.6921 24.3434 72.774 25.2545 73.4573C27.5621 75.0909 30.2663 76.0743 33.0843 76.3045C36.9564 76.6746 40.7432 75.7635 44.2737 78.0128C46.6678 79.9361 48.735 82.234 50.3951 84.8176C52.9302 88.5741 56.7798 91.2454 61.1859 92.3056C66.624 93.5014 79.0093 91.6508 74.9948 83.1092Z" fill="#EDD8AB"/>
<path opacity="0.72" d="M151.812 74.8809C151.071 75.9059 152.068 77.1586 153.15 77.2156C155.997 77.2156 161.435 77.7281 157.535 81.9419C156.29 82.7646 154.884 83.3121 153.411 83.5478C151.938 83.7835 150.432 83.702 148.993 83.3086C148.481 83.0239 147.683 80.9454 147.114 80.4614C144.496 78.5863 141.453 77.3925 138.259 76.9878C134.387 76.0483 127.44 75.7066 131.91 70.6955C132.203 70.4016 132.392 70.0202 132.448 69.6092C132.505 69.1981 132.426 68.7799 132.223 68.4178C125.931 60.104 114.428 63.2074 107.51 69.215C107.352 69.3767 107.233 69.5716 107.161 69.7854C107.089 69.9993 107.065 70.2265 107.093 70.4506C107.12 70.6746 107.197 70.8896 107.319 71.0798C107.44 71.27 107.603 71.4306 107.794 71.5497C110.186 72.7455 115.567 75.8774 113.033 79.3795C110.499 82.8815 102.043 81.287 99.0819 79.5787C94.2133 76.7316 91.1383 71.8629 86.1557 69.1296C86.0987 69.106 86.0356 69.1015 85.9759 69.1169C85.9161 69.1323 85.863 69.1666 85.8245 69.2148C85.7859 69.2629 85.7641 69.3223 85.7622 69.384C85.7603 69.4457 85.7785 69.5063 85.8141 69.5567C92.8466 77.5573 100.05 89.4869 112.72 83.4225C120.066 79.9204 116.108 73.4573 111.182 70.0976C116.137 66.5956 124.536 63.7199 128.266 69.1865C125.902 72.233 124.934 75.7066 128.92 78.1836C132.024 80.1197 144.551 80.4044 145.092 84.6467C145.108 85.0831 145.259 85.5038 145.524 85.8506C145.79 86.1974 146.156 86.4533 146.573 86.5828C152.751 88.2057 163.115 87.8925 162.83 79.0378C162.659 73.1726 155.513 69.6421 151.812 74.8809Z" fill="#EDD8AB"/>
<path opacity="0.72" d="M187.259 77.1301C186.785 75.158 185.911 73.3042 184.691 71.6833C183.472 70.0623 181.933 68.7087 180.17 67.706C179.362 67.3778 178.483 67.266 177.619 67.3817C176.754 67.4974 175.935 67.8365 175.243 68.3655C174.55 68.8946 174.007 69.5953 173.667 70.3984C173.328 71.2015 173.204 72.0792 173.308 72.9448C173.308 74.1975 175.13 75.2795 176.155 74.0837C177.636 72.233 178.12 70.724 180.597 72.4608C181.825 73.4172 182.802 74.6583 183.444 76.0767C182.267 75.9549 181.078 76.0612 179.942 76.3899C178.547 77.0163 177.806 78.7815 176.326 79.3794C173.479 80.5753 172.198 77.8135 171.144 75.5927C169.55 72.3184 168.297 67.0511 164.055 66.4817C164.055 66.4817 163.884 66.4817 164.055 66.681C166.361 68.2469 167.13 72.2045 168.126 74.6531C168.87 77.0535 170.133 79.2603 171.827 81.1162C172.591 81.7959 173.536 82.2386 174.548 82.3903C175.559 82.542 176.592 82.3961 177.522 81.9704C178.746 81.4864 179.771 80.0912 180.967 79.6926C182.703 79.3484 184.465 79.1484 186.234 79.0947C186.622 78.9581 186.944 78.6793 187.134 78.3146C187.324 77.9499 187.369 77.5265 187.259 77.1301Z" fill="#EDD8AB"/>
<path opacity="0.72" d="M26.3364 129.689C20.6421 128.152 14.663 132.536 12.3852 137.604C11.7373 138.817 11.4468 140.188 11.5476 141.559C11.6484 142.93 12.1364 144.244 12.9547 145.349C13.3672 145.783 13.8882 146.099 14.4639 146.264C15.0396 146.429 15.649 146.438 16.2289 146.288C17.681 145.947 17.5956 145.035 18.1935 143.897C18.223 143.845 18.2389 143.788 18.2394 143.729C18.2399 143.669 18.2251 143.611 18.1964 143.56C18.1677 143.508 18.1261 143.465 18.0757 143.434C18.0253 143.403 17.9678 143.386 17.9088 143.384C17.3695 143.418 16.8286 143.351 16.3144 143.185C15.8588 143.64 15.688 143.555 15.7449 142.872C15.6254 142.492 15.549 142.101 15.5171 141.704C15.4012 140.052 15.8865 138.414 16.8838 137.092C17.6468 135.973 18.6125 135.008 19.731 134.245C20.3256 134.865 21.0891 135.296 21.9269 135.486C22.7647 135.676 23.6397 135.615 24.4434 135.312C25.2471 135.009 25.944 134.476 26.4475 133.78C26.9511 133.084 27.2392 132.256 27.276 131.397C27.3356 131.048 27.2751 130.69 27.1045 130.379C26.9339 130.069 26.6631 129.826 26.3364 129.689ZM21.2684 133.59C22.1711 133.18 23.1313 132.911 24.1156 132.793C23.5462 133.704 22.4927 133.761 21.2684 133.59Z" fill="#EDD8AB"/>
<path opacity="0.72" d="M18.8483 141.249C18.8483 141 18.7493 140.761 18.5731 140.584C18.3969 140.408 18.158 140.309 17.9088 140.309C17.6596 140.309 17.4206 140.408 17.2444 140.584C17.0682 140.761 16.9692 141 16.9692 141.249V141.932C16.9692 143.185 18.9907 143.185 18.9053 141.932L18.8483 141.249Z" fill="#EDD8AB"/>
<path opacity="0.72" d="M151.242 155.371C150.024 154.653 148.573 154.439 147.199 154.773C146.712 154.924 146.258 155.165 145.861 155.485H145.32C145.149 155.485 144.495 155.485 145.035 155.485H144.124C143.17 155.747 142.341 156.343 141.79 157.164L141.619 157.364C141.467 157.635 141.343 157.921 141.249 158.218C141.029 159.093 141.159 160.02 141.611 160.801C142.063 161.582 142.801 162.157 143.669 162.403C144.174 162.588 144.729 162.588 145.235 162.403C146.066 162.346 146.893 162.242 147.712 162.09L150.388 161.663C151.066 161.474 151.674 161.089 152.135 160.557C152.596 160.025 152.891 159.37 152.982 158.671C153.073 157.973 152.957 157.264 152.647 156.631C152.338 155.999 151.849 155.471 151.242 155.114V155.371Z" fill="#EDD8AB"/>
<path opacity="0.72" d="M141.733 157.478L142.074 157.022L141.733 157.478Z" fill="#EDD8AB"/>
<path opacity="0.72" d="M116.535 159.642C114.2 159.214 108.449 158.189 106.912 160.894C105.061 161.492 105.602 164.197 107.196 164.795C108.696 165.384 110.299 165.662 111.909 165.613C113.519 165.564 115.103 165.189 116.564 164.51C118.642 163.713 119.183 160.182 116.535 159.642Z" fill="#EDD8AB"/>
<path opacity="0.72" d="M146.801 169.294C146.355 169.294 145.928 169.47 145.613 169.786C145.298 170.101 145.121 170.528 145.121 170.973C145.121 171.419 145.298 171.846 145.613 172.161C145.928 172.476 146.355 172.653 146.801 172.653C147.246 172.653 147.673 172.476 147.989 172.161C148.304 171.846 148.481 171.419 148.481 170.973C148.481 170.528 148.304 170.101 147.989 169.786C147.673 169.47 147.246 169.294 146.801 169.294Z" fill="#EDD8AB"/>
<path opacity="0.72" d="M71.6066 167.016C67.649 164.567 61.9831 161.321 58.3672 166.219C58.0737 166.59 57.9223 167.055 57.9401 167.528C57.8139 167.73 57.7325 167.956 57.7017 168.192C57.6709 168.427 57.6914 168.667 57.7616 168.894C57.8319 169.121 57.9504 169.33 58.109 169.507C58.2675 169.684 58.4624 169.825 58.6804 169.92C62.5043 171.88 66.9266 172.328 71.0656 171.173C71.4872 171.042 71.8623 170.793 72.1465 170.455C72.4307 170.117 72.6121 169.705 72.669 169.268C72.726 168.83 72.6562 168.385 72.4679 167.986C72.2795 167.587 71.9806 167.25 71.6066 167.016Z" fill="#EDD8AB"/>
<path opacity="0.72" d="M97.2313 123.682C96.4762 123.682 95.752 123.982 95.218 124.515C94.6841 125.049 94.3841 125.774 94.3841 126.529C94.3841 127.284 94.6841 128.008 95.218 128.542C95.752 129.076 96.4762 129.376 97.2313 129.376C97.9864 129.376 98.7106 129.076 99.2445 128.542C99.7785 128.008 100.078 127.284 100.078 126.529C100.078 125.774 99.7785 125.049 99.2445 124.515C98.7106 123.982 97.9864 123.682 97.2313 123.682Z" fill="#EDD8AB"/>
<path opacity="0.72" d="M85.871 128.806C83.4509 127.81 78.4114 127.781 78.0128 131.227L76.2191 131.084C73.3719 131.084 72.5177 135.725 75.5073 136.323C78.1077 136.827 80.7904 136.71 83.337 135.981H83.7641C84.4631 136.165 85.1782 136.279 85.8995 136.323C86.2007 136.334 86.4999 136.27 86.7703 136.137C87.0406 136.003 87.2737 135.805 87.4486 135.56C87.6236 135.314 87.7349 135.029 87.7726 134.73C87.8103 134.431 87.7732 134.127 87.6647 133.846C87.916 133.405 88.0691 132.915 88.1136 132.409C88.1582 131.903 88.0931 131.394 87.9228 130.915C87.7526 130.437 87.4811 130.001 87.127 129.637C86.773 129.273 86.3445 128.99 85.871 128.806Z" fill="#EDD8AB"/>
<path opacity="0.72" d="M98.3986 122.97C97.1598 122.868 95.9172 123.114 94.8112 123.682C93.9457 123.761 93.1185 124.076 92.4195 124.593C92.0237 124.843 91.717 125.211 91.5431 125.646C91.3693 126.08 91.3372 126.559 91.4515 127.013C91.5073 127.215 91.5937 127.407 91.7077 127.582C92.1063 128.92 93.7862 129.148 94.8681 129.063C96.3129 128.869 97.7407 128.564 99.1389 128.152C99.5866 128.019 99.9947 127.778 100.327 127.45C100.66 127.123 100.907 126.718 101.046 126.273C101.111 125.879 101.092 125.475 100.991 125.089C100.889 124.703 100.708 124.343 100.458 124.031C100.208 123.72 99.8961 123.465 99.5413 123.282C99.1865 123.099 98.7972 122.992 98.3986 122.97Z" fill="#EDD8AB"/>
<path opacity="0.72" d="M160.41 124.194C157.933 124.194 153.691 124.194 152.666 127.041L152.267 127.554C150.844 129.831 153.805 131.995 155.598 131.027C155.873 131.054 156.15 131.054 156.424 131.027H157.364C158.672 130.993 159.976 130.86 161.264 130.629C162.118 130.515 162.891 130.068 163.414 129.384C163.938 128.701 164.168 127.838 164.055 126.984C163.941 126.131 163.494 125.358 162.81 124.834C162.127 124.311 161.264 124.081 160.41 124.194Z" fill="#EDD8AB"/>
<path opacity="0.72" d="M136.152 130.116C136.145 129.727 136.026 129.348 135.809 129.024C135.592 128.701 135.286 128.448 134.928 128.294C134.266 127.648 133.376 127.29 132.451 127.298C131.48 127.299 130.545 127.665 129.832 128.323C129.353 128.803 129.085 129.453 129.085 130.13C129.085 130.808 129.353 131.458 129.832 131.938C130.548 132.588 131.484 132.944 132.451 132.935C132.909 132.94 133.364 132.855 133.789 132.684C134.214 132.513 134.601 132.26 134.928 131.938C135.295 131.798 135.609 131.547 135.829 131.221C136.048 130.895 136.161 130.509 136.152 130.116Z" fill="#EDD8AB"/>
<path opacity="0.72" d="M165.905 109.958C163.899 109.668 161.912 109.259 159.955 108.734C158.616 107.737 157.107 106.94 155.513 108.563C155.194 108.886 154.99 109.305 154.932 109.756C154.873 110.206 154.964 110.663 155.19 111.057C155.416 111.451 155.765 111.76 156.183 111.937C156.601 112.114 157.066 112.149 157.506 112.037C160.388 111.71 163.242 111.177 166.048 110.442C166.076 110.3 166.275 109.987 165.905 109.958Z" fill="#EDD8AB"/>
<path opacity="0.72" d="M159.414 108.905C159.323 108.905 159.236 108.941 159.172 109.005C159.108 109.069 159.072 109.156 159.072 109.246C159.072 109.337 159.108 109.424 159.172 109.488C159.236 109.552 159.323 109.588 159.414 109.588C163.072 110.039 166.777 109.934 170.404 109.275C166.78 108.597 163.075 108.472 159.414 108.905Z" fill="#EDD8AB"/>
<path opacity="0.72" d="M120.721 107.51C117.475 105.545 112.179 105.744 110.385 109.531C110.378 109.607 110.378 109.683 110.385 109.759H109.816C109.695 109.71 109.56 109.711 109.439 109.761C109.319 109.812 109.224 109.908 109.175 110.029C109.126 110.15 109.127 110.285 109.178 110.406C109.228 110.526 109.325 110.621 109.446 110.67C110.968 111.806 112.846 112.361 114.741 112.236C115.57 112.212 116.392 112.088 117.19 111.866C117.845 111.695 118.671 111.182 119.268 111.268C119.755 111.411 120.277 111.365 120.732 111.141C121.187 110.917 121.541 110.53 121.724 110.057C121.906 109.584 121.905 109.059 121.719 108.588C121.533 108.116 121.177 107.731 120.721 107.51Z" fill="#EDD8AB"/>
<path opacity="0.72" d="M83.7071 110.528C83.3325 110.549 82.9747 110.69 82.6872 110.931C82.3998 111.173 82.1983 111.5 82.1127 111.866C82.1127 112.151 82.2836 112.435 82.5967 112.35C82.9262 112.205 83.233 112.013 83.5078 111.78C83.5078 111.78 83.7641 111.78 83.6787 111.78C83.5933 111.78 83.9064 112.151 83.9634 112.264C84.008 112.339 84.0756 112.396 84.156 112.429C84.2363 112.461 84.3251 112.467 84.4087 112.444C84.4924 112.422 84.5664 112.372 84.6197 112.304C84.6729 112.236 84.7024 112.152 84.7037 112.065C84.5328 111.296 84.3335 110.556 83.7071 110.528Z" fill="#EDD8AB"/>
<path opacity="0.72" d="M75.9059 111.581C72.2489 110.88 68.5159 110.66 64.8019 110.926C62.6665 111.268 57.3707 112.264 57.6839 115.396C57.9117 117.731 60.5311 117.304 62.2394 116.877L63.8908 116.478C65.8588 118.092 68.3567 118.916 70.8985 118.789C73.4404 118.663 75.8443 117.596 77.6427 115.795C77.9704 115.444 78.1904 115.006 78.2765 114.534C78.3625 114.061 78.3109 113.574 78.1279 113.13C77.9449 112.686 77.6382 112.304 77.2443 112.029C76.8503 111.755 76.3858 111.599 75.9059 111.581Z" fill="#EDD8AB"/>
<path opacity="0.72" d="M37.2411 108.876C36.3024 108.569 35.2807 108.64 34.394 109.076C34.149 109.164 33.9187 109.289 33.7106 109.446C33.6144 109.498 33.5353 109.577 33.4829 109.673C33.3649 109.635 33.24 109.622 33.1168 109.637C32.9935 109.651 32.8749 109.693 32.7692 109.758C32.6636 109.823 32.5733 109.91 32.5048 110.014C32.4363 110.117 32.3911 110.234 32.3725 110.357C32.3434 110.478 32.3434 110.605 32.3725 110.727C32.3601 110.783 32.3601 110.841 32.3725 110.898C32.2606 111.079 32.1653 111.269 32.0877 111.467C32.014 111.736 32.012 112.019 32.082 112.289C32.1519 112.559 32.2913 112.806 32.4863 113.005C32.7042 113.225 32.9673 113.395 33.2573 113.503C33.5474 113.611 33.8575 113.655 34.1662 113.631H34.5363C35.6421 113.688 36.7404 113.42 37.6967 112.862C38.0665 112.634 38.3624 112.304 38.5486 111.912C38.7349 111.52 38.8035 111.082 38.7463 110.651C38.6891 110.221 38.5085 109.816 38.2262 109.486C37.944 109.156 37.5722 108.914 37.1557 108.791L37.2411 108.876Z" fill="#EDD8AB"/>
<path opacity="0.72" d="M181.935 110.414C181.302 109.696 180.484 109.165 179.571 108.878C178.657 108.592 177.683 108.562 176.753 108.791C175.705 109.053 174.773 109.652 174.099 110.495C173.425 111.339 173.047 112.381 173.023 113.46C173.026 113.785 173.102 114.106 173.247 114.397C173.392 114.688 173.602 114.942 173.86 115.14C174.118 115.337 174.418 115.474 174.737 115.538C175.056 115.602 175.385 115.593 175.7 115.51C176.253 115.376 176.782 115.155 177.266 114.855L178.291 114.058L178.832 113.859H179.173C181.365 115.083 183.814 112.122 181.935 110.414Z" fill="#EDD8AB"/>
<path opacity="0.72" d="M156.026 84.4759C151.983 82.5683 149.192 83.1378 144.637 83.4794C137.832 84.0489 135.042 82.5399 130.401 78.4114C127.354 75.7351 123.255 72.5462 119.012 72.29C118.194 72.1462 117.353 72.2094 116.565 72.4738C115.777 72.7382 115.068 73.1954 114.502 73.8038C113.936 74.4122 113.531 75.1524 113.325 75.9571C113.118 76.7619 113.115 77.6056 113.318 78.4114C114.001 83.0808 117.873 82.91 121.091 84.1058C116.28 84.721 111.626 86.2272 107.367 88.5474C107.102 88.7112 106.871 88.9267 106.691 89.181C106.51 89.4352 106.381 89.7232 106.314 90.0279C94.925 85.6717 89.2307 70.0977 75.4788 73.5997C75.1655 73.6823 74.8887 73.8672 74.6927 74.1252C74.4966 74.3832 74.3925 74.6993 74.3969 75.0233C74.4536 76.128 74.766 77.2044 75.3095 78.1678C75.8529 79.1312 76.6127 79.9554 77.5288 80.5753C79.9546 82.6163 82.6701 84.2859 85.5863 85.5294C85.7558 85.5647 85.9323 85.5343 86.0803 85.4445C86.2283 85.3547 86.3366 85.212 86.3835 85.0453C87.2946 80.2051 80.2621 80.0628 78.0412 76.7601C90.7682 78.867 95.5514 95.5515 110.157 94.7258C110.473 94.7196 110.782 94.634 111.056 94.4768C111.33 94.3195 111.56 94.0958 111.725 93.8262C111.889 93.5566 111.983 93.2499 111.998 92.9343C112.013 92.6188 111.948 92.3047 111.809 92.021C116.877 90.5689 122.03 89.3731 127.041 87.7502C127.357 87.655 127.648 87.4904 127.893 87.2685C128.138 87.0466 128.33 86.7729 128.455 86.4674C128.581 86.162 128.636 85.8324 128.618 85.5026C128.6 85.1729 128.509 84.8513 128.351 84.5613C126.443 81.3725 124.166 81.7141 121.205 80.2905C117.674 78.5253 118.841 77.0732 122.03 78.4683C123.506 79.1231 124.941 79.8647 126.329 80.6891C129.91 83.2781 133.816 85.3842 137.946 86.953C143.908 88.214 150.115 87.5973 155.712 85.1877C156.168 84.9599 156.31 84.5898 156.026 84.4759Z" fill="#EDD8AB"/>
<path opacity="0.72" d="M26.0232 83.7357C19.1615 86.5829 8.48461 84.7037 6.63394 76.4184C6.63394 75.8205 5.55202 75.9628 5.55202 76.4184C5.72285 86.2412 19.3893 89.1453 26.1656 83.7926L26.0232 83.7357Z" fill="#EDD8AB"/>
<path opacity="0.72" d="M64.0331 89.0314C59.7623 91.2522 51.8756 91.8786 49.7972 86.5544C49.6689 86.1079 49.4003 85.7145 49.0311 85.4325C48.6619 85.1505 48.2118 84.9948 47.7472 84.9884C42.5654 85.444 33.0273 71.8914 29.5822 80.1482C29.5822 80.3475 29.8385 80.4899 29.9239 80.1482C32.7711 73.7136 38.1807 83.5079 40.4015 85.6148C41.9752 87.3871 44.0847 88.5967 46.4091 89.0599C47.287 90.6844 48.583 92.0448 50.163 93.0004C51.7431 93.956 53.5498 94.4722 55.3962 94.4954C57.2426 94.5186 59.0616 94.0481 60.6652 93.1325C62.2688 92.2169 63.5986 90.8895 64.5171 89.2876C64.631 89.1738 64.2894 88.8036 64.0331 89.0314Z" fill="#EDD8AB"/>
<path opacity="0.72" d="M36.8995 61.072C35.8273 62.1207 34.5585 62.9473 33.166 63.5043C31.7735 64.0613 30.2847 64.3377 28.785 64.3178C28.694 64.33 28.6088 64.3695 28.5405 64.431C28.4723 64.4925 28.4243 64.5732 28.4027 64.6624C28.3812 64.7517 28.3871 64.8454 28.4198 64.9313C28.4524 65.0171 28.5103 65.0911 28.5857 65.1435C29.4447 65.6361 30.407 65.921 31.3958 65.9754C32.3845 66.0298 33.3722 65.8522 34.2801 65.4567C35.0686 65.0257 35.74 64.4089 36.2362 63.6597C36.7323 62.9105 37.0382 62.0516 37.1273 61.1574C37.1273 61.1574 36.9564 60.9866 36.8995 61.072Z" fill="#EDD8AB"/>
<path opacity="0.72" d="M174.817 62.6949C169.749 62.9797 165.763 63.3213 163.798 57.3992C163.739 57.2005 163.62 57.0252 163.457 56.8977C163.293 56.7701 163.094 56.6966 162.887 56.6874C161.503 56.4092 160.074 56.4437 158.704 56.7885C157.335 57.1333 156.06 57.7797 154.972 58.6804C153.15 59.9616 151.669 62.581 148.851 60.1325C147.655 59.079 147.854 57.086 146.658 56.1464C139.455 50.4521 136.693 63.9192 133.647 65.8268C129.661 68.3608 127.098 62.9796 124.422 61.2998C123.222 60.7107 121.896 60.426 120.56 60.4707C119.225 60.5154 117.921 60.8881 116.763 61.556C111.069 63.8907 107.652 69.756 102.128 62.7519C101.251 61.2145 99.9491 59.9621 98.379 59.1442C96.8089 58.3264 95.0366 57.9775 93.2737 58.1394C92.6843 58.1466 92.1206 58.382 91.7011 58.7962C91.2817 59.2103 91.0391 59.771 91.0244 60.3602C91.7932 73.258 76.7885 60.104 70.5816 60.3602C70.1861 60.3612 69.8012 60.4889 69.4835 60.7246C69.1658 60.9604 68.932 61.2917 68.8164 61.67C65.7414 72.8309 53.1569 64.0331 46.5514 60.9012C43.8154 59.7255 40.9475 58.8842 38.0099 58.3957C36.8324 58.238 35.6704 57.9808 34.5363 57.627C32.9134 56.9721 29.8385 53.4986 32.5433 51.9326C34.2516 50.993 38.8925 56.9152 39.5473 58.3388C39.5473 58.3388 39.7182 58.3388 39.5473 58.3388C38.2946 55.9756 34.2231 49.7972 31.0058 50.6514C28.7565 51.2493 28.8135 54.609 29.5537 56.3457C31.6322 61.2998 38.6078 61.4991 42.8216 63.179C47.6903 65.115 51.8757 68.4178 57.0575 70.0691C61.0436 71.3788 66.0262 72.2615 69.4997 69.2435C70.8948 68.0476 71.4643 64.2609 72.3469 63.5491C74.4163 64.1348 76.4349 64.887 78.3829 65.7984C85.7002 69.1296 95.466 72.6316 95.6938 62.2678C99.566 63.2074 103.011 70.6386 108.335 70.0407C114.314 69.3573 113.204 59.3353 121.29 61.4991C125.048 62.5241 126.358 67.5636 130.031 69.0726C130.739 69.4898 131.527 69.7536 132.343 69.8467C133.16 69.9399 133.987 69.8604 134.771 69.6134C135.555 69.3665 136.278 68.9575 136.894 68.4131C137.509 67.8687 138.004 67.2009 138.345 66.4532C139.483 64.0616 141.192 55.0645 144.979 59.136C145.833 59.9901 145.804 61.6415 146.915 62.638C148.208 63.7379 149.842 64.356 151.539 64.3871C153.237 64.4183 154.892 63.8605 156.225 62.8088C157.164 61.9262 157.506 59.7623 158.389 59.1644C162.289 56.3172 161.976 62.0116 163.628 64.0046C166.759 67.5067 171.884 66.8518 175.529 64.7164C175.684 64.5568 175.792 64.3569 175.84 64.1393C175.888 63.9217 175.874 63.695 175.8 63.4848C175.726 63.2746 175.595 63.0893 175.421 62.9497C175.247 62.8101 175.038 62.7219 174.817 62.6949Z" fill="#EDD8AB"/>
<path opacity="0.72" d="M133.191 184.327C129.311 184.593 125.42 183.99 121.802 182.561C120.011 181.777 118.06 181.426 116.108 181.536C113.033 181.963 104.064 188.569 103.865 181.992C103.851 181.596 103.688 181.22 103.408 180.941C103.128 180.661 102.752 180.497 102.356 180.483C99.4507 180.909 96.5912 181.605 93.8146 182.561C88.4619 183.814 85.871 180.995 81.1731 180.369C74.8239 179.515 68.674 184.44 63.6915 177.977C63.4123 177.699 63.049 177.519 62.6578 177.468C62.2666 177.417 61.8694 177.495 61.5276 177.693C57.6945 179.004 53.5093 178.831 49.7972 177.209C49.7972 177.209 49.5125 177.209 49.7972 177.408C51.2275 178.661 52.8405 179.688 54.5805 180.454C56.602 181.166 58.8228 180.454 60.7589 181.052C62.6949 181.65 64.0331 183.586 65.9692 184.327C67.7968 184.958 69.7425 185.172 71.6636 184.953C73.6281 184.811 75.5072 184.241 77.3579 183.928C80.3697 183.566 83.4231 184.038 86.1842 185.295C91.7362 187.088 95.5514 184.241 100.762 183.615C101.388 188.569 105.517 188.854 110.3 187.174C113.961 185.504 118.129 185.33 121.916 186.69C126.159 187.971 129.917 189.252 133.761 186.49C134.615 185.893 134.444 184.213 133.191 184.327Z" fill="#EDD8AB"/>
<path opacity="0.72" d="M107.766 4.15688C106.954 4.10628 106.14 4.21876 105.372 4.48771C104.605 4.75666 103.899 5.17664 103.296 5.72284C103.052 5.98608 102.916 6.33184 102.916 6.69087C102.916 7.0499 103.052 7.39566 103.296 7.6589C103.899 8.2051 104.605 8.62508 105.372 8.89403C106.14 9.16298 106.954 9.27546 107.766 9.22486C108.438 9.22486 109.082 8.95787 109.558 8.48265C110.033 8.00744 110.3 7.36293 110.3 6.69087C110.3 6.01881 110.033 5.37426 109.558 4.89904C109.082 4.42383 108.438 4.15688 107.766 4.15688Z" fill="#EDD8AB"/>
<path opacity="0.72" d="M77.8135 5.83673C77.3875 5.89116 76.996 6.099 76.7123 6.42132C76.4285 6.74364 76.272 7.15834 76.272 7.58776C76.272 8.01719 76.4285 8.43189 76.7123 8.75421C76.996 9.07652 77.3875 9.28433 77.8135 9.33875C78.2394 9.28433 78.631 9.07652 78.9147 8.75421C79.1985 8.43189 79.355 8.01719 79.355 7.58776C79.355 7.15834 79.1985 6.74364 78.9147 6.42132C78.631 6.099 78.2394 5.89116 77.8135 5.83673Z" fill="#EDD8AB"/>
<path opacity="0.72" d="M131.113 12.1005C130.543 10.0505 128.266 9.68042 126.5 9.45265C125.724 9.38175 124.942 9.38175 124.166 9.45265C123.167 9.58819 122.202 9.90671 121.318 10.3922C120.968 10.6124 120.687 10.9288 120.511 11.3036C120.334 11.6785 120.269 12.0962 120.323 12.507C120.377 12.9178 120.548 13.3044 120.815 13.621C121.083 13.9376 121.435 14.1708 121.831 14.2928C122.571 14.2928 123.283 14.6345 124.052 14.6915C124.82 14.7484 125.447 14.6915 126.159 14.6915C127.554 14.8908 128.835 15.5741 130.173 14.6915C130.578 14.4093 130.886 14.0088 131.054 13.5449C131.222 13.0811 131.243 12.5765 131.113 12.1005Z" fill="#EDD8AB"/>
<path opacity="0.72" d="M90.5119 23.8594C90.0498 23.9162 89.6243 24.14 89.3158 24.4888C89.0073 24.8375 88.8369 25.2871 88.8369 25.7527C88.8369 26.2184 89.0073 26.668 89.3158 27.0167C89.6243 27.3655 90.0498 27.5894 90.5119 27.6461C90.9741 27.5894 91.3995 27.3655 91.7081 27.0167C92.0166 26.668 92.187 26.2184 92.187 25.7527C92.187 25.2871 92.0166 24.8375 91.7081 24.4888C91.3995 24.14 90.9741 23.9162 90.5119 23.8594Z" fill="#EDD8AB"/>
<path opacity="0.72" d="M44.8146 23.3184C44.3287 23.4721 43.8967 23.7614 43.5696 24.1522C43.2424 24.5431 43.0337 25.0192 42.9679 25.5246C42.9021 26.0301 42.982 26.5437 43.1982 27.0053C43.4144 27.4669 43.7579 27.8571 44.1883 28.1301C44.6524 28.3979 45.1381 28.6265 45.6403 28.8134C44.8501 28.4646 44.2246 27.8249 43.8937 27.0271C43.5628 26.2293 43.5518 25.3347 43.8632 24.529C44.1745 23.7233 44.7841 23.0685 45.5655 22.7004C46.3469 22.3324 47.24 22.2795 48.0594 22.5526C48.8788 22.8258 49.5616 23.404 49.9659 24.1673C50.3702 24.9305 50.465 25.8202 50.2306 26.6515C49.9963 27.4828 49.4507 28.192 48.7073 28.6317C47.9639 29.0714 47.0796 29.2078 46.2382 29.0128C46.6268 29.0423 47.017 29.0423 47.4056 29.0128C47.7862 29.0949 48.1796 29.0981 48.5614 29.0221C48.9433 28.9462 49.3056 28.7928 49.6258 28.5713C49.946 28.3498 50.2174 28.065 50.4232 27.7344C50.629 27.4039 50.7648 27.0347 50.8222 26.6496C51.3062 23.5746 47.1778 22.8059 44.8146 23.3184Z" fill="#EDD8AB"/>
<path opacity="0.72" d="M67.8768 10.079C67.2518 10.0215 66.6227 10.0215 65.9977 10.079C65.6871 10.1252 65.4034 10.2814 65.1984 10.5192C64.9933 10.757 64.8806 11.0605 64.8806 11.3745C64.8806 11.6885 64.9933 11.992 65.1984 12.2298C65.4034 12.4676 65.6871 12.6238 65.9977 12.6699C66.628 12.6709 67.257 12.6137 67.8768 12.4991C68.1977 12.4991 68.5055 12.3716 68.7324 12.1447C68.9594 11.9178 69.0869 11.61 69.0869 11.2891C69.0869 10.9681 68.9594 10.6603 68.7324 10.4334C68.5055 10.2065 68.1977 10.079 67.8768 10.079Z" fill="#EDD8AB"/>
<path opacity="0.72" d="M82.6821 20.8414C80.9773 19.0159 78.6394 17.9107 76.1466 17.7519C73.6539 17.5931 71.1946 18.3928 69.2719 19.9872C68.3218 20.351 67.4725 20.9367 66.7949 21.6955C66.4814 22.0029 66.2432 22.3787 66.099 22.7934C65.9548 23.2081 65.9084 23.6505 65.9636 24.0861C66.0187 24.5217 66.1738 24.9386 66.4168 25.3043C66.6598 25.67 66.9841 25.9745 67.3643 26.1941C69.5525 27.1991 71.932 27.7194 74.3399 27.7194C76.7478 27.7194 79.1273 27.1991 81.3155 26.1941C81.8604 26.0506 82.357 25.7641 82.7539 25.3642C83.1509 24.9643 83.4337 24.4656 83.5731 23.9197C83.7124 23.3737 83.7034 22.8004 83.5467 22.2592C83.3901 21.718 83.0916 21.2285 82.6821 20.8414Z" fill="#EDD8AB"/>
<path opacity="0.72" d="M141.334 23.0052C140.886 23.0611 140.475 23.2785 140.176 23.6167C139.877 23.9549 139.713 24.3905 139.713 24.8417C139.713 25.2928 139.877 25.7284 140.176 26.0666C140.475 26.4048 140.886 26.6222 141.334 26.6781C141.782 26.6222 142.194 26.4048 142.492 26.0666C142.791 25.7284 142.956 25.2928 142.956 24.8417C142.956 24.3905 142.791 23.9549 142.492 23.6167C142.194 23.2785 141.782 23.0611 141.334 23.0052Z" fill="#EDD8AB"/>
<path opacity="0.72" d="M100.392 6.03599C98.2694 3.99173 95.4374 2.84964 92.4907 2.84964C89.544 2.84964 86.712 3.99173 84.5897 6.03599C84.1337 6.48196 83.8058 7.0423 83.6405 7.65839C83.4752 8.27448 83.4786 8.9237 83.6502 9.53806C83.82 10.2287 84.2139 10.8435 84.7703 11.2865C85.3266 11.7295 86.014 11.9758 86.7251 11.9866C86.8577 12.3021 87.0596 12.5837 87.3159 12.8104C87.5722 13.0372 87.8764 13.2033 88.2057 13.2963C92.0893 14.1457 96.1501 13.5163 99.5944 11.5311C100.058 11.2645 100.455 10.8962 100.755 10.4538C101.056 10.0114 101.252 9.50653 101.329 8.97732C101.405 8.44811 101.361 7.90837 101.199 7.39885C101.036 6.88933 100.76 6.42329 100.392 6.03599Z" fill="#EDD8AB"/>
<path opacity="0.72" d="M102.328 24.7135C102.056 24.7135 101.795 24.8215 101.603 25.0137C101.411 25.206 101.303 25.4667 101.303 25.7385C101.303 26.0104 101.411 26.2711 101.603 26.4633C101.795 26.6555 102.056 26.7635 102.328 26.7635C102.6 26.7635 102.86 26.6555 103.052 26.4633C103.245 26.2711 103.353 26.0104 103.353 25.7385C103.353 25.4667 103.245 25.206 103.052 25.0137C102.86 24.8215 102.6 24.7135 102.328 24.7135Z" fill="#EDD8AB"/>
<path opacity="0.72" d="M121.148 29.6961C121.036 28.7878 120.594 27.9523 119.906 27.3486C119.219 26.7448 118.333 26.415 117.418 26.4219C116.073 26.5331 114.77 26.9415 113.603 27.6177C112.661 27.1462 111.603 26.9583 110.556 27.0767C109.765 27.1158 109.012 27.4308 108.429 27.967C107.846 28.5033 107.47 29.2268 107.365 30.012C107.26 30.7971 107.433 31.5942 107.855 32.2647C108.277 32.9352 108.92 33.4368 109.673 33.6822C110.213 33.9111 110.764 34.1107 111.325 34.2801C111.529 34.4295 111.762 34.536 112.008 34.5933C112.832 34.7624 113.675 34.8199 114.514 34.7641C115.856 34.6428 117.177 34.3461 118.443 33.8815C119.32 33.624 120.076 33.0597 120.573 32.2914C121.069 31.5232 121.273 30.6022 121.148 29.6961Z" fill="#EDD8AB"/>
<path opacity="0.72" d="M72.3184 56.061C72.0711 55.7632 71.7721 55.5124 71.4358 55.3208C71.1223 55.1544 70.8346 54.9434 70.5816 54.6944C69.3573 53.3278 67.3074 55.3777 68.5886 56.7159C69.3574 57.5131 70.7525 58.3673 71.8913 57.684C72.6031 57.3138 73.1441 56.4596 72.3184 56.061Z" fill="#EDD8AB"/>
<path opacity="0.72" d="M64.5172 54.8937C64.3926 55.4028 64.4678 55.9403 64.7273 56.3957C64.9867 56.8511 65.4108 57.1898 65.9123 57.3422C67.706 57.9971 69.0157 57.143 70.7525 56.9721C71.7203 57.1132 72.6733 57.3419 73.5997 57.6554H74.0552C74.5989 57.8043 75.1793 57.7322 75.67 57.4549C76.1607 57.1775 76.5218 56.7174 76.6746 56.1749C77.8135 49.4271 65.5422 48.943 64.5172 54.8937Z" fill="#EDD8AB"/>
<path opacity="0.72" d="M47.3771 53.8687C46.9711 53.3063 46.3738 52.9114 45.6973 52.7583C45.3852 52.675 45.0582 52.6647 44.7415 52.7279C44.4248 52.7912 44.1268 52.9264 43.8707 53.1232C43.6146 53.32 43.4071 53.573 43.2644 53.8627C43.1216 54.1524 43.0473 54.471 43.0473 54.794C43.0473 55.117 43.1216 55.4356 43.2644 55.7254C43.4071 56.0151 43.6146 56.2681 43.8707 56.4648C44.1268 56.6616 44.4248 56.7968 44.7415 56.8601C45.0582 56.9234 45.3852 56.913 45.6973 56.8298C46.0395 56.7627 46.3647 56.6273 46.6533 56.4316C46.942 56.2359 47.1882 55.984 47.3771 55.6909C47.5459 55.4169 47.6353 55.1015 47.6353 54.7798C47.6353 54.458 47.5459 54.1426 47.3771 53.8687Z" fill="#EDD8AB"/>
<path opacity="0.72" d="M155.228 45.5549C154.241 44.964 153.144 44.5787 152.004 44.4222C150.864 44.2656 149.705 44.341 148.594 44.6438C147.04 44.9574 145.665 45.8539 144.751 47.1493C144.448 46.9583 144.123 46.8053 143.783 46.6938C142.501 46.3237 140.936 47.6903 141.42 49.0854C141.928 50.1902 142.763 51.1127 143.811 51.7286C144.86 52.3446 146.072 52.6244 147.285 52.5305C148.581 52.5218 149.869 52.3104 151.1 51.9041C152.245 51.2533 153.423 50.6641 154.63 50.1389C155.098 49.998 155.515 49.725 155.831 49.3527C156.147 48.9803 156.349 48.5246 156.412 48.0403C156.475 47.556 156.397 47.0638 156.187 46.6228C155.977 46.1819 155.644 45.811 155.228 45.5549Z" fill="#EDD8AB"/>
<path opacity="0.72" d="M18.5067 47.6049L18.165 47.2917C17.7609 46.8744 17.2387 46.5908 16.6687 46.4788C16.0987 46.3669 15.5081 46.4319 14.9762 46.6653C14.4419 46.878 13.9845 47.2476 13.6644 47.7253C13.3442 48.2031 13.1762 48.7666 13.1825 49.3416C13.1465 49.9343 13.2966 50.5234 13.6119 51.0265C13.9273 51.5296 14.392 51.9215 14.9411 52.1474C15.4902 52.3733 16.0962 52.4219 16.6742 52.2864C17.2523 52.1508 17.7736 51.838 18.165 51.3916L18.5067 51.0784C18.9556 50.6117 19.2063 49.9892 19.2063 49.3416C19.2063 48.6941 18.9556 48.0716 18.5067 47.6049Z" fill="#EDD8AB"/>
<path opacity="0.72" d="M172.368 47.7473C171.836 47.0612 171.16 46.4995 170.388 46.1012C169.616 45.703 168.766 45.4777 167.898 45.4411C166.486 45.1911 165.032 45.3187 163.684 45.8112C162.899 46.0898 162.195 46.5578 161.634 47.1736C161.073 47.7894 160.672 48.5341 160.467 49.3417C160.31 49.9343 160.391 50.5651 160.695 51.0979C160.999 51.6306 161.5 52.0225 162.09 52.1889H162.489C162.559 53.0426 162.946 53.8394 163.572 54.4237C164.199 55.008 165.02 55.338 165.877 55.3492C167.357 55.3492 168.724 55.1215 170.29 54.9222C170.871 54.7672 171.4 54.4619 171.825 54.037C172.25 53.6121 172.555 53.0826 172.71 52.5021C172.986 51.7291 173.098 50.9073 173.039 50.0888C172.98 49.2702 172.752 48.4729 172.368 47.7473Z" fill="#EDD8AB"/>
<path opacity="0.72" d="M127.554 141.619C120.55 145.463 113.517 146.174 107.623 140.138C107.18 139.722 106.595 139.49 105.986 139.49C105.378 139.49 104.793 139.722 104.349 140.138C96.8611 147.484 88.3765 142.473 79.6926 142.074C79.5583 142.073 79.4258 142.106 79.3085 142.172C79.1911 142.237 79.093 142.332 79.0239 142.448C78.9547 142.563 78.917 142.694 78.9144 142.828C78.9119 142.963 78.9446 143.096 79.0093 143.213C84.7037 151.755 98.484 150.445 105.915 144.865C107.331 146.19 108.997 147.22 110.816 147.895C112.634 148.569 114.569 148.875 116.507 148.794C121.745 148.424 124.422 145.519 127.895 142.188C128.294 141.904 127.895 141.42 127.554 141.619Z" fill="#EDD8AB"/>
<path opacity="0.72" d="M184.924 138.914C182.077 139.085 179.572 140.822 176.639 141.163C172.538 141.462 168.432 140.635 164.766 138.772C164.495 138.622 164.182 138.564 163.875 138.605C163.567 138.646 163.281 138.784 163.058 138.999C159.471 142.388 152.78 148.395 148.367 141.847C148.082 141.376 147.626 141.036 147.094 140.897C146.562 140.759 145.997 140.834 145.519 141.106C141.619 143.669 131.682 147.797 129.547 141.106C125.902 151.755 139.882 148.822 146.146 145.633C151.442 150.986 158.474 146.26 163.912 142.017C169.436 147.114 186.69 150.018 186.12 140.195C186.137 140.03 186.117 139.864 186.064 139.707C186.011 139.55 185.925 139.406 185.812 139.284C185.699 139.163 185.561 139.067 185.408 139.004C185.255 138.94 185.09 138.909 184.924 138.914Z" fill="#EDD8AB"/>
<path opacity="0.72" d="M177.664 55.2354C176.131 54.5907 174.48 54.2753 172.817 54.3097C171.154 54.344 169.517 54.7273 168.012 55.4346C165.82 56.602 164.339 59.7624 161.464 59.1075C159.585 58.7089 156.766 54.9506 155.171 53.6694C153.478 52.024 151.374 50.8637 149.078 50.3097C145.985 49.9247 142.861 50.7287 140.338 52.559C136.75 54.9222 135.383 57.6554 130.543 56.9436C127.696 56.5166 125.162 54.7798 122.258 54.7513C118.841 54.7513 115.909 56.8867 112.663 57.5985C104.662 59.4491 100.534 50.8507 92.5334 53.4986C90.1458 54.5017 87.9715 55.9512 86.1273 57.7693C81.7995 61.129 79.7211 58.6804 75.2225 57.627C70.724 56.5735 67.5921 56.7159 64.9158 58.9652C64.103 57.744 63.4969 56.3973 63.122 54.9791C63.0198 54.5355 62.8127 54.1229 62.5182 53.7758C62.2236 53.4288 61.8501 53.1574 61.429 52.9845C61.0079 52.8116 60.5514 52.7422 60.098 52.7821C59.6445 52.822 59.2072 52.97 58.8228 53.2138C54.9506 55.6624 45.0709 59.62 41.7397 54.4096C40.0314 51.5625 40.3446 48.4306 37.2411 46.4375C30.9204 42.3661 25.8524 47.2632 23.8024 52.9006C22.6351 52.6729 21.4393 52.4166 20.2719 52.075C16.7699 50.993 15.6026 56.0895 18.7914 57.3992C20.8713 58.1508 22.9909 58.7876 25.1406 59.3068C25.5777 59.4131 26.0329 59.4203 26.4732 59.328C26.9134 59.2356 27.3274 59.0461 27.6849 58.7732C28.0424 58.5003 28.3344 58.1509 28.5395 57.7506C28.7447 57.3503 28.8577 56.9092 28.8704 56.4596C28.8704 53.2708 30.778 51.8472 34.7641 52.2173C35.1582 53.0721 35.482 53.9577 35.7321 54.8652C36.0069 55.837 36.3494 56.7884 36.7571 57.7124C37.3288 58.7603 38.1044 59.683 39.0384 60.4263C39.9724 61.1696 41.0458 61.7183 42.1952 62.0401C47.7334 63.3521 53.5593 62.6137 58.595 59.9616C59.6088 62.1351 61.0631 64.0742 62.8658 65.656C63.1729 65.9808 63.5522 66.2288 63.973 66.3798C64.3938 66.5308 64.8442 66.5805 65.2878 66.5251C65.7313 66.4696 66.1556 66.3105 66.5263 66.0606C66.8969 65.8107 67.2035 65.477 67.4213 65.0866C70.2685 59.3922 77.8704 66.1685 82.5968 65.4282C88.2911 64.5456 91.1383 57.6554 96.8327 58.2818C102.527 58.9082 105.089 63.606 111.353 62.581C114.827 61.9831 117.56 59.3922 121.005 58.8228C124.203 58.6808 127.395 59.2144 130.372 60.3887C132.074 60.9889 133.896 61.16 135.679 60.8868C137.462 60.6136 139.15 59.9047 140.594 58.8228C145.064 55.6055 148.139 54.4666 152.723 58.2249C154.282 59.6115 155.703 61.1467 156.965 62.8088C158.22 64.1325 159.84 65.0532 161.62 65.4537C163.399 65.8542 165.258 65.7165 166.959 65.0581C168.866 64.5456 171.03 62.6095 172.909 62.4672C177.835 62.097 180.056 68.4463 182.675 71.4073C183.05 71.7725 183.512 72.0341 184.018 72.1665C184.524 72.2989 185.056 72.2975 185.561 72.1626C186.066 72.0277 186.528 71.7638 186.9 71.3968C187.273 71.0298 187.544 70.5723 187.686 70.0691C189.679 63.8338 183.359 57.3138 177.664 55.2354Z" fill="#913E12"/>
<path opacity="0.72" d="M110.328 142.615C108.335 136.01 100.904 136.238 95.2383 137.12C91.2451 137.928 87.2027 138.47 83.1377 138.743C79.8221 138.546 76.5613 137.805 73.4858 136.551C73.3073 136.516 73.1224 136.535 72.9549 136.606C72.7875 136.677 72.6451 136.797 72.5462 136.949C68.4178 143.697 79.6072 145.89 83.9349 145.833C88.0939 145.606 92.2322 145.093 96.3202 144.295C100.847 143.583 105.517 145.064 109.816 143.555C110.003 143.49 110.158 143.358 110.253 143.184C110.348 143.01 110.375 142.808 110.328 142.615Z" fill="#913E12"/>
<path opacity="0.72" d="M41.3696 135.811C36.8425 136.095 23.1761 139.768 25.8809 146.772C25.9729 147.055 26.1667 147.293 26.4246 147.44C26.6825 147.587 26.986 147.634 27.276 147.569C30.1232 147.142 32.1732 143.84 34.821 142.501C38.4825 140.992 42.4219 140.274 46.3806 140.395C48.0889 140.395 51.1639 139.74 52.075 141.733C53.2708 144.58 49.5979 147.085 47.548 147.854C45.4703 148.681 43.2092 148.937 40.9994 148.594C40.0887 148.419 39.2006 148.142 38.3515 147.769H38.0668H38.3515C38.7374 147.541 39.038 147.193 39.2074 146.778C39.3767 146.363 39.4055 145.904 39.2892 145.472C39.1729 145.039 38.9181 144.656 38.5636 144.382C38.2092 144.108 37.7747 143.957 37.3266 143.954C34.9349 143.954 32.2586 145.092 32.4294 147.94C32.6002 150.787 35.5613 152.125 37.7536 152.894C43.7897 155.029 53.2708 152.524 55.093 145.605C56.9152 138.686 46.8931 135.44 41.3696 135.811Z" fill="#913E12"/>
<path opacity="0.72" d="M119.781 157.535C118.044 153.748 110.101 153.492 109.019 157.848C108.931 158.172 108.95 158.516 109.073 158.829C109.196 159.142 109.417 159.407 109.702 159.585C111.439 160.524 112.891 159.812 114.713 159.585H116.279C116.923 159.555 117.568 159.632 118.187 159.812C117.959 159.641 118.187 160.069 118.187 160.268C118.248 160.687 118.179 161.114 117.987 161.492C117.108 162.784 115.76 163.683 114.229 163.998C112.648 164.493 110.978 164.638 109.336 164.421C107.693 164.205 106.118 163.633 104.719 162.745C103.808 162.204 102.641 161.15 102.698 159.898C102.698 158.132 105.545 157.592 106.741 157.051C104.492 157.051 101.046 158.019 101.758 160.923C102.3 162.309 103.195 163.529 104.353 164.463C105.512 165.397 106.894 166.012 108.364 166.247C110.183 166.64 112.069 166.61 113.875 166.161C115.681 165.712 117.361 164.855 118.784 163.656C119.627 162.904 120.186 161.886 120.367 160.772C120.549 159.657 120.342 158.515 119.781 157.535Z" fill="#913E12"/>
<path opacity="0.72" d="M159.186 157.364C159.006 157.076 158.747 156.845 158.44 156.701C158.133 156.556 157.79 156.503 157.454 156.548C157.117 156.593 156.801 156.734 156.542 156.955C156.284 157.175 156.095 157.466 155.997 157.791C155.655 159.385 156.339 160.638 155.997 162.289C155.985 162.74 155.845 163.177 155.593 163.551C155.341 163.924 154.987 164.217 154.574 164.396C153.547 164.628 152.494 164.724 151.442 164.681C150.342 164.651 149.251 164.479 148.196 164.169C145.926 163.825 143.754 163.01 141.818 161.777C141.099 161.265 140.497 160.604 140.053 159.841C139.683 159.243 139.597 158.958 139.825 158.417C139.825 158.56 140.138 157.962 140.224 157.905C140.692 157.582 141.212 157.342 141.761 157.193C143.84 156.567 146.06 156.339 148.11 155.684C148.55 155.55 148.927 155.264 149.174 154.877C149.422 154.49 149.524 154.028 149.463 153.573C149.401 153.118 149.18 152.699 148.838 152.392C148.497 152.085 148.057 151.91 147.598 151.897C145.615 151.767 143.629 152.112 141.807 152.904C139.984 153.697 138.377 154.913 137.12 156.453C136.529 157.564 136.34 158.844 136.584 160.079C136.827 161.313 137.49 162.426 138.459 163.229C139.517 164.202 140.682 165.052 141.932 165.763C143.232 166.719 144.673 167.468 146.203 167.984C147.694 168.519 149.289 168.697 150.862 168.505C152.434 168.312 153.939 167.753 155.257 166.873C157.734 164.51 160.723 160.923 159.186 157.364Z" fill="#913E12"/>
<path opacity="0.72" d="M92.2487 189.793C90.5346 190.369 88.7017 190.496 86.9245 190.163C86.412 190.163 82.8815 188.654 84.0773 188.341C84.3823 188.218 84.6314 187.987 84.7769 187.692C84.9225 187.397 84.9543 187.059 84.8662 186.742C84.7782 186.425 84.5765 186.151 84.2997 185.974C84.0229 185.796 83.6903 185.727 83.3655 185.779C81.1162 186.576 75.6211 187.743 73.5712 185.921C71.5212 184.099 69.4427 186.946 71.1511 188.37C73.5996 190.391 77.6711 190.106 81.0308 189.281C81.3163 190.038 81.8098 190.699 82.4544 191.188C83.1636 191.794 83.9887 192.248 84.8795 192.524C85.7702 192.8 86.7078 192.892 87.6351 192.793C88.5624 192.694 89.4598 192.408 90.2726 191.951C91.0854 191.494 91.7966 190.876 92.3626 190.135C92.3819 190.106 92.3944 190.073 92.399 190.039C92.4037 190.004 92.4004 189.969 92.3894 189.936C92.3784 189.903 92.36 189.873 92.3356 189.848C92.3112 189.824 92.2815 189.805 92.2487 189.793Z" fill="#913E12"/>
<path opacity="0.72" d="M117.873 188.882C115.823 188.74 115.026 190.021 113.062 190.562C111.695 190.933 110.259 190.975 108.873 190.683C107.487 190.391 106.19 189.774 105.089 188.882C104.762 188.687 104.378 188.608 104 188.66C103.623 188.712 103.274 188.891 103.011 189.167C102.38 189.944 101.579 190.566 100.67 190.985C99.7603 191.404 98.7671 191.609 97.7662 191.585C96.7653 191.56 95.7835 191.306 94.8961 190.842C94.0086 190.379 93.2394 189.718 92.6473 188.911C92.6473 188.911 92.1348 188.911 92.1633 189.11C92.8751 194.804 99.993 194.804 104.093 192.47C108.449 195.459 119.24 196.797 119.012 190.021C119.005 189.721 118.883 189.436 118.671 189.224C118.459 189.012 118.173 188.889 117.873 188.882Z" fill="#913E12"/>
<path opacity="0.72" d="M154.887 21.0976C153.744 19.87 152.218 19.0669 150.559 18.8199C148.822 18.4625 147.025 18.5352 145.323 19.0314C143.621 19.5277 142.066 20.4325 140.793 21.6671C140.725 21.7899 140.69 21.9279 140.69 22.0682C140.69 22.2086 140.726 22.3465 140.795 22.469C140.863 22.5915 140.962 22.6946 141.081 22.7685C141.2 22.8424 141.336 22.8847 141.476 22.8914C143.887 22.25 146.343 21.7931 148.822 21.5247C150.096 21.543 151.326 21.9877 152.317 22.7877C153.308 23.5877 154.002 24.6969 154.289 25.9378C154.545 26.6496 155.712 26.792 155.912 25.9378C156.201 25.1147 156.259 24.2277 156.078 23.3739C155.898 22.5202 155.485 21.7327 154.887 21.0976Z" fill="#913E12"/>
<path opacity="0.72" d="M139.54 21.1546C136.946 21.05 134.355 21.4463 131.91 22.3219C127.639 23.4893 125.134 22.3219 121.062 20.756C119.234 20.0006 117.236 19.7501 115.278 20.0306C113.32 20.311 111.473 21.1122 109.93 22.3504C109.115 21.2803 108.087 20.3916 106.91 19.741C105.733 19.0904 104.433 18.6921 103.094 18.5716C101.755 18.4511 100.405 18.6109 99.1309 19.0409C97.8568 19.4709 96.6862 20.1617 95.6938 21.0692C91.1667 17.681 81.6572 19.3609 82.369 25.7386C82.3696 25.8636 82.3986 25.9869 82.4538 26.0991C82.509 26.2113 82.589 26.3095 82.6877 26.3862C82.7864 26.463 82.9013 26.5164 83.0236 26.5423C83.146 26.5682 83.2726 26.566 83.3939 26.5358C86.5828 25.5962 91.4799 19.6456 94.4125 24.4858C94.5636 24.727 94.7735 24.9258 95.0225 25.0637C95.2716 25.2015 95.5515 25.2739 95.8361 25.2739C96.1208 25.2739 96.4007 25.2015 96.6497 25.0637C96.8987 24.9258 97.1086 24.727 97.2597 24.4858C99.5659 19.9872 106.257 21.1831 108.079 25.283C108.179 25.4593 108.314 25.614 108.474 25.7381C108.635 25.8623 108.818 25.9535 109.014 26.0064C109.21 26.0593 109.414 26.073 109.615 26.0465C109.816 26.0201 110.01 25.9542 110.186 25.8524C117.304 21.0122 120.322 25.0267 127.668 25.2545C132.052 25.2545 135.184 22.0657 139.426 21.2685C139.626 21.24 139.597 21.1546 139.54 21.1546Z" fill="#913E12"/>
<path opacity="0.72" d="M82.3405 31.3475C78.81 31.7461 74.8809 32.7711 73.6281 27.5608C73.5353 27.2513 73.3264 26.9896 73.0452 26.8304C72.764 26.6712 72.4322 26.6269 72.1191 26.7066C69.4427 27.6177 66.14 29.2406 64.2324 24.6851C64.1562 24.4569 64.0113 24.2579 63.8177 24.1152C63.624 23.9725 63.391 23.8931 63.1505 23.8879C61.4346 23.7738 59.713 23.7738 57.9971 23.8879C57.933 23.8951 57.8722 23.9203 57.8218 23.9606C57.7714 24.0009 57.7335 24.0547 57.7124 24.1157C56.2318 29.0128 49.8826 31.5183 45.1563 30.6357C41.0279 29.867 38.9779 26.792 36.9849 23.4893C36.33 22.3789 34.8495 23.1761 35.0203 24.3434C36.1877 32.5148 48.5444 36.7856 54.4666 30.8065C56.3457 28.8989 57.6554 22.265 61.8408 26.308C62.5526 26.9628 62.3533 29.1552 63.5206 30.0663C64.7115 30.9471 66.1536 31.4224 67.6348 31.4224C69.116 31.4224 70.5581 30.9471 71.749 30.0663C72.1299 31.1376 72.7721 32.0969 73.6175 32.8573C74.4628 33.6177 75.4845 34.1551 76.59 34.4209C77.6955 34.6866 78.8499 34.6723 79.9485 34.3793C81.0471 34.0862 82.0552 33.5237 82.8814 32.7426C83.0242 32.6446 83.1296 32.5013 83.1807 32.3358C83.2318 32.1703 83.2256 31.9925 83.163 31.831C83.1004 31.6696 82.9851 31.534 82.8358 31.4462C82.6865 31.3585 82.512 31.3237 82.3405 31.3475Z" fill="#913E12"/>
<g style="mix-blend-mode:multiply" opacity="0.72">
<g style="mix-blend-mode:multiply" opacity="0.72">
<path d="M2.27774 118.841C5.33925 132.925 11.4703 146.159 20.2337 157.601C28.997 169.043 40.1769 178.411 52.9762 185.036C65.7754 191.661 79.8787 195.381 94.2806 195.93C108.682 196.479 123.028 193.844 136.295 188.213C149.561 182.581 161.422 174.092 171.031 163.351C180.64 152.609 187.761 139.88 191.886 126.071C196.011 112.261 197.039 97.7119 194.895 83.4598C192.752 69.2078 187.491 55.6041 179.486 43.6188C179.856 56.4881 176.354 68.9303 172.425 81.344C157.506 128.493 99.1388 160.467 51.2777 148.253C32.6086 143.006 15.6877 132.85 2.27774 118.841Z" fill="#9F9CAD"/>
</g>
</g>
<g style="mix-blend-mode:multiply" opacity="0.46">
<g style="mix-blend-mode:multiply" opacity="0.46">
<path d="M160.581 22.6351C154.63 31.4329 149.591 40.7716 145.32 47.1493C114.001 94.0709 53.2423 94.7827 2.36316 76.6746C-1.6942 94.8914 -0.465475 113.888 5.90483 131.43C12.2751 148.973 23.5221 164.331 38.3231 175.7C62.8658 187.942 90.3411 189.48 117.247 182.561C149.192 174.361 170.546 153.435 189.907 126.927C190.847 125.618 191.786 124.308 192.754 123.027C192.982 122.144 193.238 121.261 193.438 120.35C197.587 102.619 196.71 84.0811 190.906 66.82C185.102 49.559 174.6 34.2578 160.581 22.6351Z" fill="#9F9CAD"/>
</g>
</g>
<g style="mix-blend-mode:overlay" opacity="0.3">
<g style="mix-blend-mode:overlay" opacity="0.3">
<path d="M91.423 7.60196C74.6246 11.7304 57.029 15.0901 42.3945 25.9094C28.8135 35.9599 6.83324 57.4846 6.0645 75.2225C3.67286 127.838 67.6775 122.343 102.1 105.63C140.195 87.1523 177.351 17.3678 108.677 12.129L91.423 7.60196Z" fill="#FAECCF"/>
</g>
</g>
<g style="mix-blend-mode:overlay" opacity="0.44">
<g style="mix-blend-mode:overlay" opacity="0.44">
<path d="M85.9849 30.294C78.2975 20.4428 59.2214 26.1656 50.7937 32.344C46.5592 35.4246 43.0106 39.3513 40.373 43.8751C35.903 50.9361 33.5683 50.1389 27.6461 55.4631C13.4102 68.3324 28.2156 82.4544 40.1168 88.6043C57.1999 97.4021 78.8385 94.2987 95.0674 84.7606C107.794 77.301 132.736 49.8257 103.609 44.9001C114.144 42.48 103.637 31.4898 85.9849 30.294Z" fill="#FAECCF"/>
</g>
</g>
<g style="mix-blend-mode:overlay" opacity="0.21">
<path d="M193.58 77.1017C193.459 76.7952 193.239 76.5378 192.955 76.3704C192.671 76.203 192.339 76.1352 192.012 76.1777C191.685 76.2202 191.382 76.3706 191.15 76.605C190.918 76.8394 190.771 77.1445 190.733 77.4719C191.333 87.5994 190.875 97.7619 189.366 107.794C187.452 116.744 184.677 125.487 181.081 133.903C175.749 148.349 166.441 160.993 154.232 170.375C140.765 180.312 123.71 185.181 107.253 186.889C97.6377 187.981 87.9196 187.79 78.3545 186.32C70.6101 185.038 62.8943 181.024 55.1499 180.625C55.0876 180.628 55.027 180.646 54.9736 180.678C54.9202 180.71 54.8759 180.756 54.8446 180.81C54.8134 180.864 54.7963 180.925 54.7949 180.987C54.7935 181.049 54.8079 181.111 54.8367 181.166C59.3353 187.715 69.5567 190.078 76.9024 191.558C86.8911 193.539 97.1122 194.076 107.253 193.153C125.191 191.615 143.555 186.32 158.161 175.472C170.973 165.962 179.145 151.214 185.408 136.807C193.665 117.674 199.559 97.5445 193.58 77.1017Z" fill="#05AFEA"/>
</g>
</g>
<defs>
<clipPath id="clip0_1_3604">
<rect width="196" height="196" fill="white"/>
</clipPath>
</defs>
</svg>
