<svg width="89" height="89" viewBox="0 0 89 89" fill="none" xmlns="http://www.w3.org/2000/svg">
<g clip-path="url(#clip0_1_3559)">
<path d="M88.948 42.3213C90.2431 64.0969 63.7452 89.0002 42.1428 89.0002C20.5403 89.0002 -1.07505 66.9628 0.0387499 43.2766C1.1914 18.8052 23.532 0.000183105 45.1345 0.000183105C66.7369 0.000183105 87.355 15.2457 88.948 42.3213Z" fill="#F17241"/>
<path d="M74.9869 31.6558C78.419 31.3548 78.8723 27.2719 77.344 24.6023C85.2054 25.2697 76.9555 3.80813 66.5428 14.6829C63.6935 17.6534 64.3022 24.3013 60.3651 25.8716C55.0551 27.9785 53.242 20.3885 56.7777 21.069C55.2883 18.2554 61.0645 14.1332 59.7823 10.0765C60.5335 10.0765 61.2846 9.89326 62.0229 9.88018C63.5381 5.7449 58.1375 3.96516 55.0292 5.15602C55.3401 2.17234 53.6046 0.444947 50.574 1.23013C50.7625 0.972983 50.9314 0.701752 51.0792 0.418773C49.1082 0.156904 47.1225 0.0257612 45.1346 0.0261851C37.5307 0.112736 30.0805 2.20108 23.5192 6.08515C25.6043 6.64786 27.547 7.30217 28.3111 8.82018C31.264 14.5912 22.2889 13.649 19.1677 14.6829C9.95942 17.7189 6.03523 36.4192 18.6367 33.0037C18.7329 33.8734 18.7329 34.7512 18.6367 35.6209C18.9086 35.6209 20.0483 35.6209 20.2037 35.7911C20.8513 40.7508 15.5025 40.3059 12.3165 42.0071C7.70592 44.4411 6.29425 46.8228 5.84096 52.2275C4.86963 62.8405 20.1649 74.9584 27.6895 63.835C28.7256 67.6562 32.3519 68.1012 34.7997 65.5886C37.3899 69.593 42.0911 68.6246 45.1605 69.7893C50.5223 71.7915 51.9857 74.2517 58.5131 72.8908C67.2292 71.0718 73.6529 60.9822 66.6334 53.2613C60.0025 45.9853 51.8174 51.6909 44.6166 54.1512C40.9385 55.3944 34.7997 57.5929 30.8755 56.101C28.9976 55.3813 24.2186 51.704 26.6534 49.27C27.56 48.3539 31.6655 51.3638 33.8283 49.7934C37.7136 46.9537 34.4499 41.1172 30.9272 39.7693C34.5795 39.5861 33.2455 34.7834 31.7691 32.3232C32.067 32.5064 32.6497 32.7943 32.6238 32.7812C33.8283 31.4726 37.8043 13.6621 43.451 24.105C44.7461 26.5521 39.1124 36.8772 45.7304 34.1684C44.8886 38.5523 49.8229 45.8414 52.7628 39.4029C54.8479 45.1347 61.6602 43.6298 60.9738 37.5315C63.3698 39.416 66.6593 39.7693 68.3041 36.9296C67.7731 41.2742 71.4254 39.9787 72.5521 41.994C73.4795 43.9739 73.8169 46.1836 73.5234 48.3539C73.3033 53.1828 70.7001 58.823 77.4088 60.3802C88.9353 63.1022 84.6873 35.0975 74.9869 31.6558Z" fill="#FF4F24"/>
<path d="M1.41169 55.4336C1.84164 56.9921 2.35615 58.5255 2.95287 60.0269C2.44778 58.4304 1.94269 56.8208 1.41169 55.4336Z" fill="#FF4F24"/>
<path d="M53.9414 76.9082C48.6832 76.2016 47.958 79.303 42.4926 76.0576C40.0578 74.6181 40.4075 73.2179 37.1438 72.6944C34.8773 72.328 33.0771 74.0031 31.9633 73.8722C29.2954 73.4927 28.7644 71.255 26.1094 70.7446C23.4544 70.2342 22.9494 71.6999 20.7995 71.9616C17.1473 72.3935 12.718 72.6814 9.27298 71.111C12.8473 75.8197 17.235 79.8364 22.2241 82.9672C22.871 81.9707 23.828 81.2202 24.9438 80.8341C27.6765 80.1406 41.3399 82.8102 43.5287 84.1842C44.0467 84.5114 45.031 86.9324 45.9376 88.7514C50.5679 88.0879 55.0578 86.6552 59.2254 84.5114C59.4207 83.6575 59.4358 82.7716 59.2698 81.9114C59.1038 81.0512 58.7604 80.236 58.2619 79.5187C57.7635 78.8015 57.1212 78.1984 56.3767 77.7486C55.6323 77.2989 54.8026 77.0125 53.9414 76.9082Z" fill="#FF4F24"/>
<g style="mix-blend-mode:soft-light" opacity="0.59">
<path d="M63.0719 15.8737C64.4706 14.4473 65.403 10.914 62.6315 10.6392C59.6268 10.2728 60.5075 13.9108 59.8859 15.5858C59.3678 17.0122 55.5732 19.3154 58.6814 21.3569C61.453 23.1759 63.9784 17.6927 63.551 15.4549L63.0719 15.8737Z" fill="#7D0204"/>
</g>
<g style="mix-blend-mode:soft-light" opacity="0.59">
<path d="M42.3631 46.3255C44.9533 42.4912 42.8941 39.7824 40.7442 36.7856C39.9671 35.7125 38.1539 36.8641 37.4028 35.2153C36.7682 33.8019 39.0087 31.7997 38.3094 30.5173C36.3797 26.9578 34.2945 28.1487 34.2945 32.5195C34.2945 34.6918 36.8848 38.3298 38.2446 39.8871C36.3149 41.4182 36.03 42.3604 38.0633 44.0354C29.3213 53.6931 51.4936 53.7324 42.3631 45.789V46.3255Z" fill="#7D0204"/>
</g>
<g style="mix-blend-mode:soft-light" opacity="0.59">
<path d="M60.8961 62.7227C60.8055 56.0356 49.9006 53.3267 50.3669 61.5057C48.4501 59.1763 41.7155 55.0672 41.1068 60.8775C37.9079 60.8775 31.251 60.9953 28.3241 60.2756C22.004 58.7183 24.3092 53.6408 20.6311 49.4924C17.2379 45.6712 8.97512 44.6374 8.67725 52.1882C8.50888 56.8993 15.5413 61.6104 19.6727 60.04C19.595 65.0259 30.9661 61.5973 34.8255 62.16C38.2058 62.6573 43.8007 67.6431 46.4168 65.3269C47.7119 67.5123 49.7841 68.1535 51.5972 66.4523C52.4391 69.6454 57.7361 71.0718 60.4429 69.3313C63.6806 67.2375 62.9942 61.4272 60.8961 62.7227Z" fill="#7D0204"/>
</g>
<g style="mix-blend-mode:soft-light" opacity="0.59">
<path d="M47.5694 8.25746C49.5898 3.28466 36.548 0.274811 37.0531 9.9456C33.4527 8.36215 28.7644 11.5814 30.5776 15.8213C24.2445 13.0601 10.1537 21.6578 18.1575 28.6067C26.1612 35.5555 34.8644 20.4801 36.7682 14.1725C38.0395 14.5342 39.3395 14.7838 40.6535 14.9184C41.845 17.3524 43.9301 17.1562 45.29 19.0929C46.6499 21.0297 43.9949 24.6154 48.1522 24.707C54.3428 24.8509 53.229 11.6206 47.5694 8.25746Z" fill="#7D0204"/>
</g>
<g style="mix-blend-mode:soft-light" opacity="0.59">
<path d="M69.0165 28.1748C71.529 26.1726 76.541 21.527 73.9119 17.9152C71.0756 13.9893 66.4132 17.5226 67.1903 21.6317C63.1884 22.1813 62.3854 26.2642 62.5538 29.7059C61.4978 29.2783 60.3532 29.1226 59.2228 29.2528C58.0925 29.383 57.0119 29.795 56.0782 30.4519C52.698 27.1541 43.2955 26.5914 47.2586 33.7627C50.2244 39.1412 59.8212 37.296 62.4502 33.0299C64.1468 36.1575 69.2884 36.9558 68.9258 32.4541C70.2209 39.7955 77.7844 29.4311 68.3689 28.7637L69.0165 28.1748Z" fill="#7D0204"/>
</g>
<g style="mix-blend-mode:soft-light" opacity="0.59">
<path d="M62.6704 76.7512C66.3226 78.7011 70.739 75.9006 73.368 72.9431C75.3625 70.7184 79.3773 61.0346 73.1608 63.6126C74.158 62.6442 73.6011 62.5002 74.171 61.6104C68.356 59.9615 67.5271 67.1851 69.5604 70.7708C67.1386 70.4174 64.7037 71.0979 64.4577 73.6105C63.4863 73.3749 62.0228 73.6105 61.0256 73.3226C60.5205 75.0631 61.4789 74.8799 62.6704 75.5734V76.7512Z" fill="#7D0204"/>
</g>
<g style="mix-blend-mode:soft-light" opacity="0.59">
<path d="M4.68831 39.2982C4.81782 39.8478 4.68828 40.3974 4.77894 40.9602C9.48019 42.0463 11.384 34.7703 6.47553 33.8935C8.50886 32.0091 10.3609 27.5205 6.47553 26.8793C7.46476 26.0592 8.24711 25.0134 8.75822 23.8281C9.26933 22.6428 9.4946 21.3518 9.41546 20.0613C12.8734 19.8258 17.6912 16.3448 16.7717 12.4451C12.5367 12.0918 7.35622 21.6055 5.80209 24.9556C4.55878 27.6121 -1.99446 42.0594 4.68831 39.2982Z" fill="#7D0204"/>
</g>
<g style="mix-blend-mode:soft-light" opacity="0.59">
<path d="M69.5992 52.764C72.4743 56.6899 74.6631 42.295 68.3947 43.1848C68.0451 39.7039 63.8619 39.6254 63.2143 43.1848C58.1634 41.3135 55.4436 47.307 60.391 49.27C62.502 50.0944 64.2763 48.066 66.3356 49.1129C68.1228 50.029 67.3069 52.7771 69.0812 53.9549L69.5992 52.764Z" fill="#7D0204"/>
</g>
<g style="mix-blend-mode:soft-light" opacity="0.59">
<path d="M85.8269 34.6133C86.4486 32.6896 86.6299 26.526 82.9259 26.9316C77.5253 27.5336 82.4467 33.7365 82.7964 35.1629C83.3662 37.5446 82.2654 42.295 85.3866 43.2764C90.0231 44.7421 85.3866 37.4268 84.0915 36.3669L85.8269 34.6133Z" fill="#7D0204"/>
</g>
<g style="mix-blend-mode:soft-light" opacity="0.59">
<path d="M41.7803 78.531C41.2104 74.6051 36.03 72.3673 34.7219 77.2223C31.1474 76.8428 25.8504 73.1132 22.7681 75.351C20.5146 69.9202 13.3656 75.4557 17.1861 79.2769C18.6237 80.7426 26.2519 79.8265 28.4536 80.1799C32.5591 80.8603 34.9292 80.3238 38.931 80.2845C42.9329 80.2453 45.7174 84.0534 48.6444 82.5877C48.7221 83.5692 49.3567 84.3936 49.3955 85.362C53.3974 86.4744 55.0811 82.5485 52.8146 79.5648C50.5482 76.5811 46.1577 78.5964 41.7803 78.531Z" fill="#7D0204"/>
</g>
<g style="mix-blend-mode:soft-light" opacity="0.59">
<path d="M78.8722 47.4902C81.32 43.5643 78.8722 35.6078 73.6918 39.0757C73.5105 38.4083 73.2255 37.7671 73.0183 37.0473C65.2476 35.9219 73.5752 42.1772 74.3134 43.368C75.756 45.7633 76.354 48.5814 76.01 51.3638C75.7898 53.5099 74.6242 56.9385 76.6446 58.2079C82.7187 62.0291 80.0378 50.2383 78.3801 48.0791L78.8722 47.4902Z" fill="#7D0204"/>
</g>
<path opacity="0.6" d="M26.1353 22.901C34.0226 16.9337 16.0982 12.3535 20.2685 21.1475C17.0178 22.2598 12.6403 25.4136 18.5978 27.0363C22.8716 28.201 24.102 23.7516 26.7052 21.8018L26.1353 22.901Z" fill="#750400"/>
<path opacity="0.66" d="M18.6367 54.5045C20.0483 45.4226 8.97515 47.1107 12.6533 51.6255C2.71976 51.2067 22.3536 67.8263 18.6367 53.9287V54.5045Z" fill="#750400"/>
<path opacity="0.6" d="M57.49 65.654C59.1218 63.7958 58.565 58.9015 55.1718 59.1109C50.4964 59.438 53.5528 65.2876 56.9072 65.654H57.49Z" fill="#750400"/>
<path opacity="0.6" d="M53.3715 31.0931C44.8109 22.8225 51.675 43.512 54.5242 34.0244L53.3715 31.0931Z" fill="#750400"/>
<path opacity="0.6" d="M46.4168 12.3666C45.1217 9.93251 40.511 2.02838 40.0318 9.7493C39.8505 12.7722 44.8756 19.25 46.9866 14.1332L46.4168 12.3666Z" fill="#750400"/>
<path opacity="0.6" d="M51.6231 82.627C51.6231 76.6335 47.932 80.2976 45.834 79.7611C42.9459 79.0152 40.9384 76.7381 37.7654 76.869C39.7987 80.2322 42.9459 79.0806 45.834 81.0174C48.0486 82.5223 48.6314 85.8724 51.5195 86.0948C52.1268 84.8412 52.365 83.4377 52.2059 82.0512L51.6231 82.627Z" fill="#750400"/>
<path opacity="0.6" d="M83.5088 43.9177C82.0511 45.302 80.6922 46.7889 79.4421 48.367C80.1674 43.4727 80.5818 35.7911 75.3754 39.0103C71.1016 41.6275 75.0387 51.6124 78.3024 53.4052C78.7122 53.0315 79.0291 52.5653 79.2271 52.0446C79.4251 51.5239 79.4988 50.9633 79.4421 50.4085C81.0351 48.3146 85.7105 45.3441 83.5088 43.9177Z" fill="#750400"/>
<path opacity="0.21" d="M85.6456 33.7365C83.7677 29.4704 78.0174 20.6502 76.5799 16.4888C75.9064 14.5912 75.5308 12.9424 75.0257 11.372C66.8311 3.98784 56.2179 -0.0639739 45.2382 -1.56235e-06C42.8618 0.00732201 40.4908 0.23069 38.154 0.667401C41.7026 4.82885 48.7091 8.62388 50.9885 10.5868C55.6379 14.5781 58.2929 19.9174 55.6768 25.8455C54.6018 28.2926 52.7498 29.0516 52.2965 31.8128C51.8951 34.3123 53.8118 37.0473 53.488 39.9132C52.7369 46.4564 44.7461 57.6321 37.351 57.5012C33.4657 57.4358 32.6627 53.981 30.1502 52.4368C28.5961 51.4946 25.7079 51.2067 24.4905 50.3169C21.3693 48.0268 21.978 45.2132 17.5229 44.5589C12.3424 43.7999 13.3137 46.8097 9.99824 49.0082C6.11291 51.6255 2.79744 51.089 0.297874 49.0082C1.65774 62.2777 9.81695 74.4873 20.5534 81.8549C28.4536 84.4721 34.7996 87.2333 42.0652 86.4351C65.4031 83.8309 96.3432 58.0509 85.6456 33.7365Z" fill="#000072"/>
<path opacity="0.27" d="M68.2783 6.37303C61.5955 9.47449 65.9989 18.2816 68.1099 22.7178C70.8685 28.5151 73.0702 35.8041 71.244 42.1903C69.7806 47.3332 65.1829 47.5687 62.6315 51.4292C60.922 54.0465 62.0487 56.245 61.5048 59.0847C60.391 64.9604 55.7157 71.2288 49.2013 70.509C47.4658 70.3127 44.8368 68.6769 43.1013 68.389C42.2465 68.2451 40.7054 69.3836 39.0865 69.0434C36.9495 68.5984 35.3436 65.9157 33.5822 65.0128C27.4952 61.9113 19.2454 62.618 17.5747 70.6006C14.7643 83.9356 28.8162 80.7818 35.8875 82.5746C41.2364 83.8832 41.6508 88.2279 48.6314 85.4405C51.9858 84.1319 57.1792 80.8734 56.9461 76.8036C61.2847 80.4285 69.5734 77.2616 72.9406 73.8853C78.6262 68.1928 79.3256 61.2832 78.3931 53.8633C87.679 53.8633 83.8325 44.2056 81.4366 39.1019C88.6892 38.3167 82.0582 23.5292 80.0638 20.4016L83.7289 22.8225C80.1819 16.0022 74.8338 10.3083 68.2783 6.37303Z" fill="#000072"/>
<g style="mix-blend-mode:color-dodge" opacity="0.37">
<path d="M44.6684 5.91502C39.8765 0.0392635 25.5266 3.21924 25.4619 11.6861C18.7273 11.4767 15.8651 13.9631 12.5108 19.6818C10.8401 22.5085 11.2157 23.0581 8.80676 25.8455C6.21654 28.8553 3.50975 31.6689 2.3312 35.778C0.621658 42.0594 2.73267 49.8981 10.1666 50.3954C13.2101 50.6048 13.9224 47.5164 17.0048 49.7018C18.4553 50.7356 18.6237 54.5699 20.8901 56.1272C29.8782 62.317 40.3945 58.2341 41.2881 47.5557C46.4686 50.4346 51.0921 48.6287 53.3845 42.8184C54.3523 40.0915 54.6458 37.1669 54.2392 34.2992C53.7341 32.2578 51.0144 30.6612 51.0144 28.7506C50.9367 26.1334 67.1515 15.9391 57.9174 15.2717C59.0959 14.709 60.6759 11.3458 58.7851 9.43523C64.7426 3.74269 48.9293 5.32613 44.6684 5.91502Z" fill="#FBB901"/>
</g>
<g style="mix-blend-mode:overlay" opacity="0.4">
<path d="M37.1438 21.7887C41.4565 16.2794 31.8727 8.89869 29.4767 14.094C27.2362 12.9555 24.6071 13.3742 23.7005 15.8737C9.99826 7.38068 1.38577 48.2623 20.9419 35.7518C24.2574 39.7824 19.2842 44.7944 26.5368 46.4172C35.1882 48.367 38.6332 37.8064 38.3871 31.1978C48.0227 35.634 48.6185 13.4266 37.1438 21.7887Z" fill="#FFE4A1"/>
</g>
<path opacity="0.58" d="M24.9697 16.1092C24.8143 16.1092 24.7496 16.3841 24.9697 16.4102C25.6007 16.5576 26.178 16.8811 26.636 17.3438C27.0939 17.8066 27.4141 18.3899 27.56 19.0275C27.6894 19.5915 27.6894 20.1778 27.56 20.7418C27.56 20.9904 26.4591 22.8487 26.2648 22.2729C26.2469 22.2037 26.2112 22.1404 26.1613 22.0896C26.1114 22.0389 26.0491 22.0023 25.9808 21.9837C25.9124 21.9651 25.8403 21.9651 25.7719 21.9837C25.7036 22.0023 25.6412 22.0389 25.5914 22.0897C24.8231 22.8759 24.2197 23.8106 23.8171 24.8378C22.522 27.1279 20.657 27.6252 18.2351 26.9185C18.1574 26.9185 18.0927 27.0101 18.1574 27.0625C18.7801 27.5452 19.5328 27.8261 20.3165 27.8681C21.1002 27.9102 21.8781 27.7114 22.5478 27.298C24.2574 26.3427 24.5423 24.3667 25.7468 23.045C25.7941 23.1227 25.8653 23.1826 25.9494 23.2157C26.0336 23.2488 26.1262 23.2532 26.213 23.2282C29.8652 22.0373 28.8292 15.8868 24.9697 16.1092Z" fill="#FFE4A1"/>
<path opacity="0.58" d="M19.4137 55.5907C19.1548 54.4053 19.1548 53.1772 19.4137 51.9919C19.88 48.9559 15.4636 45.9853 12.9382 47.5426C12.9075 47.5555 12.8813 47.5773 12.8628 47.6052C12.8444 47.6332 12.8345 47.666 12.8345 47.6996C12.8345 47.7332 12.8444 47.766 12.8628 47.794C12.8813 47.8219 12.9075 47.8437 12.9382 47.8566C13.9728 47.9418 15.0019 48.086 16.0205 48.2885C16.8324 48.5317 17.5684 48.9824 18.1575 49.5971C19.2194 50.8403 18.7273 51.7433 18.4812 53.0781C18.0668 55.3682 21.1621 58.3126 17.6135 59.7521C18.8179 59.7521 19.3878 58.7968 19.595 57.6845C19.6965 56.9818 19.6344 56.2649 19.4137 55.5907Z" fill="#FFE4A1"/>
<path opacity="0.58" d="M54.0579 32.6896C53.7674 31.7892 53.2468 30.9822 52.5486 30.3503C51.8505 29.7183 50.9996 29.2839 50.082 29.0909C50.082 29.0909 50.0043 29.1825 50.082 29.2087C51.5172 29.7585 52.6834 30.8524 53.3326 32.2578C53.7046 32.9206 53.8545 33.6872 53.76 34.4432C53.5399 35.4508 52.6851 35.5686 51.9598 36.0659C51.9408 36.0758 51.9249 36.0908 51.9137 36.1093C51.9026 36.1277 51.8967 36.1489 51.8967 36.1706C51.8967 36.1922 51.9026 36.2134 51.9137 36.2319C51.9249 36.2503 51.9408 36.2654 51.9598 36.2753C54.032 36.5501 54.6018 34.1684 54.0579 32.6896Z" fill="#FFE4A1"/>
<path opacity="0.58" d="M20.5275 35.6864C18.2351 35.5817 18.7143 33.9721 18.2222 32.4279C18.2148 32.4028 18.2026 32.3794 18.1861 32.3592C18.1697 32.339 18.1494 32.3223 18.1265 32.3101C18.1035 32.2979 18.0784 32.2904 18.0526 32.2882C18.0268 32.2859 18.0008 32.2889 17.9761 32.297C14.5182 33.056 11.0991 31.7866 11.7985 27.4682C12.0301 25.9229 12.3721 24.3965 12.8216 22.901C14.0002 19.1714 15.9298 15.8475 19.9576 15.0493C14.1555 13.2041 11.2027 25.165 11.2027 28.9731C11.2027 32.4279 14.0778 32.6765 16.7976 32.899C18.792 33.0429 17.4451 34.2076 18.2999 35.3985C18.8438 36.1706 19.7375 36.0135 20.5534 35.8827C20.67 35.8696 20.6311 35.6864 20.5275 35.6864Z" fill="#FFE4A1"/>
<path opacity="0.58" d="M38.0633 21.684L38.141 21.7756C40.1225 20.467 42.6739 19.9697 44.1374 22.3121C44.5519 22.9949 44.7998 23.7675 44.8606 24.5662C44.9214 25.3648 44.7934 26.1666 44.487 26.9054C44.0086 28.3001 43.2553 29.5823 42.2724 30.6743C41.8777 31.1841 41.3338 31.555 40.7183 31.7343C39.8246 31.8913 39.4232 31.1978 38.7497 30.7921C38.7277 30.7781 38.7021 30.7711 38.6761 30.772C38.6501 30.773 38.6251 30.7818 38.6041 30.7973C38.5832 30.8128 38.5673 30.8344 38.5586 30.8591C38.55 30.8838 38.5489 30.9106 38.5554 30.936C38.8404 32.6503 40.8219 32.6896 41.9875 31.8913C43.5948 30.5828 44.7472 28.7904 45.2771 26.7746C46.7017 22.0897 41.9486 17.9806 38.0633 21.684Z" fill="#FFE4A1"/>
<path opacity="0.58" d="M38.8792 40.1095C38.6641 40.0321 38.4341 40.0062 38.2074 40.0338C37.9806 40.0614 37.7633 40.1418 37.5725 40.2686C37.3817 40.3955 37.2226 40.5653 37.1078 40.7648C36.9929 40.9642 36.9255 41.1879 36.9106 41.4182C36.8329 42.151 38.1151 44.3757 38.2058 44.1009C38.128 44.2841 36.9107 44.9776 36.7293 45.2263C36.3366 45.7275 36.0779 46.3223 35.9782 46.9537C35.9138 47.2375 35.9066 47.5316 35.9569 47.8183C36.0073 48.105 36.1141 48.3786 36.2712 48.6228C36.4283 48.8669 36.6323 49.0767 36.8712 49.2396C37.1101 49.4025 37.379 49.5151 37.6618 49.5709C37.6909 49.5722 37.7195 49.5644 37.7441 49.5487C37.7686 49.533 37.7878 49.51 37.7991 49.483C37.8104 49.4559 37.8132 49.426 37.8072 49.3973C37.8011 49.3686 37.7866 49.3424 37.7654 49.3223C37.4974 49.2119 37.2537 49.0489 37.0484 48.8427C36.8432 48.6365 36.6804 48.3912 36.5696 48.121C36.4588 47.8508 36.4021 47.5611 36.4028 47.2686C36.4036 46.9762 36.4618 46.6867 36.5739 46.4171C36.7318 45.9395 37.0033 45.5083 37.3646 45.1615C37.7259 44.8147 38.166 44.5628 38.6461 44.428C38.6813 44.409 38.7108 44.3808 38.7313 44.3462C38.7518 44.3116 38.7627 44.272 38.7627 44.2317C38.7627 44.1914 38.7518 44.1518 38.7313 44.1173C38.7108 44.0827 38.6813 44.0544 38.6461 44.0354C37.1049 43.0801 36.548 40.4367 38.8792 40.1095Z" fill="#FFE4A1"/>
<path opacity="0.58" d="M58.0728 61.8983C57.7102 60.4588 56.4151 58.4042 54.6667 59.281C54.5631 59.281 54.6667 59.4904 54.7444 59.4642C56.4539 59.124 57.3346 60.3802 57.8138 61.9375C58.1246 63.1022 58.2541 64.5548 57.0108 65.1698C57.0108 65.1698 57.0108 65.2614 57.0108 65.2745C58.552 65.7195 58.2412 62.5918 58.0728 61.8983Z" fill="#FFE4A1"/>
<path opacity="0.3" d="M83.8584 44.3495C82.7575 43.1979 80.7631 45.1739 79.6752 46.5087C79.999 43.6298 80.8278 37.6493 77.085 38.2382C76.9943 38.2382 77.0073 38.3822 77.085 38.4083C80.6206 39.717 78.95 44.6112 78.9759 47.4771C78.9731 47.5414 78.9917 47.6048 79.0288 47.6571C79.0659 47.7095 79.1193 47.7477 79.1804 47.7658C79.2416 47.7839 79.307 47.7807 79.3661 47.7569C79.4253 47.733 79.4748 47.6898 79.5068 47.6342C79.9457 46.9053 80.4966 46.2515 81.1387 45.6974C81.3588 45.5011 82.4338 44.3888 82.8612 44.5327C83.7937 44.8206 82.8611 46.2994 82.5503 46.6134C81.6049 47.752 79.455 48.6026 79.2478 50.2253C79.2495 50.2593 79.2606 50.2922 79.2798 50.3203C79.299 50.3483 79.3256 50.3704 79.3566 50.384C79.3875 50.3976 79.4216 50.4022 79.455 50.3973C79.4885 50.3924 79.5199 50.3781 79.5457 50.3561C80.7113 48.825 82.4467 47.8305 83.5735 46.2994C84.0268 45.7236 84.48 44.9907 83.8584 44.3495Z" fill="#FFE4A1"/>
<path opacity="0.3" d="M52.5815 81.9858C52.5635 81.9273 52.5237 81.8782 52.4705 81.8489C52.4174 81.8196 52.3549 81.8123 52.2966 81.8287C51.0014 82.3129 51.2864 79.3031 50.5352 78.6749C49.2401 77.5495 47.0902 79.3423 45.6397 79.2638C46.5981 79.6956 47.4269 79.2638 48.3724 78.9366C50.2373 78.3608 50.587 79.3554 50.8331 80.8734C50.9108 81.3576 50.9885 82.0381 51.4806 82.2867C51.6231 82.3653 51.8692 82.2867 51.9857 82.2867C52.452 82.5354 52.4131 81.9465 52.3872 83.2551C52.3872 83.7393 52.2836 84.1581 52.3095 84.5638C52.3095 84.5915 52.3204 84.6181 52.3399 84.6378C52.3593 84.6574 52.3857 84.6684 52.4132 84.6684C52.4406 84.6684 52.467 84.6574 52.4864 84.6378C52.5059 84.6181 52.5167 84.5915 52.5167 84.5638C52.8079 83.733 52.8306 82.8303 52.5815 81.9858Z" fill="#FFE4A1"/>
<path opacity="0.3" d="M73.9378 18.8705C73.4328 16.0831 71.0627 15.2979 69.1848 17.4179C71.775 15.2848 73.627 17.4179 73.4975 19.7865C73.2949 21.2454 72.7728 22.6402 71.9693 23.8694C70.8738 25.7045 69.6805 27.4781 68.3947 29.1825C68.2393 29.4049 68.589 29.6797 68.7574 29.4704C70.8684 26.8138 74.5984 22.6001 73.9378 18.8705Z" fill="#FFE4A1"/>
<path opacity="0.3" d="M43.956 46.9013C43.166 45.8152 43.6193 45.7105 43.8525 44.4149C44.2539 42.0071 42.6739 39.6777 40.8996 38.2382C40.796 38.1466 40.6276 38.2382 40.7053 38.3822C42.2724 41.3135 44.228 42.7661 42.4926 46.3255C42.4536 46.3955 42.4426 46.4779 42.4619 46.5558C42.4812 46.6336 42.5292 46.7011 42.5962 46.7443C46.5722 49.0082 41.8191 52.0573 38.9051 50.186C38.9051 50.186 38.8015 50.186 38.9051 50.2645C40.524 52.1228 45.2382 51.6517 44.9403 48.4979C44.8108 47.7912 44.3446 47.4379 43.956 46.9013Z" fill="#FFE4A1"/>
<path opacity="0.3" d="M71.2311 44.1925C70.3504 42.8839 69.2107 42.2295 67.8638 42.7922C67.9753 42.2315 67.8714 41.6488 67.5731 41.1627C67.2748 40.6766 66.8046 40.3234 66.2579 40.175C64.5354 39.8347 63.5122 41.85 63.1626 43.1979C63.1626 43.1979 63.2402 43.3026 63.2791 43.1979L64.0691 41.994L64.6908 41.2219C66.8666 41.1434 67.7084 41.8108 67.1903 43.211C67.1739 43.2691 67.1752 43.3309 67.194 43.3882C67.2129 43.4456 67.2483 43.4959 67.2959 43.5326C67.3434 43.5693 67.4007 43.5908 67.4604 43.5941C67.5201 43.5974 67.5795 43.5825 67.6307 43.5513L70.0784 43.6821C70.3913 43.9785 70.6616 44.3177 70.8814 44.6898C71.377 45.4528 71.6712 46.3313 71.7362 47.2416C71.7362 48.367 71.4513 49.4532 71.4254 50.5786C71.4254 50.6702 71.5678 50.7095 71.6067 50.5786C72.1054 49.5748 72.3333 48.4558 72.2674 47.3346C72.2014 46.2134 71.8439 45.1295 71.2311 44.1925Z" fill="#FFE4A1"/>
<path opacity="0.3" d="M76.2302 63.979C76.1611 63.6978 76.0288 63.4364 75.8435 63.2153C75.6582 62.9942 75.4249 62.8193 75.1618 62.7041C74.8987 62.5888 74.6128 62.5365 74.3264 62.5511C74.04 62.5657 73.7608 62.6468 73.5105 62.7881C73.7328 62.4122 73.9028 62.007 74.0156 61.5842C74.0277 61.5322 74.0197 61.4775 73.9932 61.4313C73.9667 61.385 73.9238 61.3508 73.8731 61.3355C72.578 60.9691 71.9175 61.5318 70.9332 62.317C71.5678 61.8721 72.1118 61.3748 72.8111 61.9637C73.5105 62.5525 73.1997 62.5133 72.7464 63.1545C72.6298 63.3116 72.8629 63.5209 73.0183 63.4293C75.2071 62.0291 76.3727 64.0444 76.036 66.112C75.7227 67.3014 75.137 68.3996 74.3264 69.3182C74.3264 69.3967 74.3911 69.4752 74.4559 69.4229C75.2699 68.8101 75.8771 67.9585 76.1946 66.9843C76.5121 66.01 76.5245 64.9606 76.2302 63.979Z" fill="#FFE4A1"/>
<path opacity="0.3" d="M43.5546 58.2472C43.032 58.4213 42.5574 58.7172 42.1688 59.1109C41.9487 59.3464 41.6378 60.2755 41.4177 60.4195C41.0726 60.3393 40.7218 60.2868 40.3686 60.2625C39.0735 60.4195 38.2705 61.2309 36.7941 60.642C36.6387 60.642 36.5092 60.8252 36.6387 60.9299C38.0245 62.0815 40.3427 60.0923 41.34 61.1523C41.3756 61.1855 41.419 61.2088 41.4661 61.2203C41.5132 61.2318 41.5624 61.2309 41.6091 61.2178C41.6557 61.2047 41.6983 61.1798 41.7328 61.1454C41.7673 61.1111 41.7926 61.0684 41.8062 61.0215C43.5935 56.2319 48.5149 59.9353 50.6259 62.2123H50.7166C49.7193 59.739 46.2096 57.4227 43.5546 58.2472Z" fill="#FFE4A1"/>
<path opacity="0.3" d="M25.1122 65.7718C22.1982 67.4992 19.5173 68.69 16.1111 67.4861C12.9041 66.1855 10.1849 63.8958 8.34048 60.9429C5.40058 56.5328 4.29974 50.0159 8.34048 45.9722C3.00463 49.5186 5.75027 58.1556 8.75493 62.2647C10.866 64.9735 13.7152 67.5908 17.1473 68.376C19.8799 68.9779 23.5192 68.2844 25.2417 65.8896C25.2935 65.811 25.1899 65.7325 25.1122 65.7718Z" fill="#FFE4A1"/>
</g>
<defs>
<clipPath id="clip0_1_3559">
<rect width="89" height="89" fill="white"/>
</clipPath>
</defs>
</svg>
