<svg width="83" height="86" viewBox="0 0 83 86" fill="none" xmlns="http://www.w3.org/2000/svg">
<path d="M48.2682 8.88661C46.1653 5.33552 43.1931 1.84361 38.964 0.932159C32.9492 -0.381745 31.9154 4.48326 28.626 5.35919C19.639 7.84496 18.4643 9.30089 9.8297 16.9239C3.01604 22.9253 -0.273326 33.33 2.67535 41.9946C4.01458 45.96 -0.707989 46.2678 0.87795 49.5111C2.9338 53.7014 0.59601 55.6308 1.94699 60.0105C2.49914 61.7742 6.56384 61.9991 7.56239 63.7628C8.56094 65.5265 7.12773 69.125 8.39648 71.4213C10.4053 75.079 17.5597 78.6182 21.5774 78.6537C25.6069 91.6152 37.1078 82.6546 44.6851 82.0509C48.5149 81.7432 51.3695 85.0576 55.3755 84.7616C62.6356 84.229 61.8367 79.5533 66.4418 75.3512C70.5418 71.5989 76.5214 72.6761 78.3657 65.2069C79.1411 62.0701 76.1337 59.9158 76.5566 57.5366C77.0382 54.7667 79.9047 54.53 80.6566 52.2099C82.6772 45.9245 86.1779 27.2694 76.768 25.7188C75.9692 14.8051 60.1568 2.1277 48.2682 8.88661Z" fill="#CCB672"/>
<path opacity="0.5" d="M11.9443 56.199C7.70336 62.4963 10.6403 73.6704 18.5582 74.9843C22.9284 75.7063 24.5378 71.0189 28.814 72.6169C31.0578 73.481 29.8243 78.7366 34.0534 80.2991C37.1196 81.4828 41.5485 78.417 44.7321 78.2158C48.6676 77.9909 51.4165 80.0505 55.7984 78.5709C63.4814 75.9904 67.2289 64.6032 58.8998 60.6142C51.4753 57.0631 42.453 73.6349 40.1035 61.6558C37.1783 62.1412 35.7334 61.0758 33.3956 63.1947C31.7744 58.1876 27.0401 54.9088 22.7169 58.7321C24.4438 44.291 7.86783 45.2143 11.9443 56.199Z" fill="#655538"/>
<path opacity="0.5" d="M58.8999 23.1738C55.5283 -0.275203 29.049 17.7762 35.5572 25.92C26.2296 26.4882 36.732 38.5619 44.6147 34.8806C37.1197 50.6475 70.2951 51.7246 62.5417 34.0639C73.7137 34.5492 67.6402 14.2606 57.1377 24.9494L58.8999 23.1738Z" fill="#655538"/>
<path opacity="0.5" d="M3.08655 37.4492C4.1086 40.6216 6.38765 42.5628 9.32457 40.586C13.0721 38.0529 9.51253 33.8982 10.3701 31.1993C13.1426 22.4518 20.1559 27.7311 24.7258 20.0252C31.2223 9.07601 19.5216 13.87 14.5523 16.7345C7.15124 21.0195 3.68567 24.4996 3.97937 34.7741L3.08655 37.4492Z" fill="#655538"/>
<path opacity="0.5" d="M53.59 29.4238C38.9053 22.7122 67.1468 3.77304 64.3508 28.3939C71.3994 27.0564 75.3937 34.3124 71.6226 40.2309C78.1779 43.782 73.4318 55.0035 70.4479 60.2709C65.3259 69.3617 55.1759 73.0667 45.0964 71.0307C35.334 69.054 25.2193 60.4722 26.9814 49.3336C28.1562 41.5448 36.1094 35.721 42.9465 42.0657C44.9436 40.7636 46.882 39.5089 49.0788 38.2541C45.8365 33.8508 47.9276 30.2642 53.59 29.4238Z" fill="#655538"/>
<path opacity="0.5" d="M65.3494 60.3775C70.9295 55.8439 72.8561 53.9973 72.1983 46.5282C71.5051 38.775 71.3289 40.2783 65.972 38.408C63.6224 37.5913 57.8661 41.7224 56.4094 36.4194C55.4578 32.963 63.9044 30.5009 65.8075 26.796C69.3318 19.6938 63.5755 10.9699 55.3873 10.6622C51.0759 10.5083 49.8071 13.0296 46.3063 12.5561C43.9568 12.2128 42.4766 7.90413 37.7893 8.80374C37.2019 -1.84954 22.5173 13.8818 21.5422 21.931C20.3274 22.3073 19.2557 23.0486 18.4705 24.0555C17.6853 25.0625 17.2241 26.287 17.1486 27.5654C7.8209 26.7249 6.22321 41.0003 16.244 41.2371C13.7652 48.6233 21.0958 52.9557 25.6421 45.1314C27.6862 41.6395 24.4086 38.1713 25.1957 34.7859C25.6891 32.6789 28.5438 29.625 29.6599 27.6837C27.7685 33.0814 39.058 23.5053 42.5823 20.5815C42.1359 21.9665 42.5823 23.8249 42.2181 24.9375C45.7425 23.8249 50.2653 24.0498 54.3418 24.2628C54.8191 26.53 54.8191 28.8729 54.3418 31.1401C51.0407 31.5426 44.3092 35.8749 45.4605 40.0889C46.3298 43.3677 50.8527 41.0832 51.8512 43.0836C56.5503 52.4467 43.3812 48.1025 39.7629 56.7198C35.6042 66.6392 46.5648 70.6046 54.4123 71.2675C58.5944 71.6226 64.856 72.5577 67.8281 68.6278C70.8003 64.6979 69.8605 60.2117 65.3494 60.3775Z" fill="#E3DBB1"/>
<path opacity="0.27" d="M80.6448 52.21C82.6654 45.9245 86.1662 27.2694 76.7563 25.7188C75.9692 14.8051 60.1568 2.12771 48.2681 8.88662C47.9392 8.31844 47.575 7.70292 47.1991 7.20577C49.2314 12.0234 56.2448 16.8647 58.794 20.6881C56.7432 22.8202 55.2918 25.4633 54.5884 28.3466C57.584 30.5128 60.9321 31.5544 64.104 33.1642C63.2229 34.052 62.5533 36.4431 61.4725 37.4492C65.2435 40.6216 67.9455 42.8232 69.3552 48.1025C70.53 52.6598 69.1908 66.4262 63.7868 68.2254C55.9394 70.794 59.0877 59.4897 54.4944 57.7378C48.8085 55.5717 44.6028 62.2359 45.4604 67.5033C39.9038 63.2183 40.8436 70.1903 37.6834 71.2556C34.0715 72.3168 30.245 72.3944 26.5936 71.4805C21.2484 70.2968 17.3482 68.0715 11.6153 67.4086C10.2888 67.4081 8.98784 67.7767 7.85606 68.4739C7.76239 69.4904 7.94513 70.5134 8.3847 71.4332C10.3936 75.0908 17.5479 78.6301 21.5656 78.6656C25.5951 91.6271 37.0961 82.6665 44.6733 82.0628C48.5031 81.755 51.3578 85.0694 55.3637 84.7735C62.6238 84.2408 61.8249 79.5652 66.43 75.3631C70.53 71.6107 76.5096 72.6879 78.3539 65.2188C79.1293 62.082 76.1219 59.9277 76.5448 57.5484C77.0265 54.7667 79.9046 54.53 80.6448 52.21Z" fill="#21004C"/>
<path opacity="0.17" d="M26.5702 65.1122C17.9943 75.5761 43.4516 87.8984 51.3813 77.5292C55.6457 80.7252 60.6502 79.6599 64.6679 76.7362C70.4478 72.5459 67.5343 69.1487 69.9191 64.1771C73.6079 56.5068 84.2043 50.6475 76.2981 40.373C83.4407 34.7978 76.0044 20.9722 70.2128 17.5631C61.8132 12.6153 43.1931 15.7284 53.6603 29.8854C56.9732 34.3716 62.2361 32.9512 62.7648 39.0117C63.3169 45.4273 55.7162 46.2204 60.2508 54.2222C63.0232 59.1582 70.9882 57.5011 62.0129 64.4731C57.5488 67.9295 49.8306 64.473 50.2652 73.0785C43.6278 67.0062 41.6542 64.5441 26.5702 65.1122Z" fill="#21004C"/>
<g style="mix-blend-mode:overlay" opacity="0.4">
<path d="M29.6598 30.3115C31.5363 28.5403 32.9188 26.3041 33.6692 23.8261C34.4195 21.3481 34.5115 18.7151 33.936 16.19C28.2619 13.4794 22.67 21.0077 22.4468 26.6776C17.8652 22.7477 15.0927 28.2282 14.4466 32.9038C8.16157 29.8617 5.34212 46.5045 19.7683 45.6286C21.084 50.7066 26.2178 51.6181 28.5556 46.5519C34.2767 57.2998 45.6484 33.4128 29.6598 31.1638V30.3115Z" fill="#FFE4A1"/>
</g>
<path opacity="0.68" d="M14.235 15.4561C10.7107 17.2672 7.29214 19.2913 5.30678 22.9489C2.74578 27.6837 1.89995 33.9573 1.58276 39.2366C1.58276 39.9705 2.56957 40.0297 2.75753 39.4023C5.56523 31.3177 4.35521 23.2212 12.7901 18.368C15.447 16.7175 18.3223 15.4543 21.3306 14.6157C23.41 14.1186 25.83 14.45 25.3953 17.3027C25.1017 19.1966 23.3865 20.5815 21.871 21.6114C18.6052 23.9788 13.0133 24.9612 10.7695 28.4531C9.5007 30.4181 9.16002 33.1169 8.66662 35.3659C8.2907 37.106 7.98525 42.7167 5.22454 41.3554C5.16702 41.3257 5.10163 41.3151 5.03777 41.3252C4.97391 41.3354 4.91489 41.3656 4.86918 41.4117C4.82347 41.4577 4.79344 41.5172 4.78341 41.5815C4.77338 41.6459 4.78388 41.7118 4.81338 41.7697C7.80904 47.487 10.6285 32.5724 10.9457 31.5899C13.2952 24.3102 24.9489 25.6714 26.9225 17.9774C29.2368 9.25356 17.7124 13.7043 14.235 15.4561Z" fill="#E6D4A3"/>
<path opacity="0.68" d="M42.9113 24.3102C42.9113 23.3514 42.8173 22.4163 42.8056 21.4338C42.8036 21.2806 42.7669 21.1298 42.6983 20.9931C42.6298 20.8563 42.531 20.7371 42.4098 20.6446C42.2885 20.5522 42.1479 20.4888 41.9987 20.4594C41.8494 20.43 41.6955 20.4353 41.5486 20.475C39.6572 21.1615 38.4707 22.073 38.13 24.1682C38.0976 24.334 38.1229 24.5059 38.2017 24.6551C38.2806 24.8043 38.4081 24.9214 38.5628 24.9868C38.7174 25.0522 38.8897 25.0618 39.0506 25.014C39.2115 24.9662 39.351 24.864 39.4457 24.7245C39.8318 24.1114 40.3207 23.5707 40.8907 23.1265C40.9661 23.9138 40.9661 24.7066 40.8907 25.4939C40.7967 26.2159 41.5956 26.5355 42.1477 26.4527C44.7909 26.0739 56.8088 23.4816 53.7779 29.3646C52.0393 32.7618 47.9746 30.9271 45.5545 33.2945C45.0176 33.96 44.5965 34.7124 44.3093 35.5198C44.0978 35.9223 44.2153 36.6207 43.9216 36.9876C42.5824 38.7158 41.9597 37.3309 41.8305 35.8868C41.8308 35.7249 41.7779 35.5675 41.6802 35.4391C41.5825 35.3106 41.4453 35.2183 41.2901 35.1765C37.9068 34.6202 30.0828 33.9337 33.1725 28.678C33.3604 28.3703 32.9493 28.098 32.7026 28.3111C30.7877 29.9209 30.353 31.8622 32.3031 33.6851C33.5013 34.5888 34.8738 35.2299 36.3326 35.5671C37.2461 35.7361 38.1485 35.9615 39.0346 36.2419C40.5853 36.9521 40.3973 36.4076 40.4913 38.5501C40.4926 38.7222 40.5496 38.8892 40.6534 39.0258C40.7572 39.1625 40.9024 39.2614 41.0669 39.3076C42.4297 39.5681 43.8746 39.8877 45.0259 38.8697C46.7176 37.3782 45.8482 35.1765 48.5502 34.2651C50.606 33.5549 52.6736 34.1822 54.424 32.4659C55.6648 31.1006 56.3958 29.343 56.4916 27.4943C56.2684 21.7416 47.3519 23.5053 42.9113 24.3102Z" fill="#E6D4A3"/>
<path opacity="0.68" d="M29.1663 56.8264C29.0935 56.5925 28.9504 56.3872 28.7568 56.2388C28.5632 56.0903 28.3287 56.0061 28.0856 55.9978C26.4174 56.1872 24.7727 56.5541 23.1163 56.8382C23.7859 51.8903 21.7301 46.8833 15.7035 47.8658C12.5786 48.3629 6.18788 53.7843 10.9104 56.7435C10.9569 56.7679 11.0089 56.7798 11.0613 56.7781C11.1137 56.7764 11.1647 56.7611 11.2096 56.7338C11.2544 56.7064 11.2915 56.6679 11.3173 56.6219C11.3431 56.576 11.3567 56.5241 11.3568 56.4712C11.3568 54.8969 10.7225 53.5949 11.6623 52.1153C12.1615 51.4478 12.7934 50.8926 13.5175 50.485C14.2417 50.0773 15.0422 49.8263 15.868 49.7479C21.0135 49.0613 21.7418 53.9026 20.661 57.8799C20.6271 58.0452 20.6287 58.216 20.6657 58.3807C20.7027 58.5453 20.7742 58.7001 20.8754 58.8347C20.9767 58.9692 21.1053 59.0804 21.2527 59.1607C21.4001 59.241 21.5629 59.2886 21.7301 59.3003C23.5979 59.0872 25.4071 58.6611 27.2632 58.3889C27.5694 59.5351 27.5069 60.7496 27.0847 61.8577C26.6625 62.9659 25.9024 63.9105 24.9137 64.5559C24.6743 64.7181 24.5025 64.9633 24.431 65.2449C24.3595 65.5265 24.3933 65.8248 24.526 66.0829C26.6406 69.2197 21.5069 72.1197 19.0516 72.6051C18.1549 72.8487 17.2113 72.8569 16.3106 72.629C15.4099 72.4011 14.5821 71.9446 13.9061 71.303C11.8268 69.1368 12.5199 66.071 11.6858 63.4551C11.6382 63.3375 11.5569 63.2368 11.4523 63.166C11.3476 63.0951 11.2244 63.0573 11.0984 63.0573C10.9723 63.0573 10.8492 63.0951 10.7445 63.166C10.6399 63.2368 10.5586 63.3375 10.511 63.4551C9.97138 64.8299 9.80666 66.3251 10.0339 67.7857C10.2612 69.2463 10.8721 70.619 11.8034 71.7615C12.7347 72.904 13.9524 73.7746 15.3302 74.283C16.708 74.7914 18.1957 74.9191 19.639 74.6528C23.2925 73.8716 28.7552 70.0246 26.9343 65.7988C28.2091 64.7399 29.1137 63.2973 29.5154 61.6826C29.9171 60.0679 29.7948 58.3659 29.1663 56.8264Z" fill="#E6D4A3"/>
<path opacity="0.68" d="M43.4868 4.211C42.1945 2.49464 38.7172 1.05052 37.2605 3.33506C37.2281 3.39377 37.2114 3.45989 37.2118 3.52704C37.2122 3.59418 37.2298 3.66008 37.2629 3.71838C37.2959 3.77668 37.3433 3.82541 37.4005 3.85986C37.4577 3.89431 37.5228 3.91333 37.5894 3.91508C38.551 3.83219 39.5178 3.83219 40.4794 3.91508C41.3323 4.17846 42.0544 4.75798 42.5 5.53674C43.6747 7.46616 42.5 9.34825 40.5733 10.0585C38.6467 10.7687 34.9814 10.9107 34.0769 8.46047C33.2428 6.21144 35.8625 5.19347 37.6012 4.96857C37.8949 4.96857 38.0241 4.48325 37.6834 4.4004C35.6158 3.91508 33.2898 4.57795 32.7141 6.898C32.5325 7.91379 32.7327 8.96133 33.2756 9.83658C33.8185 10.7118 34.6653 11.3521 35.651 11.6328C38.1063 12.5206 41.7598 12.0707 43.5337 9.98743C44.1833 9.16461 44.533 8.14217 44.5244 7.09084C44.5159 6.03952 44.1496 5.02298 43.4868 4.211Z" fill="#E6D4A3"/>
<path opacity="0.68" d="M72.0925 31.7675C71.8106 31.5663 71.4699 31.9095 71.5404 32.1936C71.8458 33.3773 72.5859 34.4663 72.8561 35.6855C73.0558 36.5496 73.3847 40.6097 71.6813 40.4913C71.0587 40.4913 70.3303 39.0472 69.508 38.8815C66.0542 38.1476 60.9674 42.255 58.6061 37.8754C58.4064 37.5084 57.9365 37.7807 57.9835 38.1358C58.3712 40.6334 60.709 41.2016 62.9058 41.1305C64.4546 41.0077 65.9932 40.7784 67.5109 40.444C69.2261 40.1362 69.2965 40.3611 70.6005 41.3081C71.9045 42.255 72.9501 42.0775 73.7254 40.4321C75.0881 37.6623 74.5948 33.7087 72.0925 31.7675Z" fill="#E6D4A3"/>
<path opacity="0.68" d="M80.4921 37.4847C80.6566 33.5904 81.6669 29.3172 76.8386 27.7548C75.9575 27.4707 75.4758 28.749 76.2277 29.2225C77.0451 29.7313 77.7222 30.4394 78.1965 31.2814C78.6708 32.1234 78.9269 33.0721 78.9414 34.0402C78.9414 35.2239 78.1426 36.2892 78.1191 37.39C78.218 38.4218 78.4027 39.4434 78.6712 40.444C79.1999 44.291 77.285 47.9605 78.1073 51.8193C78.1073 52.1271 78.6007 52.0916 78.6947 51.8193C79.6467 48.8178 80.3039 45.7293 80.6566 42.5983C80.868 40.8109 80.4216 39.1419 80.4921 37.4847Z" fill="#E6D4A3"/>
<path opacity="0.68" d="M64.3742 11.4907C63.1994 10.816 61.9307 11.1475 60.6385 11.1948C59.5318 11.3308 58.4151 11.0389 57.5136 10.3781C57.0554 10.0466 56.703 9.50213 56.1743 9.25355C54.8351 8.60252 53.6603 9.44295 52.65 10.3662C52.5813 10.4418 52.5411 10.5394 52.5364 10.6418C52.5316 10.7442 52.5628 10.8451 52.6243 10.9267C52.6858 11.0084 52.7738 11.0658 52.8729 11.0888C52.9721 11.1119 53.0761 11.0991 53.1669 11.0528C55.5165 9.69153 55.6222 10.8989 57.1494 11.9761C57.8851 12.4701 58.7443 12.745 59.6282 12.7691C60.6267 12.8402 61.7075 12.485 62.6708 12.6508C64.2097 12.923 64.7384 14.6157 65.6899 15.681C65.7385 15.7339 65.8019 15.7705 65.8716 15.7863C65.9414 15.802 66.0142 15.7959 66.0805 15.769C66.1467 15.742 66.2033 15.6954 66.2426 15.6353C66.282 15.5752 66.3023 15.5044 66.3008 15.4325C66.3679 14.6608 66.2238 13.8853 65.8841 13.1904C65.5445 12.4954 65.0222 11.9076 64.3742 11.4907Z" fill="#E6D4A3"/>
<path opacity="0.68" d="M33.6541 83.6135C33.134 83.2285 32.513 83.0062 31.8684 82.9742C31.3972 82.9863 30.9298 82.8853 30.5049 82.6795C30.08 82.4737 29.7099 82.169 29.4249 81.7906C29.2867 81.6546 29.1012 81.5785 28.908 81.5785C28.7149 81.5785 28.5294 81.6546 28.3911 81.7906C27.5923 82.7375 26.4762 83.5424 25.6774 82.1338C25.4485 81.6901 25.3126 81.2036 25.2783 80.7047C25.2439 80.2058 25.3118 79.7051 25.4777 79.2338C25.5834 78.9615 25.1488 78.784 25.0195 79.0325C24.1972 80.5713 23.6098 82.3587 25.1018 83.7673C26.3705 84.951 27.839 84.371 28.9198 83.3649C29.5691 83.893 30.3404 84.247 31.162 84.394C31.9837 84.5409 32.8288 84.476 33.6189 84.2053C33.6841 84.1912 33.7429 84.1559 33.7863 84.1049C33.8298 84.0539 33.8555 83.9899 33.8595 83.9229C33.8635 83.8558 33.8456 83.7892 33.8085 83.7333C33.7714 83.6774 33.7172 83.6354 33.6541 83.6135Z" fill="#E6D4A3"/>
<path opacity="0.68" d="M4.30833 52.5177C4.32251 51.148 4.23612 49.779 4.04988 48.4221C4.04988 48.2801 3.42726 47.0135 3.42726 47.0017C3.42726 46.9898 3.42727 46.8715 3.33329 46.9307C2.33474 48.2446 2.46396 49.2981 2.5227 51.0736C2.64017 54.0328 2.34648 57.2762 3.0161 60.1762C3.03988 60.2456 3.08258 60.3069 3.13932 60.3529C3.19605 60.399 3.26451 60.428 3.33686 60.4367C3.40921 60.4453 3.48252 60.4332 3.54838 60.4018C3.61424 60.3704 3.66997 60.321 3.70921 60.2591C5.08369 58.1876 4.44931 54.8378 4.30833 52.5177Z" fill="#E6D4A3"/>
<path opacity="0.68" d="M58.0657 58.7676C56.0099 48.6115 40.8201 58.1995 45.2372 64.2837C45.2439 64.3018 45.2559 64.3174 45.2717 64.3285C45.2874 64.3395 45.3062 64.3454 45.3254 64.3454C45.3445 64.3454 45.3633 64.3395 45.379 64.3285C45.3948 64.3174 45.4068 64.3018 45.4135 64.2837C45.4722 60.4011 49.067 54.5655 53.9423 55.6663C57.0789 56.3766 56.6208 60.0697 57.1494 62.3779C57.8543 65.5265 59.7691 69.1368 58.0187 72.2973C56.468 75.079 52.0509 77.4464 49.0082 76.8545C48.4326 76.748 48.0332 77.5292 48.5971 77.8488C52.0039 79.7901 56.8205 76.5231 58.8881 73.8243C62.1422 69.4919 58.9938 63.3959 58.0657 58.7676Z" fill="#E6D4A3"/>
</svg>
