<svg width="168" height="82" viewBox="0 0 168 82" fill="none" xmlns="http://www.w3.org/2000/svg">
<g clip-path="url(#clip0_1_3715)">
<path d="M99.2927 79.1093C119.824 70.7313 129.487 46.8875 120.877 25.8526C112.266 4.81771 88.6425 -5.44271 68.1115 2.9353C47.5806 11.3133 37.917 35.1572 46.5275 56.192C55.1379 77.2269 78.7617 87.4873 99.2927 79.1093Z" fill="#31ADE0"/>
<g style="mix-blend-mode:screen" opacity="0.76">
<path d="M61.8774 75.0288C65.3066 77.343 69.0683 79.123 73.0336 80.3077C74.963 80.1995 76.8846 79.9802 78.7887 79.651C82.0142 79.0827 97.5341 74.4479 96.6361 70.1414C95.3794 70.6228 94.0848 70.9988 92.7656 71.2654C99.6212 66.0496 114.559 62.7913 117.342 53.5848C116.156 53.8564 114.957 54.0671 113.75 54.2162C116.52 50.9327 120.479 48.028 123.869 44.7697C124.002 42.8988 124.002 41.0208 123.869 39.1499C115.445 47.6239 105.541 55.3402 94.7767 59.5078C97.9389 55.9338 113.838 49.0257 111.511 42.5471C101.392 46.8914 93.6004 56.7673 84.5312 62.9555C78.8351 67.0559 72.7417 70.5759 66.3424 73.4628C64.8906 74.0832 63.399 74.6064 61.8774 75.0288Z" fill="#60BFEE"/>
</g>
<g style="mix-blend-mode:multiply" opacity="0.76">
<path d="M44.3211 31.8124C42.7295 39.4577 43.3211 47.3956 46.0286 54.7214C49.9371 50.4149 52.8716 43.7721 57.1721 40.3243C59.2718 38.6321 76.8029 28.9583 75.538 25.9273C73.8178 21.8987 61.7889 31.1557 59.0947 29.6528C65.57 23.8453 73.1313 19.3731 81.3438 16.4935C85.3911 15.1055 89.5339 14.0123 93.7395 13.2226C96.8384 12.6669 100.608 13.2226 103.416 11.4924C104.941 10.7113 106.207 9.50479 107.059 8.01943C104.74 6.29925 102.247 4.82624 99.6211 3.62453H99.5453C90.122 4.49593 80.1675 9.6233 71.794 13.5762C60.7644 18.7667 51.164 24.4624 44.3211 31.8124Z" fill="#60BFEE"/>
</g>
<g style="mix-blend-mode:multiply" opacity="0.76">
<path d="M62.6996 60.8212C71.2248 59.1542 81.3059 53.9889 88.1488 48.7353C92.2723 45.5528 100.013 40.539 101.063 35.2222C97.7618 36.9019 89.8437 44.3151 86.6057 42.446C89.4643 37.9627 95.5736 35.2222 99.9374 32.3428C101.746 31.1557 110.474 27.8343 110.056 24.7654C109.335 20.1306 88.7812 32.1281 87.0484 33.0879C75.5886 39.4782 62.0292 46.5631 62.6996 60.8212Z" fill="#60BFEE"/>
</g>
<g style="mix-blend-mode:multiply" opacity="0.76">
<path d="M56.5903 64.7867C57.8551 63.5238 63.7241 55.176 59.8157 53.9763C56.2488 52.8776 47.6603 66.0496 54.5412 66.9083L56.5903 64.7867Z" fill="#60BFEE"/>
</g>
<g style="mix-blend-mode:multiply" opacity="0.76">
<path d="M110.094 33.8457C113.155 33.6183 121.099 30.3348 121.288 26.5209C117.494 24.8665 111.46 29.5897 109.272 32.406L110.094 33.8457Z" fill="#60BFEE"/>
</g>
<g style="mix-blend-mode:screen" opacity="0.76">
<path d="M59.2844 30.5747C62.3834 30.8778 65.027 29.0087 67.6705 27.6827C68.4927 27.2659 74.6273 24.1466 74.8044 26.2051C74.8044 26.4072 75.1333 26.5208 75.2218 26.3061C76.0819 24.0329 72.6921 24.8917 71.6802 25.2201C67.367 26.6219 63.7621 29.3876 59.2844 30.36C59.1833 30.3853 59.1833 30.5621 59.2844 30.5747Z" fill="#60BFEE"/>
</g>
<g style="mix-blend-mode:screen" opacity="0.76">
<path d="M57.1342 21.0399C54.0353 23.3889 50.5569 25.4979 47.9386 28.4152C47.9386 28.4152 47.9386 28.5162 48.0145 28.4783C50.8731 25.5989 54.7183 23.5404 57.9943 21.1536C61.3477 18.7275 64.8876 16.5697 68.5813 14.7001C77.0812 10.4315 85.8973 7.57739 94.7641 4.31912C94.8145 4.29575 94.8547 4.25476 94.8769 4.20388C94.8992 4.153 94.902 4.09574 94.8849 4.04291C94.8678 3.99009 94.8319 3.94534 94.784 3.91712C94.7361 3.8889 94.6795 3.87915 94.6249 3.88972C85.5052 5.59463 76.4488 9.96428 68.2145 14.1318C64.3212 16.0983 60.6128 18.4103 57.1342 21.0399Z" fill="#60BFEE"/>
</g>
<g style="mix-blend-mode:screen" opacity="0.76">
<path d="M55.2749 56.401C54.4417 57.4015 53.7008 58.4751 53.0613 59.6088C52.2139 61.1748 52.4416 62.8418 51.7206 64.4078C52.0369 63.9658 52.2567 63.4624 52.3657 62.9302C52.6879 61.3326 53.3382 59.819 54.2756 58.4848C55.5405 56.6662 57.324 53.6479 59.9422 54.3425C60.2332 54.4183 60.309 53.9636 60.0308 53.8752C57.9817 53.2059 56.4638 54.8856 55.2749 56.401Z" fill="#60BFEE"/>
</g>
<g style="mix-blend-mode:screen" opacity="0.76">
<path d="M69.8588 44.3782C64.8879 48.6721 62.902 54.2541 62.8641 60.8969C63.4206 57.6134 63.7748 54.2288 65.2294 51.2105C66.7909 48.2896 69.0232 45.7794 71.7434 43.8857C76.5351 40.2693 81.559 36.9702 86.7828 34.0098C88.2374 33.1637 107.995 20.8378 109.892 24.3487C109.949 24.4388 110.038 24.505 110.14 24.5352C110.243 24.5653 110.353 24.5573 110.45 24.5127C110.548 24.468 110.625 24.3896 110.669 24.2922C110.713 24.1947 110.72 24.0846 110.689 23.9824C108.842 19.3602 92.3988 29.7034 90.1979 30.941C83.1526 34.8434 75.9428 39.0614 69.8588 44.3782Z" fill="#60BFEE"/>
</g>
<g style="mix-blend-mode:screen" opacity="0.76">
<path d="M109.335 32.747C108.589 31.2315 117.051 27.3796 118.05 26.4325C118.316 26.1925 117.949 25.8642 117.683 25.9904C116.722 26.4956 107.83 31.7745 109.335 32.747Z" fill="#60BFEE"/>
</g>
<g style="mix-blend-mode:screen" opacity="0.76">
<path d="M86.7448 42.5723C92.3481 45.4012 96.8637 37.2555 101.177 35.4875C101.493 35.3612 101.455 34.7929 101.063 34.8434C99.1152 35.0833 97.7618 36.6746 96.421 37.9754C93.8913 40.3875 90.4761 43.1406 86.8333 42.3071C86.7981 42.2954 86.7596 42.2981 86.7264 42.3147C86.6932 42.3313 86.668 42.3604 86.6562 42.3955C86.6445 42.4307 86.6472 42.469 86.6638 42.5022C86.6804 42.5354 86.7095 42.5606 86.7448 42.5723Z" fill="#60BFEE"/>
</g>
<g style="mix-blend-mode:screen" opacity="0.76">
<path d="M99.6464 50.1497C95.6368 53.4206 92.0572 57.1335 87.959 60.2529C84.1644 63.0692 80.3066 65.7592 76.2969 68.285C72.8186 70.4698 69.1251 74.1574 64.9131 74.5994C64.9131 74.5994 64.8499 74.6878 64.9131 74.7005C67.8223 74.9909 70.2003 73.2481 72.5023 71.72C76.7396 68.9164 81.1161 66.378 85.2522 63.4228C89.3795 60.5816 93.3018 57.4546 96.9902 54.0647C101.548 50.0184 106.473 46.4035 111.701 43.2669C112.282 42.9007 111.701 42.004 111.119 42.345C107.158 44.74 103.328 47.3453 99.6464 50.1497Z" fill="#60BFEE"/>
</g>
<g style="mix-blend-mode:screen" opacity="0.76">
<path d="M122.895 38.8846C119.273 43.5491 115.05 47.715 110.335 51.2737C105.756 54.5572 100.76 56.641 95.8013 59.2173V59.2931C107.046 57.6892 116.798 47.927 123.628 39.6171C124.122 39.0615 123.337 38.3542 122.895 38.8846Z" fill="#60BFEE"/>
</g>
<g style="mix-blend-mode:screen" opacity="0.76">
<path d="M92.7909 71.6695C93.3221 72.0231 94.0557 71.5937 94.5743 71.3285C95.0929 71.0633 96.8384 69.9267 96.8258 70.6466H96.889C97.0661 70.4445 97.1294 70.4192 97.1547 70.154C97.1604 70.1279 97.1601 70.1007 97.1538 70.0747C97.1476 70.0487 97.1354 70.0244 97.1184 70.0037C97.1013 69.983 97.0798 69.9665 97.0554 69.9553C97.031 69.9442 97.0044 69.9387 96.9776 69.9393C96.2508 69.9464 95.5391 70.147 94.9158 70.5203C94.5375 70.7451 94.1395 70.9352 93.7269 71.0885C93.3999 71.1459 93.0784 71.2304 92.7656 71.3411C92.6517 71.4295 92.6897 71.6064 92.7909 71.6695Z" fill="#60BFEE"/>
</g>
<g style="mix-blend-mode:screen" opacity="0.76">
<path d="M114.142 54.3425C114.13 54.3671 114.123 54.394 114.122 54.4215C114.121 54.4489 114.127 54.4762 114.137 54.5014C114.148 54.5266 114.164 54.5492 114.185 54.5675C114.205 54.5859 114.229 54.5996 114.256 54.6077C114.698 54.7214 115.179 54.3047 115.521 54.1152C115.862 53.9258 116.596 53.6479 117.013 53.9005C117.013 53.9005 116.785 53.5848 116.52 53.4964C116.243 53.4146 115.949 53.4146 115.672 53.4964C115.255 53.6353 114.407 53.9005 114.142 54.3425Z" fill="#60BFEE"/>
</g>
<g style="mix-blend-mode:screen" opacity="0.76">
<path d="M111.726 53.4585C108.867 55.4918 105.528 56.6537 103.239 59.432C103.191 59.488 103.159 59.5551 103.145 59.627C103.131 59.6989 103.136 59.7731 103.158 59.8428C103.181 59.9124 103.222 59.975 103.275 60.0247C103.329 60.0744 103.395 60.1094 103.466 60.1266C104.326 60.3505 105.235 60.2929 106.059 59.9624C106.667 59.773 107.223 59.3436 107.83 59.1794C108.014 59.0007 108.248 58.882 108.501 58.8391C108.754 58.7963 109.014 58.8313 109.247 58.9395C110.145 58.9395 110.132 59.1795 109.247 59.7478C108.222 61.7305 104.314 62.8924 102.429 63.5364C100.545 64.1805 98.2425 64.6857 96.1049 65.2666C87.1369 67.7293 80.2434 74.4732 71.2755 77.0747C71.2755 77.0747 71.2755 77.1884 71.2755 77.1757C80.2434 75.2182 87.0231 68.7522 95.7127 66.2769C99.0647 65.3297 102.568 64.7236 105.718 63.1702C107.463 62.3114 110.777 60.6444 111.144 58.3712C111.16 58.2726 111.146 58.1715 111.103 58.0813C111.06 57.991 110.99 57.916 110.904 57.866C109.728 57.2977 108.589 57.866 107.501 58.3586L105.756 59.1542C104.238 59.4825 104.074 59.2805 105.288 58.5354C106.123 57.3861 107.982 56.6663 109.171 56.0096C114.23 53.0544 117.709 48.6343 121.971 44.6435C122.212 44.4162 121.858 43.9994 121.592 44.1888C117.962 46.8409 115.419 50.819 111.726 53.4585Z" fill="#60BFEE"/>
</g>
<g style="mix-blend-mode:screen" opacity="0.76">
<path d="M101.556 51.2989C101.535 51.3453 101.526 51.3962 101.53 51.4471C101.533 51.498 101.55 51.547 101.578 51.5899C101.605 51.6327 101.643 51.6678 101.688 51.692C101.733 51.7162 101.784 51.7287 101.835 51.7283C103.833 51.5641 105.098 49.9223 106.236 48.4069C106.451 48.1164 106.034 47.7375 105.819 48.028C105.176 49.0969 104.314 50.0179 103.289 50.7306C100.76 51.8293 103.871 49.0257 104.314 48.6216C105.161 47.8638 109.234 44.6182 109.563 46.0958C110.195 49.0762 102.454 52.7512 100.456 53.8626C98.4575 54.9739 86.6436 60.758 89.439 62.7029C90.7038 63.5995 94.4225 61.8062 95.7633 61.3263C96.3325 61.1243 100.722 59.3814 100.658 60.2781C100.57 61.541 96.8637 61.7936 95.7759 62.0841C91.2983 63.2459 87.1622 65.7591 83.2032 68.0955C78.3714 70.9496 73.7293 75.5592 67.9235 76.077C72.3379 76.2159 75.7151 73.4375 79.3074 71.2275C84.2024 68.1965 89.6666 64.7235 95.2068 63.0691C95.9151 62.8544 105.212 60.6949 101.063 59.0531C99.2038 58.308 95.9277 60.4549 94.2202 61.0359C91.9687 61.7936 88.0982 62.9302 92.0952 59.773C94.0822 58.3656 96.166 57.0996 98.331 55.9843C102.189 53.7616 110.803 50.6548 110.461 44.9339C110.457 44.8744 110.441 44.8164 110.412 44.7641C110.383 44.7119 110.343 44.6666 110.295 44.6316C110.246 44.5966 110.191 44.5727 110.132 44.5616C110.073 44.5506 110.013 44.5526 109.955 44.5676C106.73 45.3759 102.657 48.1164 101.556 51.2989Z" fill="#60BFEE"/>
</g>
<g style="mix-blend-mode:screen" opacity="0.76">
<path d="M74.0961 78.426C74.0825 78.4319 74.071 78.4416 74.0629 78.454C74.0548 78.4663 74.0505 78.4807 74.0505 78.4955C74.0505 78.5102 74.0548 78.5247 74.0629 78.537C74.071 78.5493 74.0825 78.559 74.0961 78.5649C77.2962 79.2848 80.4204 78.2492 83.5194 77.5925C85.9353 77.0874 91.273 76.2033 92.4873 73.4249C93.8534 70.2803 87.9338 71.5053 86.5551 71.96C85.404 72.3388 78.9658 74.4858 81.0276 76.6579C82.8363 78.5018 88.5409 75.0793 89.5781 73.5007C89.7046 73.3113 89.5781 73.1092 89.3757 73.0461C88.6472 72.8726 87.8865 72.8871 87.1651 73.0882C86.4437 73.2892 85.7855 73.6702 85.2522 74.1953C85.1986 74.2305 85.1611 74.2855 85.148 74.3482C85.135 74.411 85.1474 74.4764 85.1827 74.53C85.2179 74.5835 85.273 74.621 85.3359 74.634C85.3987 74.647 85.4642 74.6346 85.5179 74.5994C86.6563 73.9175 89.6034 73.2481 87.1875 74.6752C86.2515 75.2183 84.4933 76.3548 83.317 76.2664C82.1407 76.178 81.2173 76.1907 82.343 74.5742C82.596 74.2079 83.317 73.9932 83.7091 73.7912C84.8162 73.2425 85.967 72.7863 87.1496 72.4273C88.0856 72.1494 89.8184 71.5306 90.7544 71.9852C93.9293 73.5133 87.2507 76.1023 85.695 76.5317C82.0648 77.4789 77.8148 78.7291 74.0961 78.426Z" fill="#60BFEE"/>
</g>
<g style="mix-blend-mode:screen" opacity="0.76">
<path d="M84.5186 16.9228C84.4809 16.9702 84.4555 17.0262 84.4448 17.0858C84.434 17.1454 84.4382 17.2067 84.457 17.2642C84.4758 17.3218 84.5086 17.3738 84.5525 17.4156C84.5963 17.4574 84.6499 17.4877 84.7083 17.5038C87.1116 17.9458 84.1138 19.0445 83.3423 19.3729C81.84 19.8065 80.3158 20.1606 78.7761 20.4337C76.4148 21.1005 74.1828 22.1593 72.1735 23.5657C72.1414 23.593 72.1157 23.6268 72.0981 23.665C72.0805 23.7031 72.0713 23.7447 72.0713 23.7867C72.0713 23.8287 72.0805 23.8703 72.0981 23.9084C72.1157 23.9466 72.1414 23.9804 72.1735 24.0077C74.1467 25.6368 77.2329 23.5531 79.0797 24.7907C83.4182 27.6701 66.2159 38.2153 64.2807 39.6298C60.8149 42.1556 46.5725 51.1095 49.6841 57.4114C47.2682 51.2484 60.8908 42.7239 64.521 40.0844C69.3528 36.5862 77.7515 33.0501 80.256 27.1018C81.1667 24.9549 80.0536 24.3234 77.9539 24.2098C76.98 24.1466 75.9554 24.3739 74.9941 24.2098C71.5916 23.7299 75.323 22.328 77.1318 21.684C80.509 20.4968 84.2656 20.4211 87.2507 18.4257C87.2935 18.3889 87.3278 18.3434 87.3514 18.2922C87.3749 18.241 87.3871 18.1853 87.3871 18.1289C87.3871 18.0725 87.3749 18.0169 87.3514 17.9656C87.3278 17.9144 87.2935 17.8689 87.2507 17.8321C87.6681 18.2742 85.8467 16.2661 85.6823 16.7713C85.8594 15.5968 89.4769 15.2558 90.1093 15.1927C92.3322 15.0222 94.5649 15.0222 96.7878 15.1927C100.684 15.3569 105.111 15.1927 106.338 10.7978C106.439 10.4189 105.857 10.2926 105.743 10.6589C103.137 19.095 89.2872 10.8357 84.5186 16.9228Z" fill="#60BFEE"/>
</g>
<g style="mix-blend-mode:screen" opacity="0.76">
<path d="M72.5023 4.73588C71.5284 6.57971 72.7047 7.7163 70.4406 9.44647C69.0239 10.5326 66.646 10.5957 65.027 11.0125C62.0166 11.7702 59.12 12.5532 57.4377 15.2937C57.3978 15.3794 57.3926 15.4772 57.4233 15.5667C57.4539 15.6561 57.518 15.7303 57.6022 15.7736C59.2465 16.885 60.7011 15.6852 62.3328 15.1422C64.7613 14.3213 62.8261 15.319 61.6118 15.8747C60.3975 16.4303 59.0821 16.9355 57.8172 17.4785C55.5151 18.4383 50.228 20.0927 50.7972 23.4899C50.8007 23.5462 50.8169 23.601 50.8444 23.6503C50.8719 23.6996 50.91 23.7421 50.9561 23.7748C51.0022 23.8075 51.055 23.8295 51.1106 23.8392C51.1663 23.8489 51.2234 23.8461 51.2778 23.8309C52.6439 23.452 52.7071 23.3763 51.4929 24.1593C50.6744 24.628 49.8297 25.0496 48.9631 25.4222C47.6721 25.9453 46.539 26.7938 45.6745 27.8848C45.4594 28.1753 45.8389 28.5415 46.0919 28.2763C48.3813 25.9399 51.7964 25.4853 53.9467 22.9847C53.9977 22.9227 54.0277 22.8461 54.0323 22.7659C54.0368 22.6858 54.0158 22.6063 53.9722 22.5388C53.9286 22.4714 53.8646 22.4195 53.7895 22.3907C53.7145 22.3619 53.6322 22.3577 53.5546 22.3786C50.0003 23.3889 52.9348 20.7115 54.3009 19.8528C55.8877 18.9995 57.5317 18.2568 59.2212 17.6301C61.1185 16.8471 63.4838 16.1777 64.9511 14.6622C64.9938 14.6116 65.023 14.5509 65.0359 14.486C65.0487 14.421 65.0449 14.3538 65.0247 14.2907C65.0044 14.2276 64.9685 14.1707 64.9202 14.1252C64.872 14.0798 64.8129 14.0473 64.7487 14.0308C63.9979 13.8698 63.2166 13.9268 62.4972 14.195C61.7735 14.5901 61.0157 14.9198 60.2331 15.18L61.498 12.7805C62.0672 12.5532 62.6364 12.3638 63.2308 12.187C65.7606 11.3913 69.7576 11.3914 71.6802 9.28232C72.1765 8.58695 72.533 7.80208 72.73 6.9712C73.6154 4.90004 71.6675 6.15031 75.4242 4.4454C77.8654 3.29616 77.7389 3.18251 79.8133 3.78871C83.7597 4.88743 85.7582 4.15494 89.5148 2.60158C86.9851 3.25829 84.5945 4.49591 81.9256 3.92761C80.2939 3.58662 78.7634 2.66471 77.0685 2.66471C76.1887 2.5371 75.2907 2.66445 74.4812 3.03161C73.6717 3.39877 72.9849 3.99031 72.5023 4.73588Z" fill="#60BFEE"/>
</g>
<g style="mix-blend-mode:screen" opacity="0.76">
<path d="M114.319 20.3832C115.963 23.894 113.408 25.8389 110.841 27.8469C109.247 29.1098 107.248 29.9307 105.781 31.2189C103.896 32.8101 105.326 34.7423 104.453 37.0787C102.594 41.9787 97.863 43.3932 94.6122 46.702C93.5498 47.8007 93.7268 47.9649 93.7142 49.2278C93.801 49.3205 93.9097 49.39 94.0304 49.4298C94.8526 49.7203 94.8779 50.5917 94.0304 52.044C93.5498 53.1049 91.3868 54.2794 90.337 54.8603C87.2001 56.6157 84.0126 56.742 80.6101 57.5124C76.4361 58.4343 74.1467 61.7052 71.1616 64.5215C69.8967 65.7844 60.5746 73.6017 59.4362 68.3102C60.0434 73.6396 68.8468 67.0473 70.3647 65.7844C73.2992 63.2586 75.6898 59.5835 79.4718 58.308C82.3177 57.3608 85.3914 57.5882 88.2247 56.4768C90.4382 55.6181 95.3585 53.3953 95.3965 50.3139C95.3965 49.1268 94.4225 49.5056 94.4605 48.3564C94.4605 46.3357 97.7744 45.2496 99.2796 44.0625C102.1 41.8146 105.25 38.1269 105.92 34.4013C105.92 34.1109 105.553 33.833 105.579 33.6184C105.781 31.3451 106.325 31.5598 107.881 30.5874C109.911 29.3377 111.809 27.8864 113.547 26.2556C114.37 25.4853 116.507 23.7299 116.457 22.3659C116.457 20.6736 112.067 19.095 115.28 16.9481C115.334 16.9115 115.372 16.8556 115.385 16.7919C115.399 16.7283 115.388 16.6618 115.353 16.6064C115.319 16.551 115.265 16.511 115.202 16.4946C115.138 16.4783 115.071 16.4869 115.015 16.5187C112.902 17.7437 113.434 18.5267 114.319 20.3832Z" fill="#60BFEE"/>
</g>
<g style="mix-blend-mode:screen" opacity="0.76">
<path d="M107.64 38.67C106.262 39.7055 105.3 41.3094 103.96 42.4587C102.809 43.3932 101.43 44.0878 100.329 44.9844C99.6844 45.477 98.3942 46.2473 98.2804 47.1566C98.1159 48.5585 98.8243 48.71 99.9879 48.4195C101.43 48.1038 103.479 45.8937 104.554 45.0223C107.021 43.0396 109.285 40.8421 112.245 39.6171C112.261 39.6106 112.275 39.5992 112.285 39.5846C112.295 39.57 112.3 39.5527 112.3 39.535C112.3 39.5174 112.295 39.5001 112.285 39.4855C112.275 39.4708 112.261 39.4595 112.245 39.4529C108.45 40.3622 105.44 43.2416 102.404 45.6917C101.531 46.3863 98.7484 48.4953 100.203 45.8685C100.899 44.6056 103.239 43.7342 104.339 42.8123C106.616 40.9053 108.134 38.5437 111.144 37.6723C112.906 37.3593 114.646 36.9376 116.355 36.4094C118.417 35.5253 120.669 34.0983 120.947 31.6609C119.631 37.7986 111.359 35.8284 107.64 38.67Z" fill="#60BFEE"/>
</g>
<g style="mix-blend-mode:screen" opacity="0.76">
<path d="M97.61 17.2259C95.7886 17.2259 94.3467 17.1123 93.4107 18.8424C93.3854 18.8978 93.3744 18.9587 93.3786 19.0194C93.3829 19.0801 93.4022 19.1388 93.4348 19.1902C93.4674 19.2416 93.5124 19.284 93.5656 19.3137C93.6188 19.3434 93.6786 19.3594 93.7395 19.3602C94.8092 19.3836 95.8791 19.3245 96.9397 19.1835C97.2938 19.1835 98.8243 18.8677 99.052 19.0698L97.61 21.8229H96.6234C94.4985 22.3533 91.8043 21.3809 89.5781 21.7219C83.5953 22.6311 89.5781 25.1822 87.7314 28.4531C86.8966 29.8928 84.0127 31.1052 82.5834 31.8629C80.3446 33.0501 78.0046 34.0099 75.7151 35.0581C72.5176 36.5188 69.5584 38.4516 66.9369 40.7916C63.6427 43.8871 60.5102 47.1497 57.5516 50.5664C56.9318 51.2358 54.6045 54.532 53.757 54.4436L52.4921 52.6755L53.757 51.5389C54.5727 50.931 55.4554 50.4183 56.3879 50.0108C54.2376 50.8822 51.1134 52.5366 51.2273 55.2644C51.2272 55.2821 51.2308 55.2997 51.2379 55.3159C51.2451 55.3321 51.2555 55.3466 51.2687 55.3586C51.2818 55.3705 51.2973 55.3795 51.3141 55.385C51.3309 55.3906 51.3488 55.3925 51.3664 55.3907C55.0092 55.7065 58.3105 50.4907 60.4482 48.2175C63.0922 45.2405 65.9408 42.4512 68.9734 39.8697C72.0592 37.6227 75.4112 35.7648 78.9532 34.3382C81.6221 33.0753 88.6421 30.739 89.401 27.1902C89.7299 25.7 88.9204 26.1167 88.5409 24.9928C87.2761 21.4061 91.526 22.2649 93.5245 22.3786C95.2447 22.467 101.114 23.2879 101.316 20.0296C101.43 18.0468 99.0899 18.3373 97.6986 18.4005C96.7469 18.5717 95.7816 18.6562 94.8147 18.653C92.3861 18.2741 97.3444 18.0089 98.0148 17.971C100.159 18.071 102.303 17.7756 104.339 17.0996C106.135 16.3672 110.044 14.1445 109.399 11.4924C109.367 11.4026 109.302 11.328 109.218 11.2835C109.134 11.239 109.035 11.228 108.943 11.2525C108.298 11.3661 108.526 11.3408 107.843 11.9344C107.527 12.1996 107.843 12.7426 108.197 12.4901C108.551 12.2375 107.754 13.9803 107.678 14.1066C106.844 15.3695 104.504 16.3293 103.062 16.7966C101.285 17.268 99.4383 17.4135 97.61 17.2259Z" fill="#60BFEE"/>
</g>
<g style="mix-blend-mode:screen" opacity="0.76">
<path d="M87.5163 37.306C83.6585 39.5666 79.3832 40.8169 75.6772 43.368C75.4495 43.5321 75.4875 43.9742 75.791 44.0121C76.8799 44.0587 77.9699 43.9525 79.0291 43.6963C81.0529 43.3932 82.8237 43.9236 81.1161 46.3231C80.3192 47.4471 78.3461 47.8513 77.0938 48.2554C74.9436 48.9626 69.669 49.7077 68.9987 52.5871C68.6065 54.2794 69.7955 54.3173 71.2375 54.2541C75.7404 54.0521 78.9405 50.7686 82.4948 48.4574C80.0916 49.9224 77.9033 51.9809 75.2471 52.9786C74.2605 53.3448 72.1988 54.1405 71.2375 53.8374C66.5069 52.3093 76.8788 49.152 78.2828 48.6595C79.6868 48.167 85.7961 44.7067 82.4316 42.8249C81.4197 42.2566 77.2583 43.9237 76.8535 43.3806C76.942 43.5069 87.1495 38.4553 88.5789 37.5839C92.462 35.1844 95.4471 31.623 99.3935 29.3119C100.665 28.5006 101.988 27.7709 103.353 27.1271C105.212 26.3315 106.325 26.6598 104.44 28.39C103.542 29.2361 101.594 29.5518 100.431 29.8549C100.064 29.956 100.254 30.499 100.608 30.4233C103.251 29.9434 105.794 29.1604 107.071 26.5588C107.116 26.4646 107.122 26.3569 107.089 26.2581C107.056 26.1592 106.986 26.0769 106.894 26.0284C103.669 24.576 98.4195 28.7815 96.1048 30.5496C93.183 32.747 90.6912 35.4622 87.5163 37.306Z" fill="#60BFEE"/>
</g>
<g style="mix-blend-mode:screen" opacity="0.76">
<path d="M52.9475 28.4026C53.0487 29.173 54.2124 29.1351 54.4147 29.6655C55.0472 31.4209 48.8873 34.6413 47.8627 35.8411C47.8375 35.8658 47.8174 35.8952 47.8037 35.9278C47.7901 35.9603 47.783 35.9952 47.783 36.0305C47.783 36.0658 47.7901 36.1007 47.8037 36.1333C47.8174 36.1658 47.8375 36.1952 47.8627 36.2199C50.6328 38.1774 53.6305 37.0156 56.3753 35.6264C58.437 34.5908 60.4482 33.391 62.4593 32.2418C63.2182 31.8124 69.2517 27.6575 69.4793 30.398C69.5932 31.7367 59.4869 36.9271 58.2726 37.7101C55.7095 39.1469 53.3807 40.9653 51.3664 43.1027C49.4438 45.4517 48.3434 48.4322 46.7496 51.0085C46.7496 51.0842 46.8255 51.1726 46.8761 51.0969C48.6849 48.6847 49.7474 45.7169 51.7079 43.4185C54.2377 40.4507 57.8552 38.6573 61.0427 36.523C63.5724 34.856 68.518 33.2016 69.9979 30.5116C70.6557 29.3119 70.4406 28.7309 69.1378 28.5668C68.1512 28.4279 66.8231 29.3372 65.9504 29.7665C63.4206 31.0294 60.8909 32.5323 58.475 33.9088C56.6409 34.9192 54.0859 36.8387 51.8724 36.6746C50.3672 36.5609 49.6335 35.4117 50.6075 34.1488C50.9237 33.732 51.8724 33.4542 52.2898 33.1763C53.1119 32.6712 54.5412 32.0776 54.9839 31.1052C55.8187 29.2614 53.3396 28.9709 54.2124 27.3165C54.693 26.3946 57.3872 25.4095 58.2979 24.8538C59.7904 23.9446 61.2703 23.01 62.7502 22.0881C65.8998 20.1306 69.0746 18.4131 72.3379 16.5945C78.5484 13.0836 84.1012 9.92639 91.0454 8.00679C93.6516 7.12551 96.4464 6.95545 99.1405 7.51424C102.214 8.22146 99.52 10.0401 97.8757 10.2674C96.3149 10.3042 94.7556 10.1472 93.2336 9.80008C87.8326 9.21915 82.7352 11.4798 78.3461 14.3971C78.3051 14.4274 78.2772 14.4721 78.2678 14.5221C78.2584 14.5722 78.2683 14.6239 78.2954 14.667C78.3226 14.71 78.3651 14.7413 78.4143 14.7545C78.4636 14.7677 78.516 14.7618 78.5611 14.738C84.0759 11.4924 89.0469 9.98954 95.4218 10.6968C97.0282 10.8862 100.937 11.6944 101.999 9.81272C104.529 5.30418 92.2849 6.90806 90.843 7.28693C79.3706 10.5073 69.3402 17.3017 59.2971 23.5783C58.1335 24.3739 52.6566 26.4325 52.9475 28.4026Z" fill="#60BFEE"/>
</g>
<g style="mix-blend-mode:screen" opacity="0.76">
<path d="M53.4028 62.1599C53.3951 62.1953 53.3956 62.232 53.4042 62.2672C53.4128 62.3025 53.4293 62.3353 53.4525 62.3632C53.4756 62.3912 53.5048 62.4136 53.5378 62.4286C53.5708 62.4437 53.6068 62.4511 53.6431 62.4503C55.7934 62.5261 58.0069 58.2828 58.2852 56.4768C58.2852 56.3126 58.1587 56.1611 58.0069 56.2116C57.8215 56.2722 57.6399 56.3439 57.463 56.4263C58.0449 55.7696 58.9935 54.8856 59.4742 55.8454C59.9548 56.8052 58.8797 58.1312 58.5129 58.7879C58.1461 59.4446 54.9839 64.6225 53.6178 63.9153C53.6178 63.9153 53.5293 63.991 53.6178 63.991C55.3887 64.2184 57.1089 61.541 57.9816 60.3413C58.8544 59.1415 60.815 56.8178 59.7778 55.3655C58.0322 52.9533 53.7064 60.7959 53.4028 62.1599ZM57.7666 56.843C57.6791 57.2088 57.5339 57.5584 57.3365 57.8786C57.0004 58.5524 56.6113 59.1985 56.1729 59.8109C55.8586 60.2566 55.5119 60.6787 55.1357 61.0737C54.8632 61.3731 54.5425 61.6249 54.187 61.8189C53.8582 61.9704 53.9847 62.1346 53.9341 61.983C53.7949 61.5284 54.8954 60.0256 55.0977 59.672C55.5399 58.9203 56.0256 58.195 56.5523 57.4998C56.5735 57.512 56.5975 57.5184 56.6219 57.5184C56.6463 57.5184 56.6703 57.512 56.6915 57.4998L57.8298 56.6157L57.7666 56.843Z" fill="#60BFEE"/>
</g>
<g style="mix-blend-mode:screen" opacity="0.76">
<path d="M122.882 46.6388C121.516 48.4195 119.593 49.5561 118.189 51.3116C118.156 51.3525 118.133 51.4012 118.124 51.4531C118.114 51.5051 118.117 51.5587 118.134 51.609C118.15 51.6592 118.179 51.7046 118.217 51.7409C118.256 51.7772 118.303 51.8033 118.354 51.8167C119.075 52.0062 119.48 51.6778 120.099 51.8167C121.086 51.9935 120.681 50.3896 120.896 52.3092C121.035 53.4711 120.163 54.393 119.518 55.2518C118.056 56.8631 116.68 58.5493 115.394 60.3034C115.354 60.391 115.348 60.4907 115.379 60.5822C115.409 60.6737 115.473 60.7502 115.559 60.7959C117.14 61.68 110.765 65.8475 110.018 66.1885C106.616 68.0197 102.745 68.487 99.4947 70.6592C99.4577 70.6887 99.4279 70.7263 99.4074 70.7689C99.387 70.8115 99.3763 70.8582 99.3763 70.9054C99.3763 70.9527 99.387 70.9994 99.4074 71.042C99.4279 71.0846 99.4577 71.1221 99.4947 71.1517C100.367 72.1747 100.595 71.6695 101.544 72.1115C103.466 73.0208 103.302 73.185 101.329 74.6373C100.052 75.5465 98.6979 76.3409 97.2811 77.0115C95.7886 77.7819 94.3087 78.6155 92.8035 79.3732C91.8046 79.8999 90.7639 80.3434 89.6919 80.6992C89.08 80.9235 88.4428 81.0719 87.7946 81.1412C87.0104 79.0069 87.7946 78.2618 90.3244 78.9312C90.3437 78.924 90.3604 78.9111 90.3722 78.8941C90.384 78.8772 90.3903 78.8571 90.3903 78.8364C90.3903 78.8158 90.384 78.7957 90.3722 78.7787C90.3604 78.7618 90.3437 78.7489 90.3244 78.7417C89.3783 78.548 88.3975 78.6122 87.4849 78.9278C86.5723 79.2434 85.7618 79.7986 85.1384 80.535C85.1036 80.5704 85.0842 80.6181 85.0842 80.6677C85.0842 80.7172 85.1036 80.7648 85.1384 80.8002C87.4025 82.4546 90.4002 81.0023 92.5758 79.9541C96.7499 77.984 101.531 76.0517 104.352 72.2504C104.382 72.217 104.404 72.1771 104.416 72.1339C104.428 72.0906 104.429 72.0452 104.421 72.0011C104.412 71.9571 104.393 71.9156 104.366 71.88C104.339 71.8444 104.304 71.8156 104.263 71.7958C103.277 71.1643 100.873 71.8715 100.899 70.4192C100.899 69.6615 108.804 67.5903 109.753 67.0852C111.65 66.138 115.356 64.3068 116.267 62.2356C116.403 61.7552 116.504 61.2656 116.57 60.7707C116.57 60.6065 116.178 60.3918 116.191 60.316C116.355 59.5204 117.38 58.6995 117.873 58.1186C119.543 56.1737 122.452 53.5974 121.668 50.6675C121.656 50.6184 121.632 50.5728 121.599 50.5347C121.566 50.4966 121.524 50.467 121.477 50.4484C121.43 50.4299 121.379 50.4228 121.328 50.428C121.278 50.4332 121.23 50.4503 121.187 50.4781C121.022 50.636 120.818 50.7465 120.595 50.7976C120.372 50.8487 120.14 50.8387 119.922 50.7685C118.556 50.7685 119.024 50.1497 121.339 49.0383C122.044 48.4402 122.657 47.7425 123.16 46.9672C123.413 46.702 123.072 46.361 122.882 46.6388Z" fill="#60BFEE"/>
</g>
<g style="mix-blend-mode:multiply" opacity="0.76">
<path d="M94.4731 70.1035C94.1949 70.0151 94.081 69.9645 94.4731 70.1035V70.1035Z" fill="#60BFEE"/>
</g>
<g style="mix-blend-mode:multiply" opacity="0.76">
<path d="M94.4605 70.1035C94.8273 70.2171 95.4598 70.4066 95.3712 70.3055C96.244 69.9772 96.3072 70.2424 95.5862 71.1138C95.524 71.4198 95.3925 71.7074 95.2018 71.9548C95.011 72.2021 94.7661 72.4026 94.4858 72.5409C92.5632 74.511 89.5149 75.5845 87.061 76.5948C82.8393 78.5519 78.2869 79.7 73.6407 79.9794V80.0804C76.7903 80.8255 80.0916 79.891 83.0767 78.9564C86.8966 77.9284 90.5477 76.3546 93.9166 74.2837C94.8906 73.6396 98.5334 71.5306 97.7112 69.6867C97.1167 68.2723 95.6495 69.2447 94.5111 69.2321C94.0178 69.2195 94.0304 69.9393 94.4605 70.1035Z" fill="#60BFEE"/>
</g>
<g style="mix-blend-mode:multiply" opacity="0.76">
<path d="M115.976 52.7513C115.916 52.883 115.907 53.0325 115.951 53.1703C115.996 53.3082 116.09 53.4244 116.216 53.4964C120.365 55.3023 109.677 62.3367 108.045 63.0944C104.744 64.6604 101.139 65.6202 98.3689 68.146V68.2091C104.516 64.8625 114.192 63.1576 117.949 56.3632C118.246 55.9075 118.427 55.3867 118.478 54.8456C118.528 54.3045 118.447 53.7591 118.24 53.2564C118.076 52.5492 117.62 53.4837 117.696 52.4229C117.696 51.703 118.898 50.8569 119.328 50.4528C120.593 49.3035 121.921 48.3185 123.122 47.1819C123.489 46.8535 122.958 46.2852 122.553 46.5252C119.938 48.1041 117.694 50.2278 115.976 52.7513Z" fill="#60BFEE"/>
</g>
<g style="mix-blend-mode:multiply" opacity="0.76">
<path d="M111.359 42.5092C116.191 47.1693 98.4575 57.0578 95.3839 59.2299C95.3734 59.2443 95.3674 59.2615 95.3669 59.2793C95.3663 59.297 95.3711 59.3146 95.3806 59.3296C95.3902 59.3446 95.4041 59.3564 95.4205 59.3634C95.4368 59.3704 95.4549 59.3723 95.4724 59.3688C100.24 56.8539 104.737 53.8579 108.893 50.4275C110.373 49.1646 112.219 47.4976 112.826 45.5022C112.879 44.3134 112.764 43.1231 112.485 41.9661C112.801 41.6756 112.346 41.2084 112.004 41.3978L111.359 41.7514C111.301 41.7963 111.255 41.8537 111.222 41.9194C111.19 41.9851 111.174 42.0572 111.174 42.1303C111.174 42.2034 111.19 42.2755 111.222 42.3412C111.255 42.4068 111.301 42.4643 111.359 42.5092Z" fill="#60BFEE"/>
</g>
<g style="mix-blend-mode:multiply" opacity="0.76">
<path d="M100.835 35.538C100.911 39.112 97.8756 41.5746 95.523 43.7468C92.4749 46.5713 89.1385 49.0687 85.5684 51.1979C78.4472 55.4412 70.7315 57.4114 63.2182 60.6444V60.7076C72.2494 59.672 81.7485 55.075 89.1986 50.0361C93.4739 47.144 102.138 41.6378 101.759 35.5001C101.737 35.3912 101.676 35.2938 101.589 35.2253C101.501 35.1568 101.392 35.1217 101.281 35.1263C101.17 35.1308 101.064 35.1748 100.982 35.2502C100.901 35.3257 100.849 35.4277 100.835 35.538Z" fill="#60BFEE"/>
</g>
<g style="mix-blend-mode:multiply" opacity="0.76">
<path d="M74.7538 25.1696C77.0179 27.9985 61.5106 36.0557 60.5114 36.6493C57.2028 38.6149 54.3763 41.2945 52.2391 44.4919C50.0383 47.5986 48.6975 51.602 45.9148 54.1405C45.8515 54.1405 45.9148 54.3046 46.016 54.2541C47.3294 53.4581 48.4042 52.324 49.1276 50.9706C50.7087 48.3324 52.4622 45.8011 54.3768 43.3932C58.6141 38.2532 64.4957 36.4978 69.7323 32.6838C71.0857 31.6861 78.5864 26.3693 75.3989 24.5381C74.9689 24.2476 74.4629 24.7654 74.7538 25.1696Z" fill="#60BFEE"/>
</g>
<g style="mix-blend-mode:multiply" opacity="0.76">
<path d="M59.1707 29.5266C59.1707 29.5266 59.1707 29.6024 59.1707 29.5266C66.2413 22.7575 74.4629 19.1582 83.6459 16.2535C88.4684 14.855 93.4029 13.8748 98.3943 13.3236C101.47 12.9114 104.319 11.4845 106.489 9.26969C106.957 8.81504 106.199 8.13306 105.731 8.57507C101.531 12.5279 96.7752 12.1238 91.4754 13.1342C86.6741 14.1703 81.9559 15.5591 77.3595 17.2891C70.6304 19.6886 63.2941 23.3005 59.1707 29.5266Z" fill="#60BFEE"/>
</g>
<g style="mix-blend-mode:multiply" opacity="0.76">
<path d="M78.1563 62.6019C77.111 62.6162 76.0856 62.889 75.1717 63.3959C74.2579 63.9028 73.4842 64.628 72.9197 65.5065C71.6549 67.262 70.7821 69.1942 69.0619 70.5581C67.7445 71.7049 66.1168 72.4367 64.3836 72.6614C62.6504 72.8862 60.8894 72.5938 59.3224 71.821C60.8938 72.7432 62.7152 73.1502 64.5304 72.9848C66.3455 72.8195 68.0631 72.09 69.4413 70.8991C70.5287 69.9234 71.4587 68.786 72.1988 67.5272C73.8051 65.0772 75.108 63.4101 78.2575 63.107C79.2493 63.0734 80.2379 62.9764 81.2173 62.8166C84.7842 61.9957 84.7589 58.6237 87.8325 57.6639C91.8295 56.401 94.8146 55.416 96.9396 51.3494C96.9488 51.3329 96.9545 51.3146 96.9566 51.2958C96.9587 51.277 96.957 51.258 96.9518 51.2398C96.9465 51.2216 96.9377 51.2047 96.9258 51.1899C96.914 51.1751 96.8993 51.1628 96.8827 51.1537C96.8661 51.1446 96.8478 51.1388 96.829 51.1367C96.8102 51.1346 96.7911 51.1363 96.7729 51.1416C96.7547 51.1468 96.7377 51.1556 96.7229 51.1675C96.7081 51.1793 96.6958 51.1939 96.6866 51.2105C95.1603 53.9161 92.6664 55.946 89.7046 56.8936C88.5915 57.184 86.9724 56.8936 85.9732 57.5629C85.4166 57.9291 85.4926 58.3585 85.2016 58.6237L84.721 59.8866C84.345 60.5199 83.8295 61.0593 83.2137 61.4641C82.5979 61.8689 81.8979 62.1284 81.1667 62.223C80.1761 62.4359 79.1688 62.5627 78.1563 62.6019Z" fill="#60BFEE"/>
</g>
<g style="mix-blend-mode:multiply" opacity="0.76">
<path d="M105.958 17.2007C106.907 18.6909 105.566 20.32 104.478 20.9894C103.742 21.4242 102.962 21.7798 102.151 22.0502C100.886 22.4543 99.3935 22.3154 98.1413 22.8332C96.6108 23.4646 97.1926 23.5657 96.7752 24.5255C95.8266 26.6724 96.5349 26.5335 94.6502 27.3796C93.8786 27.708 93.0818 27.9606 92.3102 28.2637C91.2551 28.7041 90.2248 29.2015 89.2239 29.7539C85.1511 31.8882 81.1794 33.5425 77.4986 36.3209C72.7174 39.9707 65.3306 43.8983 63.1423 50.0108C61.8775 53.4332 63.0158 57.4492 61.4347 60.758C60.3343 63.0565 57.5769 64.4078 57.2607 67.0725C57.2553 67.106 57.2571 67.1403 57.2659 67.173C57.2747 67.2058 57.2904 67.2363 57.312 67.2625C57.3335 67.2888 57.3603 67.3102 57.3907 67.3253C57.4211 67.3405 57.4544 67.349 57.4884 67.3503C58.5414 67.3894 59.5692 67.0232 60.3596 66.3274C60.3596 66.2643 60.3596 66.1506 60.2837 66.2011C58.437 65.898 58.0449 65.3423 59.12 64.5215L59.7651 63.8395C60.4123 63.1997 61.0046 62.5069 61.5359 61.7684C62.2667 60.3921 62.6977 58.8772 62.8008 57.3229C63.117 54.5951 62.8008 51.8041 64.0657 49.2656C65.5444 46.7224 67.5759 44.543 70.0106 42.888C74.64 39.3014 79.2315 35.3106 84.5439 32.7848C86.6436 31.7871 88.7053 30.6758 90.8683 29.6907C92.5885 28.8825 94.6629 28.5036 96.2566 27.4428C96.9059 26.9891 97.4425 26.3929 97.8251 25.7C98.078 25.3464 97.6606 25.1569 97.8251 24.8917C98.5833 23.9668 99.6455 23.3404 100.823 23.1237C102.733 22.568 105.983 21.9365 106.995 19.878C107.324 19.196 106.995 18.6151 107.248 17.9837C107.501 17.3522 106.78 17.6806 107.248 17.1375C107.716 16.5945 109.095 16.7713 109.55 16.6576C111.169 16.2409 113.231 15.7988 112.788 13.7151C112.7 13.3236 112.03 13.4372 112.093 13.8413C112.447 15.9251 107.451 16.203 106.236 16.6323C106.174 16.6404 106.115 16.6637 106.064 16.7003C106.013 16.7368 105.972 16.7854 105.944 16.8417C105.916 16.898 105.903 16.9603 105.906 17.023C105.908 17.0856 105.926 17.1467 105.958 17.2007Z" fill="#60BFEE"/>
</g>
<g style="mix-blend-mode:screen" opacity="0.47">
<path d="M63.5471 5.15262C44.2705 16.1272 37.6931 41.0821 48.8367 60.8717C49.3047 61.7178 49.8106 62.5135 50.3292 63.3091C51.5783 64.0878 52.9158 64.7152 54.3135 65.1782C59.3962 66.7356 64.7819 67.0355 70.0065 66.0521C75.2311 65.0686 80.1378 62.8313 84.3036 59.533C91.8928 53.2817 97.5594 41.4357 98.584 31.5851C99.4532 24.0146 98.0488 16.357 94.549 9.5854C92.377 5.50631 89.0161 2.18148 84.9107 0.0505153C77.4472 -0.325701 70.0323 1.44512 63.5471 5.15262Z" fill="#60BFEE"/>
</g>
<g style="mix-blend-mode:multiply" opacity="0.42">
<path d="M118.62 21.1157C114.304 13.3856 107.618 7.24162 99.5453 3.58664L99.735 3.86448C108.501 18.3247 108.374 37.8617 97.686 50.8317C92.4396 57.0996 86.0483 62.3153 78.852 66.2011C71.951 69.8778 64.1016 71.396 56.3247 70.5582C62.5027 76.6117 70.4815 80.5 79.0622 81.6387C87.6429 82.7774 96.3619 81.1049 103.909 76.8726C123.173 65.8602 129.763 40.9053 118.62 21.1157Z" fill="#1A7AA0"/>
</g>
<g style="mix-blend-mode:multiply" opacity="0.42">
<path d="M118.619 21.1157C117.098 18.3999 115.282 15.8589 113.206 13.5383C113.32 14.195 113.446 14.8012 113.547 15.2937C116.393 28.8825 116.722 41.9535 108.893 53.5721C106.654 56.9062 104.896 60.4171 102.037 63.2965C99.0719 66.1669 95.737 68.6301 92.1204 70.6213C88.9608 72.3261 85.6651 73.7665 82.2671 74.9278C77.3741 76.8935 72.148 77.9011 66.8737 77.8956C69.9392 79.3919 73.1819 80.4952 76.5246 81.1791C80.2595 81.0318 83.9727 80.5414 87.6175 79.7142C91.348 78.8538 94.8367 77.1661 97.825 74.7762C101.974 71.5685 106.388 68.4617 109.854 64.5088C112.555 61.532 115.089 58.4078 117.443 55.1508C121.099 49.8592 122.136 44.8329 122.503 38.3416C122.629 35.9421 122.718 33.5552 122.692 31.2062C121.773 27.6825 120.404 24.2912 118.619 21.1157Z" fill="#1A7AA0"/>
</g>
<path d="M115.647 16.5819C116.564 17.7941 117.409 19.0592 118.177 20.3706C132.331 16.3293 141.969 15.0664 142.981 17.5922C144.815 22.0881 119.897 36.5356 87.3266 49.8213C54.7562 63.107 26.8153 70.255 24.9685 65.7591C23.9061 63.1702 31.6724 57.323 44.6246 50.2886C44.2611 48.8283 43.9823 47.3482 43.7898 45.8558C16.1904 59.2804 -1.74549 71.2654 0.113867 75.9002C2.73215 82.2905 42.4111 72.1115 88.7306 53.2564C135.05 34.4013 170.466 13.854 167.848 7.45109C165.989 2.86677 144.752 6.87017 115.647 16.5819Z" fill="#6CD4F4"/>
<g style="mix-blend-mode:screen" opacity="0.47">
<path d="M64.989 10.6715C60.6125 9.11812 54.44 16.986 52.783 20.0927C48.5331 28.0237 46.9646 38.872 53.0739 46.7146C55.9072 50.3518 60.9794 50.3391 65.0522 49.3288C68.1408 48.6104 71.0539 47.2814 73.6195 45.4203C76.1852 43.5592 78.3514 41.2038 79.9903 38.4931C83.4055 32.6712 85.3028 26.7987 83.6964 19.9286C82.9628 16.8471 81.9635 13.8919 79.1176 12.1996C75.6771 10.1537 70.5671 9.8506 64.989 10.6715Z" fill="#60BFEE"/>
</g>
<g style="mix-blend-mode:screen" opacity="0.47">
<path d="M56.7421 21.3809C54.2123 23.9951 51.6826 32.1534 57.6022 32.3302C65.2293 32.5954 63.2941 18.6909 56.7421 21.3809Z" fill="#60BFEE"/>
</g>
<path opacity="0.51" d="M116.975 18.4509C117.329 19.0066 117.683 19.5623 118.038 20.1432C138.706 13.172 153.062 9.93899 154.124 12.5658C155.731 16.5061 125.437 32.5954 86.4665 48.5079C47.4959 64.4205 14.5713 74.1069 12.9649 70.1666C11.9024 67.5777 24.6523 59.7225 44.5867 50.1244C44.4349 49.4804 44.2957 48.8615 44.1693 48.1796C21.6799 59.1542 7.2477 68.5249 8.63906 71.9347C10.6881 76.9863 45.8768 67.2999 87.2507 50.4654C128.625 33.631 160.487 15.8367 158.438 10.8483C157.059 7.35007 140.451 10.6967 116.975 18.4509Z" fill="#B3EDFF"/>
<path opacity="0.62" d="M118.733 21.3809C119.315 22.4291 119.846 23.4899 120.327 24.576C122.439 24.336 123.717 24.5002 123.97 25.119C125.032 27.6448 107.969 37.0913 85.8721 46.1084C63.7748 55.1255 45.0041 60.3539 43.9543 57.7776C43.714 57.1714 44.4729 56.1863 46.0666 54.9108C45.6366 53.7868 45.2824 52.6502 44.9662 51.501C33.2788 57.6766 26.284 62.6398 27.1062 64.6478C28.6114 68.3102 55.2749 60.8591 86.6689 48.0659C118.063 35.2727 142.323 21.9113 140.818 18.2489C139.996 16.1777 131.471 17.5922 118.733 21.3809Z" fill="#7DE0FF"/>
</g>
<defs>
<clipPath id="clip0_1_3715">
<rect width="168" height="82" fill="white"/>
</clipPath>
</defs>
</svg>
