<svg width="64" height="31" viewBox="0 0 64 31" fill="none" xmlns="http://www.w3.org/2000/svg">
<g clip-path="url(#clip0_1_11238)">
<path d="M37.8258 29.9072C45.6471 26.7399 49.3285 17.7258 46.0483 9.77356C42.7681 1.82135 33.7686 -2.05759 25.9472 1.10971C18.1259 4.277 14.4446 13.2911 17.7247 21.2434C21.0049 29.1956 30.0044 33.0745 37.8258 29.9072Z" fill="#31ADE0"/>
<g style="mix-blend-mode:screen" opacity="0.76">
<path d="M23.5723 28.3645C24.8787 29.2394 26.3117 29.9123 27.8223 30.3602C28.5573 30.3193 29.2893 30.2364 30.0147 30.112C31.2435 29.8971 37.1558 28.1449 36.8137 26.5168C36.335 26.6988 35.8418 26.841 35.3392 26.9418C37.9509 24.9699 43.6416 23.7382 44.7017 20.2576C44.2499 20.3603 43.7932 20.44 43.3332 20.4964C44.3885 19.255 45.8967 18.1569 47.1881 16.9251C47.2387 16.2178 47.2387 15.5078 47.1881 14.8005C43.9789 18.0041 40.206 20.9213 36.1054 22.4968C37.31 21.1457 43.3669 18.5341 42.4803 16.0848C38.6255 17.7272 35.6572 21.4608 32.2023 23.8002C30.0324 25.3504 27.7111 26.6811 25.2733 27.7725C24.7202 28.007 24.1519 28.2048 23.5723 28.3645Z" fill="#60BFEE"/>
</g>
<g style="mix-blend-mode:multiply" opacity="0.76">
<path d="M16.8842 12.0266C16.2778 14.9169 16.5032 17.9178 17.5347 20.6873C19.0236 19.0593 20.1415 16.548 21.7798 15.2446C22.5797 14.6048 29.2582 10.9476 28.7763 9.80178C28.121 8.27876 23.5386 11.7784 22.5122 11.2102C24.979 9.01467 27.8595 7.32397 30.988 6.23533C32.5299 5.71061 34.1081 5.29734 35.7102 4.99876C36.8908 4.78869 38.3267 4.99877 39.3964 4.34468C39.9775 4.04937 40.4596 3.59326 40.7842 3.03173C39.9009 2.38141 38.9512 1.82454 37.9508 1.37024H37.9219C34.3321 1.69967 30.5399 3.63807 27.35 5.13245C23.1483 7.09471 19.491 9.24796 16.8842 12.0266Z" fill="#60BFEE"/>
</g>
<g style="mix-blend-mode:multiply" opacity="0.76">
<path d="M23.8855 22.9934C27.1332 22.3632 30.9736 20.4105 33.5804 18.4243C35.1513 17.2212 38.1002 15.3257 38.5002 13.3157C37.2425 13.9507 34.2261 16.7533 32.9926 16.0467C34.0816 14.3518 36.4089 13.3157 38.0713 12.2272C38.7604 11.7784 42.0852 10.5227 41.9262 9.36255C41.6515 7.61036 33.8214 12.146 33.1612 12.5089C28.7956 14.9247 23.6301 17.6031 23.8855 22.9934Z" fill="#60BFEE"/>
</g>
<g style="mix-blend-mode:multiply" opacity="0.76">
<path d="M21.5582 24.4926C22.04 24.0151 24.2758 20.8593 22.7869 20.4057C21.4281 19.9903 18.1563 24.97 20.7776 25.2946L21.5582 24.4926Z" fill="#60BFEE"/>
</g>
<g style="mix-blend-mode:multiply" opacity="0.76">
<path d="M41.9406 12.7953C43.1067 12.7094 46.1328 11.468 46.2051 10.0262C44.7595 9.40073 42.4611 11.1863 41.6274 12.251L41.9406 12.7953Z" fill="#60BFEE"/>
</g>
<g style="mix-blend-mode:screen" opacity="0.76">
<path d="M22.5845 11.5587C23.7651 11.6733 24.7721 10.9667 25.7792 10.4654C26.0924 10.3078 28.4294 9.12854 28.4969 9.90676C28.4969 9.98315 28.6222 10.0261 28.6559 9.94495C28.9835 9.08556 27.6922 9.41023 27.3067 9.53436C25.6636 10.0643 24.2903 11.1099 22.5845 11.4775C22.546 11.4871 22.546 11.5539 22.5845 11.5587Z" fill="#60BFEE"/>
</g>
<g style="mix-blend-mode:screen" opacity="0.76">
<path d="M21.7654 7.95405C20.5848 8.84208 19.2597 9.6394 18.2623 10.7423C18.2623 10.7423 18.2623 10.7805 18.2912 10.7661C19.3802 9.67759 20.845 8.89937 22.093 7.99702C23.3705 7.07986 24.719 6.26408 26.1261 5.55731C29.3642 3.94357 32.7227 2.86457 36.1005 1.63278C36.1198 1.62395 36.1351 1.60845 36.1435 1.58921C36.152 1.56998 36.1531 1.54833 36.1466 1.52836C36.1401 1.50839 36.1264 1.49147 36.1081 1.4808C36.0899 1.47013 36.0683 1.46645 36.0475 1.47044C32.5734 2.11498 29.1233 3.76692 25.9864 5.34247C24.5032 6.08589 23.0905 6.95994 21.7654 7.95405Z" fill="#60BFEE"/>
</g>
<g style="mix-blend-mode:screen" opacity="0.76">
<path d="M21.0571 21.3224C20.7397 21.7006 20.4574 22.1065 20.2138 22.5351C19.891 23.1271 19.9777 23.7573 19.7031 24.3493C19.8236 24.1822 19.9073 23.9919 19.9488 23.7907C20.0716 23.1867 20.3193 22.6145 20.6764 22.1101C21.1583 21.4226 21.8377 20.2816 22.8351 20.5441C22.946 20.5728 22.9749 20.4009 22.8689 20.3675C22.0882 20.1145 21.51 20.7495 21.0571 21.3224Z" fill="#60BFEE"/>
</g>
<g style="mix-blend-mode:screen" opacity="0.76">
<path d="M26.6128 16.7771C24.7191 18.4004 23.9626 20.5107 23.9482 23.022C24.1602 21.7807 24.2951 20.5011 24.8492 19.3601C25.4441 18.2558 26.2945 17.3069 27.3308 16.5909C29.1562 15.2237 31.07 13.9765 33.0601 12.8574C33.6142 12.5375 41.1408 7.8777 41.8635 9.20497C41.8855 9.23904 41.9191 9.26408 41.9582 9.27548C41.9973 9.28688 42.0393 9.28386 42.0763 9.26697C42.1133 9.25008 42.1429 9.22047 42.1596 9.18361C42.1763 9.14676 42.179 9.10516 42.1671 9.06651C41.4636 7.31909 35.1995 11.2293 34.3611 11.6972C31.6771 13.1725 28.9306 14.7671 26.6128 16.7771Z" fill="#60BFEE"/>
</g>
<g style="mix-blend-mode:screen" opacity="0.76">
<path d="M41.6516 12.3799C41.3673 11.807 44.5909 10.3508 44.9716 9.99275C45.0727 9.90204 44.933 9.7779 44.8318 9.82564C44.4656 10.0166 41.0782 12.0123 41.6516 12.3799Z" fill="#60BFEE"/>
</g>
<g style="mix-blend-mode:screen" opacity="0.76">
<path d="M33.0456 16.0944C35.1802 17.1638 36.9005 14.0844 38.5436 13.416C38.6641 13.3682 38.6496 13.1534 38.5002 13.1725C37.7582 13.2632 37.2426 13.8648 36.7318 14.3565C35.7681 15.2684 34.4671 16.3092 33.0794 15.9941C33.0659 15.9897 33.0513 15.9907 33.0386 15.997C33.026 16.0033 33.0164 16.0142 33.0119 16.0275C33.0074 16.0408 33.0085 16.0553 33.0148 16.0679C33.0211 16.0804 33.0322 16.0899 33.0456 16.0944Z" fill="#60BFEE"/>
</g>
<g style="mix-blend-mode:screen" opacity="0.76">
<path d="M37.9605 18.959C36.433 20.1956 35.0694 21.5992 33.5082 22.7785C32.0626 23.8432 30.593 24.8601 29.0655 25.815C27.7404 26.641 26.3334 28.0351 24.7288 28.2022C24.7288 28.2022 24.7047 28.2356 24.7288 28.2404C25.8371 28.3502 26.7429 27.6913 27.6199 27.1136C29.2341 26.0537 30.9013 25.0941 32.477 23.9769C34.0493 22.9028 35.5435 21.7206 36.9486 20.4391C38.685 18.9093 40.5611 17.5428 42.5526 16.357C42.7743 16.2185 42.5526 15.8795 42.3309 16.0084C40.822 16.9139 39.3631 17.8988 37.9605 18.959Z" fill="#60BFEE"/>
</g>
<g style="mix-blend-mode:screen" opacity="0.76">
<path d="M46.817 14.7003C45.4374 16.4637 43.8285 18.0386 42.0322 19.3839C40.2879 20.6253 38.3845 21.413 36.4957 22.387V22.4157C40.7794 21.8093 44.4945 18.1187 47.0965 14.9772C47.2844 14.7671 46.9857 14.4997 46.817 14.7003Z" fill="#60BFEE"/>
</g>
<g style="mix-blend-mode:screen" opacity="0.76">
<path d="M35.3489 27.0945C35.5513 27.2282 35.8307 27.0659 36.0283 26.9656C36.2258 26.8654 36.8908 26.4357 36.886 26.7078H36.9101C36.9775 26.6314 37.0016 26.6219 37.0113 26.5216C37.0135 26.5117 37.0134 26.5015 37.011 26.4916C37.0086 26.4818 37.004 26.4726 36.9975 26.4648C36.991 26.457 36.9828 26.4507 36.9735 26.4465C36.9642 26.4423 36.954 26.4402 36.9438 26.4404C36.6669 26.4431 36.3958 26.5189 36.1584 26.6601C36.0142 26.745 35.8626 26.8169 35.7054 26.8749C35.5809 26.8966 35.4584 26.9285 35.3392 26.9704C35.2959 27.0038 35.3103 27.0707 35.3489 27.0945Z" fill="#60BFEE"/>
</g>
<g style="mix-blend-mode:screen" opacity="0.76">
<path d="M43.4826 20.5441C43.4779 20.5534 43.4754 20.5636 43.4751 20.574C43.4748 20.5843 43.4768 20.5946 43.4809 20.6042C43.485 20.6137 43.4912 20.6222 43.499 20.6292C43.5067 20.6361 43.5159 20.6413 43.5259 20.6444C43.6946 20.6873 43.8777 20.5298 44.0078 20.4582C44.1379 20.3866 44.4174 20.2815 44.5764 20.377C44.5764 20.377 44.4897 20.2577 44.3885 20.2242C44.2831 20.1933 44.171 20.1933 44.0656 20.2242C43.9066 20.2767 43.5838 20.377 43.4826 20.5441Z" fill="#60BFEE"/>
</g>
<g style="mix-blend-mode:screen" opacity="0.76">
<path d="M42.5623 20.2099C41.4733 20.9786 40.2012 21.4178 39.329 22.4682C39.311 22.4894 39.2987 22.5147 39.2933 22.5419C39.288 22.5691 39.2897 22.5972 39.2984 22.6235C39.3071 22.6498 39.3225 22.6735 39.343 22.6923C39.3635 22.711 39.3886 22.7243 39.4157 22.7308C39.7432 22.8154 40.0895 22.7937 40.4035 22.6687C40.6348 22.5971 40.8469 22.4348 41.0781 22.3727C41.1482 22.3051 41.2373 22.2603 41.3337 22.2441C41.4301 22.2279 41.5292 22.2411 41.6178 22.282C41.9599 22.282 41.9551 22.3727 41.6178 22.5876C41.2275 23.3371 39.7386 23.7764 39.0206 24.0199C38.3027 24.2634 37.4257 24.4543 36.6113 24.674C33.195 25.605 30.5689 28.1545 27.1525 29.138C27.1525 29.138 27.1525 29.181 27.1525 29.1762C30.5689 28.4362 33.1516 25.9917 36.462 25.0559C37.7389 24.6978 39.0736 24.4687 40.2734 23.8814C40.9384 23.5568 42.2009 22.9265 42.3406 22.0672C42.3467 22.0299 42.3412 21.9917 42.3248 21.9575C42.3085 21.9234 42.2821 21.8951 42.249 21.8762C41.8009 21.6613 41.3673 21.8762 40.9529 22.0624L40.2879 22.3632C39.7097 22.4873 39.647 22.4109 40.1096 22.1292C40.4276 21.6948 41.136 21.4226 41.5889 21.1744C43.5163 20.0572 44.8414 18.3861 46.4653 16.8774C46.5568 16.7915 46.4219 16.6339 46.3207 16.7055C44.9378 17.7082 43.9693 19.2121 42.5623 20.2099Z" fill="#60BFEE"/>
</g>
<g style="mix-blend-mode:screen" opacity="0.76">
<path d="M38.6881 19.3934C38.68 19.4109 38.6765 19.4302 38.6779 19.4494C38.6793 19.4687 38.6856 19.4872 38.6962 19.5034C38.7067 19.5196 38.7213 19.5329 38.7384 19.542C38.7555 19.5512 38.7747 19.5559 38.7941 19.5557C39.5555 19.4937 40.0373 18.873 40.471 18.3001C40.5529 18.1903 40.3939 18.047 40.312 18.1569C40.0671 18.561 39.7386 18.9091 39.3483 19.1786C38.3846 19.5939 39.5699 18.534 39.7386 18.3813C40.0614 18.0948 41.613 16.8678 41.7383 17.4264C41.9792 18.5531 39.0303 19.9425 38.2689 20.3626C37.5076 20.7828 33.0071 22.9694 34.072 23.7047C34.5538 24.0437 35.9705 23.3657 36.4812 23.1843C36.6981 23.1079 38.3701 22.449 38.346 22.788C38.3123 23.2654 36.9005 23.3609 36.4861 23.4707C34.7803 23.91 33.2046 24.8601 31.6964 25.7433C29.8557 26.8223 28.0873 28.565 25.8756 28.7607C27.5573 28.8133 28.8438 27.7629 30.2123 26.9274C32.0771 25.7815 34.1587 24.4686 36.2692 23.8431C36.5391 23.762 40.0807 22.9455 38.5002 22.3249C37.7919 22.0432 36.5439 22.8548 35.8934 23.0745C35.0357 23.3609 33.5612 23.7906 35.0839 22.597C35.8408 22.065 36.6346 21.5864 37.4594 21.1647C38.9291 20.3244 42.2105 19.1499 42.0804 16.9871C42.079 16.9646 42.0726 16.9427 42.0616 16.923C42.0507 16.9032 42.0354 16.8861 42.017 16.8728C41.9986 16.8596 41.9774 16.8506 41.9551 16.8464C41.9327 16.8422 41.9097 16.843 41.8877 16.8487C40.6589 17.1542 39.1074 18.1903 38.6881 19.3934Z" fill="#60BFEE"/>
</g>
<g style="mix-blend-mode:screen" opacity="0.76">
<path d="M28.2271 29.6489C28.2219 29.6511 28.2175 29.6548 28.2144 29.6594C28.2114 29.6641 28.2097 29.6696 28.2097 29.6751C28.2097 29.6807 28.2114 29.6862 28.2144 29.6908C28.2175 29.6955 28.2219 29.6992 28.2271 29.7014C29.4462 29.9735 30.6364 29.582 31.8169 29.3338C32.7372 29.1428 34.7707 28.8086 35.2332 27.7582C35.7536 26.5694 33.4986 27.0325 32.9733 27.2044C32.5349 27.3476 30.0822 28.1593 30.8676 28.9805C31.5567 29.6775 33.7299 28.3837 34.125 27.7869C34.1732 27.7152 34.125 27.6389 34.0479 27.615C33.7703 27.5494 33.4805 27.5549 33.2057 27.6309C32.9309 27.7069 32.6802 27.851 32.477 28.0495C32.4566 28.0628 32.4423 28.0835 32.4373 28.1073C32.4324 28.131 32.4371 28.1557 32.4505 28.176C32.4639 28.1962 32.4849 28.2104 32.5089 28.2153C32.5328 28.2202 32.5578 28.2155 32.5782 28.2022C33.0119 27.9444 34.1346 27.6914 33.2143 28.2309C32.8577 28.4362 32.1879 28.8659 31.7398 28.8324C31.2917 28.799 30.9399 28.8038 31.3688 28.1927C31.4651 28.0542 31.7398 27.9731 31.8892 27.8967C32.3109 27.6892 32.7493 27.5168 33.1998 27.381C33.5564 27.276 34.2165 27.0421 34.5731 27.2139C35.7826 27.7916 33.2384 28.7704 32.6457 28.9327C31.2628 29.2908 29.6437 29.7635 28.2271 29.6489Z" fill="#60BFEE"/>
</g>
<g style="mix-blend-mode:screen" opacity="0.76">
<path d="M32.1976 6.39764C32.1832 6.41556 32.1735 6.43672 32.1694 6.45925C32.1653 6.48177 32.1669 6.50495 32.1741 6.52671C32.1813 6.54847 32.1938 6.56812 32.2105 6.58393C32.2272 6.59973 32.2476 6.61118 32.2698 6.61726C33.1854 6.78436 32.0434 7.19974 31.7494 7.32387C31.1771 7.4878 30.5965 7.62167 30.0099 7.72492C29.1104 7.97699 28.2601 8.37726 27.4946 8.90897C27.4825 8.91928 27.4726 8.93208 27.4659 8.9465C27.4592 8.96093 27.4557 8.97663 27.4557 8.99252C27.4557 9.0084 27.4592 9.0241 27.4659 9.03853C27.4726 9.05295 27.4825 9.06575 27.4946 9.07606C28.2463 9.69195 29.4221 8.9042 30.1256 9.37208C31.7783 10.4606 25.2251 14.4472 24.4879 14.982C23.1676 15.9368 17.7419 19.3219 18.9273 21.7043C18.0069 19.3744 23.1965 16.1517 24.5794 15.1538C26.4201 13.8313 29.6196 12.4945 30.5737 10.2458C30.9206 9.43414 30.4966 9.19542 29.6967 9.15245C29.3257 9.12858 28.9354 9.21452 28.5692 9.15245C27.273 8.97103 28.6945 8.44107 29.3835 8.19758C30.6701 7.74879 32.1012 7.72015 33.2384 6.9658C33.2547 6.9519 33.2677 6.93469 33.2767 6.91532C33.2857 6.89596 33.2903 6.8749 33.2903 6.85359C33.2903 6.83229 33.2857 6.81124 33.2767 6.79187C33.2677 6.77251 33.2547 6.75529 33.2384 6.7414C33.3974 6.9085 32.7035 6.14938 32.6409 6.34035C32.7083 5.89634 34.0864 5.76743 34.3274 5.74356C35.1742 5.67911 36.0247 5.67911 36.8715 5.74356C38.3557 5.80562 40.0422 5.74355 40.5096 4.08207C40.5481 3.93884 40.3264 3.8911 40.2831 4.02956C39.2905 7.21884 34.0141 4.0964 32.1976 6.39764Z" fill="#60BFEE"/>
</g>
<g style="mix-blend-mode:screen" opacity="0.76">
<path d="M27.6199 1.79039C27.2489 2.48745 27.697 2.91713 26.8345 3.57122C26.2948 3.98182 25.3889 4.0057 24.7721 4.16325C23.6253 4.44972 22.5219 4.74572 21.881 5.78176C21.8658 5.81416 21.8638 5.85115 21.8755 5.88496C21.8872 5.91877 21.9116 5.9468 21.9436 5.96319C22.57 6.38333 23.1242 5.92977 23.7458 5.72447C24.6709 5.41413 23.9337 5.79132 23.4711 6.00139C23.0085 6.21146 22.5074 6.40243 22.0255 6.60773C21.1486 6.97058 19.1344 7.59603 19.3513 8.88034C19.3526 8.90162 19.3588 8.92233 19.3692 8.94096C19.3797 8.9596 19.3942 8.97569 19.4118 8.98804C19.4293 9.00039 19.4495 9.0087 19.4707 9.01237C19.4919 9.01604 19.5136 9.01497 19.5344 9.00924C20.0548 8.86601 20.0789 8.83737 19.6163 9.13338C19.3045 9.31056 18.9827 9.46997 18.6526 9.61082C18.1607 9.8086 17.7291 10.1294 17.3997 10.5418C17.3178 10.6516 17.4624 10.7901 17.5587 10.6898C18.4309 9.80655 19.7319 9.63468 20.5511 8.68935C20.5705 8.66589 20.5819 8.63693 20.5837 8.60663C20.5854 8.57633 20.5774 8.54627 20.5608 8.52077C20.5442 8.49528 20.5198 8.47567 20.4912 8.46478C20.4626 8.45389 20.4313 8.45229 20.4017 8.46019C19.0477 8.84214 20.1656 7.82997 20.686 7.50531C21.2905 7.18272 21.9168 6.90195 22.5604 6.66502C23.2832 6.36901 24.1843 6.11596 24.7432 5.54304C24.7595 5.52389 24.7706 5.50096 24.7755 5.4764C24.7804 5.45183 24.7789 5.42642 24.7712 5.40257C24.7635 5.37872 24.7499 5.3572 24.7315 5.34002C24.7131 5.32284 24.6906 5.31055 24.6661 5.30432C24.3801 5.24346 24.0825 5.265 23.8084 5.36639C23.5327 5.51577 23.244 5.6404 22.9459 5.73879L23.4277 4.83166C23.6446 4.74572 23.8614 4.67411 24.0879 4.60727C25.0516 4.30648 26.5743 4.30649 27.3067 3.50917C27.4957 3.24628 27.6316 2.94956 27.7066 2.63545C28.0439 1.85245 27.3019 2.32512 28.733 1.68057C29.6629 1.24611 29.6148 1.20314 30.405 1.43231C31.9084 1.84768 32.6697 1.57077 34.1008 0.983521C33.1371 1.23179 32.2264 1.69967 31.2097 1.48482C30.5881 1.35592 30.0051 1.00739 29.3594 1.00739C29.0242 0.959144 28.6821 1.00729 28.3737 1.1461C28.0654 1.2849 27.8037 1.50853 27.6199 1.79039Z" fill="#60BFEE"/>
</g>
<g style="mix-blend-mode:screen" opacity="0.76">
<path d="M43.55 7.70577C44.1764 9.03305 43.2031 9.7683 42.2249 10.5274C41.6178 11.0049 40.8565 11.3152 40.2975 11.8022C39.5795 12.4038 40.124 13.1342 39.7916 14.0175C39.0832 15.87 37.2811 16.4047 36.0427 17.6556C35.638 18.0709 35.7054 18.133 35.7006 18.6104C35.7337 18.6455 35.7751 18.6718 35.8211 18.6868C36.1343 18.7966 36.1439 19.1261 35.8211 19.6751C35.638 20.0762 34.814 20.5202 34.4141 20.7398C33.2191 21.4035 32.0048 21.4512 30.7086 21.7424C29.1185 22.091 28.2463 23.3275 27.1091 24.3922C26.6273 24.8696 23.076 27.825 22.6423 25.8245C22.8736 27.8393 26.2273 25.3471 26.8056 24.8696C27.9235 23.9148 28.8342 22.5254 30.2749 22.0432C31.3591 21.6851 32.53 21.7711 33.6094 21.3509C34.4526 21.0263 36.327 20.186 36.3415 19.021C36.3415 18.5723 35.9704 18.7155 35.9849 18.281C35.9849 17.5171 37.2474 17.1065 37.8208 16.6577C38.8953 15.8079 40.0951 14.4138 40.3505 13.0053C40.3505 12.8955 40.2108 12.7905 40.2204 12.7093C40.2975 11.8499 40.5047 11.9311 41.0974 11.5635C41.8708 11.091 42.594 10.5423 43.2561 9.92585C43.5693 9.63462 44.3836 8.97099 44.3644 8.45535C44.3644 7.81559 42.6923 7.21879 43.9162 6.40714C43.9368 6.39332 43.9511 6.37217 43.9563 6.3481C43.9615 6.32404 43.9571 6.29892 43.9441 6.27798C43.931 6.25704 43.9103 6.2419 43.8863 6.23572C43.8622 6.22955 43.8367 6.2328 43.8151 6.24482C43.0104 6.70793 43.2127 7.00394 43.55 7.70577Z" fill="#60BFEE"/>
</g>
<g style="mix-blend-mode:screen" opacity="0.76">
<path d="M41.0059 14.6191C40.4806 15.0106 40.1144 15.617 39.6037 16.0514C39.1652 16.4047 38.64 16.6673 38.2207 17.0063C37.975 17.1925 37.4835 17.4838 37.4401 17.8275C37.3775 18.3575 37.6473 18.4148 38.0906 18.3049C38.64 18.1856 39.4206 17.3501 39.8301 17.0206C40.7698 16.2711 41.6323 15.4403 42.7598 14.9772C42.7661 14.9747 42.7714 14.9704 42.7752 14.9649C42.779 14.9594 42.781 14.9529 42.781 14.9462C42.781 14.9395 42.779 14.933 42.7752 14.9274C42.7714 14.9219 42.7661 14.9176 42.7598 14.9151C41.3143 15.2589 40.1674 16.3475 39.011 17.2737C38.6785 17.5363 37.6184 18.3336 38.1726 17.3405C38.4376 16.8631 39.329 16.5337 39.7482 16.1851C40.6156 15.4642 41.1938 14.5714 42.3406 14.242C43.0117 14.1237 43.6747 13.9642 44.3258 13.7645C45.1113 13.4303 45.969 12.8908 46.075 11.9694C45.5738 14.2897 42.4225 13.5449 41.0059 14.6191Z" fill="#60BFEE"/>
</g>
<g style="mix-blend-mode:screen" opacity="0.76">
<path d="M37.1848 6.51223C36.4909 6.51223 35.9416 6.46926 35.585 7.12335C35.5754 7.14429 35.5712 7.16729 35.5728 7.19024C35.5744 7.21319 35.5818 7.23537 35.5942 7.2548C35.6066 7.27423 35.6238 7.29029 35.644 7.30151C35.6643 7.31274 35.6871 7.31878 35.7103 7.3191C36.1178 7.32793 36.5253 7.30559 36.9294 7.25227C37.0643 7.25227 37.6473 7.13291 37.7341 7.2093L37.1848 8.25011H36.8089C35.9994 8.45063 34.973 8.083 34.125 8.2119C31.8458 8.55566 34.125 9.52009 33.4215 10.7567C33.1034 11.3009 32.0048 11.7593 31.4603 12.0457C30.6074 12.4945 29.716 12.8574 28.8438 13.2536C27.6257 13.8059 26.4984 14.5366 25.4998 15.4212C24.2448 16.5915 23.0515 17.8249 21.9244 19.1166C21.6883 19.3696 20.8017 20.6157 20.4788 20.5823L19.997 19.9139L20.4788 19.4842C20.7896 19.2544 21.1259 19.0606 21.4811 18.9065C20.6619 19.2359 19.4718 19.8614 19.5151 20.8926C19.5151 20.8993 19.5165 20.906 19.5192 20.9121C19.5219 20.9182 19.5259 20.9237 19.5309 20.9282C19.5359 20.9327 19.5418 20.9361 19.5482 20.9382C19.5546 20.9403 19.5614 20.9411 19.5681 20.9404C20.9559 21.0597 22.2135 19.0879 23.0278 18.2285C24.0351 17.1031 25.1203 16.0486 26.2756 15.0727C27.4511 14.2232 28.7281 13.5208 30.0774 12.9815C31.0941 12.5041 33.7684 11.6208 34.0575 10.2792C34.1828 9.71584 33.8744 9.87338 33.7299 9.44846C33.248 8.09254 34.867 8.41721 35.6284 8.46018C36.2837 8.4936 38.5195 8.80393 38.5966 7.57214C38.64 6.82256 37.7485 6.93238 37.2185 6.95626C36.8559 7.02099 36.4882 7.05294 36.1199 7.05174C35.1947 6.9085 37.0836 6.80824 37.3389 6.79392C38.1556 6.83169 38.9724 6.72001 39.7482 6.46448C40.4325 6.18757 41.9214 5.34729 41.6756 4.34467C41.6635 4.31071 41.639 4.28252 41.6068 4.2657C41.5747 4.24889 41.5373 4.2447 41.5022 4.25396C41.2564 4.29693 41.3432 4.28737 41.083 4.51177C40.9625 4.61203 41.083 4.81733 41.2179 4.72184C41.3528 4.62635 41.0492 5.28522 41.0203 5.33296C40.7023 5.8104 39.8109 6.17325 39.2616 6.3499C38.5849 6.52815 37.8812 6.58315 37.1848 6.51223Z" fill="#60BFEE"/>
</g>
<g style="mix-blend-mode:screen" opacity="0.76">
<path d="M33.3395 14.1035C31.8699 14.9581 30.2412 15.4308 28.8294 16.3952C28.7426 16.4572 28.7571 16.6244 28.8727 16.6387C29.2875 16.6563 29.7028 16.6161 30.1063 16.5193C30.8773 16.4047 31.5519 16.6053 30.9014 17.5124C30.5978 17.9373 29.8461 18.0901 29.3691 18.2429C28.5499 18.5102 26.5406 18.7919 26.2852 19.8805C26.1358 20.5202 26.5888 20.5346 27.1381 20.5107C28.8535 20.4343 30.0726 19.193 31.4266 18.3193C30.511 18.8731 29.6774 19.6513 28.6655 20.0285C28.2897 20.1669 27.5043 20.4677 27.1381 20.3531C25.3359 19.7754 29.2871 18.5818 29.822 18.3956C30.3569 18.2094 32.6842 16.9013 31.4025 16.1899C31.017 15.975 29.4317 16.6053 29.2775 16.4C29.3112 16.4477 33.1998 14.5379 33.7443 14.2085C35.2236 13.3014 36.3608 11.955 37.8642 11.0813C38.3487 10.7746 38.8525 10.4987 39.3724 10.2553C40.0807 9.95454 40.5047 10.0787 39.7868 10.7328C39.4446 11.0526 38.7026 11.172 38.2593 11.2866C38.1195 11.3248 38.1918 11.5301 38.3267 11.5014C39.3338 11.32 40.3023 11.024 40.789 10.0405C40.806 10.0049 40.8085 9.96416 40.7959 9.9268C40.7834 9.88944 40.7567 9.85833 40.7216 9.83996C39.4928 9.29091 37.4931 10.8808 36.6113 11.5492C35.4983 12.3799 34.549 13.4064 33.3395 14.1035Z" fill="#60BFEE"/>
</g>
<g style="mix-blend-mode:screen" opacity="0.76">
<path d="M20.1704 10.7375C20.209 11.0288 20.6523 11.0144 20.7294 11.215C20.9703 11.8786 18.6237 13.0961 18.2334 13.5496C18.2237 13.559 18.2161 13.5701 18.2109 13.5824C18.2057 13.5947 18.203 13.6079 18.203 13.6212C18.203 13.6346 18.2057 13.6478 18.2109 13.6601C18.2161 13.6724 18.2237 13.6835 18.2334 13.6929C19.2886 14.4329 20.4306 13.9936 21.4762 13.4685C22.2617 13.077 23.0278 12.6234 23.794 12.1889C24.0831 12.0266 26.3815 10.4558 26.4683 11.4919C26.5116 11.998 22.6616 13.9602 22.199 14.2562C21.2226 14.7994 20.3354 15.4868 19.5681 16.2949C18.8357 17.1829 18.4165 18.3097 17.8093 19.2836C17.8093 19.3123 17.8382 19.3457 17.8575 19.3171C18.5466 18.4052 18.9513 17.2832 19.6982 16.4143C20.6619 15.2923 22.04 14.6143 23.2543 13.8074C24.218 13.1772 26.1021 12.5518 26.6658 11.5348C26.9164 11.0813 26.8345 10.8617 26.3382 10.7996C25.9623 10.7471 25.4564 11.0908 25.1239 11.2532C24.1602 11.7306 23.1965 12.2987 22.2761 12.8192C21.5774 13.2011 20.6041 13.9268 19.7608 13.8647C19.1874 13.8218 18.908 13.3873 19.279 12.9099C19.3994 12.7523 19.7608 12.6473 19.9199 12.5422C20.2331 12.3513 20.7776 12.1269 20.9462 11.7592C21.2642 11.0622 20.3198 10.9524 20.6523 10.3269C20.8354 9.9784 21.8617 9.606 22.2087 9.39592C22.7773 9.05217 23.341 8.69886 23.9048 8.35034C25.1046 7.61031 26.3141 6.96099 27.5573 6.27348C29.9232 4.94621 32.0385 3.75262 34.6839 3.02691C35.6768 2.69375 36.7414 2.62946 37.7678 2.84071C38.9387 3.10807 37.9123 3.79559 37.2859 3.88153C36.6913 3.89545 36.0973 3.8361 35.5175 3.70487C33.46 3.48525 31.5181 4.33986 29.8461 5.44274C29.8305 5.45422 29.8198 5.47111 29.8162 5.49003C29.8127 5.50894 29.8164 5.52849 29.8268 5.54478C29.8371 5.56107 29.8533 5.57289 29.8721 5.57787C29.8908 5.58285 29.9108 5.58063 29.928 5.57165C32.0289 4.34463 33.9226 3.77649 36.3511 4.04386C36.9631 4.11547 38.452 4.42103 38.8568 3.70965C39.8205 2.00519 35.1561 2.61154 34.6068 2.75477C30.2364 3.97224 26.4153 6.54085 22.5893 8.91371C22.146 9.21449 20.0596 9.99272 20.1704 10.7375Z" fill="#60BFEE"/>
</g>
<g style="mix-blend-mode:screen" opacity="0.76">
<path d="M20.3439 23.4994C20.341 23.5128 20.3412 23.5267 20.3445 23.54C20.3477 23.5534 20.354 23.5658 20.3628 23.5763C20.3716 23.5869 20.3828 23.5954 20.3953 23.6011C20.4079 23.6068 20.4216 23.6096 20.4355 23.6092C21.2546 23.6379 22.0979 22.0337 22.2039 21.351C22.2039 21.2889 22.1557 21.2316 22.0979 21.2507C22.0272 21.2736 21.958 21.3007 21.8907 21.3319C22.1123 21.0836 22.4737 20.7494 22.6568 21.1123C22.8399 21.4751 22.4304 21.9764 22.2906 22.2247C22.1509 22.4729 20.9462 24.4304 20.4258 24.1631C20.4258 24.1631 20.3921 24.1917 20.4258 24.1917C21.1004 24.2777 21.7558 23.2655 22.0882 22.8119C22.4207 22.3584 23.1676 21.4799 22.7725 20.9308C22.1075 20.0189 20.4596 22.9838 20.3439 23.4994ZM22.0063 21.4894C21.973 21.6277 21.9177 21.7598 21.8425 21.8809C21.7144 22.1356 21.5662 22.3799 21.3992 22.6114C21.2794 22.7799 21.1474 22.9395 21.0041 23.0888C20.9002 23.202 20.7781 23.2972 20.6427 23.3705C20.5174 23.4278 20.5656 23.4899 20.5463 23.4326C20.4933 23.2607 20.9125 22.6926 20.9896 22.5589C21.1581 22.2747 21.3431 22.0005 21.5437 21.7377C21.5518 21.7423 21.5609 21.7447 21.5702 21.7447C21.5795 21.7447 21.5887 21.7423 21.5967 21.7377L22.0304 21.4035L22.0063 21.4894Z" fill="#60BFEE"/>
</g>
<g style="mix-blend-mode:screen" opacity="0.76">
<path d="M46.8122 17.6318C46.2918 18.3049 45.5594 18.7346 45.0245 19.3983C45.0117 19.4138 45.0031 19.4322 44.9994 19.4518C44.9957 19.4714 44.997 19.4917 45.0032 19.5107C45.0094 19.5297 45.0204 19.5469 45.035 19.5606C45.0497 19.5743 45.0676 19.5842 45.0871 19.5893C45.3618 19.6609 45.516 19.5367 45.7521 19.5893C46.1279 19.6561 45.9738 19.0497 46.0557 19.7754C46.1087 20.2147 45.7762 20.5632 45.5304 20.8879C44.9737 21.497 44.4494 22.1345 43.9596 22.7976C43.9441 22.8307 43.942 22.8684 43.9537 22.903C43.9653 22.9376 43.9898 22.9665 44.0222 22.9838C44.6246 23.318 42.196 24.8936 41.9117 25.0225C40.6155 25.7148 39.141 25.8914 37.9027 26.7126C37.8886 26.7238 37.8773 26.738 37.8694 26.7541C37.8616 26.7702 37.8576 26.7878 37.8576 26.8057C37.8576 26.8236 37.8616 26.8412 37.8694 26.8574C37.8773 26.8735 37.8886 26.8876 37.9027 26.8988C38.2352 27.2855 38.3219 27.0946 38.6833 27.2617C39.4157 27.6054 39.3531 27.6675 38.6014 28.2165C38.1151 28.5602 37.5991 28.8606 37.0594 29.1141C36.4908 29.4054 35.9271 29.7205 35.3537 30.0069C34.9731 30.2061 34.5767 30.3737 34.1683 30.5082C33.9352 30.593 33.6924 30.6491 33.4455 30.6753C33.1468 29.8685 33.4455 29.5868 34.4092 29.8398C34.4166 29.8371 34.423 29.8322 34.4275 29.8258C34.432 29.8194 34.4344 29.8118 34.4344 29.804C34.4344 29.7962 34.432 29.7886 34.4275 29.7822C34.423 29.7758 34.4166 29.7709 34.4092 29.7682C34.0488 29.695 33.6752 29.7193 33.3275 29.8386C32.9799 29.9579 32.6711 30.1678 32.4336 30.4462C32.4204 30.4596 32.413 30.4776 32.413 30.4963C32.413 30.5151 32.4204 30.533 32.4336 30.5464C33.2961 31.1719 34.4381 30.6228 35.2669 30.2266C36.857 29.4818 38.6785 28.7513 39.753 27.3142C39.7644 27.3016 39.7727 27.2865 39.7773 27.2701C39.7819 27.2538 39.7825 27.2366 39.7793 27.2199C39.776 27.2033 39.7689 27.1876 39.7585 27.1742C39.7481 27.1607 39.7346 27.1498 39.7193 27.1423C39.3434 26.9036 38.4279 27.1709 38.4375 26.6219C38.4375 26.3354 41.4491 25.5524 41.8105 25.3615C42.5333 25.0034 43.9451 24.3111 44.2921 23.5281C44.3439 23.3465 44.3825 23.1614 44.4077 22.9743C44.4077 22.9122 44.2583 22.831 44.2632 22.8024C44.3258 22.5016 44.7161 22.1913 44.904 21.9717C45.5401 21.2364 46.6483 20.2624 46.3496 19.1548C46.345 19.1362 46.336 19.119 46.3234 19.1046C46.3107 19.0902 46.2947 19.079 46.2768 19.072C46.2588 19.0649 46.2394 19.0623 46.2202 19.0642C46.2011 19.0662 46.1826 19.0727 46.1665 19.0832C46.1037 19.1429 46.0257 19.1846 45.9409 19.204C45.856 19.2233 45.7675 19.2195 45.6846 19.193C45.1642 19.193 45.3425 18.959 46.2243 18.5389C46.4929 18.3128 46.7266 18.049 46.9182 17.7559C47.0145 17.6556 46.8844 17.5267 46.8122 17.6318Z" fill="#60BFEE"/>
</g>
<g style="mix-blend-mode:multiply" opacity="0.76">
<path d="M35.9898 26.5025C35.8838 26.469 35.8404 26.4499 35.9898 26.5025V26.5025Z" fill="#60BFEE"/>
</g>
<g style="mix-blend-mode:multiply" opacity="0.76">
<path d="M35.9849 26.5025C36.1247 26.5455 36.3656 26.6171 36.3319 26.5789C36.6643 26.4548 36.6884 26.5551 36.4138 26.8845C36.3901 27.0002 36.34 27.1089 36.2673 27.2024C36.1946 27.2959 36.1014 27.3717 35.9946 27.424C35.2621 28.1688 34.1009 28.5746 33.1661 28.9566C31.5578 29.6965 29.8236 30.1305 28.0536 30.2361V30.2743C29.2534 30.556 30.5111 30.2027 31.6482 29.8494C33.1034 29.4608 34.4943 28.8658 35.7777 28.0829C36.1488 27.8394 37.5365 27.0421 37.2233 26.345C36.9968 25.8103 36.4379 26.1779 36.0042 26.1731C35.8163 26.1684 35.8211 26.4405 35.9849 26.5025Z" fill="#60BFEE"/>
</g>
<g style="mix-blend-mode:multiply" opacity="0.76">
<path d="M44.1813 19.9425C44.1584 19.9923 44.1551 20.0488 44.172 20.1009C44.1889 20.153 44.2249 20.197 44.2729 20.2242C45.8533 20.9069 41.7817 23.5663 41.1601 23.8527C39.9024 24.4447 38.5291 24.8076 37.4739 25.7625V25.7863C39.8157 24.5211 43.5019 23.8766 44.933 21.308C45.046 21.1357 45.1151 20.9388 45.1344 20.7343C45.1537 20.5297 45.1226 20.3235 45.0438 20.1335C44.9812 19.8661 44.8077 20.2194 44.8366 19.8184C44.8366 19.5462 45.2944 19.2263 45.4582 19.0736C45.9401 18.6391 46.446 18.2667 46.9038 17.837C47.0435 17.7129 46.8411 17.498 46.687 17.5887C45.6906 18.1857 44.836 18.9885 44.1813 19.9425Z" fill="#60BFEE"/>
</g>
<g style="mix-blend-mode:multiply" opacity="0.76">
<path d="M42.4225 16.0705C44.2632 17.8323 37.5076 21.5706 36.3367 22.3918C36.3327 22.3972 36.3304 22.4037 36.3302 22.4105C36.33 22.4172 36.3318 22.4238 36.3355 22.4295C36.3391 22.4351 36.3444 22.4396 36.3506 22.4422C36.3569 22.4449 36.3638 22.4456 36.3704 22.4443C38.1866 21.4936 39.8998 20.3609 41.4829 19.0641C42.0467 18.5866 42.7502 17.9564 42.9815 17.2021C43.0014 16.7526 42.9576 16.3026 42.8514 15.8652C42.9718 15.7554 42.7984 15.5788 42.6683 15.6504L42.4225 15.7841C42.4005 15.801 42.3827 15.8227 42.3704 15.8476C42.3582 15.8724 42.3518 15.8997 42.3518 15.9273C42.3518 15.9549 42.3582 15.9822 42.3704 16.007C42.3827 16.0318 42.4005 16.0536 42.4225 16.0705Z" fill="#60BFEE"/>
</g>
<g style="mix-blend-mode:multiply" opacity="0.76">
<path d="M38.4135 13.4351C38.4424 14.7862 37.286 15.7172 36.3897 16.5384C35.2285 17.6062 33.9575 18.5503 32.5975 19.3553C29.8847 20.9595 26.9453 21.7043 24.0831 22.9265V22.9504C27.5236 22.5589 31.1423 20.821 33.9804 18.9161C35.6091 17.8227 38.9098 15.7411 38.7653 13.4208C38.7568 13.3796 38.7339 13.3428 38.7005 13.3169C38.6671 13.291 38.6256 13.2777 38.5832 13.2794C38.5409 13.2812 38.5005 13.2978 38.4694 13.3263C38.4383 13.3548 38.4185 13.3934 38.4135 13.4351Z" fill="#60BFEE"/>
</g>
<g style="mix-blend-mode:multiply" opacity="0.76">
<path d="M28.4776 9.51524C29.3402 10.5847 23.4326 13.6307 23.0519 13.8551C21.7915 14.5982 20.7148 15.6113 19.9006 16.82C19.0622 17.9945 18.5514 19.508 17.4913 20.4677C17.4672 20.4677 17.4913 20.5297 17.5299 20.5106C18.0302 20.2097 18.4397 19.7809 18.7153 19.2693C19.3176 18.2719 19.9856 17.315 20.7149 16.4047C22.3292 14.4615 24.5698 13.7979 26.5647 12.356C27.0803 11.9788 29.9377 9.96881 28.7234 9.27652C28.5596 9.16671 28.3668 9.36246 28.4776 9.51524Z" fill="#60BFEE"/>
</g>
<g style="mix-blend-mode:multiply" opacity="0.76">
<path d="M22.5411 11.1624C22.5411 11.1624 22.5411 11.191 22.5411 11.1624C25.2347 8.60334 28.3668 7.24264 31.865 6.14453C33.7022 5.61584 35.582 5.24525 37.4835 5.03688C38.6551 4.88107 39.7406 4.34163 40.5673 3.50431C40.7456 3.33243 40.4565 3.0746 40.2782 3.24171C38.6785 4.73609 36.8667 4.58331 34.8477 4.96526C33.0186 5.35697 31.2212 5.882 29.4702 6.53604C26.9067 7.44317 24.112 8.80864 22.5411 11.1624Z" fill="#60BFEE"/>
</g>
<g style="mix-blend-mode:multiply" opacity="0.76">
<path d="M29.7738 23.6665C29.3756 23.6719 28.985 23.7751 28.6368 23.9667C28.2887 24.1583 27.994 24.4325 27.7789 24.7646C27.2971 25.4282 26.9646 26.1587 26.3093 26.6744C25.8074 27.1079 25.1873 27.3846 24.5271 27.4695C23.8668 27.5545 23.196 27.4439 22.599 27.1518C23.1976 27.5004 23.8915 27.6543 24.583 27.5918C25.2745 27.5293 25.9288 27.2535 26.4538 26.8033C26.8681 26.4344 27.2224 26.0044 27.5043 25.5285C28.1162 24.6023 28.6126 23.9721 29.8124 23.8575C30.1902 23.8448 30.5668 23.8081 30.9399 23.7477C32.2987 23.4373 32.2891 22.1626 33.46 21.7997C34.9827 21.3223 36.1199 20.9499 36.9294 19.4125C36.9329 19.4063 36.9351 19.3994 36.9358 19.3923C36.9366 19.3851 36.936 19.378 36.934 19.3711C36.932 19.3642 36.9286 19.3578 36.9241 19.3522C36.9196 19.3466 36.914 19.342 36.9077 19.3385C36.9014 19.3351 36.8944 19.3329 36.8872 19.3321C36.8801 19.3313 36.8728 19.332 36.8659 19.334C36.8589 19.3359 36.8525 19.3393 36.8468 19.3437C36.8412 19.3482 36.8365 19.3537 36.833 19.36C36.2515 20.3829 35.3015 21.1503 34.1732 21.5085C33.7491 21.6183 33.1324 21.5085 32.7517 21.7615C32.5397 21.9 32.5686 22.0623 32.4578 22.1626L32.2747 22.64C32.1314 22.8794 31.9351 23.0833 31.7005 23.2364C31.4659 23.3894 31.1992 23.4875 30.9206 23.5233C30.5433 23.6038 30.1596 23.6517 29.7738 23.6665Z" fill="#60BFEE"/>
</g>
<g style="mix-blend-mode:multiply" opacity="0.76">
<path d="M40.365 6.50269C40.7263 7.06607 40.2156 7.68196 39.8012 7.935C39.5208 8.0994 39.2236 8.23384 38.9146 8.33605C38.4327 8.48883 37.8641 8.43631 37.3871 8.63206C36.8041 8.87077 37.0257 8.90897 36.8667 9.27182C36.5053 10.0835 36.7751 10.0309 36.0572 10.3508C35.7632 10.475 35.4597 10.5705 35.1657 10.685C34.7638 10.8515 34.3713 11.0396 33.99 11.2484C32.4384 12.0553 30.9254 12.6807 29.5232 13.7311C27.7018 15.1109 24.8878 16.5957 24.0542 18.9065C23.5723 20.2004 24.006 21.7186 23.4037 22.9695C22.9844 23.8384 21.934 24.3493 21.8135 25.3567C21.8115 25.3693 21.8122 25.3823 21.8155 25.3947C21.8189 25.4071 21.8249 25.4186 21.8331 25.4285C21.8413 25.4385 21.8515 25.4465 21.8631 25.4523C21.8747 25.458 21.8873 25.4612 21.9003 25.4617C22.3014 25.4765 22.693 25.338 22.9941 25.075C22.9941 25.0511 22.9941 25.0081 22.9652 25.0272C22.2617 24.9127 22.1123 24.7026 22.5219 24.3923L22.7676 24.1344C23.0141 23.8926 23.2398 23.6306 23.4422 23.3515C23.7206 22.8312 23.8848 22.2584 23.9241 21.6709C24.0445 20.6396 23.9241 19.5845 24.4059 18.6248C24.9692 17.6633 25.7432 16.8394 26.6706 16.2138C28.4342 14.8578 30.1834 13.3491 32.2072 12.3943C33.007 12.0171 33.7925 11.5969 34.6164 11.2245C35.2718 10.919 36.062 10.7757 36.6691 10.3747C36.9165 10.2032 37.1209 9.97782 37.2666 9.71585C37.363 9.58217 37.204 9.51054 37.2666 9.41028C37.5555 9.06063 37.9601 8.82379 38.4086 8.74187C39.1362 8.5318 40.3746 8.29308 40.7601 7.51485C40.8854 7.25704 40.7601 7.03742 40.8565 6.7987C40.9528 6.55998 40.6782 6.68412 40.8565 6.47882C41.0347 6.27353 41.56 6.34036 41.7334 6.2974C42.3502 6.13984 43.1356 5.97273 42.967 5.18496C42.9333 5.03695 42.6779 5.07993 42.702 5.23271C42.8369 6.02048 40.9335 6.12551 40.471 6.28784C40.4472 6.29087 40.4247 6.2997 40.4052 6.31351C40.3858 6.32732 40.3701 6.34569 40.3596 6.36698C40.3491 6.38828 40.3441 6.41182 40.345 6.43551C40.3459 6.45919 40.3528 6.48228 40.365 6.50269Z" fill="#60BFEE"/>
</g>
<g style="mix-blend-mode:screen" opacity="0.47">
<path d="M24.2084 1.94796C16.8649 6.09689 14.3593 15.531 18.6044 23.0125C18.7827 23.3324 18.9754 23.6332 19.173 23.934C19.6489 24.2283 20.1584 24.4655 20.6908 24.6406C22.6271 25.2293 24.6788 25.3427 26.6691 24.9709C28.6595 24.5991 30.5287 23.7533 32.1156 22.5064C35.0068 20.1431 37.1655 15.6647 37.5558 11.9407C37.8869 9.07871 37.3519 6.18378 36.0187 3.62377C35.1912 2.08167 33.9108 0.824721 32.3469 0.0191116C29.5037 -0.123117 26.6789 0.546341 24.2084 1.94796Z" fill="#60BFEE"/>
</g>
<g style="mix-blend-mode:multiply" opacity="0.42">
<path d="M45.1883 7.98267C43.5441 5.06032 40.9973 2.7376 37.922 1.35583L37.9942 1.46087C41.3335 6.92753 41.2853 14.3135 37.2136 19.2168C35.215 21.5864 32.7803 23.5581 30.0388 25.0272C27.4099 26.4171 24.4196 26.9911 21.457 26.6743C23.8105 28.9629 26.85 30.4328 30.1189 30.8633C33.3877 31.2938 36.7092 30.6615 39.5844 29.0615C46.923 24.8983 49.4335 15.4641 45.1883 7.98267Z" fill="#1A7AA0"/>
</g>
<g style="mix-blend-mode:multiply" opacity="0.42">
<path d="M45.1883 7.98267C44.6086 6.95598 43.917 5.99536 43.126 5.11804C43.1694 5.36631 43.2176 5.59547 43.2561 5.78167C44.3403 10.9189 44.4656 15.8604 41.4829 20.2528C40.63 21.5132 39.9602 22.8405 38.8712 23.9291C37.7416 25.0142 36.4712 25.9454 35.0935 26.6982C33.8898 27.3427 32.6343 27.8872 31.3398 28.3263C29.4758 29.0694 27.4849 29.4503 25.4756 29.4482C26.6435 30.0139 27.8788 30.431 29.1522 30.6896C30.575 30.6339 31.9896 30.4485 33.3781 30.1357C34.7992 29.8105 36.1282 29.1725 37.2666 28.269C38.8471 27.0563 40.5288 25.8818 41.8491 24.3874C42.8781 23.262 43.8433 22.0809 44.7402 20.8496C46.1328 18.8491 46.5279 16.9489 46.6676 14.4949C46.7158 13.5878 46.7495 12.6854 46.7399 11.7974C46.3897 10.4652 45.8682 9.18317 45.1883 7.98267Z" fill="#1A7AA0"/>
</g>
<path d="M44.056 6.26869C44.4053 6.72697 44.7271 7.20524 45.0197 7.701C50.4117 6.1732 54.0834 5.69576 54.4689 6.65063C55.1676 8.35031 45.675 13.8122 33.2673 18.8348C20.8595 23.8575 10.2153 26.5598 9.5118 24.8601C9.10704 23.8813 12.0656 21.6708 16.9998 19.0115C16.8613 18.4594 16.7551 17.8999 16.6818 17.3357C6.16773 22.4108 -0.664978 26.9417 0.0433489 28.6939C1.04079 31.1097 16.1566 27.2616 33.8021 20.1335C51.4476 13.0053 64.9396 5.23742 63.9421 2.81681C63.2338 1.08371 55.1435 2.59719 44.056 6.26869Z" fill="#6CD4F4"/>
<g style="mix-blend-mode:screen" opacity="0.47">
<path d="M24.7577 4.0343C23.0905 3.44705 20.739 6.42149 20.1078 7.59599C18.4888 10.5943 17.8913 14.6955 20.2186 17.6604C21.298 19.0354 23.2302 19.0306 24.7818 18.6487C25.9584 18.377 27.0681 17.8746 28.0455 17.171C29.0229 16.4675 29.8481 15.577 30.4725 14.5522C31.7735 12.3512 32.4963 10.1312 31.8843 7.53392C31.6049 6.36897 31.2242 5.25177 30.14 4.61201C28.8294 3.83856 26.8827 3.72396 24.7577 4.0343Z" fill="#60BFEE"/>
</g>
<g style="mix-blend-mode:screen" opacity="0.47">
<path d="M21.616 8.08305C20.6523 9.07134 19.6886 12.1556 21.9436 12.2224C24.8492 12.3227 24.112 7.0661 21.616 8.08305Z" fill="#60BFEE"/>
</g>
<path opacity="0.51" d="M44.562 6.97538C44.6969 7.18545 44.8318 7.39552 44.9667 7.61514C52.8402 4.97969 58.3093 3.75745 58.7141 4.75052C59.326 6.24012 47.7856 12.3227 32.9396 18.3384C18.0937 24.3541 5.55098 28.016 4.93902 26.5264C4.53426 25.5477 9.39136 22.578 16.9854 18.9495C16.9276 18.706 16.8746 18.4721 16.8264 18.2143C8.259 22.3632 2.76103 25.9058 3.29107 27.1948C4.07168 29.1046 17.4769 25.4427 33.2384 19.0784C48.9999 12.7142 61.1378 5.98709 60.3572 4.10121C59.832 2.77871 53.5052 4.04391 44.562 6.97538Z" fill="#B3EDFF"/>
<path opacity="0.62" d="M45.2317 8.08296C45.4534 8.47924 45.6558 8.88028 45.8389 9.29088C46.6436 9.20017 47.1302 9.26223 47.2266 9.49617C47.6314 10.451 41.1312 14.0223 32.7131 17.4312C24.2951 20.8401 17.1444 22.8167 16.7445 21.8427C16.6529 21.6135 16.942 21.2411 17.5492 20.7589C17.3853 20.334 17.2504 19.9043 17.1299 19.4698C12.6776 21.8045 10.0129 23.6808 10.3262 24.44C10.8996 25.8245 21.0571 23.0077 33.0167 18.1712C44.9764 13.3348 54.2183 8.28348 53.6449 6.89891C53.3317 6.11592 50.084 6.65065 45.2317 8.08296Z" fill="#7DE0FF"/>
</g>
<defs>
<clipPath id="clip0_1_11238">
<rect width="64" height="31" fill="white"/>
</clipPath>
</defs>
</svg>
