<svg width="1061" height="518" viewBox="0 0 1061 518" fill="none" xmlns="http://www.w3.org/2000/svg">
<path d="M627.08 499.739C756.744 446.815 817.773 296.192 763.394 163.313C709.015 30.4338 559.82 -34.382 430.157 18.5425C300.494 71.467 239.464 222.09 293.843 354.969C348.222 487.848 497.417 552.664 627.08 499.739Z" fill="#31ADE0"/>
<g style="mix-blend-mode:screen" opacity="0.76">
<path d="M390.785 473.962C412.442 488.582 436.199 499.826 461.242 507.31C473.427 506.626 485.562 505.241 497.588 503.161C517.958 499.571 615.974 470.292 610.302 443.088C602.366 446.129 594.19 448.504 585.858 450.189C629.155 417.24 723.496 396.657 741.07 338.499C733.581 340.215 726.009 341.546 718.383 342.488C735.878 321.746 760.881 303.396 782.29 282.814C783.129 270.995 783.129 259.131 782.29 247.313C729.088 300.844 666.54 349.588 598.56 375.915C618.53 353.338 718.943 309.699 704.244 268.773C640.338 296.217 591.13 358.603 533.855 397.695C497.881 423.597 459.398 445.833 418.984 464.07C409.815 467.989 400.394 471.294 390.785 473.962Z" fill="#60BFEE"/>
</g>
<g style="mix-blend-mode:multiply" opacity="0.76">
<path d="M279.908 200.961C269.856 249.257 273.593 299.401 290.692 345.679C315.376 318.475 333.909 276.511 361.069 254.732C374.329 244.042 485.046 182.931 477.058 163.785C466.194 138.335 390.226 196.813 373.211 187.319C414.105 150.632 461.859 122.381 513.724 104.19C539.285 95.4225 565.448 88.5169 592.009 83.5279C611.58 80.0176 635.385 83.5279 653.119 72.5983C662.753 67.6638 670.745 60.0424 676.125 50.6593C661.482 39.7928 645.739 30.4877 629.154 22.8964H628.675C569.163 28.4011 506.295 60.791 453.413 85.7616C383.755 118.55 323.125 154.53 279.908 200.961Z" fill="#60BFEE"/>
</g>
<g style="mix-blend-mode:multiply" opacity="0.76">
<path d="M395.978 384.212C449.818 373.681 513.485 341.052 556.701 307.864C582.743 287.76 631.631 256.088 638.261 222.501C617.412 233.112 567.406 279.942 546.956 268.135C565.009 239.813 603.592 222.501 631.152 204.312C642.575 196.813 697.694 175.831 695.058 156.445C690.505 127.166 560.695 202.956 549.752 209.019C477.378 249.387 391.744 294.142 395.978 384.212Z" fill="#60BFEE"/>
</g>
<g style="mix-blend-mode:multiply" opacity="0.76">
<path d="M357.394 409.262C365.383 401.284 402.448 348.551 377.764 340.972C355.238 334.031 300.997 417.24 344.453 422.665L357.394 409.262Z" fill="#60BFEE"/>
</g>
<g style="mix-blend-mode:multiply" opacity="0.76">
<path d="M695.297 213.806C714.629 212.37 764.795 191.627 765.993 167.534C742.029 157.083 703.925 186.921 690.105 204.711L695.297 213.806Z" fill="#60BFEE"/>
</g>
<g style="mix-blend-mode:screen" opacity="0.76">
<path d="M374.409 193.143C393.981 195.058 410.676 183.25 427.372 174.874C432.564 172.241 471.307 152.536 472.425 165.54C472.425 166.816 474.502 167.534 475.061 166.178C480.493 151.818 459.085 157.243 452.694 159.317C425.454 168.172 402.688 185.644 374.409 191.787C373.77 191.946 373.77 193.063 374.409 193.143Z" fill="#60BFEE"/>
</g>
<g style="mix-blend-mode:screen" opacity="0.76">
<path d="M360.83 132.911C341.258 147.749 319.291 161.072 302.755 179.501C302.755 179.501 302.755 180.139 303.234 179.9C321.288 161.71 345.572 148.707 366.261 133.629C387.44 118.303 409.796 104.672 433.123 92.8617C486.804 65.8967 542.482 47.8669 598.48 27.2842C598.799 27.1366 599.052 26.8776 599.193 26.5562C599.333 26.2348 599.351 25.8731 599.243 25.5394C599.135 25.2057 598.908 24.923 598.606 24.7447C598.303 24.5664 597.946 24.5048 597.601 24.5716C540.006 35.3417 482.81 62.9451 430.807 89.2719C406.219 101.694 382.799 116.299 360.83 132.911Z" fill="#60BFEE"/>
</g>
<g style="mix-blend-mode:screen" opacity="0.76">
<path d="M349.087 356.29C343.825 362.61 339.146 369.392 335.107 376.553C329.755 386.446 331.193 396.976 326.64 406.869C328.637 404.077 330.025 400.897 330.714 397.535C332.749 387.442 336.856 377.881 342.776 369.453C350.764 357.965 362.028 338.898 378.563 343.286C380.401 343.764 380.88 340.892 379.122 340.334C366.181 336.106 356.596 346.716 349.087 356.29Z" fill="#60BFEE"/>
</g>
<g style="mix-blend-mode:screen" opacity="0.76">
<path d="M441.191 280.341C409.797 307.465 397.256 342.727 397.016 384.691C400.531 363.948 402.768 342.568 411.954 323.501C421.816 305.049 435.914 289.192 453.094 277.229C483.355 254.384 515.083 233.544 548.074 214.843C557.261 209.498 682.037 131.634 694.019 153.812C694.383 154.382 694.94 154.8 695.588 154.991C696.237 155.181 696.932 155.131 697.546 154.848C698.16 154.566 698.651 154.071 698.928 153.455C699.205 152.84 699.249 152.144 699.052 151.499C687.389 122.3 583.542 187.638 569.642 195.457C525.148 220.108 479.615 246.754 441.191 280.341Z" fill="#60BFEE"/>
</g>
<g style="mix-blend-mode:screen" opacity="0.76">
<path d="M690.504 206.865C685.791 197.292 739.233 172.959 745.543 166.976C747.221 165.46 744.904 163.386 743.227 164.184C737.156 167.375 680.998 200.722 690.504 206.865Z" fill="#60BFEE"/>
</g>
<g style="mix-blend-mode:screen" opacity="0.76">
<path d="M547.834 268.932C583.222 286.803 611.74 235.346 638.98 224.177C640.977 223.379 640.737 219.789 638.261 220.108C625.959 221.624 617.412 231.676 608.944 239.893C592.968 255.131 571.399 272.523 548.393 267.257C548.171 267.183 547.928 267.2 547.718 267.305C547.508 267.41 547.349 267.593 547.275 267.816C547.201 268.038 547.218 268.28 547.323 268.49C547.428 268.699 547.612 268.858 547.834 268.932Z" fill="#60BFEE"/>
</g>
<g style="mix-blend-mode:screen" opacity="0.76">
<path d="M629.315 316.799C603.992 337.462 581.385 360.917 555.503 380.622C531.539 398.413 507.174 415.405 481.852 431.361C459.884 445.163 436.558 468.458 409.957 471.25C409.957 471.25 409.558 471.809 409.957 471.888C428.33 473.723 443.348 462.714 457.887 453.061C484.647 435.35 512.287 419.314 538.408 400.646C564.474 382.699 589.245 362.945 612.539 341.531C641.325 315.97 672.427 293.135 705.443 273.32C709.117 271.007 705.443 265.343 701.768 267.497C676.752 282.626 652.566 299.084 629.315 316.799Z" fill="#60BFEE"/>
</g>
<g style="mix-blend-mode:screen" opacity="0.76">
<path d="M776.139 245.637C753.268 275.103 726.596 301.419 696.815 323.9C667.898 344.642 636.344 357.805 605.03 374.08V374.559C676.046 364.427 737.635 302.758 780.772 250.264C783.887 246.754 778.935 242.286 776.139 245.637Z" fill="#60BFEE"/>
</g>
<g style="mix-blend-mode:screen" opacity="0.76">
<path d="M586.018 452.742C589.373 454.975 594.006 452.263 597.281 450.587C600.556 448.912 611.58 441.732 611.5 446.28H611.9C613.018 445.003 613.418 444.843 613.577 443.168C613.614 443.003 613.612 442.832 613.572 442.667C613.533 442.503 613.456 442.349 613.348 442.219C613.241 442.088 613.105 441.983 612.95 441.913C612.796 441.843 612.628 441.808 612.459 441.812C607.869 441.857 603.374 443.124 599.438 445.482C597.049 446.902 594.535 448.103 591.929 449.072C589.864 449.434 587.834 449.967 585.858 450.667C585.139 451.226 585.379 452.343 586.018 452.742Z" fill="#60BFEE"/>
</g>
<g style="mix-blend-mode:screen" opacity="0.76">
<path d="M720.86 343.286C720.783 343.441 720.74 343.611 720.735 343.784C720.73 343.958 720.763 344.13 720.832 344.289C720.9 344.449 721.002 344.591 721.131 344.707C721.26 344.823 721.413 344.91 721.579 344.961C724.375 345.679 727.41 343.046 729.567 341.85C731.724 340.653 736.357 338.898 738.993 340.493C738.993 340.493 737.555 338.499 735.878 337.94C734.131 337.424 732.272 337.424 730.526 337.94C727.89 338.818 722.537 340.493 720.86 343.286Z" fill="#60BFEE"/>
</g>
<g style="mix-blend-mode:screen" opacity="0.76">
<path d="M705.602 337.701C687.549 350.546 666.46 357.885 652.001 375.436C651.702 375.79 651.498 376.214 651.41 376.668C651.321 377.122 651.35 377.591 651.494 378.031C651.638 378.471 651.892 378.866 652.233 379.18C652.573 379.494 652.988 379.716 653.439 379.824C658.868 381.238 664.608 380.875 669.815 378.787C673.649 377.59 677.164 374.878 680.998 373.841C682.16 372.711 683.637 371.962 685.235 371.691C686.833 371.42 688.476 371.641 689.945 372.325C695.617 372.325 695.537 373.841 689.945 377.431C683.475 389.956 658.791 397.296 646.888 401.364C634.986 405.433 620.447 408.624 606.947 412.294C550.31 427.851 506.774 470.452 450.138 486.887C450.138 486.887 450.138 487.604 450.138 487.525C506.774 475.159 549.592 434.313 604.471 418.676C625.64 412.693 647.767 408.863 667.658 399.051C678.682 393.626 699.611 383.095 701.928 368.735C702.028 368.112 701.937 367.473 701.666 366.903C701.395 366.334 700.957 365.859 700.41 365.544C692.981 361.954 685.791 365.544 678.921 368.655L667.898 373.681C658.312 375.755 657.273 374.479 664.942 369.772C670.214 362.512 681.957 357.965 689.466 353.817C721.419 335.148 743.387 307.226 770.307 282.016C771.825 280.58 769.588 277.947 767.91 279.144C744.984 295.897 728.928 321.028 705.602 337.701Z" fill="#60BFEE"/>
</g>
<g style="mix-blend-mode:screen" opacity="0.76">
<path d="M641.377 324.059C641.243 324.352 641.184 324.674 641.207 324.995C641.231 325.317 641.335 325.627 641.51 325.897C641.685 326.167 641.926 326.389 642.21 326.542C642.494 326.695 642.812 326.774 643.134 326.772C655.756 325.734 663.744 315.363 670.933 305.79C672.291 303.955 669.655 301.562 668.297 303.397C664.237 310.149 658.792 315.967 652.321 320.469C636.344 327.41 655.995 309.699 658.791 307.146C664.143 302.359 689.866 281.856 691.943 291.191C695.937 310.018 647.049 333.234 634.427 340.254C621.806 347.275 547.195 383.813 564.849 396.099C572.838 401.763 596.323 390.435 604.791 387.403C608.385 386.127 636.105 375.117 635.705 380.781C635.146 388.759 611.74 390.355 604.871 392.19C576.592 399.529 550.471 415.405 525.467 430.164C494.952 448.194 465.635 477.313 428.969 480.584C456.848 481.462 478.177 463.91 500.864 449.949C531.778 430.802 566.287 408.863 601.276 398.412C605.749 397.056 664.463 383.414 638.261 373.043C626.519 368.336 605.829 381.898 595.045 385.568C580.826 390.355 556.382 397.535 581.625 377.59C594.174 368.7 607.334 360.702 621.007 353.657C645.371 339.616 699.771 319.99 697.614 283.851C697.591 283.475 697.485 283.109 697.303 282.778C697.121 282.448 696.869 282.162 696.563 281.941C696.258 281.72 695.907 281.569 695.536 281.499C695.166 281.429 694.784 281.442 694.419 281.537C674.049 286.643 648.327 303.955 641.377 324.059Z" fill="#60BFEE"/>
</g>
<g style="mix-blend-mode:screen" opacity="0.76">
<path d="M467.952 495.423C467.866 495.46 467.793 495.521 467.742 495.599C467.691 495.677 467.664 495.768 467.664 495.862C467.664 495.955 467.691 496.046 467.742 496.124C467.793 496.202 467.866 496.263 467.952 496.3C488.162 500.848 507.893 494.306 527.464 490.158C542.722 486.966 576.432 481.382 584.101 463.831C592.728 443.966 555.343 451.704 546.636 454.576C539.367 456.97 498.707 470.532 511.727 484.254C523.151 495.901 559.178 474.281 565.728 464.309C566.527 463.112 565.728 461.836 564.45 461.437C559.849 460.342 555.045 460.433 550.489 461.703C545.933 462.973 541.776 465.38 538.408 468.697C538.069 468.919 537.832 469.267 537.75 469.663C537.668 470.06 537.746 470.473 537.969 470.811C538.191 471.15 538.539 471.386 538.936 471.468C539.333 471.551 539.747 471.472 540.086 471.25C547.275 466.942 565.888 462.714 550.63 471.729C544.719 475.159 533.615 482.339 526.186 481.781C518.757 481.222 512.926 481.302 520.035 471.09C521.633 468.777 526.186 467.421 528.663 466.144C535.655 462.678 542.922 459.796 550.391 457.528C556.302 455.773 567.246 451.864 573.157 454.736C593.208 464.389 551.03 480.744 541.204 483.456C518.278 489.44 491.437 497.338 467.952 495.423Z" fill="#60BFEE"/>
</g>
<g style="mix-blend-mode:screen" opacity="0.76">
<path d="M533.775 106.903C533.536 107.202 533.376 107.556 533.308 107.932C533.241 108.309 533.267 108.696 533.386 109.059C533.505 109.423 533.712 109.752 533.989 110.016C534.266 110.28 534.604 110.471 534.973 110.573C550.151 113.365 531.218 120.306 526.346 122.38C516.858 125.119 507.232 127.356 497.508 129.081C482.595 133.293 468.499 139.982 455.809 148.866C455.607 149.039 455.445 149.252 455.333 149.493C455.222 149.735 455.164 149.997 455.164 150.262C455.164 150.528 455.222 150.79 455.333 151.031C455.445 151.272 455.607 151.486 455.809 151.658C468.271 161.95 487.762 148.787 499.425 156.605C526.825 174.794 418.185 241.409 405.963 250.344C384.075 266.3 294.127 322.863 313.778 362.672C298.521 323.74 384.554 269.89 407.48 253.216C437.996 231.118 491.038 208.78 506.854 171.204C512.606 157.642 505.576 153.653 492.316 152.935C486.165 152.536 479.694 153.972 473.623 152.935C452.135 149.903 475.7 141.048 487.123 136.979C508.452 129.48 532.177 129.001 551.029 116.397C551.3 116.164 551.516 115.877 551.665 115.553C551.814 115.23 551.891 114.878 551.891 114.522C551.891 114.166 551.814 113.814 551.665 113.49C551.516 113.167 551.3 112.879 551.029 112.647C553.665 115.439 542.162 102.754 541.124 105.946C542.242 98.5262 565.089 96.3722 569.083 95.9733C583.121 94.8964 597.222 94.8964 611.261 95.9733C635.865 97.0104 663.823 95.9732 671.572 68.2104C672.211 65.8171 668.536 65.0194 667.818 67.333C651.362 120.625 563.89 68.4498 533.775 106.903Z" fill="#60BFEE"/>
</g>
<g style="mix-blend-mode:screen" opacity="0.76">
<path d="M457.887 29.9169C451.736 41.5645 459.165 48.7444 444.866 59.674C435.919 66.5349 420.901 66.934 410.676 69.5667C391.664 74.3534 373.371 79.2995 362.746 96.6114C362.494 97.1528 362.462 97.7708 362.655 98.3358C362.849 98.9008 363.254 99.3692 363.785 99.643C374.17 106.663 383.356 99.0845 393.661 95.6541C408.999 90.4685 396.776 96.7711 389.108 100.281C381.439 103.792 373.131 106.983 365.143 110.413C350.604 116.476 317.213 126.927 320.808 148.388C320.831 148.743 320.932 149.089 321.106 149.401C321.28 149.712 321.521 149.981 321.812 150.187C322.103 150.394 322.436 150.533 322.788 150.594C323.139 150.655 323.5 150.637 323.844 150.542C332.471 148.148 332.87 147.67 325.202 152.616C320.033 155.577 314.698 158.24 309.225 160.594C301.072 163.899 293.916 169.258 288.456 176.15C287.098 177.985 289.494 180.299 291.092 178.623C305.551 163.864 327.119 160.992 340.699 145.196C341.021 144.804 341.21 144.32 341.239 143.814C341.268 143.308 341.135 142.805 340.86 142.379C340.584 141.953 340.18 141.626 339.706 141.444C339.232 141.262 338.713 141.235 338.223 141.367C315.776 147.749 334.308 130.836 342.936 125.411C352.957 120.021 363.34 115.329 374.01 111.37C385.992 106.424 400.93 102.196 410.197 92.6224C410.467 92.3024 410.651 91.9194 410.732 91.5088C410.813 91.0983 410.789 90.6738 410.661 90.2752C410.534 89.8767 410.307 89.5171 410.002 89.23C409.697 88.9429 409.324 88.7376 408.919 88.6335C404.177 87.6166 399.243 87.9765 394.699 89.6707C390.129 92.1668 385.343 94.2493 380.401 95.8934L388.389 80.7356C391.984 79.2996 395.578 78.1029 399.333 76.986C415.309 71.9599 440.552 71.96 452.694 58.6371C455.828 54.2444 458.08 49.2863 459.325 44.0375C464.916 30.9539 452.614 38.8519 476.339 28.0819C491.757 20.8221 490.958 20.1041 504.059 23.9335C528.982 30.8742 541.603 26.247 565.329 16.4343C549.352 20.5828 534.254 28.401 517.399 24.8109C507.094 22.6569 497.428 16.8331 486.724 16.8331C481.168 16.027 475.496 16.8315 470.384 19.1509C465.272 21.4703 460.934 25.2071 457.887 29.9169Z" fill="#60BFEE"/>
</g>
<g style="mix-blend-mode:screen" opacity="0.76">
<path d="M721.978 128.762C732.363 150.94 716.227 163.226 700.01 175.911C689.945 183.889 677.324 189.074 668.057 197.212C656.155 207.264 665.182 219.47 659.67 234.229C647.927 265.183 618.051 274.118 597.521 295.02C590.811 301.96 591.929 302.998 591.849 310.975C592.398 311.561 593.084 312 593.846 312.252C599.039 314.087 599.199 319.592 593.846 328.766C590.811 335.467 577.151 342.887 570.521 346.557C550.71 357.646 530.58 358.443 509.091 363.31C482.73 369.134 468.271 389.796 449.419 407.587C441.431 415.565 382.557 464.948 375.368 431.52C379.202 465.187 434.8 423.543 444.386 415.565C462.919 399.609 478.017 376.394 501.902 368.336C519.875 362.353 539.287 363.789 557.18 356.768C571.16 351.343 602.234 337.302 602.474 317.836C602.474 310.337 596.323 312.73 596.562 305.471C596.562 292.706 617.492 285.845 626.998 278.346C644.812 264.146 664.702 240.85 668.936 217.316C668.936 215.481 666.619 213.726 666.779 212.37C668.057 198.01 671.492 199.366 681.318 193.223C694.139 185.328 706.129 176.16 717.105 165.859C722.298 160.992 735.798 149.903 735.478 141.287C735.478 130.597 707.759 120.625 728.049 107.062C728.39 106.831 728.628 106.478 728.714 106.076C728.8 105.674 728.727 105.254 728.511 104.904C728.294 104.554 727.951 104.301 727.553 104.198C727.154 104.095 726.731 104.149 726.372 104.35C713.031 112.088 716.386 117.035 721.978 128.762Z" fill="#60BFEE"/>
</g>
<g style="mix-blend-mode:screen" opacity="0.76">
<path d="M679.8 244.281C671.093 250.823 665.022 260.955 656.554 268.214C649.285 274.118 640.578 278.506 633.628 284.17C629.554 287.281 621.406 292.148 620.687 297.892C619.649 306.747 624.122 307.705 631.471 305.87C640.578 303.875 653.519 289.914 660.309 284.409C675.886 271.884 690.185 258.003 708.877 250.264C708.981 250.223 709.07 250.151 709.133 250.059C709.196 249.966 709.229 249.857 709.229 249.746C709.229 249.634 709.196 249.525 709.133 249.433C709.07 249.34 708.981 249.269 708.877 249.227C684.913 254.971 665.901 273.161 646.729 288.638C641.217 293.025 623.643 306.349 632.829 289.755C637.223 281.777 652.001 276.272 658.951 270.448C673.33 258.402 682.916 243.483 701.928 237.978C713.053 236.002 724.045 233.337 734.839 230.001C747.86 224.416 762.079 215.401 763.837 200.004C755.529 238.776 703.286 226.331 679.8 244.281Z" fill="#60BFEE"/>
</g>
<g style="mix-blend-mode:screen" opacity="0.76">
<path d="M616.453 108.818C604.95 108.818 595.844 108.1 589.932 119.029C589.773 119.379 589.703 119.763 589.73 120.147C589.757 120.53 589.879 120.901 590.085 121.226C590.291 121.55 590.575 121.819 590.911 122.006C591.247 122.194 591.624 122.295 592.009 122.3C598.765 122.448 605.522 122.074 612.219 121.183C614.456 121.183 624.122 119.189 625.56 120.465L616.453 137.857H610.222C596.802 141.208 579.787 135.065 565.728 137.219C527.943 142.963 565.728 159.078 554.065 179.74C548.793 188.835 530.579 196.494 521.553 201.28C507.414 208.78 492.635 214.843 478.177 221.464C457.982 230.692 439.294 242.902 422.738 257.684C401.934 277.238 382.15 297.848 363.465 319.432C359.551 323.66 344.853 344.482 339.5 343.924L331.512 332.755L339.5 325.575C344.652 321.735 350.227 318.496 356.116 315.922C342.536 321.427 322.805 331.877 323.524 349.109C323.523 349.221 323.546 349.332 323.591 349.435C323.636 349.537 323.703 349.629 323.785 349.704C323.868 349.779 323.966 349.836 324.072 349.871C324.179 349.906 324.291 349.918 324.403 349.907C347.409 351.902 368.258 318.953 381.758 304.593C398.457 285.788 416.447 268.167 435.599 251.86C455.088 237.665 476.257 225.929 498.627 216.917C515.482 208.939 559.816 194.18 564.609 171.763C566.686 162.349 561.574 164.981 559.177 157.881C551.189 135.224 578.03 140.649 590.651 141.367C601.515 141.926 638.581 147.111 639.859 126.528C640.578 114.003 625.799 115.838 617.012 116.237C611.002 117.319 604.906 117.853 598.799 117.833C583.462 115.439 614.776 113.764 619.009 113.524C632.549 114.156 646.089 112.289 658.951 108.02C670.294 103.393 694.978 89.3518 690.904 72.5984C690.703 72.0309 690.296 71.5597 689.763 71.2788C689.23 70.9979 688.61 70.9279 688.028 71.0826C683.954 71.8006 685.392 71.6409 681.078 75.3904C679.081 77.0658 681.078 80.4963 683.315 78.9007C685.552 77.3051 680.519 88.3145 680.04 89.1123C674.767 97.0901 659.989 103.153 650.883 106.105C639.665 109.084 627.999 110.003 616.453 108.818Z" fill="#60BFEE"/>
</g>
<g style="mix-blend-mode:screen" opacity="0.76">
<path d="M552.707 235.665C528.343 249.945 501.343 257.843 477.937 273.959C476.499 274.996 476.739 277.788 478.656 278.027C485.533 278.322 492.417 277.651 499.106 276.033C511.887 274.118 523.071 277.469 512.287 292.627C507.254 299.727 494.792 302.28 486.884 304.833C473.304 309.3 439.993 314.007 435.759 332.197C433.283 342.887 440.792 343.126 449.898 342.727C478.337 341.451 498.547 320.709 520.994 306.109C505.816 315.363 491.997 328.367 475.221 334.67C468.99 336.983 455.97 342.009 449.898 340.095C420.022 330.442 485.526 310.497 494.393 307.386C503.26 304.274 541.843 282.415 520.595 270.528C514.204 266.938 487.923 277.469 485.366 274.038C485.926 274.836 550.391 242.925 559.417 237.42C583.941 222.262 602.794 199.765 627.717 185.165C635.75 180.04 644.101 175.43 652.72 171.364C664.463 166.338 671.493 168.412 659.59 179.341C653.918 184.687 641.617 186.681 634.267 188.596C631.951 189.234 633.149 192.665 635.386 192.186C652.081 189.154 668.138 184.208 676.206 167.774C676.488 167.179 676.529 166.498 676.32 165.874C676.112 165.25 675.67 164.73 675.087 164.423C654.717 155.248 621.566 181.815 606.948 192.984C588.495 206.865 572.758 224.017 552.707 235.665Z" fill="#60BFEE"/>
</g>
<g style="mix-blend-mode:screen" opacity="0.76">
<path d="M334.388 179.421C335.027 184.288 342.376 184.048 343.654 187.399C347.649 198.488 308.746 218.832 302.275 226.411C302.116 226.567 301.989 226.753 301.903 226.958C301.816 227.164 301.772 227.384 301.772 227.607C301.772 227.83 301.816 228.051 301.903 228.256C301.989 228.462 302.116 228.648 302.275 228.804C319.77 241.17 338.702 233.83 356.036 225.054C369.057 218.513 381.758 210.934 394.46 203.674C399.253 200.961 437.357 174.714 438.795 192.026C439.513 200.483 375.687 233.271 368.019 238.218C351.831 247.294 337.124 258.781 324.403 272.283C312.261 287.122 305.311 305.949 295.246 322.224C295.246 322.703 295.725 323.261 296.044 322.783C307.468 307.545 314.178 288.797 326.56 274.278C342.536 255.53 365.382 244.201 385.513 230.719C401.489 220.188 432.723 209.737 442.07 192.744C446.224 185.165 444.866 181.495 436.638 180.458C430.407 179.581 422.019 185.325 416.507 188.037C400.531 196.015 384.554 205.509 369.297 214.205C357.714 220.587 341.577 232.713 327.598 231.676C318.092 230.958 313.459 223.698 319.61 215.72C321.607 213.088 327.598 211.332 330.234 209.577C335.427 206.386 344.453 202.637 347.249 196.494C352.521 184.846 336.864 183.011 342.376 172.56C345.412 166.737 362.427 160.514 368.178 157.004C377.605 151.26 386.951 145.356 396.297 139.532C416.188 127.166 436.238 116.317 456.848 104.829C496.07 82.6502 531.139 62.7057 574.994 50.5794C591.454 45.0123 609.104 43.9381 626.119 47.468C645.53 51.9355 628.515 63.4238 618.131 64.8598C608.274 65.0923 598.426 64.1006 588.814 61.9078C554.704 58.238 522.511 72.5184 494.792 90.9472C494.534 91.1389 494.357 91.4211 494.298 91.7372C494.238 92.0533 494.301 92.38 494.472 92.6522C494.644 92.9243 494.912 93.1218 495.223 93.2051C495.534 93.2883 495.865 93.2511 496.15 93.1011C530.979 72.5981 562.373 63.1046 602.634 67.5722C612.779 68.7689 637.462 73.8746 644.173 61.9877C660.149 33.5068 582.823 43.6387 573.716 46.032C501.263 66.3755 437.916 109.296 374.489 148.946C367.14 153.972 332.551 166.976 334.388 179.421Z" fill="#60BFEE"/>
</g>
<g style="mix-blend-mode:screen" opacity="0.76">
<path d="M337.264 392.668C337.216 392.892 337.219 393.124 337.273 393.347C337.327 393.569 337.432 393.777 337.578 393.953C337.724 394.13 337.908 394.271 338.117 394.366C338.325 394.462 338.553 394.508 338.782 394.503C352.362 394.982 366.341 368.177 368.099 356.768C368.099 355.731 367.3 354.774 366.341 355.093C365.17 355.476 364.023 355.929 362.906 356.449C366.581 352.301 372.572 346.716 375.608 352.779C378.643 358.842 371.853 367.219 369.537 371.368C367.22 375.516 347.249 408.225 338.622 403.757C338.622 403.757 338.063 404.236 338.622 404.236C349.806 405.672 360.67 388.759 366.182 381.18C371.694 373.601 384.075 358.922 377.525 349.748C366.501 334.51 339.181 384.052 337.264 392.668ZM364.824 359.082C364.271 361.392 363.354 363.6 362.108 365.623C359.985 369.88 357.527 373.961 354.758 377.83C352.773 380.645 350.584 383.312 348.208 385.807C346.487 387.698 344.462 389.289 342.217 390.514C340.14 391.472 340.939 392.509 340.619 391.551C339.741 388.679 346.69 379.186 347.968 376.952C350.761 372.204 353.828 367.622 357.155 363.23C357.288 363.307 357.44 363.348 357.594 363.348C357.749 363.348 357.9 363.307 358.034 363.23L365.223 357.646L364.824 359.082Z" fill="#60BFEE"/>
</g>
<g style="mix-blend-mode:screen" opacity="0.76">
<path d="M776.059 294.621C767.431 305.87 755.289 313.05 746.422 324.139C746.211 324.398 746.068 324.705 746.006 325.033C745.944 325.361 745.966 325.7 746.069 326.018C746.173 326.335 746.354 326.622 746.597 326.851C746.84 327.081 747.137 327.245 747.461 327.33C752.014 328.527 754.57 326.453 758.485 327.33C764.715 328.447 762.159 318.315 763.517 330.441C764.396 337.781 758.884 343.605 754.81 349.03C745.581 359.208 736.889 369.86 728.768 380.941C728.512 381.494 728.477 382.124 728.67 382.702C728.863 383.28 729.27 383.763 729.807 384.052C739.792 389.637 699.531 415.964 694.818 418.118C673.33 429.686 648.886 432.637 628.356 446.359C628.123 446.546 627.934 446.783 627.805 447.052C627.676 447.321 627.608 447.616 627.608 447.915C627.608 448.213 627.676 448.508 627.805 448.778C627.934 449.047 628.123 449.284 628.356 449.471C633.868 455.933 635.306 452.742 641.297 455.534C653.439 461.278 652.401 462.315 639.939 471.489C631.878 477.233 623.324 482.251 614.376 486.488C604.95 491.354 595.604 496.62 586.098 501.406C579.789 504.733 573.217 507.535 566.447 509.783C562.582 511.2 558.558 512.137 554.464 512.575C549.512 499.093 554.464 494.386 570.441 498.614C570.563 498.569 570.669 498.487 570.743 498.38C570.818 498.273 570.858 498.146 570.858 498.016C570.858 497.885 570.818 497.758 570.743 497.651C570.669 497.544 570.563 497.463 570.441 497.417C564.466 496.193 558.272 496.599 552.508 498.593C546.745 500.586 541.626 504.093 537.689 508.746C537.47 508.969 537.347 509.27 537.347 509.583C537.347 509.897 537.47 510.197 537.689 510.421C551.988 520.872 570.92 511.698 584.66 505.076C611.021 492.631 641.217 480.424 659.031 456.411C659.22 456.2 659.358 455.948 659.434 455.675C659.509 455.402 659.52 455.115 659.466 454.837C659.412 454.558 659.294 454.296 659.121 454.071C658.949 453.846 658.726 453.664 658.472 453.539C652.241 449.55 637.063 454.018 637.223 444.843C637.223 440.057 687.149 426.973 693.141 423.782C705.123 417.799 728.529 406.231 734.28 393.147C735.139 390.112 735.78 387.019 736.197 383.893C736.197 382.856 733.721 381.499 733.801 381.021C734.839 375.995 741.31 370.809 744.425 367.139C754.97 354.854 773.343 338.579 768.39 320.07C768.314 319.76 768.165 319.472 767.955 319.231C767.745 318.99 767.48 318.804 767.183 318.686C766.885 318.569 766.564 318.525 766.246 318.557C765.927 318.59 765.622 318.698 765.354 318.874C764.313 319.872 763.021 320.569 761.614 320.892C760.207 321.215 758.739 321.152 757.366 320.708C748.739 320.708 751.695 316.799 766.313 309.779C770.765 306 774.64 301.593 777.816 296.695C779.414 295.02 777.257 292.866 776.059 294.621Z" fill="#60BFEE"/>
</g>
<g style="mix-blend-mode:multiply" opacity="0.76">
<path d="M596.642 442.849C594.885 442.29 594.166 441.971 596.642 442.849V442.849Z" fill="#60BFEE"/>
</g>
<g style="mix-blend-mode:multiply" opacity="0.76">
<path d="M596.562 442.849C598.879 443.567 602.873 444.764 602.314 444.125C607.826 442.051 608.225 443.727 603.672 449.231C603.279 451.164 602.448 452.981 601.244 454.544C600.039 456.106 598.493 457.373 596.722 458.246C584.58 470.692 565.328 477.473 549.831 483.855C523.169 496.218 494.419 503.471 465.076 505.236V505.874C484.966 510.581 505.816 504.677 524.668 498.774C548.793 492.28 571.851 482.338 593.128 469.256C599.279 465.187 622.285 451.864 617.092 440.216C613.338 431.281 604.071 437.424 596.882 437.344C593.766 437.265 593.846 441.812 596.562 442.849Z" fill="#60BFEE"/>
</g>
<g style="mix-blend-mode:multiply" opacity="0.76">
<path d="M732.443 333.234C732.063 334.066 732.008 335.01 732.289 335.881C732.569 336.752 733.166 337.486 733.96 337.941C760.162 349.349 692.661 393.785 682.356 398.572C661.507 408.465 638.74 414.528 621.246 430.483V430.882C660.069 409.741 721.179 398.971 744.904 356.05C746.777 353.172 747.923 349.882 748.243 346.464C748.563 343.045 748.048 339.6 746.742 336.425C745.703 331.957 742.827 337.861 743.307 331.159C743.307 326.612 750.895 321.267 753.611 318.714C761.6 311.454 769.987 305.232 777.576 298.051C779.893 295.977 776.538 292.387 773.982 293.903C757.464 303.877 743.296 317.293 732.443 333.234Z" fill="#60BFEE"/>
</g>
<g style="mix-blend-mode:multiply" opacity="0.76">
<path d="M703.285 268.534C733.801 297.972 621.805 360.438 602.394 374.16C602.327 374.251 602.29 374.359 602.286 374.472C602.283 374.584 602.313 374.695 602.373 374.789C602.434 374.884 602.522 374.959 602.625 375.003C602.728 375.047 602.843 375.059 602.953 375.037C633.063 359.15 661.463 340.224 687.708 318.555C697.055 310.577 708.717 300.046 712.552 287.441C712.882 279.931 712.156 272.412 710.395 265.103C712.392 263.268 709.516 260.316 707.359 261.513L703.285 263.747C702.92 264.03 702.625 264.393 702.422 264.808C702.219 265.223 702.113 265.678 702.113 266.14C702.113 266.602 702.219 267.058 702.422 267.472C702.625 267.887 702.92 268.25 703.285 268.534Z" fill="#60BFEE"/>
</g>
<g style="mix-blend-mode:multiply" opacity="0.76">
<path d="M636.824 224.496C637.303 247.073 618.131 262.63 603.273 276.352C584.023 294.194 562.952 309.97 540.405 323.421C495.431 350.226 446.703 362.672 399.253 383.095V383.494C456.289 376.952 516.281 347.913 563.332 316.081C590.332 297.812 645.052 263.029 642.655 224.257C642.515 223.569 642.134 222.954 641.581 222.521C641.028 222.088 640.339 221.866 639.637 221.895C638.935 221.924 638.266 222.202 637.751 222.678C637.235 223.155 636.906 223.799 636.824 224.496Z" fill="#60BFEE"/>
</g>
<g style="mix-blend-mode:multiply" opacity="0.76">
<path d="M472.106 158.998C486.405 176.868 388.469 227.767 382.158 231.516C361.262 243.933 343.412 260.861 329.915 281.059C316.015 300.684 307.548 325.974 289.973 342.009C289.574 342.009 289.973 343.046 290.612 342.727C298.908 337.699 305.695 330.534 310.264 321.985C320.249 305.319 331.324 289.329 343.415 274.118C370.175 241.648 407.321 230.559 440.392 206.466C448.94 200.164 496.31 166.577 476.18 155.009C473.464 153.174 470.268 156.445 472.106 158.998Z" fill="#60BFEE"/>
</g>
<g style="mix-blend-mode:multiply" opacity="0.76">
<path d="M373.69 186.522C373.69 186.522 373.69 187 373.69 186.522C418.345 143.76 470.268 121.024 528.263 102.675C558.72 93.8404 589.883 87.6478 621.406 84.166C640.831 81.5625 658.826 72.5486 672.531 58.5572C675.487 55.6852 670.694 51.3771 667.738 54.1693C641.217 79.1399 611.181 76.5871 577.71 82.9694C547.388 89.5147 517.59 98.2877 488.561 109.216C446.064 124.374 399.732 147.191 373.69 186.522Z" fill="#60BFEE"/>
</g>
<g style="mix-blend-mode:multiply" opacity="0.76">
<path d="M493.594 395.461C486.993 395.551 480.516 397.274 474.745 400.477C468.974 403.679 464.087 408.26 460.523 413.81C452.534 424.899 447.022 437.105 436.158 445.721C427.839 452.965 417.559 457.588 406.613 459.008C395.667 460.427 384.545 458.58 374.649 453.699C384.573 459.524 396.076 462.095 407.54 461.051C419.003 460.006 429.851 455.398 438.555 447.875C445.422 441.711 451.296 434.526 455.969 426.574C466.114 411.097 474.342 400.566 494.233 398.652C500.497 398.44 506.74 397.827 512.926 396.817C535.452 391.631 535.293 370.331 554.704 364.267C579.947 356.29 598.799 350.067 612.22 324.378C612.277 324.273 612.314 324.158 612.327 324.039C612.34 323.921 612.33 323.8 612.296 323.686C612.263 323.571 612.207 323.464 612.132 323.37C612.058 323.277 611.965 323.199 611.86 323.142C611.755 323.084 611.64 323.047 611.521 323.034C611.402 323.021 611.282 323.032 611.167 323.065C611.052 323.098 610.944 323.154 610.851 323.229C610.758 323.303 610.68 323.396 610.622 323.501C600.982 340.592 585.232 353.415 566.527 359.401C559.497 361.236 549.272 359.401 542.961 363.629C539.447 365.943 539.926 368.655 538.089 370.33L535.053 378.308C532.679 382.308 529.423 385.716 525.534 388.273C521.645 390.831 517.224 392.47 512.606 393.067C506.35 394.412 499.989 395.213 493.594 395.461Z" fill="#60BFEE"/>
</g>
<g style="mix-blend-mode:multiply" opacity="0.76">
<path d="M669.176 108.658C675.167 118.072 666.7 128.363 659.83 132.591C655.182 135.338 650.254 137.585 645.131 139.293C637.143 141.846 627.717 140.968 619.809 144.239C610.143 148.228 613.817 148.866 611.181 154.929C605.19 168.491 609.663 167.614 597.761 172.959C592.888 175.033 587.856 176.629 582.983 178.544C576.319 181.326 569.812 184.468 563.491 187.957C537.769 201.44 512.686 211.891 489.44 229.442C459.245 252.498 412.593 277.309 398.774 315.922C390.785 337.542 397.975 362.911 387.989 383.813C381.04 398.332 363.625 406.869 361.628 423.702C361.594 423.914 361.605 424.13 361.661 424.337C361.717 424.544 361.816 424.737 361.952 424.902C362.088 425.068 362.257 425.203 362.449 425.299C362.641 425.395 362.852 425.449 363.066 425.457C369.716 425.704 376.208 423.391 381.199 418.995C381.199 418.596 381.199 417.878 380.72 418.197C369.057 416.283 366.581 412.772 373.371 407.587L377.445 403.279C381.532 399.237 385.273 394.86 388.628 390.195C393.243 381.501 395.966 371.931 396.617 362.113C398.614 344.881 396.617 327.25 404.605 311.215C413.944 295.149 426.774 281.381 442.15 270.927C471.387 248.27 500.384 223.06 533.935 207.104C547.195 200.802 560.216 193.781 573.876 187.558C584.74 182.453 597.841 180.059 607.906 173.358C612.007 170.492 615.395 166.726 617.811 162.349C619.409 160.115 616.773 158.918 617.811 157.243C622.6 151.4 629.309 147.443 636.744 146.074C648.806 142.564 669.336 138.575 675.726 125.571C677.803 121.263 675.726 117.593 677.324 113.604C678.922 109.615 674.368 111.69 677.324 108.259C680.28 104.829 688.987 105.945 691.863 105.227C702.088 102.595 715.108 99.8024 712.313 86.639C711.753 84.1659 707.52 84.8839 707.919 87.4368C710.156 100.6 678.602 102.355 670.933 105.068C670.54 105.118 670.165 105.266 669.843 105.497C669.521 105.728 669.261 106.034 669.087 106.39C668.913 106.746 668.83 107.14 668.845 107.535C668.861 107.931 668.974 108.317 669.176 108.658Z" fill="#60BFEE"/>
</g>
<g style="mix-blend-mode:screen" opacity="0.47">
<path d="M401.33 32.5495C279.589 101.877 238.05 259.518 308.426 384.531C311.382 389.876 314.577 394.902 317.853 399.928C325.741 404.847 334.188 408.811 343.015 411.735C375.115 421.574 409.129 423.468 442.124 417.256C475.12 411.043 506.108 396.91 532.417 376.074C580.347 336.584 616.134 261.752 622.604 199.525C628.094 151.702 619.224 103.329 597.122 60.5517C583.404 34.7838 562.178 13.7806 536.251 0.319119C489.115 -2.05747 442.287 9.12895 401.33 32.5495Z" fill="#60BFEE"/>
</g>
<g style="mix-blend-mode:multiply" opacity="0.42">
<path d="M749.138 133.389C721.881 84.5578 679.658 45.7458 628.675 22.657L629.874 24.4122C685.232 115.758 684.434 239.175 616.933 321.107C583.8 360.703 543.436 393.65 497.988 418.197C454.405 441.423 404.832 451.014 355.717 445.721C394.734 483.962 445.124 508.525 499.315 515.718C553.506 522.911 608.571 512.345 656.235 485.61C777.896 416.043 819.515 258.402 749.138 133.389Z" fill="#1A7AA0"/>
</g>
<g style="mix-blend-mode:multiply" opacity="0.42">
<path d="M749.138 133.389C739.528 116.234 728.063 100.182 714.949 85.5223C715.668 89.6708 716.466 93.5 717.105 96.6114C735.079 182.453 737.156 265.023 687.709 338.419C673.569 359.481 662.466 381.659 644.412 399.848C625.686 417.981 604.625 433.541 581.784 446.12C561.83 456.889 541.016 465.988 519.556 473.324C488.654 485.742 455.649 492.107 422.339 492.072C441.699 501.524 462.178 508.494 483.289 512.814C506.877 511.884 530.328 508.786 553.346 503.56C576.906 498.125 598.939 487.464 617.811 472.367C644.013 452.103 671.892 432.478 693.78 407.507C710.839 388.702 726.84 368.967 741.709 348.391C764.795 314.964 771.346 283.213 773.662 242.207C774.461 227.049 775.02 211.971 774.86 197.132C769.055 174.872 760.41 153.449 749.138 133.389Z" fill="#1A7AA0"/>
</g>
<path d="M730.366 104.749C736.157 112.407 741.492 120.398 746.342 128.682C835.731 103.153 896.601 95.1754 902.992 111.131C914.575 139.532 757.206 230.798 551.509 314.725C345.811 398.652 169.351 443.806 157.688 415.405C150.978 399.051 200.026 362.113 281.825 317.677C279.529 308.452 277.769 299.102 276.553 289.675C102.249 374.479 -11.024 450.189 0.71876 479.467C17.2544 519.835 267.846 455.534 560.376 336.425C852.906 217.316 1076.58 87.5167 1060.04 47.0691C1048.3 18.1096 914.176 43.3994 730.366 104.749Z" fill="#6CD4F4"/>
<g style="mix-blend-mode:screen" opacity="0.47">
<path d="M410.436 67.4126C382.797 57.5998 343.814 107.302 333.35 126.927C306.509 177.028 296.604 245.557 335.187 295.1C353.081 318.076 385.114 317.996 410.836 311.614C430.341 307.075 448.739 298.68 464.942 286.923C481.146 275.167 494.826 260.288 505.177 243.164C526.745 206.386 538.728 169.289 528.583 125.89C523.95 106.424 517.639 87.7562 499.665 77.0659C477.937 64.1418 445.665 62.227 410.436 67.4126Z" fill="#60BFEE"/>
</g>
<g style="mix-blend-mode:screen" opacity="0.47">
<path d="M358.353 135.065C342.377 151.579 326.4 203.116 363.785 204.232C411.954 205.908 399.732 118.072 358.353 135.065Z" fill="#60BFEE"/>
</g>
<path opacity="0.51" d="M738.753 116.556C740.99 120.066 743.227 123.576 745.464 127.246C875.992 83.2086 966.658 62.7854 973.368 79.3792C983.513 104.27 792.195 205.908 546.077 306.428C299.959 406.949 92.0243 468.139 81.8792 443.248C75.1691 426.893 155.691 377.271 281.586 316.64C280.627 312.571 279.748 308.662 278.949 304.354C136.918 373.681 45.7722 432.877 54.5593 454.417C67.5003 486.328 289.734 425.138 551.029 318.794C812.325 212.449 1013.55 100.042 1000.61 68.5295C991.901 46.431 887.015 67.5721 738.753 116.556Z" fill="#B3EDFF"/>
<path opacity="0.62" d="M749.857 135.064C753.531 141.686 756.887 148.387 759.922 155.248C773.263 153.733 781.331 154.77 782.928 158.679C789.638 174.634 681.877 234.308 542.322 291.27C402.767 348.232 284.222 381.26 277.591 364.985C276.074 361.156 280.867 354.933 290.932 346.876C288.216 339.775 285.979 332.595 283.982 325.336C210.171 364.347 165.996 395.7 171.188 408.385C180.694 431.52 349.086 384.451 547.355 303.636C745.623 222.821 898.838 138.415 889.332 115.279C884.14 102.196 830.299 111.131 749.857 135.064Z" fill="#7DE0FF"/>
</svg>
