<svg width="44" height="44" viewBox="0 0 44 44" fill="none" xmlns="http://www.w3.org/2000/svg">
<g clip-path="url(#clip0_1_9428)">
<path d="M22 44C34.1503 44 44 34.1503 44 22C44 9.84974 34.1503 0 22 0C9.84974 0 0 9.84974 0 22C0 34.1503 9.84974 44 22 44Z" fill="#D4803A"/>
<path opacity="0.49" d="M1.74532 13.385C2.40144 13.385 3.20192 13.5425 3.7137 13.1619C2.95915 16.7247 6.04294 18.9818 9.25141 19.4345C11.2723 19.7232 13.8443 18.3585 14.5661 16.4819C14.8941 15.6487 15.4847 14.1592 15.0516 13.3325C15.3797 14.1855 16.5541 14.3561 16.4623 13.1816C16.7379 13.7393 17.3612 14.0083 17.7745 13.5622C18.2732 14.6579 18.0567 15.7077 18.4897 16.6657C18.7587 17.2693 19.802 18.1616 20.2219 17.3218C20.3312 17.3155 20.4407 17.3155 20.55 17.3218C20.8124 18.2732 22.6561 19.3755 22.8595 17.8401C26.232 18.1813 24.8279 13.3653 23.87 11.8956C24.8476 12.4795 27.0653 12.4008 26.337 10.6949C28.1479 12.0531 27.8264 8.88398 27.1506 7.99164C29.3487 7.20428 31.3564 6.41037 31.7894 3.78585C31.8683 3.29471 31.8683 2.79413 31.7894 2.30299C29.1035 0.970045 26.1736 0.199727 23.1794 0.0392496C20.1852 -0.121227 17.1897 0.331523 14.3767 1.36975C11.5636 2.40797 8.99227 4.0098 6.82024 6.07702C4.64821 8.14423 2.92129 10.6333 1.74532 13.3916V13.385Z" fill="#552805"/>
<path opacity="0.49" d="M20.5828 22.2166C20.4319 21.403 20.1956 20.2482 19.2246 20.0448C18.2535 19.8414 17.7417 20.6681 18.2666 21.5735C17.6564 21.4226 17.2037 20.7928 16.5738 20.5566C15.8031 20.2503 14.9544 20.1997 14.1527 20.4122C11.6922 21.4489 11.4166 25.8187 13.7459 27.0391C11.1214 27.7609 15.3731 33.9219 17.8205 31.4548C17.9583 33.7775 22.0853 33.1345 22.0787 30.556C22.9186 32.3603 23.8175 30.346 23.7387 29.2437C25.799 29.3684 28.0101 29.5455 28.7253 27.0325C28.8952 26.3987 28.8975 25.7316 28.7318 25.0967C28.5662 24.4618 28.2384 23.8808 27.7805 23.4107C25.858 21.462 23.6141 21.8951 20.5828 22.2166Z" fill="#552805"/>
<path opacity="0.56" d="M8.87086 14.4151C9.96003 11.456 5.53117 9.67788 6.14793 13.011C4.65195 10.708 2.37519 14.2839 4.17954 14.566C2.7623 16.2129 0.898891 20.0644 2.80167 22.0787C5.22934 24.6245 6.82373 19.6707 7.32895 18.2075C7.78824 18.7849 8.45093 18.8637 8.64121 18.0829C9.76319 18.3388 11.4232 18.7062 11.2657 16.7706C11.0951 14.9925 9.22517 15.1303 8.87086 14.4151Z" fill="#542B24"/>
<path opacity="0.56" d="M20.3334 27.8855C20.2153 26.4158 17.9845 26.337 18.4372 27.4787C16.8297 27.2294 16.8953 30.0245 17.8795 30.72C18.9949 31.5139 20.7927 30.8643 20.3466 29.3159C21.8425 29.5061 21.9803 27.8068 20.3466 28.1348L20.3334 27.8855Z" fill="#542B24"/>
<path opacity="0.56" d="M34.4271 16.8034C36.1789 16.3113 35.4178 13.1291 34.9323 12.0268C34.5846 11.2263 33.8234 9.78943 32.7408 10.3931C31.9928 10.813 31.9797 12.1384 32.2684 12.7551C30.2213 11.8037 28.7778 13.1226 28.7581 15.5043C28.7581 16.6197 30.7265 20.3137 31.6254 18.1944C31.8288 18.9752 32.4062 19.9594 33.3904 19.7101C34.5911 19.4083 34.2959 17.768 34.4271 16.8034Z" fill="#542B24"/>
<path opacity="0.56" d="M22.0918 6.73193C21.9672 4.61919 25.3397 4.6192 24.1521 7.19122C25.4119 6.35138 25.7268 8.6019 25.4644 9.38269C25.0969 10.6031 23.5288 11.4101 22.3149 11.397C21.6773 11.3837 21.0562 11.1923 20.5216 10.8445C19.9871 10.4966 19.5606 10.0062 19.2902 9.42863C18.8309 8.45756 18.9884 6.33825 20.3137 7.8211C19.9922 6.45635 20.7927 5.40654 21.5604 7.23714L22.0918 6.73193Z" fill="#542B24"/>
<path opacity="0.56" d="M21.462 2.572C21.7113 4.17951 20.8058 3.35278 20.2022 4.08109C19.5986 4.80939 20.5172 5.19651 21.3176 5.11121C21.3469 5.35064 21.3601 5.59177 21.357 5.83296C21.8032 5.49833 21.6523 5.05872 21.836 4.56007C21.9344 4.29105 22.2953 3.73334 22.3412 3.5037C22.4094 2.99935 22.326 2.48612 22.1016 2.02929C21.8773 1.57246 21.5222 1.19267 21.0814 0.938232L21.462 2.572Z" fill="#542B24"/>
<path opacity="0.56" d="M12.2696 3.71373C11.4297 3.71373 11.666 4.36984 11.2395 4.71759C10.8451 5.0407 10.3796 5.26557 9.8813 5.37372C8.35252 5.95112 9.06113 6.8369 8.21472 7.53896C7.89978 7.80797 4.83566 8.52972 6.35132 9.28427C7.86698 10.0388 9.34983 7.11904 9.77631 6.26607C9.94112 6.38422 10.135 6.45522 10.3372 6.47141C10.5393 6.4876 10.742 6.44836 10.9236 6.35794C11.1051 6.26752 11.2585 6.12933 11.3674 5.95823C11.4762 5.78712 11.5363 5.58959 11.5413 5.38686C12.7879 5.89208 14.8219 4.73073 15.2353 3.47752C15.4978 2.72953 15.4584 2.05371 14.5792 1.77814C13.3588 1.37134 12.7092 2.75578 12.2696 3.71373Z" fill="#542B24"/>
<path opacity="0.56" d="M29.2699 35.5622C29.6352 35.3275 29.9226 34.9895 30.0955 34.5911C30.2684 34.1928 30.319 33.752 30.241 33.3248C29.8801 32.111 28.5613 32.052 28.3513 33.4101C27.1572 32.4719 26.1008 32.8656 25.3659 34.2697C23.9093 37.0779 27.2228 36.6252 28.7647 35.3129L29.2699 35.5622Z" fill="#542B24"/>
<path opacity="0.49" d="M31.4089 36.4414C29.4405 34.6174 25.1757 36.9335 24.8476 39.3415C24.2112 44.2165 32.5834 41.8873 31.4089 36.4414Z" fill="#552805"/>
<path opacity="0.49" d="M43.462 17.1971C42.7545 14.0397 41.3538 11.0791 39.3612 8.52966C37.3928 9.14642 36.9269 12.4664 37.5437 14.5661C38.2851 17.0987 38.9741 20.2022 36.4873 22.0919C35.326 22.9776 33.5347 22.7939 32.5506 23.8765C31.7894 24.7426 31.8419 26.1599 32.1306 27.2228C30.7331 26.9603 29.7292 27.9577 30.2147 29.3749C29.9963 29.3644 29.7781 29.4 29.5743 29.4792C29.3704 29.5585 29.1855 29.6797 29.0315 29.8349C28.8775 29.9902 28.7578 30.176 28.6802 30.3805C28.6026 30.5849 28.5688 30.8034 28.581 31.0218C26.2058 28.909 24.1324 32.5112 23.1876 34.3024C21.8753 34.0203 21.1798 33.2985 20.0841 34.4599C18.9884 35.6212 19.113 38.1473 16.7641 37.3075C14.4152 36.4676 15.4912 33.5872 14.1724 32.1372C12.7289 30.5494 11.5938 31.6254 10.0781 31.9141C9.47451 30.4247 10.6359 29.0731 10.5965 27.5705C10.5965 26.5273 9.28422 24.841 8.43126 26.1402C8.92991 25.3856 8.43126 24.0471 7.493 24.7098C7.493 23.7847 6.63347 23.8503 5.91172 23.824C4.41575 23.765 3.799 24.0996 3.44469 24.5983C4.0024 23.4894 3.59559 22.0394 2.55235 23.5157C2.3227 23.8437 2.4605 25.2216 1.73875 24.782C1.17448 24.4408 1.70594 23.2991 1.70594 22.8136C1.70594 21.2258 9.37283e-06 18.9424 0.0328158 21.626C0.0328158 23.8634 1.34507 27.7871 4.00895 27.8002C4.86848 29.2174 3.6809 30.5494 3.91711 32.0781C4.19268 33.8431 5.60991 34.3943 7.16493 34.2302C7.119 35.6147 7.47989 35.4244 8.34598 36.0936C9.35641 36.881 9.23829 37.9964 10.2356 38.9937C11.2329 39.9911 11.1542 39.6499 12.2368 39.5252C12.8076 39.4727 12.7289 38.8166 13.5031 39.6499C14.0018 40.1879 13.4441 40.9621 14.0018 41.428C14.1737 41.5471 14.3722 41.622 14.5799 41.6461C14.7876 41.6702 14.9981 41.6427 15.1926 41.5662C15.3872 41.4897 15.56 41.3664 15.6956 41.2073C15.8312 41.0481 15.9255 40.858 15.9702 40.6537C16.6263 40.8112 18.142 43.357 18.6406 41.4936C19.6314 42.3925 20.8321 43.1798 21.1405 41.3886C22.0197 42.4253 22.8267 41.9135 23.2139 40.844C23.7322 39.4268 22.7152 38.0555 22.6496 36.671C22.5052 33.7972 24.1455 35.8771 25.635 35.4113C25.5103 33.935 27.1572 34.847 27.8002 33.8169C29.3295 34.6595 31.1239 34.8827 32.813 34.4402C33.7775 34.1843 37.2091 32.2619 35.9034 31.0349C36.2897 31.3464 36.7839 31.4916 37.2774 31.4387C37.7708 31.3858 38.223 31.1391 38.5344 30.7528C38.8459 30.3664 38.9912 29.8722 38.9383 29.3788C38.8854 28.8854 38.6386 28.4332 38.2523 28.1217C39.8533 27.8724 40.4832 27.5968 41.2968 25.9499C42.0676 24.4386 42.5252 22.7871 42.6418 21.0945C42.6746 19.8545 42.1432 18.6997 42.1497 17.4662C42.6054 17.5448 43.074 17.4488 43.462 17.1971Z" fill="#552805"/>
<g style="mix-blend-mode:screen" opacity="0.57">
<path d="M25.7399 25.4906C26.2255 26.7635 27.6296 25.5497 27.3212 24.4867C27.0719 23.6141 24.6573 22.4068 24.9591 23.7191C24.9001 22.374 23.0892 22.7677 22.6824 23.7191C21.9934 25.3922 23.2598 26.4814 24.8607 26.3436L25.7399 25.4906Z" fill="#C6BDBA"/>
</g>
<g style="mix-blend-mode:screen" opacity="0.76">
<path d="M42.4056 29.6373C42.2613 29.2633 42.6681 28.5153 42.4647 27.997C42.3466 27.6689 41.861 27.5705 41.697 27.2556C41.533 26.9406 41.8348 26.4354 41.697 26.1336C41.4214 25.4315 39.5449 23.4369 38.4163 23.4238C39.8073 22.6758 40.1485 20.6943 39.4924 19.2639C39.453 18.3847 39.3349 17.4661 40.2469 17.5186C40.201 17.1381 40.4044 16.8625 40.4438 16.5541C41.1983 17.5252 42.2416 16.3113 41.756 15.4649C41.8495 15.5516 41.9662 15.6092 42.0919 15.6306C42.2176 15.6521 42.3468 15.6364 42.4637 15.5856C42.5806 15.5348 42.6802 15.451 42.7503 15.3446C42.8204 15.2381 42.8579 15.1135 42.8583 14.986C42.5111 13.9501 42.0878 12.9413 41.592 11.9678C41.4017 12.2105 41.3558 12.6567 41.592 13.3981C40.9359 12.1384 40.1813 14.0215 40.2273 14.7563C40.1617 14.6251 40.037 14.4873 39.9779 14.3889C38.9937 15.1762 38.9675 16.6066 38.9478 17.7942C38.7509 17.8128 38.5649 17.8932 38.4163 18.0238C38.2638 17.9351 38.1035 17.8604 37.9374 17.8008C38.5082 17.2627 39.0659 15.3272 37.8324 14.7957C38.0602 14.7117 38.2612 14.5682 38.4147 14.3801C38.5682 14.192 38.6684 13.9662 38.705 13.7262C39.02 12.1712 37.0057 10.5899 36.2905 8.97583C36.3774 8.45919 36.317 7.92852 36.1163 7.44462C35.9155 6.96071 35.5825 6.54314 35.1554 6.23976C34.1318 5.62956 33.2329 5.87889 33.456 7.15834C33.6594 8.29344 35.0832 8.89053 35.3653 9.91409C35.6212 10.8195 34.7486 12.099 36.3758 12.5386C35.4113 13.5294 35.9034 14.8679 36.776 15.688C36.3102 16.7181 33.994 20.3925 36.1199 21.0158C35.5031 21.0814 35.3391 22.2296 35.8312 22.9842C35.4178 23.0301 35.0176 23.122 34.7158 23.1482C34.0072 23.2072 33.2526 22.3346 32.9049 23.5091C32.7211 24.1258 33.3642 24.8213 33.8431 25.0772C32.9311 25.379 33.6069 26.6847 33.3773 27.4721C32.9245 27.2097 32.5571 26.7832 32.065 26.816C31.8196 26.2587 31.3977 25.7976 30.8643 25.5037C32.9114 25.2216 31.6845 20.4187 29.6439 21.4882C30.2607 20.7927 29.5324 19.6314 28.64 19.592C29.1387 19.0212 28.5547 17.9451 27.8723 17.6892C26.7963 17.289 26.8291 18.1419 26.1074 18.7128C23.8634 20.4843 25.4512 15.5765 25.2085 14.6776C24.9657 13.7787 21.5407 11.082 21.8163 12.5386C21.9672 13.326 23.601 13.7787 23.9815 14.507C24.4999 15.5043 23.3254 17.2168 24.034 17.6892C22.9842 18.2994 23.0039 20.3137 24.4342 20.3531C23.6731 21.5997 24.7886 21.8491 25.6743 21.8819C25.9958 21.8819 26.3305 21.4029 26.7176 21.5801C27.1047 21.7572 26.7176 22.4461 26.9735 22.6036C27.8986 23.2597 28.5678 22.6036 28.7319 23.9159C28.8434 24.8148 28.1676 26.5404 30.2082 26.1598C29.6701 26.8553 29.5521 27.8198 30.3263 28.2266C29.762 28.1873 29.3486 28.64 29.6045 29.5389C29.0796 29.5389 27.144 30.3656 26.8882 30.8512C25.5759 29.7095 24.3096 31.96 23.4041 33.4429C23.6338 32.3865 21.0486 30.7462 21.0289 32.7867C20.2088 32.5505 18.8375 33.2788 19.2705 34.2696C18.0895 33.6135 16.8297 32.3012 15.3337 33.2591C14.2183 33.9153 14.5004 35.3784 15.4912 36.0477C15.1236 36.2569 14.8388 36.5857 14.6842 36.9794C14.1396 36.5522 13.467 36.321 12.7748 36.3233C12.8929 33.3379 3.97614 33.8825 5.19654 30.6609C5.85266 28.8828 6.93529 31.0086 7.46019 31.2776C7.69991 31.3874 7.96627 31.4253 8.22709 31.3869C8.48791 31.3485 8.73202 31.2353 8.92991 31.0611C10.1897 29.7489 7.94573 28.5416 7.7292 29.5192C7.90636 28.3316 5.83298 26.1205 5.36057 27.5902C5.61646 26.7635 4.36327 26.1664 3.69402 26.7044C3.80556 25.8449 2.9985 25.8187 2.46704 26.232C2.49673 25.9888 2.47068 25.742 2.39083 25.5104C2.31098 25.2787 2.17945 25.0683 2.0062 24.8951C1.83295 24.7218 1.62252 24.5903 1.39088 24.5104C1.15924 24.4306 0.91246 24.4045 0.669251 24.4342C0.721741 23.5944 1.12198 22.8464 0.524902 22.0918C0.38005 21.9049 0.199372 21.7488 -0.00656128 21.6325C-0.00656128 21.7572 -0.00656128 21.8753 -0.00656128 22C0.0058765 24.5216 0.4497 27.0226 1.3057 29.3946L1.55503 29.2502C1.48383 29.4116 1.44589 29.5856 1.44348 29.762C1.51565 29.9457 1.58782 30.136 1.66656 30.3197C1.80797 30.4479 1.9813 30.5357 2.16833 30.5738C2.35536 30.6119 2.54921 30.5989 2.72951 30.5362C2.13243 32.3799 3.93677 34.204 5.74768 34.0596C5.51804 35.864 8.55592 37.3731 9.89442 36.2183C9.93433 36.4554 10.0287 36.68 10.17 36.8744C9.86819 37.3534 9.99285 38.1211 9.51388 38.6919C9.37541 38.8619 9.20004 38.9981 9.00109 39.0901C8.80214 39.1822 8.58483 39.2278 8.36565 39.2234C8.70028 39.4924 9.02176 39.7483 9.39576 39.9976C9.78864 39.7456 10.2416 39.6029 10.708 39.5842C11.2526 39.5449 12.0203 40.1616 12.0203 38.8887C12.0203 38.5738 11.5085 37.9177 11.1083 37.3534C11.5042 37.351 11.8945 37.259 12.2499 37.0844C12.2861 37.2566 12.3627 37.4177 12.4734 37.5544C12.5841 37.6912 12.7258 37.7996 12.8867 37.8707C13.0476 37.9419 13.2231 37.9737 13.3987 37.9636C13.5744 37.9535 13.7451 37.9018 13.8968 37.8127C13.8592 38.0098 13.8673 38.2129 13.9205 38.4064C13.9737 38.5999 14.0706 38.7785 14.2037 38.9287C14.3368 39.0789 14.5025 39.1966 14.6882 39.2727C14.8738 39.3488 15.0745 39.3813 15.2747 39.3677C15.5702 39.8316 15.9732 40.2175 16.4494 40.4928C16.9257 40.768 17.4612 40.9245 18.0107 40.949C20.1956 40.8112 17.9648 37.6683 15.8521 38.7575C15.8649 38.4873 15.8013 38.2189 15.6684 37.9833C16.0949 37.9111 16.5345 37.5371 16.7116 36.671C17.4858 37.629 18.7784 37.0581 19.1065 35.9165C20.7009 36.1986 20.4515 34.1449 21.8097 34.1384C20.5959 34.9782 19.6708 39.8532 22.2887 39.0462C23.9422 38.541 22.0131 33.3969 24.2571 34.9979C24.4605 34.2368 24.4998 33.0295 25.1625 32.498C25.4315 32.2815 25.7793 32.5636 25.8908 32.498C26.0024 32.4324 26.3567 32.2093 26.6782 31.9928C26.9997 31.7763 27.1965 31.2514 27.7477 31.107C28.2988 30.9627 28.4498 31.2711 28.8894 31.2514C29.4864 31.2514 30.2935 30.8249 30.8118 31.5073C31.4023 32.3012 30.51 33.6856 32.1241 33.6397C34.5911 33.5675 32.6687 30.3591 33.83 29.7686C33.9507 29.8437 34.0781 29.9074 34.2106 29.9588C34.2696 28.476 34.7486 29.3027 35.4769 28.7187C36.4611 27.9117 36.0346 26.6454 35.3719 25.7071C36.5529 26.5273 36.4939 24.8345 37.5765 25.051C37.6159 25.8908 38.1014 26.4813 38.9741 26.3173C38.8297 27.5246 39.4005 27.4262 39.8533 28.1873C40.3847 29.0731 40.0829 29.8013 41.5002 29.9982C41.5414 30.4641 41.692 30.9137 41.9398 31.3104C42.1694 30.8183 42.3859 30.3131 42.5959 29.8014C42.5241 29.7572 42.4599 29.7018 42.4056 29.6373ZM30.8709 28.3644H31.0874H31.153C31.2046 28.4999 31.2778 28.6262 31.3695 28.7384C31.2259 28.5862 31.0572 28.4597 30.8709 28.3644ZM37.7012 23.8371C37.6821 23.7857 37.6602 23.7353 37.6356 23.6862C37.7067 23.6801 37.777 23.6669 37.8455 23.6469C37.7907 23.7049 37.7423 23.7687 37.7012 23.8371Z" fill="#C6BDBA"/>
</g>
<g style="mix-blend-mode:screen" opacity="0.57">
<path d="M16.8035 16.482C16.7531 16.4578 16.697 16.448 16.6413 16.4538C16.5857 16.4596 16.5328 16.4807 16.4885 16.5148C16.4099 16.5803 16.3375 16.6527 16.272 16.7313C15.8912 17.1156 15.6587 17.6224 15.6159 18.1617C15.5659 18.3777 15.5308 18.597 15.5109 18.8178C15.5109 19.0212 15.7602 19.0409 15.8586 18.9097C15.9218 18.8255 15.9767 18.7354 16.0227 18.6406C16.0837 18.6206 16.1381 18.5843 16.1801 18.5357C16.3525 18.3048 16.4958 18.0536 16.6066 17.7877C16.8035 17.4727 16.9806 17.1316 17.1512 16.8101C17.1825 16.7624 17.196 16.7052 17.1894 16.6486C17.1827 16.5919 17.1563 16.5394 17.1148 16.5003C17.0734 16.4611 17.0194 16.4378 16.9625 16.4345C16.9055 16.4312 16.8492 16.448 16.8035 16.482Z" fill="#C6BDBA"/>
</g>
<g style="mix-blend-mode:screen" opacity="0.57">
<path d="M16.9609 22.8202C16.8231 22.4659 16.3573 22.1641 15.9767 22.42C15.833 22.5282 15.699 22.649 15.5765 22.7808C15.3286 22.9036 15.1174 23.0896 14.9642 23.3199C14.811 23.5503 14.7212 23.817 14.7039 24.0931C14.6917 24.2312 14.7163 24.3701 14.775 24.4957C14.8338 24.6212 14.9247 24.7291 15.0385 24.8083C15.0498 24.8346 15.0653 24.859 15.0844 24.8804C15.1462 24.9643 15.2378 25.0212 15.3404 25.0395C15.4429 25.0579 15.5485 25.0361 15.6355 24.9789C15.8242 24.9797 16.0106 24.9371 16.1801 24.8542L16.272 24.7951C16.4878 24.7537 16.6832 24.6403 16.8262 24.4734C16.9692 24.3066 17.0514 24.0962 17.0594 23.8766C17.0694 23.8025 17.0694 23.7275 17.0594 23.6535C17.1 23.3719 17.066 23.0846 16.9609 22.8202Z" fill="#C6BDBA"/>
</g>
<g style="mix-blend-mode:screen" opacity="0.57">
<path d="M14.8876 21.5144C14.868 21.484 14.8408 21.4591 14.8088 21.4423H14.7498H14.6054C14.6054 21.4423 14.5726 21.4423 14.5595 21.4423C14.5275 21.4591 14.5003 21.484 14.4808 21.5144C14.4618 21.5473 14.4518 21.5847 14.4518 21.6227C14.4518 21.6607 14.4618 21.698 14.4808 21.731V21.8425C14.4757 21.8732 14.4783 21.9048 14.4882 21.9343C14.4982 21.9638 14.5153 21.9905 14.538 22.0118C14.5607 22.0332 14.5883 22.0487 14.6183 22.0569C14.6484 22.0652 14.68 22.0659 14.7104 22.059C14.7408 22.0659 14.7724 22.0652 14.8025 22.0569C14.8326 22.0487 14.8602 22.0332 14.8828 22.0118C14.9055 21.9905 14.9226 21.9638 14.9326 21.9343C14.9425 21.9048 14.9451 21.8732 14.9401 21.8425V21.731C14.9517 21.6935 14.953 21.6536 14.9438 21.6154C14.9346 21.5773 14.9151 21.5424 14.8876 21.5144Z" fill="#C6BDBA"/>
</g>
<g style="mix-blend-mode:screen" opacity="0.57">
<path d="M23.7191 2.42115C23.6666 1.56162 22.5905 1.10889 22.0984 0.557739C22.4396 1.06296 23.0236 1.38446 23.3319 1.90281C23.8437 2.75577 22.9842 3.12977 22.6036 3.73997C22.4891 3.91368 22.4255 4.11596 22.4199 4.32393C22.3674 4.76354 22.1247 5.10472 22.0328 5.56401C22.0241 5.58315 22.0234 5.60497 22.0307 5.62466C22.0381 5.64434 22.053 5.66029 22.0722 5.66899C22.0913 5.67769 22.1131 5.67843 22.1328 5.67105C22.1525 5.66367 22.1685 5.64876 22.1772 5.62962C22.3752 5.31964 22.5945 5.02367 22.8333 4.74384C22.8509 4.72011 22.8604 4.69136 22.8604 4.66183C22.8604 4.6323 22.8509 4.60354 22.8333 4.57981C22.3871 3.84495 23.7584 3.22819 23.7191 2.42115Z" fill="#C6BDBA"/>
</g>
<g style="mix-blend-mode:screen" opacity="0.57">
<path d="M17.2759 2.20464C17.1184 2.20464 17.1775 2.44085 17.3087 2.45397C18.142 2.55895 19.054 3.18227 18.8834 4.03524C18.699 4.55863 18.4061 5.03712 18.0239 5.43935C17.5226 6.06864 16.823 6.50973 16.0391 6.69081C15.2552 6.8719 14.433 6.78234 13.7065 6.43668C13.6492 6.42401 13.5893 6.43312 13.5383 6.46223C13.4874 6.49133 13.4491 6.53836 13.431 6.59414C13.1488 7.4143 13.2669 8.30663 11.8497 8.10323C11.8113 8.09331 11.7711 8.09222 11.7323 8.10005C11.6934 8.10787 11.6568 8.12439 11.6252 8.14838C11.5936 8.17238 11.5679 8.20322 11.55 8.23859C11.532 8.27395 11.5223 8.31291 11.5216 8.35256C11.4494 9.91415 10.2093 8.5494 9.7435 8.66094C9.17166 8.7991 8.63807 9.06366 8.18193 9.43517C7.86795 9.73959 7.50106 9.98417 7.0993 10.1569C6.88945 10.2439 6.65869 10.2674 6.4356 10.2246C6.21251 10.1818 6.00688 10.0745 5.84417 9.91593C5.68145 9.75741 5.56881 9.55465 5.52017 9.33275C5.47153 9.11085 5.48904 8.87956 5.57053 8.66751C5.86479 7.9451 6.36148 7.32308 7.00088 6.87627C7.00088 6.87627 7.00088 6.83034 7.00088 6.83691C5.7608 7.38805 3.54964 10.4456 5.97075 10.859C6.59694 10.9193 7.22433 10.7567 7.74231 10.3997C8.87741 9.74355 8.96927 9.34989 10.3275 9.42862C10.7906 9.54697 11.28 9.50772 11.7184 9.31707C12.0071 9.13992 12.0006 8.83154 12.309 8.66094C12.6173 8.49035 13.011 8.73311 13.3588 8.36568C13.7065 7.99824 13.5228 7.27651 13.759 7.09935C13.9952 6.9222 15.5371 7.28308 16.003 7.19122C16.8058 7 17.5341 6.57534 18.096 5.97081C19.4476 4.63231 20.2022 1.67317 17.2759 2.20464Z" fill="#C6BDBA"/>
</g>
<g style="mix-blend-mode:screen" opacity="0.57">
<path d="M18.0435 8.55587C18.027 8.52716 17.9997 8.5062 17.9678 8.49758C17.9358 8.48897 17.9017 8.49341 17.8729 8.50994C17.8442 8.52647 17.8233 8.55374 17.8147 8.58573C17.806 8.61772 17.8105 8.65183 17.827 8.68054C18.1308 9.16236 18.3878 9.67208 18.5947 10.2028C18.7522 10.813 18.3454 11.9152 17.6105 11.6462C17.5055 11.6003 17.4399 11.41 17.3218 11.3772C17.146 11.3115 16.9663 11.2567 16.7838 11.2132C16.4819 11.141 16.377 11.9218 16.2326 11.1213C16.222 11.0825 16.1988 11.0483 16.1668 11.0239C16.1348 10.9995 16.0957 10.9863 16.0555 10.9863C16.0152 10.9863 15.9761 10.9995 15.9441 11.0239C15.9121 11.0483 15.889 11.0825 15.8783 11.1213C15.4321 11.5872 15.1369 11.6069 14.9925 11.1935C14.8788 10.9884 14.797 10.7671 14.7498 10.5374C14.7038 10.3668 14.4151 10.3537 14.3823 10.5374C14.2649 11.7331 13.9267 12.8966 13.385 13.9689C12.0728 16.1276 10.7605 12.4533 11.666 11.1738C11.666 11.1738 11.666 11.1213 11.6266 11.141C10.7408 12.0137 10.813 14.7694 12.2827 15.0319C13.7525 15.2943 14.3692 12.7551 14.6185 11.2919C15.0057 12.0137 15.6487 12.5123 16.0292 11.784C16.1145 11.8562 16.2392 11.83 16.4819 11.8759C16.5476 11.8759 16.7772 11.7709 16.9544 11.7972C17.3218 11.8496 17.2627 12.0334 17.5252 12.1252C17.7876 12.2171 17.7548 12.263 18.0435 12.2236C20.0644 11.9546 18.6537 9.34979 18.0435 8.55587Z" fill="#C6BDBA"/>
</g>
<g style="mix-blend-mode:screen" opacity="0.57">
<path d="M12.7617 19.6314C12.7468 19.6074 12.7246 19.5888 12.6983 19.5784C12.6721 19.568 12.6432 19.5664 12.6159 19.5738C12.5886 19.5811 12.5645 19.5971 12.547 19.6193C12.5295 19.6415 12.5197 19.6688 12.5189 19.697C12.5189 20.13 12.1187 22.2034 11.3313 21.3373C11.302 21.31 11.2661 21.2906 11.2271 21.2809C11.1882 21.2713 11.1474 21.2718 11.1086 21.2823C11.0699 21.2928 11.0345 21.313 11.0057 21.341C10.9769 21.369 10.9558 21.4039 10.9442 21.4423C10.9114 21.6457 10.7802 22.7218 10.1831 22.2756C9.9994 22.1312 10.0716 21.5276 10.0913 21.3373C10.111 21.147 9.7435 21.0617 9.68445 21.2848C9.51386 21.9803 8.77244 23.2073 7.86698 23.0039C6.45631 22.6824 7.62421 20.6943 7.90635 20.1038C7.90908 20.093 7.90829 20.0815 7.90409 20.0712C7.89988 20.0608 7.89248 20.0521 7.88296 20.0463C7.87345 20.0404 7.86232 20.0377 7.85118 20.0386C7.84005 20.0396 7.82949 20.044 7.82105 20.0513C7.27646 20.9043 6.14137 22.7874 7.7292 23.332C8.52968 23.601 9.2711 22.9514 9.69759 22.2296C9.71286 22.3991 9.78041 22.5595 9.89091 22.6888C10.0014 22.8181 10.1494 22.9099 10.3144 22.9514C10.8983 23.0564 11.1673 22.4265 11.2985 21.9147C12.309 22.4265 13.2538 20.5172 12.7617 19.6314Z" fill="#C6BDBA"/>
</g>
<g style="mix-blend-mode:screen" opacity="0.57">
<path d="M8.36565 16.4294C8.33799 16.4025 8.30229 16.3853 8.26399 16.3806C8.22569 16.3758 8.18688 16.3837 8.15346 16.403C8.12004 16.4223 8.09383 16.452 8.07883 16.4875C8.06384 16.5231 8.06087 16.5626 8.07038 16.6C8.24754 17.0987 7.93915 17.7154 7.36832 17.1708C7.34123 17.1448 7.30862 17.1252 7.27291 17.1136C7.2372 17.1019 7.1993 17.0985 7.16208 17.1036C7.12486 17.1086 7.08926 17.122 7.05794 17.1427C7.02662 17.1635 7.00039 17.191 6.98121 17.2233C6.73188 17.7417 6.16761 18.2797 5.73457 17.5908C5.30152 16.9018 5.91172 16.3769 6.51536 16.1735C6.56254 16.1592 6.60388 16.1302 6.63326 16.0906C6.66264 16.051 6.67849 16.003 6.67849 15.9537C6.67849 15.9044 6.66264 15.8564 6.63326 15.8168C6.60388 15.7773 6.56254 15.7482 6.51536 15.7339C6.32457 15.6526 6.16867 15.5064 6.07522 15.3213C5.98178 15.1361 5.95681 14.9239 6.0047 14.7221C6.0526 14.5203 6.17028 14.3419 6.33697 14.2185C6.50366 14.0951 6.7086 14.0346 6.91559 14.0477C7.67014 14.1133 8.33283 15.3599 7.57172 15.8586C7.55647 15.8688 7.54568 15.8844 7.54152 15.9022C7.53737 15.9201 7.54018 15.9389 7.54937 15.9547C7.55856 15.9706 7.57344 15.9824 7.591 15.9877C7.60856 15.993 7.62747 15.9914 7.6439 15.9832C8.73308 15.3862 7.762 13.713 6.73187 13.7458C6.48609 13.7583 6.2496 13.8436 6.05246 13.991C5.85532 14.1383 5.70647 14.3409 5.62486 14.5731C5.54325 14.8053 5.53256 15.0565 5.59416 15.2947C5.65576 15.533 5.78685 15.7475 5.97076 15.9111C5.22934 16.3113 4.77006 17.1052 5.34745 17.9254C5.92485 18.7455 6.80405 18.4044 7.26334 17.7089C7.41793 17.8296 7.60847 17.8952 7.80465 17.8952C8.00083 17.8952 8.19138 17.8296 8.34597 17.7089C8.4419 17.6328 8.51973 17.5364 8.57385 17.4265C8.62798 17.3167 8.65703 17.1962 8.65891 17.0738C8.6608 16.9514 8.63546 16.8301 8.58475 16.7186C8.53403 16.6072 8.4592 16.5084 8.36565 16.4294Z" fill="#C6BDBA"/>
</g>
<g style="mix-blend-mode:screen" opacity="0.57">
<path d="M24.0931 8.64783C24.2037 8.58609 24.3007 8.50258 24.3782 8.40234C24.4557 8.3021 24.5121 8.18719 24.5439 8.06456C24.5758 7.94194 24.5825 7.81413 24.5637 7.68884C24.5448 7.56355 24.5008 7.44338 24.4342 7.33557C23.9946 6.62695 23.122 7.05343 22.8989 7.67675C22.8202 7.88015 23.1089 8.00481 23.2401 7.88015C23.3713 7.75548 23.8306 7.22401 24.0143 7.67018C24.198 8.11635 23.555 8.40504 23.2466 8.49034C22.9383 8.57564 23.0629 9.04805 23.391 9.00212C23.5969 8.98443 23.8024 9.03984 23.9715 9.1586C24.1406 9.27737 24.2625 9.45191 24.3158 9.65158C24.369 9.85125 24.3502 10.0633 24.2627 10.2505C24.1752 10.4377 24.0245 10.5881 23.8372 10.6753C23.3385 10.8459 22.105 10.7474 22.164 10.0191C22.1635 9.96603 22.146 9.91447 22.1142 9.87198C22.0823 9.82949 22.0377 9.79829 21.9869 9.78292C21.785 9.78292 21.5914 9.70273 21.4487 9.56C21.306 9.41726 21.2258 9.22366 21.2258 9.0218C21.2258 8.81995 21.306 8.62637 21.4487 8.48363C21.5914 8.3409 21.785 8.26071 21.9869 8.26071C21.9869 8.26071 21.9869 8.21477 21.9869 8.20821C20.5368 7.99169 20.504 9.83541 21.6916 10.1766C21.79 11.2461 23.66 11.4889 24.3818 10.9508C24.5579 10.802 24.6941 10.6116 24.7779 10.3969C24.8618 10.1821 24.8907 9.9498 24.8621 9.72102C24.8334 9.49225 24.748 9.27426 24.6137 9.08684C24.4794 8.89943 24.3005 8.74853 24.0931 8.64783Z" fill="#C6BDBA"/>
</g>
<g style="mix-blend-mode:screen" opacity="0.57">
<path d="M34.3352 12.8273C34.1325 12.6461 33.8717 12.5433 33.5999 12.5373C33.328 12.5313 33.063 12.6224 32.8524 12.7944C32.5792 12.9949 32.3898 13.2894 32.3209 13.6212C32.2056 13.6173 32.0917 13.6469 31.9928 13.7065C31.551 14.0373 31.2547 14.5265 31.1661 15.0712C31.1109 15.337 31.1287 15.6128 31.2177 15.8693C31.3066 16.1257 31.4634 16.3533 31.6714 16.5278C32.1766 16.8559 32.38 16.3572 32.4587 15.9373C32.4587 15.8848 32.3997 15.8455 32.3734 15.8979C32.1438 16.39 31.9207 16.2391 31.7698 15.852C31.6722 15.6196 31.6515 15.3621 31.7107 15.1172C31.7671 14.914 31.8557 14.7213 31.9732 14.5463C32.0191 14.4807 32.1175 14.3035 32.2028 14.2707C32.2881 14.2379 32.2881 14.2707 32.3078 14.2707C32.3146 14.3375 32.3277 14.4034 32.3472 14.4676C32.4325 14.8481 33.0033 14.6841 32.9377 14.3036C32.7408 13.3784 33.8694 12.6698 34.1515 13.8246C34.3746 14.7103 33.7578 15.2549 33.3576 15.9439C33.3354 15.982 33.325 16.0258 33.3277 16.0698C33.3304 16.1138 33.3461 16.156 33.3728 16.1911C33.3994 16.2262 33.4359 16.2526 33.4776 16.267C33.5193 16.2814 33.5643 16.2831 33.6069 16.2719C34.9717 16.0423 35.2407 13.6474 34.3352 12.8273Z" fill="#C6BDBA"/>
</g>
<g style="mix-blend-mode:screen" opacity="0.57">
<path d="M24.7426 23.7518C24.5124 23.678 24.2644 23.6809 24.0361 23.7602C23.8077 23.8395 23.6112 23.9908 23.4763 24.1914C23.3923 24.3686 23.3781 24.5709 23.4364 24.7581C23.4948 24.9454 23.6214 25.1037 23.7912 25.2018C23.9822 25.3086 24.2037 25.3472 24.4195 25.3115C24.6353 25.2757 24.8325 25.1676 24.9788 25.005C25.009 24.9697 25.0333 24.9299 25.051 24.8869C25.0748 24.9044 25.1021 24.9165 25.1311 24.9223C25.16 24.9281 25.1899 24.9276 25.2186 24.9207C25.2474 24.9139 25.2742 24.9008 25.2974 24.8825C25.3206 24.8642 25.3395 24.8411 25.3528 24.8147C25.3874 24.7049 25.3989 24.5891 25.3865 24.4746C25.374 24.3601 25.338 24.2494 25.2807 24.1495C25.2234 24.0497 25.1459 23.9627 25.0533 23.8943C24.9607 23.8258 24.8549 23.7773 24.7426 23.7518Z" fill="#C6BDBA"/>
</g>
<g style="mix-blend-mode:screen" opacity="0.57">
<path d="M11.3051 32.7999C11.2285 32.6764 11.1131 32.5818 10.977 32.5309C10.9465 32.5276 10.9157 32.5276 10.8852 32.5309C10.8713 32.5083 10.8535 32.4883 10.8327 32.4719C10.8189 32.457 10.8009 32.4467 10.7811 32.4424C10.7613 32.4381 10.7407 32.4401 10.722 32.448C10.7033 32.4559 10.6876 32.4693 10.6768 32.4865C10.6661 32.5037 10.661 32.5238 10.6621 32.544C10.6621 32.5899 10.6621 32.6359 10.6621 32.6753C10.6523 32.7162 10.6523 32.7589 10.6621 32.7999C10.654 32.8687 10.6622 32.9384 10.6862 33.0034C10.7101 33.0684 10.7491 33.1268 10.7999 33.1739C10.8597 33.2262 10.9349 33.2576 11.0142 33.2636C11.0935 33.2695 11.1725 33.2495 11.2395 33.2067C11.2657 33.1885 11.2879 33.1651 11.3048 33.1381C11.3217 33.111 11.333 33.0808 11.3379 33.0493C11.3526 33.0081 11.3573 32.964 11.3516 32.9206C11.3459 32.8773 11.3299 32.8359 11.3051 32.7999Z" fill="#C6BDBA"/>
</g>
<g style="mix-blend-mode:screen" opacity="0.57">
<path d="M13.0045 32.4653C13.0039 32.437 12.9973 32.4091 12.985 32.3836C12.9727 32.3581 12.9551 32.3355 12.9333 32.3175C12.9115 32.2994 12.886 32.2863 12.8587 32.2789C12.8313 32.2716 12.8028 32.2703 12.7748 32.275C12.7469 32.2703 12.7183 32.2716 12.691 32.2789C12.6636 32.2863 12.6382 32.2994 12.6164 32.3175C12.5946 32.3355 12.577 32.3581 12.5647 32.3836C12.5524 32.4091 12.5457 32.437 12.5452 32.4653C12.5197 32.5484 12.5198 32.6373 12.5456 32.7204C12.5713 32.8035 12.6215 32.8769 12.6895 32.9311C12.715 32.9475 12.7446 32.9562 12.7748 32.9562C12.8051 32.9562 12.8347 32.9475 12.8601 32.9311C12.9289 32.8775 12.9797 32.8042 13.0055 32.7209C13.0313 32.6376 13.0309 32.5484 13.0045 32.4653Z" fill="#C6BDBA"/>
</g>
<g style="mix-blend-mode:screen" opacity="0.57">
<path d="M13.2144 34.0663C13.1243 34.0015 13.0275 33.9465 12.9257 33.9022C12.8656 33.8377 12.8021 33.7764 12.7355 33.7185C12.6923 33.6779 12.6398 33.6483 12.5827 33.6323C12.5256 33.6163 12.4654 33.6143 12.4074 33.6266C12.351 33.6167 12.2932 33.6167 12.2368 33.6266C12.1903 33.6402 12.1481 33.6656 12.1142 33.7003C12.0803 33.7349 12.056 33.7777 12.0434 33.8245C12.0309 33.8713 12.0306 33.9206 12.0427 33.9675C12.0547 34.0144 12.0786 34.0575 12.1121 34.0925V34.1253C12.1238 34.1682 12.1439 34.2084 12.1712 34.2434C12.2737 34.3588 12.4018 34.4487 12.5452 34.5059H12.578C12.6039 34.5271 12.6326 34.5448 12.6633 34.5584C12.721 34.5846 12.7836 34.598 12.847 34.5977C12.9165 34.6251 12.9921 34.6335 13.0659 34.622C13.1397 34.6104 13.2091 34.5794 13.2669 34.5321C13.4572 34.4402 13.3522 34.2172 13.2144 34.0663Z" fill="#C6BDBA"/>
</g>
<g style="mix-blend-mode:screen" opacity="0.57">
<path d="M39.3612 33.7382C39.1381 32.4784 37.465 32.0716 36.5005 32.6621C36.4657 32.6821 36.4402 32.7151 36.4298 32.7539C36.4193 32.7927 36.4247 32.834 36.4447 32.8688C36.4647 32.9036 36.4977 32.929 36.5365 32.9395C36.5752 32.9499 36.6165 32.9446 36.6514 32.9246C38.5104 32.2334 38.7291 33.0514 37.3075 35.3785C36.757 35.3625 36.227 35.1666 35.7984 34.8208C35.6409 34.7158 35.5031 34.9192 35.5622 35.057C35.1488 36.8089 34.5714 37.2878 33.83 36.507C33.8088 36.485 33.782 36.4691 33.7525 36.461C33.723 36.4529 33.6918 36.4528 33.6623 36.4609C33.6328 36.4689 33.606 36.4848 33.5847 36.5067C33.5634 36.5287 33.5484 36.556 33.5413 36.5858C33.2526 37.7012 31.9797 36.3955 31.7173 36.1068C31.586 35.9559 31.3301 36.1527 31.4417 36.3167C32.9377 38.6066 30.241 41.0409 28.161 41.5658C24.946 42.4056 24.0143 39.3874 25.4184 37.0647C25.4184 37.0647 25.4184 37.0188 25.3791 37.0647C23.1679 39.8861 25.3462 43.1011 28.8172 41.7233C30.3525 41.1131 32.1962 39.6499 32.3012 37.8586C32.3236 37.59 32.3014 37.3196 32.2356 37.0582C32.5144 37.2968 32.8661 37.4334 33.2329 37.4453C33.6135 37.4453 33.6594 37.0385 33.9809 37.0647C34.637 37.1107 34.7683 37.9505 35.5884 37.5765C36.2446 37.2616 36.1396 36.5595 36.2446 35.9887C36.2404 35.8062 36.2026 35.626 36.133 35.4572C36.4086 35.5622 36.9269 35.6869 36.8548 35.6737C37.9767 35.8771 39.6105 35.1488 39.3612 33.7382Z" fill="#C6BDBA"/>
</g>
<g style="mix-blend-mode:screen" opacity="0.57">
<path d="M32.4128 4.69128C32.2422 4.69128 32.1962 4.96685 32.3734 4.9931C32.9967 5.09152 32.9836 5.81982 32.708 6.30536C32.513 6.56973 32.2425 6.76888 31.9322 6.87662C31.6219 6.98437 31.2862 6.99564 30.9693 6.90898C30.9322 6.90007 30.8934 6.90085 30.8566 6.91121C30.8199 6.92157 30.7864 6.94118 30.7594 6.96817C30.7324 6.99516 30.7128 7.02863 30.7025 7.06537C30.6921 7.10211 30.6913 7.14088 30.7003 7.178C30.7527 7.4142 31.1333 8.94298 30.2738 8.49026C30.1426 8.41808 29.9129 8.49027 29.9326 8.68711C29.972 8.99549 30.1754 10.8589 29.2109 10.1109C29.1785 10.0765 29.1355 10.054 29.0888 10.047C29.042 10.0401 28.9943 10.0491 28.9533 10.0726C28.9124 10.0961 28.8805 10.1328 28.863 10.1767C28.8454 10.2205 28.8431 10.269 28.8565 10.3143C28.91 11.3502 28.5781 12.3693 27.9248 13.175C27.5771 13.6474 26.3567 15.0712 25.8843 13.4178C26.0417 14.3692 26.6388 14.5529 27.459 14.0739C28.5219 13.4178 29.1584 11.8759 29.283 10.6358C30.2541 11.1607 30.4969 10.0387 30.4509 9.04797C30.8643 9.18576 31.1399 9.08077 31.3236 8.52962C31.4023 8.28685 31.1267 7.62418 31.2317 7.4339C31.5029 7.42201 31.7727 7.3891 32.0388 7.33548C33.1017 6.95493 34.204 4.73065 32.4128 4.69128Z" fill="#C6BDBA"/>
</g>
<g style="mix-blend-mode:screen" opacity="0.57">
<path d="M27.1309 26.3371C27.0915 26.1796 26.8816 26.2321 26.8685 26.3371C26.7701 27.1572 25.9893 28.8631 25.1757 27.19C25.1566 27.1596 25.1293 27.1352 25.0969 27.1196C25.0645 27.104 25.0283 27.098 24.9926 27.1021C24.957 27.1062 24.9231 27.1203 24.8952 27.1429C24.8672 27.1654 24.8461 27.1954 24.8345 27.2294C24.5655 28.1742 23.0761 28.2136 23.3779 27.0588C23.3861 27.0306 23.3866 27.0006 23.3793 26.9722C23.372 26.9437 23.3572 26.9177 23.3364 26.8969C23.3156 26.8761 23.2896 26.8613 23.2611 26.854C23.2326 26.8467 23.2027 26.8472 23.1745 26.8554C20.7271 27.5115 19.9594 24.1849 21.5932 22.8202C19.5461 24.1718 20.5631 27.5771 23.0236 27.2294C22.8858 28.4367 24.4474 28.6597 25.0444 27.6887C25.9171 28.9484 27.4984 27.8068 27.1309 26.3371Z" fill="#C6BDBA"/>
</g>
<g style="mix-blend-mode:screen" opacity="0.57">
<path d="M17.9714 30.5625C17.5646 30.8971 15.9177 30.9168 16.6591 30.2607C16.6825 30.2381 16.6987 30.2091 16.7056 30.1773C16.7125 30.1456 16.7098 30.1125 16.6978 30.0823C16.6859 30.052 16.6652 30.026 16.6385 30.0075C16.6117 29.9891 16.5801 29.979 16.5476 29.9785C15.4518 29.8735 14.6842 29.1256 15.0254 28.0101C15.2812 27.1769 16.1211 26.5404 16.751 27.4459C16.8232 27.5509 16.9872 27.4459 16.9216 27.3475C16.2654 26.337 15.2288 26.8029 14.822 27.7739C14.2905 29.0337 15.0582 30.0113 16.2392 30.2738C15.6552 31.1399 17.6302 31.586 18.2076 30.7396C18.2666 30.5887 18.0764 30.4706 17.9714 30.5625Z" fill="#C6BDBA"/>
</g>
<g style="mix-blend-mode:screen" opacity="0.57">
<path d="M30.405 37.6749C29.5914 36.9203 28.1479 38.1801 27.7805 38.8821C27.7676 38.9054 27.7601 38.9312 27.7586 38.9577C27.757 38.9842 27.7614 39.0107 27.7715 39.0353C27.7816 39.0599 27.7971 39.0818 27.8168 39.0996C27.8365 39.1174 27.86 39.1305 27.8855 39.138C28.1679 39.2413 28.4786 39.2361 28.7575 39.1234C29.0363 39.0106 29.2633 38.7984 29.3946 38.5278C29.4058 38.5136 29.4141 38.4973 29.419 38.4799C29.4239 38.4625 29.4253 38.4443 29.4232 38.4263C29.421 38.4083 29.4154 38.3909 29.4065 38.3752C29.3977 38.3594 29.3858 38.3455 29.3716 38.3343C29.3574 38.3231 29.3411 38.3148 29.3237 38.3099C29.3063 38.305 29.288 38.3035 29.2701 38.3057C29.2521 38.3078 29.2347 38.3134 29.2189 38.3223C29.2031 38.3311 29.1893 38.343 29.178 38.3572C29.063 38.5016 28.9188 38.62 28.7548 38.7048C28.5909 38.7896 28.4109 38.8388 28.2267 38.8493C28.6597 38.2719 29.7489 37.3534 30.2541 38.0095C30.9758 38.9543 29.2043 39.6957 28.5875 39.8466C27.5377 40.1025 26.1598 39.5973 26.9931 38.3572C27.7542 37.2287 29.1715 36.8678 30.4116 36.5857C29.0534 36.461 26.6716 37.4452 26.4748 38.9937C26.2714 40.4175 28.1676 40.3847 29.0599 40.0829C29.9523 39.781 31.4876 38.6591 30.405 37.6749Z" fill="#C6BDBA"/>
</g>
<g style="mix-blend-mode:screen" opacity="0.57">
<path d="M6.28572 25.5365C6.35455 25.3959 6.37084 25.2354 6.33165 25.0838C6.26604 24.9132 6.06919 24.8082 5.9314 24.7033C5.90818 24.6904 5.88237 24.6829 5.85586 24.6813C5.82934 24.6798 5.80281 24.6842 5.77824 24.6943C5.75367 24.7043 5.73169 24.7198 5.71391 24.7396C5.69613 24.7593 5.68301 24.7828 5.67552 24.8082C5.59713 25.0295 5.58347 25.2685 5.63616 25.4972C5.6262 25.5426 5.6262 25.5896 5.63616 25.635C5.65905 25.706 5.6974 25.7711 5.74845 25.8256C5.7995 25.88 5.86198 25.9225 5.9314 25.9499C5.98259 25.9665 6.0377 25.9665 6.08889 25.9499C6.14857 25.9694 6.21292 25.9694 6.2726 25.9499C6.55474 25.9171 6.41695 25.6743 6.28572 25.5365Z" fill="#C6BDBA"/>
</g>
<g style="mix-blend-mode:screen" opacity="0.57">
<path d="M9.17925 27.4261C9.17925 27.4261 9.17925 27.4261 9.13988 27.4589C9.10052 27.4918 9.09394 27.459 9.08738 27.4918C9.05067 27.6175 9.03298 27.7479 9.0349 27.8789C9.0349 27.997 9.2055 28.0626 9.26455 27.9445C9.29521 27.893 9.31944 27.8379 9.33671 27.7805C9.36605 27.7677 9.39101 27.7465 9.4085 27.7197C9.42599 27.6929 9.43526 27.6616 9.43515 27.6295C9.43515 27.6295 9.43515 27.5902 9.43515 27.577C9.43386 27.5476 9.42523 27.5189 9.41004 27.4936C9.39485 27.4683 9.37357 27.4471 9.34815 27.4322C9.32272 27.4172 9.29396 27.4088 9.26447 27.4077C9.23497 27.4067 9.20567 27.413 9.17925 27.4261Z" fill="#C6BDBA"/>
</g>
<g style="mix-blend-mode:screen" opacity="0.57">
<path d="M3.66776 28.5613C3.6082 28.4291 3.51731 28.3135 3.40299 28.2243C3.28867 28.1351 3.15435 28.0751 3.01163 28.0495C2.97281 28.0384 2.93195 28.0365 2.89223 28.0437C2.85251 28.051 2.815 28.0673 2.78262 28.0914C2.75025 28.1156 2.72387 28.1468 2.70555 28.1828C2.68723 28.2188 2.67746 28.2585 2.677 28.2989C2.67136 28.4322 2.68914 28.5654 2.7295 28.6926C2.79308 28.9672 2.93429 29.2177 3.1363 29.4143C3.16354 29.4407 3.1963 29.4607 3.23223 29.4729C3.26816 29.4851 3.30634 29.4891 3.34402 29.4847C3.3817 29.4803 3.41793 29.4676 3.45009 29.4475C3.48224 29.4274 3.50955 29.4003 3.52998 29.3684C3.68045 29.128 3.72996 28.838 3.66776 28.5613Z" fill="#C6BDBA"/>
</g>
<g style="mix-blend-mode:overlay" opacity="0.57">
<g style="mix-blend-mode:overlay" opacity="0.57">
<path d="M1.51566 13.9624C1.60551 14.9407 1.94862 15.8787 2.51122 16.6841C3.07382 17.4894 3.83649 18.1343 4.72412 18.5553C6.00228 19.1896 7.46366 19.3511 8.84947 19.0112C10.2353 18.6714 11.4561 17.8521 12.2958 16.6985C12.6764 17.5121 12.952 18.2338 13.9296 18.2994C15.4584 18.3979 15.1959 17.2365 15.7668 16.3311C17.7745 23.3976 27.9576 19.1065 26.1336 12.5386C27.4918 13.0504 29.0271 10.8589 28.2726 9.63853C29.329 10.1241 29.5389 8.81181 29.3158 8.01789C29.972 7.95884 30.8446 7.26992 30.6937 6.5941C31.7829 6.81719 32.5637 5.93796 32.7999 4.94065C32.9197 4.13282 32.7722 3.308 32.3799 2.59171C29.6412 1.13192 26.6247 0.267737 23.5284 0.0558719C20.4322 -0.155993 17.3261 0.289251 14.414 1.36238C11.5019 2.43551 8.84966 4.11228 6.63127 6.28266C4.41288 8.45304 2.67847 11.068 1.54189 13.9559L1.51566 13.9624Z" fill="#C6BDBA"/>
</g>
</g>
<g style="mix-blend-mode:overlay" opacity="0.57">
<g style="mix-blend-mode:overlay" opacity="0.57">
<path d="M15.5437 2.45391C14.2314 1.69936 10.8589 4.42229 9.75663 5.22277C7.65702 6.79092 5.60333 9.51386 5.2359 12.1974C5.1809 12.6694 5.22706 13.1476 5.37125 13.6003C5.51545 14.053 5.75439 14.4698 6.0722 14.823C6.39 15.1762 6.77938 15.4577 7.21441 15.6487C7.64945 15.8397 8.12018 15.9358 8.59527 15.9308C11.0164 15.8914 14.028 12.263 14.0608 10.0256C15.045 10.8786 16.5541 12.0399 17.2037 10.0256C20.1366 12.368 23.1614 5.55739 21.4685 5.19652C23.0564 5.99044 25.0904 3.27406 24.7492 1.82402C23.929 -1.41726 16.5935 1.25975 15.5437 2.45391Z" fill="#C6BDBA"/>
</g>
</g>
<g opacity="0.34">
<path opacity="0.34" d="M22 44.0001C26.5029 43.9997 30.8973 42.6175 34.5897 40.0403C38.2821 37.463 41.0948 33.8148 42.6479 29.5882C44.201 25.3617 44.4198 20.7603 43.2747 16.4054C42.1296 12.0505 39.6758 8.15192 36.2446 5.23596C36.5136 6.03644 39.4202 10.5965 37.3272 19.0672C34.8076 29.27 23.7847 35.057 11.5151 31.7829C3.96302 29.7686 0.780793 25.5235 0.157471 24.5655C0.785921 29.918 3.35716 34.8536 7.3834 38.436C11.4096 42.0184 16.6108 43.9983 22 44.0001Z" fill="#542B24"/>
</g>
<g opacity="0.34">
<path opacity="0.34" d="M42.8321 14.9467C42.4638 15.8836 42.157 16.8436 41.9135 17.8205C41.3296 19.6708 40.6734 21.4817 40.0698 23.3189C38.7181 27.4066 35.8771 31.6452 31.9141 33.4954C29.7161 34.5256 27.6886 36.12 25.3528 36.8417C23.3844 37.4585 21.2192 37.6356 19.1918 38.1211C16.1801 38.8363 14.1002 39.8599 10.9573 39.2759C9.49431 39.0092 8.07766 38.5318 6.75156 37.8587C7.8786 38.9445 9.11928 39.9058 10.4521 40.726C11.1083 40.9622 11.7644 41.1721 12.368 41.3821C15.6923 42.3773 19.226 42.4408 22.5839 41.5658C27.623 40.2995 33.7381 37.406 37.5109 33.7513C40.285 31.0436 42.3551 27.6986 43.5407 24.0078C43.6654 23.6207 43.8294 23.0433 43.9803 22.3544C43.9803 22.2428 43.9803 22.1313 43.9803 22.0197C43.9902 19.6149 43.6022 17.2249 42.8321 14.9467Z" fill="#542B24"/>
</g>
<g style="mix-blend-mode:screen" opacity="0.31">
<g style="mix-blend-mode:screen" opacity="0.31">
<path d="M18.4372 7.9917C19.9135 7.6702 21.0224 5.9249 21.3964 4.56671C21.9606 2.4999 21.0224 1.75847 19.0737 1.82409C18.2904 1.7748 17.5079 1.93085 16.8035 2.27682C16.1933 2.61144 15.7471 3.41848 15.1434 3.68749C14.5398 3.9565 13.5359 3.6875 12.7748 4.11398C11.7906 4.63888 11.7906 5.0588 11.3707 6.08237C7.61765 4.26489 3.98927 11.4626 6.31196 14.2512C7.82106 16.0621 11.2854 15.0451 13.0176 14.0412C14.6251 13.0964 16.0752 10.4391 16.2982 8.68063C16.9741 9.27771 19.0212 10.2685 18.4372 7.9917Z" fill="#C6BDBA"/>
</g>
</g>
<g style="mix-blend-mode:screen" opacity="0.31">
<g style="mix-blend-mode:screen" opacity="0.31">
<path d="M15.7996 8.11637C17.3021 8.31977 19.2574 6.50885 17.5515 5.49185C15.8455 4.47486 13.7328 5.99051 12.7814 7.27653C10.9114 6.10205 8.58873 7.93265 8.49687 10.0651C8.46781 10.3138 8.48883 10.5658 8.55866 10.8062C8.62849 11.0466 8.74573 11.2707 8.90349 11.4651C9.06124 11.6596 9.2563 11.8205 9.4772 11.9383C9.69809 12.0562 9.94035 12.1287 10.1897 12.1516C11.9678 12.4206 13.2079 10.6228 14.5398 9.77637L15.7996 8.11637Z" fill="#C6BDBA"/>
</g>
</g>
<g style="mix-blend-mode:multiply" opacity="0.33">
<path d="M17.932 21.9212C16.8231 20.1234 13.8968 19.8544 12.7748 21.7441C12.0137 23.0235 11.9481 26.1729 13.7131 26.6978C12.5517 25.7924 12.2368 23.929 12.7026 22.5642C13.5031 20.1956 16.2064 20.6943 17.5777 22.2034C17.6151 22.2504 17.6696 22.2806 17.7293 22.2873C17.789 22.2941 17.8489 22.2769 17.8959 22.2395C17.9429 22.2021 17.9731 22.1475 17.9798 22.0878C17.9866 22.0281 17.9694 21.9682 17.932 21.9212Z" fill="#542B24"/>
</g>
<g style="mix-blend-mode:multiply" opacity="0.33">
<path d="M19.0999 20.2154C18.9379 20.1947 18.7732 20.2157 18.6216 20.2766C18.47 20.3375 18.3365 20.4361 18.2338 20.5631C18.1527 20.7307 18.1326 20.9213 18.1769 21.1022C18.2212 21.283 18.3272 21.4427 18.4766 21.5538C18.5094 21.5867 18.5553 21.5539 18.5422 21.5014C18.4241 21.2652 18.2469 20.8452 18.4634 20.6484C18.5693 20.5672 18.6924 20.5114 18.8232 20.4853C18.954 20.4591 19.0891 20.4633 19.218 20.4975C19.5217 20.5522 19.7974 20.7098 19.9988 20.9437C20.1912 21.2601 20.2934 21.6231 20.2941 21.9935C20.3031 22.0099 20.3164 22.0235 20.3326 22.0331C20.3488 22.0426 20.3671 22.0476 20.3859 22.0476C20.4047 22.0476 20.4231 22.0426 20.4392 22.0331C20.4554 22.0235 20.4687 22.0099 20.4778 21.9935C20.9436 21.1208 19.9201 20.2875 19.0999 20.2154Z" fill="#542B24"/>
</g>
<g style="mix-blend-mode:multiply" opacity="0.33">
<path d="M20.3859 22.6889C20.3531 22.6889 20.3531 22.7545 20.3859 22.7545C22.702 22.7545 26.4026 21.7506 27.6952 24.2964C27.7608 24.4276 27.9314 24.3489 27.9445 24.2308C28.2726 21.2848 21.8884 22.1246 20.3859 22.6889Z" fill="#542B24"/>
</g>
<g style="mix-blend-mode:multiply" opacity="0.33">
<path d="M31.9994 13.07C32.0388 13.07 32.0322 13.0044 31.9994 12.9847C31.0218 12.3286 29.2896 13.1357 28.8697 14.1395C28.2726 15.5699 29.1715 17.9254 30.5756 18.575C30.7003 18.634 30.8906 18.5028 30.7856 18.365C29.9457 17.2365 28.6532 15.898 29.3093 14.3298C29.8342 13.07 31.0349 13.5228 31.9994 13.07Z" fill="#542B24"/>
</g>
<g style="mix-blend-mode:multiply" opacity="0.33">
<path d="M23.2926 5.26865C22.1378 5.41956 22.2493 6.41688 21.7047 7.09925C21.5473 6.71214 21.3833 6.27254 20.8912 6.38408C20.3991 6.49562 20.1629 7.08615 20.1169 7.60449C19.8807 7.36828 19.5855 7.20424 19.2902 7.42732C18.6997 7.88661 19.2902 8.93641 19.6183 9.33009C19.6183 9.33009 19.6708 9.33009 19.6576 9.33009C19.5218 9.06427 19.414 8.785 19.3361 8.49681C19.6117 7.67009 19.8807 7.55199 20.1366 8.12938C20.1549 8.15707 20.1814 8.17829 20.2125 8.18999C20.2435 8.2017 20.2775 8.20329 20.3095 8.19456C20.3415 8.18583 20.3699 8.16722 20.3907 8.14138C20.4115 8.11553 20.4236 8.08378 20.4253 8.05065C20.4253 7.74883 20.4712 6.49563 21.3111 7.13207C21.3822 7.26208 21.4415 7.39822 21.4882 7.53887C21.5031 7.56235 21.5228 7.58228 21.5462 7.5973C21.5695 7.61232 21.5959 7.62206 21.6234 7.62581C21.6509 7.62956 21.6789 7.62724 21.7054 7.61902C21.7319 7.61081 21.7564 7.59689 21.7769 7.57824C22.0004 7.37217 22.1675 7.11245 22.2625 6.82369C22.4002 6.49563 22.4987 5.92479 22.9186 5.81325L24.0209 6.09538C24.0209 6.26597 24.0799 6.43657 24.1062 6.60716C24.1324 6.77775 24.3555 6.70558 24.3752 6.56779C24.4539 5.81324 24.0996 5.15711 23.2926 5.26865Z" fill="#542B24"/>
</g>
<g style="mix-blend-mode:multiply" opacity="0.33">
<path d="M7.5914 11.1018C6.50223 10.7343 6.18073 11.7579 6.06263 12.6568C5.80113 12.4174 5.46342 12.2782 5.10921 12.2638C4.75501 12.2494 4.40711 12.3607 4.12704 12.578C3.92293 12.7143 3.77012 12.9147 3.69279 13.1476C3.61547 13.3805 3.61808 13.6325 3.70018 13.8637C3.78228 14.095 3.93919 14.2922 4.14606 14.4242C4.35293 14.5562 4.59793 14.6154 4.84224 14.5924C4.86421 14.5931 4.8858 14.5865 4.90359 14.5736C4.92138 14.5607 4.93431 14.5422 4.94035 14.521C4.94639 14.4999 4.94518 14.4773 4.93691 14.457C4.92864 14.4366 4.91379 14.4196 4.89472 14.4086C2.7623 13.0111 5.55086 11.7841 6.02983 13.0636C6.03644 13.0926 6.05268 13.1185 6.07592 13.137C6.09917 13.1555 6.12802 13.1656 6.15776 13.1656C6.18749 13.1656 6.21635 13.1555 6.2396 13.137C6.26284 13.1185 6.2791 13.0926 6.28571 13.0636C6.33164 12.2959 6.41037 10.8852 7.59797 11.3314C8.07946 11.5542 8.46742 11.939 8.69407 12.4187C8.92072 12.8984 8.97169 13.4425 8.83806 13.9559C8.83806 13.9559 8.83805 14.0018 8.87086 13.9559C9.52043 12.9848 8.5231 11.4036 7.5914 11.1018Z" fill="#542B24"/>
</g>
<g style="mix-blend-mode:multiply" opacity="0.33">
<path d="M3.60871 15.9965C3.60871 15.9965 3.60871 15.9506 3.56934 15.9965C2.57203 17.1644 0.944819 21.0684 3.12973 21.9016C3.19534 21.9016 3.22158 21.836 3.18878 21.7967C1.92245 20.1563 2.46705 17.6171 3.60871 15.9965Z" fill="#542B24"/>
</g>
<g style="mix-blend-mode:multiply" opacity="0.33">
<path d="M14.7301 2.57202C14.3823 1.97494 13.9493 1.91588 13.3522 2.27019C12.9126 2.54577 12.7748 2.96569 12.4665 3.34624C12.1581 3.7268 12.099 3.65463 11.8103 3.90396C11.2657 4.36981 10.9836 4.96689 10.2487 5.26215C9.85506 5.41306 9.54667 5.33433 9.23173 5.65583C8.34595 6.57441 9.33015 6.96808 7.61766 7.8801C7.09468 8.05428 6.60618 8.31852 6.17418 8.66089C6.08233 8.75275 6.17417 8.87085 6.28571 8.85772L6.68596 8.79867C6.69449 8.79527 6.70178 8.7894 6.70693 8.78179C6.71208 8.77419 6.71484 8.7652 6.71484 8.75602C6.71484 8.74684 6.71208 8.73788 6.70693 8.73027C6.70178 8.72267 6.69449 8.71678 6.68596 8.71337C7.32074 8.46443 7.93501 8.16608 8.52312 7.82105C8.89711 7.49954 8.92336 7.16492 9.12676 6.75155C9.78289 5.33432 9.91411 5.95764 10.8655 5.4393C11.3904 5.13748 11.7381 4.12705 12.4402 4.17954C12.4763 4.17809 12.5109 4.16524 12.5392 4.14284C12.5675 4.12044 12.588 4.08964 12.5977 4.05487C12.683 3.62183 13.6606 1.63375 14.4611 2.74261C14.4837 2.77828 14.5196 2.80351 14.5608 2.81274C14.602 2.82197 14.6452 2.81445 14.6809 2.79182C14.7166 2.7692 14.7418 2.73333 14.751 2.69211C14.7602 2.65088 14.7527 2.60769 14.7301 2.57202Z" fill="#542B24"/>
</g>
<g style="mix-blend-mode:multiply" opacity="0.33">
<path d="M21.2323 1.03006C21.2111 1.03539 21.1911 1.04493 21.1736 1.05812C21.156 1.0713 21.1413 1.08786 21.1303 1.10682C21.1193 1.12579 21.1122 1.14676 21.1094 1.16852C21.1067 1.19027 21.1083 1.21236 21.1142 1.23347C21.2558 1.80209 21.3653 2.3782 21.4423 2.95908C21.5079 3.28059 21.5801 3.33964 21.3242 3.55616C21.0683 3.77269 21.0552 3.68082 20.7993 3.72675C20.667 3.74468 20.5398 3.78934 20.4253 3.85799C20.0119 4.11388 19.8282 4.92748 20.5237 4.79626C20.4187 4.27135 20.5631 4.02202 20.9633 4.05483H21.2914C21.3676 4.04671 21.4426 4.02907 21.5145 4.00233C21.6002 3.97052 21.6755 3.91575 21.7323 3.844C21.789 3.77225 21.8248 3.6863 21.836 3.59553C21.8405 3.2382 21.7919 2.88217 21.6916 2.53916C21.6441 2.15311 21.5762 1.76983 21.4882 1.39094C21.9672 1.45655 22.0853 2.57197 22.3215 2.84099C22.3359 2.8572 22.3546 2.86912 22.3753 2.87544C22.3961 2.88175 22.4182 2.88222 22.4392 2.8768C22.4602 2.87137 22.4794 2.86027 22.4945 2.84469C22.5096 2.82911 22.5201 2.80967 22.5249 2.78849C22.6627 2.14549 21.9738 0.780735 21.2323 1.03006Z" fill="#542B24"/>
</g>
<g style="mix-blend-mode:multiply" opacity="0.33">
<path d="M29.552 32.6292C28.8106 32.3208 28.5088 33.0032 28.1151 33.4691C27.9568 33.2843 27.7503 33.1472 27.5185 33.073C27.2868 32.9989 27.039 32.9906 26.8029 33.0492C26.2925 33.3042 25.8866 33.7286 25.6546 34.2499C25.4447 34.6304 24.7951 36.1592 25.8449 35.8574C25.8571 35.8574 25.8688 35.8525 25.8774 35.8439C25.886 35.8353 25.8908 35.8236 25.8908 35.8115C25.8908 35.7993 25.886 35.7876 25.8774 35.779C25.8688 35.7704 25.8571 35.7655 25.8449 35.7655C25.1888 35.5687 25.799 34.6173 26.0089 34.2827C26.1116 34.1142 26.2302 33.9559 26.3633 33.8102C26.9013 33.2394 27.4918 33.3838 28.0167 33.889C28.0553 33.924 28.1056 33.9434 28.1578 33.9434C28.2099 33.9434 28.2602 33.924 28.2988 33.889C28.4366 33.7512 28.6072 33.3969 28.7647 33.2985L29.6636 33.2591L29.7751 33.5413C29.8134 33.7583 29.8134 33.9803 29.7751 34.1974C29.7751 34.368 29.9917 34.4008 30.0769 34.2761C30.1605 34.1358 30.2134 33.9792 30.232 33.8169C30.2506 33.6546 30.2346 33.4902 30.185 33.3346C30.1354 33.1789 30.0533 33.0356 29.9442 32.914C29.8351 32.7924 29.7014 32.6953 29.552 32.6292Z" fill="#542B24"/>
</g>
<g style="mix-blend-mode:multiply" opacity="0.33">
<path d="M19.3558 26.4683C19.228 26.425 19.0916 26.4132 18.9583 26.4338C18.825 26.4544 18.6985 26.5068 18.5898 26.5867C18.481 26.6665 18.393 26.7713 18.3333 26.8923C18.2737 27.0134 18.244 27.147 18.2469 27.2819C17.7352 27.1966 17.394 27.6099 17.2824 28.2004C17.1709 28.791 17.0397 29.8736 17.5646 30.2476C17.5798 30.2562 17.5967 30.2614 17.6141 30.2627C17.6316 30.264 17.6491 30.2614 17.6654 30.2552C17.6817 30.2489 17.6964 30.239 17.7085 30.2264C17.7206 30.2137 17.7297 30.1985 17.7352 30.1819C17.8336 29.7489 17.394 27.295 18.3913 27.8199C18.4323 27.841 18.4785 27.8499 18.5245 27.8456C18.5704 27.8414 18.6142 27.8241 18.6507 27.7959C18.6872 27.7677 18.7149 27.7297 18.7305 27.6863C18.7462 27.6429 18.7491 27.5959 18.739 27.5509C18.6275 27.1113 18.9162 26.7307 19.3952 26.9275C19.5253 26.991 19.6394 27.0829 19.7291 27.1965C19.8189 27.3101 19.8819 27.4424 19.9135 27.5837C20.0106 27.8324 20.0853 28.0893 20.1366 28.3514C20.1366 28.3907 20.1956 28.3842 20.2088 28.3514C20.3191 27.9874 20.2934 27.5958 20.1365 27.2493C19.9796 26.9029 19.7021 26.6254 19.3558 26.4683Z" fill="#542B24"/>
</g>
<g style="mix-blend-mode:multiply" opacity="0.33">
<path d="M21.2914 28.4366C21.1596 28.2949 20.9791 28.2082 20.7862 28.1938C20.6156 28.1938 20.34 28.2726 20.3006 28.4629C20.2964 28.4732 20.2952 28.4846 20.2972 28.4956C20.2991 28.5066 20.3042 28.5169 20.3118 28.5251C20.3193 28.5334 20.3291 28.5393 20.3399 28.5422C20.3507 28.5451 20.3621 28.5449 20.3728 28.5416C20.504 28.5416 20.5893 28.4301 20.7402 28.4432C20.8535 28.4584 20.9591 28.5089 21.042 28.5875C21.088 28.6335 21.1667 28.7253 21.147 28.8041C21.1273 28.8828 20.9699 28.909 20.9043 28.9287C20.878 28.9347 20.8538 28.9476 20.8342 28.966C20.8146 28.9845 20.8003 29.0078 20.7927 29.0337C20.7894 29.0598 20.7894 29.0863 20.7927 29.1124C20.8035 29.1442 20.8237 29.172 20.8507 29.1919C20.8776 29.2119 20.9101 29.223 20.9436 29.224C21.0386 29.2335 21.1342 29.2128 21.2168 29.1648C21.2993 29.1167 21.3645 29.0438 21.4031 28.9564C21.4417 28.8691 21.4516 28.7718 21.4316 28.6784C21.4115 28.585 21.3624 28.5004 21.2914 28.4366Z" fill="#542B24"/>
</g>
<g style="mix-blend-mode:multiply" opacity="0.33">
<path d="M29.762 36.3364C28.8959 36.5726 27.9183 36.553 27.1703 37.0975C26.545 37.56 26.109 38.2339 25.9433 38.9938C25.9354 39.019 25.9363 39.0462 25.9457 39.071C25.9551 39.0957 25.9726 39.1166 25.9953 39.1302C26.018 39.1438 26.0446 39.1494 26.0709 39.1461C26.0972 39.1428 26.1216 39.1307 26.1402 39.1119C26.6782 38.6198 26.8488 37.8718 27.4524 37.4059C28.0561 36.9401 29.0862 36.9204 29.7948 36.4217C29.8342 36.3889 29.8079 36.3233 29.762 36.3364Z" fill="#542B24"/>
</g>
<g style="mix-blend-mode:multiply" opacity="0.33">
<path d="M29.6439 37.2418C29.346 37.2019 29.0431 37.2238 28.7541 37.3062C28.4651 37.3886 28.1962 37.5297 27.9642 37.7208C27.5902 38.0358 27.1244 38.7706 27.4459 39.2496C27.4525 39.2591 27.4614 39.2668 27.4717 39.2721C27.4819 39.2775 27.4933 39.2803 27.5049 39.2803C27.5165 39.2803 27.5279 39.2775 27.5382 39.2721C27.5485 39.2668 27.5573 39.2591 27.564 39.2496C27.6602 39.0396 27.7329 38.8195 27.7805 38.5935C27.8686 38.3391 28.0226 38.1127 28.2267 37.9373C28.6485 37.6187 29.1342 37.3949 29.6505 37.2812C29.6505 37.2812 29.6636 37.2484 29.6439 37.2418Z" fill="#542B24"/>
</g>
<g style="mix-blend-mode:multiply" opacity="0.33">
<path d="M30.1754 37.944C30.4116 38.541 29.8211 38.9282 29.3421 39.1512C29.0993 39.2628 28.8434 39.3678 28.5875 39.4596C28.4366 39.5121 28.2135 39.5515 28.1217 39.7024C28.1053 39.7329 28.1016 39.7686 28.1115 39.8018C28.1213 39.8349 28.1438 39.8629 28.1742 39.8795C28.3841 39.978 28.6597 39.8139 28.8303 39.7352C29.1748 39.5867 29.5026 39.402 29.8079 39.184C30.1754 38.9085 30.6675 38.3639 30.1754 37.944Z" fill="#542B24"/>
</g>
<g style="mix-blend-mode:multiply" opacity="0.33">
<path d="M29.283 36.1002C28.2398 35.4441 26.5601 36.4152 25.7859 37.1041C25.0116 37.793 24.1587 39.348 25.2478 40.2798C25.3003 40.3257 25.4119 40.2798 25.3791 40.201C24.4539 37.7537 27.2294 36.3036 29.2699 36.1593L29.283 36.1002Z" fill="#542B24"/>
</g>
<g style="mix-blend-mode:multiply" opacity="0.33">
<path d="M21.2914 34.5977C20.7993 34.8929 19.9791 36.6185 19.323 36.074C19.2987 36.0498 19.2686 36.0324 19.2356 36.0235C19.2025 36.0145 19.1677 36.0144 19.1346 36.023C19.1015 36.0316 19.0712 36.0487 19.0467 36.0726C19.0222 36.0965 19.0044 36.1264 18.9949 36.1593C18.7718 36.9072 18.3978 37.5568 17.4596 37.2287C17.1263 37.0793 16.8202 36.8753 16.5541 36.6251C16.9347 37.2812 17.3218 37.7799 18.1616 37.629C18.4423 37.5671 18.6996 37.427 18.904 37.225C19.1084 37.023 19.2513 36.7672 19.3164 36.4873C20.2022 36.8416 21.2848 35.4572 21.4423 34.6961C21.4454 34.6772 21.443 34.6579 21.4353 34.6404C21.4276 34.6229 21.4149 34.6081 21.3989 34.5976C21.3829 34.5872 21.3643 34.5817 21.3452 34.5817C21.3261 34.5817 21.3074 34.5872 21.2914 34.5977Z" fill="#542B24"/>
</g>
<g style="mix-blend-mode:multiply" opacity="0.33">
<path d="M25.8777 32.9902C25.6743 32.4653 25.3135 32.4128 24.8673 32.7802C24.5348 33.11 24.3381 33.5525 24.3161 34.0203C24.3161 34.1515 24.2177 35.0242 24.0078 35.0832C23.929 35.0832 23.7781 34.7946 23.66 34.847C23.2073 35.0308 23.0039 35.1226 23.0957 35.7459C23.2212 36.1127 23.2984 36.4943 23.3254 36.881C23.337 37.2848 23.2322 37.6834 23.0236 38.0293C22.5708 38.8101 21.6523 39.7352 20.7927 38.8101C20.7927 38.8101 20.7271 38.8101 20.7402 38.8494C21.6063 40.4373 23.3057 38.6985 23.6797 37.5897C23.8011 37.0762 23.8011 36.5415 23.6797 36.0281C23.5682 34.6699 23.7191 35.7394 24.0668 35.5819C24.2112 35.5163 24.3621 35.5097 24.4933 35.3523C24.5987 35.1887 24.6618 35.0016 24.677 34.8077C24.677 34.7027 24.7098 34.5977 24.7229 34.4927C24.675 34.2142 24.7297 33.9277 24.8769 33.6863C25.0241 33.445 25.2538 33.2653 25.5234 33.1805C25.5825 33.3445 25.9565 33.2067 25.8777 32.9902Z" fill="#542B24"/>
</g>
<g style="mix-blend-mode:multiply" opacity="0.33">
<path d="M39.0725 8.73314C38.786 8.81758 38.5305 8.98408 38.3376 9.2121C38.0981 9.4609 37.8968 9.74394 37.7405 10.0519C37.6487 10.2357 37.465 10.5506 37.6159 10.7474C37.625 10.7597 37.6369 10.7696 37.6506 10.7764C37.6643 10.7832 37.6793 10.7868 37.6946 10.7868C37.7099 10.7868 37.7249 10.7832 37.7386 10.7764C37.7523 10.7696 37.7642 10.7597 37.7733 10.7474C37.8649 10.6013 37.9335 10.442 37.9768 10.275C38.09 10.0177 38.2379 9.77708 38.4163 9.55984C38.565 9.36195 38.7444 9.18916 38.9478 9.04806C39.0856 8.95621 39.289 8.96278 39.4137 8.87092C39.4071 8.72657 39.184 8.71345 39.0725 8.73314Z" fill="#542B24"/>
</g>
<g style="mix-blend-mode:multiply" opacity="0.33">
<path d="M9.97971 26.1468C9.85618 25.984 9.68837 25.8604 9.49637 25.7905C9.30436 25.7207 9.09631 25.7077 8.8971 25.7531C8.8971 24.8279 8.36564 24.0012 7.50612 24.4736C6.98777 23.3385 4.8816 23.8503 3.77274 24.408C3.87772 23.8634 3.96958 23.1483 3.52998 22.9514C2.87385 22.6693 2.70981 24.0078 2.57858 24.2965C2.7258 24.0689 2.88571 23.8499 3.05756 23.6403C3.59559 23.4107 3.32658 24.4212 3.26096 24.8017C3.26096 24.9657 3.41186 25.1691 3.57589 25.0445C4.23202 24.5852 6.92871 23.6272 7.14523 24.9198C7.17804 25.1035 7.42081 25.1232 7.53891 25.0182C8.405 24.9723 8.68057 25.3332 8.37219 26.114C8.35878 26.164 8.3622 26.2171 8.38192 26.265C8.40164 26.3129 8.43658 26.353 8.48134 26.3791C8.52609 26.4052 8.5782 26.4159 8.62961 26.4095C8.68103 26.4031 8.7289 26.3799 8.76587 26.3436C9.82443 26.6848 10.17 27.3015 9.80257 28.1939C9.71727 28.4826 9.6254 28.7647 9.52041 29.0469C9.41543 29.329 9.7435 29.3487 9.84848 29.1846C10.3668 28.3382 10.7343 26.9604 9.97971 26.1468Z" fill="#542B24"/>
</g>
<g style="mix-blend-mode:screen" opacity="0.57">
<path d="M10.1634 15.0385C10.0388 14.986 9.95346 15.1894 10.0716 15.2615C12.4205 16.6066 10.9245 20.3269 8.60841 18.3388C8.59428 18.321 8.57632 18.3067 8.55587 18.2968C8.53542 18.2869 8.51301 18.2818 8.49031 18.2818C8.46761 18.2818 8.44518 18.2869 8.42473 18.2968C8.40429 18.3067 8.38633 18.321 8.37219 18.3388L7.43393 18.5291C7.41958 18.5049 7.39851 18.4855 7.3733 18.4732C7.34809 18.4609 7.31984 18.4562 7.29199 18.4596C7.26414 18.4631 7.2379 18.4746 7.2165 18.4928C7.1951 18.511 7.17946 18.535 7.17149 18.5619C6.97324 19.6074 6.56716 20.6025 5.97733 21.4882C4.28451 23.8634 1.88965 22.1903 1.57471 19.9725C1.63376 21.626 2.97226 23.6797 4.85535 22.8923C5.80674 22.4986 6.41694 21.4554 6.82374 20.5762C6.96809 20.2678 7.13867 19.1786 7.36832 19.0212C7.36832 19.0212 7.82105 19.1786 7.762 19.2114C8.05018 19.0177 8.3699 18.8756 8.70682 18.7915C9.44169 18.7915 9.94034 19.277 10.7933 18.9293C12.9323 18.096 11.8038 15.7274 10.1634 15.0385Z" fill="#C6BDBA"/>
</g>
<g style="mix-blend-mode:screen" opacity="0.57">
<path d="M17.4136 31.7698C15.3403 33.1542 13.7721 30.5428 12.9717 29.014C13.4638 30.8512 15.3993 33.607 17.5646 32.0454C17.7483 31.9338 17.5908 31.6517 17.4136 31.7698Z" fill="#C6BDBA"/>
</g>
<g style="mix-blend-mode:screen" opacity="0.57">
<path d="M23.9881 29.3093C23.9835 29.2946 23.9744 29.2818 23.962 29.2727C23.9496 29.2636 23.9346 29.2587 23.9192 29.2587C23.9038 29.2587 23.8888 29.2636 23.8764 29.2727C23.864 29.2818 23.8549 29.2946 23.8503 29.3093C23.806 29.8527 23.6936 30.3884 23.5157 30.9037C23.2073 31.468 22.6102 31.3761 22.2034 30.9431H22.1575C22.0591 31.5992 23.0105 31.678 23.4173 31.409C24.034 31.0284 24.1193 29.9392 23.9881 29.3093Z" fill="#C6BDBA"/>
</g>
<g style="mix-blend-mode:screen" opacity="0.57">
<path d="M22.7414 32.4259C22.0853 31.2777 20.9436 31.9469 20.8059 32.9902C20.0907 32.9443 18.7981 33.3773 19.3755 34.2434C19.3751 34.0656 19.4204 33.8908 19.5071 33.7356C19.5937 33.5804 19.7188 33.4501 19.8704 33.3572C20.0219 33.2643 20.1948 33.212 20.3724 33.2051C20.55 33.1983 20.7264 33.2372 20.8846 33.3182C20.9077 33.3242 20.9319 33.3249 20.9553 33.3201C20.9788 33.3153 21.0008 33.3053 21.0198 33.2908C21.0387 33.2762 21.0542 33.2576 21.0648 33.2362C21.0755 33.2148 21.0812 33.1912 21.0814 33.1673C21.0613 32.9796 21.0928 32.7899 21.1726 32.6188C21.2524 32.4476 21.3774 32.3016 21.5341 32.1963C21.9475 31.9797 22.2756 32.2488 22.5643 32.5506C22.5808 32.5741 22.606 32.59 22.6343 32.595C22.6626 32.5999 22.6917 32.5934 22.7152 32.5768C22.7387 32.5603 22.7546 32.5351 22.7596 32.5068C22.7645 32.4785 22.758 32.4494 22.7414 32.4259Z" fill="#C6BDBA"/>
</g>
<g style="mix-blend-mode:screen" opacity="0.57">
<path d="M29.0009 25.4119C29.0009 25.3463 28.909 25.3725 28.9025 25.4119C28.7647 26.442 28.7384 27.4393 28.0495 28.2792C27.698 28.6852 27.254 29.0009 26.755 29.1996C26.2561 29.3982 25.7167 29.4741 25.1822 29.4209C25.1494 29.4209 25.1363 29.4602 25.1822 29.4668C27.5509 30.1295 29.3093 27.5509 29.0009 25.4119Z" fill="#C6BDBA"/>
</g>
<g style="mix-blend-mode:screen" opacity="0.57">
<path d="M35.864 14.4611C35.8603 14.4511 35.8536 14.4424 35.8448 14.4363C35.836 14.4302 35.8255 14.4269 35.8148 14.4269C35.8041 14.4269 35.7936 14.4302 35.7848 14.4363C35.776 14.4424 35.7693 14.4511 35.7656 14.4611C35.654 15.1172 35.7656 16.0686 35.2079 16.5804C34.9651 16.81 34.5517 16.8035 34.3483 17.0725C34.0465 17.4924 34.1581 17.9911 34.1187 18.4701C34.0952 18.7096 34.0513 18.9466 33.9875 19.1787L32.8458 19.8938C32.1897 19.9267 31.8419 19.0081 31.6188 18.5816H31.5663C31.6713 20.0448 33.7513 21.0158 34.2434 19.2377C34.3877 18.7063 34.1843 17.9255 34.4139 17.453C34.6436 16.9806 35.0701 17.0331 35.3719 16.7379C35.6193 16.4195 35.792 16.0496 35.8772 15.6555C35.9623 15.2614 35.9578 14.8532 35.864 14.4611Z" fill="#C6BDBA"/>
</g>
<g style="mix-blend-mode:screen" opacity="0.57">
<path d="M15.5503 3.22819C15.2288 4.65855 13.49 6.42354 11.8956 5.51153C11.8824 5.5026 11.8672 5.49701 11.8514 5.49525C11.8355 5.49349 11.8195 5.4956 11.8047 5.50141C11.7898 5.50722 11.7766 5.51656 11.7662 5.52861C11.7557 5.54065 11.7484 5.55505 11.7447 5.57057L9.83538 6.6663C9.82375 6.66232 9.8114 6.66091 9.79918 6.66215C9.78695 6.66339 9.77513 6.66726 9.76454 6.67349C9.75394 6.67972 9.74483 6.68817 9.7378 6.69826C9.73078 6.70834 9.726 6.71982 9.72383 6.73192C9.42857 7.55864 7.80794 10.38 6.3054 9.17272C6.3054 9.17272 6.25947 9.17271 6.3054 9.20551C6.88936 9.89445 7.95228 9.34988 8.55592 8.89715C9.15956 8.44442 9.40233 7.48647 9.99284 7.14528C10.3734 6.9222 10.7605 7.0731 11.1673 6.83033C11.5741 6.58756 11.666 6.04299 12.1515 5.89864C12.637 5.75429 13.116 6.04954 13.7262 5.78709C14.2473 5.57984 14.7041 5.23802 15.0499 4.79653C15.3957 4.35504 15.6182 3.8297 15.6946 3.27412C15.7007 3.25498 15.6989 3.2342 15.6897 3.21636C15.6805 3.19851 15.6645 3.18507 15.6454 3.17898C15.6263 3.17289 15.6055 3.17465 15.5876 3.18388C15.5698 3.19311 15.5563 3.20905 15.5503 3.22819Z" fill="#C6BDBA"/>
</g>
<g style="mix-blend-mode:screen" opacity="0.57">
<path d="M17.4596 13.8509C17.0134 13.9493 16.8035 14.1396 16.3376 13.6475C16.3253 13.6335 16.3101 13.6223 16.2932 13.6146C16.2762 13.607 16.2578 13.603 16.2392 13.603C16.2206 13.603 16.2022 13.607 16.1852 13.6146C16.1682 13.6223 16.1531 13.6335 16.1408 13.6475C16.0226 13.969 15.7602 14.0608 15.3534 13.9296C15.3402 13.902 15.3179 13.8799 15.2902 13.8671C15.2625 13.8542 15.2311 13.8515 15.2016 13.8592C15.1721 13.867 15.1461 13.8848 15.1283 13.9097C15.1105 13.9345 15.102 13.9647 15.1041 13.9952C15.6487 16.4163 13.28 18.9096 11.0098 19.2442C13.2013 19.592 15.2944 16.8887 15.4321 14.9138C15.4453 14.7675 15.4453 14.6204 15.4321 14.4742C15.5478 14.5212 15.6773 14.5212 15.793 14.4742C15.9242 14.4283 15.9767 14.2511 16.0948 14.1855C16.5213 13.969 16.1736 14.1396 16.5279 14.1461C16.8645 14.1635 17.202 14.137 17.5318 14.0674C17.7089 14.0608 17.6236 13.8115 17.4596 13.8509Z" fill="#C6BDBA"/>
</g>
<g style="mix-blend-mode:screen" opacity="0.57">
<path d="M22.7677 17.9516C22.4527 18.3978 21.9081 18.903 21.2979 18.6078C21.0486 18.4897 20.924 18.201 20.7599 17.9976C20.6391 17.7979 20.454 17.6452 20.235 17.5645C20.2069 17.5572 20.1771 17.5589 20.15 17.5695C20.1229 17.5801 20.0998 17.599 20.0841 17.6236C19.7692 18.2797 18.9753 17.407 18.7719 17.1052C18.7719 17.1052 18.7128 17.1052 18.7259 17.1052C18.7934 17.3203 18.9071 17.518 19.0589 17.6846C19.2108 17.8512 19.3972 17.9827 19.6051 18.0697C19.802 18.1288 19.8938 18.0697 20.0775 18.0697C20.1235 18.0697 20.1891 17.9254 20.2219 17.9254C20.4253 17.9254 20.5172 18.2403 20.609 18.3715C20.9174 18.8112 21.1995 19.1327 21.7769 19.0867C22.0669 19.0772 22.3437 18.9629 22.556 18.7651C22.7683 18.5673 22.9017 18.2993 22.9317 18.0107C22.9579 17.8991 22.8136 17.886 22.7677 17.9516Z" fill="#C6BDBA"/>
</g>
<g style="mix-blend-mode:screen" opacity="0.57">
<path d="M31.4351 5.47869C30.8643 6.41695 28.7122 8.05728 27.4984 7.84076C27.3934 7.84076 27.2556 7.91293 27.3015 8.04416C27.526 8.62279 27.6287 9.2415 27.6033 9.86163C27.6033 10.0191 27.249 11.5676 26.8881 11.0164C26.8638 10.9865 26.8297 10.9661 26.7918 10.9589C26.7539 10.9516 26.7147 10.9579 26.681 10.9767C26.6473 10.9955 26.6213 11.0256 26.6076 11.0617C26.5939 11.0977 26.5933 11.1375 26.606 11.1739C27.2097 12.3352 24.8279 12.1056 24.3292 12.1843C24.2439 12.1843 24.2439 12.3484 24.3292 12.3549C25.1428 12.473 25.7793 12.7289 26.5207 12.1975C26.6435 12.1279 26.7507 12.0338 26.8354 11.9208C26.9201 11.8079 26.9805 11.6787 27.0128 11.5413C27.6689 11.7185 27.9445 9.65167 27.892 9.16613C27.892 8.884 27.6952 8.35909 27.7936 8.20162C27.7936 8.20162 28.955 7.75546 29.0731 7.68984C30.0835 7.11245 31.1989 6.71222 31.632 5.55087C31.6845 5.44589 31.4876 5.37371 31.4351 5.47869Z" fill="#C6BDBA"/>
</g>
<g style="mix-blend-mode:screen" opacity="0.57">
<path d="M21.2455 14.4808C21.1909 14.3911 21.1037 14.326 21.0022 14.2991C20.9007 14.2722 20.7927 14.2856 20.7009 14.3364C20.5893 14.3898 20.4912 14.4676 20.4139 14.5642C20.3366 14.6608 20.2822 14.7736 20.2547 14.8942L20.2219 14.9663C20.2023 15.026 20.2023 15.0904 20.2219 15.1501C20.2022 15.2717 20.2022 15.3958 20.2219 15.5175C20.2494 15.6137 20.3138 15.6952 20.401 15.7443C20.4881 15.7934 20.5912 15.8062 20.6878 15.7799C20.814 15.737 20.9297 15.6681 21.0276 15.5776C21.1254 15.487 21.2032 15.377 21.2557 15.2545C21.3083 15.132 21.3346 14.9998 21.3328 14.8666C21.331 14.7333 21.3013 14.6018 21.2455 14.4808Z" fill="#C6BDBA"/>
</g>
<g style="mix-blend-mode:screen" opacity="0.57">
<path d="M22.4068 15.9308C22.3755 15.9308 22.3454 15.9432 22.3233 15.9654C22.3011 15.9875 22.2887 16.0176 22.2887 16.0489C22.2887 16.0802 22.3011 16.1103 22.3233 16.1324C22.3454 16.1545 22.3755 16.167 22.4068 16.167C22.4381 16.167 22.4682 16.1545 22.4903 16.1324C22.5125 16.1103 22.5249 16.0802 22.5249 16.0489C22.5249 16.0176 22.5125 15.9875 22.4903 15.9654C22.4682 15.9432 22.4381 15.9308 22.4068 15.9308Z" fill="#C6BDBA"/>
</g>
</g>
<defs>
<clipPath id="clip0_1_9428">
<rect width="44" height="44" fill="white"/>
</clipPath>
</defs>
</svg>
