<svg width="599" height="611" viewBox="0 0 599 611" fill="none" xmlns="http://www.w3.org/2000/svg">
<g clip-path="url(#clip0_113_172)">
<path d="M299.5 611C464.909 611 599 474.223 599 305.5C599 136.777 464.909 0 299.5 0C134.091 0 0 136.777 0 305.5C0 474.223 134.091 611 299.5 611Z" fill="#D4803A"/>
<path opacity="0.49" d="M23.76 185.87C32.6923 185.87 43.5897 188.056 50.5569 182.772C40.2848 232.246 82.2663 263.588 125.945 269.875C153.457 273.884 188.471 254.933 198.297 228.875C202.763 217.303 210.802 196.621 204.907 185.14C209.373 196.985 225.362 199.354 224.111 183.045C227.863 190.79 236.349 194.525 241.976 188.329C248.765 203.545 245.817 218.123 251.712 231.426C255.374 239.808 269.577 252.199 275.293 240.537C276.781 240.45 278.272 240.45 279.76 240.537C283.332 253.748 308.432 269.055 311.201 247.735C357.113 252.473 337.998 185.596 324.957 165.187C338.266 173.296 368.457 172.203 358.542 148.513C383.196 167.374 378.819 123.366 369.619 110.975C399.542 100.042 426.875 89.0169 432.77 52.572C433.843 45.7518 433.843 38.8006 432.77 31.9805C396.204 13.4707 356.318 2.77374 315.555 0.545298C274.793 -1.68314 234.014 4.60391 195.719 19.0211C157.423 33.4383 122.417 55.6818 92.8482 84.3879C63.279 113.094 39.7693 147.658 23.76 185.96V185.87Z" fill="#552805"/>
<path opacity="0.49" d="M280.206 308.507C278.152 297.209 274.936 281.173 261.716 278.349C248.496 275.524 241.529 287.004 248.675 299.578C240.368 297.482 234.205 288.736 225.63 285.455C215.137 281.203 203.583 280.501 192.669 283.451C159.173 297.847 155.422 358.528 187.131 375.475C151.402 385.497 209.284 471.051 242.601 436.793C244.477 469.047 300.661 460.118 300.572 424.311C312.005 449.367 324.242 421.395 323.17 406.088C351.218 407.819 381.32 410.279 391.056 375.383C393.369 366.582 393.399 357.319 391.144 348.501C388.889 339.684 384.427 331.617 378.193 325.089C352.022 298.029 321.473 304.042 280.206 308.507Z" fill="#552805"/>
<path opacity="0.56" d="M120.765 200.174C135.592 159.082 75.2992 134.391 83.6956 180.676C63.33 148.696 32.3349 198.352 56.8987 202.27C37.6049 225.139 12.2372 278.622 38.1408 306.594C71.1903 341.945 92.8958 273.155 99.7736 252.837C106.026 260.855 115.048 261.948 117.638 251.106C132.912 254.659 155.511 259.762 153.367 232.884C151.045 208.192 125.588 210.105 120.765 200.174Z" fill="#542B24"/>
<path opacity="0.56" d="M276.812 387.228C275.204 366.818 244.834 365.725 250.998 381.579C229.113 378.116 230.007 416.93 243.405 426.588C258.59 437.613 283.065 428.593 276.991 407.09C297.356 409.733 299.232 386.134 276.991 390.69L276.812 387.228Z" fill="#542B24"/>
<path opacity="0.56" d="M468.678 233.339C492.527 226.506 482.166 182.316 475.556 167.009C470.822 155.893 460.46 135.94 445.722 144.322C435.539 150.153 435.36 168.558 439.291 177.122C411.422 163.911 391.771 182.225 391.503 215.299C391.503 230.788 418.3 282.084 430.537 252.655C433.306 263.497 441.166 277.164 454.565 273.702C470.911 269.511 466.891 246.733 468.678 233.339Z" fill="#542B24"/>
<path opacity="0.56" d="M300.75 93.4815C299.053 64.1433 344.965 64.1434 328.798 99.8595C345.948 88.1971 350.235 119.449 346.663 130.291C341.66 147.238 320.312 158.445 303.787 158.263C295.107 158.078 286.651 155.42 279.374 150.59C272.097 145.76 266.29 138.949 262.61 130.929C256.357 117.444 258.501 88.0148 276.544 108.606C272.167 89.6548 283.064 75.0767 293.515 100.497L300.75 93.4815Z" fill="#542B24"/>
<path opacity="0.56" d="M292.176 35.7161C295.57 58.0387 283.243 46.5584 275.025 56.6719C266.808 66.7853 279.313 72.161 290.21 70.9766C290.609 74.3013 290.788 77.6497 290.746 80.999C296.82 76.3523 294.766 70.2477 297.267 63.3232C298.607 59.5876 303.52 51.843 304.145 48.6541C305.073 41.6505 303.938 34.5236 300.884 28.1799C297.83 21.8362 292.995 16.5623 286.995 13.0291L292.176 35.7161Z" fill="#542B24"/>
<path opacity="0.56" d="M167.034 51.5697C155.6 51.5697 158.816 60.6808 153.01 65.5098C147.641 69.9965 141.304 73.1192 134.52 74.621C113.708 82.6389 123.355 94.9392 111.832 104.688C107.545 108.424 65.8309 118.446 86.4645 128.924C107.098 139.402 127.285 98.8571 133.091 87.0124C135.335 88.6532 137.975 89.6391 140.726 89.8639C143.478 90.0887 146.238 89.5438 148.709 88.2881C151.18 87.0325 153.269 85.1137 154.751 82.7376C156.233 80.3616 157.051 77.6186 157.119 74.8034C174.09 81.8191 201.781 65.6921 207.408 48.2896C210.981 37.9028 210.445 28.5181 198.476 24.6914C181.862 19.0424 173.018 38.2673 167.034 51.5697Z" fill="#542B24"/>
<path opacity="0.56" d="M398.47 493.83C403.443 490.57 407.355 485.876 409.709 480.344C412.062 474.813 412.752 468.692 411.69 462.76C406.777 445.904 388.823 445.084 385.965 463.945C369.708 450.916 355.327 456.382 345.323 475.88C325.493 514.876 370.601 508.59 391.592 490.367L398.47 493.83Z" fill="#542B24"/>
<path opacity="0.49" d="M427.589 506.038C400.792 480.709 342.732 512.872 338.266 546.31C329.602 614.007 443.578 581.662 427.589 506.038Z" fill="#552805"/>
<path opacity="0.49" d="M591.676 238.806C582.044 194.96 562.975 153.848 535.849 118.446C509.052 127.011 502.71 173.114 511.106 202.27C521.2 237.439 530.579 280.535 496.725 306.776C480.915 319.076 456.53 316.525 443.131 331.558C432.77 343.585 433.485 363.265 437.415 378.026C418.389 374.381 404.723 388.23 411.332 407.91C408.359 407.765 405.388 408.259 402.613 409.359C399.839 410.46 397.321 412.143 395.224 414.298C393.128 416.454 391.498 419.035 390.442 421.875C389.385 424.714 388.925 427.747 389.091 430.78C356.756 401.441 328.53 451.462 315.668 476.336C297.803 472.418 288.335 462.396 273.418 478.523C258.501 494.65 260.198 529.728 228.22 518.065C196.243 506.403 210.892 466.405 192.938 446.269C173.287 424.22 157.834 439.162 137.2 443.171C128.982 422.488 144.793 403.719 144.257 382.855C144.257 368.368 126.392 344.952 114.78 362.992C121.569 352.514 114.78 333.927 102.007 343.129C102.007 330.283 90.3055 331.194 80.48 330.829C60.1144 330.009 51.7182 334.656 46.8947 341.581C54.4872 326.183 48.949 306.047 34.7467 326.547C31.6204 331.103 33.4962 350.236 23.6707 344.132C15.9889 339.394 23.2239 323.54 23.2239 316.798C23.2239 294.749 5.26309e-05 263.042 0.446668 300.307C0.446668 331.376 18.3112 385.861 54.5764 386.044C66.2777 405.724 50.1104 424.22 53.326 445.449C57.0776 469.958 76.3712 477.611 97.5407 475.334C96.9155 494.558 101.828 491.916 113.619 501.21C127.375 512.143 125.767 527.632 139.344 541.481C152.921 555.33 151.849 550.593 166.587 548.861C174.359 548.133 173.287 539.021 183.827 550.593C190.615 558.064 183.023 568.815 190.615 575.284C192.955 576.938 195.658 577.978 198.486 578.313C201.313 578.647 204.178 578.266 206.827 577.204C209.476 576.141 211.827 574.429 213.674 572.219C215.52 570.009 216.804 567.369 217.412 564.533C226.345 566.72 246.978 602.071 253.767 576.195C267.255 588.678 283.601 599.611 287.799 574.737C299.768 589.133 310.755 582.026 316.025 567.175C323.081 547.495 309.236 528.452 308.343 509.227C306.378 469.32 328.709 498.203 348.985 491.734C347.288 471.233 369.708 483.898 378.462 469.594C399.28 481.295 423.71 484.394 446.704 478.249C459.835 474.696 506.551 448 488.776 430.962C494.035 435.287 500.763 437.304 507.48 436.57C514.198 435.835 520.353 432.409 524.594 427.044C528.834 421.68 530.812 414.817 530.092 407.965C529.372 401.113 526.012 394.833 520.753 390.508C542.548 387.046 551.123 383.219 562.199 360.35C572.694 339.363 578.922 316.43 580.51 292.927C580.957 275.706 573.722 259.671 573.811 242.541C580.015 243.634 586.394 242.3 591.676 238.806Z" fill="#552805"/>
<g style="mix-blend-mode:screen" opacity="0.57">
<path d="M350.414 353.972C357.024 371.648 376.139 354.792 371.941 340.032C368.547 327.914 335.676 311.149 339.785 329.372C338.981 310.694 314.328 316.16 308.789 329.372C299.411 352.605 316.65 367.73 338.445 365.817L350.414 353.972Z" fill="#C6BDBA"/>
</g>
<g style="mix-blend-mode:screen" opacity="0.76">
<path d="M577.295 411.555C575.33 406.361 580.867 395.975 578.099 388.777C576.491 384.221 569.881 382.854 567.648 378.481C565.414 374.108 569.523 367.092 567.648 362.901C563.896 353.152 538.35 325.454 522.986 325.271C541.923 314.884 546.568 287.369 537.635 267.506C537.099 255.297 535.491 242.541 547.907 243.27C547.282 237.986 550.051 234.159 550.587 229.877C560.859 243.361 575.061 226.505 568.451 214.752C569.724 215.956 571.313 216.755 573.024 217.053C574.735 217.351 576.494 217.134 578.085 216.428C579.677 215.722 581.033 214.559 581.987 213.08C582.941 211.601 583.452 209.871 583.458 208.101C578.73 193.717 572.968 179.708 566.218 166.189C563.628 169.56 563.003 175.756 566.218 186.052C557.286 168.558 547.014 194.707 547.639 204.912C546.746 203.09 545.049 201.176 544.245 199.81C530.847 210.743 530.489 230.606 530.221 247.097C527.54 247.355 525.008 248.471 522.986 250.286C520.909 249.053 518.727 248.016 516.465 247.188C524.237 239.717 531.829 212.839 515.036 205.459C518.137 204.292 520.874 202.299 522.964 199.687C525.053 197.075 526.418 193.94 526.916 190.607C531.204 169.013 503.782 147.055 494.046 124.642C495.229 117.468 494.407 110.098 491.674 103.379C488.941 96.6591 484.407 90.8606 478.593 86.6478C464.658 78.1744 452.421 81.6366 455.458 99.4035C458.227 115.166 477.61 123.457 481.451 137.671C484.935 150.244 473.055 168.011 495.207 174.116C482.076 187.874 488.775 206.461 500.655 217.85C494.313 232.154 462.782 283.177 491.723 291.833C483.327 292.744 481.094 308.689 487.793 319.167C482.165 319.804 476.717 321.08 472.608 321.444C462.961 322.264 452.689 310.147 447.955 326.456C445.454 335.02 454.207 344.678 460.728 348.232C448.312 352.423 457.512 370.554 454.386 381.488C448.223 377.843 443.221 371.921 436.521 372.377C433.18 364.638 427.436 358.235 420.175 354.154C448.044 350.236 431.341 283.542 403.561 298.393C411.958 288.735 402.043 272.608 389.895 272.062C396.683 264.135 388.734 249.193 379.444 245.639C364.795 240.081 365.242 251.926 355.416 259.853C324.868 284.453 346.484 216.301 343.179 203.819C339.874 191.336 293.247 153.889 296.999 174.116C299.053 185.049 321.295 191.336 326.475 201.45C333.532 215.299 317.543 239.079 327.19 245.639C312.899 254.113 313.166 282.084 332.639 282.631C322.277 299.942 337.462 303.404 349.521 303.86C353.898 303.86 358.453 297.209 363.723 299.669C368.993 302.129 363.723 311.696 367.207 313.882C379.801 322.993 388.912 313.882 391.145 332.105C392.664 344.587 383.463 368.55 411.243 363.265C403.918 372.923 402.311 386.317 412.851 391.966C405.169 391.419 399.542 397.706 403.025 410.188C395.88 410.188 369.529 421.668 366.046 428.411C348.181 412.557 330.942 443.809 318.615 464.4C321.741 449.731 286.548 426.953 286.28 455.289C275.115 452.009 256.446 462.122 262.342 475.88C246.264 466.769 229.113 448.546 208.748 461.849C193.563 470.96 197.404 491.278 210.892 500.572C205.887 503.477 202.01 508.043 199.905 513.51C192.492 507.577 183.334 504.367 173.912 504.398C175.52 462.942 54.1296 470.505 70.7437 425.768C79.676 401.077 94.4144 430.597 101.56 434.333C104.824 435.857 108.45 436.384 112.001 435.85C115.551 435.316 118.874 433.745 121.569 431.326C138.719 413.104 108.17 396.339 105.223 409.915C107.634 393.423 79.408 362.719 72.9768 383.128C76.4604 371.648 59.3999 363.356 50.2889 370.828C51.8074 358.892 40.8205 358.527 33.5853 364.267C33.9896 360.89 33.6349 357.463 32.5478 354.247C31.4608 351.03 29.6702 348.108 27.3116 345.702C24.953 343.297 22.0883 341.47 18.9349 340.361C15.7814 339.252 12.4219 338.89 9.1109 339.303C9.82549 327.64 15.2742 317.253 7.14579 306.775C5.17383 304.18 2.71414 302.012 -0.0893555 300.398C-0.0893555 302.129 -0.0893555 303.769 -0.0893555 305.5C0.0799679 340.517 6.12202 375.246 17.7752 408.184L21.1696 406.179C20.2003 408.42 19.6838 410.837 19.6509 413.286C20.6335 415.837 21.616 418.479 22.6879 421.031C24.613 422.811 26.9726 424.029 29.5188 424.559C32.065 425.088 34.704 424.907 37.1585 424.037C29.0301 449.64 53.5937 474.969 78.2468 472.965C75.1205 498.02 116.477 518.976 134.699 502.941C135.242 506.233 136.527 509.351 138.451 512.052C134.342 518.703 136.039 529.363 129.518 537.29C127.633 539.65 125.246 541.541 122.538 542.82C119.829 544.099 116.871 544.731 113.887 544.67C118.442 548.406 122.819 551.959 127.91 555.421C133.259 551.922 139.426 549.94 145.775 549.681C153.189 549.135 163.64 557.699 163.64 540.023C163.64 535.65 156.673 526.539 151.224 518.703C156.614 518.67 161.928 517.393 166.766 514.967C167.258 517.359 168.301 519.596 169.808 521.495C171.315 523.393 173.244 524.899 175.434 525.887C177.625 526.875 180.014 527.317 182.406 527.177C184.797 527.037 187.121 526.318 189.186 525.081C188.674 527.818 188.785 530.638 189.509 533.325C190.233 536.012 191.552 538.493 193.364 540.579C195.175 542.664 197.432 544.298 199.959 545.355C202.487 546.412 205.219 546.863 207.944 546.674C211.968 553.116 217.453 558.475 223.937 562.297C230.42 566.12 237.711 568.292 245.192 568.633C274.936 566.719 244.566 523.076 215.804 538.201C215.98 534.449 215.113 530.722 213.303 527.45C219.109 526.448 225.094 521.254 227.506 509.227C238.046 522.53 255.642 514.603 260.109 498.749C281.814 502.667 278.42 474.149 296.91 474.058C280.385 485.72 267.79 553.417 303.43 542.21C325.94 535.194 299.679 463.762 330.227 485.994C332.996 475.425 333.532 458.66 342.554 451.28C346.216 448.273 350.95 452.191 352.469 451.28C353.987 450.369 358.811 447.271 363.187 444.264C367.564 441.257 370.244 433.968 377.747 431.964C385.25 429.959 387.305 434.242 393.289 433.968C401.418 433.968 412.404 428.046 419.461 437.522C427.5 448.547 415.352 467.771 437.325 467.133C470.911 466.131 444.739 421.577 460.549 413.377C462.192 414.42 463.926 415.305 465.73 416.019C466.534 395.428 473.054 406.908 482.969 398.799C496.368 387.592 490.562 370.008 481.54 356.979C497.618 368.368 496.814 344.861 511.553 347.867C512.089 359.53 518.699 367.73 530.579 365.452C528.613 382.217 536.385 380.85 542.548 391.419C549.783 403.719 545.674 413.833 564.968 416.566C565.529 423.036 567.58 429.279 570.953 434.788C574.079 427.955 577.026 420.939 579.885 413.833C578.907 413.22 578.033 412.451 577.295 411.555ZM420.265 393.879H423.212H424.105C424.809 395.76 425.804 397.514 427.053 399.072C425.098 396.958 422.802 395.202 420.265 393.879ZM513.25 331.011C512.99 330.297 512.692 329.597 512.357 328.916C513.325 328.83 514.282 328.647 515.215 328.369C514.469 329.175 513.81 330.061 513.25 331.011Z" fill="#C6BDBA"/>
</g>
<g style="mix-blend-mode:screen" opacity="0.57">
<path d="M228.756 228.875C228.07 228.538 227.306 228.402 226.549 228.483C225.792 228.563 225.072 228.856 224.469 229.33C223.399 230.239 222.412 231.245 221.521 232.337C216.337 237.673 213.172 244.71 212.589 252.199C211.909 255.199 211.431 258.244 211.16 261.311C211.16 264.135 214.554 264.408 215.894 262.586C216.754 261.417 217.502 260.166 218.127 258.85C218.958 258.572 219.699 258.068 220.271 257.392C222.617 254.187 224.567 250.698 226.077 247.006C228.756 242.632 231.168 237.895 233.49 233.43C233.916 232.768 234.1 231.974 234.01 231.187C233.919 230.401 233.56 229.672 232.995 229.128C232.43 228.585 231.696 228.261 230.921 228.215C230.146 228.169 229.379 228.402 228.756 228.875Z" fill="#C6BDBA"/>
</g>
<g style="mix-blend-mode:screen" opacity="0.57">
<path d="M230.9 316.889C229.024 311.969 222.682 307.778 217.501 311.331C215.544 312.835 213.721 314.512 212.053 316.342C208.678 318.047 205.803 320.63 203.717 323.829C201.632 327.028 200.409 330.731 200.173 334.565C200.008 336.483 200.342 338.411 201.142 340.155C201.942 341.899 203.179 343.397 204.728 344.496C204.883 344.862 205.094 345.2 205.353 345.498C206.195 346.663 207.442 347.454 208.838 347.708C210.234 347.962 211.672 347.66 212.857 346.865C215.425 346.877 217.963 346.285 220.271 345.134L221.521 344.314C224.459 343.739 227.119 342.164 229.066 339.847C231.013 337.53 232.132 334.608 232.24 331.558C232.376 330.53 232.376 329.488 232.24 328.46C232.793 324.55 232.33 320.56 230.9 316.889Z" fill="#C6BDBA"/>
</g>
<g style="mix-blend-mode:screen" opacity="0.57">
<path d="M202.674 298.758C202.407 298.335 202.038 297.99 201.602 297.755H200.798H198.833C198.833 297.755 198.386 297.755 198.208 297.755C197.772 297.99 197.402 298.335 197.136 298.758C196.877 299.215 196.741 299.733 196.741 300.261C196.741 300.789 196.877 301.307 197.136 301.764V303.313C197.067 303.74 197.102 304.178 197.238 304.588C197.373 304.998 197.606 305.368 197.915 305.665C198.223 305.962 198.599 306.177 199.008 306.291C199.418 306.405 199.848 306.415 200.262 306.32C200.676 306.415 201.107 306.405 201.516 306.291C201.925 306.177 202.301 305.962 202.61 305.665C202.918 305.368 203.151 304.998 203.286 304.588C203.422 304.178 203.457 303.74 203.388 303.313V301.764C203.548 301.244 203.565 300.69 203.439 300.16C203.313 299.631 203.049 299.146 202.674 298.758Z" fill="#C6BDBA"/>
</g>
<g style="mix-blend-mode:screen" opacity="0.57">
<path d="M322.903 33.6205C322.188 21.6848 307.539 15.398 300.84 7.74451C305.485 14.7602 313.434 19.2247 317.633 26.4226C324.6 38.2672 312.898 43.4606 307.718 51.9341C306.159 54.3463 305.293 57.1552 305.217 60.0432C304.502 66.1478 301.197 70.8855 299.947 77.2633C299.828 77.5291 299.818 77.8322 299.919 78.1056C300.019 78.379 300.222 78.6003 300.483 78.7212C300.743 78.842 301.04 78.8523 301.308 78.7498C301.576 78.6473 301.793 78.4403 301.912 78.1745C304.609 73.87 307.593 69.7601 310.844 65.8743C311.083 65.5447 311.213 65.1455 311.213 64.7354C311.213 64.3253 311.083 63.926 310.844 63.5965C304.77 53.3919 323.439 44.8274 322.903 33.6205Z" fill="#C6BDBA"/>
</g>
<g style="mix-blend-mode:screen" opacity="0.57">
<path d="M235.187 30.6138C233.044 30.6138 233.848 33.8939 235.634 34.0762C246.978 35.534 259.394 44.1897 257.072 56.0343C254.562 63.3022 250.574 69.9467 245.37 75.5322C238.546 84.2708 229.022 90.3959 218.35 92.9105C207.678 95.4252 196.486 94.1814 186.596 89.3815C185.816 89.2056 185 89.3321 184.306 89.7363C183.613 90.1405 183.092 90.7934 182.844 91.5681C179.003 102.957 180.611 115.348 161.317 112.524C160.795 112.386 160.248 112.371 159.719 112.48C159.19 112.588 158.691 112.818 158.262 113.151C157.832 113.484 157.481 113.912 157.237 114.403C156.993 114.895 156.861 115.436 156.851 115.986C155.869 137.671 138.986 118.72 132.644 120.268C124.86 122.187 117.596 125.861 111.386 131.02C107.111 135.247 102.117 138.643 96.6473 141.042C93.7905 142.25 90.6491 142.577 87.612 141.982C84.5749 141.387 81.7755 139.897 79.5604 137.696C77.3453 135.494 75.8117 132.679 75.1496 129.597C74.4874 126.516 74.7258 123.304 75.8352 120.36C79.8411 110.328 86.6029 101.69 95.3075 95.4858C95.3075 95.4858 95.3075 94.8481 95.3075 94.9392C78.4255 102.593 48.3235 145.051 81.2837 150.791C89.8083 151.629 98.3494 149.37 105.401 144.413C120.854 135.302 122.104 129.835 140.594 130.929C146.9 132.572 153.562 132.027 159.531 129.38C163.461 126.92 163.372 122.637 167.57 120.268C171.768 117.9 177.127 121.271 181.862 116.168C186.596 111.066 184.095 101.044 187.31 98.5836C190.526 96.1236 211.517 101.135 217.859 99.8593C228.789 97.204 238.703 91.3071 246.353 82.9123C264.753 64.3254 275.025 23.2337 235.187 30.6138Z" fill="#C6BDBA"/>
</g>
<g style="mix-blend-mode:screen" opacity="0.57">
<path d="M245.638 118.811C245.413 118.412 245.042 118.121 244.606 118.001C244.171 117.881 243.707 117.943 243.316 118.173C242.925 118.402 242.639 118.781 242.522 119.225C242.405 119.669 242.465 120.143 242.69 120.542C246.826 127.232 250.325 134.311 253.141 141.68C255.285 150.153 249.747 165.46 239.743 161.724C238.314 161.087 237.42 158.445 235.813 157.989C233.42 157.076 230.973 156.316 228.488 155.711C224.379 154.709 222.95 165.551 220.985 154.436C220.84 153.897 220.525 153.421 220.09 153.083C219.654 152.744 219.121 152.56 218.573 152.56C218.025 152.56 217.493 152.744 217.057 153.083C216.621 153.421 216.307 153.897 216.161 154.436C210.088 160.904 206.068 161.178 204.103 155.438C202.555 152.589 201.441 149.517 200.798 146.327C200.173 143.958 196.242 143.776 195.796 146.327C194.197 162.93 189.594 179.087 182.219 193.978C164.354 223.954 146.49 172.931 158.816 155.164C158.816 155.164 158.816 154.436 158.28 154.709C146.222 166.827 147.204 205.094 167.213 208.738C187.221 212.383 195.617 177.123 199.012 156.805C204.282 166.827 213.035 173.751 218.216 163.638C219.377 164.64 221.074 164.276 224.379 164.913C225.273 164.913 228.399 163.456 230.811 163.82C235.813 164.549 235.009 167.1 238.582 168.376C242.155 169.651 241.708 170.289 245.638 169.742C273.15 166.007 253.945 129.835 245.638 118.811Z" fill="#C6BDBA"/>
</g>
<g style="mix-blend-mode:screen" opacity="0.57">
<path d="M173.733 272.608C173.531 272.275 173.228 272.017 172.871 271.873C172.513 271.728 172.119 271.706 171.748 271.808C171.377 271.91 171.048 272.132 170.81 272.441C170.572 272.749 170.438 273.127 170.428 273.52C170.428 279.533 164.98 308.325 154.261 296.298C153.861 295.918 153.373 295.648 152.842 295.515C152.312 295.381 151.756 295.387 151.229 295.533C150.701 295.679 150.219 295.96 149.828 296.349C149.436 296.737 149.148 297.222 148.991 297.755C148.544 300.58 146.758 315.522 138.629 309.327C136.128 307.322 137.111 298.94 137.379 296.298C137.647 293.655 132.645 292.471 131.841 295.569C129.518 305.227 119.425 322.265 107.098 319.44C87.8939 314.976 103.793 287.369 107.634 279.168C107.671 279.018 107.661 278.86 107.603 278.716C107.546 278.572 107.445 278.451 107.316 278.369C107.186 278.288 107.035 278.251 106.883 278.264C106.732 278.276 106.588 278.338 106.473 278.44C99.0592 290.284 83.6064 316.434 105.223 323.996C116.12 327.732 126.214 318.711 132.02 308.689C132.227 311.041 133.147 313.269 134.651 315.065C136.156 316.861 138.17 318.135 140.416 318.711C148.366 320.169 152.028 311.422 153.814 304.316C167.57 311.422 180.432 284.909 173.733 272.608Z" fill="#C6BDBA"/>
</g>
<g style="mix-blend-mode:screen" opacity="0.57">
<path d="M113.887 228.145C113.51 227.772 113.024 227.534 112.503 227.467C111.982 227.401 111.453 227.51 110.998 227.778C110.543 228.047 110.187 228.459 109.982 228.953C109.778 229.447 109.738 229.995 109.867 230.514C112.279 237.439 108.081 246.004 100.31 238.441C99.9409 238.08 99.497 237.808 99.0108 237.646C98.5246 237.484 98.0088 237.437 97.502 237.507C96.9953 237.577 96.5107 237.763 96.0843 238.051C95.6579 238.339 95.3008 238.721 95.0397 239.17C91.6454 246.368 83.9637 253.839 78.0684 244.273C72.1731 234.706 80.4801 227.417 88.6978 224.592C89.3402 224.394 89.9029 223.99 90.3029 223.441C90.7028 222.891 90.9186 222.224 90.9186 221.54C90.9186 220.855 90.7028 220.189 90.3029 219.639C89.9029 219.09 89.3402 218.686 88.6978 218.488C86.1005 217.358 83.9781 215.329 82.706 212.757C81.4338 210.186 81.0939 207.239 81.7459 204.437C82.398 201.635 84.0001 199.158 86.2693 197.444C88.5385 195.73 91.3285 194.89 94.1464 195.072C104.419 195.983 113.44 213.294 103.079 220.219C102.871 220.36 102.724 220.577 102.668 220.825C102.611 221.073 102.649 221.334 102.774 221.554C102.9 221.775 103.102 221.938 103.341 222.012C103.58 222.085 103.838 222.063 104.061 221.95C118.889 213.659 105.669 190.425 91.6454 190.881C88.2994 191.054 85.0798 192.239 82.3961 194.284C79.7123 196.33 77.6859 199.144 76.5748 202.368C75.4638 205.592 75.3184 209.08 76.157 212.389C76.9956 215.698 78.7801 218.677 81.2839 220.948C71.1904 226.505 64.9379 237.53 72.7984 248.919C80.6588 260.308 92.6279 255.57 98.8805 245.912C100.985 247.59 103.579 248.501 106.25 248.501C108.92 248.501 111.515 247.59 113.619 245.912C114.925 244.856 115.985 243.517 116.721 241.992C117.458 240.467 117.854 238.794 117.879 237.094C117.905 235.394 117.56 233.709 116.87 232.162C116.179 230.614 115.161 229.242 113.887 228.145Z" fill="#C6BDBA"/>
</g>
<g style="mix-blend-mode:screen" opacity="0.57">
<path d="M327.994 120.086C329.5 119.229 330.821 118.069 331.876 116.677C332.931 115.285 333.698 113.69 334.132 111.987C334.566 110.284 334.658 108.509 334.401 106.77C334.144 105.03 333.545 103.361 332.639 101.864C326.654 92.0237 314.774 97.9459 311.737 106.602C310.665 109.426 314.596 111.157 316.382 109.426C318.168 107.695 324.421 100.315 326.922 106.51C329.423 112.706 320.67 116.715 316.471 117.899C312.273 119.084 313.97 125.644 318.437 125.006C321.239 124.761 324.038 125.53 326.34 127.179C328.642 128.828 330.301 131.252 331.026 134.025C331.751 136.798 331.495 139.742 330.304 142.341C329.112 144.941 327.061 147.029 324.51 148.24C317.722 150.609 300.929 149.242 301.733 139.129C301.726 138.391 301.488 137.675 301.054 137.085C300.621 136.495 300.013 136.062 299.321 135.849C296.573 135.849 293.938 134.735 291.995 132.753C290.052 130.771 288.96 128.083 288.96 125.28C288.96 122.476 290.052 119.788 291.995 117.806C293.938 115.824 296.573 114.711 299.321 114.711C299.321 114.711 299.321 114.073 299.321 113.982C279.581 110.975 279.134 136.578 295.302 141.315C296.642 156.167 322.099 159.538 331.924 152.067C334.322 150.001 336.176 147.357 337.318 144.374C338.46 141.392 338.853 138.166 338.463 134.989C338.073 131.812 336.911 128.785 335.082 126.183C333.254 123.58 330.818 121.485 327.994 120.086Z" fill="#C6BDBA"/>
</g>
<g style="mix-blend-mode:screen" opacity="0.57">
<path d="M467.427 178.125C464.667 175.609 461.117 174.181 457.416 174.098C453.715 174.014 450.107 175.281 447.24 177.669C443.521 180.453 440.943 184.542 440.005 189.149C438.435 189.096 436.884 189.507 435.539 190.334C429.524 194.927 425.49 201.72 424.284 209.285C423.532 212.976 423.775 216.806 424.986 220.367C426.197 223.929 428.331 227.089 431.162 229.512C438.04 234.068 440.809 227.143 441.881 221.312C441.881 220.583 441.077 220.037 440.72 220.765C437.593 227.599 434.556 225.503 432.502 220.128C431.173 216.901 430.892 213.325 431.698 209.923C432.465 207.103 433.671 204.426 435.271 201.996C435.896 201.085 437.236 198.625 438.397 198.169C439.558 197.714 439.558 198.169 439.826 198.169C439.918 199.096 440.098 200.012 440.362 200.903C441.523 206.187 449.295 203.91 448.401 198.625C445.722 185.778 461.085 175.938 464.926 191.974C467.963 204.274 459.567 211.836 454.118 221.403C453.816 221.932 453.674 222.541 453.711 223.152C453.748 223.763 453.961 224.349 454.324 224.837C454.688 225.324 455.184 225.691 455.752 225.89C456.319 226.09 456.932 226.114 457.512 225.959C476.092 222.77 479.754 189.514 467.427 178.125Z" fill="#C6BDBA"/>
</g>
<g style="mix-blend-mode:screen" opacity="0.57">
<path d="M336.837 329.827C333.703 328.801 330.327 328.842 327.218 329.943C324.109 331.044 321.434 333.146 319.598 335.932C318.454 338.392 318.261 341.202 319.055 343.801C319.849 346.401 321.574 348.6 323.885 349.963C326.484 351.445 329.5 351.982 332.438 351.485C335.376 350.988 338.061 349.488 340.052 347.23C340.463 346.739 340.795 346.186 341.035 345.59C341.359 345.832 341.731 346 342.126 346.081C342.52 346.162 342.926 346.155 343.317 346.059C343.708 345.964 344.074 345.783 344.39 345.529C344.705 345.274 344.962 344.953 345.144 344.587C345.615 343.062 345.771 341.454 345.602 339.864C345.433 338.274 344.943 336.737 344.162 335.35C343.382 333.963 342.328 332.756 341.067 331.806C339.806 330.855 338.366 330.181 336.837 329.827Z" fill="#C6BDBA"/>
</g>
<g style="mix-blend-mode:screen" opacity="0.57">
<path d="M153.903 455.471C152.861 453.756 151.29 452.442 149.437 451.735C149.022 451.69 148.602 451.69 148.187 451.735C147.998 451.421 147.756 451.143 147.472 450.915C147.285 450.709 147.04 450.566 146.77 450.506C146.501 450.447 146.219 450.474 145.965 450.584C145.711 450.693 145.497 450.88 145.351 451.119C145.205 451.358 145.135 451.637 145.15 451.918C145.15 452.555 145.15 453.193 145.15 453.74C145.017 454.309 145.017 454.902 145.15 455.471C145.039 456.426 145.152 457.394 145.477 458.297C145.803 459.199 146.334 460.011 147.026 460.664C147.841 461.39 148.864 461.827 149.943 461.909C151.022 461.991 152.099 461.714 153.01 461.12C153.367 460.867 153.669 460.542 153.899 460.167C154.13 459.791 154.283 459.371 154.35 458.933C154.55 458.361 154.614 457.749 154.537 457.147C154.459 456.545 154.242 455.971 153.903 455.471Z" fill="#C6BDBA"/>
</g>
<g style="mix-blend-mode:screen" opacity="0.57">
<path d="M177.038 450.824C177.031 450.431 176.94 450.044 176.773 449.69C176.606 449.336 176.365 449.023 176.069 448.772C175.772 448.521 175.426 448.339 175.053 448.237C174.681 448.135 174.292 448.116 173.912 448.182C173.532 448.116 173.143 448.135 172.77 448.237C172.398 448.339 172.052 448.521 171.755 448.772C171.458 449.023 171.218 449.336 171.051 449.69C170.884 450.044 170.793 450.431 170.786 450.824C170.438 451.979 170.44 453.214 170.791 454.368C171.141 455.522 171.824 456.541 172.751 457.293C173.097 457.521 173.5 457.642 173.912 457.642C174.324 457.642 174.727 457.521 175.073 457.293C176.01 456.549 176.7 455.53 177.052 454.374C177.403 453.217 177.398 451.978 177.038 450.824Z" fill="#C6BDBA"/>
</g>
<g style="mix-blend-mode:screen" opacity="0.57">
<path d="M179.897 473.056C178.67 472.156 177.352 471.393 175.966 470.778C175.147 469.882 174.283 469.03 173.376 468.227C172.788 467.662 172.074 467.251 171.297 467.029C170.519 466.807 169.7 466.78 168.91 466.951C168.142 466.813 167.356 466.813 166.587 466.951C165.954 467.14 165.379 467.492 164.918 467.973C164.457 468.454 164.126 469.049 163.955 469.699C163.785 470.349 163.781 471.033 163.945 471.684C164.109 472.336 164.434 472.934 164.89 473.42V473.876C165.049 474.471 165.322 475.029 165.694 475.516C167.09 477.119 168.833 478.367 170.786 479.16H171.232C171.585 479.455 171.976 479.7 172.393 479.889C173.179 480.253 174.032 480.44 174.894 480.436C175.841 480.816 176.869 480.933 177.874 480.773C178.879 480.612 179.824 480.182 180.611 479.525C183.202 478.249 181.772 475.151 179.897 473.056Z" fill="#C6BDBA"/>
</g>
<g style="mix-blend-mode:screen" opacity="0.57">
<path d="M535.849 468.5C532.812 451.006 510.034 445.357 496.904 453.557C496.43 453.835 496.084 454.294 495.941 454.832C495.799 455.371 495.872 455.944 496.144 456.428C496.417 456.911 496.866 457.264 497.394 457.409C497.922 457.555 498.484 457.48 498.958 457.202C524.266 447.605 527.244 458.964 507.89 491.278C500.397 491.056 493.181 488.336 487.346 483.534C485.202 482.076 483.327 484.9 484.13 486.814C478.503 511.141 470.643 517.792 460.549 506.95C460.26 506.644 459.896 506.423 459.494 506.31C459.093 506.197 458.669 506.197 458.267 506.309C457.865 506.42 457.5 506.641 457.21 506.946C456.92 507.251 456.716 507.63 456.619 508.043C452.689 523.532 435.36 505.4 431.787 501.392C430.001 499.296 426.517 502.029 428.036 504.307C448.401 536.105 411.69 569.908 383.374 577.197C339.606 588.86 326.922 546.948 346.037 514.694C346.037 514.694 346.037 514.056 345.501 514.694C315.399 553.872 345.055 598.518 392.306 579.384C413.208 570.911 438.308 550.592 439.737 525.719C440.041 521.989 439.74 518.233 438.844 514.603C442.639 517.917 447.428 519.813 452.421 519.979C457.602 519.979 458.227 514.33 462.604 514.694C471.536 515.332 473.322 526.994 484.488 521.801C493.42 517.427 491.991 507.678 493.42 499.752C493.364 497.217 492.849 494.715 491.902 492.371C495.653 493.829 502.71 495.561 501.727 495.378C517.001 498.203 539.243 488.089 535.849 468.5Z" fill="#C6BDBA"/>
</g>
<g style="mix-blend-mode:screen" opacity="0.57">
<path d="M441.256 65.1455C438.933 65.1455 438.308 68.9722 440.72 69.3366C449.205 70.7033 449.027 80.8168 445.275 87.5591C442.62 91.2303 438.938 93.9958 434.713 95.4919C430.488 96.9881 425.918 97.1447 421.604 95.9413C421.099 95.8175 420.571 95.8283 420.071 95.9721C419.571 96.116 419.115 96.3884 418.748 96.7632C418.38 97.138 418.113 97.6027 417.972 98.1129C417.831 98.6231 417.821 99.1615 417.942 99.6769C418.657 102.957 423.838 124.186 412.136 117.899C410.35 116.897 407.224 117.9 407.492 120.633C408.027 124.915 410.796 150.791 397.666 140.404C397.225 139.926 396.64 139.614 396.004 139.517C395.368 139.421 394.718 139.546 394.16 139.873C393.602 140.199 393.169 140.708 392.93 141.317C392.691 141.926 392.66 142.6 392.842 143.229C393.57 157.614 389.052 171.765 380.159 182.954C375.425 189.514 358.81 209.285 352.379 186.325C354.523 199.536 362.651 202.087 373.817 195.436C388.287 186.325 396.952 164.914 398.649 147.693C411.868 154.982 415.173 139.402 414.548 125.644C420.175 127.557 423.927 126.1 426.428 118.446C427.5 115.075 423.748 105.873 425.177 103.23C428.869 103.065 432.542 102.608 436.164 101.864C450.634 96.5793 465.641 65.6922 441.256 65.1455Z" fill="#C6BDBA"/>
</g>
<g style="mix-blend-mode:screen" opacity="0.57">
<path d="M369.35 365.725C368.815 363.539 365.956 364.268 365.778 365.725C364.438 377.114 353.808 400.803 342.732 377.57C342.472 377.147 342.101 376.808 341.66 376.592C341.219 376.376 340.727 376.292 340.241 376.349C339.755 376.406 339.295 376.602 338.914 376.915C338.533 377.228 338.246 377.645 338.087 378.116C334.425 391.237 314.149 391.784 318.258 375.748C318.37 375.356 318.377 374.94 318.277 374.545C318.178 374.149 317.976 373.788 317.693 373.499C317.41 373.21 317.056 373.005 316.668 372.903C316.28 372.802 315.873 372.809 315.489 372.923C282.171 382.035 271.721 335.84 293.962 316.889C266.093 335.658 279.938 382.945 313.434 378.116C311.559 394.881 332.817 397.979 340.946 384.494C352.826 401.988 374.353 386.135 369.35 365.725Z" fill="#C6BDBA"/>
</g>
<g style="mix-blend-mode:screen" opacity="0.57">
<path d="M244.656 424.402C239.118 429.048 216.698 429.322 226.791 420.211C227.11 419.897 227.33 419.494 227.424 419.053C227.518 418.612 227.481 418.153 227.318 417.733C227.156 417.313 226.874 416.952 226.51 416.695C226.146 416.439 225.715 416.299 225.273 416.293C210.356 414.835 199.905 404.448 204.55 388.959C208.033 377.387 219.467 368.55 228.042 381.123C229.024 382.581 231.257 381.123 230.364 379.757C221.432 365.725 207.319 372.194 201.781 385.679C194.546 403.172 204.996 416.748 221.075 420.393C213.125 432.42 240.011 438.615 247.871 426.862C248.675 424.766 246.085 423.126 244.656 424.402Z" fill="#C6BDBA"/>
</g>
<g style="mix-blend-mode:screen" opacity="0.57">
<path d="M413.923 523.168C402.847 512.69 383.196 530.183 378.193 539.932C378.018 540.255 377.916 540.613 377.895 540.982C377.874 541.35 377.934 541.718 378.071 542.059C378.209 542.4 378.419 542.706 378.688 542.952C378.956 543.199 379.276 543.382 379.623 543.486C383.468 544.92 387.698 544.848 391.493 543.282C395.289 541.717 398.38 538.77 400.167 535.012C400.319 534.815 400.432 534.589 400.499 534.347C400.566 534.105 400.585 533.852 400.556 533.602C400.527 533.353 400.45 533.111 400.33 532.892C400.209 532.673 400.048 532.48 399.854 532.324C399.661 532.169 399.439 532.054 399.202 531.985C398.965 531.917 398.717 531.897 398.472 531.927C398.227 531.957 397.991 532.035 397.776 532.158C397.561 532.281 397.372 532.446 397.219 532.643C395.653 534.647 393.69 536.292 391.458 537.469C389.226 538.647 386.776 539.331 384.267 539.477C390.163 531.459 404.99 518.703 411.868 527.814C421.694 540.935 397.576 551.23 389.18 553.326C374.888 556.879 356.131 549.864 367.475 532.643C377.836 516.972 397.13 511.961 414.012 508.043C395.522 506.312 363.098 519.979 360.418 541.481C357.649 561.253 383.463 560.797 395.611 556.606C407.759 552.415 428.661 536.834 413.923 523.168Z" fill="#C6BDBA"/>
</g>
<g style="mix-blend-mode:screen" opacity="0.57">
<path d="M85.5714 354.61C86.5084 352.657 86.7302 350.427 86.1967 348.323C85.3035 345.954 82.6237 344.496 80.7479 343.038C80.4317 342.86 80.0803 342.756 79.7194 342.734C79.3585 342.712 78.9973 342.774 78.6628 342.914C78.3284 343.054 78.0291 343.269 77.787 343.543C77.5449 343.817 77.3664 344.143 77.2644 344.496C76.1972 347.568 76.0113 350.887 76.7285 354.063C76.593 354.693 76.593 355.346 76.7285 355.976C77.0402 356.963 77.5622 357.867 78.2572 358.623C78.9522 359.379 79.8028 359.969 80.7479 360.35C81.4447 360.58 82.195 360.58 82.8918 360.35C83.7043 360.621 84.5804 360.621 85.3929 360.35C89.2338 359.894 87.3579 356.523 85.5714 354.61Z" fill="#C6BDBA"/>
</g>
<g style="mix-blend-mode:screen" opacity="0.57">
<path d="M124.963 380.85C124.963 380.85 124.963 380.85 124.427 381.305C123.891 381.761 123.802 381.305 123.712 381.761C123.212 383.507 122.972 385.318 122.998 387.137C122.998 388.777 125.32 389.688 126.124 388.048C126.542 387.332 126.871 386.567 127.107 385.77C127.506 385.592 127.846 385.299 128.084 384.926C128.322 384.554 128.448 384.119 128.447 383.674C128.447 383.674 128.447 383.128 128.447 382.945C128.429 382.536 128.312 382.137 128.105 381.786C127.898 381.435 127.608 381.141 127.262 380.933C126.916 380.725 126.525 380.608 126.123 380.594C125.721 380.579 125.323 380.667 124.963 380.85Z" fill="#C6BDBA"/>
</g>
<g style="mix-blend-mode:screen" opacity="0.57">
<path d="M49.9316 396.612C49.1207 394.777 47.8834 393.17 46.3271 391.932C44.7707 390.694 42.9421 389.861 40.9993 389.506C40.4708 389.351 39.9145 389.324 39.3738 389.425C38.8331 389.525 38.3224 389.752 37.8816 390.087C37.4408 390.422 37.0818 390.856 36.8324 391.356C36.583 391.856 36.45 392.407 36.4437 392.968C36.3669 394.819 36.6089 396.669 37.1584 398.435C38.024 402.248 39.9464 405.727 42.6964 408.457C43.0673 408.824 43.5133 409.102 44.0024 409.271C44.4915 409.44 45.0113 409.496 45.5243 409.435C46.0372 409.374 46.5304 409.197 46.9682 408.918C47.406 408.638 47.7777 408.263 48.0558 407.819C50.1043 404.482 50.7784 400.454 49.9316 396.612Z" fill="#C6BDBA"/>
</g>
<g style="mix-blend-mode:overlay" opacity="0.57">
<g style="mix-blend-mode:overlay" opacity="0.57">
<path d="M20.6337 193.887C21.8569 207.472 26.528 220.497 34.1869 231.681C41.8459 242.864 52.2286 251.82 64.3125 257.666C81.713 266.473 101.608 268.716 120.474 263.996C139.339 259.277 155.96 247.901 167.391 231.881C172.572 243.179 176.324 253.201 189.633 254.113C210.445 255.479 206.872 239.352 214.643 226.779C241.976 324.907 380.605 265.319 355.773 174.116C374.263 181.223 395.165 150.791 384.893 133.844C399.274 140.586 402.132 122.364 399.095 111.339C408.027 110.519 419.907 100.953 417.853 91.568C432.681 94.6658 443.31 82.4565 446.526 68.6074C448.156 57.3897 446.149 45.9359 440.809 35.9893C403.524 15.7181 362.459 3.71774 320.308 0.775699C278.156 -2.16634 235.871 4.01649 196.227 18.9184C156.583 33.8203 120.476 57.1045 90.2758 87.2431C60.0754 117.382 36.4639 153.694 20.9908 193.796L20.6337 193.887Z" fill="#C6BDBA"/>
</g>
</g>
<g style="mix-blend-mode:overlay" opacity="0.57">
<g style="mix-blend-mode:overlay" opacity="0.57">
<path d="M211.606 34.0761C193.742 23.5982 147.83 61.4099 132.823 72.5256C104.24 94.3014 76.2817 132.113 71.2796 169.378C70.531 175.932 71.1593 182.572 73.1224 188.859C75.0854 195.145 78.3382 200.933 82.6647 205.838C86.9912 210.742 92.292 214.651 98.2145 217.303C104.137 219.956 110.545 221.291 117.013 221.221C149.973 220.674 190.973 170.289 191.419 139.22C204.818 151.064 225.362 167.191 234.205 139.22C274.132 171.747 315.31 77.1722 292.265 72.161C313.881 83.1856 341.571 45.4651 336.926 25.3293C325.761 -19.6803 225.898 17.4937 211.606 34.0761Z" fill="#C6BDBA"/>
</g>
</g>
<g opacity="0.34">
<path opacity="0.34" d="M299.5 611C360.801 610.994 420.624 591.801 470.891 556.013C521.159 520.224 559.449 469.564 580.593 410.872C601.737 352.18 604.715 288.284 589.126 227.811C573.537 167.337 540.132 113.2 493.42 72.7077C497.082 83.8234 536.652 147.147 508.158 264.773C473.858 406.453 323.796 486.814 156.762 441.349C53.951 413.377 10.6294 354.427 2.14368 341.125C10.6992 415.451 45.7031 483.989 100.515 533.735C155.327 583.481 226.133 610.975 299.5 611Z" fill="#542B24"/>
</g>
<g opacity="0.34">
<path opacity="0.34" d="M583.1 207.554C578.087 220.565 573.91 233.896 570.595 247.461C562.646 273.155 553.713 298.302 545.495 323.814C527.095 380.577 488.418 439.435 434.467 465.129C404.544 479.434 376.943 501.574 345.144 511.597C318.347 520.161 288.871 522.621 261.27 529.363C220.271 539.295 191.955 553.508 149.169 545.399C129.252 541.695 109.966 535.066 91.9132 525.719C107.256 540.797 124.147 554.146 142.292 565.535C151.224 568.815 160.156 571.731 168.374 574.646C213.629 588.465 261.736 589.348 307.45 577.197C376.05 559.613 459.299 519.432 510.659 468.682C548.426 431.081 576.606 384.632 592.747 333.381C594.444 328.005 596.678 319.987 598.732 310.42C598.732 308.871 598.732 307.322 598.732 305.774C598.866 272.379 593.584 239.191 583.1 207.554Z" fill="#542B24"/>
</g>
<g style="mix-blend-mode:screen" opacity="0.31">
<g style="mix-blend-mode:screen" opacity="0.31">
<path d="M250.997 110.975C271.095 106.511 286.191 82.2746 291.282 63.4144C298.964 34.7139 286.191 24.4182 259.662 25.3293C248.999 24.6448 238.346 26.8119 228.756 31.6161C220.449 36.2628 214.375 47.4696 206.157 51.2052C197.94 54.9408 184.273 51.2053 173.912 57.1276C160.513 64.4166 160.513 70.2478 154.797 84.4613C103.704 59.2232 54.3084 159.173 85.9287 197.896C106.473 223.043 153.636 208.921 177.217 194.981C199.101 181.861 218.841 144.96 221.878 120.542C231.079 128.833 258.947 142.591 250.997 110.975Z" fill="#C6BDBA"/>
</g>
</g>
<g style="mix-blend-mode:screen" opacity="0.31">
<g style="mix-blend-mode:screen" opacity="0.31">
<path d="M215.09 112.706C235.545 115.531 262.163 90.3836 238.939 76.2612C215.715 62.1387 186.953 83.1857 174.001 101.044C148.544 84.7346 116.924 110.155 115.673 139.767C115.278 143.22 115.564 146.719 116.514 150.058C117.465 153.397 119.061 156.508 121.209 159.208C123.356 161.908 126.012 164.142 129.019 165.78C132.026 167.417 135.324 168.423 138.719 168.74C162.925 172.476 179.807 147.511 197.94 135.758L215.09 112.706Z" fill="#C6BDBA"/>
</g>
</g>
<g style="mix-blend-mode:multiply" opacity="0.33">
<path d="M244.12 304.407C229.024 279.442 189.186 275.706 173.912 301.947C163.551 319.714 162.657 363.447 186.685 370.736C170.875 358.163 166.587 332.287 172.929 313.336C183.827 280.444 220.628 287.369 239.296 308.325C239.806 308.977 240.548 309.396 241.361 309.49C242.173 309.584 242.989 309.345 243.628 308.826C244.268 308.306 244.679 307.549 244.771 306.72C244.863 305.891 244.629 305.059 244.12 304.407Z" fill="#542B24"/>
</g>
<g style="mix-blend-mode:multiply" opacity="0.33">
<path d="M260.019 280.718C257.813 280.43 255.572 280.723 253.508 281.568C251.445 282.413 249.627 283.783 248.228 285.547C247.125 287.874 246.851 290.521 247.454 293.032C248.057 295.543 249.5 297.761 251.534 299.304C251.98 299.76 252.605 299.304 252.427 298.576C250.819 295.296 248.407 289.464 251.355 286.731C252.796 285.604 254.471 284.829 256.252 284.466C258.033 284.103 259.872 284.161 261.627 284.635C265.762 285.396 269.515 287.583 272.256 290.831C274.876 295.225 276.267 300.266 276.276 305.409C276.4 305.637 276.581 305.827 276.801 305.959C277.021 306.091 277.271 306.161 277.526 306.161C277.782 306.161 278.032 306.091 278.252 305.959C278.472 305.827 278.653 305.637 278.777 305.409C285.119 293.291 271.184 281.72 260.019 280.718Z" fill="#542B24"/>
</g>
<g style="mix-blend-mode:multiply" opacity="0.33">
<path d="M277.526 315.067C277.08 315.067 277.08 315.978 277.526 315.978C309.057 315.978 359.436 302.037 377.032 337.389C377.926 339.211 380.248 338.118 380.427 336.478C384.893 295.569 297.981 307.231 277.526 315.067Z" fill="#542B24"/>
</g>
<g style="mix-blend-mode:multiply" opacity="0.33">
<path d="M435.628 181.496C436.164 181.496 436.075 180.585 435.628 180.312C422.319 171.2 398.738 182.407 393.021 196.347C384.893 216.21 397.13 248.919 416.245 257.94C417.942 258.76 420.533 256.937 419.104 255.024C407.67 239.353 390.074 220.766 399.006 198.99C406.152 181.496 422.498 187.783 435.628 181.496Z" fill="#542B24"/>
</g>
<g style="mix-blend-mode:multiply" opacity="0.33">
<path d="M317.097 73.163C301.376 75.2586 302.894 89.1078 295.48 98.5835C293.337 93.2078 291.104 87.1033 284.404 88.6522C277.705 90.2011 274.49 98.4014 273.864 105.599C270.649 102.319 266.629 100.041 262.61 103.139C254.571 109.517 262.61 124.095 267.076 129.562C267.076 129.562 267.79 129.562 267.612 129.562C265.762 125.87 264.295 121.992 263.235 117.99C266.987 106.51 270.649 104.87 274.132 112.888C274.381 113.273 274.743 113.567 275.165 113.73C275.588 113.892 276.05 113.914 276.486 113.793C276.921 113.672 277.308 113.414 277.592 113.055C277.875 112.696 278.04 112.255 278.063 111.795C278.063 107.604 278.688 90.2013 290.121 99.0392C291.09 100.844 291.897 102.735 292.533 104.688C292.735 105.014 293.004 105.291 293.322 105.499C293.64 105.708 293.999 105.843 294.373 105.895C294.748 105.948 295.129 105.915 295.49 105.801C295.851 105.687 296.183 105.494 296.463 105.235C299.505 102.373 301.78 98.7667 303.073 94.7569C304.949 90.2013 306.289 82.2744 312.005 80.7255L327.011 84.6433C327.011 87.0122 327.815 89.3811 328.173 91.75C328.53 94.1189 331.567 93.1167 331.835 91.2034C332.907 80.7254 328.083 71.6141 317.097 73.163Z" fill="#542B24"/>
</g>
<g style="mix-blend-mode:multiply" opacity="0.33">
<path d="M103.347 154.162C88.5189 149.06 84.1422 163.273 82.5344 175.756C78.9745 172.432 74.377 170.499 69.555 170.299C64.7329 170.099 59.9969 171.645 56.184 174.663C53.4054 176.554 51.325 179.337 50.2723 182.571C49.2197 185.805 49.2552 189.305 50.3729 192.516C51.4906 195.727 53.6268 198.466 56.443 200.299C59.2592 202.131 62.5946 202.953 65.9205 202.634C66.2196 202.645 66.5136 202.553 66.7557 202.374C66.9978 202.194 67.174 201.937 67.2562 201.644C67.3384 201.35 67.3219 201.037 67.2093 200.754C67.0967 200.471 66.8945 200.235 66.6349 200.083C37.605 180.676 75.5673 163.638 82.0879 181.405C82.1779 181.807 82.399 182.167 82.7154 182.424C83.0319 182.682 83.4247 182.822 83.8295 182.822C84.2343 182.822 84.6271 182.682 84.9436 182.424C85.26 182.167 85.4814 181.807 85.5714 181.405C86.1966 170.745 87.2685 151.156 103.436 157.351C109.991 160.445 115.272 165.789 118.358 172.45C121.444 179.111 122.137 186.666 120.318 193.796C120.318 193.796 120.318 194.434 120.765 193.796C129.608 180.312 116.03 158.353 103.347 154.162Z" fill="#542B24"/>
</g>
<g style="mix-blend-mode:multiply" opacity="0.33">
<path d="M49.1276 222.132C49.1276 222.132 49.1277 221.494 48.5917 222.132C35.0146 238.35 12.8624 292.562 42.607 304.133C43.5002 304.133 43.8575 303.222 43.4108 302.676C26.1715 279.897 33.5854 244.637 49.1276 222.132Z" fill="#542B24"/>
</g>
<g style="mix-blend-mode:multiply" opacity="0.33">
<path d="M200.53 35.7161C195.796 27.4249 189.901 26.6048 181.772 31.5249C175.788 35.3516 173.912 41.1828 169.714 46.4673C165.516 51.7519 164.712 50.7497 160.782 54.212C153.368 60.6809 149.527 68.9722 139.523 73.0723C134.163 75.1679 129.965 74.0746 125.677 78.5391C113.619 91.2948 127.017 96.7615 103.704 109.426C96.5844 111.845 89.9342 115.514 84.0531 120.268C82.8026 121.544 84.053 123.184 85.5715 123.002L91.0203 122.182C91.1364 122.134 91.2356 122.053 91.3057 121.947C91.3758 121.842 91.4134 121.717 91.4134 121.59C91.4134 121.462 91.3758 121.338 91.3057 121.232C91.2356 121.126 91.1364 121.045 91.0203 120.997C99.662 117.54 108.024 113.397 116.031 108.606C121.122 104.142 121.479 99.4948 124.248 93.7547C133.181 74.0744 134.967 82.7301 147.919 75.5322C155.065 71.3411 159.799 57.3099 169.356 58.0388C169.847 58.0186 170.319 57.8402 170.704 57.5291C171.09 57.2181 171.368 56.7904 171.5 56.3076C172.661 50.2942 185.97 22.687 196.868 38.085C197.176 38.5804 197.664 38.9307 198.225 39.0589C198.787 39.187 199.375 39.0826 199.86 38.7685C200.346 38.4543 200.689 37.9562 200.815 37.3838C200.941 36.8114 200.838 36.2115 200.53 35.7161Z" fill="#542B24"/>
</g>
<g style="mix-blend-mode:multiply" opacity="0.33">
<path d="M289.049 14.3046C288.759 14.3785 288.488 14.511 288.249 14.6941C288.01 14.8772 287.81 15.1072 287.66 15.3705C287.51 15.6338 287.414 15.9251 287.376 16.2272C287.339 16.5292 287.361 16.836 287.441 17.1292C289.368 25.0252 290.859 33.0252 291.907 41.0916C292.801 45.5561 293.783 46.3762 290.3 49.3829C286.816 52.3896 286.637 51.114 283.154 51.7518C281.353 52.0007 279.621 52.6208 278.062 53.5741C272.435 57.1275 269.934 68.4255 279.402 66.6033C277.973 59.3143 279.938 55.852 285.387 56.3075H289.853C290.891 56.1948 291.911 55.9498 292.89 55.5785C294.057 55.1368 295.083 54.3762 295.855 53.3799C296.627 52.3836 297.115 51.19 297.267 49.9296C297.329 44.9675 296.667 40.0236 295.302 35.2604C294.655 29.8995 293.73 24.5772 292.533 19.3158C299.053 20.2269 300.661 35.7161 303.877 39.4517C304.073 39.6768 304.327 39.8423 304.609 39.9301C304.892 40.0178 305.193 40.0243 305.479 39.949C305.765 39.8737 306.026 39.7195 306.231 39.5031C306.437 39.2868 306.581 39.0168 306.646 38.7228C308.521 29.7937 299.143 10.8423 289.049 14.3046Z" fill="#542B24"/>
</g>
<g style="mix-blend-mode:multiply" opacity="0.33">
<path d="M402.311 453.102C392.217 448.82 388.108 458.296 382.749 464.765C380.594 462.199 377.782 460.295 374.627 459.265C371.473 458.235 368.099 458.121 364.884 458.933C357.936 462.475 352.411 468.369 349.253 475.607C346.394 480.891 337.552 502.121 351.843 497.93C352.009 497.93 352.168 497.862 352.285 497.743C352.403 497.623 352.469 497.461 352.469 497.292C352.469 497.123 352.403 496.96 352.285 496.841C352.168 496.721 352.009 496.654 351.843 496.654C342.911 493.921 351.218 480.709 354.076 476.062C355.473 473.722 357.089 471.525 358.9 469.502C366.224 461.575 374.263 463.58 381.409 470.596C381.935 471.082 382.62 471.352 383.33 471.352C384.04 471.352 384.724 471.082 385.25 470.596C387.126 468.682 389.448 463.762 391.592 462.396L403.829 461.849L405.348 465.767C405.869 468.781 405.869 471.864 405.348 474.878C405.348 477.247 408.295 477.703 409.457 475.971C410.595 474.022 411.314 471.849 411.568 469.595C411.821 467.341 411.603 465.058 410.928 462.897C410.252 460.735 409.135 458.745 407.65 457.056C406.164 455.368 404.345 454.02 402.311 453.102Z" fill="#542B24"/>
</g>
<g style="mix-blend-mode:multiply" opacity="0.33">
<path d="M263.503 367.548C261.763 366.947 259.907 366.783 258.091 367.069C256.276 367.355 254.555 368.084 253.074 369.192C251.593 370.3 250.396 371.756 249.583 373.437C248.771 375.117 248.368 376.972 248.407 378.846C241.44 377.661 236.795 383.401 235.277 391.601C233.758 399.801 231.972 414.835 239.117 420.028C239.324 420.148 239.555 420.22 239.792 420.239C240.03 420.257 240.268 420.221 240.49 420.134C240.712 420.047 240.913 419.91 241.077 419.734C241.241 419.559 241.365 419.348 241.44 419.117C242.78 413.104 236.795 379.028 250.372 386.317C250.931 386.609 251.56 386.733 252.185 386.674C252.811 386.616 253.407 386.376 253.903 385.984C254.4 385.592 254.777 385.064 254.99 384.461C255.203 383.859 255.244 383.206 255.106 382.581C253.588 376.477 257.518 371.192 264.039 373.925C265.81 374.807 267.364 376.083 268.585 377.661C269.807 379.238 270.664 381.075 271.095 383.037C272.418 386.49 273.434 390.058 274.132 393.697C274.132 394.244 274.936 394.153 275.115 393.697C276.617 388.643 276.267 383.205 274.131 378.394C271.995 373.584 268.218 369.729 263.503 367.548Z" fill="#542B24"/>
</g>
<g style="mix-blend-mode:multiply" opacity="0.33">
<path d="M289.853 394.881C288.059 392.914 285.602 391.709 282.975 391.51C280.653 391.51 276.901 392.603 276.365 395.246C276.308 395.39 276.291 395.547 276.318 395.7C276.345 395.853 276.414 395.996 276.517 396.11C276.62 396.225 276.753 396.307 276.9 396.348C277.047 396.388 277.202 396.385 277.348 396.339C279.134 396.339 280.295 394.79 282.35 394.972C283.892 395.184 285.329 395.885 286.459 396.977C287.084 397.615 288.156 398.89 287.888 399.984C287.62 401.077 285.476 401.441 284.583 401.715C284.225 401.797 283.896 401.976 283.629 402.233C283.362 402.489 283.167 402.813 283.065 403.172C283.02 403.535 283.02 403.903 283.065 404.266C283.211 404.707 283.486 405.093 283.853 405.37C284.221 405.647 284.662 405.802 285.119 405.815C286.412 405.947 287.714 405.66 288.837 404.993C289.961 404.325 290.848 403.313 291.374 402.1C291.899 400.887 292.035 399.535 291.762 398.239C291.488 396.942 290.82 395.767 289.853 394.881Z" fill="#542B24"/>
</g>
<g style="mix-blend-mode:multiply" opacity="0.33">
<path d="M405.169 504.581C393.378 507.861 380.069 507.587 369.886 515.15C361.374 521.572 355.438 530.929 353.183 541.481C353.075 541.832 353.087 542.21 353.215 542.554C353.344 542.897 353.581 543.187 353.89 543.376C354.2 543.565 354.562 543.643 354.92 543.597C355.277 543.551 355.61 543.383 355.863 543.121C363.187 536.288 365.51 525.901 373.727 519.432C381.945 512.963 395.969 512.69 405.616 505.765C406.152 505.31 405.794 504.398 405.169 504.581Z" fill="#542B24"/>
</g>
<g style="mix-blend-mode:multiply" opacity="0.33">
<path d="M403.561 517.154C399.506 516.599 395.383 516.903 391.448 518.048C387.514 519.192 383.853 521.152 380.695 523.805C375.603 528.179 369.261 538.383 373.638 545.035C373.729 545.166 373.849 545.273 373.989 545.348C374.129 545.422 374.284 545.461 374.442 545.461C374.6 545.461 374.755 545.422 374.895 545.348C375.035 545.273 375.155 545.166 375.246 545.035C376.556 542.118 377.545 539.062 378.194 535.923C379.393 532.392 381.489 529.248 384.267 526.812C390.011 522.388 396.622 519.28 403.651 517.701C403.651 517.701 403.829 517.245 403.561 517.154Z" fill="#542B24"/>
</g>
<g style="mix-blend-mode:multiply" opacity="0.33">
<path d="M410.797 526.903C414.012 535.195 405.973 540.57 399.453 543.668C396.148 545.217 392.664 546.675 389.18 547.95C387.126 548.679 384.089 549.226 382.838 551.321C382.615 551.745 382.566 552.241 382.699 552.701C382.833 553.162 383.14 553.55 383.553 553.781C386.411 555.148 390.163 552.87 392.485 551.777C397.176 549.715 401.637 547.149 405.794 544.123C410.797 540.297 417.496 532.735 410.797 526.903Z" fill="#542B24"/>
</g>
<g style="mix-blend-mode:multiply" opacity="0.33">
<path d="M398.649 501.301C384.446 492.189 361.58 505.674 351.04 515.241C340.499 524.808 328.887 546.401 343.715 559.339C344.43 559.977 345.948 559.339 345.502 558.246C332.907 524.261 370.691 504.125 398.47 502.121L398.649 501.301Z" fill="#542B24"/>
</g>
<g style="mix-blend-mode:multiply" opacity="0.33">
<path d="M289.853 480.436C283.154 484.536 271.988 508.499 263.056 500.936C262.726 500.601 262.316 500.359 261.866 500.235C261.416 500.111 260.943 500.109 260.492 500.228C260.041 500.348 259.628 500.585 259.295 500.917C258.961 501.249 258.718 501.664 258.59 502.121C255.553 512.508 250.462 521.528 237.688 516.972C233.151 514.897 228.985 512.064 225.362 508.59C230.543 517.701 235.813 524.625 247.246 522.53C251.066 521.67 254.57 519.726 257.352 516.92C260.134 514.115 262.081 510.563 262.967 506.676C275.026 511.596 289.764 492.372 291.908 481.803C291.95 481.541 291.917 481.272 291.812 481.03C291.707 480.787 291.535 480.581 291.317 480.436C291.1 480.291 290.845 480.214 290.585 480.214C290.325 480.214 290.071 480.291 289.853 480.436Z" fill="#542B24"/>
</g>
<g style="mix-blend-mode:multiply" opacity="0.33">
<path d="M352.29 458.113C349.521 450.824 344.608 450.095 338.534 455.198C334.007 459.777 331.33 465.922 331.031 472.418C331.031 474.24 329.691 486.358 326.833 487.178C325.761 487.178 323.706 483.169 322.099 483.898C315.935 486.449 313.166 487.725 314.417 496.38C316.125 501.474 317.176 506.773 317.543 512.143C317.701 517.75 316.275 523.285 313.434 528.088C307.271 538.93 294.766 551.777 283.065 538.93C283.065 538.93 282.171 538.93 282.35 539.477C294.14 561.526 317.275 537.381 322.367 521.983C324.02 514.853 324.02 507.428 322.367 500.298C320.848 481.438 322.903 496.289 327.637 494.103C329.602 493.191 331.656 493.1 333.443 490.914C334.877 488.643 335.737 486.045 335.944 483.351C335.944 481.894 336.39 480.436 336.569 478.978C335.916 475.11 336.66 471.131 338.664 467.78C340.668 464.429 343.796 461.933 347.466 460.755C348.27 463.033 353.362 461.12 352.29 458.113Z" fill="#542B24"/>
</g>
<g style="mix-blend-mode:multiply" opacity="0.33">
<path d="M531.918 121.271C528.018 122.443 524.541 124.755 521.914 127.922C518.653 131.377 515.914 135.307 513.786 139.584C512.535 142.135 510.034 146.509 512.089 149.242C512.214 149.412 512.375 149.549 512.561 149.644C512.748 149.739 512.953 149.789 513.161 149.789C513.369 149.789 513.574 149.739 513.76 149.644C513.946 149.549 514.108 149.412 514.232 149.242C515.479 147.213 516.413 145 517.002 142.682C518.543 139.109 520.557 135.767 522.986 132.751C525.01 130.003 527.453 127.603 530.221 125.644C532.097 124.368 534.866 124.46 536.563 123.184C536.474 121.18 533.437 120.997 531.918 121.271Z" fill="#542B24"/>
</g>
<g style="mix-blend-mode:multiply" opacity="0.33">
<path d="M135.86 363.083C134.178 360.823 131.894 359.106 129.28 358.136C126.666 357.167 123.834 356.986 121.122 357.616C121.122 344.769 113.887 333.289 102.186 339.849C95.129 324.087 66.4563 331.194 51.3607 338.938C52.7899 331.376 54.0405 321.445 48.0558 318.711C39.1235 314.793 36.8903 333.38 35.1039 337.389C37.108 334.23 39.2851 331.188 41.6246 328.278C48.949 325.089 45.2868 339.12 44.3935 344.405C44.3935 346.683 46.4478 349.507 48.6809 347.776C57.6132 341.398 94.325 328.096 97.2726 346.045C97.7192 348.596 101.024 348.869 102.632 347.412C114.423 346.774 118.174 351.785 113.976 362.627C113.793 363.322 113.84 364.059 114.108 364.725C114.377 365.39 114.853 365.947 115.462 366.309C116.071 366.672 116.78 366.82 117.48 366.731C118.18 366.642 118.832 366.321 119.335 365.816C133.746 370.554 138.451 379.119 133.449 391.51C132.287 395.519 131.037 399.437 129.607 403.355C128.178 407.273 132.644 407.546 134.074 405.268C141.13 393.515 146.132 374.381 135.86 363.083Z" fill="#542B24"/>
</g>
<g style="mix-blend-mode:screen" opacity="0.57">
<path d="M138.361 208.83C136.664 208.101 135.503 210.925 137.111 211.928C169.088 230.606 148.723 282.266 117.192 254.659C116.999 254.413 116.755 254.213 116.476 254.076C116.198 253.939 115.893 253.868 115.584 253.868C115.275 253.868 114.97 253.939 114.691 254.076C114.413 254.213 114.168 254.413 113.976 254.659L101.203 257.302C101.008 256.967 100.721 256.697 100.377 256.526C100.034 256.355 99.6496 256.289 99.2705 256.338C98.8913 256.386 98.5341 256.546 98.2428 256.798C97.9515 257.05 97.7385 257.383 97.63 257.757C94.9312 272.276 89.403 286.094 81.3732 298.393C58.3278 331.376 25.725 308.142 21.4375 277.346C22.2414 300.307 40.4633 328.825 66.099 317.891C79.0508 312.425 87.3579 297.938 92.8959 285.729C94.861 281.446 97.1833 266.322 100.31 264.135C100.31 264.135 106.473 266.322 105.669 266.777C109.592 264.087 113.945 262.114 118.532 260.946C128.536 260.946 135.324 267.688 146.936 262.859C176.056 251.288 160.692 218.397 138.361 208.83Z" fill="#C6BDBA"/>
</g>
<g style="mix-blend-mode:screen" opacity="0.57">
<path d="M237.063 441.166C208.837 460.391 187.489 424.128 176.592 402.899C183.291 428.411 209.641 466.678 239.118 444.993C241.619 443.444 239.475 439.526 237.063 441.166Z" fill="#C6BDBA"/>
</g>
<g style="mix-blend-mode:screen" opacity="0.57">
<path d="M326.565 406.999C326.503 406.795 326.378 406.617 326.209 406.491C326.04 406.364 325.836 406.296 325.627 406.296C325.418 406.296 325.214 406.364 325.045 406.491C324.876 406.617 324.751 406.795 324.689 406.999C324.086 414.545 322.555 421.983 320.134 429.14C315.935 436.975 307.807 435.7 302.269 429.686H301.644C300.304 438.797 313.256 439.891 318.794 436.155C327.19 430.871 328.351 415.746 326.565 406.999Z" fill="#C6BDBA"/>
</g>
<g style="mix-blend-mode:screen" opacity="0.57">
<path d="M309.594 450.278C300.661 434.333 285.119 443.626 283.243 458.113C273.507 457.475 255.91 463.489 263.771 475.516C263.765 473.048 264.382 470.619 265.562 468.464C266.742 466.309 268.445 464.5 270.508 463.21C272.571 461.92 274.924 461.193 277.342 461.098C279.76 461.003 282.161 461.544 284.315 462.669C284.63 462.752 284.96 462.761 285.278 462.694C285.597 462.628 285.897 462.489 286.155 462.287C286.414 462.085 286.624 461.826 286.769 461.529C286.914 461.232 286.992 460.905 286.995 460.573C286.721 457.966 287.15 455.332 288.236 452.956C289.322 450.579 291.024 448.551 293.158 447.089C298.785 444.082 303.252 447.818 307.182 452.009C307.407 452.335 307.75 452.557 308.135 452.625C308.52 452.693 308.916 452.603 309.236 452.373C309.556 452.144 309.773 451.794 309.84 451.401C309.907 451.008 309.819 450.604 309.594 450.278Z" fill="#C6BDBA"/>
</g>
<g style="mix-blend-mode:screen" opacity="0.57">
<path d="M394.808 352.878C394.808 351.967 393.557 352.332 393.468 352.878C391.592 367.183 391.235 381.032 381.856 392.695C377.07 398.333 371.026 402.716 364.233 405.475C357.44 408.234 350.097 409.288 342.822 408.548C342.375 408.548 342.196 409.095 342.822 409.186C375.067 418.388 399.006 382.581 394.808 352.878Z" fill="#C6BDBA"/>
</g>
<g style="mix-blend-mode:screen" opacity="0.57">
<path d="M488.24 200.812C488.189 200.672 488.097 200.552 487.978 200.467C487.858 200.382 487.715 200.337 487.57 200.337C487.424 200.337 487.281 200.382 487.162 200.467C487.042 200.552 486.95 200.672 486.9 200.812C485.381 209.923 486.9 223.134 479.307 230.241C476.002 233.43 470.375 233.339 467.606 237.075C463.497 242.906 465.016 249.83 464.48 256.482C464.16 259.808 463.563 263.1 462.693 266.322L447.151 276.253C438.219 276.708 433.485 263.953 430.448 258.03H429.733C431.162 278.348 459.478 291.833 466.177 267.142C468.142 259.762 465.373 248.919 468.499 242.359C471.625 235.799 477.432 236.528 481.54 232.428C484.908 228.007 487.259 222.87 488.419 217.398C489.578 211.925 489.517 206.257 488.24 200.812Z" fill="#C6BDBA"/>
</g>
<g style="mix-blend-mode:screen" opacity="0.57">
<path d="M211.695 44.8273C207.319 64.6898 183.648 89.1992 161.943 76.5346C161.763 76.4106 161.556 76.3329 161.34 76.3085C161.125 76.2841 160.907 76.3135 160.704 76.3941C160.502 76.4748 160.322 76.6045 160.18 76.7717C160.038 76.939 159.938 77.139 159.888 77.3545L133.895 92.5702C133.737 92.515 133.569 92.4954 133.402 92.5126C133.236 92.5298 133.075 92.5835 132.931 92.67C132.787 92.7565 132.663 92.8739 132.567 93.0139C132.471 93.154 132.406 93.3134 132.377 93.4813C128.357 104.962 106.294 144.14 85.8394 127.375C85.8394 127.375 85.2142 127.375 85.8394 127.831C93.7892 137.397 108.259 129.835 116.477 123.549C124.695 117.262 128 103.959 136.039 99.2215C141.22 96.1236 146.49 98.2191 152.028 94.848C157.566 91.4768 158.816 83.9146 165.426 81.9102C172.036 79.9057 178.557 84.0056 186.864 80.3611C193.958 77.4832 200.176 72.7365 204.884 66.6058C209.592 60.4751 212.62 53.1801 213.661 45.4652C213.744 45.1994 213.719 44.9108 213.594 44.663C213.468 44.4152 213.251 44.2286 212.991 44.144C212.73 44.0594 212.447 44.0839 212.204 44.212C211.962 44.3402 211.778 44.5615 211.695 44.8273Z" fill="#C6BDBA"/>
</g>
<g style="mix-blend-mode:screen" opacity="0.57">
<path d="M237.688 192.338C231.614 193.705 228.756 196.347 222.414 189.514C222.247 189.32 222.04 189.165 221.809 189.058C221.578 188.952 221.328 188.897 221.074 188.897C220.821 188.897 220.57 188.952 220.339 189.058C220.108 189.165 219.902 189.32 219.734 189.514C218.127 193.978 214.554 195.254 209.016 193.432C208.837 193.049 208.532 192.742 208.155 192.564C207.778 192.385 207.351 192.347 206.949 192.455C206.547 192.563 206.194 192.81 205.952 193.155C205.71 193.5 205.593 193.92 205.621 194.343C213.035 227.963 180.79 262.586 149.884 267.233C179.718 272.062 208.212 234.523 210.088 207.099C210.266 205.068 210.266 203.025 210.088 200.994C211.663 201.647 213.425 201.647 215 200.994C216.787 200.356 217.502 197.896 219.109 196.985C224.915 193.978 220.181 196.347 225.005 196.439C229.587 196.679 234.181 196.312 238.671 195.345C241.083 195.254 239.921 191.792 237.688 192.338Z" fill="#C6BDBA"/>
</g>
<g style="mix-blend-mode:screen" opacity="0.57">
<path d="M309.951 249.284C305.663 255.479 298.25 262.495 289.942 258.395C286.548 256.755 284.851 252.746 282.618 249.922C280.973 247.149 278.453 245.029 275.472 243.908C275.089 243.806 274.683 243.83 274.314 243.977C273.945 244.125 273.631 244.387 273.418 244.728C269.13 253.839 258.322 241.721 255.553 237.53C255.553 237.53 254.749 237.53 254.928 237.53C255.847 240.517 257.394 243.263 259.462 245.576C261.529 247.889 264.067 249.714 266.897 250.924C269.577 251.744 270.827 250.924 273.328 250.924C273.954 250.924 274.847 248.919 275.293 248.919C278.062 248.919 279.313 253.292 280.564 255.115C284.762 261.219 288.603 265.684 296.463 265.046C300.411 264.914 304.179 263.327 307.069 260.58C309.959 257.833 311.776 254.112 312.184 250.104C312.541 248.555 310.576 248.373 309.951 249.284Z" fill="#C6BDBA"/>
</g>
<g style="mix-blend-mode:screen" opacity="0.57">
<path d="M427.947 76.0788C420.175 89.1079 390.877 111.886 374.353 108.879C372.924 108.879 371.048 109.882 371.673 111.704C374.729 119.739 376.127 128.33 375.782 136.942C375.782 139.129 370.958 160.631 366.045 152.978C365.714 152.562 365.25 152.279 364.734 152.179C364.218 152.078 363.684 152.166 363.225 152.427C362.767 152.688 362.413 153.105 362.226 153.606C362.04 154.107 362.032 154.658 362.205 155.164C370.422 171.291 337.998 168.102 331.21 169.196C330.048 169.196 330.048 171.474 331.21 171.565C342.286 173.205 350.95 176.758 361.043 169.378C362.716 168.413 364.174 167.105 365.327 165.537C366.48 163.969 367.302 162.175 367.743 160.267C376.675 162.727 380.426 134.026 379.712 127.284C379.712 123.366 377.032 116.077 378.372 113.89C378.372 113.89 394.182 107.695 395.79 106.784C409.546 98.7658 424.731 93.2081 430.626 77.0812C431.341 75.6234 428.661 74.621 427.947 76.0788Z" fill="#C6BDBA"/>
</g>
<g style="mix-blend-mode:screen" opacity="0.57">
<path d="M289.228 201.085C288.485 199.84 287.298 198.936 285.916 198.562C284.534 198.189 283.064 198.374 281.814 199.081C280.294 199.821 278.959 200.902 277.907 202.243C276.855 203.584 276.114 205.151 275.74 206.825L275.293 207.828C275.027 208.656 275.027 209.55 275.293 210.379C275.025 212.069 275.025 213.791 275.293 215.481C275.668 216.817 276.544 217.949 277.731 218.631C278.918 219.313 280.321 219.491 281.635 219.126C283.353 218.53 284.929 217.572 286.261 216.315C287.594 215.058 288.652 213.53 289.368 211.829C290.084 210.128 290.441 208.293 290.417 206.442C290.393 204.591 289.988 202.766 289.228 201.085Z" fill="#C6BDBA"/>
</g>
<g style="mix-blend-mode:screen" opacity="0.57">
<path d="M305.038 221.221C304.612 221.221 304.202 221.394 303.901 221.701C303.599 222.009 303.43 222.426 303.43 222.861C303.43 223.296 303.599 223.713 303.901 224.021C304.202 224.328 304.612 224.501 305.038 224.501C305.464 224.501 305.873 224.328 306.175 224.021C306.476 223.713 306.646 223.296 306.646 222.861C306.646 222.426 306.476 222.009 306.175 221.701C305.873 221.394 305.464 221.221 305.038 221.221Z" fill="#C6BDBA"/>
</g>
</g>
<defs>
<clipPath id="clip0_113_172">
<rect width="599" height="611" fill="white"/>
</clipPath>
</defs>
</svg>
